<svg id="Layer_1" data-name="Layer 1" xmlns="http://www.w3.org/2000/svg" width="1920" height="1080" viewBox="0 0 1920 1080"><defs><style>.cls-1{fill:#77aebf;stroke:#b3b3b3;stroke-width:2px;}.cls-1,.cls-2{stroke-miterlimit:10;}.cls-2{fill:#7c4940;stroke:#e85f3d;stroke-width:12px;}.cls-3{fill:#c12755;}.cls-4{fill:#742d1b;}</style></defs><title>baggrund</title><rect class="cls-1" width="1919" height="1080"/><rect class="cls-2" x="0.5" y="400.5" width="1918.5" height="680" rx="12" ry="12"/><path class="cls-3" d="M1440.49,114.11a1.17,1.17,0,0,1-.26.1s0-.07,0-.1"/><path class="cls-4" d="M593.65,506.88c-31.51-10.11-73.64-4-96.19,7.77-20.44,10-49.16,7.9-90.37-6.57a2,2,0,0,0-1.33,3.78,262.63,262.63,0,0,0,36.71,10.29c23.67,4.58,42.14,3.24,56.78-3.92h0c21.82-11.39,62.62-17.31,93.14-7.52a2,2,0,1,0,1.22-3.81Z"/><path class="cls-4" d="M1013.65,754.88c-31.51-10.11-73.64-4-96.19,7.77-20.44,10-49.16,7.9-90.37-6.57a2,2,0,0,0-1.33,3.78,262.63,262.63,0,0,0,36.71,10.29c23.67,4.58,42.14,3.24,56.78-3.92h0c21.82-11.39,62.62-17.31,93.14-7.52a2,2,0,1,0,1.22-3.81Z"/><path class="cls-4" d="M1871.65,499.88c-31.51-10.11-73.64-4-96.19,7.77-20.44,10-49.16,7.9-90.37-6.57a2,2,0,0,0-1.33,3.78,262.63,262.63,0,0,0,36.71,10.29c23.67,4.58,42.14,3.24,56.78-3.92h0c21.82-11.39,62.62-17.31,93.14-7.52a2,2,0,1,0,1.22-3.81Z"/></svg>
