<svg id="Layer_1" data-name="Layer 1" xmlns="http://www.w3.org/2000/svg" width="1920" height="1080" viewBox="0 0 1920 1080"><defs><style>.cls-1{fill:#666;}.cls-2,.cls-8{fill:#f1f2ed;}.cls-2{stroke:#000;stroke-width:5px;}.cls-2,.cls-7{stroke-miterlimit:10;}.cls-3{fill:#4d4d4d;}.cls-4{fill:#742d1b;}.cls-5{fill:#c06543;}.cls-6{fill:#c77048;}.cls-7{fill:#2e9cc6;stroke:#c1272d;stroke-width:2px;}.cls-9{fill:#f1640d;}.cls-10{fill:#f3b803;}.cls-11{fill:#99ada1;}.cls-12{fill:#c1272d;}.cls-13{fill:#ed1c24;}.cls-14{fill:#fcee6a;}.cls-15{fill:#fcee52;}.cls-16{fill:#db1620;}</style></defs><title>forgrundv2</title><rect class="cls-1" x="42.46" y="372.93" width="176.54" height="687.07" rx="12" ry="12"/><rect class="cls-2" x="24.87" y="370" width="176.54" height="677.64" rx="12" ry="12"/><rect class="cls-3" x="356.34" y="927" width="1142.76" height="191" rx="33.29" ry="33.29"/><rect class="cls-4" x="344" y="914" width="1142.76" height="191" rx="33.29" ry="33.29"/><rect class="cls-5" x="411.56" y="960.13" width="1006.41" height="121.87" rx="15.4" ry="15.4"/><polygon class="cls-5" points="1422.02 952.85 411.17 955.27 367.47 922.9 1468.96 922.9 1422.02 952.85"/><polygon class="cls-6" points="359.38 1075 401.46 1075 401.46 967.15 360.19 926.95 359.38 1075"/><polygon class="cls-6" points="1472.19 1075 1430.11 1075 1428.49 964.62 1471.39 929.38 1472.19 1075"/><path class="cls-7" d="M645,1077c0-82,157-69,239-69s270-15,270,67"/><path class="cls-8" d="M978,1042c-30.14,35.74-100.94,40.25-176,0a12,12,0,0,1-12-12v-20a12,12,0,0,1,12-12H978a12,12,0,0,1,12,12v20A12,12,0,0,1,978,1042Z"/><path class="cls-9" d="M1023.08,869.17l-3.39-59.73c11.81-10.29,33.74-78.12,33.34-105.53a4,4,0,0,0-4.56-3.88c-14.92,1.73-62.08,5.51-76.11,6.06L820,718.88c-30.36,1.22-54.17,26.28-52.91,55.69l1.23,28.81a13.23,13.23,0,0,0,.41,2.76l4.54,106.07c0,1-.07,2.07,0,3.11,2.37,85.55,71.63,134.09,132.53,144.66,71.12,12.34,126.87-102.68,118.86-181.34C1024.25,875.42,1023.64,872.28,1023.08,869.17Z"/><path class="cls-9" d="M851.41,988.11c-4.93-26.65-5.13-62.5-4.65-101.85a2.38,2.38,0,0,1,4.75,0c-.76,61.64.21,118.54,20.06,137.37a23,23,0,0,0,17.41,6.48,2.3,2.3,0,1,1,.15,4.6,28.05,28.05,0,0,1-20.88-7.79C859.86,1019,854.63,1005.52,851.41,988.11Z"/><path class="cls-9" d="M901.19,971.3c-6.92-37.44-9.72-87.36-12.09-142.12-.07-1.77.94-3.11,2.27-3s2.46,1.64,2.54,3.4c3.71,85.78,8.82,165.07,30.28,192.64,5.22,6.7,11.14,10,18.1,10.2,1.32,0,2.49,1.46,2.64,3.27s-.83,3.17-2.15,3.14c-8.23-.19-15.53-4.32-21.71-12.26C912,1014.91,905.71,995.77,901.19,971.3Z"/><path class="cls-9" d="M955.75,955.36c-3.19-17.25-3.32-40.46-3-65.93a1.54,1.54,0,0,1,3.07,0c-.49,39.91.14,76.73,13,88.92a14.89,14.89,0,0,0,11.27,4.2,1.49,1.49,0,1,1,.1,3,18.11,18.11,0,0,1-13.52-5C961.22,975.36,957.83,966.63,955.75,955.36Z"/><path class="cls-9" d="M922.52,747.6c-7.35,1.86-15.37,3.58-23.82,5.32-.81.16-1.72-.7-2-1.93s.09-2.33.87-2.53h.05c28.72-5.9,68.06-14,64.48-34.1-.22-1.25.28-2.28,1.12-2.32s1.7.94,1.92,2.18C968.25,731.9,950,740.65,922.52,747.6Z"/><path class="cls-9" d="M983.53,747.6c-7.35,1.86-15.37,3.58-23.82,5.32-.81.16-1.72-.7-2-1.93s.09-2.33.87-2.53h.05c28.71-5.9,68.05-14,64.47-34.1-.22-1.25.29-2.28,1.13-2.32s1.7.94,1.92,2.18C1029.26,731.9,1011,740.65,983.53,747.6Z"/><path class="cls-9" d="M833.56,747.4a1.38,1.38,0,0,1-.13-.59,2.61,2.61,0,0,1,2.31-2.17l2.22-.37c16.35-2.74,33.26-5.56,41.64-12.26a2.71,2.71,0,0,1,3.2-.27c.78.63.61,1.79-.38,2.58C872.78,742,855.05,745,837.9,747.85l-2.22.38A1.92,1.92,0,0,1,833.56,747.4Z"/><path class="cls-10" d="M1015,865.17l-3.28-59.73c11.43-10.29,32.68-78.12,32.29-105.53a4,4,0,0,0-4.42-3.88c-14.45,1.73-60.12,5.51-73.71,6.06L818.3,714.88a53.67,53.67,0,0,0-51.25,55.69l1.19,28.81a13.92,13.92,0,0,0,.4,2.76L773,908.21c0,1,0,2.07,0,3.11,0,74.27,66.22,132.43,128.37,144.66,70.68,13.91,124.63-109,115.12-181.34C1016.05,871.43,1015.57,868.28,1015,865.17Z"/><path class="cls-6" d="M848.75,984.11c-4.77-26.65-5-62.5-4.5-101.85a2.3,2.3,0,1,1,4.6,0c-.73,61.64.21,118.54,19.43,137.37a21.9,21.9,0,0,0,16.86,6.48,2.3,2.3,0,0,1,.15,4.6,26.66,26.66,0,0,1-20.22-7.79C856.94,1015,851.87,1001.52,848.75,984.11Z"/><path class="cls-6" d="M897,967.3c-6.7-37.44-9.42-87.36-11.71-142.12-.07-1.77.91-3.11,2.2-3s2.38,1.64,2.46,3.4c3.59,85.78,8.54,165.07,29.33,192.64,5,6.7,10.78,10,17.52,10.2,1.28,0,2.42,1.46,2.56,3.27s-.8,3.17-2.08,3.14c-8-.19-15-4.32-21-12.26C907.44,1010.91,901.35,991.77,897,967.3Z"/><path class="cls-6" d="M949.81,951.36c-3.09-17.25-3.22-40.46-2.91-65.93a1.49,1.49,0,0,1,3,0c-.47,39.91.14,76.73,12.58,88.92a14.15,14.15,0,0,0,10.91,4.2,1.49,1.49,0,1,1,.1,3,17.22,17.22,0,0,1-13.09-5C955.11,971.36,951.83,962.63,949.81,951.36Z"/><path class="cls-6" d="M917.63,743.6c-7.12,1.86-14.89,3.58-23.07,5.32-.79.16-1.67-.7-2-1.93s.09-2.33.85-2.53h0c27.81-5.9,65.92-14,62.45-34.1-.21-1.25.27-2.28,1.08-2.32s1.65.94,1.87,2.18C961.92,727.9,944.27,736.65,917.63,743.6Z"/><path class="cls-6" d="M976.72,743.6c-7.13,1.86-14.89,3.58-23.08,5.32-.78.16-1.66-.7-2-1.93s.09-2.33.84-2.53h.05c27.81-5.9,65.91-14,62.45-34.1-.22-1.25.27-2.28,1.08-2.32s1.65.94,1.86,2.18C1021,727.9,1003.36,736.65,976.72,743.6Z"/><path class="cls-6" d="M831.47,743.4a1.25,1.25,0,0,1-.13-.59,2.57,2.57,0,0,1,2.24-2.17l2.15-.37c15.84-2.74,32.21-5.56,40.32-12.26a2.56,2.56,0,0,1,3.1-.27c.76.63.6,1.79-.36,2.58-9.34,7.71-26.51,10.67-43.12,13.53l-2.15.38A1.82,1.82,0,0,1,831.47,743.4Z"/><polyline class="cls-1" points="1386.8 975.33 1386.8 1108.01 1242.87 1108.01 1237.39 1102.62 1232 1096.68 1232 964 1370.95 964"/><rect class="cls-11" x="1232" y="964" width="138.95" height="132.68"/><circle class="cls-12" cx="1303.07" cy="1045.32" r="28.71"/><circle class="cls-13" cx="1295.23" cy="1041.4" r="28.71"/><path d="M1254.64,998.28h-2l-3.33-5.38v5.38h-1.85v-7.84h2.42l2.86,4.49v-4.49h1.85Z"/><path d="M1263.57,995.44a2.8,2.8,0,0,1-.89,2.23,4.74,4.74,0,0,1-5.21,0,2.77,2.77,0,0,1-.88-2.22v-5h2v4.89a1.83,1.83,0,0,0,.34,1.22,1.38,1.38,0,0,0,1.11.4,1.45,1.45,0,0,0,1.11-.38,1.78,1.78,0,0,0,.35-1.24v-4.89h2Z"/><path d="M1269.06,998.44a4.91,4.91,0,0,1-1.62-.26,3.41,3.41,0,0,1-1.27-.77,3.46,3.46,0,0,1-.83-1.28,5,5,0,0,1-.29-1.76,5,5,0,0,1,.28-1.69,3.67,3.67,0,0,1,.81-1.3,3.46,3.46,0,0,1,1.27-.81,4.61,4.61,0,0,1,1.65-.28,7.8,7.8,0,0,1,.89.05,6.9,6.9,0,0,1,.74.15c.23.07.45.14.64.22l.5.23v1.9h-.23l-.37-.3-.51-.34a3.63,3.63,0,0,0-.63-.28,2.09,2.09,0,0,0-.72-.11,2.45,2.45,0,0,0-.81.13,2,2,0,0,0-1.21,1.24,3.27,3.27,0,0,0-.2,1.2,3.16,3.16,0,0,0,.21,1.23,2.14,2.14,0,0,0,.53.77,1.91,1.91,0,0,0,.71.42,2.74,2.74,0,0,0,.78.12,2.58,2.58,0,0,0,.73-.11,2.69,2.69,0,0,0,.67-.3,5.72,5.72,0,0,0,.48-.32l.36-.3h.21v1.87l-.56.25a4.77,4.77,0,0,1-.57.2c-.25.07-.49.13-.72.17A5.47,5.47,0,0,1,1269.06,998.44Z"/><path d="M1279,998.28h-5.66v-7.84h2v6.33H1279Z"/><path d="M1286,998.28h-5.67v-7.84H1286V992h-3.66v1.35h3.4v1.52h-3.4v1.94H1286Z"/><path d="M1295,998.28h-2.09l-.55-1.58h-2.9l-.55,1.58h-2l2.89-7.84h2.33Zm-3.12-3-1-2.81-1,2.81Z"/><path d="M1303.7,998.28h-2.47l-2.13-2.87h-.94v2.87h-2v-7.84h3.39a8.3,8.3,0,0,1,1.2.08,2.61,2.61,0,0,1,.93.34,2.2,2.2,0,0,1,.71.68,2,2,0,0,1,.26,1.06,2.38,2.38,0,0,1-.4,1.41,3,3,0,0,1-1.16.91Zm-3.15-5.44a1,1,0,0,0-.12-.5.8.8,0,0,0-.42-.33,1.69,1.69,0,0,0-.48-.11l-.64,0h-.73V994h.62a5.82,5.82,0,0,0,.81,0,1.09,1.09,0,0,0,.55-.22,1,1,0,0,0,.31-.36A1.28,1.28,0,0,0,1300.55,992.84Z"/><path d="M1314,998.28h-5.66v-7.84h2v6.33H1314Z"/><path d="M1322.56,998.28h-2.09l-.55-1.58H1317l-.55,1.58h-2l2.89-7.84h2.33Zm-3.12-3-1-2.81-1,2.81Z"/><path d="M1330.61,995.44a2.8,2.8,0,0,1-.89,2.23,4.74,4.74,0,0,1-5.21,0,2.77,2.77,0,0,1-.88-2.22v-5h2v4.89a1.89,1.89,0,0,0,.34,1.22,1.39,1.39,0,0,0,1.12.4,1.44,1.44,0,0,0,1.1-.38,1.78,1.78,0,0,0,.35-1.24v-4.89h2Z"/><path d="M1339.68,998.28h-1.94l-3.33-5.38v5.38h-1.86v-7.84H1335l2.86,4.49v-4.49h1.85Z"/><path d="M1345.28,998.44a4.9,4.9,0,0,1-1.61-.26,3.41,3.41,0,0,1-1.27-.77,3.46,3.46,0,0,1-.83-1.28,5,5,0,0,1-.29-1.76,4.79,4.79,0,0,1,.28-1.69,3.67,3.67,0,0,1,.81-1.3,3.38,3.38,0,0,1,1.27-.81,4.61,4.61,0,0,1,1.65-.28,7.8,7.8,0,0,1,.89.05,6.9,6.9,0,0,1,.74.15c.23.07.45.14.64.22l.5.23v1.9h-.23l-.37-.3-.51-.34a3.63,3.63,0,0,0-.63-.28,2.09,2.09,0,0,0-.72-.11,2.45,2.45,0,0,0-.81.13,2,2,0,0,0-1.21,1.24,3.27,3.27,0,0,0-.2,1.2,3.16,3.16,0,0,0,.21,1.23,2,2,0,0,0,.53.77,1.91,1.91,0,0,0,.71.42,2.64,2.64,0,0,0,.78.12,2.58,2.58,0,0,0,.73-.11,2.69,2.69,0,0,0,.67-.3,5.72,5.72,0,0,0,.48-.32l.36-.3h.21v1.87l-.56.25a4.77,4.77,0,0,1-.57.2c-.25.07-.49.13-.72.17A5.52,5.52,0,0,1,1345.28,998.44Z"/><path d="M1356.63,998.28h-2v-3.45h-3v3.45h-2v-7.84h2v2.87h3v-2.87h2Z"/><path class="cls-14" d="M1383.52,1112.3l-56.16,19.14c-11.71-14.34-22.62-30.73-23.21-53.06l54.63-18.62C1360.9,1081.81,1373.67,1097.51,1383.52,1112.3Z"/><path class="cls-15" d="M1360.9,1071l-54.63,18.61c-1.18-1.94-1.72-6.32-2.12-11.24l54.63-18.62C1359.29,1064.92,1360,1068.68,1360.9,1071Z"/><circle class="cls-16" cx="1295.38" cy="1041.4" r="28.86"/></svg>
