<svg id="Layer_1" data-name="Layer 1" xmlns="http://www.w3.org/2000/svg" width="1920" height="1080" viewBox="0 0 1920 1080"><defs><style>.cls-1{fill:#666;}.cls-2,.cls-8{fill:#f1f2ed;}.cls-2{stroke:#000;stroke-width:5px;}.cls-2,.cls-7{stroke-miterlimit:10;}.cls-3{fill:#4d4d4d;}.cls-4{fill:#742d1b;}.cls-5{fill:#c06543;}.cls-6{fill:#c77048;}.cls-7{fill:#2e9cc6;stroke:#c1272d;stroke-width:2px;}.cls-9{fill:#f1640d;}.cls-10{fill:#f3b803;}.cls-11{fill:#99ada1;}.cls-12{fill:#c1272d;}.cls-13{fill:#ed1c24;}.cls-14{fill:#fcee6a;}.cls-15{fill:#fcee52;}.cls-16{fill:#db1620;}.cls-17{fill:#1a1a1a;}.cls-18{fill:#333;}</style></defs><title>forgrund</title><rect class="cls-1" x="49.46" y="366.93" width="176.54" height="687.07" rx="12" ry="12"/><rect class="cls-2" x="31.87" y="364" width="176.54" height="677.64" rx="12" ry="12"/><rect class="cls-3" x="285.34" y="931" width="1142.76" height="191" rx="33.29" ry="33.29"/><rect class="cls-4" x="273" y="918" width="1142.76" height="191" rx="33.29" ry="33.29"/><rect class="cls-5" x="340.56" y="964.13" width="1006.41" height="108.45" rx="15.4" ry="15.4"/><polygon class="cls-5" points="1351.02 956.85 340.17 959.27 296.47 926.9 1397.96 926.9 1351.02 956.85"/><polygon class="cls-6" points="288.38 1079 330.46 1079 330.46 971.15 289.19 930.95 288.38 1079"/><polygon class="cls-6" points="1401.19 1079 1359.11 1079 1357.49 968.62 1400.39 933.38 1401.19 1079"/><path class="cls-7" d="M574,1081c0-82,157-69,239-69s270-15,270,67"/><path class="cls-8" d="M907,1046c-30.14,35.74-100.94,40.25-176,0a12,12,0,0,1-12-12v-20a12,12,0,0,1,12-12H907a12,12,0,0,1,12,12v20A12,12,0,0,1,907,1046Z"/><path class="cls-9" d="M952.08,873.17l-3.39-59.73c11.81-10.29,33.74-78.12,33.34-105.53a4,4,0,0,0-4.56-3.88c-14.92,1.73-62.08,5.51-76.11,6.06L749,722.88c-30.36,1.22-54.17,26.28-52.91,55.69l1.23,28.81a13.23,13.23,0,0,0,.41,2.76l4.54,106.07c0,1-.07,2.07,0,3.11,2.37,85.55,71.63,134.09,132.53,144.66,71.12,12.34,126.87-102.68,118.86-181.34C953.25,879.42,952.64,876.28,952.08,873.17Z"/><path class="cls-9" d="M780.41,992.11c-4.93-26.65-5.13-62.5-4.65-101.85a2.38,2.38,0,0,1,4.75,0c-.76,61.64.21,118.54,20.06,137.37a23,23,0,0,0,17.41,6.48,2.3,2.3,0,1,1,.15,4.6,28.05,28.05,0,0,1-20.88-7.79C788.86,1023,783.63,1009.52,780.41,992.11Z"/><path class="cls-9" d="M830.19,975.3c-6.92-37.44-9.72-87.36-12.09-142.12-.07-1.77.94-3.11,2.27-3s2.46,1.64,2.54,3.4c3.71,85.78,8.82,165.07,30.28,192.64,5.22,6.7,11.14,10,18.1,10.2,1.32,0,2.49,1.46,2.64,3.27s-.83,3.17-2.15,3.14c-8.23-.19-15.53-4.32-21.71-12.26C841,1018.91,834.71,999.77,830.19,975.3Z"/><path class="cls-9" d="M884.75,959.36c-3.19-17.25-3.32-40.46-3-65.93a1.54,1.54,0,0,1,3.07,0c-.49,39.91.14,76.73,13,88.92a14.89,14.89,0,0,0,11.27,4.2,1.49,1.49,0,1,1,.1,3,18.11,18.11,0,0,1-13.52-5C890.22,979.36,886.83,970.63,884.75,959.36Z"/><path class="cls-9" d="M851.52,751.6c-7.35,1.86-15.37,3.58-23.82,5.32-.81.16-1.72-.7-2-1.93s.09-2.33.87-2.53h.05c28.72-5.9,68.06-14,64.48-34.1-.22-1.25.28-2.28,1.12-2.32s1.7.94,1.92,2.18C897.25,735.9,879,744.65,851.52,751.6Z"/><path class="cls-9" d="M912.53,751.6c-7.35,1.86-15.37,3.58-23.82,5.32-.81.16-1.72-.7-2-1.93s.09-2.33.87-2.53h.05c28.71-5.9,68-14,64.47-34.1-.22-1.25.29-2.28,1.13-2.32s1.7.94,1.92,2.18C958.26,735.9,940,744.65,912.53,751.6Z"/><path class="cls-9" d="M762.56,751.4a1.38,1.38,0,0,1-.13-.59,2.61,2.61,0,0,1,2.31-2.17l2.22-.37c16.35-2.74,33.26-5.56,41.64-12.26a2.71,2.71,0,0,1,3.2-.27c.78.63.61,1.79-.38,2.58C801.78,746,784.05,749,766.9,751.85l-2.22.38A1.92,1.92,0,0,1,762.56,751.4Z"/><path class="cls-10" d="M944,869.17l-3.28-59.73c11.43-10.29,32.68-78.12,32.29-105.53a4,4,0,0,0-4.42-3.88c-14.45,1.73-60.12,5.51-73.71,6.06L747.3,718.88a53.67,53.67,0,0,0-51.25,55.69l1.19,28.81a13.92,13.92,0,0,0,.4,2.76L702,912.21c0,1,0,2.07,0,3.11,0,74.27,66.22,132.43,128.37,144.66C901,1073.89,955,950.94,945.48,878.64,945.05,875.43,944.57,872.28,944,869.17Z"/><path class="cls-6" d="M777.75,988.11c-4.77-26.65-5-62.5-4.5-101.85a2.3,2.3,0,1,1,4.6,0c-.73,61.64.21,118.54,19.43,137.37a21.9,21.9,0,0,0,16.86,6.48,2.3,2.3,0,0,1,.15,4.6,26.66,26.66,0,0,1-20.22-7.79C785.94,1019,780.87,1005.52,777.75,988.11Z"/><path class="cls-6" d="M826,971.3c-6.7-37.44-9.42-87.36-11.71-142.12-.07-1.77.91-3.11,2.2-3s2.38,1.64,2.46,3.4c3.59,85.78,8.54,165.07,29.33,192.64,5,6.7,10.78,10,17.52,10.2,1.28,0,2.42,1.46,2.56,3.27s-.8,3.17-2.08,3.14c-8-.19-15-4.32-21-12.26C836.44,1014.91,830.35,995.77,826,971.3Z"/><path class="cls-6" d="M878.81,955.36c-3.09-17.25-3.22-40.46-2.91-65.93a1.49,1.49,0,0,1,3,0c-.47,39.91.14,76.73,12.58,88.92a14.15,14.15,0,0,0,10.91,4.2,1.49,1.49,0,1,1,.1,3,17.22,17.22,0,0,1-13.09-5C884.11,975.36,880.83,966.63,878.81,955.36Z"/><path class="cls-6" d="M846.63,747.6c-7.12,1.86-14.89,3.58-23.07,5.32-.79.16-1.67-.7-2-1.93s.09-2.33.85-2.53h0c27.81-5.9,65.92-14,62.45-34.1-.21-1.25.27-2.28,1.08-2.32s1.65.94,1.87,2.18C890.92,731.9,873.27,740.65,846.63,747.6Z"/><path class="cls-6" d="M905.72,747.6c-7.13,1.86-14.89,3.58-23.08,5.32-.78.16-1.66-.7-2-1.93s.09-2.33.84-2.53h.05c27.81-5.9,65.91-14,62.45-34.1-.22-1.25.27-2.28,1.08-2.32s1.65.94,1.86,2.18C950,731.9,932.36,740.65,905.72,747.6Z"/><path class="cls-6" d="M760.47,747.4a1.25,1.25,0,0,1-.13-.59,2.57,2.57,0,0,1,2.24-2.17l2.15-.37c15.84-2.74,32.21-5.56,40.32-12.26a2.56,2.56,0,0,1,3.1-.27c.76.63.6,1.79-.36,2.58-9.34,7.71-26.51,10.67-43.12,13.53l-2.15.38A1.82,1.82,0,0,1,760.47,747.4Z"/><polyline class="cls-1" points="1344.8 970.33 1344.8 1103.01 1200.87 1103.01 1195.39 1097.62 1190 1091.68 1190 959 1328.95 959"/><rect class="cls-11" x="1190" y="959" width="138.95" height="132.68"/><circle class="cls-12" cx="1261.07" cy="1040.32" r="28.71"/><circle class="cls-13" cx="1253.23" cy="1036.4" r="28.71"/><path d="M1212.64,993.28h-2l-3.33-5.38v5.38h-1.85v-7.84h2.42l2.86,4.49v-4.49h1.85Z"/><path d="M1221.57,990.44a2.8,2.8,0,0,1-.89,2.23,4.74,4.74,0,0,1-5.21,0,2.77,2.77,0,0,1-.88-2.22v-5h2v4.89a1.83,1.83,0,0,0,.34,1.22,1.38,1.38,0,0,0,1.11.4,1.45,1.45,0,0,0,1.11-.38,1.78,1.78,0,0,0,.35-1.24v-4.89h2Z"/><path d="M1227.06,993.44a4.91,4.91,0,0,1-1.62-.26,3.41,3.41,0,0,1-1.27-.77,3.46,3.46,0,0,1-.83-1.28,5,5,0,0,1-.29-1.76,5,5,0,0,1,.28-1.69,3.67,3.67,0,0,1,.81-1.3,3.46,3.46,0,0,1,1.27-.81,4.61,4.61,0,0,1,1.65-.28,7.8,7.8,0,0,1,.89.05,6.9,6.9,0,0,1,.74.15c.23.07.45.14.64.22l.5.23v1.9h-.23l-.37-.3-.51-.34a3.63,3.63,0,0,0-.63-.28,2.09,2.09,0,0,0-.72-.11,2.45,2.45,0,0,0-.81.13,2,2,0,0,0-1.21,1.24,3.27,3.27,0,0,0-.2,1.2,3.16,3.16,0,0,0,.21,1.23,2.14,2.14,0,0,0,.53.77,1.91,1.91,0,0,0,.71.42,2.74,2.74,0,0,0,.78.12,2.58,2.58,0,0,0,.73-.11,2.69,2.69,0,0,0,.67-.3,5.72,5.72,0,0,0,.48-.32l.36-.3h.21v1.87l-.56.25a4.77,4.77,0,0,1-.57.2c-.25.07-.49.13-.72.17A5.47,5.47,0,0,1,1227.06,993.44Z"/><path d="M1237,993.28h-5.66v-7.84h2v6.33H1237Z"/><path d="M1244,993.28h-5.67v-7.84H1244V987h-3.66v1.35h3.4v1.52h-3.4v1.94H1244Z"/><path d="M1253,993.28h-2.09l-.55-1.58h-2.9l-.55,1.58h-2l2.89-7.84h2.33Zm-3.12-3-1-2.81-1,2.81Z"/><path d="M1261.7,993.28h-2.47l-2.13-2.87h-.94v2.87h-2v-7.84h3.39a8.3,8.3,0,0,1,1.2.08,2.61,2.61,0,0,1,.93.34,2.2,2.2,0,0,1,.71.68,2,2,0,0,1,.26,1.06,2.38,2.38,0,0,1-.4,1.41,3,3,0,0,1-1.16.91Zm-3.15-5.44a1,1,0,0,0-.12-.5.8.8,0,0,0-.42-.33,1.69,1.69,0,0,0-.48-.11l-.64,0h-.73V989h.62a5.82,5.82,0,0,0,.81,0,1.09,1.09,0,0,0,.55-.22,1,1,0,0,0,.31-.36A1.28,1.28,0,0,0,1258.55,987.84Z"/><path d="M1272,993.28h-5.66v-7.84h2v6.33H1272Z"/><path d="M1280.56,993.28h-2.09l-.55-1.58H1275l-.55,1.58h-2l2.89-7.84h2.33Zm-3.12-3-1-2.81-1,2.81Z"/><path d="M1288.61,990.44a2.8,2.8,0,0,1-.89,2.23,4.74,4.74,0,0,1-5.21,0,2.77,2.77,0,0,1-.88-2.22v-5h2v4.89a1.89,1.89,0,0,0,.34,1.22,1.39,1.39,0,0,0,1.12.4,1.44,1.44,0,0,0,1.1-.38,1.78,1.78,0,0,0,.35-1.24v-4.89h2Z"/><path d="M1297.68,993.28h-1.94l-3.33-5.38v5.38h-1.86v-7.84H1293l2.86,4.49v-4.49h1.85Z"/><path d="M1303.28,993.44a4.9,4.9,0,0,1-1.61-.26,3.41,3.41,0,0,1-1.27-.77,3.46,3.46,0,0,1-.83-1.28,5,5,0,0,1-.29-1.76,4.79,4.79,0,0,1,.28-1.69,3.67,3.67,0,0,1,.81-1.3,3.38,3.38,0,0,1,1.27-.81,4.61,4.61,0,0,1,1.65-.28,7.8,7.8,0,0,1,.89.05,6.9,6.9,0,0,1,.74.15c.23.07.45.14.64.22l.5.23v1.9h-.23l-.37-.3-.51-.34a3.63,3.63,0,0,0-.63-.28,2.09,2.09,0,0,0-.72-.11,2.45,2.45,0,0,0-.81.13,2,2,0,0,0-1.21,1.24,3.27,3.27,0,0,0-.2,1.2,3.16,3.16,0,0,0,.21,1.23,2,2,0,0,0,.53.77,1.91,1.91,0,0,0,.71.42,2.64,2.64,0,0,0,.78.12,2.58,2.58,0,0,0,.73-.11,2.69,2.69,0,0,0,.67-.3,5.72,5.72,0,0,0,.48-.32l.36-.3h.21v1.87l-.56.25a4.77,4.77,0,0,1-.57.2c-.25.07-.49.13-.72.17A5.52,5.52,0,0,1,1303.28,993.44Z"/><path d="M1314.63,993.28h-2v-3.45h-3v3.45h-2v-7.84h2v2.87h3v-2.87h2Z"/><path class="cls-14" d="M1341.52,1107.3l-56.16,19.14c-11.71-14.34-22.62-30.73-23.21-53.06l54.63-18.62C1318.9,1076.81,1331.67,1092.51,1341.52,1107.3Z"/><path class="cls-15" d="M1318.9,1066l-54.63,18.61c-1.18-1.94-1.72-6.32-2.12-11.24l54.63-18.62C1317.29,1059.92,1318,1063.68,1318.9,1066Z"/><path d="M1288.09,1083.58c.06.14.11.27.16.41a7,7,0,0,1,.29,1,4.26,4.26,0,0,1,.08,1,2.53,2.53,0,0,1-.09.55,1.54,1.54,0,0,1-.24.48,1.3,1.3,0,0,1-.31.31c-.11.09-.23.19-.35.27a9.29,9.29,0,0,1-2,.93c-.72.24-1.44.46-2.17.66-.35-.79-.71-1.58-1.08-2.36l-1.14-2.36c-.23-.47-.45-.93-.67-1.4l-.3-.64-.33-.79c-.1-.26-.19-.52-.28-.79a2.69,2.69,0,0,1-.15-.79,4.1,4.1,0,0,1,.59-.2,3.94,3.94,0,0,1,.93-.12q.83,0,1.62,0l.68.06a5.46,5.46,0,0,1,.69.1l.42.1.43.14a5.27,5.27,0,0,1,.49.22,3.78,3.78,0,0,1,.46.28,4.78,4.78,0,0,1,1.21,1.12,8,8,0,0,1,.86,1.34h0C1288,1083.3,1288,1083.44,1288.09,1083.58Zm-4.44,5.29,2-.64a7.12,7.12,0,0,0,1.81-.84l.36-.27a1.28,1.28,0,0,0,.29-.33,1.1,1.1,0,0,0,.18-.4,3.25,3.25,0,0,0,.08-.43,4.45,4.45,0,0,0-.08-1,8.21,8.21,0,0,0-.27-1c0-.14-.1-.27-.16-.41a3.25,3.25,0,0,1-.15-.4c-.08-.14-.15-.28-.23-.41a3,3,0,0,0-.25-.41,5.5,5.5,0,0,0-.64-.82,4.43,4.43,0,0,0-.81-.68,5.06,5.06,0,0,0-.44-.26,3.82,3.82,0,0,0-.46-.21l-.39-.13-.4-.1-.67-.09-.66,0c-.49,0-1,0-1.49,0a4.09,4.09,0,0,0-1,.12l-.4.12a.83.83,0,0,0,0,.22l.06.21a4.11,4.11,0,0,0,.15.46c.05.15.1.3.16.45l.34.78c.1.21.19.42.28.63.22.47.45.94.67,1.4s.53,1.09.8,1.64l.78,1.63c.09.19.18.41.29.63S1283.58,1088.73,1283.65,1088.87Z"/><path d="M1300.62,1080.05h-.12l0,0,0,0v0h0a0,0,0,0,1,0,0s0,0,0,0v0l0,0,.32-.15.29-.12.59-.24.61-.2.36,0,.35,0h.6l0,0,0,0,0,0v0s0,0,0,0v0l0,0h-.61l-.35,0-.32.06a4.06,4.06,0,0,0-.59.19l-.56.23-.15.06-.13.05a.67.67,0,0,1-.17.08Zm4.75,3.22.06,0a.28.28,0,0,0,.09-.1.69.69,0,0,0,0-.13.13.13,0,0,0,0-.06.08.08,0,0,0,0-.07.33.33,0,0,0-.06-.19.93.93,0,0,0-.1-.2.05.05,0,0,1,0,0,.08.08,0,0,1,0,0v0a0,0,0,0,1,0,0s0,0,0,0h.12a.05.05,0,0,0,0,0l0,0,.06.11,0,0,0,.09a.75.75,0,0,1,.08.24,1,1,0,0,1,0,.25.38.38,0,0,1-.09.18.65.65,0,0,1-.13.16l-.09,0-.1,0-.11,0a1.66,1.66,0,0,1-.33,0l-.48,0-.19,0a.51.51,0,0,1-.17-.07l-.19-.07-.16-.1a2.24,2.24,0,0,1-.7-.67l-.16-.27a3.71,3.71,0,0,1-.26-.53,7.25,7.25,0,0,1-.27-.87l-.21-.87-.11-.35c0-.1-.07-.21-.11-.33a6.36,6.36,0,0,0-.34-.75,3.23,3.23,0,0,0-.48-.72l-.19-.19-.21-.18,0,0,0,0a.06.06,0,0,1,0,0s0,0,0,0l0,0,0,0h.12l0,0,.24.21.22.21a5,5,0,0,1,.52.77c.13.26.24.53.35.8s.09.24.12.34.07.23.11.36c.08.29.15.57.21.86a7.1,7.1,0,0,0,.27.86c0,.06,0,.11.06.14a.93.93,0,0,0,.07.15,3.42,3.42,0,0,0,.48.71,1.61,1.61,0,0,0,.75.49l.24,0,.25,0h.23l.22,0s0,0,0,0h0A.19.19,0,0,0,1305.37,1083.27Z"/><circle class="cls-16" cx="1253.38" cy="1036.4" r="28.86"/><rect class="cls-17" x="337.98" y="980.9" width="174.02" height="197.1" rx="12" ry="12"/><rect class="cls-18" x="328" y="965.93" width="174.02" height="197.1" rx="12" ry="12"/><path class="cls-17" d="M392.87,1064.48c0,48.4.65,87.32-17.78,87.32s-33.37-39.23-33.37-87.63,14.94-87.63,33.37-87.63S392.87,1016.08,392.87,1064.48Z"/><path class="cls-17" d="M389.85,1028.81c12.63-5.08,15.49-22.56,12.37-35.66-2.52-10.6-10.6-18.09-24.32-16.22-13.48,1.84-19.34,20.59-21.61,34.46C353.73,1027,377.23,1033.89,389.85,1028.81Z"/><rect class="cls-3" x="469.59" y="980.9" width="21.21" height="21.21" rx="10.6" ry="10.6"/><rect class="cls-3" x="442.14" y="980.9" width="21.21" height="21.21" rx="10.6" ry="10.6"/><rect class="cls-3" x="414.07" y="980.9" width="21.21" height="21.21" rx="10.6" ry="10.6"/><rect class="cls-3" x="414.07" y="1008.97" width="21.21" height="21.21" rx="10.6" ry="10.6"/><rect class="cls-3" x="442.14" y="1008.97" width="21.21" height="21.21" rx="10.6" ry="10.6"/><rect class="cls-3" x="469.59" y="1008.97" width="21.21" height="21.21" rx="10.6" ry="10.6"/><rect class="cls-3" x="469.59" y="1037.04" width="21.21" height="21.21" rx="10.6" ry="10.6"/><rect class="cls-3" x="442.14" y="1037.04" width="21.21" height="21.21" rx="10.6" ry="10.6"/><rect class="cls-3" x="414.07" y="1037.04" width="21.21" height="21.21" rx="10.6" ry="10.6"/></svg>
