<svg id="Layer_1" data-name="Layer 1" xmlns="http://www.w3.org/2000/svg" width="460" height="160" viewBox="0 0 460 160"><defs><style>.cls-1{fill:#b3b3b3;}.cls-2{fill:#fff;}</style></defs><title>gebtp</title><rect class="cls-1" x="2.43" y="19.96" width="455.15" height="136.98" rx="59.87" ry="59.87"/><path d="M402.19,157.81H57.81c-31,0-56.31-23.82-56.31-53.11V72.19c0-29.28,25.26-53.1,56.31-53.1H402.19c31.05,0,56.31,23.82,56.31,53.1V104.7C458.5,134,433.24,157.81,402.19,157.81ZM57.81,20.83c-30,0-54.46,23-54.46,51.36V104.7c0,28.33,24.43,51.37,54.46,51.37H402.19c30,0,54.46-23,54.46-51.37V72.19c0-28.32-24.43-51.36-54.46-51.36Z"/><rect class="cls-2" x="2.43" y="2.51" width="455.15" height="136.98" rx="59.87" ry="59.87"/><path d="M402.19,140.36H57.81c-31,0-56.31-23.82-56.31-53.11V54.75C1.5,25.46,26.76,1.64,57.81,1.64H402.19c31.05,0,56.31,23.82,56.31,53.11v32.5C458.5,116.54,433.24,140.36,402.19,140.36ZM57.81,3.38c-30,0-54.46,23-54.46,51.37v32.5c0,28.33,24.43,51.37,54.46,51.37H402.19c30,0,54.46-23,54.46-51.37V54.75c0-28.33-24.43-51.37-54.46-51.37Z"/><path d="M99.43,52.33a8.6,8.6,0,0,1-4.2,1c-1.54,0-2.58,0-3.13,0s-1.31-.07-2.28-.14a8.72,8.72,0,0,1-2.23-.41c-.51-.19-1.16-.47-1.94-.84a4.87,4.87,0,0,1-1.78-1.34q-.6-.78-1.38-2a9.18,9.18,0,0,1-1.14-2.84,37.23,37.23,0,0,1-.9-8.49V30.75a36,36,0,0,1,1-8.49,12,12,0,0,1,2.77-4.76,9.59,9.59,0,0,1,4-2.21,20.42,20.42,0,0,1,5.89-.58c2.8,0,4.75,0,5.87.14a23.6,23.6,0,0,1,3.55.61,7.89,7.89,0,0,1,3.06,1.4,10.25,10.25,0,0,1,2.17,2.5q2,3,2,9.42v1.1H99.29v-11H91.86V48.08h7.43V37.67H95.58V34.48h15.13v18H104.6l-1.54-4.42h-.58A7.62,7.62,0,0,1,99.43,52.33Z"/><path d="M115,20.52h6.43l1.06,4.42h.42a8.42,8.42,0,0,1,2.36-4.1,5.22,5.22,0,0,1,3.37-1.19,18.93,18.93,0,0,1,3.72.35l-1.11,9.59h-7.54v3.08a1.76,1.76,0,0,0,.26,1,1.62,1.62,0,0,0,1.33.46h1.91V50.29h4.3V52.5H115V50.29h2.13V22.73H115Z"/><path d="M138.47,30.46l-1.28-9.07a43.09,43.09,0,0,1,12.05-1.74q6.85,0,9.93,2.27a6.54,6.54,0,0,1,2.12,2.53,8.43,8.43,0,0,1,.85,3.92V50.29h2.13V52.5h-6.53l-2.13-4.42h-.69c-.71,2.25-1.57,3.69-2.6,4.33a8,8,0,0,1-4.27,1q-2.73,0-3.69-.06c-.64,0-1.51-.13-2.6-.29a6,6,0,0,1-2.55-.84,12.31,12.31,0,0,1-1.91-1.66c-1.24-1.28-1.86-3.52-1.86-6.74q0-6,3.45-8a11.56,11.56,0,0,1,3.48-1.25,25.22,25.22,0,0,1,4.33-.32h5.36V24H146l-1.44,6.45Zm13.59,17.62V38.55h-7.28v9.53Z"/><path d="M177.7,25.52h1c.74-2.13,1.74-3.55,3-4.24a8.46,8.46,0,0,1,4.19-1.05q2.31,0,3,0c.48,0,1.15.07,2,.14a8.24,8.24,0,0,1,2,.38c.46.18,1,.43,1.7.76a4.42,4.42,0,0,1,1.56,1.19,17.8,17.8,0,0,1,1.22,1.8,8.48,8.48,0,0,1,1,2.56,35.73,35.73,0,0,1,.8,7.73v4q0,5.7-1.27,8.49a21.85,21.85,0,0,1-1.3,2.53,5,5,0,0,1-1.89,1.74q-1.22.68-2.07,1.05a8.93,8.93,0,0,1-2.49.55,31.59,31.59,0,0,1-11.47-.64,23,23,0,0,1-5.2-2l-.8,2h-1.48V12.32H169V10.11h12.21V17.9l-2.17.88a2.62,2.62,0,0,0-1.15.67,1.83,1.83,0,0,0-.23,1.07ZM189.06,49V25.52h-7.81V49Z"/><path d="M229.93,49h6.63l1.38-6.45h5.68l1.22,9.07a44.55,44.55,0,0,1-11.94,1.74c-1.45,0-2.69,0-3.71-.14a14.88,14.88,0,0,1-3.46-.82,7.66,7.66,0,0,1-3.07-1.86,9.41,9.41,0,0,1-2-3.43,15.36,15.36,0,0,1-.83-5.32V34.24Q219.84,27,222,24a13.66,13.66,0,0,1,1.4-1.8A5.37,5.37,0,0,1,225.2,21c.78-.33,1.44-.58,2-.76a10.65,10.65,0,0,1,2.28-.38c1.49-.11,2.94-.17,4.35-.17s2.41,0,3,0,1.32.08,2.28.2a7.38,7.38,0,0,1,2.15.52,14.25,14.25,0,0,1,1.7,1.05,4.26,4.26,0,0,1,1.43,1.69,13.08,13.08,0,0,1,.8,2.53,16.45,16.45,0,0,1,.34,3.57,16.55,16.55,0,0,1-.34,3.58,13.08,13.08,0,0,1-.8,2.53A4.17,4.17,0,0,1,242.91,37a12,12,0,0,1-1.7,1,7.07,7.07,0,0,1-2.15.52,40.11,40.11,0,0,1-4.83.24h-4.3Zm0-25V34.48h7.27V24Z"/><path d="M263,24.94V52.5H250.79V50.29h2.12V22.73h-2.12V20.52h7.06l1.86,4.42h.69c.74-2.17,1.79-3.6,3.16-4.27a13.42,13.42,0,0,1,5.86-1q5.79,0,7.86,3a5.55,5.55,0,0,1,3-2.38,16.62,16.62,0,0,1,4.91-.58q5.15,0,7.77,2c1.75,1.3,2.63,3.55,2.63,6.77V50.29h2.12V52.5H285.5V24.94h-6.21V52.5H269.21V24.94Z"/><path d="M312.47,20.75a16.72,16.72,0,0,1-4.56,12l-2.71-.47.79-6.8a3.31,3.31,0,0,1-2.65-1c-.57-.66-.85-2.05-.85-4.18s.34-3.51,1-4.13,2.06-.93,4.17-.93,3.43.31,4,.93S312.47,18.35,312.47,20.75Z"/><path d="M339.44,25.52h.95c.74-2.13,1.74-3.55,3-4.24a8.46,8.46,0,0,1,4.19-1.05q2.31,0,3,0c.48,0,1.15.07,2,.14a8.24,8.24,0,0,1,2,.38c.46.18,1,.43,1.7.76a4.42,4.42,0,0,1,1.56,1.19,17.8,17.8,0,0,1,1.22,1.8,8.48,8.48,0,0,1,1,2.56,35.73,35.73,0,0,1,.8,7.73v4q0,5.7-1.27,8.49a21.85,21.85,0,0,1-1.3,2.53,5,5,0,0,1-1.89,1.74q-1.21.68-2.07,1.05a8.93,8.93,0,0,1-2.49.55,31.59,31.59,0,0,1-11.47-.64,23,23,0,0,1-5.2-2l-.8,2h-1.48V12.32h-2.13V10.11H343V17.9l-2.17.88a2.62,2.62,0,0,0-1.15.67,1.83,1.83,0,0,0-.23,1.07ZM350.79,49V25.52H343V49Z"/><path d="M384.61,20.52h9.61L388.64,50.7q-1.22,6.51-4.8,9.82a12.39,12.39,0,0,1-8.73,3.32,25.59,25.59,0,0,1-5.58-.47l1.06-9.13h6.48V51.16a1.75,1.75,0,0,0-.26-1,1.64,1.64,0,0,0-1.33-.47H371l-3.51-26.92h-2.07V20.52h12.8l2.54,29.13h3.88Z"/><path d="M111.66,90.29h2.66l5.73-6.86h3.82v6.86h5.57v2.79h-5.57v26.29h3v-5.76h2.54v4.24c0,2.06-.62,3.45-1.88,4.19a11.56,11.56,0,0,1-5.71,1.1c-1,0-1.75,0-2.28,0a7.7,7.7,0,0,1-2.07-.56,4.29,4.29,0,0,1-2-1.42q-1.76-2.44-1.76-7.56V93.08h-2.12Z"/><path d="M165.12,122.27H152.91v-27H145.1v27H132.89v-2.21H135v-38h-2.13v-2.2H145.1v7.79l-2.17.87a2.63,2.63,0,0,0-1.14.67,1.82,1.82,0,0,0-.24,1.07v5h.95A6.75,6.75,0,0,1,145.87,91a18.14,18.14,0,0,1,7-1q4.77,0,7.43,2T163,98.72v21.34h2.13Z"/><path d="M180.77,118.78h6.64l1.38-6.45h5.68l1.22,9.07a44.67,44.67,0,0,1-11.94,1.74c-1.45,0-2.69,0-3.72-.14a14.7,14.7,0,0,1-3.45-.82,7.77,7.77,0,0,1-3.08-1.86,9.46,9.46,0,0,1-2-3.43,15.37,15.37,0,0,1-.82-5.32V104q0-7.26,2.12-10.29a15.33,15.33,0,0,1,1.41-1.8,5.42,5.42,0,0,1,1.83-1.19c.78-.33,1.43-.58,2-.76a10.25,10.25,0,0,1,2.29-.37q2.22-.18,4.35-.18c1.41,0,2.41,0,3,0s1.33.09,2.28.2a6.88,6.88,0,0,1,2.15.53,12.22,12.22,0,0,1,1.7,1,4.29,4.29,0,0,1,1.44,1.69,13.14,13.14,0,0,1,.79,2.53,18.43,18.43,0,0,1,0,7.15,13.14,13.14,0,0,1-.79,2.53,4.29,4.29,0,0,1-1.44,1.69,12.22,12.22,0,0,1-1.7,1,6.88,6.88,0,0,1-2.15.53,42.35,42.35,0,0,1-4.83.23h-4.3Zm0-25v10.47h7.28V93.78Z"/><path d="M215.44,90.29H222l2.13,4.42h.69q1.11-3.31,2.92-4.3a11.58,11.58,0,0,1,5.41-1,23.84,23.84,0,0,1,5.12.32c.69.21,1.36.43,2,.64a3.62,3.62,0,0,1,1.51.9L243,92.62a5.68,5.68,0,0,1,1.11,1.86c.28.74.55,1.55.8,2.44a28.53,28.53,0,0,1,.69,7.09v3.67q0,7.32-2.13,10.29a19.85,19.85,0,0,1-1.43,1.8,4.78,4.78,0,0,1-1.86,1.19c-.81.33-1.48.59-2,.76a11,11,0,0,1-2.34.38c-1.49.11-3,.17-4.65.17s-2.76,0-3.47-.11v8.37h2.86v2.21h-13V92.5h-2.12Zm20.06,27.62V94.71h-7.8v23.2Z"/><path d="M253.28,113.55v-21h-2.12V90.29h12.21v27.56h7.8V90.29h10.09v29.77h2.12v2.21h-6.53l-2.12-4.42H274c0,2.06-.68,3.45-2,4.19a13.45,13.45,0,0,1-6.19,1.1c-3.64,0-6.09-.25-7.32-.75a7.12,7.12,0,0,1-3.72-2.73A11.4,11.4,0,0,1,253.28,113.55Z"/><path d="M288.69,121.4l1.27-9.07h6.11l1.43,6.45h6.05V114.6l-9.92-7.5a10.91,10.91,0,0,1-3.3-3.64,10.28,10.28,0,0,1-1-4.76,11.24,11.24,0,0,1,.71-4.45,7.15,7.15,0,0,1,1.78-2.56,7.38,7.38,0,0,1,2.81-1.45,29.46,29.46,0,0,1,7.89-.82,34.34,34.34,0,0,1,10.53,1.75l-1.27,9.07h-5.57l-1.28-6.46h-5.52V98l9.93,7.5a10.75,10.75,0,0,1,3.29,3.63,10.32,10.32,0,0,1,1,4.77,11.25,11.25,0,0,1-.72,4.45,7.24,7.24,0,0,1-1.78,2.56,7.44,7.44,0,0,1-2.81,1.45,31.65,31.65,0,0,1-8.23.81A41,41,0,0,1,288.69,121.4Z"/><path d="M319.21,121.4l1.27-9.07h6.11l1.43,6.45h6.05V114.6l-9.92-7.5a10.87,10.87,0,0,1-3.29-3.64,10.15,10.15,0,0,1-1-4.76,11.42,11.42,0,0,1,.71-4.45,7.15,7.15,0,0,1,1.78-2.56,7.35,7.35,0,0,1,2.82-1.45,29.33,29.33,0,0,1,7.88-.82,34.45,34.45,0,0,1,10.54,1.75l-1.28,9.07h-5.57l-1.28-6.46h-5.52V98l9.93,7.5a10.75,10.75,0,0,1,3.29,3.63,10.32,10.32,0,0,1,1,4.77,11.25,11.25,0,0,1-.72,4.45,7.11,7.11,0,0,1-1.78,2.56,7.37,7.37,0,0,1-2.81,1.45,31.6,31.6,0,0,1-8.23.81A41,41,0,0,1,319.21,121.4Z"/><path d="M350.42,85.35h12.16v15.7L361,108.72h-9l-1.6-7.67Zm6.16,28.14c2.34,0,3.82.28,4.46.85s.95,1.9.95,4-.32,3.44-1,4-2.15.81-4.48.81-3.86-.27-4.57-.81-1.06-1.87-1.06-4,.36-3.45,1.09-4S354.24,113.49,356.58,113.49Z"/></svg>
