<svg id="Layer_1" data-name="Layer 1" xmlns="http://www.w3.org/2000/svg" width="110" height="110" viewBox="0 0 110 110"><defs><style>.cls-1{fill:#4d4d4d;}.cls-2{fill:#db1620;}</style></defs><title>hjerte</title><path class="cls-1" d="M93.49,14.77c-14.42-9.83-29-1.54-35.65,20.07C50,20.83,39,14.56,28.75,15.37,7.84,17,3.13,39.2,20.38,66.68c12.55,20,35.05,39,41.66,40.24a1.92,1.92,0,0,0,1.35.87c7.36-.09,24.17-18.23,34.71-41.24C109.54,41.55,105,22.6,93.49,14.77Z"/><path class="cls-2" d="M59.56,99.42a3.31,3.31,0,0,1-2.31-1c-7.68-2.28-28.14-20-39.77-38.53C7.52,44,4.67,29.18,9.67,19.23c3.16-6.3,9.12-10,17.22-10.6.59-.05,1.2-.07,1.8-.07,9.46,0,18.46,5.67,25.17,15.7,4.93-12.64,13.21-20,22.67-20A22,22,0,0,1,89,8.41c10,6.8,17.3,24.28,5,51.12C84.47,80.31,68.07,99.32,59.59,99.42Z"/><path d="M76.53,6.21a20.08,20.08,0,0,1,11.31,3.85c10.8,7.36,15.07,25.15,4.32,48.63C82.27,80.31,66.48,97.34,59.57,97.42h0a1.84,1.84,0,0,1-1.26-.81c-6.2-1.18-27.34-19-39.12-37.8C3,33,7.4,12.18,27,10.62q.83-.06,1.65-.06c9.12,0,18.75,5.94,25.66,18.35,4.5-14.57,12.82-22.7,22.18-22.7m0-4c-9.44,0-17.75,6.6-23.12,18C46.59,11.45,37.86,6.56,28.69,6.56c-.65,0-1.31,0-2,.08C18,7.32,11.33,11.48,7.88,18.33,2.56,28.92,5.44,44.45,15.79,60.94c11.06,17.62,31.29,36.12,40.45,39.24a5.19,5.19,0,0,0,3.32,1.24h.06c6-.07,13.17-6.93,18.15-12.67a121.73,121.73,0,0,0,18-28.39c12.81-28,4.93-46.36-5.71-53.6A23.93,23.93,0,0,0,76.53,2.21Z"/></svg>
