<svg id="Layer_1" data-name="Layer 1" xmlns="http://www.w3.org/2000/svg" width="110" height="110" viewBox="0 0 110 110"><defs><style>.cls-1{fill:#4d4d4d;}.cls-2{fill:#99ada1;}.cls-3{fill:#333;}</style></defs><title>hjertedoed</title><path class="cls-1" d="M89.53,20.54C76,11.31,62.3,19.1,56.05,39.39c-7.34-13.16-17.72-19-27.31-18.29C9.1,22.65,4.67,43.49,20.87,69.29,32.65,88.06,53.79,105.91,60,107.09a1.8,1.8,0,0,0,1.26.81c6.92-.08,22.7-17.12,32.6-38.73C104.61,45.69,100.33,27.9,89.53,20.54Z"/><path class="cls-2" d="M57.55,99.77a3.34,3.34,0,0,1-2.31-1c-7.68-2.28-28.14-20-39.77-38.54C5.51,44.35,2.66,29.53,7.66,19.58c3.16-6.29,9.12-10,17.22-10.6.59-.05,1.2-.07,1.8-.07,9.46,0,18.46,5.67,25.17,15.7,4.93-12.63,13.21-20,22.67-20A22,22,0,0,1,87,8.76c10,6.81,17.3,24.28,5,51.12-9.51,20.78-25.9,39.79-34.39,39.89Z"/><path class="cls-3" d="M74.52,6.57a20.13,20.13,0,0,1,11.31,3.84c10.8,7.36,15.07,25.15,4.32,48.64C80.26,80.66,64.47,97.69,57.56,97.77h0A1.77,1.77,0,0,1,56.3,97c-6.21-1.18-27.35-19-39.13-37.8C1,33.36,5.4,12.53,25,11c.55-.05,1.1-.07,1.65-.07,9.12,0,18.75,5.94,25.66,18.36,4.5-14.58,12.83-22.7,22.18-22.7m0-4c-9.44,0-17.75,6.59-23.12,18C44.58,11.81,35.85,6.91,26.68,6.91c-.65,0-1.31,0-2,.08C16,7.68,9.32,11.83,5.88,18.68c-5.33,10.6-2.45,26.13,7.9,42.61,11.06,17.62,31.3,36.12,40.46,39.24a5.15,5.15,0,0,0,3.31,1.24h.06c6-.07,13.17-6.93,18.15-12.67a121.73,121.73,0,0,0,18-28.39c12.81-28,4.93-46.36-5.71-53.6A23.89,23.89,0,0,0,74.52,2.57Z"/></svg>
