<svg id="Layer_1" data-name="Layer 1" xmlns="http://www.w3.org/2000/svg" width="790" height="700" viewBox="0 0 790 700"><defs><style>.cls-1{fill:#f1f2ed;}.cls-2{fill:#fff;}.cls-3{fill:#f4b0a7;}.cls-4{fill:#998675;}.cls-5{fill:#e6e6e6;}.cls-6{fill:#eaa2a7;}.cls-7{fill:gray;}.cls-8{fill:#99ada1;}</style></defs><title>hvidkatflipped</title><rect class="cls-1" x="84.25" y="555.62" width="185.52" height="7.23" rx="1.5" ry="1.5"/><rect class="cls-1" x="4.74" y="531.52" width="265.03" height="7.23" rx="1.5" ry="1.5"/><rect class="cls-1" x="123.65" y="226.49" width="170.07" height="6.8" rx="1.5" ry="1.5"/><rect class="cls-1" x="39.74" y="249.16" width="249.44" height="6.8" rx="1.5" ry="1.5"/><rect class="cls-1" x="85.14" y="398.27" width="174.61" height="6.8" rx="1.5" ry="1.5"/><rect class="cls-1" x="80.6" y="443.63" width="174.61" height="6.8" rx="1.5" ry="1.5"/><rect class="cls-1" x="5.77" y="420.95" width="249.44" height="6.8" rx="1.5" ry="1.5"/><rect class="cls-2" x="656.77" y="502.85" width="56" height="149" rx="28" ry="28" transform="translate(1550.61 348.09) rotate(125.03)"/><rect class="cls-2" x="190.9" y="449.65" width="77.97" height="207.45" rx="28" ry="28" transform="translate(23.56 1115.96) rotate(-137.3)"/><path class="cls-2" d="M229.67,41.84A36.82,36.82,0,0,1,265.39,4.17h0c30.4-.8,42.38,25.68,48.38,59.68C325.68,116.24,330.32,194,332,282.28c29.64-13.67,67.06-21.43,113.22-21.43,148.34,0,268.6,80.14,268.6,179,0,40.85-20.62,75.95-55.28,103.07a28.18,28.18,0,0,1,.28,3.93v121a28.08,28.08,0,0,1-28,28h-11a28.08,28.08,0,0,1-28-28V579.27c-42.28,15.87-92.78,24.58-147,24.58-48.2,0-86.81-6.89-117-19.56v65.19a39.48,39.48,0,0,1-39.36,39.37h-1a37.75,37.75,0,0,1-37.63-37.64V506.29c-7.49-19.79-11-42.09-11-66.44a219.59,219.59,0,0,1,4.8-46.69C250,254,250.85,125.08,229.67,41.84Z"/><path class="cls-2" d="M489.9,279.38a114.52,114.52,0,0,1,19.51-43.55c-6.83-24.87,9.42-58.2,23.3-87,22.63,2.09,40.55,15.22,60.63,35.38a161.75,161.75,0,0,1,116.75,22.14c28.13-10.57,55.62-16,77.67-8.2.61,33,1.51,71.41-16.75,90.64a114.56,114.56,0,0,1,.7,51c-14.74,68.85-89.78,111.16-167.6,94.5S475.16,348.24,489.9,279.38Z"/><path class="cls-3" d="M575.56,192.93c-5.08-7.68-32.17-21.92-30.49-21a4,4,0,0,0-6.17,2.93c-3.91,13.12-5.21,25.51-3,36.92a3.94,3.94,0,0,0,5.62,3.88C550.79,207,562.14,202,575,199.73A3.94,3.94,0,0,0,575.56,192.93Z"/><path class="cls-4" d="M702.5,315.52c-3.94,9.77-15,10.36-26.14,5.87S658.15,309,662.08,299.23s16.34-11.17,27.5-6.67S706.44,305.76,702.5,315.52Z"/><circle class="cls-5" cx="685.26" cy="308.04" r="3.24"/><circle class="cls-5" cx="688.52" cy="301.68" r="2.59"/><circle class="cls-5" cx="692.72" cy="306.86" r="1.94"/><path class="cls-4" d="M611.22,284c-.09,9.8-8.82,14-20,13.86s-20.65-4.4-20.57-14.21S579.8,269.2,591,269.3,611.3,274.15,611.22,284Z"/><circle class="cls-5" cx="590.9" cy="288.45" r="3.62"/><circle class="cls-5" cx="591.7" cy="280.48" r="2.9"/><circle class="cls-5" cx="598.19" cy="284.16" r="2.17"/><path class="cls-6" d="M607.44,355.79c-3.73,5.77.46,17,4.19,18.3,4.68,1.68,15.37-4.6,13.13-13.42-2.16-8.49-4-15.82-4-17.82C620.77,340.54,612.61,347.76,607.44,355.79Z"/><path class="cls-7" d="M633.69,430.78a196.11,196.11,0,0,0,20.18-1.08,2.5,2.5,0,1,0-.51-5c-26.55,2.74-49.79.12-69.07-7.8s-35-21.26-47.14-39.77a2.5,2.5,0,1,0-4.18,2.73C555.06,413.71,588.89,430.78,633.69,430.78Z"/><path class="cls-7" d="M664.27,379.85a1.5,1.5,0,0,0,.25-3c-18.13-3.06-31.41-6.81-37.24-15.14-3.87-5.54-4.71-13.37-2.63-24.62a1.5,1.5,0,0,0-2.95-.55c-2.23,12.1-1.24,20.64,3.12,26.89,6.43,9.19,20.32,13.19,39.2,16.37Z"/><path class="cls-7" d="M592.69,359.6a38.17,38.17,0,0,0,5.73-.41c11.18-1.71,19.25-8.67,25.4-21.9A1.5,1.5,0,1,0,621.1,336c-11.51,24.78-28.31,24.23-59.35,13.89a1.5,1.5,0,1,0-1,2.85C571.64,356.38,582.87,359.6,592.69,359.6Z"/><path class="cls-3" d="M627.34,338.32l7.86-7.66a4.71,4.71,0,0,0-2-7.91l-10.56-3a4.72,4.72,0,0,0-5.85,5.7l2.7,10.63A4.72,4.72,0,0,0,627.34,338.32Z"/><circle class="cls-8" cx="661.27" cy="346.35" r="1.5"/><circle class="cls-8" cx="645.27" cy="346.35" r="1.5"/><circle class="cls-8" cx="651.27" cy="357.35" r="1.5"/><circle class="cls-8" cx="584.01" cy="346.57" r="1.5"/><circle class="cls-8" cx="597.94" cy="338.7" r="1.5"/><circle class="cls-8" cx="587.31" cy="332.07" r="1.5"/><path class="cls-3" d="M766.88,251.67c5.77-7.18,11.1-37.32,10.76-35.45a3.94,3.94,0,0,0-4.67-5c-13.68.26-25.88,2.78-36.07,8.4a3.94,3.94,0,0,0-2,6.54c11.07,6.15,19.24,15.45,25.31,27A3.94,3.94,0,0,0,766.88,251.67Z"/></svg>
