<svg id="Layer_1" data-name="Layer 1" xmlns="http://www.w3.org/2000/svg" width="650" height="700" viewBox="0 0 650 700"><defs><style>.cls-1{fill:#fff;}.cls-2{fill:#f4b0a7;}.cls-3{fill:#998675;}.cls-4{fill:#e6e6e6;}.cls-5{fill:#eaa2a7;}.cls-6{fill:gray;}.cls-7{fill:#99ada1;}</style></defs><title>hvidkatloeber</title><rect class="cls-1" x="77.48" y="502.85" width="56" height="149" rx="28" ry="28" transform="translate(517.66 159.54) rotate(54.97)"/><rect class="cls-1" x="521.38" y="449.65" width="77.97" height="207.45" rx="28" ry="28" transform="translate(-226.73 526.69) rotate(-42.7)"/><path class="cls-1" d="M560.58,41.84A36.82,36.82,0,0,0,524.86,4.17h0c-30.4-.8-42.38,25.68-48.38,59.68C464.57,116.24,459.93,194,458.3,282.28c-29.64-13.67-67.06-21.43-113.22-21.43-148.35,0-268.6,80.14-268.6,179,0,40.85,20.62,75.95,55.28,103.07a28.18,28.18,0,0,0-.28,3.93v121a28.08,28.08,0,0,0,28,28h11a28.08,28.08,0,0,0,28-28V579.27c42.28,15.87,92.78,24.58,147,24.58,48.2,0,86.81-6.89,117-19.56v65.19a39.48,39.48,0,0,0,39.36,39.37h1a37.75,37.75,0,0,0,37.64-37.64V506.29c7.49-19.79,11-42.09,11-66.44a220.24,220.24,0,0,0-4.8-46.69C540.29,254,539.4,125.08,560.58,41.84Z"/><path class="cls-1" d="M300.35,279.38a114.52,114.52,0,0,0-19.51-43.55c6.83-24.87-9.42-58.2-23.3-87C234.91,150.9,217,164,196.91,184.19A161.79,161.79,0,0,0,80.15,206.33c-28.13-10.57-55.61-16-77.66-8.2-.61,33-1.51,71.41,16.75,90.64a114.56,114.56,0,0,0-.7,51c14.74,68.85,89.78,111.16,167.6,94.5S315.09,348.24,300.35,279.38Z"/><path class="cls-2" d="M214.68,192.93c5.09-7.68,32.18-21.92,30.5-21a3.94,3.94,0,0,1,6.16,2.93c3.92,13.12,5.22,25.51,3,36.92a3.94,3.94,0,0,1-5.62,3.88c-9.24-8.68-20.58-13.63-33.46-15.9A3.94,3.94,0,0,1,214.68,192.93Z"/><path class="cls-3" d="M87.75,315.52c3.94,9.77,15,10.36,26.13,5.87S132.1,309,128.17,299.23s-16.34-11.17-27.5-6.67S83.81,305.76,87.75,315.52Z"/><circle class="cls-4" cx="104.99" cy="308.04" r="3.24"/><circle class="cls-4" cx="101.73" cy="301.68" r="2.59"/><circle class="cls-4" cx="97.53" cy="306.86" r="1.94"/><path class="cls-3" d="M179,284c.08,9.8,8.81,14,20,13.86s20.65-4.4,20.57-14.21-9.18-14.41-20.38-14.31S179,274.15,179,284Z"/><circle class="cls-4" cx="199.34" cy="288.45" r="3.62"/><circle class="cls-4" cx="198.55" cy="280.48" r="2.9"/><circle class="cls-4" cx="192.06" cy="284.16" r="2.17"/><path class="cls-5" d="M182.81,355.79c3.73,5.77-.46,17-4.19,18.3-4.68,1.68-15.38-4.6-13.13-13.42,2.15-8.49,4-15.82,4-17.82C169.48,340.54,177.63,347.76,182.81,355.79Z"/><path class="cls-6" d="M156.55,430.78a195.92,195.92,0,0,1-20.17-1.08,2.5,2.5,0,0,1,.51-5c26.55,2.74,49.78.12,69.06-7.8s35.05-21.26,47.14-39.77a2.5,2.5,0,1,1,4.19,2.73C235.19,413.71,201.36,430.78,156.55,430.78Z"/><path class="cls-6" d="M126,379.85a1.5,1.5,0,0,1-.24-3c18.13-3.06,31.4-6.81,37.23-15.14,3.88-5.54,4.72-13.37,2.63-24.62a1.5,1.5,0,0,1,2.95-.55c2.24,12.1,1.25,20.64-3.12,26.89-6.42,9.19-20.32,13.19-39.19,16.37A1.15,1.15,0,0,1,126,379.85Z"/><path class="cls-6" d="M197.56,359.6a38.17,38.17,0,0,1-5.73-.41c-11.19-1.71-19.26-8.67-25.4-21.9a1.5,1.5,0,1,1,2.72-1.26c11.51,24.78,28.31,24.23,59.35,13.89a1.5,1.5,0,1,1,.95,2.85C218.61,356.38,207.38,359.6,197.56,359.6Z"/><path class="cls-2" d="M162.91,338.32l-7.86-7.66a4.71,4.71,0,0,1,2-7.91l10.56-3a4.71,4.71,0,0,1,5.84,5.7l-2.7,10.63A4.71,4.71,0,0,1,162.91,338.32Z"/><circle class="cls-7" cx="128.98" cy="346.35" r="1.5"/><circle class="cls-7" cx="144.98" cy="346.35" r="1.5"/><circle class="cls-7" cx="138.98" cy="357.35" r="1.5"/><circle class="cls-7" cx="206.24" cy="346.57" r="1.5"/><circle class="cls-7" cx="192.31" cy="338.7" r="1.5"/><circle class="cls-7" cx="202.94" cy="332.07" r="1.5"/><path class="cls-2" d="M23.37,251.67c-5.77-7.18-11.1-37.32-10.76-35.45a3.94,3.94,0,0,1,4.66-5c13.69.26,25.89,2.78,36.08,8.4a4,4,0,0,1,2,6.54c-11.07,6.15-19.24,15.45-25.31,27A3.94,3.94,0,0,1,23.37,251.67Z"/></svg>
