<svg id="Layer_1" data-name="Layer 1" xmlns="http://www.w3.org/2000/svg" width="790" height="700" viewBox="0 0 790 700"><defs><style>.cls-1{fill:#f1f2ed;}.cls-2{fill:#fff;}.cls-3{fill:#f4b0a7;}.cls-4{fill:#998675;}.cls-5{fill:#e6e6e6;}.cls-6{fill:#eaa2a7;}.cls-7{fill:gray;}.cls-8{fill:#99ada1;}</style></defs><title>hvidkatloebermstreger</title><rect class="cls-1" x="522.98" y="555.62" width="185.52" height="7.23" rx="1.5" ry="1.5" transform="translate(1231.47 1118.46) rotate(-180)"/><rect class="cls-1" x="522.98" y="531.52" width="265.03" height="7.23" rx="1.5" ry="1.5" transform="translate(1310.98 1070.28) rotate(180)"/><rect class="cls-1" x="499.03" y="226.49" width="170.07" height="6.8" rx="1.5" ry="1.5" transform="translate(1168.13 459.77) rotate(180)"/><rect class="cls-1" x="503.57" y="249.16" width="249.44" height="6.8" rx="1.5" ry="1.5" transform="translate(1256.57 505.13) rotate(-180)"/><rect class="cls-1" x="533" y="398.27" width="174.61" height="6.8" rx="1.5" ry="1.5" transform="translate(1240.61 803.35) rotate(180)"/><rect class="cls-1" x="537.54" y="443.63" width="174.61" height="6.8" rx="1.5" ry="1.5" transform="translate(1249.68 894.06) rotate(-180)"/><rect class="cls-1" x="537.54" y="420.95" width="249.44" height="6.8" rx="1.5" ry="1.5" transform="translate(1324.51 848.7) rotate(-180)"/><rect class="cls-2" x="79.98" y="502.85" width="56" height="149" rx="28" ry="28" transform="translate(518.72 157.5) rotate(54.97)"/><rect class="cls-2" x="523.88" y="449.65" width="77.97" height="207.45" rx="28" ry="28" transform="translate(-226.07 528.39) rotate(-42.7)"/><path class="cls-2" d="M563.08,41.84A36.82,36.82,0,0,0,527.36,4.17h0C497,3.37,485,29.85,479,63.85,467.07,116.24,462.43,194,460.8,282.28c-29.64-13.67-67.06-21.43-113.22-21.43C199.23,260.85,79,341,79,439.85c0,40.85,20.62,75.95,55.28,103.07a28.18,28.18,0,0,0-.28,3.93v121a28.08,28.08,0,0,0,28,28h11a28.08,28.08,0,0,0,28-28V579.27c42.28,15.87,92.78,24.58,147,24.58,48.2,0,86.81-6.89,117-19.56v65.19a39.48,39.48,0,0,0,39.36,39.37h1A37.75,37.75,0,0,0,543,651.21V506.29c7.49-19.79,11-42.09,11-66.44a220.24,220.24,0,0,0-4.8-46.69C542.79,254,541.9,125.08,563.08,41.84Z"/><path class="cls-2" d="M302.85,279.38a114.52,114.52,0,0,0-19.51-43.55c6.83-24.87-9.42-58.2-23.3-87-22.63,2.09-40.55,15.22-60.63,35.38A161.79,161.79,0,0,0,82.65,206.33C54.52,195.76,27,190.38,5,198.13c-.61,33-1.51,71.41,16.75,90.64a114.56,114.56,0,0,0-.7,51c14.74,68.85,89.78,111.16,167.6,94.5S317.59,348.24,302.85,279.38Z"/><path class="cls-3" d="M217.18,192.93c5.09-7.68,32.18-21.92,30.5-21a3.94,3.94,0,0,1,6.16,2.93c3.92,13.12,5.22,25.51,3,36.92a3.94,3.94,0,0,1-5.62,3.88C242,207,230.61,202,217.73,199.73A3.94,3.94,0,0,1,217.18,192.93Z"/><path class="cls-4" d="M90.25,315.52c3.94,9.77,15,10.36,26.13,5.87S134.6,309,130.67,299.23s-16.34-11.17-27.5-6.67S86.31,305.76,90.25,315.52Z"/><circle class="cls-5" cx="107.49" cy="308.04" r="3.24"/><circle class="cls-5" cx="104.23" cy="301.68" r="2.59"/><circle class="cls-5" cx="100.03" cy="306.86" r="1.94"/><path class="cls-4" d="M181.53,284c.08,9.8,8.81,14,20,13.86s20.65-4.4,20.57-14.21-9.18-14.41-20.38-14.31S181.45,274.15,181.53,284Z"/><circle class="cls-5" cx="201.84" cy="288.45" r="3.62"/><circle class="cls-5" cx="201.05" cy="280.48" r="2.9"/><circle class="cls-5" cx="194.56" cy="284.16" r="2.17"/><path class="cls-6" d="M185.31,355.79c3.73,5.77-.46,17-4.19,18.3-4.68,1.68-15.38-4.6-13.13-13.42,2.15-8.49,4-15.82,4-17.82C172,340.54,180.13,347.76,185.31,355.79Z"/><path class="cls-7" d="M159.05,430.78a195.92,195.92,0,0,1-20.17-1.08,2.5,2.5,0,0,1,.51-5c26.55,2.74,49.78.12,69.06-7.8s35.05-21.26,47.14-39.77a2.5,2.5,0,1,1,4.19,2.73C237.69,413.71,203.86,430.78,159.05,430.78Z"/><path class="cls-7" d="M128.47,379.85a1.5,1.5,0,0,1-.24-3c18.13-3.06,31.4-6.81,37.23-15.14,3.88-5.54,4.72-13.37,2.63-24.62a1.5,1.5,0,0,1,2.95-.55c2.24,12.1,1.25,20.64-3.12,26.89-6.42,9.19-20.32,13.19-39.19,16.37A1.15,1.15,0,0,1,128.47,379.85Z"/><path class="cls-7" d="M200.06,359.6a38.17,38.17,0,0,1-5.73-.41c-11.19-1.71-19.26-8.67-25.4-21.9a1.5,1.5,0,1,1,2.72-1.26C183.16,360.81,200,360.26,231,349.92a1.5,1.5,0,1,1,.95,2.85C221.11,356.38,209.88,359.6,200.06,359.6Z"/><path class="cls-3" d="M165.41,338.32l-7.86-7.66a4.71,4.71,0,0,1,2-7.91l10.56-3a4.71,4.71,0,0,1,5.84,5.7l-2.7,10.63A4.71,4.71,0,0,1,165.41,338.32Z"/><circle class="cls-8" cx="131.48" cy="346.35" r="1.5"/><circle class="cls-8" cx="147.48" cy="346.35" r="1.5"/><circle class="cls-8" cx="141.48" cy="357.35" r="1.5"/><circle class="cls-8" cx="208.74" cy="346.57" r="1.5"/><circle class="cls-8" cx="194.81" cy="338.7" r="1.5"/><circle class="cls-8" cx="205.44" cy="332.07" r="1.5"/><path class="cls-3" d="M25.87,251.67c-5.77-7.18-11.1-37.32-10.76-35.45a3.94,3.94,0,0,1,4.66-5c13.69.26,25.89,2.78,36.08,8.4a4,4,0,0,1,2,6.54c-11.07,6.15-19.24,15.45-25.31,27A3.94,3.94,0,0,1,25.87,251.67Z"/></svg>
