<svg id="Layer_1" data-name="Layer 1" xmlns="http://www.w3.org/2000/svg" width="581" height="709.69" viewBox="0 0 581 709.69"><defs><style>.cls-1{fill:#fff;}.cls-2{fill:#f4b0a7;}.cls-3{fill:#998675;}.cls-4{fill:#e6e6e6;}.cls-5{fill:#eaa2a7;}.cls-6{fill:gray;}.cls-7{fill:#99ada1;}</style></defs><title>hvidkat</title><rect class="cls-1" x="223.94" y="532.69" width="56" height="149" rx="28" ry="28" transform="translate(-121.53 66.2) rotate(-12.08)"/><rect class="cls-1" x="397.94" y="532.69" width="56" height="149" rx="28" ry="28" transform="translate(148.88 -80.81) rotate(13.11)"/><path class="cls-1" d="M569.05,45.69A36.81,36.81,0,0,0,533.32,8h0c-30.4-.81-42.38,25.67-48.38,59.67-11.9,52.39-16.55,130.15-18.17,218.43-29.65-13.67-67.06-21.43-113.23-21.43-148.34,0-268.6,80.14-268.6,179,0,40.86,20.63,75.95,55.28,103.07a28.4,28.4,0,0,0-.28,3.93v121a28.08,28.08,0,0,0,28,28h11a28.08,28.08,0,0,0,28-28V583.11c42.28,15.87,92.79,24.58,147,24.58,48.2,0,86.82-6.88,117-19.56v65.2a39.48,39.48,0,0,0,39.37,39.36h1a37.74,37.74,0,0,0,37.63-37.63V510.14c7.49-19.79,11-42.09,11-66.45a219.5,219.5,0,0,0-4.8-46.68C548.75,257.83,547.87,128.93,569.05,45.69Z"/><path class="cls-1" d="M308.81,283.23a114.08,114.08,0,0,0-19.51-43.55c6.83-24.87-9.41-58.21-23.29-87-22.64,2.09-40.55,15.23-60.63,35.39A161.63,161.63,0,0,0,88.62,210.18C60.49,199.6,33,194.22,11,202c-.62,33-1.52,71.41,16.74,90.63A114.56,114.56,0,0,0,27,343.56c14.74,68.86,89.77,111.16,167.59,94.5S323.56,352.08,308.81,283.23Z"/><path class="cls-2" d="M34.83,253.51c-5.77-7.17-11.1-37.32-10.76-35.44a3.94,3.94,0,0,1,4.67-5c13.68.26,25.88,2.79,36.07,8.41a3.94,3.94,0,0,1,2,6.53c-11.08,6.16-19.25,15.46-25.32,27A3.94,3.94,0,0,1,34.83,253.51Z"/><path class="cls-2" d="M223.15,196.77c5.08-7.67,32.17-21.91,30.49-21a3.94,3.94,0,0,1,6.17,2.93c3.91,13.11,5.22,25.51,3,36.92a4,4,0,0,1-5.62,3.88c-9.23-8.68-20.58-13.64-33.46-15.9A3.94,3.94,0,0,1,223.15,196.77Z"/><path class="cls-3" d="M96.21,319.37c3.94,9.76,15,10.36,26.14,5.86s18.22-12.39,14.28-22.15-16.33-11.18-27.49-6.68S92.28,309.6,96.21,319.37Z"/><circle class="cls-4" cx="113.45" cy="311.89" r="3.24"/><circle class="cls-4" cx="110.19" cy="305.52" r="2.59"/><circle class="cls-4" cx="105.99" cy="310.7" r="1.94"/><path class="cls-3" d="M187.5,287.8c.08,9.81,8.81,14,20,13.86s20.64-4.39,20.56-14.2-9.17-14.41-20.38-14.32S187.41,278,187.5,287.8Z"/><circle class="cls-4" cx="207.81" cy="292.3" r="3.62"/><circle class="cls-4" cx="207.02" cy="284.33" r="2.9"/><circle class="cls-4" cx="200.52" cy="288.01" r="2.17"/><path class="cls-5" d="M191.27,359.63c3.73,5.78-.45,17-4.19,18.3-4.67,1.68-15.37-4.59-13.13-13.41,2.16-8.5,4-15.83,4-17.83C177.94,344.39,186.1,351.6,191.27,359.63Z"/><path class="cls-6" d="M165,434.63a196.11,196.11,0,0,1-20.18-1.08,2.5,2.5,0,1,1,.52-5c26.54,2.74,49.78.11,69.06-7.81s35.05-21.26,47.14-39.76a2.5,2.5,0,1,1,4.18,2.73C243.65,417.56,209.82,434.63,165,434.63Z"/><path class="cls-6" d="M134.44,383.69a1.5,1.5,0,0,1-.25-3c18.14-3.06,31.41-6.8,37.24-15.14,3.88-5.54,4.71-13.36,2.63-24.62a1.5,1.5,0,1,1,2.95-.54c2.24,12.1,1.24,20.64-3.12,26.88-6.43,9.19-20.32,13.2-39.2,16.38Z"/><path class="cls-6" d="M206,363.45a38.26,38.26,0,0,1-5.73-.41c-11.18-1.72-19.25-8.67-25.4-21.9a1.5,1.5,0,0,1,2.73-1.26c11.51,24.78,28.3,24.22,59.35,13.89a1.5,1.5,0,0,1,.94,2.84C227.07,360.22,215.85,363.45,206,363.45Z"/><path class="cls-2" d="M171.37,342.16l-7.86-7.65a4.71,4.71,0,0,1,2-7.91l10.56-3a4.71,4.71,0,0,1,5.85,5.69L179.23,340A4.71,4.71,0,0,1,171.37,342.16Z"/><circle class="cls-7" cx="137.44" cy="350.19" r="1.5"/><circle class="cls-7" cx="153.44" cy="350.19" r="1.5"/><circle class="cls-7" cx="147.44" cy="361.19" r="1.5"/><circle class="cls-7" cx="214.7" cy="350.41" r="1.5"/><circle class="cls-7" cx="200.77" cy="342.54" r="1.5"/><circle class="cls-7" cx="211.4" cy="335.92" r="1.5"/></svg>
