<svg id="Layer_1" data-name="Layer 1" xmlns="http://www.w3.org/2000/svg" width="330" height="480" viewBox="0 0 330 480"><defs><style>.cls-1{fill:#1a1a1a;}.cls-2{fill:#fff;}.cls-3{fill:#666;}</style></defs><title>kattearmv2</title><polygon class="cls-1" points="244.51 477.29 226.51 464.11 243.93 449.57 244.51 477.29"/><polygon class="cls-1" points="279.57 450.56 261.57 437.38 278.99 422.84 279.57 450.56"/><polygon class="cls-1" points="319.01 420.86 301.01 407.68 318.43 393.14 319.01 420.86"/><path class="cls-2" d="M189,431.32a15,15,0,0,1-6.74-7.73L8.58,15.91a18.34,18.34,0,0,1-1.31-4.43c-.87-6,166.08-7.75,169.7.74L310.3,323.35a23.41,23.41,0,0,1,1.3,13.52"/><path class="cls-3" d="M188,434.8a18.34,18.34,0,0,1-8.14-9.36L6.2,17.77A22.7,22.7,0,0,1,4.59,12.2a4.6,4.6,0,0,1,2.3-4.84c6.7-3.42,56.25-4.65,88-4.65h.18c21.57,0,41.31.49,55.59,1.37,26.67,1.65,27.71,4.11,28.64,6.28L312.67,321.48a28.18,28.18,0,0,1,1.58,16.35L309,335.9a18.49,18.49,0,0,0-1-10.7l-133-310.46c-4.27-2.33-31.66-4.71-83-4.61-42,.09-72.68,1.82-81,3.57l.15.35L184.59,421.73a12,12,0,0,0,5.33,6.12ZM174.6,14.08v0Z"/><path class="cls-2" d="M251.47,383.47c9.36,21.22-1.25,40.8-4.29,57.6-1.67,9.26-5.21,16.71-10.6,21.08-15.18,12.31-39.25-4.39-53.78-37.3"/><path class="cls-3" d="M225.28,469.93c-5.36,0-11.16-2.06-17.08-6.17-10.61-7.36-20.47-20.5-27.75-37a4.51,4.51,0,0,1,.94-5.09c1.3-1.05,3-.48,3.76,1.28,6.76,15.33,15.84,27.48,25.54,34.21,9.29,6.44,18,7.08,24.48,1.81,4.57-3.7,7.8-10.2,9.35-18.77.8-4.42,2-8.83,3.36-13.51,3.73-13.24,7.58-26.92,1.24-41.3a4.53,4.53,0,0,1,.94-5.1c1.29-1,3-.48,3.76,1.28,7.71,17.48,3.18,33.57-.82,47.77-1.25,4.45-2.44,8.66-3.16,12.62-1.9,10.55-6,18.64-11.86,23.38A19.76,19.76,0,0,1,225.28,469.93Z"/><path class="cls-2" d="M274.47,365.65c15.19,32.35,10.15,61.92-5,74.22s-40.7-7.16-55.22-40.07"/><path class="cls-3" d="M258.92,447.34c-5.74,0-12.07-2.44-18.64-7.28-10.82-8-21.18-22-28.41-38.35a4.51,4.51,0,0,1,.94-5.09c1.3-1.05,3-.48,3.76,1.28,6.75,15.28,16.34,28.27,26.33,35.63,9.8,7.23,18.73,8.35,25.14,3.16,6-4.92,10.32-13,12-22.69,2.42-13.88-.38-30.34-7.9-46.36a4.56,4.56,0,0,1,.84-5.12c1.28-1.1,3-.6,3.78,1.14,8.32,17.71,11.38,36.2,8.61,52-2,11.68-7.2,21.4-14.54,27.35A18.57,18.57,0,0,1,258.92,447.34Z"/><path class="cls-2" d="M312.24,329.79c14.53,32.91,14,69.56-1.17,81.87-8.3,6.74-19.28,4.78-29.9-3.77-8.77-7.07-17.3-18.64-23.87-33.53"/><path class="cls-3" d="M299.79,419.41c-6.28,0-13.15-2.8-20-8.33-9.46-7.62-18.28-20-24.82-34.82a4.51,4.51,0,0,1,.94-5.09c1.29-1.05,3-.48,3.76,1.28,6.08,13.79,14.22,25.24,22.92,32.25,10.13,8.15,20,9.53,27.1,3.77,13.85-11.23,13.95-45.68.22-76.78a4.53,4.53,0,0,1,.95-5.09c1.29-1.05,3-.48,3.75,1.28,15.28,34.61,14.34,73.63-2.11,87A19.77,19.77,0,0,1,299.79,419.41Z"/></svg>
