<svg id="Layer_1" data-name="Layer 1" xmlns="http://www.w3.org/2000/svg" width="300" height="325" viewBox="0 0 300 325"><defs><style>.cls-1{fill:#1a1a1a;}.cls-2{fill:#fff;}.cls-3{fill:#666;}</style></defs><title>kattearm</title><polygon class="cls-1" points="222.58 322.29 206.15 313.42 222.05 303.62 222.58 322.29"/><polygon class="cls-1" points="254.58 304.29 238.15 295.42 254.05 285.62 254.58 304.29"/><polygon class="cls-1" points="290.58 284.29 274.14 275.42 290.05 265.62 290.58 284.29"/><path class="cls-2" d="M171.87,291.34a12,12,0,0,1-6.15-5.21L7.22,11.6A9.69,9.69,0,0,1,6,8.61c-.8-4,151.59-5.21,154.89.5L282.63,218.63a12,12,0,0,1,1.19,9.1"/><path class="cls-3" d="M171,293.68a14.56,14.56,0,0,1-7.44-6.3L5.05,12.85A12.45,12.45,0,0,1,3.58,9.1a2.83,2.83,0,0,1,2.1-3.26C11.79,3.54,57,2.71,86,2.71h.17c19.68,0,37.7.33,50.74.92,24.34,1.11,25.29,2.77,26.14,4.23l121.7,209.51a14.36,14.36,0,0,1,1.44,11l-4.83-1.3a9.42,9.42,0,0,0-.93-7.2L159,10.81c-3.9-1.57-28.9-3.17-75.79-3.1-38.38.06-66.34,1.22-74,2.4l.13.24,158.5,274.53a9.52,9.52,0,0,0,4.87,4.12ZM158.76,10.37h0Z"/><path class="cls-2" d="M228.92,259.11c8.55,14.29-1.13,27.48-3.9,38.79-1.53,6.24-4.76,11.25-9.69,14.19-13.85,8.29-35.82-2.95-49.08-25.11"/><path class="cls-3" d="M205,317.34a34.51,34.51,0,0,1-15.6-4.16c-9.68-5-18.68-13.81-25.33-24.92a2.5,2.5,0,0,1,4.29-2.57c6.18,10.32,14.46,18.5,23.32,23,8.48,4.34,16.41,4.77,22.34,1.22,4.17-2.5,7.12-6.87,8.54-12.64a78.55,78.55,0,0,1,3.06-9.1c3.41-8.91,6.92-18.13,1.13-27.81a2.5,2.5,0,0,1,4.29-2.57c7,11.77,2.9,22.6-.74,32.16a75.19,75.19,0,0,0-2.89,8.51c-1.74,7.1-5.48,12.54-10.82,15.74A22.28,22.28,0,0,1,205,317.34Z"/><path class="cls-2" d="M249.92,247.11c13.87,21.79,9.27,41.7-4.59,50s-37.14-4.82-50.41-27"/><path class="cls-3" d="M235.73,302.12c-5.24,0-11-1.64-17-4.9-9.87-5.37-19.33-14.79-25.93-25.82a2.5,2.5,0,0,1,4.29-2.57c6.16,10.29,14.92,19,24,24,9,4.86,17.1,5.62,23,2.12a24,24,0,0,0,11-15.28c2.21-9.35-.35-20.43-7.21-31.22a2.5,2.5,0,1,1,4.21-2.68c7.6,11.93,10.39,24.38,7.86,35a28.94,28.94,0,0,1-13.27,18.42A21,21,0,0,1,235.73,302.12Z"/><path class="cls-2" d="M284.4,223c13.26,22.16,12.79,46.85-1.07,55.13-7.58,4.54-17.6,3.22-27.29-2.53C248,270.8,240.25,263,234.25,253"/><path class="cls-3" d="M273,283.31c-5.74,0-12-1.88-18.28-5.6-8.64-5.14-16.68-13.47-22.66-23.45a2.5,2.5,0,1,1,4.29-2.57c5.56,9.29,13,17,20.93,21.72,9.24,5.49,18.26,6.41,24.73,2.54,12.65-7.57,12.74-30.76.21-51.7a2.5,2.5,0,0,1,4.29-2.57c13.94,23.31,13.08,49.58-1.93,58.56A22.34,22.34,0,0,1,273,283.31Z"/></svg>
