<svg id="Layer_1" data-name="Layer 1" xmlns="http://www.w3.org/2000/svg" width="171" height="584" viewBox="0 0 171 584"><defs><style>.cls-1{fill:#99ada1;}.cls-2{fill:#160d06;}.cls-3{fill:#db1620;}.cls-4{fill:#f2c098;}.cls-5{fill:#c69c6d;}.cls-6{fill:#c12755;}.cls-7{fill:#1a1a1a;}.cls-8{fill:#eaa2a7;}.cls-9{fill:#c55e48;}.cls-10{fill:#fff;}.cls-11{fill:#c1272d;}.cls-12{fill:#a56059;}.cls-13{fill:#742d1b;}</style></defs><title>kvinde</title><path class="cls-1" d="M126.21,425.34l-18.93,1.25c-5.68.37-6-2.91-6.26-6.92l-16.11-123c-.25-3.79,17.75-6.07,18.64-6.13l14.18-.92c.36,0,16.9.78,17.23,6.2l-3,122.42C132.26,422.26,131.88,425,126.21,425.34Z"/><path class="cls-1" d="M84.87,424.58,66,426.85c-5.65.69-6.14-2.57-6.63-6.57L36.6,298.35c-.46-3.77,17.39-7,18.27-7.14L69,289.52c.36,0,16.92-.14,17.54,5.25l3.73,122.4C90.74,421.16,90.52,423.89,84.87,424.58Z"/><path class="cls-2" d="M116,113l-71,3c-6.48.23,5-20.93,5-21,2.87-10.84-2-32-3-55C47,19.47,65.8,2.06,86.32,2.06h0A41.39,41.39,0,0,1,127.6,43.33C122.93,66,124,84,127.6,94.82,132.72,110.29,124.53,120.2,116,113Z"/><path class="cls-3" d="M132,188.19c4.21,0,19-15.07,8.54-28.27-4.15-5.24-5.84-11.58-6.87-15,.49-8-1.17-16.62-.67-24.55,0-5.57-2.69-9.46-8.61-9.46a587.21,587.21,0,0,1-78,0c-5.92,0-10.35,1-10.35,5.69C55.22,175,54.7,240.77,35.59,295a10.66,10.66,0,0,0,10.76,11h78c5.92,0,10.77-4.56,10.77-10.13C126.9,274.05,131.61,188.19,132,188.19Z"/><rect class="cls-4" x="70.49" y="90.97" width="28.68" height="28.68" rx="10.5" ry="10.5"/><path class="cls-5" d="M116.69,56.43c0,24.06-1.84,46.08-19.69,45.57-15.56-.44-38.71-4.59-45-45.57-4-25.85,28.62-43.7,32.34-43.55C102.2,13.57,116.69,32.38,116.69,56.43Z"/><path class="cls-4" d="M115,57c-.22,22.79-3.61,46.23-23,42-10.7-2.31-27.55-6.11-38-42-8.7-29.9,16-42,31-45C109.9,7,115.29,26.77,115,57Z"/><path class="cls-6" d="M102.53,68a.68.68,0,0,1-.2.07l0-.07"/><circle class="cls-7" cx="77.58" cy="49.78" r="3.31"/><circle class="cls-7" cx="102.69" cy="49.78" r="3.31"/><path class="cls-7" d="M82.93,42c-1.62,3-6.78-.17-9.78,2.64a1.67,1.67,0,0,1-2.19.16h0c-1.06-.59-1.26-1.43-.5-1.83,4.37-3.64,11,1.1,13.35-2.7.37-.57.4-.68.15,0h0A4,4,0,0,1,82.93,42Z"/><path class="cls-7" d="M96.13,41.78c1.63,3,6.78-.17,9.78,2.63a1.68,1.68,0,0,0,2.2.17h0c1.06-.6,1.26-1.44.5-1.84-4.24-3.52-11.24.78-13.36-2.7-.37-.56-.39-.67-.14,0h0A4.11,4.11,0,0,0,96.13,41.78Z"/><path class="cls-5" d="M94.82,66.25c.62-3.89,1-3.86.9-6.08,0-2.51-1-2.11-2.14-1.77s-2.19.64-2.25-1.72c-.19-2,1-5,.83-7.11.27,0-.07,4.78.37,6.18.32,1.67,1.64.81,2.7.53s1.92,0,1.57,3.22C96.58,62.43,95.11,66.2,94.82,66.25Z"/><path class="cls-5" d="M81.78,69.06c.3,1.43-.67,1.63-1.87,1.93-1,.23-1.88.47-2,1.93s.62,1.78.45,3.14A7.93,7.93,0,0,0,79,73c0-1.31,1.1-1.3,2.34-1.39.84-.07,1.41-.62,1.37-2.59s-.64-1.27-.62-1.88C81.89,67.31,81.52,67.85,81.78,69.06Z"/><path class="cls-2" d="M54,30c-6.11,11.9-6.89,23.33-4.35,24.63S62.62,63.28,61,50c-1.87-15.33,8.54-36,9-36C72.85,14,60.11,18.1,54,30Z"/><path class="cls-2" d="M89.14,8.43C104.29,5.87,118.21,29.37,117,33c-.9,2.7.36-4.93-11.53-11.06-13.73-7.07-36.72-4.49-36.89-4.05C67.54,20.54,76,10.67,89.14,8.43Z"/><path class="cls-2" d="M50.81,75.19c2.89,17.16,9.62,29.91,12.43,29.43s.49-14.53-.14-31.91C61.92,40,57.59,23.91,52.79,42.51A72.83,72.83,0,0,0,50.81,75.19Z"/><path class="cls-8" d="M104,73c-3-2.43-7.34-2.78-9.59-.81C91.88,70.22,87,70.57,84,73c-2.36,2-.52,9.47,4,12,4.16,2.33,7.84,2.75,10,2.31A5.1,5.1,0,0,0,101,86C104.78,82.46,106.36,75,104,73Z"/><path class="cls-9" d="M96.31,87.71a17.37,17.37,0,0,1-8.43-2.49c-3.16-1.77-4.87-5.67-5.13-8.54-.16-1.79.23-3.16,1.09-3.87,3-2.46,7.86-2.88,10.56-.94,2.39-1.91,6.8-1.51,9.76.94h0a4.19,4.19,0,0,1,1.2,3.2,14.79,14.79,0,0,1-4.19,10.17A5.33,5.33,0,0,1,98,87.56,9,9,0,0,1,96.31,87.71ZM90.12,71.17a9.58,9.58,0,0,0-6,2c-.72.6-1,1.85-.91,3.45.26,2.83,2,6.54,4.87,8.14,4.12,2.31,7.78,2.7,9.83,2.29a4.88,4.88,0,0,0,2.88-1.25,14.22,14.22,0,0,0,4-9.79,3.77,3.77,0,0,0-1-2.84h0c-2.85-2.35-7.09-2.72-9.26-.81l-.16.14-.16-.13A6.79,6.79,0,0,0,90.12,71.17Z"/><path class="cls-10" d="M103.3,76.27c-.53,2.93-2,6.94-7.47,6.94-4.77,0-9-3.66-10.62-7.1a.6.6,0,0,1-.06-.11h18.16"/><path class="cls-9" d="M95.83,83.46c-4.86,0-9.14-3.65-10.85-7.24a.67.67,0,0,1-.06-.12l-.15-.35h18.54v.5h-.09l.33.06C102.69,81.05,100.09,83.46,95.83,83.46ZM85.55,76.25C87.25,79.56,91.34,83,95.83,83c4,0,6.39-2.2,7.22-6.71Z"/><path class="cls-3" d="M14.85,213.26h0c5.79,1.86,11.69-.26,13.12-4.71L63,137c1.68-5.24-10.23-21.85-16-23.7h0c-5.79-1.86-11.69.26-13.12,4.71L6.94,201.79C5.51,206.24,9.07,211.4,14.85,213.26Z"/><path class="cls-3" d="M46.1,294.54h0c5.81-1.76,9.46-6.86,8.11-11.33L28.77,199c-1.59-5.26-7.22-6.7-13-4.94h0c-5.81,1.76-11.09,9.5-9.74,14l33,81C40.35,293.48,40.29,296.29,46.1,294.54Z"/><path class="cls-11" d="M95.81,194.07c-.62,0-1.25,0-1.89-.07a1,1,0,1,1,.16-2c6.94.55,12.37-2.25,14.87-7.7,3.64-8,.25-18.78-8.65-27.59a1,1,0,0,1,1.4-1.42c9.51,9.41,13.07,21.13,9.07,29.84C108.13,190.88,102.74,194.07,95.81,194.07Z"/><ellipse class="cls-1" cx="114" cy="472" rx="83" ry="17" transform="translate(-362.36 566.13) rotate(-87.6)"/><ellipse class="cls-1" cx="75" cy="470" rx="83" ry="17" transform="translate(-397.73 525.25) rotate(-87.6)"/><path class="cls-12" d="M152.21,578.07H112.79c-7,0-12.79-5.18-12.79-11.51v-.22a10.35,10.35,0,0,1,12.79-10l38.53-.58c7-1.49,13.68,4.27,13.68,10.6v.22C165,572.89,159.25,578.07,152.21,578.07Z"/><rect class="cls-13" x="103.42" y="572.37" width="55.88" height="1.14" rx="0.5" ry="0.5"/><rect class="cls-4" x="102.28" y="545" width="16.72" height="18.25" rx="5.57" ry="5.57"/><path class="cls-4" d="M150.18,563.25H114.82a2.29,2.29,0,0,1-2.28-2.29v-3.42c0-1.25,1-6.84,2.28-6.84l35.36,4.56a2.29,2.29,0,0,1,2.28,2.28V561A2.29,2.29,0,0,1,150.18,563.25Z"/><path class="cls-12" d="M114.21,580.07H74.79c-7,0-12.79-5.18-12.79-11.51v-.22a10.35,10.35,0,0,1,12.79-10l38.53-.58c7-1.49,13.68,4.27,13.68,10.6v.22C127,574.89,121.25,580.07,114.21,580.07Z"/><rect class="cls-13" x="65.42" y="574.37" width="55.88" height="1.14" rx="0.5" ry="0.5"/><rect class="cls-4" x="64.28" y="547" width="16.72" height="18.25" rx="5.57" ry="5.57"/><path class="cls-4" d="M112.18,565.25H76.82A2.29,2.29,0,0,1,74.54,563v-3.42c0-1.25,1-6.84,2.28-6.84l35.36,4.56a2.29,2.29,0,0,1,2.28,2.28V563A2.29,2.29,0,0,1,112.18,565.25Z"/></svg>
