<svg id="Layer_1" data-name="Layer 1" xmlns="http://www.w3.org/2000/svg" width="360" height="580" viewBox="0 0 360 580"><defs><style>.cls-1{fill:#f1f2ed;}.cls-2{fill:#db1620;}.cls-3{fill:#99ada1;}.cls-4{fill:#160d06;}.cls-5{fill:#f2c098;}.cls-6{fill:#c69c6d;}.cls-7{fill:#c12755;}.cls-8{fill:#1a1a1a;}.cls-9{fill:#eaa2a7;}.cls-10,.cls-9{stroke:#c55e48;stroke-width:0.5px;}.cls-10,.cls-11,.cls-9{stroke-miterlimit:10;}.cls-10{fill:#fff;}.cls-11{fill:none;stroke:#c1272d;stroke-linecap:round;stroke-width:2px;}.cls-12{fill:#a56059;}.cls-13{fill:#742d1b;}</style></defs><title>kvindeloebermstreger</title><rect class="cls-1" x="80.29" y="307.57" width="81.81" height="3.19" rx="1.5" ry="1.5"/><rect class="cls-1" x="45.23" y="296.94" width="116.88" height="3.19" rx="1.5" ry="1.5"/><rect class="cls-1" x="82.23" y="133.32" width="75" height="3" rx="1.5" ry="1.5"/><rect class="cls-1" x="45.23" y="143.32" width="110" height="3" rx="1.5" ry="1.5"/><path class="cls-2" d="M101.57,201.78h0c4.54,4,10.8,4.48,13.9,1l60.94-51.31c3.65-4.11-.55-24.12-5.09-28.15h0c-4.54-4-10.79-4.48-13.9-1L99,188.1C95.86,191.59,97,197.75,101.57,201.78Z"/><path class="cls-3" d="M277.81,435l-17.92,6.21c-5.38,1.86-6.55-1.22-7.87-5L204,321.86c-1.24-3.59,15.51-10.55,16.35-10.84l13.44-4.64c.34-.12,16.5-3.71,18.25,1.42l29.51,118.85C282.83,430.46,283.19,433.17,277.81,435Z"/><path class="cls-3" d="M176.77,443.28,158,440.33c-5.62-.89-5.14-4.61-4.42-9.14l14.06-140.62c.67-4.27,18.76-2.68,19.64-2.54l14,2.22c.35.06,16.27,4.75,15.28,10.86L184.13,436.7C183.41,441.23,182.39,444.16,176.77,443.28Z"/><ellipse class="cls-3" cx="173.75" cy="322.69" rx="34.51" ry="20" transform="translate(-172.05 444.08) rotate(-81.04)"/><path class="cls-4" d="M236.23,122.32l-71,3c-6.48.22,5-20.94,5-21,2.87-10.84-2-32-3-55,0-20.53,18.8-37.95,39.32-37.95h0a41.4,41.4,0,0,1,41.28,41.28c-4.67,22.61-3.6,40.67,0,51.49C253,119.61,244.76,129.52,236.23,122.32Z"/><path class="cls-2" d="M252.23,197.5c4.21,0,19-15.06,8.54-28.26-4.15-5.24-5.84-11.58-6.87-15,.49-8-1.17-16.62-.67-24.54,0-5.58-2.69-9.47-8.61-9.47a587.2,587.2,0,0,1-78,0c-5.92,0-10.35,1-10.35,5.7,19.22,58.35,18.7,124.13-.41,178.38a10.66,10.66,0,0,0,10.76,11h78c5.92,0,10.77-4.56,10.77-10.14C247.13,283.37,251.84,197.5,252.23,197.5Z"/><rect class="cls-5" x="190.72" y="100.28" width="28.68" height="28.68" rx="10.5" ry="10.5"/><path class="cls-6" d="M236.93,65.75c0,24-1.85,46.07-19.7,45.57-15.56-.45-38.71-4.6-45-45.57-4-25.85,28.62-43.7,32.34-43.56C222.43,22.88,236.93,41.69,236.93,65.75Z"/><path class="cls-5" d="M235.23,66.27c-.21,22.79-3.61,46.24-23,42.05-10.7-2.32-27.55-6.12-38-42-8.7-29.9,16-41.95,31-44.95C230.13,16.33,235.52,36.08,235.23,66.27Z"/><path class="cls-7" d="M222.76,77.29l-.19.07v-.07"/><circle class="cls-8" cx="222.92" cy="59.09" r="3.31"/><circle class="cls-8" cx="196.92" cy="60.09" r="3.31"/><path class="cls-8" d="M203.16,51.29c-1.62,3-6.78-.18-9.78,2.63a1.66,1.66,0,0,1-2.19.17h0c-1.06-.6-1.26-1.44-.5-1.84,4.37-3.64,11,1.1,13.35-2.7.37-.56.4-.67.15,0h0A4,4,0,0,1,203.16,51.29Z"/><path class="cls-8" d="M216.37,51.1c1.62,3,6.77-.18,9.77,2.63a1.68,1.68,0,0,0,2.2.16h0c1.06-.59,1.26-1.43.5-1.83-4.23-3.52-11.24.78-13.36-2.7-.37-.57-.39-.68-.14,0h0A4.08,4.08,0,0,0,216.37,51.1Z"/><path class="cls-2" d="M277.32,265.11h0c4.95-3.51,6.8-9.5,4.1-13.32L230.58,180c-3.18-4.48-9-4.06-13.92-.55h0c-5,3.5-7.51,12.53-4.81,16.34l57,66.36C271.53,265.93,272.36,268.62,277.32,265.11Z"/><path class="cls-6" d="M215.05,75.57c.63-3.89,1-3.86.9-6.08.06-2.52-1-2.12-2.14-1.78s-2.19.65-2.25-1.72c-.19-2,1-5,.83-7.11.27,0-.07,4.78.37,6.18.33,1.68,1.64.81,2.7.53s1.92,0,1.57,3.23C216.81,71.75,215.34,75.51,215.05,75.57Z"/><path class="cls-6" d="M202,78.37c.3,1.44-.67,1.64-1.86,1.93-1,.23-1.89.48-2,1.94s.62,1.77.45,3.13a7.73,7.73,0,0,0,.58-3c0-1.31,1.1-1.3,2.34-1.4.85-.07,1.41-.62,1.37-2.58s-.63-1.27-.62-1.89C202.12,76.63,201.75,77.16,202,78.37Z"/><path class="cls-4" d="M208.37,17.75c15.15-2.57,29.07,20.93,27.86,24.57-.9,2.7.36-4.93-11.53-11.06C211,24.18,188,26.77,187.81,27.2,186.77,29.85,195.18,20,208.37,17.75Z"/><path class="cls-9" d="M224.23,82.32c-2.95-2.44-7.34-2.79-9.58-.81-2.54-2-7.47-1.63-10.42.81-2.36,1.94-.51,9.46,4,12,4.16,2.33,7.84,2.74,10,2.31a5.1,5.1,0,0,0,3-1.31C225,91.78,226.59,84.26,224.23,82.32Z"/><path class="cls-10" d="M223.54,85.58c-.54,2.94-2,6.94-7.48,6.94-4.77,0-9-3.65-10.62-7.09l-.06-.11h18.16"/><path class="cls-11" d="M221.23,165.32c17.35,17.18,11.47,38.47-7,37"/><rect class="cls-1" x="39.23" y="192.32" width="77" height="3" rx="1.5" ry="1.5"/><rect class="cls-1" x="37.23" y="212.32" width="77" height="3" rx="1.5" ry="1.5"/><rect class="cls-1" x="4.23" y="202.32" width="110" height="3" rx="1.5" ry="1.5"/><path class="cls-2" d="M155.07,275h0c5.36-2.84,8-8.55,5.77-12.68l-41.2-77.76c-2.58-4.86-8.37-5.18-13.74-2.34h0c-5.36,2.85-9.05,11.47-6.86,15.6l48,73.12C149.22,275,149.7,277.81,155.07,275Z"/><path class="cls-12" d="M344.14,548.53l-38,10.51c-6.78,1.88-13.7-1.58-15.39-7.68l-.06-.21a10.35,10.35,0,0,1,9.65-13.07l37-10.83c6.38-3.31,14.33.47,16,6.57l.05.21C355.08,540.13,350.92,546.66,344.14,548.53Z"/><rect class="cls-13" x="294.73" y="548.57" width="55.88" height="1.14" rx="0.5" ry="0.5" transform="translate(-134.73 105.9) rotate(-15.46)"/><rect class="cls-5" x="289.33" y="527.41" width="16.72" height="18.25" rx="5.57" ry="5.57" transform="translate(-132.27 98.78) rotate(-15.46)"/><path class="cls-5" d="M338.22,534.79l-34.07,9.42a2.27,2.27,0,0,1-2.8-1.59l-.92-3.3c-.33-1.21-.83-6.86.38-7.2l35.28-5a2.29,2.29,0,0,1,2.81,1.59l.91,3.3A2.29,2.29,0,0,1,338.22,534.79Z"/><path class="cls-12" d="M140.94,573.88l-34.47-19.15c-6.15-3.41-8.66-10.73-5.59-16.27l.11-.19a10.34,10.34,0,0,1,16-2.55l34,18.2c6.88,2.11,9.89,10.38,6.82,15.91l-.11.2C154.63,575.56,147.08,577.29,140.94,573.88Z"/><rect class="cls-13" x="97.26" y="558.7" width="55.88" height="1.14" rx="0.5" ry="0.5" transform="translate(287.31 9.56) rotate(29.05)"/><rect class="cls-5" x="107.86" y="523.63" width="16.72" height="18.25" rx="5.57" ry="5.57" transform="translate(273.31 10.59) rotate(29.05)"/><path class="cls-5" d="M146.35,559.93l-30.9-17.17a2.28,2.28,0,0,1-.89-3.1l1.66-3c.61-1.1,4.22-5.48,5.32-4.87L150.23,553a2.29,2.29,0,0,1,.88,3.1l-1.66,3A2.28,2.28,0,0,1,146.35,559.93Z"/><rect class="cls-5" x="278.26" y="250.96" width="20.24" height="36.53" rx="8" ry="8" transform="translate(-105.72 251.22) rotate(-40.42)"/><rect class="cls-5" x="155.26" y="261.96" width="20.24" height="36.53" rx="8" ry="8" transform="translate(-142.21 174.09) rotate(-40.42)"/><path class="cls-3" d="M116.26,534.16l-6.06-3.5c-5.72-3.3-5.27-5.63-2-11.34C121,481.25,133.91,448,152.81,432.86a12,12,0,0,1,16.39-4.39l6.06,3.5a12,12,0,0,1,4.39,16.39l-52.42,82C123.93,536,122,537.46,116.26,534.16Z"/><path class="cls-3" d="M298.2,534.2,291.42,536c-6.39,1.65-6.54-2.24-8.19-8.63-17.59-36.08-32.82-67-29.94-91a12,12,0,0,1,8.62-14.62l6.78-1.75a12,12,0,0,1,14.62,8.62l21.92,94.75C306.88,529.71,304.59,532.55,298.2,534.2Z"/><path class="cls-4" d="M174.23,37.32c-6.1,11.9-6.89,23.33-4.35,24.63s13,8.64,11.35-4.63c-1.87-15.33,8.54-36,9-36C193.08,21.26,180.34,25.41,174.23,37.32Z"/><path class="cls-4" d="M171.05,82.51c2.88,17.15,9.61,29.9,12.42,29.43S184,97.41,183.33,80c-1.18-32.67-5.51-48.81-10.31-30.21A72.77,72.77,0,0,0,171.05,82.51Z"/></svg>
