<svg id="Layer_1" data-name="Layer 1" xmlns="http://www.w3.org/2000/svg" width="360" height="580" viewBox="0 0 360 580"><defs><style>.cls-1{fill:#f1f2ed;}.cls-2{fill:#db1620;}.cls-3{fill:#99ada1;}.cls-4{fill:#160d06;}.cls-5{fill:#f2c098;}.cls-6{fill:#c69c6d;}.cls-7{fill:#c12755;}.cls-8{fill:#1a1a1a;}.cls-9{fill:#eaa2a7;}.cls-10,.cls-9{stroke:#c55e48;stroke-width:0.5px;}.cls-10,.cls-11,.cls-9{stroke-miterlimit:10;}.cls-10{fill:#fff;}.cls-11{fill:none;stroke:#c1272d;stroke-linecap:round;stroke-width:2px;}.cls-12{fill:#a56059;}.cls-13{fill:#742d1b;}</style></defs><title>kvindeflipped</title><rect class="cls-1" x="195.9" y="307.57" width="81.81" height="3.19" rx="1.5" ry="1.5" transform="translate(473.6 618.32) rotate(-180)"/><rect class="cls-1" x="195.9" y="296.94" width="116.88" height="3.19" rx="1.5" ry="1.5" transform="translate(508.67 597.07) rotate(180)"/><rect class="cls-1" x="200.77" y="133.32" width="75" height="3" rx="1.5" ry="1.5" transform="translate(476.54 269.63) rotate(180)"/><rect class="cls-1" x="202.77" y="143.32" width="110" height="3" rx="1.5" ry="1.5" transform="translate(515.54 289.63) rotate(-180)"/><path class="cls-2" d="M256.43,201.78h0c-4.54,4-10.8,4.48-13.9,1L181.6,151.45c-3.66-4.11.54-24.12,5.08-28.15h0c4.54-4,10.79-4.48,13.9-1L259,188.1C262.14,191.59,261,197.75,256.43,201.78Z"/><path class="cls-3" d="M80.19,435l17.92,6.21c5.38,1.86,6.55-1.22,7.87-5L154,321.86c1.25-3.59-15.51-10.55-16.35-10.84l-13.44-4.64c-.34-.12-16.5-3.71-18.25,1.42L76.49,426.65C75.17,430.46,74.81,433.17,80.19,435Z"/><path class="cls-3" d="M181.23,443.28,200,440.33c5.62-.89,5.14-4.61,4.43-9.14L190.32,290.57c-.67-4.27-18.76-2.68-19.63-2.54l-14.05,2.22c-.35.06-16.27,4.75-15.28,10.86L173.87,436.7C174.59,441.23,175.61,444.16,181.23,443.28Z"/><ellipse class="cls-3" cx="184.25" cy="322.69" rx="20" ry="34.51" transform="matrix(0.99, -0.16, 0.16, 0.99, -48, 32.62)"/><path class="cls-4" d="M121.77,122.32l71,3c6.48.22-5-20.94-5-21-2.87-10.84,2-32,3-55,0-20.53-18.8-37.95-39.32-37.95h0a41.4,41.4,0,0,0-41.28,41.28c4.67,22.61,3.6,40.67,0,51.49C105.05,119.61,113.24,129.52,121.77,122.32Z"/><path class="cls-2" d="M105.77,197.5c-4.21,0-19-15.06-8.54-28.26,4.15-5.24,5.84-11.58,6.87-15-.49-8,1.17-16.62.67-24.54,0-5.58,2.69-9.47,8.61-9.47a587.21,587.21,0,0,0,78,0c5.92,0,10.35,1,10.35,5.7-19.22,58.35-18.7,124.13.41,178.38a10.66,10.66,0,0,1-10.76,11h-78c-5.92,0-10.77-4.56-10.77-10.14C110.88,283.37,106.16,197.5,105.77,197.5Z"/><rect class="cls-5" x="138.6" y="100.28" width="28.68" height="28.68" rx="10.5" ry="10.5" transform="translate(305.88 229.24) rotate(-180)"/><path class="cls-6" d="M121.08,65.75c0,24,1.84,46.07,19.69,45.57,15.56-.45,38.71-4.6,45-45.57,4-25.85-28.62-43.7-32.34-43.56C135.57,22.88,121.08,41.69,121.08,65.75Z"/><path class="cls-5" d="M122.77,66.27c.22,22.79,3.61,46.24,23,42.05,10.7-2.32,27.55-6.12,38-42,8.7-29.9-16-41.95-31-44.95C127.87,16.33,122.48,36.08,122.77,66.27Z"/><path class="cls-7" d="M135.24,77.29l.2.07,0-.07"/><circle class="cls-8" cx="135.08" cy="59.09" r="3.31"/><circle class="cls-8" cx="161.08" cy="60.09" r="3.31"/><path class="cls-8" d="M154.84,51.29c1.62,3,6.78-.18,9.78,2.63.34.49,1.2.7,2.2.17h0c1.05-.6,1.25-1.44.49-1.84-4.37-3.64-11,1.1-13.35-2.7-.37-.56-.4-.67-.15,0h0A4,4,0,0,0,154.84,51.29Z"/><path class="cls-8" d="M141.64,51.1c-1.63,3-6.78-.18-9.78,2.63a1.68,1.68,0,0,1-2.2.16h0c-1.06-.59-1.25-1.43-.5-1.83,4.24-3.52,11.24.78,13.36-2.7.37-.57.39-.68.14,0h0A4.18,4.18,0,0,1,141.64,51.1Z"/><path class="cls-2" d="M80.68,265.11h0c-5-3.51-6.8-9.5-4.1-13.32L127.42,180c3.18-4.48,9-4.06,13.92-.55h0c5,3.5,7.51,12.53,4.81,16.34l-57,66.36C86.47,265.93,85.64,268.62,80.68,265.11Z"/><path class="cls-6" d="M143,75.57c-.62-3.89-1-3.86-.9-6.08-.05-2.52,1-2.12,2.14-1.78s2.19.65,2.25-1.72c.19-2-1-5-.83-7.11-.27,0,.07,4.78-.37,6.18-.32,1.68-1.64.81-2.7.53s-1.92,0-1.57,3.23C141.19,71.75,142.66,75.51,143,75.57Z"/><path class="cls-6" d="M156,78.37c-.3,1.44.67,1.64,1.87,1.93.95.23,1.88.48,1.95,1.94s-.62,1.77-.45,3.13a7.92,7.92,0,0,1-.58-3c0-1.31-1.1-1.3-2.34-1.4-.84-.07-1.41-.62-1.37-2.58s.64-1.27.62-1.89C155.88,76.63,156.25,77.16,156,78.37Z"/><path class="cls-4" d="M149.63,17.75c-15.15-2.57-29.07,20.93-27.86,24.57.9,2.7-.36-4.93,11.53-11.06C147,24.18,170,26.77,170.19,27.2,171.23,29.85,162.82,20,149.63,17.75Z"/><path class="cls-9" d="M133.77,82.32c2.95-2.44,7.34-2.79,9.59-.81,2.54-2,7.46-1.63,10.41.81,2.36,1.94.52,9.46-4,12-4.16,2.33-7.84,2.74-10,2.31a5.1,5.1,0,0,1-3-1.31C133,91.78,131.41,84.26,133.77,82.32Z"/><path class="cls-10" d="M134.47,85.58c.53,2.94,2,6.94,7.47,6.94,4.77,0,9-3.65,10.62-7.09,0,0,0-.08.06-.11H134.46"/><path class="cls-11" d="M136.77,165.32c-17.35,17.18-11.46,38.47,7,37"/><rect class="cls-1" x="241.77" y="192.32" width="77" height="3" rx="1.5" ry="1.5" transform="translate(560.54 387.63) rotate(-180)"/><rect class="cls-1" x="243.77" y="212.32" width="77" height="3" rx="1.5" ry="1.5" transform="translate(564.54 427.63) rotate(-180)"/><rect class="cls-1" x="243.77" y="202.32" width="110" height="3" rx="1.5" ry="1.5" transform="translate(597.54 407.63) rotate(-180)"/><path class="cls-2" d="M202.93,275h0c-5.36-2.84-8-8.55-5.77-12.68l41.2-77.76c2.58-4.86,8.37-5.18,13.74-2.34h0c5.37,2.85,9,11.47,6.86,15.6l-48,73.12C208.78,275,208.3,277.81,202.93,275Z"/><path class="cls-12" d="M13.86,548.53l38,10.51c6.78,1.88,13.71-1.58,15.39-7.68l.06-.21a10.34,10.34,0,0,0-9.65-13.07l-37-10.83c-6.38-3.31-14.33.47-16,6.57l-.06.21C2.92,540.13,7.08,546.66,13.86,548.53Z"/><rect class="cls-13" x="7.39" y="548.57" width="55.88" height="1.14" rx="0.5" ry="0.5" transform="translate(-77.03 1087.83) rotate(-164.54)"/><rect class="cls-5" x="51.96" y="527.41" width="16.72" height="18.25" rx="5.57" ry="5.57" transform="translate(-24.6 1069.73) rotate(-164.54)"/><path class="cls-5" d="M19.78,534.79l34.07,9.42a2.29,2.29,0,0,0,2.81-1.59l.91-3.3c.33-1.21.83-6.86-.38-7.2l-35.28-5a2.29,2.29,0,0,0-2.81,1.59l-.91,3.3A2.29,2.29,0,0,0,19.78,534.79Z"/><path class="cls-12" d="M217.07,573.88l34.46-19.15c6.15-3.41,8.67-10.73,5.59-16.27l-.11-.19a10.34,10.34,0,0,0-16-2.55l-34,18.2c-6.87,2.11-9.89,10.38-6.82,15.91l.11.2C203.37,575.56,210.92,577.29,217.07,573.88Z"/><rect class="cls-13" x="204.87" y="558.7" width="55.88" height="1.14" rx="0.5" ry="0.5" transform="translate(707.88 935.14) rotate(150.95)"/><rect class="cls-5" x="233.42" y="523.63" width="16.72" height="18.25" rx="5.57" ry="5.57" transform="translate(711.83 881.09) rotate(150.95)"/><path class="cls-5" d="M211.65,559.93l30.9-17.17a2.28,2.28,0,0,0,.89-3.1l-1.66-3c-.61-1.1-4.22-5.48-5.32-4.87L207.77,553a2.29,2.29,0,0,0-.88,3.1l1.66,3A2.28,2.28,0,0,0,211.65,559.93Z"/><rect class="cls-5" x="59.51" y="250.96" width="20.24" height="36.53" rx="8" ry="8" transform="translate(-51.91 519.33) rotate(-139.58)"/><rect class="cls-5" x="182.51" y="261.96" width="20.24" height="36.53" rx="8" ry="8" transform="translate(157.6 618.45) rotate(-139.58)"/><path class="cls-3" d="M241.74,534.16l6.06-3.5c5.72-3.3,5.27-5.63,2-11.34-12.72-38.07-25.67-71.33-44.58-86.46a12,12,0,0,0-16.39-4.39l-6.06,3.5a12,12,0,0,0-4.39,16.39l52.42,82C234.07,536,236,537.46,241.74,534.16Z"/><path class="cls-3" d="M59.81,534.2,66.58,536c6.39,1.65,6.54-2.24,8.19-8.63,17.59-36.08,32.82-67,29.94-91a12,12,0,0,0-8.62-14.62L89.31,420a12,12,0,0,0-14.62,8.62L52.77,523.32C51.12,529.71,53.42,532.55,59.81,534.2Z"/><path class="cls-4" d="M183.77,37.32c6.11,11.9,6.89,23.33,4.35,24.63s-13,8.64-11.35-4.63c1.87-15.33-8.54-36-9-36C164.92,21.26,177.66,25.41,183.77,37.32Z"/><path class="cls-4" d="M187,82.51c-2.89,17.15-9.62,29.9-12.43,29.43S174,97.41,174.67,80c1.18-32.67,5.51-48.81,10.31-30.21A72.86,72.86,0,0,1,187,82.51Z"/></svg>
