<svg id="Layer_1" data-name="Layer 1" xmlns="http://www.w3.org/2000/svg" width="260" height="580" viewBox="0 0 260 580"><defs><style>.cls-1{fill:#db1620;}.cls-2{fill:#99ada1;}.cls-3{fill:#160d06;}.cls-4{fill:#f2c098;}.cls-5{fill:#c69c6d;}.cls-6{fill:#c12755;}.cls-7{fill:#1a1a1a;}.cls-8{fill:#eaa2a7;}.cls-8,.cls-9{stroke:#c55e48;stroke-width:0.5px;}.cls-10,.cls-8,.cls-9{stroke-miterlimit:10;}.cls-9{fill:#fff;}.cls-10{fill:none;stroke:#c1272d;stroke-linecap:round;stroke-width:2px;}.cls-11{fill:#a56059;}.cls-12{fill:#742d1b;}</style></defs><title>kvindeloeber</title><path class="cls-1" d="M6.07,201.78h0c4.54,4,10.8,4.48,13.9,1l60.94-51.31c3.65-4.11-.55-24.12-5.09-28.15h0c-4.54-4-10.79-4.48-13.9-1L3.47,188.1C.36,191.59,1.53,197.75,6.07,201.78Z"/><path class="cls-2" d="M182.31,435l-17.92,6.21c-5.38,1.86-6.55-1.22-7.87-5L108.46,321.86c-1.24-3.59,15.51-10.55,16.35-10.84l13.44-4.64c.34-.12,16.5-3.71,18.25,1.42L186,426.65C187.33,430.46,187.69,433.17,182.31,435Z"/><path class="cls-2" d="M81.27,443.28l-18.73-2.95c-5.62-.89-5.14-4.61-4.42-9.14L72.18,290.57c.67-4.27,18.76-2.68,19.64-2.54l14,2.22c.35.06,16.27,4.75,15.28,10.86L88.63,436.7C87.91,441.23,86.89,444.16,81.27,443.28Z"/><ellipse class="cls-2" cx="78.25" cy="322.69" rx="34.51" ry="20" transform="translate(-252.69 349.75) rotate(-81.04)"/><path class="cls-3" d="M140.73,122.32l-71,3c-6.48.22,5-20.94,5-21,2.87-10.84-2-32-3-55,0-20.53,18.8-37.95,39.32-37.95h0a41.4,41.4,0,0,1,41.28,41.28c-4.67,22.61-3.6,40.67,0,51.49C157.45,119.61,149.26,129.52,140.73,122.32Z"/><path class="cls-1" d="M156.73,197.5c4.21,0,19-15.06,8.54-28.26-4.15-5.24-5.84-11.58-6.87-15,.49-8-1.17-16.62-.67-24.54,0-5.58-2.69-9.47-8.61-9.47a587.2,587.2,0,0,1-78,0c-5.92,0-10.35,1-10.35,5.7,19.22,58.35,18.7,124.13-.41,178.38a10.66,10.66,0,0,0,10.76,11h78c5.92,0,10.77-4.56,10.77-10.14C151.63,283.37,156.34,197.5,156.73,197.5Z"/><rect class="cls-4" x="95.22" y="100.28" width="28.68" height="28.68" rx="10.5" ry="10.5"/><path class="cls-5" d="M141.43,65.75c0,24-1.85,46.07-19.7,45.57-15.56-.45-38.71-4.6-45-45.57-4-25.85,28.62-43.7,32.34-43.56C126.93,22.88,141.43,41.69,141.43,65.75Z"/><path class="cls-4" d="M139.73,66.27c-.21,22.79-3.61,46.24-23,42.05-10.7-2.32-27.55-6.12-38-42-8.7-29.9,16-41.95,31-44.95C134.63,16.33,140,36.08,139.73,66.27Z"/><path class="cls-6" d="M127.26,77.29l-.19.07v-.07"/><circle class="cls-7" cx="127.42" cy="59.09" r="3.31"/><circle class="cls-7" cx="101.42" cy="60.09" r="3.31"/><path class="cls-7" d="M107.66,51.29c-1.62,3-6.78-.18-9.78,2.63a1.66,1.66,0,0,1-2.19.17h0c-1.06-.6-1.26-1.44-.5-1.84,4.37-3.64,11,1.1,13.35-2.7.37-.56.4-.67.15,0h0A4,4,0,0,1,107.66,51.29Z"/><path class="cls-7" d="M120.87,51.1c1.62,3,6.77-.18,9.77,2.63a1.68,1.68,0,0,0,2.2.16h0c1.06-.59,1.26-1.43.5-1.83-4.23-3.52-11.24.78-13.36-2.7-.37-.57-.39-.68-.14,0h0A4.08,4.08,0,0,0,120.87,51.1Z"/><path class="cls-1" d="M181.82,265.11h0c5-3.51,6.8-9.5,4.1-13.32L135.08,180c-3.18-4.48-9-4.06-13.92-.55h0c-5,3.5-7.51,12.53-4.81,16.34l57,66.36C176,265.93,176.86,268.62,181.82,265.11Z"/><path class="cls-5" d="M119.55,75.57c.63-3.89,1-3.86.9-6.08.06-2.52-1-2.12-2.14-1.78s-2.19.65-2.25-1.72c-.19-2,1-5,.83-7.11.27,0-.07,4.78.37,6.18.33,1.68,1.64.81,2.7.53s1.92,0,1.57,3.23C121.31,71.75,119.84,75.51,119.55,75.57Z"/><path class="cls-5" d="M106.51,78.37c.3,1.44-.67,1.64-1.86,1.93-1,.23-1.89.48-2,1.94s.62,1.77.45,3.13a7.73,7.73,0,0,0,.58-3c0-1.31,1.1-1.3,2.34-1.4.85-.07,1.41-.62,1.37-2.58s-.63-1.27-.62-1.89C106.62,76.63,106.25,77.16,106.51,78.37Z"/><path class="cls-3" d="M112.87,17.75c15.15-2.57,29.07,20.93,27.86,24.57-.9,2.7.36-4.93-11.53-11.06-13.73-7.08-36.72-4.49-36.89-4.06C91.27,29.85,99.68,20,112.87,17.75Z"/><path class="cls-8" d="M128.73,82.32c-2.95-2.44-7.34-2.79-9.58-.81-2.54-2-7.47-1.63-10.42.81-2.36,1.94-.51,9.46,4,12,4.16,2.33,7.84,2.74,10,2.31a5.1,5.1,0,0,0,3-1.31C129.51,91.78,131.09,84.26,128.73,82.32Z"/><path class="cls-9" d="M128,85.58c-.54,2.94-2,6.94-7.48,6.94-4.77,0-9-3.65-10.62-7.09l-.06-.11H128"/><path class="cls-10" d="M125.73,165.32c17.35,17.18,11.47,38.47-7,37"/><path class="cls-1" d="M59.57,275h0c5.36-2.84,8-8.55,5.77-12.68l-41.2-77.76c-2.58-4.86-8.37-5.18-13.74-2.34h0c-5.36,2.85-9,11.47-6.86,15.6l48,73.12C53.72,275,54.2,277.81,59.57,275Z"/><path class="cls-11" d="M248.64,548.53l-38,10.51c-6.78,1.88-13.7-1.58-15.39-7.68l-.06-.21a10.35,10.35,0,0,1,9.65-13.07l37-10.83c6.38-3.31,14.33.47,16,6.57l.05.21C259.58,540.13,255.42,546.66,248.64,548.53Z"/><rect class="cls-12" x="199.23" y="548.57" width="55.88" height="1.14" rx="0.5" ry="0.5" transform="translate(-138.18 80.44) rotate(-15.46)"/><rect class="cls-4" x="193.83" y="527.41" width="16.72" height="18.25" rx="5.57" ry="5.57" transform="translate(-135.73 73.32) rotate(-15.46)"/><path class="cls-4" d="M242.72,534.79l-34.07,9.42a2.27,2.27,0,0,1-2.8-1.59l-.92-3.3c-.33-1.21-.83-6.86.38-7.2l35.28-5a2.29,2.29,0,0,1,2.81,1.59l.91,3.3A2.29,2.29,0,0,1,242.72,534.79Z"/><path class="cls-11" d="M45.44,573.88,11,554.73C4.82,551.32,2.31,544,5.38,538.46l.11-.19a10.34,10.34,0,0,1,16-2.55l34,18.2c6.88,2.11,9.89,10.38,6.82,15.91l-.11.2C59.13,575.56,51.58,577.29,45.44,573.88Z"/><rect class="cls-12" x="1.76" y="558.7" width="55.88" height="1.14" rx="0.5" ry="0.5" transform="translate(275.29 55.93) rotate(29.05)"/><rect class="cls-4" x="12.36" y="523.63" width="16.72" height="18.25" rx="5.57" ry="5.57" transform="translate(261.29 56.96) rotate(29.05)"/><path class="cls-4" d="M50.85,559.93,20,542.76a2.28,2.28,0,0,1-.89-3.1l1.66-3c.61-1.1,4.22-5.48,5.32-4.87L54.73,553a2.29,2.29,0,0,1,.88,3.1L54,559A2.28,2.28,0,0,1,50.85,559.93Z"/><rect class="cls-4" x="182.76" y="250.96" width="20.24" height="36.53" rx="8" ry="8" transform="translate(-128.52 189.3) rotate(-40.42)"/><rect class="cls-4" x="59.76" y="261.96" width="20.24" height="36.53" rx="8" ry="8" transform="translate(-165 112.18) rotate(-40.42)"/><path class="cls-2" d="M20.76,534.16l-6.06-3.5c-5.72-3.3-5.27-5.63-2-11.34C25.45,481.25,38.41,448,57.31,432.86a12,12,0,0,1,16.39-4.39l6.06,3.5a12,12,0,0,1,4.39,16.39l-52.42,82C28.43,536,26.48,537.46,20.76,534.16Z"/><path class="cls-2" d="M202.7,534.2,195.92,536c-6.39,1.65-6.54-2.24-8.19-8.63-17.59-36.08-32.82-67-29.94-91a12,12,0,0,1,8.62-14.62l6.78-1.75a12,12,0,0,1,14.62,8.62l21.92,94.75C211.38,529.71,209.09,532.55,202.7,534.2Z"/><path class="cls-3" d="M78.73,37.32c-6.1,11.9-6.89,23.33-4.35,24.63s13,8.64,11.35-4.63c-1.87-15.33,8.54-36,9-36C97.58,21.26,84.84,25.41,78.73,37.32Z"/><path class="cls-3" d="M75.55,82.51c2.88,17.15,9.61,29.9,12.42,29.43s.49-14.53-.14-31.91c-1.18-32.67-5.51-48.81-10.31-30.21A72.77,72.77,0,0,0,75.55,82.51Z"/></svg>
