<svg id="Layer_1" data-name="Layer 1" xmlns="http://www.w3.org/2000/svg" width="460" height="160" viewBox="0 0 460 160"><defs><style>.cls-1{fill:#b3b3b3;}.cls-2{fill:#fff;}</style></defs><title>maga</title><rect class="cls-1" x="2.43" y="19.96" width="455.15" height="136.98" rx="59.87" ry="59.87"/><path d="M402.19,157.81H57.81c-31,0-56.31-23.82-56.31-53.11V72.19c0-29.28,25.26-53.1,56.31-53.1H402.19c31.05,0,56.31,23.82,56.31,53.1V104.7C458.5,134,433.24,157.81,402.19,157.81ZM57.81,20.83c-30,0-54.46,23-54.46,51.36V104.7c0,28.33,24.43,51.37,54.46,51.37H402.19c30,0,54.46-23,54.46-51.37V72.19c0-28.32-24.43-51.36-54.46-51.36Z"/><rect class="cls-2" x="2.43" y="2.51" width="455.15" height="136.98" rx="59.87" ry="59.87"/><path d="M402.19,140.36H57.81c-31,0-56.31-23.82-56.31-53.11V54.75C1.5,25.46,26.76,1.64,57.81,1.64H402.19c31.05,0,56.31,23.82,56.31,53.11v32.5C458.5,116.54,433.24,140.36,402.19,140.36ZM57.81,3.38c-30,0-54.46,23-54.46,51.37v32.5c0,28.33,24.43,51.37,54.46,51.37H402.19c30,0,54.46-23,54.46-51.37V54.75c0-28.33-24.43-51.37-54.46-51.37Z"/><path d="M70,26V24H88.44l2.72,13.34h.93L95.49,24h13.22V26h-2.17V56.23h2.17v2.05H95.2l5.47-31h-2L90.81,58.28H84.4L78,27.23H76l4,31.05H70V56.23h2.17V26Z"/><path d="M115,37.81l-1.19-8.42A40,40,0,0,1,125,27.77c4.24,0,7.32.7,9.22,2.11a6.2,6.2,0,0,1,2,2.35,7.94,7.94,0,0,1,.78,3.64V56.23h2v2.05h-6.07l-2-4.1h-.64c-.66,2.08-1.46,3.43-2.42,4a7.49,7.49,0,0,1-4,.89c-1.7,0-2.84,0-3.43-.05s-1.4-.13-2.42-.27a5.67,5.67,0,0,1-2.36-.79,11.1,11.1,0,0,1-1.78-1.54q-1.72-1.77-1.72-6.26c0-3.74,1.06-6.23,3.2-7.45a10.55,10.55,0,0,1,3.23-1.16,22.91,22.91,0,0,1,4-.3h5V31.82H122l-1.33,6Zm12.62,16.37V45.32h-6.76v8.86Z"/><path d="M154.46,58.28H143.12V56.23h2V21h-2V18.91h12.67V27l-.94.38a2.45,2.45,0,0,0-1.06.62,1.7,1.7,0,0,0-.22,1v9.93h.89q1.62-6,3.59-8.42a6.54,6.54,0,0,1,5.28-2.38,23.33,23.33,0,0,1,5.13.44l-1,8.47h-6v2.87a1.63,1.63,0,0,0,.24,1,1.5,1.5,0,0,0,1.24.43h4.19l3.25,15h1.92v2.05H160.42l-2.37-14.47h-3.59Z"/><path d="M185.37,55h6.16l1.28-6h5.27l1.14,8.42a41.39,41.39,0,0,1-11.09,1.62c-1.35,0-2.5,0-3.45-.13a13.9,13.9,0,0,1-3.21-.76,7.24,7.24,0,0,1-2.86-1.73,9,9,0,0,1-1.85-3.18,14.39,14.39,0,0,1-.76-4.95v-7q0-6.75,2-9.55a12.5,12.5,0,0,1,1.31-1.68A4.86,4.86,0,0,1,181,29c.72-.31,1.33-.54,1.82-.71a10.27,10.27,0,0,1,2.12-.35c1.38-.11,2.73-.16,4-.16s2.24,0,2.77,0,1.23.08,2.12.19a6.55,6.55,0,0,1,2,.48,11.93,11.93,0,0,1,1.58,1A4,4,0,0,1,198.75,31a11.91,11.91,0,0,1,.74,2.35,17.38,17.38,0,0,1,0,6.64,11.7,11.7,0,0,1-.74,2.35,4,4,0,0,1-1.33,1.57,11.93,11.93,0,0,1-1.58,1,6.55,6.55,0,0,1-2,.48,37,37,0,0,1-4.49.22h-4Zm0-23.22v9.72h6.75V31.82Z"/><path d="M217.61,26V24h22.28l4.54,32.24h2.07v2.05H214.35V56.23h2L220.66,26Zm7.64,1.19v20h6l-1.62-20Zm0,31.05h6.95l-.69-8.1h-6.26Z"/><path d="M259.07,32.68v25.6H247.73V56.23h2V30.63h-2V28.58h6.55l1.73,4.1h.64a6.48,6.48,0,0,1,2.93-4,12.57,12.57,0,0,1,5.45-.95c3.58,0,6,.92,7.3,2.75a5.15,5.15,0,0,1,2.78-2.21,15.6,15.6,0,0,1,4.56-.54q4.79,0,7.23,1.81c1.62,1.21,2.44,3.3,2.44,6.29V56.23h2v2.05H280V32.68H274.2v25.6h-9.37V32.68Z"/><path d="M305.85,55H312l1.29-6h5.27l1.13,8.42a41.27,41.27,0,0,1-11.09,1.62c-1.35,0-2.5,0-3.45-.13a14,14,0,0,1-3.2-.76,7.17,7.17,0,0,1-2.86-1.73,8.84,8.84,0,0,1-1.85-3.18,14.38,14.38,0,0,1-.77-4.95v-7q0-6.75,2-9.55a12.51,12.51,0,0,1,1.3-1.68,5,5,0,0,1,1.7-1.1c.73-.31,1.33-.54,1.83-.71a10.15,10.15,0,0,1,2.12-.35c1.38-.11,2.73-.16,4-.16s2.24,0,2.76,0,1.23.08,2.12.19a6.62,6.62,0,0,1,2,.48,12.61,12.61,0,0,1,1.58,1A4,4,0,0,1,319.24,31a12.62,12.62,0,0,1,.74,2.35A17.38,17.38,0,0,1,320,40a12.38,12.38,0,0,1-.74,2.35,4,4,0,0,1-1.33,1.57,12.61,12.61,0,0,1-1.58,1,6.62,6.62,0,0,1-2,.48,36.92,36.92,0,0,1-4.49.22h-4Zm0-23.22v9.72h6.76V31.82Z"/><path d="M325.23,28.58h6l1,4.1h.39a7.86,7.86,0,0,1,2.19-3.8,4.82,4.82,0,0,1,3.14-1.11,18.68,18.68,0,0,1,3.45.32l-1,8.91h-7v2.87a1.56,1.56,0,0,0,.25,1,1.49,1.49,0,0,0,1.23.43h1.77v15h4v2.05H325.23V56.23h2V30.63h-2Z"/><path d="M358.06,58.28H344.75V56.23h2V30.63h-2V28.58h11.34V56.23h2Zm-2.42-40.55c.59.5.89,1.74.89,3.72s-.3,3.22-.89,3.73-2,.75-4.14.75-3.59-.25-4.26-.75-1-1.75-1-3.73.33-3.22,1-3.72,2.09-.76,4.26-.76S355.05,17.22,355.64,17.73Z"/><path d="M376.52,59.09a29.61,29.61,0,0,1-6.43-.38c-.73-.25-1.44-.53-2.15-.83a4.53,4.53,0,0,1-1.62-1.11,15.86,15.86,0,0,1-1.26-1.68,7.52,7.52,0,0,1-1-2.37,32,32,0,0,1-.79-7.18V41.32a27.1,27.1,0,0,1,.57-6.15,11,11,0,0,1,1.26-3.4,15.86,15.86,0,0,1,1.26-1.68,4.39,4.39,0,0,1,1.62-1.1c.71-.31,1.29-.54,1.75-.71a9.14,9.14,0,0,1,2-.35c1.35-.11,2.8-.16,4.34-.16a32.67,32.67,0,0,1,9.86,1.62l-1.18,8.42h-5.67l-1.33-6.53H372.6v24.3h5.13l1.33-6.53h5.67l1.18,8.42A25.09,25.09,0,0,1,376.52,59.09Z"/><path d="M392.42,37.81l-1.18-8.42a39.85,39.85,0,0,1,11.19-1.62q6.36,0,9.22,2.11a6.18,6.18,0,0,1,2,2.35,7.94,7.94,0,0,1,.79,3.64V56.23h2v2.05h-6.07l-2-4.1h-.64c-.66,2.08-1.46,3.43-2.41,4a7.56,7.56,0,0,1-4,.89c-1.7,0-2.84,0-3.43-.05s-1.4-.13-2.41-.27a5.72,5.72,0,0,1-2.37-.79,11.1,11.1,0,0,1-1.78-1.54q-1.72-1.77-1.72-6.26c0-3.74,1.07-6.23,3.2-7.45A10.64,10.64,0,0,1,396,41.57a22.91,22.91,0,0,1,4-.3h5V31.82h-5.62l-1.33,6ZM405,54.18V45.32h-6.75v8.86Z"/><path d="M87.14,122.92a7.89,7.89,0,0,1-3.9,1q-2.14,0-2.91,0c-.51,0-1.21-.06-2.12-.13a7.9,7.9,0,0,1-2.07-.38q-.7-.27-1.8-.78a4.53,4.53,0,0,1-1.65-1.24c-.38-.49-.8-1.11-1.28-1.87a8.35,8.35,0,0,1-1.06-2.64,34.47,34.47,0,0,1-.84-7.89v-6.05A33.12,33.12,0,0,1,70.4,95,11.06,11.06,0,0,1,73,90.57a9.09,9.09,0,0,1,3.75-2A19,19,0,0,1,82.18,88c2.6,0,4.42,0,5.45.14a21.1,21.1,0,0,1,3.3.56A7.26,7.26,0,0,1,93.77,90a9.36,9.36,0,0,1,2,2.32c1.22,1.84,1.82,4.75,1.82,8.75v1H87V91.81h-6.9V119H87v-9.67H83.56v-3h14v16.74H91.94L90.51,119H90A7,7,0,0,1,87.14,122.92Z"/><path d="M101.56,93.38h6l1,4.1h.39a7.74,7.74,0,0,1,2.2-3.8,4.78,4.78,0,0,1,3.13-1.11,18.68,18.68,0,0,1,3.45.32l-1,8.91h-7v2.87a1.56,1.56,0,0,0,.25,1,1.49,1.49,0,0,0,1.23.43h1.78v15h4v2H101.56v-2h2V95.43h-2Z"/><path d="M131.19,119.84h6.16l1.28-6h5.28l1.13,8.42A41.39,41.39,0,0,1,134,123.89c-1.35,0-2.5,0-3.45-.13a13.9,13.9,0,0,1-3.21-.76,7.24,7.24,0,0,1-2.86-1.73,9,9,0,0,1-1.85-3.18,14.39,14.39,0,0,1-.76-5v-7q0-6.75,2-9.55a12.5,12.5,0,0,1,1.31-1.68,5,5,0,0,1,1.7-1.1c.72-.31,1.33-.54,1.82-.71a9.63,9.63,0,0,1,2.12-.35c1.38-.11,2.73-.16,4-.16s2.23,0,2.76,0,1.23.08,2.12.19a6.55,6.55,0,0,1,2,.48,11.93,11.93,0,0,1,1.58,1,4,4,0,0,1,1.33,1.57,11.91,11.91,0,0,1,.74,2.35,17.38,17.38,0,0,1,0,6.64,11.7,11.7,0,0,1-.74,2.35,4,4,0,0,1-1.33,1.57,11.93,11.93,0,0,1-1.58,1,6.55,6.55,0,0,1-2,.48,37,37,0,0,1-4.49.22h-4Zm0-23.22v9.72h6.75V96.62Z"/><path d="M152.88,102.61l-1.19-8.42a40,40,0,0,1,11.2-1.62c4.23,0,7.31.7,9.21,2.11a6.2,6.2,0,0,1,2,2.35,7.94,7.94,0,0,1,.78,3.64V121h2v2h-6.07l-2-4.1h-.64c-.66,2.08-1.46,3.43-2.42,4a7.49,7.49,0,0,1-4,.89c-1.7,0-2.84,0-3.43,0s-1.4-.13-2.42-.27a5.67,5.67,0,0,1-2.36-.79,11.1,11.1,0,0,1-1.78-1.54q-1.72-1.77-1.72-6.26c0-3.74,1.06-6.23,3.2-7.45a10.55,10.55,0,0,1,3.23-1.16,22.91,22.91,0,0,1,4-.3h5V96.62h-5.62l-1.33,6ZM165.5,119v-8.86h-6.76V119Z"/><path d="M181,93.38h2.46L188.82,87h3.55v6.37h5.17V96h-5.17v24.41h2.81V115h2.36v4c0,1.91-.58,3.2-1.75,3.88a10.67,10.67,0,0,1-5.3,1c-.92,0-1.62,0-2.12,0a7.14,7.14,0,0,1-1.92-.52,3.87,3.87,0,0,1-1.82-1.32q-1.63-2.27-1.63-7V96h-2Z"/><path d="M213.61,90.84v-2H235.9L240.43,121h2.07v2H210.36v-2h2l4.29-30.19ZM221.25,92v20h6l-1.63-20Zm0,31.05h7l-.69-8.1h-6.27Z"/><path d="M244.62,131.83a4.86,4.86,0,0,1-1.72-2.51,18.67,18.67,0,0,1-.4-4.59,8.19,8.19,0,0,1,1.23-4.86,3.42,3.42,0,0,1,2.72-1.7h3.69v-.71c-1.67-.36-2.51-1.49-2.51-3.4v-3.35c-2.86-1-4.29-3.51-4.29-7.39v-1.14q0-4.8,1.58-6.75A9.86,9.86,0,0,1,246,94.22a4,4,0,0,1,1.41-.79c.61-.21,1.11-.37,1.53-.48a11,11,0,0,1,1.75-.27c.75-.07,1.34-.11,1.77-.11h2a10.49,10.49,0,0,1,5,.92,3.64,3.64,0,0,1,1.6,3.45h.64l.49-2.21a7.14,7.14,0,0,1,1.33-3.24,4,4,0,0,1,2.91-.81h2.17v4.81H268c-.63,0-.94.5-.94,1.51v6.32a9.67,9.67,0,0,1-1.33,5.18,6.17,6.17,0,0,1-3.45,2.38q-1.68.59-7.69.59h-1.78v1.3a5.64,5.64,0,0,0,.35,2.35,1.34,1.34,0,0,0,1.33.67h7.35a6.53,6.53,0,0,1,4.56,1.92q2,1.92,2,6.34c0,3.75-.9,6.27-2.71,7.59s-5.36,2-10.65,2a50.7,50.7,0,0,1-6.7-.35A7.72,7.72,0,0,1,244.62,131.83Zm16.76-9.29H249.45v5.67h11.93ZM258.62,107V96.94h-6.75V107Z"/><path d="M275.33,102.61l-1.18-8.42a40,40,0,0,1,11.19-1.62c4.24,0,7.32.7,9.22,2.11a6.09,6.09,0,0,1,2,2.35,7.82,7.82,0,0,1,.79,3.64V121h2v2h-6.06l-2-4.1h-.64c-.66,2.08-1.47,3.43-2.42,4a7.51,7.51,0,0,1-4,.89c-1.69,0-2.83,0-3.42,0s-1.4-.13-2.42-.27a5.72,5.72,0,0,1-2.37-.79,11.07,11.07,0,0,1-1.77-1.54q-1.72-1.77-1.73-6.26c0-3.74,1.07-6.23,3.21-7.45a10.55,10.55,0,0,1,3.23-1.16,22.91,22.91,0,0,1,4-.3h5V96.62h-5.62l-1.34,6ZM288,119v-8.86H281.2V119Z"/><path d="M317,123.08H303.73v-2h2V95.43h-2V93.38h11.34V121h2Zm-2.41-40.55c.59.5.88,1.74.88,3.72s-.29,3.22-.88,3.73-2,.75-4.14.75-3.6-.25-4.27-.75-1-1.75-1-3.73.34-3.22,1-3.72,2.1-.76,4.27-.76S314,82,314.63,82.53Z"/><path d="M351.4,123.08H340.06V97.48h-7.24v25.6H321.48v-2h2V95.43h-2V93.38H328l1.72,4.1h.64a6.26,6.26,0,0,1,3.13-4,16.85,16.85,0,0,1,6.53-1A11.49,11.49,0,0,1,347,94.38c1.64,1.21,2.46,3.3,2.46,6.29V121h2Z"/><path d="M356.73,88.79H368v14.58l-1.48,7.13h-8.33l-1.48-7.13Zm5.72,26.14c2.16,0,3.55.26,4.14.78s.88,1.76.88,3.73-.3,3.19-.91,3.69-2,.76-4.16.76-3.59-.25-4.24-.76-1-1.73-1-3.69.34-3.21,1-3.73S360.28,114.93,362.45,114.93Z"/></svg>
