<svg id="Layer_1" data-name="Layer 1" xmlns="http://www.w3.org/2000/svg" width="588" height="710" viewBox="0 0 588 710"><defs><style>.cls-1{fill:#f1f2ed;}.cls-2{fill:#f4b0a7;}.cls-3{fill:#998675;}.cls-4{fill:#e6e6e6;}.cls-5{fill:#eaa2a7;}.cls-6{fill:gray;}.cls-7{fill:#99ada1;}</style></defs><title>offwhitekat</title><rect class="cls-1" x="226" y="531" width="56" height="149" rx="28" ry="28" transform="translate(-121.13 66.59) rotate(-12.08)"/><rect class="cls-1" x="400" y="531" width="56" height="149" rx="28" ry="28" transform="translate(148.55 -81.32) rotate(13.11)"/><path class="cls-1" d="M571.11,44A36.81,36.81,0,0,0,535.38,6.33h0C505,5.52,493,32,487,66c-11.91,52.39-16.55,130.15-18.17,218.43C439.18,270.76,401.77,263,355.6,263,207.26,263,87,343.14,87,442c0,40.86,20.63,76,55.28,103.07A28.4,28.4,0,0,0,142,549V670a28.08,28.08,0,0,0,28,28h11a28.08,28.08,0,0,0,28-28V581.42C251.28,597.29,301.79,606,356,606c48.2,0,86.82-6.88,117-19.56v65.19A39.48,39.48,0,0,0,512.37,691h1A37.74,37.74,0,0,0,551,653.37V508.45c7.49-19.79,11-42.1,11-66.45a219.5,219.5,0,0,0-4.8-46.68C550.81,256.14,549.93,127.24,571.11,44Z"/><path class="cls-1" d="M310.87,281.54A114.08,114.08,0,0,0,291.36,238c6.83-24.87-9.42-58.21-23.29-87-22.64,2.09-40.55,15.23-60.63,35.38A161.7,161.7,0,0,0,90.68,208.49c-28.13-10.58-55.62-16-77.66-8.2-.62,33-1.52,71.41,16.74,90.63a114.56,114.56,0,0,0-.69,50.95c14.74,68.85,89.77,111.16,167.59,94.5S325.62,350.39,310.87,281.54Z"/><path class="cls-2" d="M36.89,251.82c-5.77-7.17-11.1-37.32-10.76-35.44a3.94,3.94,0,0,1,4.67-5c13.68.26,25.88,2.79,36.07,8.41a3.94,3.94,0,0,1,2,6.53c-11.08,6.16-19.25,15.46-25.32,27A4,4,0,0,1,36.89,251.82Z"/><path class="cls-2" d="M225.21,195.08c5.08-7.67,32.17-21.91,30.49-21a3.94,3.94,0,0,1,6.17,2.93c3.91,13.11,5.21,25.5,3,36.92a3.94,3.94,0,0,1-5.62,3.87c-9.23-8.67-20.58-13.63-33.46-15.89A3.94,3.94,0,0,1,225.21,195.08Z"/><path class="cls-3" d="M98.27,317.68c3.94,9.76,15,10.36,26.14,5.86s18.22-12.39,14.28-22.16-16.33-11.17-27.49-6.67S94.34,307.91,98.27,317.68Z"/><circle class="cls-4" cx="115.51" cy="310.2" r="3.24"/><circle class="cls-4" cx="112.25" cy="303.83" r="2.59"/><circle class="cls-4" cx="108.05" cy="309.01" r="1.94"/><path class="cls-3" d="M189.56,286.11c.08,9.81,8.81,14,20,13.86s20.64-4.4,20.56-14.2-9.17-14.41-20.38-14.32S189.47,276.3,189.56,286.11Z"/><circle class="cls-4" cx="209.87" cy="290.6" r="3.62"/><circle class="cls-4" cx="209.08" cy="282.64" r="2.9"/><circle class="cls-4" cx="202.58" cy="286.32" r="2.17"/><path class="cls-5" d="M193.33,357.94c3.73,5.78-.46,17-4.19,18.3-4.67,1.68-15.37-4.59-13.13-13.41,2.16-8.5,4-15.83,4-17.83C180,342.69,188.16,349.91,193.33,357.94Z"/><path class="cls-6" d="M167.08,432.93a196,196,0,0,1-20.18-1.07,2.5,2.5,0,1,1,.52-5c26.54,2.74,49.78.12,69.06-7.8s35.05-21.26,47.14-39.77a2.5,2.5,0,0,1,4.18,2.74C245.71,415.87,211.88,432.93,167.08,432.93Z"/><path class="cls-6" d="M136.5,382a1.5,1.5,0,0,1-.25-3c18.14-3.06,31.41-6.8,37.24-15.14,3.88-5.54,4.71-13.36,2.63-24.62a1.5,1.5,0,1,1,2.95-.54c2.24,12.1,1.24,20.64-3.12,26.88-6.43,9.19-20.32,13.2-39.2,16.38Z"/><path class="cls-6" d="M208.08,361.76a37,37,0,0,1-5.73-.42c-11.18-1.71-19.25-8.67-25.4-21.89a1.5,1.5,0,0,1,2.72-1.27C191.19,363,208,362.41,239,352.08a1.5,1.5,0,0,1,.94,2.84C229.13,358.53,217.91,361.76,208.08,361.76Z"/><path class="cls-2" d="M173.43,340.47l-7.86-7.65a4.71,4.71,0,0,1,2-7.91l10.56-3a4.71,4.71,0,0,1,5.85,5.69l-2.7,10.64A4.72,4.72,0,0,1,173.43,340.47Z"/><circle class="cls-7" cx="139.5" cy="348.5" r="1.5"/><circle class="cls-7" cx="155.5" cy="348.5" r="1.5"/><circle class="cls-7" cx="149.5" cy="359.5" r="1.5"/><circle class="cls-7" cx="216.76" cy="348.72" r="1.5"/><circle class="cls-7" cx="202.83" cy="340.85" r="1.5"/><circle class="cls-7" cx="213.46" cy="334.23" r="1.5"/></svg>
