<svg id="Layer_1" data-name="Layer 1" xmlns="http://www.w3.org/2000/svg" width="300" height="350" viewBox="0 0 300 350"><defs><style>.cls-1{fill:#1a1a1a;}.cls-2{fill:#333;}.cls-3{fill:#4d4d4d;}.cls-4{fill:#fcee6a;}.cls-5{fill:#fcee52;}</style></defs><title>phone</title><rect class="cls-1" x="18.5" y="29" width="279" height="316" rx="12" ry="12"/><rect class="cls-2" x="2.5" y="5" width="279" height="316" rx="12" ry="12"/><path class="cls-1" d="M106.5,163c0,77.6,1,140-28.5,140S24.5,240.1,24.5,162.5,48.45,22,78,22,106.5,85.4,106.5,163Z"/><path class="cls-1" d="M94.67,219.82C114.91,228,119.5,256,114.5,277c-4,17-17,29-39,26-21.62-2.95-31-33-34.65-55.24C36.75,222.69,74.43,211.68,94.67,219.82Z"/><path class="cls-1" d="M101.67,105.81c20.24-8.14,24.83-36.17,19.83-57.17-4-17-17-29-39-26-21.62,2.94-31,33-34.65,55.24C43.75,103,81.43,114,101.67,105.81Z"/><rect class="cls-3" x="229.5" y="29" width="34" height="34" rx="12" ry="12"/><rect class="cls-3" x="185.5" y="29" width="34" height="34" rx="12" ry="12"/><rect class="cls-3" x="140.5" y="29" width="34" height="34" rx="12" ry="12"/><rect class="cls-3" x="140.5" y="74" width="34" height="34" rx="12" ry="12"/><rect class="cls-3" x="185.5" y="74" width="34" height="34" rx="12" ry="12"/><rect class="cls-3" x="229.5" y="74" width="34" height="34" rx="12" ry="12"/><rect class="cls-3" x="229.5" y="119" width="34" height="34" rx="12" ry="12"/><rect class="cls-3" x="185.5" y="119" width="34" height="34" rx="12" ry="12"/><rect class="cls-3" x="140.5" y="119" width="34" height="34" rx="12" ry="12"/><path class="cls-4" d="M275.5,303h-110c-12-32.17-21.31-67.45-9-107h107C254.05,236,267.07,271.16,275.5,303Z"/><path class="cls-5" d="M260.5,217h-107c-.91-4.12.76-12.13,3-21h107C261.31,205.36,260.3,212.38,260.5,217Z"/><path d="M166,231a.08.08,0,0,1,0,.07.07.07,0,0,1,0,.06l0,0-.07,0h-.15a.09.09,0,0,0-.06,0l0,0a.14.14,0,0,1,0-.07.08.08,0,0,1,0-.06v-7.71c0-1.07,0-2.14,0-3.2v-3.29l0-.06,0-.06.06,0h.13l.06,0a.05.05,0,0,1,0,.06l0,.06v.07c0,1.06,0,2.13,0,3.2v8.37c0,.24,0,.49,0,.74V231Zm1.17-6.46a15.68,15.68,0,0,0,1.73.89c.6.25,1.2.47,1.81.68l.62.17.6.16.41.1a2.35,2.35,0,0,1,.43.13,4.69,4.69,0,0,1,.45.18,3.82,3.82,0,0,1,.46.21,6.46,6.46,0,0,1,1.27,1,5.59,5.59,0,0,1,.94,1.26,3.93,3.93,0,0,1,.31.7c.1.23.18.47.27.72l0,0v0a.08.08,0,0,1,0,.06l0,.06,0,0s0,0-.07,0h-.13s-.05,0-.06,0l0,0a.39.39,0,0,1,0-.06c-.08-.23-.17-.46-.26-.68a5.24,5.24,0,0,0-.29-.64,5.09,5.09,0,0,0-.87-1.17,5.17,5.17,0,0,0-1.17-.89l-.52-.25a4.72,4.72,0,0,0-.53-.18l-.28-.09s-.08,0-.32-.06l-.63-.16-.6-.19-1-.35-1-.39c-.44-.2-.86-.41-1.27-.64s-.8-.48-1.19-.74a.65.65,0,0,0,0-.11,1,1,0,0,1,0-.1l.84,0s.41,0,1.1-.08l.61,0,.85,0,1.3-.1,1.29-.1.92-.1a2.51,2.51,0,0,0,.9-.25l.21-.12.18-.14a2.8,2.8,0,0,0,.74-1,4.17,4.17,0,0,0,.35-1.21c0-.14,0-.28.05-.41l0-.42a1.27,1.27,0,0,0-.06-.45c-.05-.15-.1-.29-.16-.43a1.85,1.85,0,0,0-.63-.7,4.4,4.4,0,0,0-.8-.49l-.48-.19-.5-.14-.74-.15q-.36-.08-.75-.12c-.52-.07-1.05-.12-1.59-.16s-1.05,0-1.6,0l-1.2,0-1.29.12a.06.06,0,0,1-.06,0l-.07,0a.08.08,0,0,0,0,0l0,0a.29.29,0,0,1,0-.09v-.06l0-.06,0,0,.06,0,.07,0,1.31-.12c.28,0,.68,0,1.21-.07h.41c.41,0,.82,0,1.22.05s1.07.07,1.62.14l.77.12.76.17.52.16c.18.06.36.12.52.19l.44.22c.14.09.28.17.41.27a2.28,2.28,0,0,1,.6.6,2.36,2.36,0,0,1,.38.76c0,.11.05.21.07.31s0,.22,0,.33a10.67,10.67,0,0,1-.24,1.54,3.35,3.35,0,0,1-.68,1.42l-.18.2-.2.19a3.11,3.11,0,0,1-.65.39,2.61,2.61,0,0,1-.75.22l-.52,0-.55.06-1.31.1-1.31.1-1.2.08Z"/><path d="M177.57,218.38l.3,6.44q.12,3.21.27,6.44a.39.39,0,0,1,0,.06.08.08,0,0,1,0,.06s0,0,0,0l-.07.05h-.13s-.05,0-.06-.05-.06,0-.07,0l0-.06s0,0,0-.06l-.28-6.44q-.13-3.23-.26-6.44l0-.78,0-.89v-.08l0,0a.15.15,0,0,1,0-.06s0,0,.06,0,0,0,.06,0,.05,0,.06,0a.08.08,0,0,1,.07,0,229051076341.73,229051076341.73,0,0,0,.08.12v.06l0,.89Zm8.67-1.54,0,0,.05.06a.08.08,0,0,1,0,.06l0,0v0a.25.25,0,0,0,0,.07l0,.06-.06,0-.06,0h-.07l-.06,0-.27-.08-.27,0-.44-.07a3,3,0,0,1-.43,0h-1.36l-1.35.06-2.32.07-2.33,0h-.06s-.05,0-.06-.05l-.05,0a.15.15,0,0,1,0-.06v-.12l0-.06,0,0s0,0,.06-.05h.06c.77,0,1.54,0,2.32,0l2.3-.08,1.37,0,.8,0,.56,0,.74,0a5,5,0,0,1,.75.15l0,0A.11.11,0,0,1,186.24,216.84Zm-.75,6.3.06,0,0,0s0,0,0,0l.05.06v.06a.06.06,0,0,1,0,.06.43.43,0,0,1,0,.07l0,0-.06,0h-.08l-.47-.05-.36,0-1-.08c-.06,0-.44,0-1.14-.06l-.59,0-.55,0-.31,0-.31,0-.65.07h-.63c-.37,0-.66,0-.89,0h-.92a.11.11,0,0,1-.07,0s-.05,0-.06,0l-.05,0,0-.06,0-.06a.28.28,0,0,1,0-.09s0,0,0,0l0-.06.06,0,.07,0h.92c.21,0,.5,0,.86,0a5.93,5.93,0,0,0,.63,0l.63-.06.31,0,.34,0h1.17a4.1,4.1,0,0,0,.49,0l.51.05,1,.08C184.81,223.08,185.15,223.12,185.49,223.14Zm1.94,6.48.06,0,0,0s.05,0,.05.07a.16.16,0,0,1,0,.06v.06a.39.39,0,0,0,0,.06s0,0,0,0l-.06,0s0,0-.06,0h-.07l-.23,0h-.22l-.32,0-.35,0c-.54,0-1.08.12-1.62.2l-1.6.22c-.85.14-1.68.26-2.51.37l-2.52.34h-.08l-.07,0s0,0,0,0a.18.18,0,0,1-.05-.07s0,0,0-.06v-.06l0-.06,0-.06s0,0,.07,0,0,0,.06,0l2.51-.35,2.5-.36,1.61-.22c.54-.08,1.08-.15,1.62-.2a3.86,3.86,0,0,1,.58,0l.25,0,.33,0h.06Z"/><path d="M192.32,221c.38-.35.77-.68,1.17-1s.77-.68,1.16-1l.79-.71.81-.7.59-.54.6-.53.11.06c.17,1.13.35,2.26.53,3.39s.36,2.26.53,3.39c.12.74.23,1.49.34,2.23s.24,1.49.35,2.24c.1.56.19,1.12.27,1.67s.17,1.11.27,1.68a.18.18,0,0,1,0,.06l0,.06,0,0-.06,0h-.13a.14.14,0,0,1-.07,0s-.05,0-.05,0l-.05-.06a.09.09,0,0,1,0-.07c-.08-.55-.16-1.1-.25-1.65s-.18-1.12-.26-1.67c-.12-.75-.24-1.49-.35-2.24s-.24-1.49-.35-2.23c-.16-1-.31-2-.47-3s-.32-2-.47-3l-.35.31-.34.31-.8.71-.82.7-1.29,1.13c-.43.37-.87.75-1.3,1.14-.22-.22-.43-.43-.65-.62l-.66-.62-.87-.83-.86-.83-.66-.64-.63-.66v.79l.05,1c0,.81.06,1.62.12,2.41s.08,1.6.12,2.42c.07,1.19.13,2.39.19,3.6s.11,2.42.17,3.63a.11.11,0,0,1,0,.07s0,0,0,.06l0,0-.07,0-.08,0-.07,0s0,0,0,0l-.07,0a.09.09,0,0,1,0-.07v-.06c-.06-1.21-.12-2.41-.19-3.61s-.11-2.42-.17-3.63c-.05-.79-.09-1.6-.13-2.41l-.12-2.39c0-.45,0-.9,0-1.34l0-1.32.08,0,.1,0c.27.34.57.67.88,1s.64.61,1,.93l.87.82.86.83.28.25a2.89,2.89,0,0,0,.25.24l.23.23Z"/><path d="M199.75,218.39l.83,6.47q.39,3.22.8,6.48a.18.18,0,0,1,0,.06s0,0,0,.06l0,0-.06,0h-.13a.29.29,0,0,1-.08,0l-.07,0a.21.21,0,0,0,0-.06.06.06,0,0,1,0-.07l-.82-6.47q-.4-3.24-.79-6.47l-.1-.79-.11-.88v-.09l0,0a.15.15,0,0,1,0-.06l.06,0s0,0,.06,0a.07.07,0,0,1,.06,0l.06,0a.1.1,0,0,1,0,.06l.05.06v.07l.11.88Zm8.54-1.55,0,0a.31.31,0,0,1,.06.06l0,.07a.05.05,0,0,1,0,0v0s0,0,0,.06l0,.06-.06,0s0,0-.06,0h-.06a.12.12,0,0,1-.07,0l-.28-.08-.27,0-.44-.06-.44,0q-.67,0-1.35,0l-1.35.06-2.32.06-2.32,0h-.06l-.07,0a.1.1,0,0,0,0,0,.43.43,0,0,1,0-.07v-.12a.16.16,0,0,1,0-.06l0,0a.09.09,0,0,1,.06,0h.06l2.32,0,2.28-.09,1.37,0,.8,0,.56,0,.75,0a5.37,5.37,0,0,1,.76.15l0,0Zm-.23,6.34.07,0,.05,0s0,0,0,0l.06.07v.06s0,.05,0,.06a.09.09,0,0,1,0,.06l0,0a.1.1,0,0,1-.06,0h-.09l-.47,0-.36,0-1-.09-1.14-.06-.59,0-.55,0-.31,0-.31,0-.65.06-.62,0c-.37,0-.66,0-.88,0h-.93l-.07,0-.06,0-.05,0a.13.13,0,0,1,0-.07.09.09,0,0,1,0-.06.22.22,0,0,1,0-.08.08.08,0,0,1,0,0l0-.06.06,0,.06,0h.93l.86,0,.62,0,.63-.06a1.67,1.67,0,0,1,.31,0l.33-.05H205l.48,0,.51,0,1,.08C207.38,223.12,207.72,223.15,208.06,223.18Zm2.48,6.51.06,0,.05,0a.12.12,0,0,1,.06.06l0,.07v.06s0,.05,0,.06l0,0-.06,0s0,0-.06,0h-.06l-.25,0h-.21l-.32,0-.34,0c-.54,0-1.08.12-1.61.2l-1.59.22c-.83.14-1.65.26-2.47.37s-1.67.24-2.49.34h-.09l-.06,0-.05,0a.1.1,0,0,1,0-.06.09.09,0,0,1,0-.06V231a.13.13,0,0,0,0-.06.09.09,0,0,0,0-.06l.06,0a.08.08,0,0,1,.06,0l2.49-.34,2.47-.37,1.58-.22c.54-.08,1.07-.15,1.61-.2a3.73,3.73,0,0,1,.57,0,1.14,1.14,0,0,1,.26,0,1.77,1.77,0,0,1,.32,0h.07Z"/><path d="M214.72,221c.35-.34.71-.68,1.08-1s.71-.69,1.08-1l.73-.71c.24-.23.49-.47.75-.7l.55-.54.55-.54.12.06.81,3.41.81,3.41c.18.74.35,1.49.52,2.24l.54,2.24c.14.57.28,1.13.4,1.69s.27,1.11.41,1.68a.18.18,0,0,1,0,.06.13.13,0,0,1,0,.06l0,0-.06,0h-.13l-.07,0a0,0,0,0,1,0,0,.17.17,0,0,1-.06-.06.06.06,0,0,1,0-.06c-.13-.56-.26-1.11-.38-1.66s-.28-1.13-.41-1.69c-.17-.74-.35-1.49-.53-2.24l-.54-2.24c-.23-1-.47-2-.71-3.06s-.49-2-.72-3.05l-.33.31-.31.31-.75.71c-.24.23-.49.47-.75.7l-1.2,1.14-1.21,1.14c-.24-.22-.47-.43-.7-.62l-.71-.62-.94-.83-.93-.83-.71-.65-.68-.66.07.79.13,1c.09.82.19,1.63.31,2.43s.21,1.61.32,2.42c.17,1.21.33,2.42.49,3.63s.32,2.43.47,3.65a.18.18,0,0,1,0,.06.13.13,0,0,1,0,.06s0,0,0,0a.09.09,0,0,1-.06,0l-.08,0a.09.09,0,0,0-.07,0l0,0s-.06,0-.07,0a.06.06,0,0,1,0-.06v-.06c-.16-1.22-.32-2.43-.49-3.63s-.31-2.43-.47-3.65l-.33-2.42c-.1-.8-.21-1.61-.31-2.41-.05-.45-.09-.9-.14-1.34s-.09-.89-.13-1.33l.07,0,.1,0c.3.34.63.67,1,1l1,.94.93.83.94.83.29.25.28.24.25.23Z"/><path d="M227.4,216.72l.38.16.4.19a4,4,0,0,1,1,.83,7,7,0,0,1,.73,1.07c.22.5.43,1,.63,1.52a8.77,8.77,0,0,1,.48,1.56c0,.12,0,.25.07.37a1.36,1.36,0,0,1-.05.36.7.7,0,0,1-.1.16,1,1,0,0,1-.14.15,1.48,1.48,0,0,1-.53.31,3.12,3.12,0,0,1-.62.15l.11,0a3.8,3.8,0,0,1,1.08.5,3.16,3.16,0,0,1,.86.85,2.91,2.91,0,0,1,.23.42l.18.42c.23.48.45,1,.67,1.43s.43,1,.62,1.44a1.55,1.55,0,0,0,.08.23l0,.15,0,.08a2.23,2.23,0,0,0,0,.23v.21a1.41,1.41,0,0,0,0,.18,1.62,1.62,0,0,1,0,.19,1,1,0,0,1-.09.31,1.59,1.59,0,0,1-.15.29,1.62,1.62,0,0,1-.51.31,2.66,2.66,0,0,1-.58.21,5.1,5.1,0,0,1-1,.16l-1,.08h-.57c-.57,0-1.15,0-1.71,0-.76,0-1.52-.05-2.27-.09a1.89,1.89,0,0,0-.56,0s-.09-.06-.25-.27a.07.07,0,0,0,0,.06.15.15,0,0,1,0,.07.16.16,0,0,1,0,.06.08.08,0,0,1-.06,0l-.06,0-.07,0-.07,0s0,0-.06-.06l-.05-.07s0,0,0-.06l.54-.2.64,0,2.24.11c.76,0,1.5,0,2.23,0,.43,0,.87-.05,1.3-.1a3.07,3.07,0,0,0,1.17-.33.45.45,0,0,0,.16-.09.54.54,0,0,0,.18-.12.39.39,0,0,0,.08-.14c0-.05,0-.09.05-.15s0-.15.07-.23l0-.25a1.11,1.11,0,0,0,0-.17.88.88,0,0,0,0-.16.54.54,0,0,0-.05-.21.82.82,0,0,0-.06-.19c-.18-.48-.37-1-.58-1.44s-.46-.94-.68-1.41a4,4,0,0,0-.49-.9,2.13,2.13,0,0,0-.77-.69,2.06,2.06,0,0,0-.34-.16l-.34-.11-.33,0-.32,0h-.42a3,3,0,0,0-.42,0h-1.92l-.78,0h.69l.68,0h-.25l-1.06,0h-.19l-.34,0-.54,0-.32,0h-.15a.5.5,0,0,0-.17,0,.75.75,0,0,1,0-.21.76.76,0,0,1,0-.21l.45,0,.71.06h.33a.83.83,0,0,1,.2,0H226l.38,0,.33,0,1.3-.13c.44,0,.87-.09,1.28-.16a5.86,5.86,0,0,0,.63-.12,1.61,1.61,0,0,0,.52-.27.23.23,0,0,0,.07-.07l.06-.08,0,0,0,0v-.09a.19.19,0,0,0,0-.08,1.11,1.11,0,0,0,0-.17.67.67,0,0,0,0-.18c-.06-.27-.14-.54-.23-.82s-.17-.53-.28-.81-.18-.44-.26-.66-.18-.45-.28-.67a2.65,2.65,0,0,0-.16-.23l-.16-.27a5.19,5.19,0,0,0-.81-.87,3.25,3.25,0,0,0-1-.57,3.16,3.16,0,0,0-.71-.12l-.35,0-.33,0-2.16.06-2.16.12-.06,0a.11.11,0,0,1-.07,0l-.05,0a.1.1,0,0,1,0-.06l0-.06v-.07a.07.07,0,0,1,0-.06.06.06,0,0,1,0-.06l.05,0,.06,0,2.16-.11,2.15-.08h.72l.32,0,.34.07.09,0ZM225,231.25v.06a.06.06,0,0,1,0,.06l0,0a.09.09,0,0,1-.06,0h-.13a.08.08,0,0,1-.07,0l-.05-.06,0,0,0-.08c-.13-.57-.26-1.14-.38-1.71s-.26-1.13-.37-1.7c-.18-.76-.34-1.53-.5-2.29s-.35-1.52-.52-2.29c-.23-1.1-.47-2.21-.71-3.32s-.49-2.22-.73-3.33l0-.06a.16.16,0,0,1,0-.06.16.16,0,0,1,0-.06s0,0,.06,0a.05.05,0,0,1,0,0,.09.09,0,0,1,.07,0s0,0,.06,0a.1.1,0,0,1,.05,0,.17.17,0,0,0,.06.06v.06c.25,1.12.5,2.24.74,3.35s.5,2.22.74,3.32c.16.77.33,1.53.5,2.29s.34,1.53.5,2.29l.18.75.16.77c.07.31.14.63.23.95Z"/><path d="M232,218.41l1.6,6.52c.52,2.16,1,4.34,1.57,6.52t0,.06a.06.06,0,0,1,0,.06l0,0-.06,0h-.13l-.07,0-.08,0a.15.15,0,0,0,0-.06s0,0,0-.06l-1.59-6.52q-.79-3.27-1.56-6.53l-.2-.79-.21-.89,0-.09,0,0a.11.11,0,0,1,0-.06l.06,0,.06,0,.06,0,.07,0,.06.06,0,.07,0,.06.22.89Zm8.35-1.57.05,0,.06.07a.15.15,0,0,1,0,.06l0,0v.08a.64.64,0,0,1,0,.07l0,0-.06,0h-.06l-.07,0-.29-.08-.28,0-.45-.06-.44,0h-1.35c-.45,0-.9,0-1.34.06l-2.31.06c-.77,0-1.54,0-2.32,0h-.06l-.08,0,0,0-.05-.06,0-.06v-.07a.14.14,0,0,1,0-.06l0,0,0,0h.07l2.31,0,2.28-.09,1.37,0,.79,0,.56,0,.75,0a5.36,5.36,0,0,1,.78.15l.05,0Zm.53,6.39.07,0,.05,0,.06,0,.05.07,0,0v0s0,0,0,.06a.16.16,0,0,1,0,.06l0,0-.06,0h-.08l-.47-.05-.37,0-1-.08c-.06,0-.44,0-1.15-.07l-.6,0-.54,0-.31,0-.3,0-.64.06-.63,0c-.36,0-.65,0-.87,0h-.93l-.07,0-.06,0-.06,0a.15.15,0,0,1,0-.06s0,0,0-.07a.11.11,0,0,1,0-.08.06.06,0,0,1,0,0,.16.16,0,0,1,0-.06.07.07,0,0,1,.06,0,.09.09,0,0,1,.06,0h.92l.86,0,.62,0L236,223l.31,0,.33,0h1.18l.48,0,.52,0,1,.08C240.19,223.17,240.54,223.2,240.88,223.23Zm3.25,6.56a.08.08,0,0,1,.07,0l.05,0s.06,0,.06.06,0,0,0,.06V230s0,.05,0,.06l0,0-.06,0s0,0-.06,0h-.06l-.24,0h-.22l-.32,0-.34,0c-.53.06-1.06.12-1.58.2l-1.56.23c-.81.14-1.62.26-2.43.37l-2.45.34h-.08a.11.11,0,0,1-.07,0l-.06,0-.05-.06a.16.16,0,0,1,0-.07v-.06a.18.18,0,0,0,0-.06l0-.06s0,0,.06,0,0,0,.06,0l2.44-.35,2.43-.37,1.55-.22c.53-.08,1.05-.15,1.58-.21.2,0,.39,0,.57,0l.26,0,.33,0h.06Z"/><path d="M246.21,231.21s0,0,0,.06a.08.08,0,0,1,0,.07l0,0,0,0H246l-.08,0,0,0a.1.1,0,0,1,0-.07.07.07,0,0,1,0-.06l-.47-1.67-.48-1.69-.63-2.24-.64-2.25c-.32-1.09-.63-2.17-.93-3.26l-.93-3.28,0-.06a.16.16,0,0,1,0-.06.14.14,0,0,1,0-.07s0,0,.06,0h.12l.07,0a.13.13,0,0,1,.06.07l.06.06v.06c.32,1.09.64,2.17.95,3.26l.93,3.28.63,2.25.64,2.24.21.75c.08.25.16.5.23.75l.27.94Zm-.68-6.57q1,.5,2,.9t2,.69l.66.17.65.17.44.1a2.92,2.92,0,0,1,.46.13l.51.19.51.21a8.88,8.88,0,0,1,1.55,1,8.66,8.66,0,0,1,1.3,1.27,8,8,0,0,1,.51.72c.16.23.32.48.47.73a.05.05,0,0,1,0,0v0a.08.08,0,0,1,0,.07.08.08,0,0,0,0,.06l0,0a.08.08,0,0,1-.06,0h-.13a.29.29,0,0,1-.08,0l-.06,0,0-.07-.46-.69a7,7,0,0,0-.46-.65,8.5,8.5,0,0,0-1.21-1.19,7.75,7.75,0,0,0-1.42-.9l-.59-.26-.59-.19-.3-.08-.34-.06-.67-.17c-.22-.07-.44-.14-.65-.19-.38-.11-.75-.23-1.13-.36l-1.09-.4c-.5-.2-1-.41-1.46-.65s-.93-.49-1.4-.75a.34.34,0,0,0,0-.11s0-.07,0-.1l.83,0s.4,0,1.08-.08l.6,0,.83,0,1.28-.1,1.25-.1c.3,0,.6-.08.9-.1a1.93,1.93,0,0,0,.82-.25.84.84,0,0,0,.17-.13l.15-.14a2.12,2.12,0,0,0,.45-1,3.9,3.9,0,0,0,0-1.23c0-.14,0-.28-.07-.42l-.09-.42a1.55,1.55,0,0,0-.19-.46c-.09-.15-.18-.3-.28-.44a2.83,2.83,0,0,0-.83-.71,5.69,5.69,0,0,0-.94-.5c-.19-.07-.36-.14-.53-.19a5.44,5.44,0,0,0-.54-.15l-.79-.15q-.37-.07-.78-.12c-.54-.07-1.09-.13-1.63-.17s-1.07,0-1.62,0l-1.18,0-1.26.13H242l-.07,0-.05,0a.1.1,0,0,1,0,0,.35.35,0,0,1-.05-.08v0l0,0a.2.2,0,0,1,0-.07l0,0a.11.11,0,0,1,0,0,.06.06,0,0,1,.05,0l1.28-.13c.27,0,.67,0,1.2-.06h.41c.41,0,.82,0,1.22,0,.55,0,1.1.08,1.67.15l.8.12.81.17.57.17.57.19.51.23q.24.12.48.27a3.76,3.76,0,0,1,.77.61,3.29,3.29,0,0,1,.59.77,3.37,3.37,0,0,1,.17.32,2.19,2.19,0,0,1,.12.33,10.39,10.39,0,0,1,.21,1.57,2.7,2.7,0,0,1-.27,1.44,2.39,2.39,0,0,1-.13.21l-.15.19a1.85,1.85,0,0,1-.53.4,2.33,2.33,0,0,1-.69.23l-.51,0-.53.06-1.28.1-1.28.1-1.18.08Z"/><path d="M254.19,219.86l.06,0,.09,0,0,0,.08,0s0,0,0,.07l0,.06.11.33a2.11,2.11,0,0,1,.09.36l-.43,0v0l-.1-.32-.09-.33a.06.06,0,0,1,0-.06s0,0,0-.07l0,0Zm.53.86v0l0,0v0a.08.08,0,0,1,0,.07s0,.05,0,.06l0,0a.06.06,0,0,1,0,0l-.06,0a.15.15,0,0,1-.09,0,.06.06,0,0,1-.05,0,.16.16,0,0,1-.08-.06.21.21,0,0,1,0-.06l0-.07,0,0v-.08s0-.07,0-.07l.11,0A1.11,1.11,0,0,0,254.72,220.72Zm2.32,6.89v.06a.08.08,0,0,0,0,.06l0,0-.06,0h-.06s-.06,0-.07,0a.11.11,0,0,1-.08,0,.33.33,0,0,1-.06-.06.09.09,0,0,1,0-.06l0,0v0a.39.39,0,0,0,0-.14.59.59,0,0,1,0-.13l-.06-.19a.8.8,0,0,0,0-.18l-.06-.28c0-.09,0-.19-.05-.27l0-.06a.08.08,0,0,1,0-.06l0-.05.06,0h.15a.1.1,0,0,0,.05,0,.31.31,0,0,1,.09.07s0,0,0,.06v.06a1,1,0,0,0,.07.28,1.68,1.68,0,0,0,.06.27s0,.12,0,.19a1.49,1.49,0,0,0,0,.18l0,0,0,.06a.11.11,0,0,0,0,.08Z"/><path d="M177.33,250.11c0,.22,0,.44-.05.66a8.89,8.89,0,0,1-.26,1.6,7.53,7.53,0,0,1-.62,1.5,4.58,4.58,0,0,1-.56.75,3,3,0,0,1-.75.61,3.16,3.16,0,0,1-.75.33l-.79.26a21.39,21.39,0,0,1-3.92.54c-1.36.06-2.7.08-4,.07q0-1.91,0-3.81c0-1.28-.07-2.55-.12-3.82,0-.75-.06-1.51-.07-2.26,0-.34,0-.68,0-1s0-.83,0-1.26.07-.82.11-1.23a4.2,4.2,0,0,1,.32-1.19,8.23,8.23,0,0,1,1.1-.07,7.83,7.83,0,0,1,1.6.17q1.35.3,2.64.63l1.07.34a10.55,10.55,0,0,1,1.07.39l.62.31c.19.12.4.23.59.36a6.64,6.64,0,0,1,.66.49,6.11,6.11,0,0,1,.56.58,5.68,5.68,0,0,1,1.19,2.09,9.1,9.1,0,0,1,.44,2.28v0C177.36,249.65,177.35,249.88,177.33,250.11ZM166.08,256c1.25,0,2.48-.07,3.7-.12a17,17,0,0,0,3.62-.48l.79-.26a3.36,3.36,0,0,0,1.34-.88,6,6,0,0,0,.44-.59,6.89,6.89,0,0,0,.58-1.44,8,8,0,0,0,.27-1.51c0-.22,0-.44,0-.66s0-.43,0-.64,0-.47-.07-.7-.07-.44-.12-.68a6.38,6.38,0,0,0-.47-1.44,5.16,5.16,0,0,0-.84-1.3q-.27-.28-.54-.54a7.54,7.54,0,0,0-.61-.47l-.55-.34-.6-.29c-.33-.14-.67-.26-1-.37L171,243c-.78-.21-1.59-.4-2.42-.59a8.3,8.3,0,0,0-1.71-.19c-.26,0-.51,0-.75,0,0,.11-.08.21-.11.32s0,.22,0,.33a4.17,4.17,0,0,0-.09.72c0,.23,0,.46-.07.7v2.25c0,.76,0,1.51.07,2.26s.06,1.76.1,2.65,0,1.77.05,2.65V256Z"/><path d="M182.47,246l.58.05c.1,0,.28,0,.52,0a3.74,3.74,0,0,0,.48,0l.46.07.23,0,.21,0,.23.07.24.08a3.51,3.51,0,0,1,1,.6,5.63,5.63,0,0,1,.79.83l.08.09a.46.46,0,0,1,.05.1,3.87,3.87,0,0,1,.24.37l.21.37c0,.07.06.13.08.19a.6.6,0,0,1,.08.16,3.19,3.19,0,0,1,.19.42c0,.09.08.23.15.41s.15.46.21.62.11.38.19.64a3.63,3.63,0,0,1,.08.45c0,.1.07.36.13.79,0,.18.05.36.07.53a7.81,7.81,0,0,1,0,1.08,3.51,3.51,0,0,1-.47,1.52c-.08.09-.15.19-.22.28a2,2,0,0,1-.31.25,2.37,2.37,0,0,1-1,.38c-.41,0-.8.08-1.18.09a9.12,9.12,0,0,1-2-.26,15.14,15.14,0,0,1-2-.65,14.25,14.25,0,0,1-1.28-.73,6.64,6.64,0,0,1-1.17-.88l-.27-.27a1.44,1.44,0,0,1-.22-.31,1.08,1.08,0,0,1-.16-.3,2.88,2.88,0,0,1-.13-.31,7.52,7.52,0,0,1-.28-1.73V251c0-.63,0-1.25,0-1.87a5.08,5.08,0,0,1,.14-.94,4.76,4.76,0,0,1,.33-.89A3,3,0,0,1,179,247a2.13,2.13,0,0,1,.29-.31.67.67,0,0,1,.19-.14l.23-.13.78-.24A6,6,0,0,1,182,246Zm5.39,4.05c-.06-.18-.11-.32-.15-.41l-.16-.39a.7.7,0,0,0-.09-.17.4.4,0,0,0-.08-.16,3.09,3.09,0,0,0-.24-.44,3.18,3.18,0,0,0-.28-.43,3.65,3.65,0,0,0-.72-.75,3.1,3.1,0,0,0-.88-.52.6.6,0,0,0-.19-.06l-.18-.07-.21,0-.21,0c-.49-.06-1-.1-1.47-.13-.24,0-.49,0-.73,0l-.75,0a6.32,6.32,0,0,0-.84.09,2.86,2.86,0,0,0-.77.23l-.17.08a.62.62,0,0,0-.16.1,1,1,0,0,0-.22.24,1.34,1.34,0,0,0-.17.27,3.64,3.64,0,0,0-.41,1.46c0,.51-.06,1-.05,1.52a4,4,0,0,0,0,.49c0,.22,0,.44.05.66a5.9,5.9,0,0,0,.21,1.16c0,.08.07.17.11.26a2,2,0,0,0,.13.25,1.05,1.05,0,0,0,.2.27,2.39,2.39,0,0,1,.22.23,9,9,0,0,0,2.81,1.71,9.2,9.2,0,0,0,3.26.66h.5l.46,0a3.19,3.19,0,0,0,.51-.12,1.37,1.37,0,0,0,.46-.2,1.21,1.21,0,0,0,.24-.21,1.37,1.37,0,0,0,.2-.22,2.86,2.86,0,0,0,.41-1.4,7.85,7.85,0,0,0,0-1c0-.18,0-.35-.07-.51l-.09-.58q0-.31-.09-.6t-.12-.39q-.06-.21-.12-.39c0-.09,0-.16-.07-.23A.9.9,0,0,0,187.86,250.06Z"/><path d="M190.4,255.48l0,.29a1.26,1.26,0,0,0,0,.27l0,.2,0,.23,0,.06a.21.21,0,0,1,0,.06s0,0,0,0l-.07,0h-.14l-.08,0-.07,0a.11.11,0,0,0,0-.06.09.09,0,0,1,0-.07v-.2l0-.21,0-.29,0-.26a1.44,1.44,0,0,0-.05-.33V255l0-.31c0-.22,0-.44-.07-.66l-.06-.68c0-.3-.05-.6-.09-.89s-.06-.59-.09-.88c0-.44-.08-.88-.13-1.32s-.08-.86-.13-1.3a.14.14,0,0,1,0-.06.11.11,0,0,1,0-.07l0,0a.09.09,0,0,0,.06,0h.17s0,0,.07.05l0,0a.16.16,0,0,1,0,.06.08.08,0,0,1,0,.06c0,.44.08.87.13,1.3s.08.87.13,1.3.06.6.1.91l.07.88c0,.22.06.44.08.66l.05.68a1.54,1.54,0,0,1,.05.31l0,.31v.19Zm4.21-6-.44,0-.44,0c-.3,0-.6.07-.88.12s-.6.11-.89.18a7.16,7.16,0,0,0-.89.3,4,4,0,0,0-.85.43.66.66,0,0,0-.17.14,1.39,1.39,0,0,0-.21.19l-.05,0-.07,0h-.16s0,0-.05-.05l0-.06a.16.16,0,0,1,0-.06.08.08,0,0,1,0,0v0a.06.06,0,0,0,0-.06l0-.06.24-.21.2-.16a4,4,0,0,1,.9-.47,7.73,7.73,0,0,1,1-.34q.45-.11.93-.18a5.63,5.63,0,0,1,.93-.14h.94l.51.07a4.36,4.36,0,0,1,.52.11,7,7,0,0,1,1.18.44,5.52,5.52,0,0,1,1,.69c.39.36.77.73,1.14,1.12a7.12,7.12,0,0,1,1,1.24l.17.36a1.4,1.4,0,0,1,.14.37,1.88,1.88,0,0,1,.06.31l0,.29c0,.23,0,.41,0,.54s0,.29,0,.53l0,.73-.07.88a.07.07,0,0,0,0,.06l-.05.05-.06,0-.07,0H200l-.07,0-.08,0,0-.06v-.06s0-.05,0-.06l.07-.85,0-.72c0-.24,0-.42,0-.54a4.39,4.39,0,0,0,0-.49l0-.27a.7.7,0,0,0-.05-.25,2.07,2.07,0,0,0-.1-.33l-.18-.31a5.55,5.55,0,0,0-.53-.77c-.21-.24-.43-.46-.65-.69l-.42-.39a3.83,3.83,0,0,0-.41-.38,4.13,4.13,0,0,0-1.28-.79,7,7,0,0,0-1.44-.38h-.19Z"/><path d="M200.73,249.53h-.07l-.08,0-.07,0,0-.06a.13.13,0,0,0,0-.07v-.06s0-.05,0-.06a.09.09,0,0,1,0-.06l0,0,.06,0,.66-.12.59-.08,1.19-.16c.4,0,.8-.06,1.21-.07l.65,0,.63.07.47.08.5.11.07,0,.06.06s0,0,0,.05a.11.11,0,0,1,0,.08.18.18,0,0,1,0,.06.14.14,0,0,1,0,.06.08.08,0,0,1,0,0s-.05,0-.06,0h-.14c-.24-.05-.4-.09-.5-.1a2.85,2.85,0,0,0-.42-.09q-.31,0-.63-.06t-.6,0a7.67,7.67,0,0,0-1.17.08c-.38,0-.75.08-1.13.13l-.3,0-.27,0a1.59,1.59,0,0,1-.34.06A1.61,1.61,0,0,1,200.73,249.53Zm5.73,6.76.14,0a.9.9,0,0,0,.24-.12,1.14,1.14,0,0,0,.19-.19.21.21,0,0,0,.06-.08.21.21,0,0,0,.06-.1.76.76,0,0,0,0-.33,2.38,2.38,0,0,0,0-.36s0,0,0-.06,0,0,0-.06l0,0a.05.05,0,0,1,.06,0,.08.08,0,0,1,.07,0h.07l.07,0,.06,0,0,.06a.13.13,0,0,1,0,.07l0,.18v.06l0,.15a1.31,1.31,0,0,1-.06.41,2.32,2.32,0,0,1-.18.39,1.05,1.05,0,0,1-.3.25,1.64,1.64,0,0,1-.35.18l-.19,0-.2,0h-.21a2.35,2.35,0,0,1-.6-.07,6.94,6.94,0,0,1-.81-.25,1.25,1.25,0,0,1-.28-.15.78.78,0,0,1-.26-.17l-.26-.18-.21-.21a2.63,2.63,0,0,1-.68-1.31c0-.15-.06-.31-.08-.47a5.59,5.59,0,0,1,0-.91,9.74,9.74,0,0,1,.19-1.45c.09-.46.19-.94.28-1.42,0-.22.07-.41.09-.58s0-.35.05-.56a9.16,9.16,0,0,0,0-1.28,3.78,3.78,0,0,0-.3-1.28,1.92,1.92,0,0,0-.18-.35c-.08-.11-.15-.23-.23-.36a.09.09,0,0,1,0-.06v-.06s0-.05,0-.06a.06.06,0,0,1,0-.06l.07-.05.06,0,0,0h0l.07,0,.07,0a.1.1,0,0,1,0,.06c.1.14.18.27.26.39a2.74,2.74,0,0,1,.21.42,5,5,0,0,1,.34,1.36,12.52,12.52,0,0,1,0,1.37c0,.22,0,.41,0,.58s0,.38-.08.6c-.08.46-.18.93-.29,1.4a11.26,11.26,0,0,0-.19,1.42,1.63,1.63,0,0,0,0,.25.73.73,0,0,0,0,.25,4.38,4.38,0,0,0,.27,1.28,2.08,2.08,0,0,0,.93,1,1.84,1.84,0,0,0,.38.17l.39.15.41.08a2.73,2.73,0,0,0,.41,0s0,0,0,0h0Z"/><path d="M233.94,254.37s0,0,0-.06l0,0a.06.06,0,0,1,.06-.05l.07,0h.14s0,0,.05.05a.09.09,0,0,1,.07.06l.06.06v.06a.2.2,0,0,0,0,.11s0,.08,0,.12,0,.11,0,.17a.84.84,0,0,0,0,.17.43.43,0,0,1-.05.1s0,.07,0,.12a.85.85,0,0,0-.07.15l-.08.16-.23.33a2.66,2.66,0,0,1-.26.31,2.4,2.4,0,0,1-.21.23,2.08,2.08,0,0,1-.21.21,1.46,1.46,0,0,1-.28.14l-.3.1L232,257l-.67.06c-.61,0-1.21.05-1.81,0h-.19c-.66,0-1.33-.06-2-.12a14,14,0,0,1-1.73-.3,4.15,4.15,0,0,1-1.6-.72,4.1,4.1,0,0,1-1-1.09,7.88,7.88,0,0,1-.69-1.22c-.19-.5-.35-1-.49-1.48-.05-.19-.09-.39-.13-.58a6.42,6.42,0,0,1-.09-.87l0-.42c0-.13,0-.27,0-.39a7.08,7.08,0,0,1,.2-1,4.26,4.26,0,0,1,.41-1,6.23,6.23,0,0,1,.78-1.07A3.65,3.65,0,0,1,224,246c.18-.08.37-.16.57-.23a2.25,2.25,0,0,1,.64-.1l.16,0a3.8,3.8,0,0,1,.46.05,5.59,5.59,0,0,1,.59.11,16.33,16.33,0,0,1,3,1.05l2.87,1.35.06,0a.17.17,0,0,0,.06.06v.07a.08.08,0,0,1,0,.08.15.15,0,0,1,0,.06.08.08,0,0,1,0,0s0,0-.06.05h-.13s-.06,0-.08,0l-2.8-1.32a15.17,15.17,0,0,0-2.89-1l-.54-.11a3.25,3.25,0,0,0-.53,0,2.34,2.34,0,0,0-.55.1l-.51.18a3.14,3.14,0,0,0-1.36,1.22c-.31.48-.5.81-.59,1l0,.1a.38.38,0,0,0,0,.13,3.11,3.11,0,0,0-.22.91,8,8,0,0,0,0,1,8.66,8.66,0,0,0,.24,1.41,13.34,13.34,0,0,0,.45,1.4,12.35,12.35,0,0,0,.61,1.12,3.84,3.84,0,0,0,.93,1,2.58,2.58,0,0,0,.53.32c.19.08.37.15.56.21a4.78,4.78,0,0,0,1,.23l1,.16c.65.06,1.3.09,1.95.1l1.92,0,.64-.08a2.43,2.43,0,0,0,.6-.1,1.33,1.33,0,0,0,.28-.1.51.51,0,0,0,.25-.14,3.5,3.5,0,0,0,.39-.46,3.72,3.72,0,0,0,.34-.47l.09-.12a.85.85,0,0,1,.07-.15.13.13,0,0,0,0-.1.58.58,0,0,0,.05-.09.28.28,0,0,0,0-.08.13.13,0,0,0,0-.08.81.81,0,0,0,0-.11.17.17,0,0,1,0-.1v-.06Z"/><path d="M236.52,246.51l1.65,0h.25a9.19,9.19,0,0,1,1.45.13c.17,0,.35.08.53.13a2.45,2.45,0,0,1,.49.23l.26.21.24.26a7.82,7.82,0,0,1,.76,1.08c.23.38.44.75.63,1.13s.38.77.45.94a7.12,7.12,0,0,1,.3.65,8.31,8.31,0,0,1,.5,1.37l.05.21a2.78,2.78,0,0,1-.05,1.52,2.85,2.85,0,0,1-.17.35l-.23.31-.31.25a2.88,2.88,0,0,1-.34.23l-.57.24-.64.16-.83.16-.84.12a7.87,7.87,0,0,1-.84,0l-.21,0a5.26,5.26,0,0,1-.67-.07,4.21,4.21,0,0,1-.49-.09,2.84,2.84,0,0,1-.49-.17,2.31,2.31,0,0,1-.81-.65,8.51,8.51,0,0,1-.56-.81c0-.06-.08-.11-.1-.15l-.09-.17a2.12,2.12,0,0,1-.11-.21l-.1-.2a1.94,1.94,0,0,1-.13-.3,1.48,1.48,0,0,1-.15-.31c-.27-.67-.53-1.34-.78-2a6.45,6.45,0,0,1-.28-.92,7.19,7.19,0,0,1-.16-1.12c0-.15,0-.3,0-.46a2.47,2.47,0,0,1,.08-.43,2,2,0,0,1,.45-.85,1.88,1.88,0,0,1,.83-.56c.18-.05.37-.1.58-.14Zm.13.44a3.49,3.49,0,0,0-1,.2,1.6,1.6,0,0,0-.72.54,1.15,1.15,0,0,0-.14.2c0,.07-.05.15-.08.23a1.52,1.52,0,0,0-.1.46,4.07,4.07,0,0,0,0,.5,7.35,7.35,0,0,0,.17,1.1,7,7,0,0,0,.24.87c.24.66.5,1.3.77,1.94a1.55,1.55,0,0,0,.14.29c0,.1.07.2.11.29a.72.72,0,0,1,.11.19,2,2,0,0,1,.1.21.4.4,0,0,1,.1.15l.08.14a4.07,4.07,0,0,0,.33.48,2.05,2.05,0,0,0,.35.44,1.93,1.93,0,0,0,.21.17,1.2,1.2,0,0,0,.24.15l.39.15.39.06a4.28,4.28,0,0,0,.6,0h.21l.77,0,.81-.11.81-.16.65-.19a2.11,2.11,0,0,0,.59-.26.91.91,0,0,0,.23-.15,1.53,1.53,0,0,0,.18-.18,2.19,2.19,0,0,0,.2-.25,1.85,1.85,0,0,0,.13-.29,2.41,2.41,0,0,0,.07-1.39l0-.11a7,7,0,0,0-.48-1.33,7.12,7.12,0,0,0-.3-.65l-.44-.92c-.18-.35-.38-.7-.59-1.06a6,6,0,0,0-.73-1l-.15-.17a.74.74,0,0,0-.2-.16l-.14-.09-.13-.06-.27-.07a2,2,0,0,0-.26-.06,8,8,0,0,0-1.47-.13H238Zm11.51,9.65.08,0,.07,0,.07.07s0,0,0,.06v.06s0,.05,0,.06l0,.07,0,0-.07,0h-.07l-.37-.07a1.59,1.59,0,0,1-.35-.08,3.64,3.64,0,0,1-1.12-.6,6.13,6.13,0,0,1-.9-.86c-.13-.16-.24-.32-.36-.48a3,3,0,0,1-.31-.48c-.11-.17-.19-.31-.26-.44l-.25-.46c-.21-.37-.42-.75-.62-1.13l-.59-1.12v0l0-.07,0,0a.06.06,0,0,1,0-.06l.06,0,.06,0a.15.15,0,0,1,.08,0l.07,0,.09.06s0,0,0,.05l0,.08c.2.35.4.7.6,1.07s.38.72.59,1.08c.09.17.16.32.23.44l.25.44c.1.15.2.31.31.46a5.36,5.36,0,0,0,.32.44,7.88,7.88,0,0,0,.72.69,3.23,3.23,0,0,0,.89.51l.25.08.28.07h.07Z"/><path d="M253,256.72h.07l.08,0,.08.05.06,0a.22.22,0,0,0,.05.08v0l0,.05a.06.06,0,0,0,0,.06s0,0,0,0l0,0-.07,0h-.42a1.67,1.67,0,0,1-.42-.07,2.58,2.58,0,0,1-1.31-.88,7.7,7.7,0,0,1-.81-1.24,1.91,1.91,0,0,1-.13-.31,3,3,0,0,1-.14-.36,20.58,20.58,0,0,1-.71-2.23c-.17-.74-.34-1.48-.52-2.23l-.23-.84c-.07-.25-.12-.48-.16-.69-.11-.39-.22-.77-.34-1.15s-.25-.83-.44-1.41c-.25-.8-.45-1.37-.6-1.72s-.38-.95-.71-1.77v0l0-.07a.18.18,0,0,1,0-.06l0,0,0,0,.06,0h.09l.07,0,.06,0,.05,0s0,0,0,.07q.41.93.6,1.44c.14.32.27.69.42,1.1,0,.14.1.3.15.46s.12.34.19.55l.44,1.42.32,1.17.19.68q.09.38.21.84c.18.75.36,1.5.55,2.23a17,17,0,0,0,.68,2.22,1.11,1.11,0,0,1,.07.16,1.22,1.22,0,0,1,.07.17l.12.27a1.76,1.76,0,0,1,.14.27,6.5,6.5,0,0,0,.59.84,1.88,1.88,0,0,0,.86.63l.23.07.22,0H253Z"/><path d="M258.44,256.77h.07a.11.11,0,0,1,.08,0l.08,0,.06,0a.2.2,0,0,0,0,.09v0l0,0,0,.06s0,0,0,0l0,0-.07,0h-.42a1.64,1.64,0,0,1-.42-.06,2.66,2.66,0,0,1-1.32-.89,7.25,7.25,0,0,1-.83-1.24,2.23,2.23,0,0,1-.14-.31q-.06-.12-.15-.36a20.08,20.08,0,0,1-.74-2.23c-.19-.74-.38-1.49-.56-2.24l-.25-.83q-.11-.37-.18-.69c-.11-.39-.23-.78-.35-1.15s-.26-.84-.46-1.42c-.27-.8-.48-1.37-.64-1.72l-.74-1.77v-.09s0,0,0-.06l0,0s0,0,0,0a.07.07,0,0,1,.06,0h.09a.12.12,0,0,1,.07,0l.06,0,.05,0,.05.06c.27.63.48,1.11.62,1.45s.28.69.44,1.11c.05.14.1.29.15.46l.21.54c.18.58.34,1.06.46,1.42l.34,1.17.21.69c.05.25.13.53.22.84.19.75.38,1.49.58,2.23a17.32,17.32,0,0,0,.72,2.22.56.56,0,0,1,.07.16.85.85,0,0,1,.08.17l.12.27a2.6,2.6,0,0,1,.15.28,7.39,7.39,0,0,0,.6.83,1.91,1.91,0,0,0,.87.64.86.86,0,0,0,.23.06l.23,0h.28Z"/><path d="M166.58,281.43v.06l-.05.06-.08,0a.06.06,0,0,1,0,0h-.18a.29.29,0,0,0-.08,0l0,0,0-.06v-.07a8.23,8.23,0,0,1,0-1.19l-.05-.94c-.06-.55-.12-1.09-.21-1.62s-.13-1.07-.2-1.61,0-.87,0-1.31v-.35c0-.33,0-.65,0-1,0-.6.07-1.06.1-1.38s.12-.8.22-1.47a.19.19,0,0,1,0-.08s0,0,0,0l.07,0s0,0,.08,0h.07s.06,0,.08,0a.08.08,0,0,1,.07,0l0,0a.07.07,0,0,1,0,.06v.06c-.08.67-.14,1.17-.19,1.48s-.09.77-.12,1.35,0,.87,0,1.3,0,.87,0,1.29.16,1.07.23,1.6.13,1.07.18,1.6a3.49,3.49,0,0,1,0,.44,3.22,3.22,0,0,1,0,.43v.65C166.58,281,166.58,281.21,166.58,281.43Zm3.47-10.49a1.52,1.52,0,0,0-.37,0,2.71,2.71,0,0,0-.4,0l-.69.12-.66.18c-.22.06-.44.14-.67.22a2,2,0,0,0-.59.32.17.17,0,0,0-.1.08l-.13.1-.05,0-.07,0-.07,0h-.08l-.07,0,0,0a.18.18,0,0,1-.05-.07v-.12a.1.1,0,0,1,.05-.06l.12-.14.15-.1a2.35,2.35,0,0,1,.67-.39l.76-.26.72-.17a5.26,5.26,0,0,1,.71-.12,3.42,3.42,0,0,1,.44,0h.1l.37,0a5.13,5.13,0,0,1,1.84.51,9.6,9.6,0,0,1,1.61,1,2.64,2.64,0,0,1,.43.46,3.4,3.4,0,0,1,.31.5,1.29,1.29,0,0,1,.13.18.6.6,0,0,1,.08.21.44.44,0,0,1,.08.15.39.39,0,0,1,0,.14,1.45,1.45,0,0,1,.06.41v.06c0,.13,0,.24,0,.35s0,.15,0,.23a1.86,1.86,0,0,0-.1.2.14.14,0,0,1,0,.06l-.05,0a.12.12,0,0,1-.07,0,.2.2,0,0,1-.1,0,.13.13,0,0,1-.08,0l-.08,0-.05,0a.14.14,0,0,1,0-.06v-.13a.37.37,0,0,0,.07-.16c0-.07,0-.13.05-.19a1.69,1.69,0,0,0,0-.32,1.26,1.26,0,0,0,0-.33l0-.13-.06-.12a.6.6,0,0,0-.08-.19,1.4,1.4,0,0,0-.1-.16c-.07-.13-.15-.25-.23-.37a3.44,3.44,0,0,0-.28-.36,1.83,1.83,0,0,0-.36-.29l-.48-.29a6.42,6.42,0,0,0-1.07-.57,5.45,5.45,0,0,0-1.2-.32.08.08,0,0,1-.07,0Z"/><path d="M185.16,270.69a.05.05,0,0,1,0-.06l.05,0s0,0,.07,0h.15l.08,0,0,.06a.09.09,0,0,1,0,.06s0,0,0,0l0,0v.06c-.12.28-.2.48-.24.59a3,3,0,0,0-.19.53,9,9,0,0,0-.24,1.26c-.05.41-.08.83-.1,1.25s0,.71,0,1.05.05.71.09,1c0,.18.05.37.08.56a3.81,3.81,0,0,1-.18,2.38c-.08.14-.17.28-.26.41a1.61,1.61,0,0,1-.31.39,3.62,3.62,0,0,1-1.7.9,9,9,0,0,1-2.06.29h-.35a10,10,0,0,1-1.62-.14,3.09,3.09,0,0,1-1.69-.84l-.15-.19a.79.79,0,0,1-.14-.18,2.58,2.58,0,0,1-.22-.44c0-.15-.07-.3-.11-.45a3.42,3.42,0,0,1,0-.46v-.08a3.48,3.48,0,0,1,0-.55c0-.17.05-.33.08-.49l.14-.5.12-.65c0-.22.1-.44.16-.66.08-.59.14-1.18.19-1.78a9.76,9.76,0,0,0,0-1.79c-.05-.26-.1-.52-.15-.76s-.13-.5-.2-.75v-.08a.15.15,0,0,1,0-.06.1.1,0,0,1,0-.06s0,0,.07,0l.07,0h.08l.07,0,.08,0,0,.06,0,0c.07.28.14.55.2.81a4.34,4.34,0,0,1,.15.8,8.68,8.68,0,0,1,.07,1.83c0,.61-.11,1.21-.21,1.83,0,.22-.09.44-.15.68s-.08.43-.13.65a1.43,1.43,0,0,0-.08.37,1,1,0,0,0-.09.33,6.2,6.2,0,0,0-.06.62,4.38,4.38,0,0,0,0,.63l.12.39a1.35,1.35,0,0,0,.19.38,2.19,2.19,0,0,0,1.49.94,11.16,11.16,0,0,0,1.94.17,9.52,9.52,0,0,0,1.87-.25,3.33,3.33,0,0,0,1.53-.82,3.92,3.92,0,0,0,.27-.33c.07-.12.14-.24.2-.37a3.68,3.68,0,0,0,.23-.82,3,3,0,0,0,0-.84c0-.18,0-.36-.08-.54s0-.35-.05-.53a6.53,6.53,0,0,1-.09-1.07,9.57,9.57,0,0,1,0-1.07,5.78,5.78,0,0,1,0-.83,8,8,0,0,1,.1-.82,4.68,4.68,0,0,1,.16-.7c0-.22.11-.44.18-.67a3.12,3.12,0,0,1,.15-.39A2.39,2.39,0,0,1,185.16,270.69Z"/><path d="M189.5,272a1.12,1.12,0,0,0-.22.1l-.21.14a1.18,1.18,0,0,0-.23.27,2.43,2.43,0,0,0-.2.28,1.22,1.22,0,0,0-.07.17,1.89,1.89,0,0,1-.06.18,2,2,0,0,0-.08.54,2.56,2.56,0,0,0,.09.53,3.71,3.71,0,0,0,.29.95,2.38,2.38,0,0,0,.56.85,1.3,1.3,0,0,0,.22.19.91.91,0,0,0,.23.15,3.87,3.87,0,0,0,.55.25,2.28,2.28,0,0,0,.59.11l.45.05.48,0,.79.07.76.07.58.05.56.07a2.3,2.3,0,0,1,.94.38,8.62,8.62,0,0,1,.71.63,8.39,8.39,0,0,1,.61.79,4,4,0,0,1,.46.83,1.08,1.08,0,0,1,.07.27,1.5,1.5,0,0,1,.06.29,1.32,1.32,0,0,1-.21.72,1.65,1.65,0,0,1-.59.55,5.19,5.19,0,0,1-1.64.47c-.61.08-1.2.12-1.8.14h-.28q-.69,0-1.41-.06a8.79,8.79,0,0,1-1.68-.22l-.41-.11a2.74,2.74,0,0,1-.4-.15,3.6,3.6,0,0,1-.82-.44,2.67,2.67,0,0,1-.6-.61,1.73,1.73,0,0,1-.17-.33,2.41,2.41,0,0,1-.15-.33v-.06a.06.06,0,0,1,0-.06.15.15,0,0,1,0-.06l0,0a.08.08,0,0,0,.07,0h.11a.12.12,0,0,1,.07,0l.06,0s.05,0,.05,0l0,.06q.06.15.12.27a1.17,1.17,0,0,0,.15.27,2.11,2.11,0,0,0,.81.69,5.27,5.27,0,0,0,1.07.41,11.18,11.18,0,0,0,1.6.22l1.61,0h.51a3.28,3.28,0,0,0,.48,0,1.34,1.34,0,0,0,.35,0l.36,0a6.57,6.57,0,0,0,.77-.16,3.64,3.64,0,0,0,.72-.26l.12-.08.09-.08a.9.9,0,0,0,.25-.31.74.74,0,0,0,.12-.37.57.57,0,0,0,0-.26.77.77,0,0,0-.07-.27,3.33,3.33,0,0,0-.4-.77c-.18-.24-.37-.47-.58-.71l-.08-.06-.06-.08a3.81,3.81,0,0,0-.51-.42,1.77,1.77,0,0,0-.63-.28l-.26,0a.9.9,0,0,0-.22,0l-.31-.05-.33,0-.74-.07-.8-.05-.49-.05-.48-.05a2.09,2.09,0,0,1-.71-.15,2.76,2.76,0,0,1-.68-.3,3.31,3.31,0,0,1-1.36-1.8l-.13-.46c0-.15-.05-.3-.08-.45a2.73,2.73,0,0,1,0-.7,3,3,0,0,1,.23-.66c.07-.12.15-.24.24-.37a1.7,1.7,0,0,1,.3-.3,1.11,1.11,0,0,1,.24-.16l.26-.15a5.84,5.84,0,0,1,1.28-.37,10.69,10.69,0,0,1,1.38-.11l.39,0a8.14,8.14,0,0,1,.87.05c.41,0,.84.09,1.27.16l.76.19a3.56,3.56,0,0,1,.75.3,1.2,1.2,0,0,1,.24.15l.24.18a3.31,3.31,0,0,1,.45.57,2.53,2.53,0,0,1,.26.64,2.16,2.16,0,0,1,0,.25,2.52,2.52,0,0,0,.05.31V274a.09.09,0,0,0,0,.06l-.05,0-.07,0-.08,0-.07,0-.08,0-.08-.05a.09.09,0,0,0,0-.06.07.07,0,0,0,0-.06l0-.29a1.72,1.72,0,0,0,0-.21,2.29,2.29,0,0,0-.59-1,.9.9,0,0,0-.19-.15l-.19-.12a2.69,2.69,0,0,0-.64-.26l-.68-.15a10.93,10.93,0,0,0-1.58-.18,13.43,13.43,0,0,0-1.55,0q-.42,0-.81.12a4.3,4.3,0,0,0-.8.22l0,0Z"/><path d="M200.65,272.09a.68.68,0,0,0-.21.1l-.21.14a1.13,1.13,0,0,0-.22.27c-.07.09-.13.19-.19.28a.58.58,0,0,0-.06.17c0,.07,0,.13,0,.18a2,2,0,0,0-.07.54,2.59,2.59,0,0,0,.11.54,4.09,4.09,0,0,0,.32.95,2.49,2.49,0,0,0,.6.85l.22.19.24.15a5.45,5.45,0,0,0,.55.25,2.93,2.93,0,0,0,.59.11l.46.05.48,0,.79.07.76.07.58.05.56.07a2.39,2.39,0,0,1,1,.38,8.93,8.93,0,0,1,.73.63,8.37,8.37,0,0,1,.63.79,3.55,3.55,0,0,1,.49.83.85.85,0,0,1,.09.27,1.67,1.67,0,0,1,.06.29,1.11,1.11,0,0,1-.18.72,1.61,1.61,0,0,1-.57.56,5,5,0,0,1-1.62.47c-.6.08-1.2.12-1.8.14h-.28q-.69,0-1.41-.06a8.79,8.79,0,0,1-1.68-.22l-.42-.11c-.14-.05-.27-.09-.4-.15a4.19,4.19,0,0,1-.84-.44,3,3,0,0,1-.62-.61,1.35,1.35,0,0,1-.18-.33,2.49,2.49,0,0,1-.16-.33v-.07a.07.07,0,0,1,0-.06.15.15,0,0,1,0-.06l.05,0,.07,0H199l.07,0,.06,0s0,0,0,.05l0,.06a1.69,1.69,0,0,0,.13.27,1.17,1.17,0,0,0,.15.27,2.33,2.33,0,0,0,.83.69,5.67,5.67,0,0,0,1.09.4,10.07,10.07,0,0,0,1.61.23l1.61,0a4.77,4.77,0,0,1,.51,0,3.38,3.38,0,0,0,.48,0,1.45,1.45,0,0,0,.35,0l.35,0a6.17,6.17,0,0,0,.77-.16,4.3,4.3,0,0,0,.71-.26.33.33,0,0,0,.11-.08l.09-.08a1,1,0,0,0,.24-.31.75.75,0,0,0,.11-.37.77.77,0,0,0,0-.27.92.92,0,0,0-.08-.27,3.48,3.48,0,0,0-.43-.77c-.18-.23-.38-.47-.59-.71l-.09-.06-.06-.08a4.91,4.91,0,0,0-.53-.42,1.81,1.81,0,0,0-.64-.28l-.25,0a1,1,0,0,0-.23,0l-.31-.05-.33,0-.74-.07-.81-.05-.48-.05-.49,0a2.5,2.5,0,0,1-.72-.15,2.76,2.76,0,0,1-.68-.3A3,3,0,0,1,200,276a2.94,2.94,0,0,1-.53-1l-.15-.45c0-.15-.07-.31-.1-.46a2.35,2.35,0,0,1,0-.7,3,3,0,0,1,.2-.66c.07-.12.15-.24.24-.37a1,1,0,0,1,.29-.3,1.24,1.24,0,0,1,.23-.17l.25-.14a6.39,6.39,0,0,1,1.27-.38,12.64,12.64,0,0,1,1.37-.11h.4a8.46,8.46,0,0,1,.87.05,11.6,11.6,0,0,1,1.27.16c.26.05.51.12.77.19a3.17,3.17,0,0,1,.76.3,1.58,1.58,0,0,1,.24.15,1.08,1.08,0,0,1,.24.18,2.74,2.74,0,0,1,.47.57,2.3,2.3,0,0,1,.29.64c0,.11.05.19.06.25a3,3,0,0,0,.06.31v.06l0,.06-.05,0a.11.11,0,0,1-.07,0,.15.15,0,0,1-.15,0l-.08,0-.08,0a.06.06,0,0,0,0-.06.09.09,0,0,0,0-.07l0-.29a1.88,1.88,0,0,0-.05-.2,1.91,1.91,0,0,0-.25-.54,2.07,2.07,0,0,0-.38-.46.7.7,0,0,0-.19-.15l-.19-.12a2.76,2.76,0,0,0-.65-.26l-.69-.15a10.93,10.93,0,0,0-1.58-.18,11.51,11.51,0,0,0-1.55,0c-.28,0-.55.07-.8.12a4.3,4.3,0,0,0-.8.22l0,0A.06.06,0,0,0,200.65,272.09Z"/><path d="M210.12,272.56a.11.11,0,0,1,0,.08s0,0,0,0,0,0-.07,0l0,0h-.1l-.08,0-.08,0-.05-.06a.05.05,0,0,1,0,0v-.09l0-.18a.6.6,0,0,1,0-.19l0-.25a1,1,0,0,0,0-.24,2.38,2.38,0,0,1,0-.36,2.23,2.23,0,0,1,0-.37.06.06,0,0,1,0-.06s0-.05,0-.06a.14.14,0,0,1,.07,0,0,0,0,0,1,0,0,.08.08,0,0,1,.07,0h0l.08,0a.19.19,0,0,0,.08,0,.1.1,0,0,0,.05,0,.09.09,0,0,1,0,.07V271a2.31,2.31,0,0,1,0,.37c0,.11,0,.23,0,.35l0,.25a1,1,0,0,0,0,.25v.16a.2.2,0,0,1,0,.11Zm1.37,9.52,0,.06a.15.15,0,0,1,0,.06l-.05,0s0,0-.07,0h-.07s-.07,0-.08,0l-.08,0-.06-.06-.06,0v-.09l0-.56-.09-.62-.21-1.53-.2-1.51-.22-1.59c-.06-.53-.1-1.06-.14-1.59a.2.2,0,0,1,0-.07l0,0a.07.07,0,0,1,.07,0l.07,0,0,0h0a.11.11,0,0,0,.08,0l.05,0s.06,0,.06.06l.06.06v.06c0,.53.07,1.05.14,1.56s.12,1,.19,1.57.15,1,.24,1.51l.21,1.53c0,.11,0,.22,0,.33l0,.31,0,.29Z"/><path d="M214.89,271.8l1.8,0H217a10.29,10.29,0,0,1,1.55.15,3.9,3.9,0,0,1,.57.13,1.69,1.69,0,0,1,.51.23l.26.21.24.25a7.94,7.94,0,0,1,.7,1.08c.21.38.4.75.57,1.13s.32.77.38.93a5.81,5.81,0,0,1,.26.65,6.5,6.5,0,0,1,.39,1.37l0,.2a2.5,2.5,0,0,1-.22,1.51,2,2,0,0,1-.21.35l-.28.31-.37.24a3.64,3.64,0,0,1-.39.23l-.65.24-.71.15-.91.16-.93.11a6.86,6.86,0,0,1-.91,0l-.22,0a4.62,4.62,0,0,1-.73-.07l-.52-.09a3.39,3.39,0,0,1-.51-.17,2.21,2.21,0,0,1-.8-.65,6.56,6.56,0,0,1-.53-.81l-.1-.15c0-.06-.05-.11-.07-.17a2,2,0,0,1-.11-.2,1.8,1.8,0,0,0-.08-.21c0-.1-.08-.2-.11-.29a1.66,1.66,0,0,1-.12-.31c-.24-.67-.45-1.34-.65-2a5.69,5.69,0,0,1-.2-.91,6.89,6.89,0,0,1-.06-1.11,3.87,3.87,0,0,0,.06-.46,2,2,0,0,1,.14-.43,2.06,2.06,0,0,1,.57-.84,2.4,2.4,0,0,1,1-.55l.64-.14Zm.09.44a4.31,4.31,0,0,0-1.06.2,1.89,1.89,0,0,0-1,.73,2.51,2.51,0,0,0-.11.23,1.62,1.62,0,0,0-.16.45,2.78,2.78,0,0,0-.08.49,6.82,6.82,0,0,0,.06,1.1,6.72,6.72,0,0,0,.18.87c.19.65.4,1.29.63,1.93a1.78,1.78,0,0,0,.12.29l.09.29a.69.69,0,0,1,.1.19,1.8,1.8,0,0,1,.08.21.45.45,0,0,1,.1.14c0,.06.05.1.07.15s.19.32.3.48a2.67,2.67,0,0,0,.34.43,1.2,1.2,0,0,0,.21.17,1,1,0,0,0,.25.15,2.37,2.37,0,0,0,.4.15l.42.07a4.78,4.78,0,0,0,.64,0h.23l.83,0,.9-.12.89-.15c.24,0,.49-.11.73-.18a3.33,3.33,0,0,0,.67-.26,1.48,1.48,0,0,0,.25-.14l.23-.19.23-.24a2.29,2.29,0,0,0,.18-.29,2.24,2.24,0,0,0,.22-1.38l0-.11a5.82,5.82,0,0,0-.38-1.33,6.41,6.41,0,0,0-.26-.64c-.06-.17-.19-.47-.38-.92s-.33-.7-.52-1.06a6,6,0,0,0-.68-1l-.15-.17a.74.74,0,0,0-.2-.16l-.14-.09-.13-.06-.28-.07a2.47,2.47,0,0,0-.29-.06,9,9,0,0,0-1.58-.14h-.47Zm11.46,9.65.08,0,.08,0,.06.07,0,.06v.06a.06.06,0,0,1,0,.06.15.15,0,0,1,0,.06l0,0a.15.15,0,0,1-.08,0h-.07a2.57,2.57,0,0,1-.4-.06l-.37-.09a3.47,3.47,0,0,1-1.15-.59,6.63,6.63,0,0,1-.89-.86,5.85,5.85,0,0,0-.34-.48,4,4,0,0,1-.28-.48c-.1-.17-.17-.32-.23-.44s-.15-.29-.23-.46l-.55-1.12c-.18-.38-.35-.75-.52-1.13v-.08l0,0a.15.15,0,0,1,0-.06l.07,0,.08,0,.07,0,.08,0a.22.22,0,0,1,.09.07l0,0,0,.08.53,1.06c.16.36.34.72.52,1.08.08.17.14.32.2.44l.23.44c.09.15.19.3.28.46s.19.28.31.44a9.17,9.17,0,0,0,.7.69,3,3,0,0,0,.91.5l.27.09.29.07h.08Z"/></svg>
