<svg id="Layer_1" data-name="Layer 1" xmlns="http://www.w3.org/2000/svg" width="460" height="160" viewBox="0 0 460 160"><defs><style>.cls-1{fill:#b3b3b3;}.cls-2{fill:#fff;}</style></defs><title>playknapv2</title><rect class="cls-1" x="2.43" y="19.96" width="455.15" height="136.98" rx="59.87" ry="59.87"/><path d="M402.19,157.81H57.81c-31,0-56.31-23.82-56.31-53.11V72.19c0-29.28,25.26-53.1,56.31-53.1H402.19c31.05,0,56.31,23.82,56.31,53.1V104.7C458.5,134,433.24,157.81,402.19,157.81ZM57.81,20.83c-30,0-54.46,23-54.46,51.36V104.7c0,28.33,24.43,51.37,54.46,51.37H402.19c30,0,54.46-23,54.46-51.37V72.19c0-28.32-24.43-51.36-54.46-51.36Z"/><rect class="cls-2" x="2.43" y="2.51" width="455.15" height="136.98" rx="59.87" ry="59.87"/><path d="M402.19,140.36H57.81c-31,0-56.31-23.82-56.31-53.11V54.75C1.5,25.46,26.76,1.64,57.81,1.64H402.19c31.05,0,56.31,23.82,56.31,53.11v32.5C458.5,116.54,433.24,140.36,402.19,140.36ZM57.81,3.38c-30,0-54.46,23-54.46,51.37v32.5c0,28.33,24.43,51.37,54.46,51.37H402.19c30,0,54.46-23,54.46-51.37V54.75c0-28.33-24.43-51.37-54.46-51.37Z"/><path d="M153.26,101.93H114.53V97.72H119V35.8h-4.45V31.59h35.6q10.41,0,12.79.77t4.6,1.66A9.36,9.36,0,0,1,171,36.29a35.66,35.66,0,0,1,2.73,3.44,14.25,14.25,0,0,1,2.18,4.71,54.6,54.6,0,0,1,1.21,6.26,57.5,57.5,0,0,1,.51,8,58.67,58.67,0,0,1-.51,8.08,49.81,49.81,0,0,1-1.26,6.37A15.2,15.2,0,0,1,173.64,78a37.35,37.35,0,0,1-2.73,3.43,9.12,9.12,0,0,1-3.49,2.27c-1.48.6-2.75,1.06-3.79,1.39a20.83,20.83,0,0,1-4.4.72q-4.24.33-9.41.33h-9.1V97.72h12.54Zm2.63-23.82V39.34H140.72V78.11Z"/><path d="M184.21,21.17h23.26V97.72h4.05v4.21H184.21V97.72h4V25.38h-4Z"/><path d="M225.37,60,223,42.66a82,82,0,0,1,23-3.32q13,0,18.92,4.32a12.73,12.73,0,0,1,4,4.82A16.18,16.18,0,0,1,270.48,56V97.72h4v4.21H262.09l-4-8.42h-1.31q-2,6.43-5,8.26t-8.14,1.82c-3.47,0-5.82,0-7-.11s-2.87-.26-5-.55a11.59,11.59,0,0,1-4.85-1.61,22.77,22.77,0,0,1-3.64-3.15q-3.54-3.66-3.54-12.85,0-11.53,6.57-15.29a21.68,21.68,0,0,1,6.63-2.38,47,47,0,0,1,8.24-.61h10.22V47.65H239.74L237,60Zm25.9,33.56V75.34H237.41V93.51Z"/><path d="M317.71,41H336L325.4,98.5q-2.32,12.41-9.15,18.72a23.61,23.61,0,0,1-16.64,6.31,48.83,48.83,0,0,1-10.62-.88l2-17.39h12.34V99.38a3.31,3.31,0,0,0-.5-2,3.1,3.1,0,0,0-2.53-.89h-8.6l-6.67-51.29H281.1V41h24.38l4.85,55.5h7.38Z"/></svg>
