<svg id="Layer_1" data-name="Layer 1" xmlns="http://www.w3.org/2000/svg" width="440" height="160" viewBox="0 0 440 160"><defs><style>.cls-1{fill:#b3b3b3;}.cls-2{fill:#fff;}</style></defs><title>playknap</title><rect class="cls-1" x="4.38" y="19.96" width="431.25" height="137.61" rx="59.87" ry="59.87"/><path d="M383.15,158.45H56.85A53.41,53.41,0,0,1,3.5,105.1V72.44A53.42,53.42,0,0,1,56.85,19.08h326.3A53.42,53.42,0,0,1,436.5,72.44V105.1A53.41,53.41,0,0,1,383.15,158.45ZM56.85,20.84a51.66,51.66,0,0,0-51.6,51.6V105.1a51.66,51.66,0,0,0,51.6,51.6h326.3a51.66,51.66,0,0,0,51.6-51.6V72.44a51.66,51.66,0,0,0-51.6-51.6Z"/><rect class="cls-2" x="4.38" y="2.43" width="431.25" height="137.61" rx="59.87" ry="59.87"/><path d="M383.15,140.92H56.85A53.42,53.42,0,0,1,3.5,87.56V54.9A53.41,53.41,0,0,1,56.85,1.55h326.3A53.41,53.41,0,0,1,436.5,54.9V87.56A53.42,53.42,0,0,1,383.15,140.92ZM56.85,3.3A51.66,51.66,0,0,0,5.25,54.9V87.56a51.66,51.66,0,0,0,51.6,51.6h326.3a51.66,51.66,0,0,0,51.6-51.6V54.9a51.66,51.66,0,0,0-51.6-51.6Z"/><path d="M150.38,94.37H117.82V91.14h3.74V43.61h-3.74V40.38h29.92q8.76,0,10.76.59c1.33.4,2.62.82,3.87,1.28A7.89,7.89,0,0,1,165.3,44a30.62,30.62,0,0,1,2.3,2.64,10.5,10.5,0,0,1,1.82,3.61,36.83,36.83,0,0,1,1,4.8,40,40,0,0,1,.43,6.17,40.59,40.59,0,0,1-.43,6.2,33.23,33.23,0,0,1-1.06,4.89A11.11,11.11,0,0,1,167.51,76a29,29,0,0,1-2.29,2.63,8,8,0,0,1-2.94,1.75c-1.25.45-2.31.81-3.19,1.06a18.16,18.16,0,0,1-3.69.55c-2.39.17-5,.26-7.91.26h-7.65v8.93h10.54Zm2.21-18.28V46.33H139.84V76.09Z"/><path d="M176.4,32.39H196V91.14h3.4v3.23H176.4V91.14h3.4V35.62h-3.4Z"/><path d="M211,62.14l-2-13.26a74.92,74.92,0,0,1,19.3-2.55q11,0,15.9,3.31a10.18,10.18,0,0,1,3.4,3.7,11.63,11.63,0,0,1,1.36,5.74V91.14h3.4v3.23H241.86l-3.4-6.47h-1.1q-1.71,4.93-4.17,6.34a14,14,0,0,1-6.84,1.4c-2.92,0-4.89,0-5.91-.08s-2.41-.2-4.17-.43a10.48,10.48,0,0,1-4.08-1.23,18.94,18.94,0,0,1-3.06-2.42q-3-2.81-3-9.87,0-8.83,5.53-11.73a19.27,19.27,0,0,1,5.57-1.83,43.83,43.83,0,0,1,6.93-.47h8.58V52.71h-9.69l-2.29,9.43ZM232.76,87.9V74H221.12V87.9Z"/><path d="M288.62,47.6H304l-8.92,44.13q-2,9.52-7.7,14.37a20.94,20.94,0,0,1-14,4.85,45,45,0,0,1-8.93-.68l1.7-13.35h10.37V92.41a2.37,2.37,0,0,0-.42-1.53A2.76,2.76,0,0,0,274,90.2h-7.23l-5.61-39.36h-3.31V47.6h20.49l4.08,42.6h6.2Z"/></svg>
