<svg id="Layer_1" data-name="Layer 1" xmlns="http://www.w3.org/2000/svg" width="1450" height="757.78" viewBox="0 0 1450 757.78"><defs><style>.cls-1{opacity:0.95;}.cls-2{fill:#f5efcb;}.cls-3{opacity:0.61;}.cls-4{fill:#2e9cc6;}</style></defs><title>settingsuknapv2</title><g class="cls-1"><rect class="cls-2" x="3.5" width="1443" height="757.78" rx="12" ry="12"/></g><path d="M561.07,154.31l2.22-16.16h10.49l2.54,11.49h9.1v-6.73l-16.15-13.12a17.65,17.65,0,0,1-5.33-6.82,21.47,21.47,0,0,1-1.72-8.67A26.3,26.3,0,0,1,563,107a10.71,10.71,0,0,1,2.33-4.22,15.71,15.71,0,0,1,3.37-2.74,14.4,14.4,0,0,1,4.42-1.61,65.37,65.37,0,0,1,12.22-.9,57.79,57.79,0,0,1,17.3,3l-2.21,16.17h-9.51l-2.21-11.5H580.5V112l16.16,13.11A17.78,17.78,0,0,1,602,132a22.27,22.27,0,0,1,1.72,9,20.9,20.9,0,0,1-1.23,7.95,12.21,12.21,0,0,1-3.07,4.54,13,13,0,0,1-4.88,2.51q-4.85,1.44-13.94,1.44A69.41,69.41,0,0,1,561.07,154.31Z"/><path d="M626.26,150.63h10.25l2.13-10h8.78l1.88,14a68.65,68.65,0,0,1-18.45,2.7c-2.24,0-4.15-.08-5.74-.23a23.37,23.37,0,0,1-5.33-1.25A12.08,12.08,0,0,1,615,153a14.62,14.62,0,0,1-3.08-5.3,23.75,23.75,0,0,1-1.27-8.22V127.82q0-11.23,3.28-15.9a20.47,20.47,0,0,1,2.17-2.78,8.42,8.42,0,0,1,2.83-1.85c1.2-.5,2.22-.89,3-1.16a15.73,15.73,0,0,1,3.52-.59q3.45-.27,6.73-.27c2.18,0,3.71,0,4.59,0s2,.13,3.52.31a10.86,10.86,0,0,1,3.32.81,19.12,19.12,0,0,1,2.63,1.62,6.5,6.5,0,0,1,2.21,2.6,19.5,19.5,0,0,1,1.23,3.91,28.53,28.53,0,0,1,0,11.05,19.38,19.38,0,0,1-1.23,3.9,6.46,6.46,0,0,1-2.21,2.61,19.12,19.12,0,0,1-2.63,1.62,10.9,10.9,0,0,1-3.32.8,63.4,63.4,0,0,1-7.46.36h-6.64Zm0-38.62v16.17h11.23V112Z"/><path d="M658.08,106.62h4.09L671,96h5.9v10.6h8.61v4.31h-8.61v40.6h4.68v-8.89h3.93v6.55c0,3.18-1,5.33-2.91,6.47s-4.88,1.71-8.81,1.71c-1.53,0-2.71,0-3.53-.09a12.14,12.14,0,0,1-3.2-.85,6.72,6.72,0,0,1-3-2.2q-2.7-3.78-2.71-11.68V110.93h-3.27Z"/><path d="M690.47,106.62h4.1L703.42,96h5.91v10.6h8.61v4.31h-8.61v40.6H714v-8.89h3.94v6.55c0,3.18-1,5.33-2.92,6.47s-4.87,1.71-8.81,1.71c-1.53,0-2.71,0-3.53-.09a12,12,0,0,1-3.19-.85,6.69,6.69,0,0,1-3-2.2q-2.7-3.78-2.7-11.68V110.93h-3.28Z"/><path d="M745.41,156H723.27v-3.41h3.27V110h-3.27v-3.41h18.85v46h3.29Zm-4-67.45q1.47,1.26,1.47,6.19c0,3.3-.49,5.36-1.47,6.2s-3.28,1.26-6.89,1.26-6-.42-7.09-1.26-1.68-2.9-1.68-6.2.56-5.35,1.68-6.19,3.48-1.26,7.09-1.26S740.4,87.73,741.39,88.57Z"/><path d="M802.56,156H783.7V113.45H771.64V156H752.79v-3.41h3.27V110h-3.27v-3.41h10.9l2.87,6.83h1.07c1.14-3.36,2.88-5.56,5.2-6.6s5.95-1.58,10.87-1.58,8.74,1,11.48,3,4.1,5.5,4.1,10.47v33.86h3.28Z"/><path d="M811.41,170.57a8.22,8.22,0,0,1-2.87-4.17,32.21,32.21,0,0,1-.65-7.64c0-3.5.68-6.2,2.05-8.08s2.87-2.83,4.51-2.83h6.15v-1.17c-2.79-.6-4.18-2.48-4.18-5.66v-5.57q-7.14-2.59-7.14-12.3v-1.89q0-8,2.63-11.23a17.55,17.55,0,0,1,1.8-2,6.75,6.75,0,0,1,2.34-1.3c1-.36,1.86-.63,2.54-.81a19.16,19.16,0,0,1,2.91-.45c1.26-.12,2.24-.18,3-.18h3.28c3.77,0,6.55.51,8.32,1.53s2.67,2.93,2.67,5.75h1.07l.82-3.68c.6-2.7,1.34-4.49,2.21-5.39s2.49-1.35,4.84-1.35h3.61v8h-.91c-1,0-1.55.84-1.55,2.52v10.51a16.07,16.07,0,0,1-2.22,8.62c-.87,1.56-2.79,2.87-5.74,3.95q-2.79,1-12.79,1h-2.95v2.16a9.41,9.41,0,0,0,.57,3.9,2.25,2.25,0,0,0,2.22,1.13h12.21a10.86,10.86,0,0,1,7.59,3.18q3.4,3.19,3.4,10.56,0,9.33-4.51,12.62t-17.71,3.28a82.86,82.86,0,0,1-11.15-.59A12.75,12.75,0,0,1,811.41,170.57Zm27.88-15.45H819.45v9.43h19.84Zm-4.59-25.77v-16.8H823.47v16.8Z"/><path d="M859.05,154.67l2-14h9.43l2.22,10H882v-6.47l-15.33-11.58A16.63,16.63,0,0,1,861.6,127,15.83,15.83,0,0,1,860,119.6a17.39,17.39,0,0,1,1.11-6.87,10.91,10.91,0,0,1,2.74-4,11.59,11.59,0,0,1,4.35-2.25,45.87,45.87,0,0,1,12.18-1.26,53.33,53.33,0,0,1,16.27,2.7l-2,14h-8.6l-2-10h-8.53v6.47L891,130.06a16.78,16.78,0,0,1,5.09,5.62,15.83,15.83,0,0,1,1.55,7.36,17.34,17.34,0,0,1-1.1,6.87,11.19,11.19,0,0,1-2.75,4,11.6,11.6,0,0,1-4.34,2.24q-4.35,1.26-12.71,1.26A63.1,63.1,0,0,1,859.05,154.67Z"/><path d="M914.9,108.87c3.22,0,5.29.52,6.19,1.57s1.35,3.5,1.35,7.36-.46,6.31-1.39,7.32-3,1.53-6.24,1.53-5.33-.51-6.31-1.53-1.48-3.47-1.48-7.36.51-6.35,1.52-7.37S911.67,108.87,914.9,108.87Zm0,30.27c3.22,0,5.29.52,6.19,1.57s1.35,3.5,1.35,7.36-.46,6.3-1.39,7.32-3,1.53-6.24,1.53-5.33-.51-6.31-1.53S907,151.92,907,148s.51-6.35,1.52-7.37S911.67,139.14,914.9,139.14Z"/><path d="M183.42,332.85v-2.08h18.7l2.75,13.52h.95l3.45-13.52h13.4v2.08h-2.2v30.61h2.2v2.08H209l5.55-31.49h-2.05l-7.95,31.49H198l-6.45-31.49h-2l4,31.49H183.42v-2.08h2.2V332.85Z"/><path d="M228.42,357.33V337.5h-2v-2.08h11.5v26h7.35v-26h9.5v28h2v2.08h-6.15l-2-4.16H248c0,1.94-.64,3.25-1.92,3.94a12.62,12.62,0,0,1-5.83,1c-3.43,0-5.73-.23-6.9-.71a6.68,6.68,0,0,1-3.5-2.57A10.76,10.76,0,0,1,228.42,357.33Z"/><path d="M261.77,364.72l1.2-8.54h5.75l1.35,6.08h5.7v-3.95l-9.35-7.06a10.16,10.16,0,0,1-3.1-3.43,9.68,9.68,0,0,1-.95-4.49,10.64,10.64,0,0,1,.68-4.19,6.79,6.79,0,0,1,1.67-2.41,7,7,0,0,1,2.65-1.36,28.05,28.05,0,0,1,7.43-.77,32.73,32.73,0,0,1,9.92,1.64l-1.2,8.55h-5.25l-1.2-6.08h-5.2v3.94l9.35,7.06a10.16,10.16,0,0,1,3.1,3.43,9.71,9.71,0,0,1,.95,4.49,10.62,10.62,0,0,1-.67,4.19,6.8,6.8,0,0,1-1.68,2.41,7.12,7.12,0,0,1-2.65,1.37,29.76,29.76,0,0,1-7.75.76A38.35,38.35,0,0,1,261.77,364.72Z"/><path d="M303.77,365.54h-13.5v-2.08h2v-26h-2v-2.08h11.5v28h2Zm-2.45-41.13q.9.76.9,3.78t-.9,3.78c-.6.51-2,.77-4.2.77s-3.64-.26-4.32-.77-1-1.77-1-3.78.34-3.27,1-3.78,2.12-.76,4.32-.76S300.72,323.9,301.32,324.41Z"/><path d="M322.49,366.36c-3.61,0-5.79-.12-6.52-.38s-1.46-.54-2.18-.85a4.64,4.64,0,0,1-1.65-1.12,17.84,17.84,0,0,1-1.27-1.7,7.53,7.53,0,0,1-1.05-2.41,32.36,32.36,0,0,1-.8-7.28v-4.27a28,28,0,0,1,.57-6.25,11.39,11.39,0,0,1,1.28-3.45,19.22,19.22,0,0,1,1.27-1.7,4.78,4.78,0,0,1,1.65-1.12c.72-.31,1.31-.55,1.78-.71a8.7,8.7,0,0,1,2.05-.36c1.37-.11,2.83-.16,4.4-.16a33.33,33.33,0,0,1,10,1.64l-1.2,8.55h-5.75l-1.35-6.63h-5.2V362.8h5.2l1.35-6.62h5.75l1.2,8.54A25.4,25.4,0,0,1,322.49,366.36Z"/><path d="M341.82,336.79c2,0,3.22.32,3.77,1s.83,2.13.83,4.49-.28,3.84-.85,4.46-1.83.93-3.8.93-3.25-.31-3.85-.93-.9-2.11-.9-4.49.31-3.87.92-4.49S339.85,336.79,341.82,336.79Zm0,18.46c2,0,3.22.32,3.77.95s.83,2.14.83,4.5-.28,3.84-.85,4.46-1.83.93-3.8.93-3.25-.31-3.85-.93-.9-2.12-.9-4.49.31-3.87.92-4.49S339.85,355.25,341.82,355.25Z"/><path d="M182.67,495.94l1.35-9.85h6.4l1.55,7h5.55V489l-9.85-8a10.84,10.84,0,0,1-3.25-4.16,13.1,13.1,0,0,1-1-5.28,15.87,15.87,0,0,1,.48-4.44,6.44,6.44,0,0,1,1.42-2.58,9.69,9.69,0,0,1,2-1.67,8.9,8.9,0,0,1,2.7-1,39.47,39.47,0,0,1,7.45-.55A35.22,35.22,0,0,1,208,463.19l-1.35,9.86h-5.8l-1.35-7h-5v4.11l9.85,8a10.67,10.67,0,0,1,3.25,4.16,13.55,13.55,0,0,1,1,5.47,12.78,12.78,0,0,1-.75,4.85,7.45,7.45,0,0,1-1.87,2.77,7.89,7.89,0,0,1-3,1.53,31.7,31.7,0,0,1-8.5.88A42.1,42.1,0,0,1,182.67,495.94Z"/><path d="M239.27,479.79v4.27q0,6.9-2,9.69a18.7,18.7,0,0,1-1.35,1.7,4.68,4.68,0,0,1-1.75,1.12c-.77.31-1.4.55-1.9.72a9.85,9.85,0,0,1-2.15.35,45.65,45.65,0,0,1-7.42.14,20.67,20.67,0,0,1-3.48-.49c-.47-.17-1-.41-1.72-.72a4.33,4.33,0,0,1-1.58-1.12,16.73,16.73,0,0,1-1.22-1.7,7.14,7.14,0,0,1-1-2.41,30.92,30.92,0,0,1-.8-7.28v-4.27q0-6.9,2-9.7a18.39,18.39,0,0,1,1.35-1.69,4.69,4.69,0,0,1,1.75-1.13c.77-.31,1.4-.54,1.9-.71a10,10,0,0,1,2.2-.35c1.4-.11,2.77-.17,4.1-.17s2.24,0,2.73,0,1.15.06,2,.14a8.58,8.58,0,0,1,2,.35c.47.17,1,.4,1.73.71a4.39,4.39,0,0,1,1.57,1.13,16.37,16.37,0,0,1,1.23,1.69,8.07,8.07,0,0,1,1,2.41A32.8,32.8,0,0,1,239.27,479.79Zm-9.5,13.91V470.15h-7.35V493.7Z"/><path d="M246.52,488.77V468.94h-2v-2.08H256v26h7.35v-26h9.5v28h2V497h-6.15l-2-4.16h-.65c0,1.94-.64,3.25-1.92,3.95a12.75,12.75,0,0,1-5.83,1q-5.15,0-6.9-.72a6.63,6.63,0,0,1-3.5-2.57A10.74,10.74,0,0,1,246.52,488.77Z"/><path d="M310,497h-11.5V471h-7.35v26h-11.5V494.9h2v-26h-2v-2.08h6.65L288,471h.65a6.35,6.35,0,0,1,3.17-4,17.1,17.1,0,0,1,6.63-1,11.61,11.61,0,0,1,7,1.84q2.5,1.83,2.5,6.38V494.9h2Z"/><path d="M343.62,497h-6.15l-2-4.16h-.65q-1.45,3.18-3,4.08a9.43,9.43,0,0,1-4.72.91,21.36,21.36,0,0,1-5.4-.39,19.07,19.07,0,0,1-2-.85,4.67,4.67,0,0,1-1.53-1.15A13,13,0,0,1,317,493.7a8.75,8.75,0,0,1-1-2.41,29.09,29.09,0,0,1-.8-7.23v-3.45q0-6.9,2-9.69a18.7,18.7,0,0,1,1.35-1.7,4.68,4.68,0,0,1,1.75-1.12c.77-.31,1.4-.55,1.9-.72a10,10,0,0,1,2.2-.35c1.4-.11,2.71-.17,3.92-.17s2.46,0,3.73.11v-7.83h-2v-2.08h11.55V494.9h2Zm-18.9-26v21.85h7.35V471Z"/><path d="M360.62,497V494.9h2.2V464.29h-2.2v-2.08h25.3v11.72h-5.85L378,465.49h-4.45v12.93h9.55v3h-9.55V493.7H378l2.05-8.44h5.85V497Z"/><path d="M390.17,472.67V470h2v-2.63q0-6.14,2.17-8.65t6.93-2.52a23,23,0,0,1,5.1.71l-.85,8.38h-7.6v3.29a1.59,1.59,0,0,0,.25,1,1.52,1.52,0,0,0,1.25.44h6.1v2.63h-3.85V494.9h3.5V497h-15V494.9h2V472.67Z"/><path d="M408.42,472.67V470h2v-2.63q0-6.14,2.17-8.65t6.93-2.52a23,23,0,0,1,5.1.71l-.85,8.38h-7.6v3.29a1.59,1.59,0,0,0,.25,1,1.52,1.52,0,0,0,1.25.44h6.1v2.63h-3.85V494.9h3.5V497h-15V494.9h2V472.67Z"/><path d="M436.92,493.7h6.25l1.3-6.08h5.35l1.15,8.54a41.85,41.85,0,0,1-11.25,1.65c-1.37,0-2.54-.05-3.5-.14a13.86,13.86,0,0,1-3.25-.77,7.36,7.36,0,0,1-2.9-1.75,9,9,0,0,1-1.88-3.23,14.74,14.74,0,0,1-.77-5v-7.12c0-4.57.66-7.8,2-9.7a12.64,12.64,0,0,1,1.32-1.69,5,5,0,0,1,1.73-1.13c.73-.31,1.35-.54,1.85-.71a9.74,9.74,0,0,1,2.15-.35c1.4-.11,2.76-.17,4.1-.17s2.26,0,2.8,0,1.25.08,2.15.19a6.65,6.65,0,0,1,2,.49,11.37,11.37,0,0,1,1.6,1,3.93,3.93,0,0,1,1.35,1.59,11.37,11.37,0,0,1,.75,2.38,17.37,17.37,0,0,1,0,6.74,11.57,11.57,0,0,1-.75,2.38,3.93,3.93,0,0,1-1.35,1.59,11.19,11.19,0,0,1-1.6,1,6.61,6.61,0,0,1-2,.5,40.55,40.55,0,0,1-4.55.21h-4.05Zm0-23.55V480h6.85v-9.86Z"/><path d="M470.79,497.81q-5.43,0-6.52-.39c-.74-.25-1.46-.54-2.18-.85a4.64,4.64,0,0,1-1.65-1.12,16.28,16.28,0,0,1-1.27-1.7,7.44,7.44,0,0,1-1.05-2.41,31.73,31.73,0,0,1-.8-7.28v-4.27a28,28,0,0,1,.57-6.25,11.39,11.39,0,0,1,1.28-3.45,16,16,0,0,1,1.27-1.69,4.66,4.66,0,0,1,1.65-1.13c.72-.31,1.31-.54,1.78-.71a8.69,8.69,0,0,1,2.05-.35c1.36-.11,2.83-.17,4.4-.17a33.33,33.33,0,0,1,10,1.64l-1.2,8.55h-5.75L472,469.6h-5.2v24.65H472l1.35-6.63h5.75l1.2,8.54A25.43,25.43,0,0,1,470.79,497.81Z"/><path d="M484.32,466.86h2.5l5.4-6.46h3.6v6.46h5.25v2.63h-5.25v24.76h2.85v-5.43h2.4v4c0,1.94-.6,3.25-1.78,3.95a10.91,10.91,0,0,1-5.37,1c-.94,0-1.65,0-2.15-.06a7.3,7.3,0,0,1-1.95-.52,4.07,4.07,0,0,1-1.85-1.34c-1.1-1.53-1.65-3.91-1.65-7.12V469.49h-2Z"/><path d="M504.57,496.16l1.2-8.54h5.75l1.35,6.08h5.7v-3.94l-9.35-7.07a10.12,10.12,0,0,1-3.1-3.42,9.61,9.61,0,0,1-.95-4.49,10.62,10.62,0,0,1,.67-4.19,6.63,6.63,0,0,1,1.68-2.41,6.9,6.9,0,0,1,2.65-1.37,28,28,0,0,1,7.42-.77,32.84,32.84,0,0,1,9.93,1.64l-1.2,8.55h-5.25l-1.2-6.08h-5.2v3.94l9.35,7.07a10.34,10.34,0,0,1,3.1,3.42,9.71,9.71,0,0,1,1,4.49,10.6,10.6,0,0,1-.68,4.19,6.83,6.83,0,0,1-1.67,2.41,7,7,0,0,1-2.65,1.37,29.68,29.68,0,0,1-7.75.77A38.33,38.33,0,0,1,504.57,496.16Z"/><path d="M538.62,468.23c2,0,3.22.32,3.77,1s.83,2.14.83,4.49-.29,3.84-.85,4.47-1.84.93-3.8.93-3.25-.31-3.85-.93-.9-2.12-.9-4.5.3-3.87.92-4.49S536.65,468.23,538.62,468.23Zm0,18.46c2,0,3.22.32,3.77,1s.83,2.13.83,4.49-.29,3.84-.85,4.46-1.84.93-3.8.93-3.25-.31-3.85-.93-.9-2.12-.9-4.49.3-3.87.92-4.49S536.65,486.69,538.62,486.69Z"/><path d="M214.52,593.65v2.08h-2.1l-5.7,32.7h-18.1l-4.6-32.7h-2.1v-2.08h14.5l2.6,31.49h4.45V593.65Z"/><path d="M244.12,611.23v4.27q0,6.9-2,9.7a18.39,18.39,0,0,1-1.35,1.69A4.69,4.69,0,0,1,239,628c-.77.31-1.4.54-1.9.71a9.85,9.85,0,0,1-2.15.35,44.53,44.53,0,0,1-7.42.14,19.62,19.62,0,0,1-3.48-.49c-.47-.17-1-.4-1.72-.71a4.34,4.34,0,0,1-1.58-1.13,16.46,16.46,0,0,1-1.22-1.69,7.31,7.31,0,0,1-1-2.41,31,31,0,0,1-.8-7.29v-4.27q0-6.9,2-9.69a18.7,18.7,0,0,1,1.35-1.7,4.68,4.68,0,0,1,1.75-1.12c.77-.31,1.4-.55,1.9-.72a10,10,0,0,1,2.2-.35c1.4-.11,2.77-.17,4.1-.17s2.24,0,2.73,0,1.15.06,2,.14a8.58,8.58,0,0,1,2,.35c.47.17,1,.41,1.73.72a4.37,4.37,0,0,1,1.57,1.12,16.63,16.63,0,0,1,1.23,1.7,7.86,7.86,0,0,1,1,2.41A32.77,32.77,0,0,1,244.12,611.23Zm-9.5,13.91V601.59h-7.35v23.55Z"/><path d="M249.62,588.5h11.5v37.85h2v2.08h-13.5v-2.08h2V590.58h-2Z"/><path d="M269.37,620.21V600.39h-2v-2.08h11.5v26h7.35v-26h9.5v28h2v2.08h-6.15l-2-4.16h-.65c0,1.93-.64,3.25-1.92,3.94a12.75,12.75,0,0,1-5.83,1q-5.15,0-6.9-.71a6.69,6.69,0,0,1-3.5-2.58A10.72,10.72,0,0,1,269.37,620.21Z"/><path d="M314,602.47v26h-11.5v-2.08h2v-26h-2v-2.08h6.65l1.75,4.16h.65a6.54,6.54,0,0,1,3-4,12.66,12.66,0,0,1,5.52-1q5.44,0,7.4,2.8a5.21,5.21,0,0,1,2.83-2.25,15.86,15.86,0,0,1,4.62-.55c3.23,0,5.67.62,7.32,1.84s2.48,3.35,2.48,6.38v20.65h2v2.08h-11.5v-26h-5.85v26h-9.5v-26Z"/><path d="M361.42,625.14h6.25l1.3-6.08h5.35l1.15,8.55a42.11,42.11,0,0,1-11.25,1.64c-1.37,0-2.53,0-3.5-.14a14.31,14.31,0,0,1-3.25-.76,7.37,7.37,0,0,1-2.9-1.76,8.93,8.93,0,0,1-1.87-3.23,14.41,14.41,0,0,1-.78-5v-7.12q0-6.84,2-9.69a12.79,12.79,0,0,1,1.33-1.7,5,5,0,0,1,1.72-1.12c.73-.31,1.35-.55,1.85-.72a9.85,9.85,0,0,1,2.15-.35c1.4-.11,2.77-.17,4.1-.17s2.27,0,2.8,0,1.25.08,2.15.19a6.61,6.61,0,0,1,2,.5,9.89,9.89,0,0,1,1.6,1,4,4,0,0,1,1.36,1.59,12.94,12.94,0,0,1,.75,2.38,17.91,17.91,0,0,1,0,6.74,12.7,12.7,0,0,1-.75,2.38,4,4,0,0,1-1.36,1.59,10.83,10.83,0,0,1-1.6,1,7,7,0,0,1-2,.49,40.23,40.23,0,0,1-4.55.22h-4.05Zm0-23.55v9.86h6.85v-9.86Z"/><path d="M386.62,599.67c2,0,3.22.32,3.77,1s.83,2.14.83,4.49-.28,3.85-.85,4.47-1.83.93-3.8.93-3.25-.31-3.85-.93-.9-2.12-.9-4.49.31-3.87.92-4.49S384.65,599.67,386.62,599.67Zm0,18.46c2,0,3.22.32,3.77,1s.83,2.14.83,4.49-.28,3.84-.85,4.46-1.83.94-3.8.94-3.25-.32-3.85-.94-.9-2.11-.9-4.49.31-3.87.92-4.49S384.65,618.13,386.62,618.13Z"/><g class="cls-3"><rect class="cls-4" x="679.5" y="319.51" width="197" height="49.29" rx="12" ry="12"/></g><g class="cls-3"><rect class="cls-4" x="679.5" y="457.51" width="197" height="49.29" rx="12" ry="12"/></g><g class="cls-3"><rect class="cls-4" x="679.5" y="599.21" width="589" height="49.29" rx="12" ry="12"/></g><path d="M689.86,268.38c.56,0,1,.08,1.22.11s.6,0,1.13.06a7.08,7.08,0,0,0,1,.1l1,.16.49.11a2,2,0,0,1,.44.05,2.26,2.26,0,0,0,.48.16l.49.22a6.36,6.36,0,0,1,2.1,1.55,11.64,11.64,0,0,1,1.56,2.14,1.37,1.37,0,0,0,.15.21,2,2,0,0,1,.1.27c.16.32.31.64.44,1l.39,1c.06.18.11.34.15.49a2.3,2.3,0,0,1,.14.42c.16.47.28.82.34,1.07a9.87,9.87,0,0,0,.25,1.07c.13.65.24,1.18.34,1.61s.16,1,.29,1.66a9.69,9.69,0,0,1,.1,1.17c0,.25.08.93.15,2,0,.47,0,.93,0,1.4a20.91,20.91,0,0,1-.2,2.78,10.84,10.84,0,0,1-1.22,3.95l-.49.75a5.26,5.26,0,0,1-.68.64,4.64,4.64,0,0,1-2.2,1,21.91,21.91,0,0,1-2.44.27,16.45,16.45,0,0,1-4.2-.64,24.3,24.3,0,0,1-4-1.66,23.41,23.41,0,0,1-2.59-1.87,14.65,14.65,0,0,1-2.35-2.25l-.53-.7a4.71,4.71,0,0,1-.44-.8,3.48,3.48,0,0,1-.3-.8,6.23,6.23,0,0,1-.24-.8,23.64,23.64,0,0,1-.44-4.49v-.38c0-1.64.11-3.26.24-4.87a16.16,16.16,0,0,1,.4-2.46,13.85,13.85,0,0,1,.78-2.3,7.35,7.35,0,0,1,.49-.85,6.16,6.16,0,0,1,.63-.8,2.27,2.27,0,0,1,.44-.38l.49-.32c.23-.11.79-.32,1.71-.64a10.76,10.76,0,0,1,3.32-.38Zm10.89,10.43c-.1-.46-.18-.82-.24-1.07s-.17-.55-.3-1a2.39,2.39,0,0,0-.14-.43,2.76,2.76,0,0,0-.15-.43c-.13-.39-.28-.76-.44-1.12a9.66,9.66,0,0,0-.54-1.12,8.79,8.79,0,0,0-1.41-1.93,5.65,5.65,0,0,0-1.81-1.34,3217295881109.46,3217295881109.46,0,0,0-.78-.32,2,2,0,0,0-.44-.05l-.44-.11c-1-.14-2.08-.25-3.12-.32-.52,0-1.05-.05-1.57-.05s-1.09,0-1.61.05a11.71,11.71,0,0,0-1.8.27,5.4,5.4,0,0,0-1.66.59l-.39.21a1.17,1.17,0,0,0-.35.27,2.39,2.39,0,0,0-.48.64,2.7,2.7,0,0,0-.4.7,11.91,11.91,0,0,0-1,3.79q-.2,2-.24,4c0,.43,0,.86,0,1.28,0,.58,0,1.15,0,1.72a18,18,0,0,0,.34,3c.06.21.13.45.19.7a6.48,6.48,0,0,0,.25.64,2.36,2.36,0,0,0,.39.69,4.31,4.31,0,0,1,.44.59,17.53,17.53,0,0,0,5.66,4.39,15.45,15.45,0,0,0,6.69,1.66,8.52,8.52,0,0,0,1-.06l1-.11a4.53,4.53,0,0,0,1.08-.32,2.57,2.57,0,0,0,1-.53,2.31,2.31,0,0,0,.54-.54,3.68,3.68,0,0,0,.44-.58,9.31,9.31,0,0,0,1.07-3.64,21.64,21.64,0,0,0,.15-2.51c0-.47,0-.91,0-1.34s-.06-1-.1-1.5-.06-1-.09-1.55-.14-.7-.2-1-.13-.69-.19-1-.07-.41-.1-.59A3.63,3.63,0,0,0,700.75,278.81Z"/><path d="M720.87,273.25a.18.18,0,0,1,.15.06.64.64,0,0,1,.1.16.94.94,0,0,0,.1.1v.22s0,.09,0,.16a.54.54,0,0,1-.05.16l-.1.1a1.18,1.18,0,0,0-.15.11h-.34c-1.3-.39-2.64-.76-4-1.12a13.55,13.55,0,0,0-4.15-.43l-.54.11-.54.1-.34.22a3.37,3.37,0,0,0-.34.21l-.49.22-.54.21a14,14,0,0,1-1.66.43,14.91,14.91,0,0,1-1.75.21,4.35,4.35,0,0,1-.74.06h-.88a.4.4,0,0,0-.14-.11s-.07,0-.1-.11a294270440017.67,294270440017.67,0,0,0-.1-.32,308283318078.65,308283318078.65,0,0,0,.1-.32l.1-.11a.56.56,0,0,1,.14-.1h.15a4.78,4.78,0,0,0,.73-.06h.69a10.58,10.58,0,0,0,1.61-.21,13,13,0,0,0,1.56-.43,4.06,4.06,0,0,1,.44-.16l.44-.21.39-.22A1.19,1.19,0,0,1,711,272a2.28,2.28,0,0,1,.69-.21l.68-.11h.73a15.1,15.1,0,0,1,2.2.16c1,.18,1.94.39,2.88.64.45.11.91.23,1.37.38S720.42,273.11,720.87,273.25Zm-9.76,21.82a301113938577.76,301113938577.76,0,0,0-.1.32.34.34,0,0,1-.1.16.3.3,0,0,1-.14.06l-.15.05a.49.49,0,0,1-.2-.05.12.12,0,0,1-.09-.06.26.26,0,0,1-.15-.16,1618487419912.16,1618487419912.16,0,0,1-.1-.32v-.8l-.05-1.12c0-1.39-.06-2.76-.09-4.12s-.07-2.76-.1-4.12c0-1.1-.05-2.21-.05-3.31,0-.72,0-1.41.05-2.09,0-1.82,0-3.62.1-5.4q.24-4.55.34-5.73c.1-.78.16-1.39.19-1.81a22.3,22.3,0,0,1,.69-3.48,8.41,8.41,0,0,1,1.56-3,4.41,4.41,0,0,1,.49-.48,2.58,2.58,0,0,1,.54-.37,1,1,0,0,1,.39-.22,3.42,3.42,0,0,1,.44-.16,3.51,3.51,0,0,1,.83-.11,2.88,2.88,0,0,1,.73.11,10.89,10.89,0,0,1,1.51.43,25,25,0,0,1,5.47,3.1c1.69,1.28,3.37,2.57,5,3.85a.19.19,0,0,1,.1.16.76.76,0,0,1,.09.16v.32a.76.76,0,0,0-.09.16l-.1.11a.17.17,0,0,1-.15,0,.17.17,0,0,1-.14.06.18.18,0,0,1-.15-.06.18.18,0,0,1-.15,0c-1.62-1.25-3.27-2.51-4.93-3.8a24.47,24.47,0,0,0-5.32-3,11.33,11.33,0,0,0-1.56-.43,2.4,2.4,0,0,0-1.57.32.94.94,0,0,0-.39.32l-.39.32a8.94,8.94,0,0,0-1.66,4,39.26,39.26,0,0,0-.49,4.39q-.24,3.9-.34,7.81c-.09,2.63-.13,5.26-.09,7.86,0,1.39.06,2.76.09,4.12s.12,2.76.15,4.11v1.34a1.25,1.25,0,0,1,.05.32Z"/><path d="M746.56,273.25a.18.18,0,0,1,.15.06.64.64,0,0,1,.1.16l.1.1v.22s0,.09,0,.16a.54.54,0,0,1,0,.16l-.1.1a.73.73,0,0,0-.15.11h-.34c-1.3-.39-2.64-.76-4-1.12a13.55,13.55,0,0,0-4.15-.43l-.54.11-.54.1-.34.22a3.37,3.37,0,0,0-.34.21l-.49.22-.54.21a14,14,0,0,1-1.66.43,14.91,14.91,0,0,1-1.75.21,4.35,4.35,0,0,1-.74.06h-.88a.4.4,0,0,0-.14-.11s-.07,0-.1-.11a1618487419911.78,1618487419911.78,0,0,1-.1-.32,1618487419912,1618487419912,0,0,1,.1-.32l.1-.11a.56.56,0,0,1,.14-.1h.15a4.78,4.78,0,0,0,.73-.06h.69a10.58,10.58,0,0,0,1.61-.21,13,13,0,0,0,1.56-.43,4.06,4.06,0,0,1,.44-.16l.44-.21.39-.22a1.19,1.19,0,0,1,.34-.16,2.31,2.31,0,0,1,.68-.21l.69-.11h.73a15.1,15.1,0,0,1,2.2.16c1,.18,1.93.39,2.88.64.45.11.91.23,1.37.38S746.11,273.11,746.56,273.25Zm-9.76,21.82a1849699908402.26,1849699908402.26,0,0,1-.1.32.44.44,0,0,1-.1.16.3.3,0,0,1-.14.06.5.5,0,0,1-.15.05.49.49,0,0,1-.2-.05.12.12,0,0,1-.09-.06.26.26,0,0,1-.15-.16,323697483944,323697483944,0,0,0-.1-.32v-.8l0-1.12c0-1.39-.06-2.76-.09-4.12s-.07-2.76-.1-4.12c0-1.1,0-2.21,0-3.31,0-.72,0-1.41,0-2.09,0-1.82,0-3.62.1-5.4q.24-4.55.34-5.73c.1-.78.16-1.39.19-1.81a22.3,22.3,0,0,1,.69-3.48,8.41,8.41,0,0,1,1.56-3,4.41,4.41,0,0,1,.49-.48,2.8,2.8,0,0,1,.53-.37,1.06,1.06,0,0,1,.4-.22,4,4,0,0,1,.43-.16,3.65,3.65,0,0,1,.83-.11,2.89,2.89,0,0,1,.74.11,10.89,10.89,0,0,1,1.51.43,25,25,0,0,1,5.47,3.1c1.69,1.28,3.37,2.57,5,3.85a.19.19,0,0,1,.1.16.76.76,0,0,1,.09.16v.32a.76.76,0,0,0-.09.16l-.1.11a.17.17,0,0,1-.15,0,.17.17,0,0,1-.14.06.18.18,0,0,1-.15-.06.18.18,0,0,1-.15,0c-1.63-1.25-3.27-2.51-4.93-3.8a24.47,24.47,0,0,0-5.32-3,11.33,11.33,0,0,0-1.56-.43,2.4,2.4,0,0,0-1.57.32.94.94,0,0,0-.39.32l-.39.32a8.94,8.94,0,0,0-1.66,4,39.26,39.26,0,0,0-.49,4.39q-.24,3.9-.34,7.81c-.1,2.63-.13,5.26-.1,7.86,0,1.39.07,2.76.1,4.12s.12,2.76.15,4.11v1.34a1.25,1.25,0,0,1,0,.32Z"/><path d="M689.86,403.11c.56,0,1,.08,1.22.11s.6,0,1.13,0a6.11,6.11,0,0,0,1,.11l1,.16.49.11a2,2,0,0,1,.44.05,2.26,2.26,0,0,0,.48.16l.49.22a6.36,6.36,0,0,1,2.1,1.55,11.64,11.64,0,0,1,1.56,2.14,1.37,1.37,0,0,0,.15.21,2,2,0,0,1,.1.27c.16.32.31.64.44,1l.39,1q.09.27.15.48a2.68,2.68,0,0,1,.14.43c.16.47.28.82.34,1.07a9.87,9.87,0,0,0,.25,1.07c.13.64.24,1.18.34,1.61s.16,1,.29,1.65a10,10,0,0,1,.1,1.18c0,.25.08.93.15,2,0,.47,0,.93,0,1.39a20.67,20.67,0,0,1-.2,2.78,10.84,10.84,0,0,1-1.22,4l-.49.75a5.26,5.26,0,0,1-.68.64,4.64,4.64,0,0,1-2.2,1,21.91,21.91,0,0,1-2.44.27,16.45,16.45,0,0,1-4.2-.64,25.2,25.2,0,0,1-4-1.66,22.25,22.25,0,0,1-2.59-1.88,14.58,14.58,0,0,1-2.35-2.24l-.53-.7a5.12,5.12,0,0,1-.44-.8,3.66,3.66,0,0,1-.3-.8,6.23,6.23,0,0,1-.24-.8,23.66,23.66,0,0,1-.44-4.5v-.37c0-1.64.11-3.26.24-4.87a16.16,16.16,0,0,1,.4-2.46,13.85,13.85,0,0,1,.78-2.3,7.35,7.35,0,0,1,.49-.85,6.26,6.26,0,0,1,.63-.81,2.61,2.61,0,0,1,.44-.37l.49-.32c.23-.11.79-.32,1.71-.64a10.76,10.76,0,0,1,3.32-.38Zm10.89,10.43c-.1-.46-.18-.82-.24-1.07s-.17-.55-.3-1a2.16,2.16,0,0,0-.14-.43,2.45,2.45,0,0,0-.15-.43,11.35,11.35,0,0,0-.44-1.12,10.67,10.67,0,0,0-.54-1.13,9,9,0,0,0-1.41-1.92,5.65,5.65,0,0,0-1.81-1.34,3217295880933.48,3217295880933.48,0,0,1-.78-.32,2,2,0,0,0-.44,0l-.44-.11c-1-.14-2.08-.25-3.12-.32-.52,0-1.05-.05-1.57-.05s-1.09,0-1.61.05a11.71,11.71,0,0,0-1.8.27,5.15,5.15,0,0,0-1.66.59l-.39.21a1.17,1.17,0,0,0-.35.27,2.39,2.39,0,0,0-.48.64,2.82,2.82,0,0,0-.4.69,12,12,0,0,0-1,3.8q-.2,2-.24,4c0,.43,0,.85,0,1.28s0,1.14,0,1.71a18,18,0,0,0,.34,3c.06.21.13.45.19.69a5.78,5.78,0,0,0,.25.65,2.36,2.36,0,0,0,.39.69,4.31,4.31,0,0,1,.44.59,17.67,17.67,0,0,0,5.66,4.39,15.3,15.3,0,0,0,6.69,1.65,8.56,8.56,0,0,0,1-.05l1-.11a4.53,4.53,0,0,0,1.08-.32,2.57,2.57,0,0,0,1-.53,2.31,2.31,0,0,0,.54-.54,3.36,3.36,0,0,0,.44-.59,9.26,9.26,0,0,0,1.07-3.63,21.81,21.81,0,0,0,.15-2.52c0-.46,0-.91,0-1.33s-.06-1-.1-1.5-.06-1.05-.09-1.55-.14-.7-.2-1-.13-.69-.19-1-.07-.41-.1-.59A3.63,3.63,0,0,0,700.75,413.54Z"/><path d="M720.87,408a.21.21,0,0,1,.15,0l.1.16a.52.52,0,0,0,.1.11v.22s0,.08,0,.16a.54.54,0,0,1-.05.16l-.1.1a1.18,1.18,0,0,0-.15.11h-.34c-1.3-.39-2.64-.77-4-1.12a13.55,13.55,0,0,0-4.15-.43c-.2,0-.38.07-.54.11l-.54.1a19.15,19.15,0,0,1-.68.43l-.49.21-.54.22A14,14,0,0,1,708,409a14.91,14.91,0,0,1-1.75.21,4.38,4.38,0,0,1-.74.05h-.88a.56.56,0,0,0-.14-.1s-.07,0-.1-.11a.23.23,0,0,1,0-.16.25.25,0,0,1-.05-.16,308283318078.65,308283318078.65,0,0,0,.1-.32l.1-.11.14-.11h.15a4.72,4.72,0,0,0,.73-.05h.69a12,12,0,0,0,1.61-.21,13,13,0,0,0,1.56-.43,2.67,2.67,0,0,1,.44-.16,3.61,3.61,0,0,0,.44-.22l.39-.21a1.19,1.19,0,0,1,.34-.16,2.28,2.28,0,0,1,.69-.21l.68-.11h.73a15.1,15.1,0,0,1,2.2.16c1,.18,1.94.39,2.88.64.45.11.91.23,1.37.38S720.42,407.84,720.87,408Zm-9.76,21.82a223239644125.94,223239644125.94,0,0,0-.1.32.4.4,0,0,1-.1.16.3.3,0,0,1-.14.06l-.15.05a.49.49,0,0,1-.2-.05.12.12,0,0,1-.09-.06.29.29,0,0,1-.15-.16,1618487419947.06,1618487419947.06,0,0,0-.1-.32V429l-.05-1.12c0-1.39-.06-2.77-.09-4.12s-.07-2.77-.1-4.12c0-1.11-.05-2.21-.05-3.32,0-.71,0-1.4.05-2.08,0-1.82,0-3.62.1-5.4q.24-4.54.34-5.73c.1-.78.16-1.39.19-1.82a22,22,0,0,1,.69-3.47,8.41,8.41,0,0,1,1.56-3.05,4.41,4.41,0,0,1,.49-.48,3.06,3.06,0,0,1,.54-.38,1.15,1.15,0,0,1,.39-.21,3.42,3.42,0,0,1,.44-.16,3.51,3.51,0,0,1,.83-.11,2.88,2.88,0,0,1,.73.11,10.89,10.89,0,0,1,1.51.43,25,25,0,0,1,5.47,3.1c1.69,1.28,3.37,2.57,5,3.85a.19.19,0,0,1,.1.16.76.76,0,0,1,.09.16v.32a.76.76,0,0,0-.09.16l-.1.11a.17.17,0,0,1-.15.05.17.17,0,0,1-.14.06.18.18,0,0,1-.15-.06.18.18,0,0,1-.15-.05c-1.62-1.25-3.27-2.51-4.93-3.8a24.51,24.51,0,0,0-5.32-3,12.88,12.88,0,0,0-1.56-.42,2.34,2.34,0,0,0-1.57.32.94.94,0,0,0-.39.32l-.39.32a8.9,8.9,0,0,0-1.66,4,39.26,39.26,0,0,0-.49,4.39q-.24,3.9-.34,7.8c-.09,2.64-.13,5.26-.09,7.87q0,2.09.09,4.11c.07,1.4.12,2.77.15,4.12v1.34a1.19,1.19,0,0,1,.05.32Z"/><path d="M746.56,408a.21.21,0,0,1,.15,0l.1.16a.52.52,0,0,0,.1.11v.22s0,.08,0,.16a.54.54,0,0,1,0,.16l-.1.1a.73.73,0,0,0-.15.11h-.34c-1.3-.39-2.64-.77-4-1.12a13.55,13.55,0,0,0-4.15-.43c-.2,0-.38.07-.54.11l-.54.1a19.15,19.15,0,0,1-.68.43l-.49.21-.54.22a14,14,0,0,1-1.66.43,14.91,14.91,0,0,1-1.75.21,4.38,4.38,0,0,1-.74.05h-.88a.56.56,0,0,0-.14-.1s-.07,0-.1-.11a.23.23,0,0,1,0-.16.25.25,0,0,1,0-.16,1618487419912,1618487419912,0,0,1,.1-.32l.1-.11.14-.11h.15a4.72,4.72,0,0,0,.73-.05h.69a12,12,0,0,0,1.61-.21,13,13,0,0,0,1.56-.43,2.67,2.67,0,0,1,.44-.16,3.61,3.61,0,0,0,.44-.22l.39-.21a1.19,1.19,0,0,1,.34-.16,2.31,2.31,0,0,1,.68-.21l.69-.11h.73a15.1,15.1,0,0,1,2.2.16c1,.18,1.93.39,2.88.64.45.11.91.23,1.37.38S746.11,407.84,746.56,408ZM736.8,429.8a1618487419911.79,1618487419911.79,0,0,0-.1.32.55.55,0,0,1-.1.16.3.3,0,0,1-.14.06.5.5,0,0,1-.15.05.49.49,0,0,1-.2-.05.12.12,0,0,1-.09-.06.29.29,0,0,1-.15-.16,231212488536.43,231212488536.43,0,0,0-.1-.32V429l0-1.12c0-1.39-.06-2.77-.09-4.12s-.07-2.77-.1-4.12c0-1.11,0-2.21,0-3.32,0-.71,0-1.4,0-2.08,0-1.82,0-3.62.1-5.4q.24-4.54.34-5.73c.1-.78.16-1.39.19-1.82a22,22,0,0,1,.69-3.47,8.41,8.41,0,0,1,1.56-3.05,4.41,4.41,0,0,1,.49-.48,3.39,3.39,0,0,1,.53-.38,1.19,1.19,0,0,1,.4-.21,4,4,0,0,1,.43-.16,3.65,3.65,0,0,1,.83-.11,2.89,2.89,0,0,1,.74.11,10.89,10.89,0,0,1,1.51.43,25,25,0,0,1,5.47,3.1c1.69,1.28,3.37,2.57,5,3.85a.19.19,0,0,1,.1.16.76.76,0,0,1,.09.16v.32a.76.76,0,0,0-.09.16l-.1.11a.17.17,0,0,1-.15.05.17.17,0,0,1-.14.06.18.18,0,0,1-.15-.06.18.18,0,0,1-.15-.05c-1.63-1.25-3.27-2.51-4.93-3.8a24.51,24.51,0,0,0-5.32-3,12.88,12.88,0,0,0-1.56-.42,2.34,2.34,0,0,0-1.57.32.94.94,0,0,0-.39.32l-.39.32a8.9,8.9,0,0,0-1.66,4,39.26,39.26,0,0,0-.49,4.39q-.24,3.9-.34,7.8t-.1,7.87c0,1.39.07,2.76.1,4.11s.12,2.77.15,4.12v1.34a1.19,1.19,0,0,1,0,.32Z"/><path d="M681.27,563h5.52c1.85,0,3.69,0,5.51,0h13.82a.49.49,0,0,1,.2.05.12.12,0,0,0,.1.06.32.32,0,0,1,.14.16,269747903290.75,269747903290.75,0,0,1,.1.32,359663871129,359663871129,0,0,1-.1.32.57.57,0,0,1-.14.11.25.25,0,0,1-.15,0,.17.17,0,0,1-.15,0h-5.91c-1.3,0-2.62,0-4,0h-16v-4.65c0-1.54,0-3.07,0-4.6v-5.83c0-2,0-3.91,0-5.83v-8.51c0-2.81,0-5.65,0-8.5a.41.41,0,0,1,0-.16.23.23,0,0,1,0-.16l.1-.11a.45.45,0,0,0,.15-.11h.34a.37.37,0,0,0,.15.11l.09.11a.19.19,0,0,1,0,.16.47.47,0,0,1,0,.16v8.5c0,2.82.05,5.65.05,8.51v5.83c0,1.92,0,3.85,0,5.77V563Z"/><path d="M718.14,536.75c.55,0,1,.07,1.22.1s.6,0,1.12.06a7.31,7.31,0,0,0,1,.1l1,.16.48.11a1.9,1.9,0,0,1,.44.05,2,2,0,0,0,.49.16l.49.22a6.36,6.36,0,0,1,2.1,1.55,11.64,11.64,0,0,1,1.56,2.14.69.69,0,0,0,.15.21l.1.27c.16.32.3.64.44,1l.39,1a4.08,4.08,0,0,1,.14.48,1.69,1.69,0,0,1,.15.43c.16.46.28.82.34,1.06a7.59,7.59,0,0,0,.24,1.07c.13.65.25,1.18.35,1.61s.16,1,.29,1.66.1.92.1,1.17.08.93.14,2c0,.46,0,.92,0,1.39a20.84,20.84,0,0,1-.19,2.78,11.15,11.15,0,0,1-1.22,4l-.49.74a7.28,7.28,0,0,1-.69.65,4.68,4.68,0,0,1-2.19,1,19.77,19.77,0,0,1-2.44.27,16.45,16.45,0,0,1-4.2-.64,24.41,24.41,0,0,1-4-1.66,22.93,22.93,0,0,1-2.58-1.87,14.22,14.22,0,0,1-2.35-2.25L710,557a6.24,6.24,0,0,1-.44-.81,3.3,3.3,0,0,1-.29-.8,4.68,4.68,0,0,1-.24-.8,22.85,22.85,0,0,1-.44-4.49v-.38q0-2.46.24-4.86a17.47,17.47,0,0,1,.39-2.46,15.18,15.18,0,0,1,.78-2.3c.17-.33.33-.61.49-.86a8.3,8.3,0,0,1,.64-.8,2,2,0,0,1,.44-.38l.48-.32c.23-.11.8-.32,1.71-.64a10.91,10.91,0,0,1,3.32-.37ZM729,547.18c-.1-.47-.18-.82-.25-1.07l-.29-1a1.84,1.84,0,0,0-.15-.43,2.68,2.68,0,0,0-.14-.43c-.13-.39-.28-.76-.44-1.12a9.66,9.66,0,0,0-.54-1.12,8.79,8.79,0,0,0-1.41-1.93,5.85,5.85,0,0,0-1.81-1.33,1.65,1.65,0,0,0-.39-.17,2.14,2.14,0,0,0-.39-.16,2,2,0,0,0-.44,0l-.44-.11c-1-.14-2.09-.25-3.13-.32-.52,0-1,0-1.56,0s-1.09,0-1.61,0a11.83,11.83,0,0,0-1.81.27,5.49,5.49,0,0,0-1.66.59l-.39.21a1.27,1.27,0,0,0-.34.27,2.42,2.42,0,0,0-.49.64,3.21,3.21,0,0,0-.39.7,12,12,0,0,0-1,3.79c-.13,1.32-.22,2.64-.25,4,0,.43-.05.86-.05,1.29s0,1.14.05,1.71a19,19,0,0,0,.34,3c.07.22.13.45.2.7a5.55,5.55,0,0,0,.24.64,2.93,2.93,0,0,0,.39.69,3.62,3.62,0,0,1,.44.59,17.68,17.68,0,0,0,5.67,4.39,15.45,15.45,0,0,0,6.69,1.66,8.35,8.35,0,0,0,1-.06l1-.1a4.79,4.79,0,0,0,1.07-.33,2.53,2.53,0,0,0,1-.53,2.7,2.7,0,0,0,.54-.53,4.31,4.31,0,0,0,.44-.59,9.43,9.43,0,0,0,1.07-3.64,21.64,21.64,0,0,0,.15-2.51c0-.47,0-.91,0-1.34s-.07-1-.1-1.5-.06-1-.1-1.55-.13-.69-.19-1-.13-.69-.2-1-.06-.41-.1-.59A3.18,3.18,0,0,0,729,547.18Z"/><path d="M752.08,562.15q.69-2.88,1.32-5.72c.45-1.93.91-3.85,1.37-5.78.35-1.5.71-3,1.07-4.44s.67-3,1-4.44c.26-1.1.52-2.22.78-3.37l.78-3.31a.25.25,0,0,0,.05-.16.57.57,0,0,1,.14-.11.52.52,0,0,0,.1-.11h.34a.33.33,0,0,1,.15.06l.1.1a.34.34,0,0,0,.1.16v.33c-.27,1.1-.53,2.22-.79,3.37l-.78,3.31c-.36,1.46-.71,2.94-1.07,4.44s-.67,2.94-1,4.44q-.78,3.42-1.61,6.85t-1.61,6.84a3.43,3.43,0,0,0-.44,0l-1.07-2.3c-.33-.78-.67-1.56-1-2.35s-.78-1.73-1.17-2.62-.83-1.78-1.22-2.67c-.49-1.07-1-2.14-1.42-3.21l-1.46-3.21c-.1.43-.21.87-.34,1.34l-.3,1.28c-.23.85-.45,1.73-.68,2.62l-.68,2.62q-.54,2.15-1.08,4.23c-.36,1.42-.71,2.85-1.07,4.27H740c-.29-1.24-.6-2.49-.93-3.74s-.65-2.44-1-3.69q-.59-2.19-1.17-4.44l-1.18-4.44q-.83-3.26-1.66-6.47t-1.71-6.47v-.22a.64.64,0,0,1,0-.16.16.16,0,0,1,.05-.1.55.55,0,0,1,.1-.16.29.29,0,0,1,.15-.06H733a.52.52,0,0,0,.1.11.57.57,0,0,1,.14.11.23.23,0,0,1,.05.16q.82,3.25,1.71,6.47c.55,2.17,1.11,4.33,1.66,6.47q.59,2.25,1.17,4.44t1.17,4.44c.2.82.39,1.62.59,2.41s.44,1.62.63,2.4c.26-1,.51-1.94.74-2.94s.5-1.92.73-2.89.45-1.78.68-2.67.46-1.73.69-2.62.39-1.57.58-2.36.39-1.56.59-2.35a3.43,3.43,0,0,0,.44,0c.65,1.43,1.28,2.83,1.9,4.22s1.26,2.78,1.91,4.17l1.17,2.68c.39.86.78,1.73,1.17,2.62.13.29.26.59.39.91s.31.57.44.86.13.28.2.42S752,562,752.08,562.15Z"/><path d="M851.14,275c.55,0,1,.07,1.22.1s.6,0,1.12.06a7.31,7.31,0,0,0,1,.1l1,.16.48.11a1.46,1.46,0,0,1,.44.06,3.49,3.49,0,0,0,.49.16l.49.21a6.51,6.51,0,0,1,2.1,1.55,12,12,0,0,1,1.56,2.14.69.69,0,0,0,.15.21l.1.27c.16.32.3.64.44,1l.39,1a4.71,4.71,0,0,1,.14.48,1.69,1.69,0,0,1,.15.43c.16.46.28.82.34,1.07a7.52,7.52,0,0,0,.24,1.06c.13.65.25,1.18.35,1.61s.16,1,.29,1.66.1.93.1,1.17.08.93.14,2c0,.46,0,.92,0,1.39a20.73,20.73,0,0,1-.19,2.78,11.09,11.09,0,0,1-1.22,4c-.17.25-.33.5-.49.75a8.81,8.81,0,0,1-.69.64,4.68,4.68,0,0,1-2.19,1,18,18,0,0,1-2.44.27,16,16,0,0,1-4.2-.64,24.41,24.41,0,0,1-4-1.66,22.93,22.93,0,0,1-2.58-1.87,14.22,14.22,0,0,1-2.35-2.25l-.54-.69a6.83,6.83,0,0,1-.44-.8,3.54,3.54,0,0,1-.29-.81,4.68,4.68,0,0,1-.24-.8,22.78,22.78,0,0,1-.44-4.49V288q0-2.46.24-4.86a17.47,17.47,0,0,1,.39-2.46,15.18,15.18,0,0,1,.78-2.3c.17-.32.33-.61.49-.86a8.3,8.3,0,0,1,.64-.8,2.32,2.32,0,0,1,.44-.38l.48-.32c.23-.1.8-.32,1.71-.64a10.91,10.91,0,0,1,3.32-.37ZM862,285.39c-.1-.47-.18-.82-.25-1.07l-.29-1a2,2,0,0,0-.15-.43,2.68,2.68,0,0,0-.14-.43c-.13-.39-.28-.76-.44-1.12a10.51,10.51,0,0,0-.54-1.12,9,9,0,0,0-1.41-1.93,5.85,5.85,0,0,0-1.81-1.33,1.65,1.65,0,0,0-.39-.17,2.14,2.14,0,0,0-.39-.16,2,2,0,0,0-.44-.05l-.44-.11c-1-.14-2.09-.24-3.13-.32-.52,0-1-.05-1.56-.05s-1.09,0-1.61.05a11.83,11.83,0,0,0-1.81.27,5.49,5.49,0,0,0-1.66.59l-.39.21a1.27,1.27,0,0,0-.34.27,2.42,2.42,0,0,0-.49.64,3.21,3.21,0,0,0-.39.7,12,12,0,0,0-1,3.8c-.13,1.31-.22,2.63-.25,3.95,0,.43-.05.86-.05,1.29s0,1.14.05,1.71a18.88,18.88,0,0,0,.34,3c.07.22.13.45.2.7a5.55,5.55,0,0,0,.24.64,3.21,3.21,0,0,0,.39.7,3.16,3.16,0,0,1,.44.58,17.68,17.68,0,0,0,5.67,4.39,15.45,15.45,0,0,0,6.69,1.66,8.35,8.35,0,0,0,1-.06l1-.1a4.78,4.78,0,0,0,1.07-.32,3.45,3.45,0,0,0,1.52-1.07,4.31,4.31,0,0,0,.44-.59,9.43,9.43,0,0,0,1.07-3.64,21.51,21.51,0,0,0,.15-2.51c0-.47,0-.91,0-1.34s-.07-1-.1-1.5-.06-1-.1-1.55-.13-.69-.19-1-.13-.7-.2-1-.06-.41-.1-.59A3.18,3.18,0,0,0,862,285.39Z"/><path d="M866.72,299.4v.75a4.86,4.86,0,0,0,0,.69V302a.54.54,0,0,1,0,.16.34.34,0,0,1-.05.16l-.09.1a.73.73,0,0,0-.15.11h-.29a.37.37,0,0,1-.15-.11.65.65,0,0,1-.15-.1.32.32,0,0,0-.05-.16.25.25,0,0,1,0-.16v-2.52a7.08,7.08,0,0,0,0-.85v-1.29c0-.57,0-1.14-.05-1.71v-1.76c0-.79,0-1.55,0-2.3s0-1.55-.05-2.3c0-1.14,0-2.28,0-3.43s0-2.22,0-3.37a1644177696430.06,1644177696430.06,0,0,1,.1-.32l.1-.1a.57.57,0,0,0,.14-.11h.35a.57.57,0,0,0,.14.11l.1.1a323697484035.9,323697484035.9,0,0,0,.1.32c0,1.15,0,2.27,0,3.37s0,2.27.05,3.37c0,.79,0,1.57,0,2.36v2.3c0,.57,0,1.14,0,1.71v1.76a5.18,5.18,0,0,1,.05.81v1.28Zm10-15.73c-.32,0-.63-.05-.93-.05s-.6,0-.92.05a16.92,16.92,0,0,0-1.91.33c-.65.14-1.28.3-1.9.48a14.57,14.57,0,0,0-1.95.8,8.29,8.29,0,0,0-1.86,1.12,1.4,1.4,0,0,0-.39.38,3.94,3.94,0,0,0-.49.48l-.1.1a.3.3,0,0,1-.14.06q-.11,0-.15,0h-.19l-.1-.11a.4.4,0,0,1-.1-.16.23.23,0,0,1,0-.16.16.16,0,0,1,0-.11v-.05a.23.23,0,0,0,0-.16.74.74,0,0,1,.1-.16l.54-.54c.09-.1.24-.24.44-.42a8.75,8.75,0,0,1,2-1.23,17.29,17.29,0,0,1,2.15-.91c.65-.18,1.31-.34,2-.48a12.17,12.17,0,0,1,2-.38h2c.36,0,.72.09,1.08.16s.71.16,1.07.27a11.86,11.86,0,0,1,2.39,1.12,11.1,11.1,0,0,1,2.05,1.77c.75.93,1.47,1.89,2.15,2.89a14.87,14.87,0,0,1,1.76,3.2c.1.33.19.63.29.91a5.57,5.57,0,0,1,.2,1,7.63,7.63,0,0,1,0,.8v.75c0,.6,0,1.07,0,1.39s-.08.75-.15,1.39l-.24,1.87-.34,2.3a.21.21,0,0,0,0,.16l-.1.11a.73.73,0,0,1-.15.11.2.2,0,0,1-.14,0h-.15a.29.29,0,0,0-.15,0l-.14-.11a.91.91,0,0,0-.1-.16v-.16c0-.07,0-.13,0-.16l.34-2.2.24-1.87c0-.6.07-1.07.1-1.39s.07-.71.1-1.28v-.7a4.6,4.6,0,0,0,0-.64,6.75,6.75,0,0,0-.15-.86c-.09-.24-.19-.51-.29-.8a16.13,16.13,0,0,0-.93-2c-.39-.6-.79-1.19-1.22-1.76q-.39-.54-.78-1a11,11,0,0,0-.78-1,7.32,7.32,0,0,0-2.54-2,11.41,11.41,0,0,0-3-1h-.39Z"/><path d="M851.14,403.11l1.22.11c.23,0,.6,0,1.12,0a6.31,6.31,0,0,0,1,.11l1,.16.48.11a1.9,1.9,0,0,1,.44.05,2.54,2.54,0,0,0,.49.16l.49.22a6.36,6.36,0,0,1,2.1,1.55,11.64,11.64,0,0,1,1.56,2.14.69.69,0,0,0,.15.21c0,.07.06.16.1.27.16.32.3.64.44,1l.39,1a4.71,4.71,0,0,1,.14.48,2,2,0,0,1,.15.43c.16.47.28.82.34,1.07a7.59,7.59,0,0,0,.24,1.07c.13.64.25,1.18.35,1.61s.16,1,.29,1.65.1.93.1,1.18.08.93.14,2c0,.47,0,.93,0,1.39a20.62,20.62,0,0,1-.19,2.78,11,11,0,0,1-1.22,4c-.17.25-.33.5-.49.75a6.14,6.14,0,0,1-.69.64,4.6,4.6,0,0,1-2.19,1,21.91,21.91,0,0,1-2.44.27,16.45,16.45,0,0,1-4.2-.64,25.31,25.31,0,0,1-4-1.66,23,23,0,0,1-2.58-1.88,14.58,14.58,0,0,1-2.35-2.24c-.16-.22-.34-.45-.54-.7a6.11,6.11,0,0,1-.44-.8,3.63,3.63,0,0,1-.29-.8,5,5,0,0,1-.24-.8,22.88,22.88,0,0,1-.44-4.5v-.37c0-1.64.11-3.26.24-4.87a17.47,17.47,0,0,1,.39-2.46,16,16,0,0,1,.78-2.3c.17-.32.33-.6.49-.85a7.36,7.36,0,0,1,.64-.81,2.27,2.27,0,0,1,.44-.37l.48-.32c.23-.11.8-.32,1.71-.64a10.84,10.84,0,0,1,3.32-.38ZM862,413.54c-.1-.46-.18-.82-.25-1.07l-.29-1a1.69,1.69,0,0,0-.15-.43,2.39,2.39,0,0,0-.14-.43,11.35,11.35,0,0,0-.44-1.12,10.67,10.67,0,0,0-.54-1.13,9,9,0,0,0-1.41-1.92,5.88,5.88,0,0,0-1.81-1.34,3217295880912.95,3217295880912.95,0,0,1-.78-.32,2,2,0,0,0-.44,0l-.44-.11c-1-.14-2.09-.25-3.13-.32-.52,0-1-.05-1.56-.05s-1.09,0-1.61.05a11.83,11.83,0,0,0-1.81.27,5.23,5.23,0,0,0-1.66.59l-.39.21a1.27,1.27,0,0,0-.34.27,2.42,2.42,0,0,0-.49.64,3.14,3.14,0,0,0-.39.69,12,12,0,0,0-1,3.8c-.13,1.32-.22,2.64-.25,4,0,.43-.05.85-.05,1.28s0,1.14.05,1.71a19.14,19.14,0,0,0,.34,3c.07.21.13.45.2.69a5.69,5.69,0,0,0,.24.65,2.93,2.93,0,0,0,.39.69,3.62,3.62,0,0,1,.44.59,17.82,17.82,0,0,0,5.67,4.39,15.3,15.3,0,0,0,6.69,1.65,8.4,8.4,0,0,0,1-.05l1-.11a4.31,4.31,0,0,0,1.07-.32,3.25,3.25,0,0,0,1.52-1.07,3.36,3.36,0,0,0,.44-.59,9.43,9.43,0,0,0,1.07-3.63,21.81,21.81,0,0,0,.15-2.52c0-.46,0-.91,0-1.33s-.07-1-.1-1.5-.06-1.05-.1-1.55-.13-.7-.19-1-.13-.69-.2-1-.06-.41-.1-.59A3.58,3.58,0,0,0,862,413.54Z"/><path d="M866.72,427.56v.74a5,5,0,0,0,0,.7v1.12a.47.47,0,0,1,0,.16.32.32,0,0,1-.05.16l-.09.11a.48.48,0,0,0-.15.11h-.29a.48.48,0,0,1-.15-.11.45.45,0,0,1-.15-.11.38.38,0,0,0-.05-.16.24.24,0,0,1,0-.16v-2.51a7.25,7.25,0,0,0,0-.86v-1.28c0-.57,0-1.14-.05-1.71V422c0-.78,0-1.55,0-2.3s0-1.55-.05-2.3c0-1.14,0-2.28,0-3.42s0-2.23,0-3.37a.54.54,0,0,1,0-.16.47.47,0,0,1,0-.16l.1-.11a.56.56,0,0,0,.14-.1h.35a.56.56,0,0,0,.14.1l.1.11a269747903359.51,269747903359.51,0,0,0,.1.32c0,1.14,0,2.27,0,3.37s0,2.26.05,3.37c0,.78,0,1.57,0,2.35V422c0,.57,0,1.14,0,1.71v1.77a5.13,5.13,0,0,1,.05.8v1.29Zm10-15.73c-.32,0-.63-.05-.93-.05s-.6,0-.92.05a16.91,16.91,0,0,0-1.91.32c-.65.14-1.28.31-1.9.48a14.65,14.65,0,0,0-1.95.81,8.29,8.29,0,0,0-1.86,1.12,1.4,1.4,0,0,0-.39.37,4.88,4.88,0,0,0-.49.48l-.1.11a.26.26,0,0,1-.14.05q-.11.06-.15,0h-.19l-.1-.1a.49.49,0,0,1-.1-.16.25.25,0,0,1,0-.16.18.18,0,0,1,0-.11V415a.25.25,0,0,0,0-.16.55.55,0,0,1,.1-.16l.54-.54a4.6,4.6,0,0,1,.44-.43,8.75,8.75,0,0,1,2-1.23,18.94,18.94,0,0,1,2.15-.91c.65-.17,1.31-.33,2-.48a12.16,12.16,0,0,1,2-.37h2a10,10,0,0,1,1.08.16c.35.07.71.16,1.07.27a9.88,9.88,0,0,1,4.44,2.88c.75.93,1.47,1.89,2.15,2.89a15.18,15.18,0,0,1,1.76,3.21c.1.32.19.63.29.91a5.47,5.47,0,0,1,.2,1,8,8,0,0,1,0,.81v.74c0,.61,0,1.07,0,1.39s-.08.75-.15,1.39l-.24,1.88-.34,2.3a.19.19,0,0,0,0,.16.94.94,0,0,0-.1.1.37.37,0,0,1-.15.11.16.16,0,0,1-.14.05h-.15a.43.43,0,0,0-.15-.05.4.4,0,0,1-.14-.11l-.1-.16v-.16a.15.15,0,0,1,0-.16l.34-2.19.24-1.87c0-.61.07-1.07.1-1.39s.07-.72.1-1.29v-.69a4.48,4.48,0,0,0,0-.64,6.45,6.45,0,0,0-.15-.86l-.29-.8a14.86,14.86,0,0,0-.93-2c-.39-.61-.79-1.19-1.22-1.76q-.39-.54-.78-1a11,11,0,0,0-.78-1,7.35,7.35,0,0,0-2.54-2,11.77,11.77,0,0,0-3-1h-.39Z"/><path d="M1202,564v.16a.34.34,0,0,1-.1.16.4.4,0,0,1-.14.11.18.18,0,0,1-.15,0h-.29a.48.48,0,0,0-.15-.1l-.1-.11a.25.25,0,0,0,0-.16v-.21c0-.54,0-1,0-1.45a10.41,10.41,0,0,0,0-1.07c.07-1.25.12-2,.15-2.3s0-1,0-2.19V556c0-.32,0-.69,0-1.12,0-2,0-3.91,0-5.83s-.15-3.92-.25-5.89c-.13-2.85-.22-5.68-.29-8.5s-.16-5.7-.19-8.56v-.16a.76.76,0,0,1,.09-.16.52.52,0,0,0,.1-.11.48.48,0,0,1,.15-.1.3.3,0,0,0,.14-.06.18.18,0,0,1,.15.06.23.23,0,0,1,.15,0l.1.16.09.11v.21c.07,2.82.13,5.65.2,8.51s.21,5.68.34,8.5c.1,2,.16,3.92.2,5.88s0,3.93,0,5.89c0,.67,0,1.35,0,2s0,1.36,0,2-.07,1.66-.1,2.52S1202,563.17,1202,564Zm23-20.43a.37.37,0,0,1,.15.06.16.16,0,0,1,.14.05.52.52,0,0,1,.1.11.74.74,0,0,0,.1.16v.37l-.1.11a.49.49,0,0,1-.1.16.2.2,0,0,1-.14,0,.19.19,0,0,1-.15.06h-2.78c-.95,0-1.87,0-2.79,0h-3.71c-1.23,0-2.47,0-3.71.05-1.82,0-3.64,0-5.47.06H1201s-.08,0-.14,0a.18.18,0,0,1-.15-.06.91.91,0,0,1-.1-.16.57.57,0,0,1-.09-.16v-.32a.57.57,0,0,0,.09-.16l.1-.11a.21.21,0,0,1,.15,0,.16.16,0,0,1,.14-.05c1.83,0,3.63,0,5.42-.06s3.63,0,5.42,0h3.76c1.24,0,2.48-.05,3.71-.05h2.5c.48,0,1,0,1.51-.06Zm.2,20.06a.34.34,0,0,0,.05.16V564a.25.25,0,0,1-.05.16.91.91,0,0,1-.1.16l-.1.11a.37.37,0,0,1-.15.05h-.14a.21.21,0,0,1-.15-.05.16.16,0,0,1-.14-.11.52.52,0,0,1-.1-.11,2,2,0,0,1-.1-.21.47.47,0,0,0,0-.16,3.87,3.87,0,0,1-.19-.91q-.11-.54-.15-1c0-.57-.07-1-.1-1.29s0-.75-.05-1.39v-6.68c0-2.21.08-4.42.15-6.64.1-3.31.23-6.63.39-9.94s.36-6.64.59-10a.24.24,0,0,1,0-.16.91.91,0,0,1,.1-.16l.1-.11a.21.21,0,0,1,.15,0,.12.12,0,0,1,.09-.06s0,0,0,.06h.15l.15.1.09.11a.34.34,0,0,1,0,.16.54.54,0,0,1,0,.16v.06c-.26,3.28-.47,6.57-.63,9.89s-.26,6.61-.39,9.89q-.06,3.38-.1,6.69t0,6.63c0,.61.05,1,.05,1.34a11.72,11.72,0,0,0,.09,1.23c0,.29.07.57.1.86a6.91,6.91,0,0,0,.15.8l0,0A.14.14,0,0,0,1225.1,563.65Z"/><path d="M1230.33,539.26a.54.54,0,0,1,0,.21.16.16,0,0,1,0,.11.16.16,0,0,1-.15.11l-.09.1h-.2a.32.32,0,0,1-.15,0,.39.39,0,0,1-.14,0,.49.49,0,0,1-.1-.16.18.18,0,0,1-.05-.11v-.69a3,3,0,0,1,.05-.49v-.64a4.6,4.6,0,0,0,0-.64,6.66,6.66,0,0,1,0-.91,7.72,7.72,0,0,1,0-1,2.87,2.87,0,0,1,.09-.32.65.65,0,0,1,.15-.11.11.11,0,0,1,.1,0,.17.17,0,0,1,.14-.06h0a.33.33,0,0,1,.15.06.48.48,0,0,0,.15.1l.09.11a.21.21,0,0,1,0,.16v.16a7.72,7.72,0,0,1,0,1,7.23,7.23,0,0,1,0,.91v.64a4.73,4.73,0,0,0,0,.65v.43a.67.67,0,0,1-.05.26Zm.09,24.6a.45.45,0,0,0,0,.16.91.91,0,0,1-.1.16l-.1.11a.48.48,0,0,1-.15.11h-.14a.18.18,0,0,1-.15-.06.2.2,0,0,1-.15-.05.57.57,0,0,1-.09-.16l-.1-.11v-.21l0-1.45V548.78c0-1.35.08-2.73.14-4.12a.54.54,0,0,1,.05-.16.52.52,0,0,0,.1-.11.15.15,0,0,1,.15-.1.17.17,0,0,1,.14-.06.19.19,0,0,1,.1-.05h0a.17.17,0,0,0,.15.05l.09.11a.17.17,0,0,1,.1.16.74.74,0,0,1,.1.16v.16c-.1,1.36-.15,2.69-.15,4s0,2.71,0,4.07,0,2.62,0,3.9v4a6.2,6.2,0,0,1,0,.86v2.24Z"/><path d="M1251.38,571.35a8,8,0,0,0,.93-1.12,11.63,11.63,0,0,0,1.22-2.46l.39-1.18c.26-.78.52-1.55.78-2.3s.52-1.52.78-2.3a2.28,2.28,0,0,0,.19-.69,1.11,1.11,0,0,1,.25-.59c.06-.11.16-.13.29-.06a.72.72,0,0,0,.39.11.2.2,0,0,0-.14,0,.18.18,0,0,1-.15-.06.65.65,0,0,1-.15-.1,2.87,2.87,0,0,1-.09-.32.27.27,0,0,1,0-.17.25.25,0,0,1,.05-.16.65.65,0,0,1,.15-.1l.15-.16h0a.14.14,0,0,1,.1.05,3.71,3.71,0,0,0,.15.64,2.28,2.28,0,0,1,.1.59V561a1.58,1.58,0,0,1-.15.69,4.59,4.59,0,0,0-.24.64c-.3.79-.56,1.56-.79,2.3s-.53,1.52-.83,2.3q-.19.64-.39,1.23a8.26,8.26,0,0,1-.48,1.23,10,10,0,0,1-.83,1.45c-.33.43-.67.84-1,1.23a11.57,11.57,0,0,1-6.79,3.15,33.62,33.62,0,0,1-4.2.27,30.72,30.72,0,0,1-3.22-.16,1.33,1.33,0,0,1-.44-.11l-.78-.21a.74.74,0,0,1-.34-.11,1.43,1.43,0,0,1-.34-.1c-.33-.15-.65-.31-1-.48a4.62,4.62,0,0,1-.78-.75,1,1,0,0,1-.2-.32.78.78,0,0,1-.14-.33,1,1,0,0,1-.15-.32,1.38,1.38,0,0,0,0-.37v-.11a1.79,1.79,0,0,1,.15-.75,3.19,3.19,0,0,1,.29-.8l.29-.59a3.82,3.82,0,0,1,.35-.59,4.18,4.18,0,0,1,.88-.9,2.25,2.25,0,0,1,1.07-.49h.39a1.32,1.32,0,0,0,.39.06.21.21,0,0,0,.15,0,.76.76,0,0,1,.09.16l.1.11a.25.25,0,0,0,.05.16.54.54,0,0,1-.05.21.14.14,0,0,1,0,.11.76.76,0,0,1-.09.16,1,1,0,0,1-.15.11h-.49a.17.17,0,0,0-.19,0,1.09,1.09,0,0,0-.74.26c-.19.22-.37.43-.53.65a5,5,0,0,0-.3.48c-.09.18-.19.35-.29.53a2.81,2.81,0,0,0-.24.59,1.06,1.06,0,0,0,0,.59v.16s0,0,0,.11a1.73,1.73,0,0,0,.92,1,7.31,7.31,0,0,0,1.22.48,3.91,3.91,0,0,0,.54.16,1.33,1.33,0,0,0,.54.11,6.62,6.62,0,0,0,1.17.11c.36,0,.73,0,1.12,0a22.24,22.24,0,0,0,5.57-.38,11.06,11.06,0,0,0,5.13-2.3l.19-.21A.94.94,0,0,1,1251.38,571.35Zm6.79-18.93a9.68,9.68,0,0,1,.24,2.14,7.53,7.53,0,0,1-.15,1.49,15.84,15.84,0,0,1-.88,3.59,9,9,0,0,1-1.27,2.24,5.69,5.69,0,0,1-1.85,1.66c-.29.14-.59.27-.88.38s-.63.21-.93.32a2.3,2.3,0,0,1-.39,0l-.34.05a9.29,9.29,0,0,1-1,.06c-.35,0-.7.05-1,.05-.49,0-1-.05-1.42-.05l-1.46-.11c-1-.07-1.89-.16-2.83-.27s-1.94-.23-2.88-.37a8.17,8.17,0,0,1-.93-.16c-.3,0-.61-.09-.93-.16l-.54-.16-.58-.16a2,2,0,0,1-1.47-1.34,7,7,0,0,1-.54-2,3.27,3.27,0,0,1,0-.54,2.38,2.38,0,0,1,0-.53v-.75c0-.64,0-1.29,0-1.93s.08-1.26.14-1.87a17.79,17.79,0,0,1,.3-2,7.36,7.36,0,0,1,.53-1.87,8.51,8.51,0,0,1,.44-.91l.59-.75a7.44,7.44,0,0,1,5.66-2.46h0a25.45,25.45,0,0,1,6.15.7c1.27.32,2.62.69,4.06,1.12a6.08,6.08,0,0,1,3.36,2.62,2.88,2.88,0,0,1,.4.7,5.83,5.83,0,0,1,.34.8.41.41,0,0,0,0,.21A.44.44,0,0,0,1258.17,552.42Zm-4.06,9.94a5.81,5.81,0,0,0,1.52-1.49,7.73,7.73,0,0,0,.44-.81l.39-.85a14.81,14.81,0,0,0,.83-3.21,10.81,10.81,0,0,0,.09-1.39,9.79,9.79,0,0,0-.19-1.93c-.07-.21-.13-.42-.2-.64a1.91,1.91,0,0,0-.29-.59,4.56,4.56,0,0,0-1.61-1.76,8.24,8.24,0,0,0-2.1-1c-.55-.18-1-.31-1.27-.38l-2-.53a8.45,8.45,0,0,0-1.32-.27,10.73,10.73,0,0,0-1.37-.21,17.13,17.13,0,0,0-2.39-.16,18.19,18.19,0,0,0-2,.1,6.17,6.17,0,0,0-3.91,1.93c-.16.21-.31.43-.44.64a3.14,3.14,0,0,0-.39.69,7.09,7.09,0,0,0-.54,1.77c-.09.61-.16,1.21-.19,1.82s-.13,1.21-.2,1.82,0,1.21,0,1.82v.69a.68.68,0,0,0,0,.27V559a2,2,0,0,0,0,.42,1.4,1.4,0,0,0,0,.38.25.25,0,0,0,.05.16v.16a3.85,3.85,0,0,0,.39,1.12,1.21,1.21,0,0,0,.78.75,5,5,0,0,1,.54.11l.54.16a6.64,6.64,0,0,1,.87.16c.33.07.64.12.93.16,1,.14,1.89.27,2.83.37s1.84.2,2.79.27c.49,0,1,0,1.41,0s.93.06,1.42.06h.93a7.89,7.89,0,0,0,1-.06,1.63,1.63,0,0,1,.35,0,.69.69,0,0,1,.29-.05v-.06A5.81,5.81,0,0,0,1254.11,562.36Z"/><path d="M1279.85,550.12c.26.32.5.64.73,1a5,5,0,0,1,.54,1.12,4.22,4.22,0,0,1,.34,1.39c.07.5.13,1,.2,1.45s0,1,0,1.23,0,.67,0,1.17q0,1-.09,2a14.48,14.48,0,0,1-.25,2,5.91,5.91,0,0,1-.24.9c-.1.25-.2.52-.29.81l-.1.16-.1.1a.29.29,0,0,1-.15.06h-.19a.37.37,0,0,1-.15-.06.14.14,0,0,1-.1,0,.76.76,0,0,0-.09-.16.19.19,0,0,1,0-.16.25.25,0,0,1,0-.16.54.54,0,0,0,0-.16l.19-.54c.07-.17.13-.37.2-.58a11,11,0,0,0,.29-2c.07-.71.1-1.4.1-2.08v-1.13a9.85,9.85,0,0,0-.1-1.17c0-.47-.06-.89-.1-1.29a8.7,8.7,0,0,0-.29-1.28,4.71,4.71,0,0,0-.49-.91,7.13,7.13,0,0,0-.58-.85,10.41,10.41,0,0,0-3-2.14,18.94,18.94,0,0,0-3.52-1.13l-1.75-.32-1-.16a3.1,3.1,0,0,1-.49-.1c-.13,0-.44,0-.93-.11a1.84,1.84,0,0,0-.53-.06,4.66,4.66,0,0,0-.54-.05,10.27,10.27,0,0,0-2.1.22,3.82,3.82,0,0,0-1.81,1.06c-.09.15-.19.29-.29.43a1.18,1.18,0,0,0-.24.43l-.15.32a3.23,3.23,0,0,0-.1.32,3.4,3.4,0,0,0-.14.59c0,.18-.07.36-.1.54v8.39c0,1.43-.05,2.87-.05,4.33v.81h-1V552.68c0-.67,0-1.35,0-2a2.17,2.17,0,0,1,.1-.69,3.81,3.81,0,0,1,.15-.65,3.9,3.9,0,0,1,.14-.42c0-.11.08-.25.15-.43l.24-.38.2-.37v3c0,.35-.05.73-.05,1.12v8.61a10.8,10.8,0,0,0,.1,1.5,2.86,2.86,0,0,1-.1,1.49c-.07.18-.2.22-.39.11a2.07,2.07,0,0,0-.59-.11c0-1.74-.05-3.49-.05-5.24v-6.47a6.56,6.56,0,0,1,.1-1.07v-7.49q0-4.21,0-8.45v-8.45a.54.54,0,0,1,0-.16.54.54,0,0,1,0-.16.48.48,0,0,1,.15-.1.12.12,0,0,1,.09-.06.49.49,0,0,1,.2,0,.39.39,0,0,1,.14,0,.29.29,0,0,1,.15.06l.1.1a.54.54,0,0,1,0,.16.54.54,0,0,1,0,.16c0,2.82,0,5.64,0,8.45v8.45c0,.79,0,1.56,0,2.3v2.25a4,4,0,0,1,2.78-1.82,10.76,10.76,0,0,1,3.32-.11c1.89.29,3.81.66,5.76,1.13a12.12,12.12,0,0,1,5.23,2.83.9.9,0,0,1,.19.16A1.07,1.07,0,0,0,1279.85,550.12Z"/></svg>
