<svg id="Layer_1" data-name="Layer 1" xmlns="http://www.w3.org/2000/svg" width="460" height="160" viewBox="0 0 460 160"><defs><style>.cls-1{fill:#b3b3b3;}.cls-2{fill:#fff;}</style></defs><title>settingsknapv2</title><rect class="cls-1" x="2.43" y="19.96" width="455.15" height="136.98" rx="59.87" ry="59.87"/><path d="M402.19,157.81H57.81c-31,0-56.31-23.82-56.31-53.11V72.19c0-29.28,25.26-53.1,56.31-53.1H402.19c31.05,0,56.31,23.82,56.31,53.1V104.7C458.5,134,433.24,157.81,402.19,157.81ZM57.81,20.83c-30,0-54.46,23-54.46,51.36V104.7c0,28.33,24.43,51.37,54.46,51.37H402.19c30,0,54.46-23,54.46-51.37V72.19c0-28.32-24.43-51.36-54.46-51.36Z"/><rect class="cls-2" x="2.43" y="2.51" width="455.15" height="136.98" rx="59.87" ry="59.87"/><path d="M402.19,140.36H57.81c-31,0-56.31-23.82-56.31-53.11V54.75C1.5,25.46,26.76,1.64,57.81,1.64H402.19c31.05,0,56.31,23.82,56.31,53.11v32.5C458.5,116.54,433.24,140.36,402.19,140.36ZM57.81,3.38c-30,0-54.46,23-54.46,51.37v32.5c0,28.33,24.43,51.37,54.46,51.37H402.19c30,0,54.46-23,54.46-51.37V54.75c0-28.33-24.43-51.37-54.46-51.37Z"/><path d="M58.6,88.29H44.17V86h2.45V51.83H44.17V49.51H58.6V67.59H67V49.51H81.4v2.32H79V86H81.4v2.32H67V70.94H58.6Z"/><path d="M97.29,84.62h7l1.45-6.78h6L113,87.37a46.86,46.86,0,0,1-12.55,1.83q-2.28,0-3.9-.15a15.37,15.37,0,0,1-3.62-.86,8.24,8.24,0,0,1-3.24-2,10.14,10.14,0,0,1-2.09-3.6,16.38,16.38,0,0,1-.86-5.59V69.11q0-7.64,2.23-10.81a14.35,14.35,0,0,1,1.48-1.89,5.61,5.61,0,0,1,1.92-1.25c.82-.35,1.5-.61,2.06-.79a10.36,10.36,0,0,1,2.4-.4c1.56-.12,3.08-.18,4.57-.18s2.53,0,3.12,0,1.4.09,2.4.21a7.56,7.56,0,0,1,2.26.55,12.82,12.82,0,0,1,1.78,1.1,4.46,4.46,0,0,1,1.51,1.77,14.05,14.05,0,0,1,.83,2.66,19.76,19.76,0,0,1,0,7.51,13.93,13.93,0,0,1-.83,2.65A4.39,4.39,0,0,1,110.92,72a12.82,12.82,0,0,1-1.78,1.1,7.26,7.26,0,0,1-2.26.55,41.65,41.65,0,0,1-5.07.25H97.29Zm0-26.25v11h7.64v-11Z"/><path d="M119.2,43.77H132V86h2.23v2.32h-15V86h2.23V46.09H119.2Z"/><path d="M139,54.7h6.85l2.23,4.64h.73c.78-2.32,1.8-3.82,3.07-4.52a12.18,12.18,0,0,1,5.68-1,25.29,25.29,0,0,1,5.38.33l2.09.67a3.88,3.88,0,0,1,1.59,1l1.31,1.4a6.3,6.3,0,0,1,1.17,2c.3.77.58,1.63.84,2.56a30.16,30.16,0,0,1,.72,7.45V73q0,7.7-2.23,10.81a24.05,24.05,0,0,1-1.5,1.89A5.26,5.26,0,0,1,165,86.91c-.86.35-1.57.61-2.12.8a11.25,11.25,0,0,1-2.46.39c-1.56.12-3.18.19-4.87.19a34.6,34.6,0,0,1-3.65-.13V97h3v2.32H141.22V57H139Zm21.07,29V59.34h-8.19V83.71Z"/><path d="M176.11,96.16h-2.78l12.32-52.39h2.84Z"/><path d="M188.66,87.13l1.5-11h7.14L199,84h6.18V79.37l-11-8.91a12.14,12.14,0,0,1-3.62-4.64,14.66,14.66,0,0,1-1.17-5.9A17.57,17.57,0,0,1,190,55a7.07,7.07,0,0,1,1.59-2.87,10.22,10.22,0,0,1,2.28-1.87,9.74,9.74,0,0,1,3-1.09,44.17,44.17,0,0,1,8.31-.62,39.36,39.36,0,0,1,11.76,2.08l-1.5,11H209l-1.51-7.81h-5.57v4.58l11,8.91a12,12,0,0,1,3.62,4.64A15.17,15.17,0,0,1,217.65,78a14.14,14.14,0,0,1-.84,5.4,8.39,8.39,0,0,1-2.09,3.08,8.53,8.53,0,0,1-3.32,1.71,34.78,34.78,0,0,1-9.48,1A47.38,47.38,0,0,1,188.66,87.13Z"/><path d="M233,84.62h7l1.45-6.78h6l1.28,9.53A46.85,46.85,0,0,1,236.1,89.2c-1.53,0-2.83,0-3.91-.15a15.49,15.49,0,0,1-3.62-.86,8.12,8.12,0,0,1-3.23-2,9.86,9.86,0,0,1-2.09-3.6,16.13,16.13,0,0,1-.87-5.59V69.11q0-7.64,2.23-10.81a14.35,14.35,0,0,1,1.48-1.89A5.71,5.71,0,0,1,228,55.16c.82-.35,1.51-.61,2.07-.79a10.16,10.16,0,0,1,2.39-.4c1.56-.12,3.09-.18,4.57-.18s2.53,0,3.13,0,1.39.09,2.39.21a7.48,7.48,0,0,1,2.26.55,12.26,12.26,0,0,1,1.78,1.1,4.46,4.46,0,0,1,1.51,1.77,14.75,14.75,0,0,1,.84,2.66,19.76,19.76,0,0,1,0,7.51,14.62,14.62,0,0,1-.84,2.65A4.39,4.39,0,0,1,246.6,72a12.26,12.26,0,0,1-1.78,1.1,7.19,7.19,0,0,1-2.26.55,41.54,41.54,0,0,1-5.07.25H233Zm0-26.25v11h7.64v-11Z"/><path d="M254.6,54.7h2.79l6-7.2h4v7.2h5.86v2.93h-5.86v27.6h3.18v-6h2.68v4.46c0,2.15-.66,3.62-2,4.39a12.19,12.19,0,0,1-6,1.16q-1.56,0-2.4-.06a7.89,7.89,0,0,1-2.18-.58,4.42,4.42,0,0,1-2.06-1.5c-1.22-1.71-1.84-4.35-1.84-7.93V57.63H254.6Z"/><path d="M276.62,54.7h2.79l6-7.2h4v7.2h5.86v2.93h-5.86v27.6h3.18v-6h2.68v4.46c0,2.15-.66,3.62-2,4.39a12.19,12.19,0,0,1-6,1.16c-1.05,0-1.84,0-2.4-.06a7.89,7.89,0,0,1-2.18-.58,4.42,4.42,0,0,1-2.06-1.5c-1.22-1.71-1.84-4.35-1.84-7.93V57.63h-2.23Z"/><path d="M314,88.29H298.92V86h2.23V57h-2.23V54.7h12.82V86H314Zm-2.73-45.86c.67.57,1,2,1,4.21s-.33,3.65-1,4.22-2.23.85-4.68.85-4.06-.28-4.82-.85-1.15-2-1.15-4.22.38-3.64,1.15-4.21,2.36-.86,4.82-.86S310.57,41.86,311.24,42.43Z"/><path d="M352.83,88.29H340V59.34h-8.2v29H319V86h2.23V57H319V54.7h7.41l2,4.64h.73a7.08,7.08,0,0,1,3.54-4.49Q335,53.79,340,53.79t7.8,2q2.79,2.06,2.79,7.12V86h2.23Z"/><path d="M358.85,98.18a5.47,5.47,0,0,1-2-2.84,21.35,21.35,0,0,1-.45-5.19,9.27,9.27,0,0,1,1.39-5.5,3.87,3.87,0,0,1,3.07-1.92h4.18v-.79c-1.9-.41-2.84-1.69-2.84-3.85V74.3q-4.86-1.77-4.85-8.36V64.66c0-3.63.59-6.17,1.78-7.64a11.92,11.92,0,0,1,1.23-1.37,4.55,4.55,0,0,1,1.59-.89c.68-.24,1.26-.42,1.72-.55a13.61,13.61,0,0,1,2-.3q1.29-.12,2-.12h2.23a11.87,11.87,0,0,1,5.66,1c1.21.7,1.81,2,1.81,3.91h.72l.56-2.5a8,8,0,0,1,1.51-3.66c.59-.62,1.69-.92,3.29-.92h2.45v5.43h-.61c-.71,0-1.06.57-1.06,1.71v7.15a11,11,0,0,1-1.51,5.86c-.59,1.06-1.89,2-3.9,2.69-1.26.44-4.16.67-8.7.67h-2v1.46a6.37,6.37,0,0,0,.39,2.66,1.52,1.52,0,0,0,1.5.76h8.31a7.38,7.38,0,0,1,5.15,2.17q2.33,2.17,2.32,7.18c0,4.23-1,7.09-3.07,8.57s-6.06,2.23-12,2.23a57.52,57.52,0,0,1-7.58-.39A8.73,8.73,0,0,1,358.85,98.18Zm18.95-10.5H364.31v6.41H377.8Zm-3.12-17.53V58.73H367V70.15Z"/><path d="M391.23,87.37l1.34-9.53H399l1.51,6.78h6.35V80.23l-10.42-7.88A11.35,11.35,0,0,1,393,68.53a10.84,10.84,0,0,1-1.06-5,11.7,11.7,0,0,1,.76-4.68,7.6,7.6,0,0,1,1.86-2.68,7.94,7.94,0,0,1,3-1.53,31.26,31.26,0,0,1,8.28-.85,36.41,36.41,0,0,1,11.06,1.83l-1.34,9.52h-5.85l-1.34-6.77h-5.8v4.39l10.43,7.88a11.35,11.35,0,0,1,3.46,3.82,10.84,10.84,0,0,1,1.05,5,11.85,11.85,0,0,1-.75,4.67,7.44,7.44,0,0,1-1.87,2.69,7.82,7.82,0,0,1-2.95,1.53,33.07,33.07,0,0,1-8.64.85A43,43,0,0,1,391.23,87.37Z"/></svg>
