<svg id="Layer_1" data-name="Layer 1" xmlns="http://www.w3.org/2000/svg" width="1450" height="765" viewBox="0 0 1450 765"><defs><style>.cls-1{opacity:0.95;}.cls-2{fill:#f5efcb;}.cls-3{opacity:0.61;}.cls-4{fill:#2e9cc6;}</style></defs><title>settingsudenknap</title><g class="cls-1"><rect class="cls-2" x="3.5" y="3.61" width="1443" height="757.78" rx="12" ry="12"/></g><path d="M561.07,157.93l2.22-16.17h10.49l2.54,11.5h9.1v-6.74l-16.15-13.11a17.76,17.76,0,0,1-5.33-6.83,21.4,21.4,0,0,1-1.72-8.67,26.17,26.17,0,0,1,.78-7.27,10.68,10.68,0,0,1,2.33-4.23,15.36,15.36,0,0,1,3.37-2.73,14.15,14.15,0,0,1,4.42-1.62,65.37,65.37,0,0,1,12.22-.9,57.79,57.79,0,0,1,17.3,3l-2.21,16.17h-9.51l-2.21-11.5H580.5v6.74l16.16,13.12a17.75,17.75,0,0,1,5.33,6.82,22.27,22.27,0,0,1,1.72,9,20.9,20.9,0,0,1-1.23,8,12.21,12.21,0,0,1-3.07,4.54,12.69,12.69,0,0,1-4.88,2.51Q589.68,161,580.59,161A69.74,69.74,0,0,1,561.07,157.93Z"/><path d="M626.26,154.24h10.25l2.13-10h8.78l1.88,14A69,69,0,0,1,630.85,161c-2.24,0-4.15-.08-5.74-.22a22.92,22.92,0,0,1-5.33-1.26,12.08,12.08,0,0,1-4.75-2.88,14.62,14.62,0,0,1-3.08-5.3,23.73,23.73,0,0,1-1.27-8.21V131.43q0-11.22,3.28-15.9a21.12,21.12,0,0,1,2.17-2.78,8.41,8.41,0,0,1,2.83-1.84c1.2-.51,2.22-.9,3-1.17a16.34,16.34,0,0,1,3.52-.59q3.45-.27,6.73-.27c2.18,0,3.71,0,4.59.05s2,.13,3.52.31a10.86,10.86,0,0,1,3.32.81,19.12,19.12,0,0,1,2.63,1.62,6.5,6.5,0,0,1,2.21,2.6,19.71,19.71,0,0,1,1.23,3.91,28.53,28.53,0,0,1,0,11,19.5,19.5,0,0,1-1.23,3.91,6.44,6.44,0,0,1-2.21,2.6,19.12,19.12,0,0,1-2.63,1.62,10.86,10.86,0,0,1-3.32.81,63.4,63.4,0,0,1-7.46.36h-6.64Zm0-38.62v16.17h11.23V115.62Z"/><path d="M658.08,110.23h4.09L671,99.63h5.9v10.6h8.61v4.31h-8.61v40.6h4.68v-8.89h3.93v6.56c0,3.17-1,5.33-2.91,6.46s-4.88,1.71-8.81,1.71c-1.53,0-2.71,0-3.53-.09a12.14,12.14,0,0,1-3.2-.85,6.72,6.72,0,0,1-3-2.2q-2.7-3.78-2.71-11.68V114.54h-3.27Z"/><path d="M690.47,110.23h4.1l8.85-10.6h5.91v10.6h8.61v4.31h-8.61v40.6H714v-8.89h3.94v6.56c0,3.17-1,5.33-2.92,6.46s-4.87,1.71-8.81,1.71c-1.53,0-2.71,0-3.53-.09a12,12,0,0,1-3.19-.85,6.69,6.69,0,0,1-3-2.2q-2.7-3.78-2.7-11.68V114.54h-3.28Z"/><path d="M745.41,159.63H723.27v-3.41h3.27V113.65h-3.27v-3.42h18.85v46h3.29Zm-4-67.45c1,.84,1.47,2.9,1.47,6.2s-.49,5.36-1.47,6.19-3.28,1.26-6.89,1.26-6-.42-7.09-1.26-1.68-2.9-1.68-6.19.56-5.36,1.68-6.2,3.48-1.26,7.09-1.26S740.4,91.34,741.39,92.18Z"/><path d="M802.56,159.63H783.7V117.06H771.64v42.57H752.79v-3.41h3.27V113.65h-3.27v-3.42h10.9l2.87,6.83h1.07c1.14-3.35,2.88-5.56,5.2-6.6s5.95-1.58,10.87-1.58,8.74,1,11.48,3,4.1,5.5,4.1,10.47v33.86h3.28Z"/><path d="M811.41,174.18a8.18,8.18,0,0,1-2.87-4.17,32.21,32.21,0,0,1-.65-7.64c0-3.5.68-6.2,2.05-8.08s2.87-2.83,4.51-2.83h6.15v-1.17c-2.79-.6-4.18-2.48-4.18-5.66v-5.57q-7.14-2.59-7.14-12.3v-1.89q0-8,2.63-11.22a16.93,16.93,0,0,1,1.8-2,6.91,6.91,0,0,1,2.34-1.3c1-.36,1.86-.63,2.54-.81a20.53,20.53,0,0,1,2.91-.45c1.26-.11,2.24-.18,3-.18h3.28c3.77,0,6.55.51,8.32,1.53s2.67,2.94,2.67,5.75h1.07l.82-3.68c.6-2.7,1.34-4.49,2.21-5.39s2.49-1.35,4.84-1.35h3.61v8h-.91c-1,0-1.55.83-1.55,2.51v10.51a16.07,16.07,0,0,1-2.22,8.62c-.87,1.56-2.79,2.88-5.74,4q-2.79,1-12.79,1h-2.95v2.16a9.38,9.38,0,0,0,.57,3.9,2.25,2.25,0,0,0,2.22,1.13h12.21a10.83,10.83,0,0,1,7.59,3.19q3.4,3.18,3.4,10.55,0,9.34-4.51,12.62t-17.71,3.28a82.86,82.86,0,0,1-11.15-.59A12.75,12.75,0,0,1,811.41,174.18Zm27.88-15.45H819.45v9.44h19.84ZM834.7,133v-16.8H823.47V133Z"/><path d="M859.05,158.29l2-14h9.43l2.22,10H882v-6.46l-15.33-11.59a16.7,16.7,0,0,1-5.08-5.61,15.87,15.87,0,0,1-1.56-7.37,17.39,17.39,0,0,1,1.11-6.87,11,11,0,0,1,2.74-4,11.59,11.59,0,0,1,4.35-2.25,45.87,45.87,0,0,1,12.18-1.26,53.33,53.33,0,0,1,16.27,2.7l-2,14h-8.6l-2-10h-8.53v6.47L891,133.67a16.78,16.78,0,0,1,5.09,5.62,15.86,15.86,0,0,1,1.55,7.36,17.43,17.43,0,0,1-1.1,6.88,11.23,11.23,0,0,1-2.75,3.95,11.46,11.46,0,0,1-4.34,2.24Q885.05,161,876.69,161A63.44,63.44,0,0,1,859.05,158.29Z"/><path d="M914.9,112.48c3.22,0,5.29.52,6.19,1.57s1.35,3.5,1.35,7.36-.46,6.31-1.39,7.33-3,1.52-6.24,1.52-5.33-.51-6.31-1.52-1.48-3.48-1.48-7.37.51-6.35,1.52-7.37S911.67,112.48,914.9,112.48Zm0,30.27c3.22,0,5.29.52,6.19,1.57s1.35,3.5,1.35,7.36S922,158,921.05,159s-3,1.53-6.24,1.53-5.33-.51-6.31-1.53-1.48-3.47-1.48-7.36.51-6.35,1.52-7.37S911.67,142.75,914.9,142.75Z"/><path d="M183.42,336.46v-2.08h18.7l2.75,13.52h.95l3.45-13.52h13.4v2.08h-2.2v30.61h2.2v2.08H209l5.55-31.49h-2.05l-7.95,31.49H198l-6.45-31.49h-2l4,31.49H183.42v-2.08h2.2V336.46Z"/><path d="M228.42,360.94V341.11h-2V339h11.5v26h7.35V339h9.5v28h2v2.08h-6.15l-2-4.16H248c0,1.94-.64,3.25-1.92,3.95a12.75,12.75,0,0,1-5.83,1q-5.15,0-6.9-.72a6.63,6.63,0,0,1-3.5-2.57A10.74,10.74,0,0,1,228.42,360.94Z"/><path d="M261.77,368.33l1.2-8.54h5.75l1.35,6.08h5.7v-3.95l-9.35-7.06a10.23,10.23,0,0,1-3.1-3.42,9.74,9.74,0,0,1-.95-4.49,10.6,10.6,0,0,1,.68-4.19,6.61,6.61,0,0,1,1.67-2.41,7,7,0,0,1,2.65-1.37,28.05,28.05,0,0,1,7.43-.77,32.73,32.73,0,0,1,9.92,1.64l-1.2,8.55h-5.25l-1.2-6.08h-5.2v3.94l9.35,7.07a10.23,10.23,0,0,1,3.1,3.42,9.71,9.71,0,0,1,.95,4.49,10.62,10.62,0,0,1-.67,4.19,6.72,6.72,0,0,1-1.68,2.41,7.12,7.12,0,0,1-2.65,1.37,29.68,29.68,0,0,1-7.75.77A38.38,38.38,0,0,1,261.77,368.33Z"/><path d="M303.77,369.15h-13.5v-2.08h2v-26h-2V339h11.5v28h2ZM301.32,328c.6.52.9,1.77.9,3.78s-.3,3.27-.9,3.78-2,.77-4.2.77-3.64-.26-4.32-.77-1-1.77-1-3.78.34-3.26,1-3.78,2.12-.76,4.32-.76S300.72,327.51,301.32,328Z"/><path d="M322.49,370c-3.61,0-5.79-.13-6.52-.39s-1.46-.54-2.18-.85a4.64,4.64,0,0,1-1.65-1.12,17.84,17.84,0,0,1-1.27-1.7,7.44,7.44,0,0,1-1.05-2.41,32.29,32.29,0,0,1-.8-7.28V352a28,28,0,0,1,.57-6.25,11.39,11.39,0,0,1,1.28-3.45,17.55,17.55,0,0,1,1.27-1.69,4.66,4.66,0,0,1,1.65-1.13c.72-.31,1.31-.54,1.78-.71a9.25,9.25,0,0,1,2.05-.36c1.37-.1,2.83-.16,4.4-.16a33.33,33.33,0,0,1,10,1.64l-1.2,8.55h-5.75l-1.35-6.63h-5.2v24.65h5.2l1.35-6.63h5.75l1.2,8.54A25.39,25.39,0,0,1,322.49,370Z"/><path d="M341.82,340.4c2,0,3.22.32,3.77,1s.83,2.14.83,4.49-.28,3.84-.85,4.46-1.83.94-3.8.94-3.25-.31-3.85-.94-.9-2.11-.9-4.49.31-3.87.92-4.49S339.85,340.4,341.82,340.4Zm0,18.46c2,0,3.22.32,3.77,1s.83,2.13.83,4.49-.28,3.84-.85,4.46-1.83.93-3.8.93-3.25-.31-3.85-.93-.9-2.12-.9-4.49.31-3.87.92-4.49S339.85,358.86,341.82,358.86Z"/><path d="M182.67,499.56,184,489.7h6.4l1.55,7h5.55V492.6l-9.85-8a10.77,10.77,0,0,1-3.25-4.16,13.06,13.06,0,0,1-1-5.28,15.87,15.87,0,0,1,.48-4.44,6.34,6.34,0,0,1,1.42-2.57,9.11,9.11,0,0,1,2-1.67,8.64,8.64,0,0,1,2.7-1,40.33,40.33,0,0,1,7.45-.55A35.22,35.22,0,0,1,208,466.8l-1.35,9.86h-5.8l-1.35-7h-5v4.11l9.85,8a10.75,10.75,0,0,1,3.25,4.16,13.6,13.6,0,0,1,1,5.48,12.72,12.72,0,0,1-.75,4.84,7.45,7.45,0,0,1-1.87,2.77,7.75,7.75,0,0,1-3,1.53,31.29,31.29,0,0,1-8.5.88A42.43,42.43,0,0,1,182.67,499.56Z"/><path d="M239.27,483.4v4.27q0,6.9-2,9.7a19.87,19.87,0,0,1-1.35,1.69,4.69,4.69,0,0,1-1.75,1.13c-.77.31-1.4.54-1.9.71a9.85,9.85,0,0,1-2.15.35,45.65,45.65,0,0,1-7.42.14,19.62,19.62,0,0,1-3.48-.49c-.47-.17-1-.4-1.72-.71a4.34,4.34,0,0,1-1.58-1.13,17.65,17.65,0,0,1-1.22-1.69,7.31,7.31,0,0,1-1-2.41,31.07,31.07,0,0,1-.8-7.29V483.4q0-6.9,2-9.69a18.7,18.7,0,0,1,1.35-1.7,4.68,4.68,0,0,1,1.75-1.12c.77-.31,1.4-.55,1.9-.72a10,10,0,0,1,2.2-.35c1.4-.11,2.77-.17,4.1-.17s2.24,0,2.73,0,1.15.06,2,.14a8.58,8.58,0,0,1,2,.35c.47.17,1,.41,1.73.72a4.37,4.37,0,0,1,1.57,1.12,16.63,16.63,0,0,1,1.23,1.7,7.86,7.86,0,0,1,1,2.41A32.77,32.77,0,0,1,239.27,483.4Zm-9.5,13.91V473.76h-7.35v23.55Z"/><path d="M246.52,492.38V472.56h-2v-2.09H256v26h7.35v-26h9.5v28h2v2.08h-6.15l-2-4.17h-.65c0,1.94-.64,3.25-1.92,3.95a12.75,12.75,0,0,1-5.83,1q-5.15,0-6.9-.71a6.69,6.69,0,0,1-3.5-2.58A10.72,10.72,0,0,1,246.52,492.38Z"/><path d="M310,500.6h-11.5v-26h-7.35v26h-11.5v-2.08h2v-26h-2v-2.09h6.65l1.75,4.17h.65a6.34,6.34,0,0,1,3.17-4,17.1,17.1,0,0,1,6.63-1,11.61,11.61,0,0,1,7,1.84q2.5,1.83,2.5,6.38v20.65h2Z"/><path d="M343.62,500.6h-6.15l-2-4.17h-.65q-1.45,3.18-3,4.08a9.43,9.43,0,0,1-4.72.91,22.08,22.08,0,0,1-5.4-.38,21.46,21.46,0,0,1-2-.85,4.81,4.81,0,0,1-1.53-1.15,13.86,13.86,0,0,1-1.19-1.73,8.75,8.75,0,0,1-1-2.41,29,29,0,0,1-.8-7.23v-3.45q0-6.9,2-9.69a18.7,18.7,0,0,1,1.35-1.7,4.68,4.68,0,0,1,1.75-1.12c.77-.31,1.4-.55,1.9-.71a9.31,9.31,0,0,1,2.2-.36c1.4-.11,2.71-.17,3.92-.17s2.46,0,3.73.11v-7.83h-2v-2.08h11.55v37.85h2Zm-18.9-26v21.85h7.35V474.58Z"/><path d="M360.62,500.6v-2.08h2.2V467.9h-2.2v-2.08h25.3v11.72h-5.85L378,469.11h-4.45V482h9.55v3h-9.55v12.27H378l2.05-8.43h5.85V500.6Z"/><path d="M390.17,476.28v-2.63h2V471q0-6.13,2.17-8.65t6.93-2.52a23,23,0,0,1,5.1.71l-.85,8.38h-7.6v3.29a1.59,1.59,0,0,0,.25,1,1.49,1.49,0,0,0,1.25.44h6.1v2.63h-3.85v22.24h3.5v2.08h-15v-2.08h2V476.28Z"/><path d="M408.42,476.28v-2.63h2V471q0-6.13,2.17-8.65t6.93-2.52a23,23,0,0,1,5.1.71l-.85,8.38h-7.6v3.29a1.59,1.59,0,0,0,.25,1,1.49,1.49,0,0,0,1.25.44h6.1v2.63h-3.85v22.24h3.5v2.08h-15v-2.08h2V476.28Z"/><path d="M436.92,497.31h6.25l1.3-6.08h5.35l1.15,8.55a42.22,42.22,0,0,1-11.25,1.64c-1.37,0-2.54-.05-3.5-.14a13.86,13.86,0,0,1-3.25-.77,7.36,7.36,0,0,1-2.9-1.75,8.94,8.94,0,0,1-1.88-3.23,14.66,14.66,0,0,1-.77-5V483.4c0-4.56.66-7.8,2-9.69a12.81,12.81,0,0,1,1.32-1.7,5,5,0,0,1,1.73-1.12c.73-.31,1.35-.55,1.85-.72a9.74,9.74,0,0,1,2.15-.35c1.4-.11,2.76-.17,4.1-.17s2.26,0,2.8,0,1.25.08,2.15.19a6.61,6.61,0,0,1,2,.5,10.34,10.34,0,0,1,1.6,1,3.93,3.93,0,0,1,1.35,1.59,11.37,11.37,0,0,1,.75,2.38,17.37,17.37,0,0,1,0,6.74,11.37,11.37,0,0,1-.75,2.38,3.93,3.93,0,0,1-1.35,1.59,11.19,11.19,0,0,1-1.6,1,6.61,6.61,0,0,1-2,.5,40.23,40.23,0,0,1-4.55.22h-4.05Zm0-23.55v9.86h6.85v-9.86Z"/><path d="M470.79,501.42a30.44,30.44,0,0,1-6.52-.38c-.74-.26-1.46-.54-2.18-.85a4.66,4.66,0,0,1-1.65-1.13,17.16,17.16,0,0,1-1.27-1.69,7.63,7.63,0,0,1-1.05-2.41,31.82,31.82,0,0,1-.8-7.29V483.4a27.85,27.85,0,0,1,.57-6.24,11.17,11.17,0,0,1,1.28-3.45,16.28,16.28,0,0,1,1.27-1.7,4.64,4.64,0,0,1,1.65-1.12c.72-.31,1.31-.55,1.78-.72a8.69,8.69,0,0,1,2.05-.35c1.36-.11,2.83-.17,4.4-.17a33,33,0,0,1,10,1.65l-1.2,8.54h-5.75L472,473.21h-5.2v24.65H472l1.35-6.63h5.75l1.2,8.55A25.64,25.64,0,0,1,470.79,501.42Z"/><path d="M484.32,470.47h2.5l5.4-6.46h3.6v6.46h5.25v2.63h-5.25v24.76h2.85v-5.42h2.4v4c0,1.94-.6,3.25-1.78,3.95a10.91,10.91,0,0,1-5.37,1c-.94,0-1.65,0-2.15-.06a6.94,6.94,0,0,1-1.95-.52A4,4,0,0,1,488,499.5c-1.1-1.53-1.65-3.91-1.65-7.12V473.1h-2Z"/><path d="M504.57,499.78l1.2-8.55h5.75l1.35,6.08h5.7v-3.94l-9.35-7.07a10.12,10.12,0,0,1-3.1-3.42,9.59,9.59,0,0,1-.95-4.49,10.62,10.62,0,0,1,.67-4.19,6.72,6.72,0,0,1,1.68-2.41,7,7,0,0,1,2.65-1.37,28,28,0,0,1,7.42-.77,32.56,32.56,0,0,1,9.93,1.65l-1.2,8.54h-5.25l-1.2-6.08h-5.2v3.94l9.35,7.07a10.34,10.34,0,0,1,3.1,3.42,9.74,9.74,0,0,1,1,4.49,10.6,10.6,0,0,1-.68,4.19,6.73,6.73,0,0,1-1.67,2.41,7,7,0,0,1-2.65,1.37,29.68,29.68,0,0,1-7.75.77A38.66,38.66,0,0,1,504.57,499.78Z"/><path d="M538.62,471.84c2,0,3.22.32,3.77,1s.83,2.14.83,4.49-.29,3.85-.85,4.47-1.84.93-3.8.93-3.25-.31-3.85-.93-.9-2.12-.9-4.49.3-3.87.92-4.5S536.65,471.84,538.62,471.84Zm0,18.46c2,0,3.22.32,3.77,1s.83,2.13.83,4.49-.29,3.84-.85,4.46-1.84.93-3.8.93-3.25-.31-3.85-.93-.9-2.11-.9-4.49.3-3.87.92-4.49S536.65,490.3,538.62,490.3Z"/><path d="M214.52,597.26v2.08h-2.1l-5.7,32.7h-18.1l-4.6-32.7h-2.1v-2.08h14.5l2.6,31.49h4.45V597.26Z"/><path d="M244.12,614.84v4.27c0,4.6-.67,7.84-2,9.7a20.21,20.21,0,0,1-1.35,1.7,4.81,4.81,0,0,1-1.75,1.12c-.77.31-1.4.55-1.9.71a10.38,10.38,0,0,1-2.15.36,45.45,45.45,0,0,1-7.42.13,19.62,19.62,0,0,1-3.48-.49c-.47-.16-1-.4-1.72-.71a4.45,4.45,0,0,1-1.58-1.12,17.94,17.94,0,0,1-1.22-1.7,7.31,7.31,0,0,1-1-2.41,31,31,0,0,1-.8-7.29v-4.27q0-6.9,2-9.69a20.21,20.21,0,0,1,1.35-1.7,4.68,4.68,0,0,1,1.75-1.12c.77-.31,1.4-.55,1.9-.71a9.31,9.31,0,0,1,2.2-.36c1.4-.11,2.77-.16,4.1-.16s2.24,0,2.73,0,1.15.07,2,.14a8,8,0,0,1,2,.36c.47.16,1,.4,1.73.71a4.37,4.37,0,0,1,1.57,1.12,17.83,17.83,0,0,1,1.23,1.7,8,8,0,0,1,1,2.41A32.77,32.77,0,0,1,244.12,614.84Zm-9.5,13.91V605.2h-7.35v23.55Z"/><path d="M249.62,592.11h11.5V630h2V632h-13.5V630h2V594.19h-2Z"/><path d="M269.37,623.82V604h-2v-2.08h11.5v26h7.35v-26h9.5v28h2V632h-6.15l-2-4.16h-.65c0,1.93-.64,3.25-1.92,3.94a12.75,12.75,0,0,1-5.83,1q-5.15,0-6.9-.71a6.69,6.69,0,0,1-3.5-2.58A10.72,10.72,0,0,1,269.37,623.82Z"/><path d="M314,606.08v26h-11.5V630h2V604h-2v-2.08h6.65l1.75,4.16h.65a6.57,6.57,0,0,1,3-4,12.68,12.68,0,0,1,5.52-.95q5.44,0,7.4,2.79a5.21,5.21,0,0,1,2.83-2.25,15.91,15.91,0,0,1,4.62-.54q4.85,0,7.32,1.83t2.48,6.38V630h2V632h-11.5v-26h-5.85v26h-9.5v-26Z"/><path d="M361.42,628.75h6.25l1.3-6.08h5.35l1.15,8.55a42.11,42.11,0,0,1-11.25,1.64c-1.37,0-2.53-.05-3.5-.14a13.79,13.79,0,0,1-3.25-.76,7.37,7.37,0,0,1-2.9-1.76A8.85,8.85,0,0,1,352.7,627a14.41,14.41,0,0,1-.78-5v-7.12q0-6.84,2-9.69a13.48,13.48,0,0,1,1.33-1.7,5,5,0,0,1,1.72-1.12c.73-.31,1.35-.55,1.85-.71a9.19,9.19,0,0,1,2.15-.36c1.4-.11,2.77-.16,4.1-.16s2.27,0,2.8,0,1.25.09,2.15.19a6.61,6.61,0,0,1,2,.5,11.56,11.56,0,0,1,1.6,1,4,4,0,0,1,1.36,1.59,12.94,12.94,0,0,1,.75,2.38,17.91,17.91,0,0,1,0,6.74,12.7,12.7,0,0,1-.75,2.38,4,4,0,0,1-1.36,1.59,10.83,10.83,0,0,1-1.6,1,6.65,6.65,0,0,1-2,.49,38,38,0,0,1-4.55.22h-4.05Zm0-23.55v9.86h6.85V605.2Z"/><path d="M386.62,603.29c2,0,3.22.32,3.77,1s.83,2.14.83,4.5-.28,3.84-.85,4.46-1.83.93-3.8.93-3.25-.31-3.85-.93-.9-2.12-.9-4.49.31-3.87.92-4.49S384.65,603.29,386.62,603.29Zm0,18.45c2,0,3.22.32,3.77,1s.83,2.14.83,4.49-.28,3.85-.85,4.47-1.83.93-3.8.93-3.25-.31-3.85-.93-.9-2.12-.9-4.5.31-3.87.92-4.49S384.65,621.74,386.62,621.74Z"/><g class="cls-3"><rect class="cls-4" x="679.5" y="323.12" width="197" height="49.29" rx="12" ry="12"/></g><g class="cls-3"><rect class="cls-4" x="679.5" y="461.12" width="197" height="49.29" rx="12" ry="12"/></g><g class="cls-3"><rect class="cls-4" x="679.5" y="602.82" width="589" height="49.29" rx="12" ry="12"/></g><path d="M689.86,272c.56,0,1,.07,1.22.1s.6,0,1.13.06a7.08,7.08,0,0,0,1,.1l1,.16.49.11a2,2,0,0,1,.44.05,2.3,2.3,0,0,0,.48.17l.49.21a6.51,6.51,0,0,1,2.1,1.55,12,12,0,0,1,1.56,2.14,1.37,1.37,0,0,0,.15.21,2.64,2.64,0,0,1,.1.27c.16.32.31.64.44,1l.39,1q.09.27.15.48a2.16,2.16,0,0,1,.14.43c.16.46.28.82.34,1.07a9.8,9.8,0,0,0,.25,1.06c.13.65.24,1.18.34,1.61s.16,1,.29,1.66a9.69,9.69,0,0,1,.1,1.17q0,.38.15,2c0,.46,0,.92,0,1.39a20.79,20.79,0,0,1-.2,2.78,11,11,0,0,1-1.22,4l-.49.75a7.14,7.14,0,0,1-.68.64,4.72,4.72,0,0,1-2.2,1,19.77,19.77,0,0,1-2.44.27,16.45,16.45,0,0,1-4.2-.64,24.3,24.3,0,0,1-4-1.66,22.18,22.18,0,0,1-2.59-1.87,14.22,14.22,0,0,1-2.35-2.25l-.53-.69a5.23,5.23,0,0,1-.44-.81,3.31,3.31,0,0,1-.3-.8,5.78,5.78,0,0,1-.24-.8,23.56,23.56,0,0,1-.44-4.49V285q0-2.46.24-4.86a16.16,16.16,0,0,1,.4-2.46,13.26,13.26,0,0,1,.78-2.3,6.76,6.76,0,0,1,.49-.86,6.92,6.92,0,0,1,.63-.8,2.67,2.67,0,0,1,.44-.38l.49-.32c.23-.1.79-.32,1.71-.64a10.82,10.82,0,0,1,3.32-.37Zm10.89,10.43c-.1-.47-.18-.82-.24-1.07s-.17-.56-.3-1a2.39,2.39,0,0,0-.14-.43,2.76,2.76,0,0,0-.15-.43c-.13-.39-.28-.76-.44-1.12a9.66,9.66,0,0,0-.54-1.12,9,9,0,0,0-1.41-1.93,5.62,5.62,0,0,0-1.81-1.33,1.65,1.65,0,0,0-.39-.17,2.14,2.14,0,0,0-.39-.16,2,2,0,0,0-.44,0l-.44-.11c-1-.14-2.08-.24-3.12-.32-.52,0-1.05-.05-1.57-.05s-1.09,0-1.61.05a11.71,11.71,0,0,0-1.8.27,5.4,5.4,0,0,0-1.66.59l-.39.21a1.17,1.17,0,0,0-.35.27,2.39,2.39,0,0,0-.48.64,2.88,2.88,0,0,0-.4.7,12,12,0,0,0-1,3.79q-.2,2-.24,4c0,.43,0,.86,0,1.29s0,1.14,0,1.71a17.9,17.9,0,0,0,.34,3c.06.22.13.45.19.7a5.64,5.64,0,0,0,.25.64,2.36,2.36,0,0,0,.39.69,4.31,4.31,0,0,1,.44.59,17.53,17.53,0,0,0,5.66,4.39,15.45,15.45,0,0,0,6.69,1.66,8.52,8.52,0,0,0,1-.06l1-.1a5,5,0,0,0,1.08-.32,2.74,2.74,0,0,0,1-.54,2.46,2.46,0,0,0,.54-.53,4.31,4.31,0,0,0,.44-.59,9.26,9.26,0,0,0,1.07-3.64,21.64,21.64,0,0,0,.15-2.51c0-.47,0-.91,0-1.34s-.06-1-.1-1.5-.06-1.05-.09-1.55c-.07-.35-.14-.69-.2-1s-.13-.7-.19-1-.07-.41-.1-.59A3.21,3.21,0,0,0,700.75,282.43Z"/><path d="M720.87,276.86a.18.18,0,0,1,.15.06.91.91,0,0,1,.1.16.94.94,0,0,0,.1.1v.22s0,.09,0,.16a.54.54,0,0,1-.05.16.52.52,0,0,0-.1.11.65.65,0,0,0-.15.1h-.34c-1.3-.39-2.64-.76-4-1.12a13.55,13.55,0,0,0-4.15-.43l-.54.11-.54.11a3.37,3.37,0,0,0-.34.21,3.37,3.37,0,0,0-.34.21l-.49.22-.54.21a14,14,0,0,1-1.66.43,13.05,13.05,0,0,1-1.75.21,4.35,4.35,0,0,1-.74.06h-.88a.57.57,0,0,0-.14-.11s-.07,0-.1-.11a215798322684.26,215798322684.26,0,0,0-.1-.32,308283318078.65,308283318078.65,0,0,0,.1-.32l.1-.11a.56.56,0,0,1,.14-.1h.15a4.78,4.78,0,0,0,.73-.06h.69a10.58,10.58,0,0,0,1.61-.21,13,13,0,0,0,1.56-.43,4.06,4.06,0,0,1,.44-.16l.44-.21.39-.22a1.19,1.19,0,0,1,.34-.16,3,3,0,0,1,.69-.21l.68-.11h.73a16.64,16.64,0,0,1,2.2.16c1,.18,1.94.4,2.88.64.45.11.91.24,1.37.38S720.42,276.72,720.87,276.86Zm-9.76,21.82a.26.26,0,0,1-.05.17.25.25,0,0,1,0,.16.49.49,0,0,1-.1.16.39.39,0,0,1-.14.05.32.32,0,0,1-.15,0,.37.37,0,0,1-.2,0,.14.14,0,0,1-.09-.05.33.33,0,0,1-.15-.16.25.25,0,0,1,0-.16.26.26,0,0,1,0-.17v-.8l-.05-1.12c0-1.39-.06-2.76-.09-4.12s-.07-2.76-.1-4.12c0-1.1-.05-2.21-.05-3.31,0-.72,0-1.41.05-2.09,0-1.82,0-3.62.1-5.4q.24-4.55.34-5.72c.1-.79.16-1.39.19-1.82a22.3,22.3,0,0,1,.69-3.48,8.41,8.41,0,0,1,1.56-3.05,4.41,4.41,0,0,1,.49-.48,2.58,2.58,0,0,1,.54-.37,1,1,0,0,1,.39-.22,3.42,3.42,0,0,1,.44-.16,3.48,3.48,0,0,1,.83-.1,2.84,2.84,0,0,1,.73.1,10.89,10.89,0,0,1,1.51.43,25.44,25.44,0,0,1,5.47,3.1l5,3.85a.19.19,0,0,1,.1.16.76.76,0,0,1,.09.16v.33a.57.57,0,0,0-.09.16l-.1.1a.18.18,0,0,1-.15.06.2.2,0,0,1-.14.05.21.21,0,0,1-.15-.05.19.19,0,0,1-.15-.06c-1.62-1.25-3.27-2.51-4.93-3.8a24.47,24.47,0,0,0-5.32-3,13,13,0,0,0-1.56-.43,2.4,2.4,0,0,0-1.57.32.94.94,0,0,0-.39.32l-.39.32a8.94,8.94,0,0,0-1.66,4,39.26,39.26,0,0,0-.49,4.39q-.24,3.9-.34,7.81c-.09,2.64-.13,5.26-.09,7.86,0,1.39.06,2.76.09,4.12s.12,2.76.15,4.12V298a1.25,1.25,0,0,1,.05.32Z"/><path d="M746.56,276.86a.18.18,0,0,1,.15.06.91.91,0,0,1,.1.16l.1.1v.22s0,.09,0,.16a.54.54,0,0,1,0,.16.52.52,0,0,0-.1.11.48.48,0,0,0-.15.1h-.34c-1.3-.39-2.64-.76-4-1.12a13.55,13.55,0,0,0-4.15-.43l-.54.11-.54.11a2545883896120.24,2545883896120.24,0,0,1-.68.42l-.49.22-.54.21a14,14,0,0,1-1.66.43,13.05,13.05,0,0,1-1.75.21,4.35,4.35,0,0,1-.74.06h-.88a.57.57,0,0,0-.14-.11s-.07,0-.1-.11a1618487419948.51,1618487419948.51,0,0,0-.1-.32,1618487419912,1618487419912,0,0,1,.1-.32l.1-.11a.56.56,0,0,1,.14-.1h.15a4.78,4.78,0,0,0,.73-.06h.69a10.58,10.58,0,0,0,1.61-.21,13,13,0,0,0,1.56-.43,4.06,4.06,0,0,1,.44-.16l.44-.21.39-.22a1.19,1.19,0,0,1,.34-.16,3.11,3.11,0,0,1,.68-.21l.69-.11h.73a16.64,16.64,0,0,1,2.2.16c1,.18,1.93.4,2.88.64.45.11.91.24,1.37.38S746.11,276.72,746.56,276.86Zm-9.76,21.82a.26.26,0,0,1,0,.17.25.25,0,0,1,0,.16.74.74,0,0,1-.1.16.39.39,0,0,1-.14.05.32.32,0,0,1-.15,0,.37.37,0,0,1-.2,0,.14.14,0,0,1-.09-.05.33.33,0,0,1-.15-.16.25.25,0,0,1,0-.16.26.26,0,0,1-.05-.17v-.8l0-1.12c0-1.39-.06-2.76-.09-4.12s-.07-2.76-.1-4.12c0-1.1,0-2.21,0-3.31,0-.72,0-1.41,0-2.09,0-1.82,0-3.62.1-5.4q.24-4.55.34-5.72c.1-.79.16-1.39.19-1.82a22.3,22.3,0,0,1,.69-3.48,8.41,8.41,0,0,1,1.56-3.05,4.41,4.41,0,0,1,.49-.48,2.8,2.8,0,0,1,.53-.37,1.06,1.06,0,0,1,.4-.22,4,4,0,0,1,.43-.16,3.61,3.61,0,0,1,.83-.1,2.85,2.85,0,0,1,.74.1,10.89,10.89,0,0,1,1.51.43,25.44,25.44,0,0,1,5.47,3.1l5,3.85a.19.19,0,0,1,.1.16.76.76,0,0,1,.09.16v.33a.57.57,0,0,0-.09.16.94.94,0,0,0-.1.1.18.18,0,0,1-.15.06.2.2,0,0,1-.14.05.21.21,0,0,1-.15-.05.19.19,0,0,1-.15-.06c-1.63-1.25-3.27-2.51-4.93-3.8a24.47,24.47,0,0,0-5.32-3,13,13,0,0,0-1.56-.43,2.4,2.4,0,0,0-1.57.32.94.94,0,0,0-.39.32l-.39.32a8.94,8.94,0,0,0-1.66,4,39.26,39.26,0,0,0-.49,4.39q-.24,3.9-.34,7.81t-.1,7.86c0,1.39.07,2.76.1,4.12s.12,2.76.15,4.12V298a1.25,1.25,0,0,1,0,.32Z"/><path d="M689.86,406.72c.56,0,1,.08,1.22.11s.6,0,1.13.06a7.08,7.08,0,0,0,1,.1l1,.16.49.11a2,2,0,0,1,.44.05,2.26,2.26,0,0,0,.48.16l.49.22a6.36,6.36,0,0,1,2.1,1.55,11.64,11.64,0,0,1,1.56,2.14,1.37,1.37,0,0,0,.15.21,2,2,0,0,1,.1.27c.16.32.31.64.44,1l.39,1q.09.25.15.48a2.3,2.3,0,0,1,.14.42c.16.47.28.82.34,1.07a9.87,9.87,0,0,0,.25,1.07c.13.65.24,1.18.34,1.61s.16,1,.29,1.66a9.69,9.69,0,0,1,.1,1.17c0,.25.08.93.15,2,0,.47,0,.93,0,1.4a20.91,20.91,0,0,1-.2,2.78,10.84,10.84,0,0,1-1.22,3.95l-.49.75a6.1,6.1,0,0,1-.68.65,4.72,4.72,0,0,1-2.2,1,21.91,21.91,0,0,1-2.44.27,16.45,16.45,0,0,1-4.2-.64,24.3,24.3,0,0,1-4-1.66,23.41,23.41,0,0,1-2.59-1.87,14.65,14.65,0,0,1-2.35-2.25l-.53-.69a5.23,5.23,0,0,1-.44-.81,3.48,3.48,0,0,1-.3-.8,6.23,6.23,0,0,1-.24-.8,23.64,23.64,0,0,1-.44-4.49v-.38c0-1.64.11-3.26.24-4.87a16.16,16.16,0,0,1,.4-2.46,13.85,13.85,0,0,1,.78-2.3,7.35,7.35,0,0,1,.49-.85,6.16,6.16,0,0,1,.63-.8,2.27,2.27,0,0,1,.44-.38l.49-.32c.23-.11.79-.32,1.71-.64a10.76,10.76,0,0,1,3.32-.38Zm10.89,10.43c-.1-.46-.18-.82-.24-1.07s-.17-.55-.3-1a2.39,2.39,0,0,0-.14-.43,2.76,2.76,0,0,0-.15-.43c-.13-.39-.28-.76-.44-1.12a9.66,9.66,0,0,0-.54-1.12,8.79,8.79,0,0,0-1.41-1.93,5.65,5.65,0,0,0-1.81-1.34,3217295880934,3217295880934,0,0,1-.78-.32,2,2,0,0,0-.44-.05l-.44-.11c-1-.14-2.08-.25-3.12-.32-.52,0-1.05,0-1.57,0s-1.09,0-1.61,0a11.71,11.71,0,0,0-1.8.27,5.4,5.4,0,0,0-1.66.59l-.39.21a1.17,1.17,0,0,0-.35.27,2.39,2.39,0,0,0-.48.64,2.7,2.7,0,0,0-.4.7,11.91,11.91,0,0,0-1,3.79q-.2,2-.24,4c0,.43,0,.86,0,1.28,0,.58,0,1.15,0,1.72a18,18,0,0,0,.34,3c.06.22.13.45.19.7a6.48,6.48,0,0,0,.25.64,2.36,2.36,0,0,0,.39.69,4.31,4.31,0,0,1,.44.59,17.53,17.53,0,0,0,5.66,4.39,15.45,15.45,0,0,0,6.69,1.66,8.52,8.52,0,0,0,1-.06l1-.1a5,5,0,0,0,1.08-.33,2.57,2.57,0,0,0,1-.53,2.31,2.31,0,0,0,.54-.54,3.68,3.68,0,0,0,.44-.58,9.31,9.31,0,0,0,1.07-3.64,21.64,21.64,0,0,0,.15-2.51c0-.47,0-.91,0-1.34s-.06-1-.1-1.5-.06-1.05-.09-1.55-.14-.7-.2-1-.13-.69-.19-1-.07-.41-.1-.59A3.63,3.63,0,0,0,700.75,417.15Z"/><path d="M720.87,411.59a.18.18,0,0,1,.15.06.64.64,0,0,1,.1.16.94.94,0,0,0,.1.1v.22s0,.09,0,.16a.54.54,0,0,1-.05.16l-.1.1a1.18,1.18,0,0,0-.15.11h-.34c-1.3-.39-2.64-.76-4-1.12a13.55,13.55,0,0,0-4.15-.43l-.54.11-.54.1-.34.22a3.37,3.37,0,0,0-.34.21l-.49.22-.54.21a14,14,0,0,1-1.66.43,14.91,14.91,0,0,1-1.75.21,4.35,4.35,0,0,1-.74.06h-.88a.4.4,0,0,0-.14-.11s-.07,0-.1-.11a269747903291.14,269747903291.14,0,0,0-.1-.32,223239644130.68,223239644130.68,0,0,0,.1-.32l.1-.11a.56.56,0,0,1,.14-.1h.15a4.78,4.78,0,0,0,.73-.06h.69a10.58,10.58,0,0,0,1.61-.21,13,13,0,0,0,1.56-.43,4.06,4.06,0,0,1,.44-.16l.44-.21.39-.22a1.19,1.19,0,0,1,.34-.16,2.28,2.28,0,0,1,.69-.21l.68-.11h.73a15.1,15.1,0,0,1,2.2.16c1,.18,1.94.39,2.88.64.45.11.91.24,1.37.38S720.42,411.45,720.87,411.59Zm-9.76,21.82a223239644125.94,223239644125.94,0,0,0-.1.32.34.34,0,0,1-.1.16.3.3,0,0,1-.14.06l-.15.05a.49.49,0,0,1-.2-.05.12.12,0,0,1-.09-.06.26.26,0,0,1-.15-.16,1618487419948.06,1618487419948.06,0,0,0-.1-.32v-.8l-.05-1.12c0-1.39-.06-2.76-.09-4.12s-.07-2.76-.1-4.12c0-1.1-.05-2.21-.05-3.31,0-.72,0-1.41.05-2.09,0-1.82,0-3.62.1-5.4q.24-4.54.34-5.73c.1-.78.16-1.39.19-1.81a22.3,22.3,0,0,1,.69-3.48,8.41,8.41,0,0,1,1.56-3.05,4.41,4.41,0,0,1,.49-.48,2.58,2.58,0,0,1,.54-.37,1,1,0,0,1,.39-.22,3.42,3.42,0,0,1,.44-.16,3.51,3.51,0,0,1,.83-.11,2.88,2.88,0,0,1,.73.11,10.89,10.89,0,0,1,1.51.43,25,25,0,0,1,5.47,3.1c1.69,1.28,3.37,2.57,5,3.85a.19.19,0,0,1,.1.16.76.76,0,0,1,.09.16v.32a.76.76,0,0,0-.09.16l-.1.11a.18.18,0,0,1-.15.06.2.2,0,0,1-.14.05.21.21,0,0,1-.15-.05.19.19,0,0,1-.15-.06c-1.62-1.25-3.27-2.51-4.93-3.8a24.47,24.47,0,0,0-5.32-3,11.33,11.33,0,0,0-1.56-.43,2.4,2.4,0,0,0-1.57.32.94.94,0,0,0-.39.32l-.39.32a8.94,8.94,0,0,0-1.66,4,39.26,39.26,0,0,0-.49,4.39q-.24,3.9-.34,7.81c-.09,2.63-.13,5.26-.09,7.86,0,1.39.06,2.76.09,4.12s.12,2.76.15,4.11v1.34a1.25,1.25,0,0,1,.05.32Z"/><path d="M746.56,411.59a.18.18,0,0,1,.15.06.64.64,0,0,1,.1.16l.1.1v.22s0,.09,0,.16a.54.54,0,0,1,0,.16l-.1.1a.73.73,0,0,0-.15.11h-.34c-1.3-.39-2.64-.76-4-1.12a13.55,13.55,0,0,0-4.15-.43l-.54.11-.54.1-.34.22a3.37,3.37,0,0,0-.34.21l-.49.22-.54.21a14,14,0,0,1-1.66.43,14.91,14.91,0,0,1-1.75.21,4.35,4.35,0,0,1-.74.06h-.88a.4.4,0,0,0-.14-.11s-.07,0-.1-.11a.23.23,0,0,1,0-.16.23.23,0,0,1,0-.16,1618487419947.68,1618487419947.68,0,0,0,.1-.32l.1-.11a.56.56,0,0,1,.14-.1h.15a4.78,4.78,0,0,0,.73-.06h.69a10.58,10.58,0,0,0,1.61-.21,13,13,0,0,0,1.56-.43,4.06,4.06,0,0,1,.44-.16l.44-.21.39-.22a1.19,1.19,0,0,1,.34-.16,2.31,2.31,0,0,1,.68-.21L738,410h.73a15.1,15.1,0,0,1,2.2.16c1,.18,1.93.39,2.88.64.45.11.91.24,1.37.38S746.11,411.45,746.56,411.59Zm-9.76,21.82a1618487419911.8,1618487419911.8,0,0,0-.1.32.44.44,0,0,1-.1.16.3.3,0,0,1-.14.06.5.5,0,0,1-.15.05.49.49,0,0,1-.2-.05.12.12,0,0,1-.09-.06.26.26,0,0,1-.15-.16,231212488536.59,231212488536.59,0,0,0-.1-.32v-.8l0-1.12c0-1.39-.06-2.76-.09-4.12s-.07-2.76-.1-4.12c0-1.1,0-2.21,0-3.31,0-.72,0-1.41,0-2.09,0-1.82,0-3.62.1-5.4q.24-4.54.34-5.73c.1-.78.16-1.39.19-1.81a22.3,22.3,0,0,1,.69-3.48,8.41,8.41,0,0,1,1.56-3.05,4.41,4.41,0,0,1,.49-.48,2.8,2.8,0,0,1,.53-.37,1.06,1.06,0,0,1,.4-.22,4,4,0,0,1,.43-.16,3.65,3.65,0,0,1,.83-.11,2.89,2.89,0,0,1,.74.11,10.89,10.89,0,0,1,1.51.43,25,25,0,0,1,5.47,3.1c1.69,1.28,3.37,2.57,5,3.85a.19.19,0,0,1,.1.16.76.76,0,0,1,.09.16v.32a.76.76,0,0,0-.09.16l-.1.11a.18.18,0,0,1-.15.06.2.2,0,0,1-.14.05.21.21,0,0,1-.15-.05.19.19,0,0,1-.15-.06c-1.63-1.25-3.27-2.51-4.93-3.8a24.47,24.47,0,0,0-5.32-3,11.33,11.33,0,0,0-1.56-.43,2.4,2.4,0,0,0-1.57.32.94.94,0,0,0-.39.32l-.39.32a8.94,8.94,0,0,0-1.66,4,39.26,39.26,0,0,0-.49,4.39q-.24,3.9-.34,7.81c-.1,2.63-.13,5.26-.1,7.86,0,1.39.07,2.76.1,4.12s.12,2.76.15,4.11v1.34a1.25,1.25,0,0,1,0,.32Z"/><path d="M681.27,566.62h5.52c1.85,0,3.69,0,5.51,0h13.82a.39.39,0,0,1,.2.06.14.14,0,0,0,.1,0,.32.32,0,0,1,.14.16,269747903291.1,269747903291.1,0,0,1,.1.32,359663871129.2,359663871129.2,0,0,1-.1.32.57.57,0,0,1-.14.11.25.25,0,0,1-.15,0,.17.17,0,0,1-.15,0h-5.91c-1.3,0-2.62,0-4,0h-16v-4.65c0-1.53,0-3.07,0-4.6v-5.83c0-2,0-3.91,0-5.83v-8.5q0-4.23,0-8.51a.45.45,0,0,1,0-.16.25.25,0,0,1,0-.16.52.52,0,0,0,.1-.11.65.65,0,0,0,.15-.1h.34a.48.48,0,0,0,.15.1l.09.11a.21.21,0,0,1,0,.16.54.54,0,0,1,0,.16v8.51c0,2.81.05,5.65.05,8.5v5.83c0,1.92,0,3.85,0,5.78v8.18Z"/><path d="M718.14,540.36c.55,0,1,.07,1.22.1s.6,0,1.12.06a7.31,7.31,0,0,0,1,.1l1,.17.48.1a1.46,1.46,0,0,1,.44.06,3.49,3.49,0,0,0,.49.16l.49.21a6.51,6.51,0,0,1,2.1,1.55,12,12,0,0,1,1.56,2.14.69.69,0,0,0,.15.21l.1.27c.16.32.3.64.44,1l.39,1a4.71,4.71,0,0,1,.14.48,1.69,1.69,0,0,1,.15.43c.16.46.28.82.34,1.07a7.91,7.91,0,0,0,.24,1.07c.13.64.25,1.17.35,1.6s.16,1,.29,1.66c.06.53.1.93.1,1.18s.08.92.14,2c0,.46,0,.93,0,1.39a20.73,20.73,0,0,1-.19,2.78,11,11,0,0,1-1.22,4c-.17.25-.33.5-.49.75a8.81,8.81,0,0,1-.69.64,4.68,4.68,0,0,1-2.19,1,18,18,0,0,1-2.44.27,16,16,0,0,1-4.2-.64,24.41,24.41,0,0,1-4-1.66,22.93,22.93,0,0,1-2.58-1.87,14.22,14.22,0,0,1-2.35-2.25l-.54-.69a6.83,6.83,0,0,1-.44-.8,3.54,3.54,0,0,1-.29-.81,4.68,4.68,0,0,1-.24-.8,22.78,22.78,0,0,1-.44-4.49v-.38q0-2.46.24-4.86a17.47,17.47,0,0,1,.39-2.46,15.57,15.57,0,0,1,.78-2.3c.17-.32.33-.61.49-.86a8.3,8.3,0,0,1,.64-.8,2.32,2.32,0,0,1,.44-.38l.48-.32c.23-.1.8-.32,1.71-.64a10.91,10.91,0,0,1,3.32-.37ZM729,550.79c-.1-.47-.18-.82-.25-1.07l-.29-1a2,2,0,0,0-.15-.43,2.3,2.3,0,0,0-.14-.42,11.55,11.55,0,0,0-.44-1.13,10.51,10.51,0,0,0-.54-1.12,9,9,0,0,0-1.41-1.93,5.85,5.85,0,0,0-1.81-1.33,1608647940601.71,1608647940601.71,0,0,0-.78-.32,1.51,1.51,0,0,0-.44-.06l-.44-.1c-1-.15-2.09-.25-3.13-.33-.52,0-1,0-1.56,0s-1.09,0-1.61,0a11.83,11.83,0,0,0-1.81.27,5.77,5.77,0,0,0-1.66.59l-.39.21a1.5,1.5,0,0,0-.34.27,2.42,2.42,0,0,0-.49.64,3.21,3.21,0,0,0-.39.7,12,12,0,0,0-1,3.8c-.13,1.32-.22,2.63-.25,4,0,.43-.05.86-.05,1.29s0,1.14.05,1.71a18.88,18.88,0,0,0,.34,3c.07.22.13.45.2.7a5.55,5.55,0,0,0,.24.64,3.21,3.21,0,0,0,.39.7,3.16,3.16,0,0,1,.44.58A17.68,17.68,0,0,0,717,565a15.45,15.45,0,0,0,6.69,1.66,8.35,8.35,0,0,0,1-.06l1-.1a4.78,4.78,0,0,0,1.07-.32,3.45,3.45,0,0,0,1.52-1.07,4.31,4.31,0,0,0,.44-.59,9.43,9.43,0,0,0,1.07-3.64,21.51,21.51,0,0,0,.15-2.51c0-.46,0-.91,0-1.34s-.07-1-.1-1.5-.06-1-.1-1.55-.13-.69-.19-1-.13-.7-.2-1-.06-.41-.1-.59A3.46,3.46,0,0,0,729,550.79Z"/><path d="M752.08,565.76q.69-2.88,1.32-5.72c.45-1.93.91-3.85,1.37-5.78.35-1.49.71-3,1.07-4.44s.67-3,1-4.44q.39-1.65.78-3.36l.78-3.32a.25.25,0,0,0,.05-.16.57.57,0,0,1,.14-.11l.1-.1h.34a.29.29,0,0,1,.15,0l.1.11a.49.49,0,0,0,.1.16V539c-.27,1.1-.53,2.23-.79,3.37l-.78,3.31c-.36,1.47-.71,2.94-1.07,4.44s-.67,2.94-1,4.44c-.52,2.28-1.06,4.57-1.61,6.85s-1.09,4.56-1.61,6.84a2.44,2.44,0,0,0-.44.06c-.36-.79-.72-1.55-1.07-2.3s-.67-1.57-1-2.36-.78-1.73-1.17-2.62-.83-1.78-1.22-2.67c-.49-1.07-1-2.14-1.42-3.21l-1.46-3.21c-.1.43-.21.87-.34,1.34l-.3,1.28c-.23.86-.45,1.73-.68,2.62l-.68,2.62q-.54,2.15-1.08,4.23c-.36,1.42-.71,2.85-1.07,4.28H740q-.44-1.87-.93-3.75c-.32-1.21-.65-2.44-1-3.69q-.59-2.19-1.17-4.44c-.4-1.49-.79-3-1.18-4.44q-.83-3.26-1.66-6.47T732.35,539v-.21a.47.47,0,0,1,0-.16.18.18,0,0,1,.05-.11.55.55,0,0,1,.1-.16.26.26,0,0,1,.15,0H733l.1.1a.57.57,0,0,1,.14.11.25.25,0,0,1,.05.16q.82,3.25,1.71,6.47c.55,2.18,1.11,4.33,1.66,6.47q.59,2.25,1.17,4.44t1.17,4.44c.2.82.39,1.62.59,2.41s.44,1.62.63,2.4c.26-1,.51-1.94.74-2.94s.5-1.92.73-2.89.45-1.78.68-2.67.46-1.73.69-2.62.39-1.57.58-2.35.39-1.57.59-2.36a2.23,2.23,0,0,0,.44,0c.65,1.43,1.28,2.83,1.9,4.22s1.26,2.79,1.91,4.18l1.17,2.67c.39.86.78,1.73,1.17,2.62.13.29.26.59.39.91s.31.57.44.86.13.28.2.42S752,565.62,752.08,565.76Z"/><path d="M851.14,278.57c.55,0,1,.07,1.22.11s.6,0,1.12.05a7.69,7.69,0,0,0,1,.11l1,.16.48.1a1.46,1.46,0,0,1,.44.06,3.49,3.49,0,0,0,.49.16l.49.21a6.66,6.66,0,0,1,2.1,1.55,12,12,0,0,1,1.56,2.14.86.86,0,0,0,.15.22l.1.26c.16.32.3.64.44,1l.39,1a4.71,4.71,0,0,1,.14.48,1.84,1.84,0,0,1,.15.43c.16.46.28.82.34,1.07a7.91,7.91,0,0,0,.24,1.07c.13.64.25,1.17.35,1.6s.16,1,.29,1.66.1.93.1,1.18.08.92.14,2c0,.46,0,.93,0,1.39a20.73,20.73,0,0,1-.19,2.78,11,11,0,0,1-1.22,4c-.17.25-.33.5-.49.75a7.23,7.23,0,0,1-.69.64,4.68,4.68,0,0,1-2.19,1,18,18,0,0,1-2.44.27,16,16,0,0,1-4.2-.64,24.41,24.41,0,0,1-4-1.66,22.93,22.93,0,0,1-2.58-1.87,14.22,14.22,0,0,1-2.35-2.25l-.54-.69a6.83,6.83,0,0,1-.44-.8,3.54,3.54,0,0,1-.29-.81,4.42,4.42,0,0,1-.24-.8,22.78,22.78,0,0,1-.44-4.49v-.37c0-1.64.11-3.27.24-4.87a17.47,17.47,0,0,1,.39-2.46,15.57,15.57,0,0,1,.78-2.3c.17-.32.33-.61.49-.86a8.3,8.3,0,0,1,.64-.8,2,2,0,0,1,.44-.37l.48-.33c.23-.1.8-.32,1.71-.64a10.91,10.91,0,0,1,3.32-.37ZM862,289c-.1-.46-.18-.82-.25-1.07s-.16-.55-.29-1a2,2,0,0,0-.15-.43,2.3,2.3,0,0,0-.14-.42,11.55,11.55,0,0,0-.44-1.13,10.51,10.51,0,0,0-.54-1.12,9.29,9.29,0,0,0-1.41-1.93,5.85,5.85,0,0,0-1.81-1.33,3217295881128.7,3217295881128.7,0,0,0-.78-.32,1.51,1.51,0,0,0-.44-.06l-.44-.1c-1-.15-2.09-.25-3.13-.32q-.78-.06-1.56-.06c-.55,0-1.09,0-1.61.06a10.67,10.67,0,0,0-1.81.26,5.77,5.77,0,0,0-1.66.59l-.39.21a1.84,1.84,0,0,0-.34.27,2.59,2.59,0,0,0-.49.64,3.21,3.21,0,0,0-.39.7,12,12,0,0,0-1,3.8c-.13,1.32-.22,2.64-.25,3.95,0,.43-.05.86-.05,1.29s0,1.14.05,1.71a18.88,18.88,0,0,0,.34,3c.07.22.13.45.2.7a5.55,5.55,0,0,0,.24.64,3.21,3.21,0,0,0,.39.7,3.24,3.24,0,0,1,.44.59,17.79,17.79,0,0,0,5.67,4.38,15.45,15.45,0,0,0,6.69,1.66c.35,0,.7,0,1-.05l1-.11a4.78,4.78,0,0,0,1.07-.32,3.45,3.45,0,0,0,1.52-1.07,4.31,4.31,0,0,0,.44-.59,9.43,9.43,0,0,0,1.07-3.64,21.51,21.51,0,0,0,.15-2.51c0-.46,0-.91,0-1.34s-.07-1-.1-1.5-.06-1.05-.1-1.55c-.06-.35-.13-.69-.19-1s-.13-.7-.2-1-.06-.41-.1-.59A3.46,3.46,0,0,0,862,289Z"/><path d="M866.72,303v.75a5.12,5.12,0,0,0,0,.7v1.12a.54.54,0,0,1,0,.16.34.34,0,0,1-.05.16l-.09.11a.48.48,0,0,0-.15.1h-.29a.48.48,0,0,1-.15-.1,1.18,1.18,0,0,1-.15-.11.32.32,0,0,0-.05-.16.25.25,0,0,1,0-.16v-2.52a7.08,7.08,0,0,0,0-.85v-1.29c0-.57,0-1.14-.05-1.71v-1.76c0-.79,0-1.55,0-2.3s0-1.55-.05-2.3c0-1.14,0-2.28,0-3.42s0-2.23,0-3.37a1644177696430.06,1644177696430.06,0,0,1,.1-.32.52.52,0,0,1,.1-.11.57.57,0,0,0,.14-.11h.35a.57.57,0,0,0,.14.11l.1.11a323697484035.69,323697484035.69,0,0,0,.1.32c0,1.14,0,2.26,0,3.37s0,2.26.05,3.36c0,.79,0,1.58,0,2.36v2.3c0,.57,0,1.14,0,1.71v1.76a5.18,5.18,0,0,1,.05.81V303Zm10-15.72a7.16,7.16,0,0,0-1.85,0,16.91,16.91,0,0,0-1.91.32c-.65.14-1.28.3-1.9.48a14.57,14.57,0,0,0-1.95.8,8.68,8.68,0,0,0-1.86,1.12,1.4,1.4,0,0,0-.39.38,3.94,3.94,0,0,0-.49.48l-.1.11a.39.39,0,0,1-.14,0q-.11.06-.15,0h-.19a.52.52,0,0,1-.1-.11.4.4,0,0,1-.1-.16.23.23,0,0,1,0-.16.16.16,0,0,1,0-.1v-.06a.23.23,0,0,0,0-.16.74.74,0,0,1,.1-.16l.54-.53a4.6,4.6,0,0,1,.44-.43,8.75,8.75,0,0,1,2-1.23,17.29,17.29,0,0,1,2.15-.91c.65-.18,1.31-.34,2-.48a13.32,13.32,0,0,1,2-.38h2c.36,0,.72.09,1.08.16s.71.16,1.07.27a11.86,11.86,0,0,1,2.39,1.12,11.1,11.1,0,0,1,2.05,1.77c.75.93,1.47,1.89,2.15,2.89a15.18,15.18,0,0,1,1.76,3.21c.1.32.19.62.29.91a5.47,5.47,0,0,1,.2,1,7.63,7.63,0,0,1,0,.8V299c0,.61,0,1.07,0,1.39s-.08.75-.15,1.39l-.24,1.87L887,306a.21.21,0,0,0,0,.16l-.1.11a.48.48,0,0,1-.15.11.2.2,0,0,1-.14.05h-.15a.29.29,0,0,0-.15-.05.57.57,0,0,1-.14-.11l-.1-.16v-.16c0-.07,0-.13,0-.16l.34-2.19.24-1.88c0-.6.07-1.07.1-1.39s.07-.71.1-1.28v-.7a4.72,4.72,0,0,0,0-.64,6.31,6.31,0,0,0-.15-.85c-.09-.25-.19-.52-.29-.81a15.34,15.34,0,0,0-.93-2c-.39-.61-.79-1.2-1.22-1.77-.26-.36-.52-.69-.78-1a11,11,0,0,0-.78-1,7.44,7.44,0,0,0-2.54-2,11.77,11.77,0,0,0-3-1h-.39Z"/><path d="M851.14,406.72l1.22.11c.23,0,.6,0,1.12.06a7.31,7.31,0,0,0,1,.1l1,.16.48.11a1.9,1.9,0,0,1,.44.05,2.54,2.54,0,0,0,.49.16l.49.22a6.36,6.36,0,0,1,2.1,1.55,11.64,11.64,0,0,1,1.56,2.14.69.69,0,0,0,.15.21c0,.07.06.16.1.27.16.32.3.64.44,1l.39,1a3.59,3.59,0,0,1,.14.48,1.77,1.77,0,0,1,.15.42c.16.47.28.82.34,1.07a7.59,7.59,0,0,0,.24,1.07c.13.65.25,1.18.35,1.61s.16,1,.29,1.66c.06.53.1.92.1,1.17s.08.93.14,2c0,.47,0,.93,0,1.4a20.84,20.84,0,0,1-.19,2.78,11,11,0,0,1-1.22,3.95c-.17.25-.33.5-.49.75a7.28,7.28,0,0,1-.69.65,4.68,4.68,0,0,1-2.19,1,21.91,21.91,0,0,1-2.44.27,16.45,16.45,0,0,1-4.2-.64,16.07,16.07,0,0,1-6.59-3.53,14.65,14.65,0,0,1-2.35-2.25L843,427a6.24,6.24,0,0,1-.44-.81,3.46,3.46,0,0,1-.29-.8,5,5,0,0,1-.24-.8,22.85,22.85,0,0,1-.44-4.49v-.38c0-1.64.11-3.26.24-4.87a17.47,17.47,0,0,1,.39-2.46,16,16,0,0,1,.78-2.3c.17-.32.33-.6.49-.85a7.24,7.24,0,0,1,.64-.8,2,2,0,0,1,.44-.38l.48-.32c.23-.11.8-.32,1.71-.64a10.84,10.84,0,0,1,3.32-.38ZM862,417.15c-.1-.46-.18-.82-.25-1.07l-.29-1a1.84,1.84,0,0,0-.15-.43,2.68,2.68,0,0,0-.14-.43c-.13-.39-.28-.76-.44-1.12a9.66,9.66,0,0,0-.54-1.12,8.79,8.79,0,0,0-1.41-1.93A5.88,5.88,0,0,0,857,408.7a3217295880913.51,3217295880913.51,0,0,1-.78-.32,2,2,0,0,0-.44-.05l-.44-.11c-1-.14-2.09-.25-3.13-.32-.52,0-1,0-1.56,0s-1.09,0-1.61,0a11.83,11.83,0,0,0-1.81.27,5.49,5.49,0,0,0-1.66.59l-.39.21a1.27,1.27,0,0,0-.34.27,2.42,2.42,0,0,0-.49.64,3,3,0,0,0-.39.7,11.91,11.91,0,0,0-1,3.79c-.13,1.32-.22,2.64-.25,4,0,.43-.05.86-.05,1.28,0,.58,0,1.15.05,1.72a19.15,19.15,0,0,0,.34,3c.07.22.13.45.2.7a6.34,6.34,0,0,0,.24.64,2.93,2.93,0,0,0,.39.69,3.62,3.62,0,0,1,.44.59,17.68,17.68,0,0,0,5.67,4.39,15.45,15.45,0,0,0,6.69,1.66,8.35,8.35,0,0,0,1-.06l1-.1a4.79,4.79,0,0,0,1.07-.33,3.25,3.25,0,0,0,1.52-1.07,3.68,3.68,0,0,0,.44-.58,9.48,9.48,0,0,0,1.07-3.64,21.64,21.64,0,0,0,.15-2.51c0-.47,0-.91,0-1.34s-.07-1-.1-1.5-.06-1.05-.1-1.55-.13-.7-.19-1-.13-.69-.2-1-.06-.41-.1-.59A3.58,3.58,0,0,0,862,417.15Z"/><path d="M866.72,431.17v.75a4.86,4.86,0,0,0,0,.69v1.12a.47.47,0,0,1,0,.16.32.32,0,0,1-.05.16l-.09.11a.48.48,0,0,0-.15.11h-.29a.48.48,0,0,1-.15-.11.45.45,0,0,1-.15-.11.38.38,0,0,0-.05-.16.22.22,0,0,1,0-.16v-2.51a7,7,0,0,0,0-.85v-1.29c0-.57,0-1.14-.05-1.71V425.6c0-.78,0-1.55,0-2.3s0-1.55-.05-2.3c0-1.14,0-2.28,0-3.42s0-2.23,0-3.37a1618487419951.07,1618487419951.07,0,0,0,.1-.32l.1-.1.14-.11h.35l.14.11.1.1a231212488590.8,231212488590.8,0,0,0,.1.32c0,1.14,0,2.27,0,3.37s0,2.27.05,3.37c0,.79,0,1.57,0,2.35v2.3c0,.58,0,1.15,0,1.72v1.76a5.13,5.13,0,0,1,.05.8v1.29Zm10-15.73c-.32,0-.63-.05-.93-.05s-.6,0-.92.05a16.91,16.91,0,0,0-1.91.32c-.65.15-1.28.31-1.9.49a14.57,14.57,0,0,0-1.95.8,8.29,8.29,0,0,0-1.86,1.12,1.4,1.4,0,0,0-.39.37,5.37,5.37,0,0,0-.49.49l-.1.1a.3.3,0,0,1-.14.06q-.11,0-.15,0h-.19l-.1-.11a.49.49,0,0,1-.1-.16.25.25,0,0,1,0-.16.18.18,0,0,1,0-.11v0a.25.25,0,0,0,0-.16.55.55,0,0,1,.1-.16l.54-.54c.09-.1.24-.25.44-.43a9.51,9.51,0,0,1,2-1.23,17.21,17.21,0,0,1,2.15-.9c.65-.18,1.31-.34,2-.49a13.31,13.31,0,0,1,2-.37h2c.36,0,.72.09,1.08.16s.71.16,1.07.27a11.34,11.34,0,0,1,2.39,1.12,11.1,11.1,0,0,1,2.05,1.77c.75.92,1.47,1.89,2.15,2.88a15.18,15.18,0,0,1,1.76,3.21c.1.32.19.63.29.91a5.47,5.47,0,0,1,.2,1,8,8,0,0,1,0,.81v.75c0,.6,0,1.07,0,1.39s-.08.74-.15,1.39l-.24,1.87-.34,2.3a.19.19,0,0,0,0,.16.52.52,0,0,0-.1.11.48.48,0,0,1-.15.1.17.17,0,0,1-.14.06h-.15a.33.33,0,0,0-.15-.06.56.56,0,0,1-.14-.1.64.64,0,0,0-.1-.16v-.17a.15.15,0,0,1,0-.16l.34-2.19.24-1.87c0-.61.07-1.07.1-1.39s.07-.71.1-1.28v-.7a4.6,4.6,0,0,0,0-.64,6.45,6.45,0,0,0-.15-.86c-.09-.25-.19-.51-.29-.8a14.86,14.86,0,0,0-.93-2c-.39-.6-.79-1.19-1.22-1.76q-.39-.54-.78-1a11,11,0,0,0-.78-1,7.32,7.32,0,0,0-2.54-2,11.41,11.41,0,0,0-3-1h-.39Z"/><path d="M1202,567.63v.16a.45.45,0,0,1-.1.17.56.56,0,0,1-.14.1.19.19,0,0,1-.15.06h-.29a.37.37,0,0,0-.15-.11l-.1-.11a.25.25,0,0,0,0-.16v-.21c0-.54,0-1,0-1.45a10.41,10.41,0,0,0,0-1.07c.07-1.24.12-2,.15-2.3s0-1,0-2.19v-.91c0-.32,0-.69,0-1.12,0-2,0-3.91,0-5.83s-.15-3.92-.25-5.88c-.13-2.86-.22-5.69-.29-8.51s-.16-5.7-.19-8.56v-.16a.76.76,0,0,1,.09-.16l.1-.1a.48.48,0,0,1,.15-.11.39.39,0,0,0,.14,0,.17.17,0,0,1,.15,0,.23.23,0,0,1,.15.05l.1.16.09.11v.21c.07,2.82.13,5.66.2,8.51s.21,5.69.34,8.5c.1,2,.16,3.92.2,5.89s0,3.92,0,5.88c0,.68,0,1.35,0,2s0,1.36,0,2c0,.82-.07,1.66-.1,2.52S1202,566.78,1202,567.63Zm23-20.43a.37.37,0,0,1,.15.06.2.2,0,0,1,.14,0l.1.11a.74.74,0,0,0,.1.16V548l-.1.11a.49.49,0,0,1-.1.16.16.16,0,0,1-.14,0,.19.19,0,0,1-.15.06h-2.78c-.95,0-1.87,0-2.79,0h-3.71c-1.23,0-2.47,0-3.71,0-1.82,0-3.64,0-5.47.06H1201s-.08,0-.14,0a.18.18,0,0,1-.15-.06.91.91,0,0,1-.1-.16.57.57,0,0,1-.09-.16v-.32a.57.57,0,0,0,.09-.16.52.52,0,0,0,.1-.11.21.21,0,0,1,.15,0,.2.2,0,0,1,.14-.05c1.83,0,3.63,0,5.42-.06s3.63,0,5.42-.05h3.76c1.24,0,2.48,0,3.71,0h2.5c.48,0,1,0,1.51-.06Zm.2,20.06a.32.32,0,0,0,.05.16v.16a.23.23,0,0,1-.05.16.91.91,0,0,1-.1.16l-.1.11a.37.37,0,0,1-.15,0h-.14a.21.21,0,0,1-.15,0,.16.16,0,0,1-.14-.11.52.52,0,0,1-.1-.11,2,2,0,0,1-.1-.21.54.54,0,0,0,0-.16,3.77,3.77,0,0,1-.19-.91c-.07-.35-.12-.68-.15-1,0-.57-.07-1-.1-1.29s0-.74-.05-1.39v-6.68c0-2.21.08-4.42.15-6.63q.15-5,.39-9.95c.16-3.32.36-6.63.59-10a.25.25,0,0,1,0-.16l.1-.16.1-.11a.21.21,0,0,1,.15-.05.11.11,0,0,1,.09,0s0,0,0,0h.15a1,1,0,0,1,.15.11l.09.1a.38.38,0,0,1,0,.16.64.64,0,0,1,0,.16v.06q-.39,4.92-.63,9.89t-.39,9.9q-.06,3.36-.1,6.68t0,6.63c0,.61.05,1.06.05,1.34a11.72,11.72,0,0,0,.09,1.23c0,.29.07.57.1.86a6.91,6.91,0,0,0,.15.8l0,0A.14.14,0,0,0,1225.1,567.26Z"/><path d="M1230.33,542.87a.54.54,0,0,1,0,.21.16.16,0,0,1,0,.11.16.16,0,0,1-.15.11l-.09.11h-.2a.37.37,0,0,1-.15-.06.39.39,0,0,1-.14-.05.49.49,0,0,1-.1-.16.18.18,0,0,1-.05-.11v-.69a2.8,2.8,0,0,1,.05-.48v-.65a4.48,4.48,0,0,0,0-.64,6.66,6.66,0,0,1,0-.91,7.72,7.72,0,0,1,0-1,.25.25,0,0,1,0-.16.23.23,0,0,1,.05-.16.65.65,0,0,1,.15-.11.14.14,0,0,1,.1,0,.17.17,0,0,1,.14-.06h0a.33.33,0,0,1,.15.06.73.73,0,0,0,.15.11l.09.1a.21.21,0,0,1,0,.16v.16a8,8,0,0,1,0,1,7.18,7.18,0,0,1,0,.9v.65a4.49,4.49,0,0,0,0,.64v.43a.67.67,0,0,1-.05.26Zm.09,24.6a.5.5,0,0,0,0,.16.64.64,0,0,1-.1.16l-.1.11a.48.48,0,0,1-.15.11h-.14a.21.21,0,0,1-.15,0,.2.2,0,0,1-.15-.06.57.57,0,0,1-.09-.16.52.52,0,0,1-.1-.11v-.21l0-1.44V552.39c0-1.35.08-2.73.14-4.12a.54.54,0,0,1,.05-.16l.1-.1a.15.15,0,0,1,.15-.11.16.16,0,0,1,.14,0s.07-.06.1-.06h0a.18.18,0,0,0,.15.06l.09.1a.17.17,0,0,1,.1.16.74.74,0,0,1,.1.16v.16q-.15,2-.15,4c0,1.35,0,2.71,0,4.06s0,2.62,0,3.9v4a6.2,6.2,0,0,1,0,.86v2.24Z"/><path d="M1251.38,575a8,8,0,0,0,.93-1.12,11.63,11.63,0,0,0,1.22-2.46l.39-1.18c.26-.78.52-1.55.78-2.3s.52-1.51.78-2.3a2.2,2.2,0,0,0,.19-.69,1.11,1.11,0,0,1,.25-.59c.06-.11.16-.13.29-.06a.72.72,0,0,0,.39.11.2.2,0,0,0-.14,0,.18.18,0,0,1-.15-.06.65.65,0,0,1-.15-.1,2.87,2.87,0,0,1-.09-.32,2.87,2.87,0,0,1,.09-.32.65.65,0,0,1,.15-.11l.15-.16h0a.14.14,0,0,1,.1,0,3.5,3.5,0,0,0,.15.64,2.28,2.28,0,0,1,.1.59v.11a1.58,1.58,0,0,1-.15.69,4.27,4.27,0,0,0-.24.65c-.3.78-.56,1.55-.79,2.3s-.53,1.51-.83,2.3q-.19.63-.39,1.23A9.21,9.21,0,0,1,1254,573a9.42,9.42,0,0,1-.83,1.44c-.33.43-.67.84-1,1.23a11.65,11.65,0,0,1-6.79,3.16,35.59,35.59,0,0,1-4.2.26,30.72,30.72,0,0,1-3.22-.16,1.79,1.79,0,0,1-.44-.1c-.1,0-.36-.11-.78-.22a.64.64,0,0,1-.34-.11,1.43,1.43,0,0,1-.34-.1c-.33-.15-.65-.31-1-.48a4.62,4.62,0,0,1-.78-.75,1,1,0,0,1-.2-.32.73.73,0,0,1-.14-.32,1.3,1.3,0,0,1-.15-.32,1.4,1.4,0,0,0,0-.38v-.11a1.72,1.72,0,0,1,.15-.74,3.12,3.12,0,0,1,.29-.81l.29-.59a3.31,3.31,0,0,1,.35-.58,4.24,4.24,0,0,1,.88-.91,2.15,2.15,0,0,1,1.07-.48h.39a1.74,1.74,0,0,0,.39.05.21.21,0,0,0,.15,0,.76.76,0,0,1,.09.16l.1.11a.25.25,0,0,0,.05.16.54.54,0,0,1-.05.21.13.13,0,0,1,0,.11.57.57,0,0,1-.09.16,1,1,0,0,1-.15.11h-.49a.17.17,0,0,0-.19,0,1.05,1.05,0,0,0-.74.27,7.81,7.81,0,0,0-.53.64,5,5,0,0,0-.3.48c-.09.18-.19.36-.29.53a2.81,2.81,0,0,0-.24.59,1.06,1.06,0,0,0,0,.59V576s0,0,0,.11a1.7,1.7,0,0,0,.92,1,5.91,5.91,0,0,0,1.22.48,3.91,3.91,0,0,0,.54.16,1.33,1.33,0,0,0,.54.11,6.62,6.62,0,0,0,1.17.11c.36,0,.73,0,1.12,0a22.72,22.72,0,0,0,5.57-.37,11.16,11.16,0,0,0,5.13-2.3c.06-.08.13-.15.19-.22A.94.94,0,0,1,1251.38,575Zm6.79-18.93a9.75,9.75,0,0,1,.24,2.14,7.46,7.46,0,0,1-.15,1.49,15.84,15.84,0,0,1-.88,3.59,9.2,9.2,0,0,1-1.27,2.25,5.66,5.66,0,0,1-1.85,1.65,8.35,8.35,0,0,1-.88.38c-.33.1-.63.21-.93.32a2.3,2.3,0,0,1-.39,0,1.71,1.71,0,0,0-.34.06c-.36,0-.7,0-1,0s-.7,0-1,0c-.49,0-1,0-1.42,0l-1.46-.11c-1-.07-1.89-.16-2.83-.27s-1.94-.23-2.88-.37a8.17,8.17,0,0,1-.93-.16c-.3,0-.61-.09-.93-.16l-.54-.16-.58-.16a2,2,0,0,1-1.47-1.34,7,7,0,0,1-.54-2,3.27,3.27,0,0,1,0-.54,2.32,2.32,0,0,1,0-.53v-.75c0-.64,0-1.28,0-1.93s.08-1.26.14-1.87a18.53,18.53,0,0,1,.3-2,7.36,7.36,0,0,1,.53-1.87,8.51,8.51,0,0,1,.44-.91l.59-.75a7.44,7.44,0,0,1,5.66-2.46h0a26,26,0,0,1,6.15.7c1.27.32,2.62.69,4.06,1.12a6.12,6.12,0,0,1,3.36,2.62,2.88,2.88,0,0,1,.4.7,6.41,6.41,0,0,1,.34.8.41.41,0,0,0,0,.21A.42.42,0,0,0,1258.17,556Zm-4.06,10a5.85,5.85,0,0,0,1.52-1.5,8.69,8.69,0,0,0,.44-.8l.39-.86a14.81,14.81,0,0,0,.83-3.21,10.7,10.7,0,0,0,.09-1.39,9.62,9.62,0,0,0-.19-1.92l-.2-.65a1.76,1.76,0,0,0-.29-.58,4.52,4.52,0,0,0-1.61-1.77,8.24,8.24,0,0,0-2.1-1c-.55-.18-1-.3-1.27-.38l-2-.53a8.45,8.45,0,0,0-1.32-.27A10.73,10.73,0,0,0,1247,551a17.13,17.13,0,0,0-2.39-.16,18.19,18.19,0,0,0-2,.1,6.17,6.17,0,0,0-3.91,1.93c-.16.21-.31.43-.44.64a3,3,0,0,0-.39.7,7,7,0,0,0-.54,1.76c-.09.61-.16,1.21-.19,1.82s-.13,1.21-.2,1.82,0,1.21,0,1.82v.69a.68.68,0,0,0,0,.27v.27a2.18,2.18,0,0,0,0,.43,1.38,1.38,0,0,0,0,.37.25.25,0,0,0,.05.16v.16a3.85,3.85,0,0,0,.39,1.12,1.16,1.16,0,0,0,.78.75,5,5,0,0,1,.54.11l.54.16a8.85,8.85,0,0,1,.87.16,9.09,9.09,0,0,0,.93.16c1,.14,1.89.27,2.83.37s1.84.2,2.79.27q.73.06,1.41.06c.46,0,.93.05,1.42.05h.93c.32,0,.65,0,1-.05a1.22,1.22,0,0,1,.35-.06.69.69,0,0,1,.29-.05v0A6.29,6.29,0,0,0,1254.11,566Z"/><path d="M1279.85,553.73c.26.32.5.64.73,1a5,5,0,0,1,.54,1.12,4.22,4.22,0,0,1,.34,1.4c.07.5.13,1,.2,1.44s0,1,0,1.23,0,.68,0,1.18c0,.67,0,1.35-.09,2a14.09,14.09,0,0,1-.25,2,6.38,6.38,0,0,1-.24.91c-.1.25-.2.51-.29.8l-.1.16-.1.11a.37.37,0,0,1-.15.05h-.19l-.15-.05s-.06,0-.1-.06a.76.76,0,0,0-.09-.16.19.19,0,0,1,0-.16.23.23,0,0,1,0-.16.47.47,0,0,0,0-.16c.06-.18.13-.35.19-.53s.13-.38.2-.59a11,11,0,0,0,.29-2c.07-.72.1-1.41.1-2.09V560a9.82,9.82,0,0,0-.1-1.18c0-.46-.06-.89-.1-1.28a8.54,8.54,0,0,0-.29-1.29,4.71,4.71,0,0,0-.49-.91,7.13,7.13,0,0,0-.58-.85,10.41,10.41,0,0,0-3-2.14,18.94,18.94,0,0,0-3.52-1.13l-1.75-.32-1-.16a3.1,3.1,0,0,1-.49-.1c-.13,0-.44,0-.93-.11a1.89,1.89,0,0,0-.53,0,3.36,3.36,0,0,0-.54-.06,10.27,10.27,0,0,0-2.1.22,3.84,3.84,0,0,0-1.81,1.07l-.29.42a1.18,1.18,0,0,0-.24.43l-.15.32a3.23,3.23,0,0,0-.1.32,3.4,3.4,0,0,0-.14.59c0,.18-.07.36-.1.54v8.39c0,1.43-.05,2.87-.05,4.34v.8h-1V556.3c0-.68,0-1.36,0-2a2.17,2.17,0,0,1,.1-.69,3.5,3.5,0,0,1,.15-.64,3.57,3.57,0,0,1,.14-.43c0-.11.08-.25.15-.43l.24-.37.2-.38v3c0,.35-.05.73-.05,1.12v8.61a10.8,10.8,0,0,0,.1,1.5,2.91,2.91,0,0,1-.1,1.5c-.07.17-.2.21-.39.1a2,2,0,0,0-.59-.1c0-1.75-.05-3.5-.05-5.25v-6.47a6.56,6.56,0,0,1,.1-1.07v-7.48q0-4.23,0-8.45v-8.46a809243709996.26,809243709996.26,0,0,0,.1-.32.48.48,0,0,1,.15-.1.12.12,0,0,1,.09-.06.49.49,0,0,1,.2,0,.39.39,0,0,1,.14,0,.29.29,0,0,1,.15.06l.1.1a809243709933.15,809243709933.15,0,0,0,.1.32c0,2.82,0,5.64,0,8.46v8.45c0,.78,0,1.55,0,2.3v2.24a4,4,0,0,1,2.78-1.82,10.44,10.44,0,0,1,3.32-.1c1.89.28,3.81.66,5.76,1.12a12.12,12.12,0,0,1,5.23,2.83.9.9,0,0,1,.19.16A1.07,1.07,0,0,0,1279.85,553.73Z"/></svg>
