<svg id="Layer_1" data-name="Layer 1" xmlns="http://www.w3.org/2000/svg" width="1450" height="760" viewBox="0 0 1450 760"><defs><style>.cls-1{fill:#f5efcb;}.cls-2{opacity:0.61;}.cls-3{fill:#2e9cc6;}</style></defs><title>settingsmenuattempt286</title><rect class="cls-1" x="3.5" y="1.11" width="1443" height="757.78" rx="12" ry="12"/><path d="M541.07,124.89l2.22-16.17h10.49l2.54,11.5h9.1v-6.73l-16.15-13.12a17.65,17.65,0,0,1-5.33-6.82,21.47,21.47,0,0,1-1.72-8.67A26.25,26.25,0,0,1,543,77.6a10.71,10.71,0,0,1,2.33-4.22,15.41,15.41,0,0,1,3.37-2.74A14.15,14.15,0,0,1,553.12,69a66.38,66.38,0,0,1,12.22-.89,57.79,57.79,0,0,1,17.3,3.05l-2.21,16.17h-9.51l-2.21-11.5H560.5v6.74L576.66,95.7a17.78,17.78,0,0,1,5.33,6.83,22.23,22.23,0,0,1,1.72,9,21,21,0,0,1-1.23,7.95,12.17,12.17,0,0,1-3.07,4.53,12.84,12.84,0,0,1-4.88,2.52Q569.68,128,560.59,128A69.41,69.41,0,0,1,541.07,124.89Z"/><path d="M606.26,121.21h10.25l2.13-10h8.78l1.88,14a68.65,68.65,0,0,1-18.45,2.7c-2.24,0-4.15-.08-5.74-.23a22.92,22.92,0,0,1-5.33-1.26,12,12,0,0,1-4.75-2.87,14.71,14.71,0,0,1-3.08-5.3,23.75,23.75,0,0,1-1.27-8.22V98.4q0-11.24,3.28-15.9a21.29,21.29,0,0,1,2.17-2.79A8.56,8.56,0,0,1,599,77.87c1.2-.51,2.22-.9,3-1.17a15.83,15.83,0,0,1,3.52-.58q3.45-.27,6.73-.27c2.18,0,3.71,0,4.59.05s2,.13,3.52.31a10.86,10.86,0,0,1,3.32.81,19.12,19.12,0,0,1,2.63,1.62,6.37,6.37,0,0,1,2.21,2.6,19.5,19.5,0,0,1,1.23,3.91,28.53,28.53,0,0,1,0,11,19.38,19.38,0,0,1-1.23,3.9,6.46,6.46,0,0,1-2.21,2.61,18.92,18.92,0,0,1-2.63,1.61,10.86,10.86,0,0,1-3.32.81,63.4,63.4,0,0,1-7.46.36h-6.64Zm0-38.62V98.76h11.23V82.59Z"/><path d="M638.08,77.2h4.09L651,66.6h5.9V77.2h8.61v4.31h-8.61v40.6h4.68v-8.89h3.93v6.55c0,3.18-1,5.33-2.91,6.47s-4.88,1.71-8.81,1.71c-1.53,0-2.71,0-3.53-.09a11.85,11.85,0,0,1-3.2-.86,6.57,6.57,0,0,1-3-2.2q-2.7-3.76-2.71-11.67V81.51h-3.27Z"/><path d="M670.47,77.2h4.1l8.85-10.6h5.91V77.2h8.61v4.31h-8.61v40.6H694v-8.89h3.94v6.55c0,3.18-1,5.33-2.92,6.47s-4.87,1.71-8.81,1.71c-1.53,0-2.71,0-3.53-.09a11.7,11.7,0,0,1-3.19-.86,6.55,6.55,0,0,1-3-2.2q-2.7-3.76-2.7-11.67V81.51h-3.28Z"/><path d="M725.41,126.6H703.27v-3.41h3.27V80.61h-3.27V77.2h18.85v46h3.29Zm-4-67.46q1.47,1.26,1.47,6.2c0,3.3-.49,5.36-1.47,6.2s-3.28,1.26-6.89,1.26-6-.42-7.09-1.26-1.68-2.9-1.68-6.2.56-5.36,1.68-6.2,3.48-1.25,7.09-1.25S720.4,58.31,721.39,59.14Z"/><path d="M782.56,126.6H763.7V84H751.64V126.6H732.79v-3.41h3.27V80.61h-3.27V77.2h10.9L746.56,84h1.07c1.14-3.35,2.88-5.55,5.2-6.6s5.95-1.57,10.87-1.57,8.74,1,11.48,3,4.1,5.49,4.1,10.46v33.87h3.28Z"/><path d="M791.41,141.15a8.2,8.2,0,0,1-2.87-4.18,32.05,32.05,0,0,1-.65-7.63c0-3.5.68-6.2,2.05-8.08s2.87-2.83,4.51-2.83h6.15v-1.17q-4.19-.9-4.18-5.66V106q-7.14-2.61-7.14-12.31V91.84q0-8,2.63-11.23a16.74,16.74,0,0,1,1.8-2,6.75,6.75,0,0,1,2.34-1.3c1-.36,1.86-.63,2.54-.81A19.16,19.16,0,0,1,801.5,76c1.26-.12,2.24-.18,3-.18h3.28c3.77,0,6.55.51,8.32,1.53s2.67,2.93,2.67,5.75h1.07l.82-3.69q.9-4,2.21-5.39c.87-.89,2.49-1.34,4.84-1.34h3.61v8h-.91c-1,0-1.55.84-1.55,2.52v10.5a16.11,16.11,0,0,1-2.22,8.63c-.87,1.56-2.79,2.87-5.74,4q-2.79,1-12.79,1h-2.95v2.15a9.43,9.43,0,0,0,.57,3.91,2.25,2.25,0,0,0,2.22,1.12h12.21a10.88,10.88,0,0,1,7.59,3.19q3.4,3.2,3.4,10.56,0,9.33-4.51,12.62t-17.71,3.27a83.14,83.14,0,0,1-11.15-.58A12.75,12.75,0,0,1,791.41,141.15Zm27.88-15.45H799.45v9.43h19.84ZM814.7,99.92V83.13H803.47V99.92Z"/><path d="M839.05,125.25l2-14h9.43l2.22,10H862v-6.47l-15.33-11.58a16.63,16.63,0,0,1-5.08-5.62A15.83,15.83,0,0,1,840,90.18a17.32,17.32,0,0,1,1.11-6.87,11,11,0,0,1,2.74-4,11.73,11.73,0,0,1,4.35-2.24,45.87,45.87,0,0,1,12.18-1.26,53.33,53.33,0,0,1,16.27,2.7l-2,14h-8.6l-2-10h-8.53v6.46L871,100.64a16.78,16.78,0,0,1,5.09,5.62,15.83,15.83,0,0,1,1.55,7.36,17.38,17.38,0,0,1-1.1,6.87,11.05,11.05,0,0,1-2.75,4,11.47,11.47,0,0,1-4.34,2.25Q865.05,128,856.69,128A63.1,63.1,0,0,1,839.05,125.25Z"/><path d="M894.9,79.44c3.22,0,5.29.53,6.19,1.58s1.35,3.5,1.35,7.36-.46,6.3-1.39,7.32-3,1.53-6.24,1.53-5.33-.51-6.31-1.53S887,92.23,887,88.34s.51-6.35,1.52-7.37S891.67,79.44,894.9,79.44Zm0,30.27c3.22,0,5.29.53,6.19,1.57s1.35,3.51,1.35,7.37S902,125,901.05,126s-3,1.53-6.24,1.53-5.33-.51-6.31-1.53S887,122.5,887,118.6s.51-6.34,1.52-7.36S891.67,109.71,894.9,109.71Z"/><path d="M165.42,267.42v-2.08h18.7l2.75,13.53h.95l3.45-13.53h13.4v2.08h-2.2V298h2.2v2.08H191l5.55-31.49h-2.05l-7.95,31.49H180l-6.45-31.49h-2l4,31.49H165.42V298h2.2V267.42Z"/><path d="M210.42,291.91V272.08h-2V270h11.5v26h7.35V270h9.5v28h2v2.08h-6.15l-2-4.16H230c0,1.93-.64,3.25-1.92,3.94a12.75,12.75,0,0,1-5.83,1q-5.15,0-6.9-.71a6.68,6.68,0,0,1-3.5-2.57A10.76,10.76,0,0,1,210.42,291.91Z"/><path d="M243.77,299.3l1.2-8.54h5.75l1.35,6.07h5.7v-3.94l-9.35-7.06a10.16,10.16,0,0,1-3.1-3.43,9.71,9.71,0,0,1-.95-4.49,10.64,10.64,0,0,1,.68-4.19,6.79,6.79,0,0,1,1.67-2.41,7.12,7.12,0,0,1,2.65-1.37,28.12,28.12,0,0,1,7.43-.76,32.43,32.43,0,0,1,9.92,1.64l-1.2,8.54h-5.25l-1.2-6.08h-5.2v4l9.35,7.06a10.16,10.16,0,0,1,3.1,3.43,9.71,9.71,0,0,1,.95,4.49,10.66,10.66,0,0,1-.67,4.19,6.8,6.8,0,0,1-1.68,2.41,7.12,7.12,0,0,1-2.65,1.37,29.76,29.76,0,0,1-7.75.76A38.72,38.72,0,0,1,243.77,299.3Z"/><path d="M285.77,300.12h-13.5V298h2v-26h-2V270h11.5v28h2ZM283.32,259q.9.76.9,3.78t-.9,3.78c-.6.51-2,.76-4.2.76s-3.64-.25-4.32-.76-1-1.77-1-3.78.34-3.27,1-3.78,2.12-.77,4.32-.77S282.72,258.48,283.32,259Z"/><path d="M304.49,300.94a30.5,30.5,0,0,1-6.52-.38c-.73-.26-1.46-.54-2.18-.85a4.78,4.78,0,0,1-1.65-1.12,19.22,19.22,0,0,1-1.27-1.7,7.53,7.53,0,0,1-1.05-2.41,32.36,32.36,0,0,1-.8-7.28v-4.28a28,28,0,0,1,.57-6.24,11.17,11.17,0,0,1,1.28-3.45,19.22,19.22,0,0,1,1.27-1.7,4.64,4.64,0,0,1,1.65-1.12c.72-.31,1.31-.55,1.78-.71a8.21,8.21,0,0,1,2.05-.36c1.37-.11,2.83-.16,4.4-.16a33,33,0,0,1,10,1.64l-1.2,8.54h-5.75l-1.35-6.62h-5.2v24.64h5.2l1.35-6.62h5.75l1.2,8.54A25.6,25.6,0,0,1,304.49,300.94Z"/><path d="M323.82,271.37c2,0,3.22.32,3.77,1s.83,2.13.83,4.49-.28,3.84-.85,4.46-1.83.93-3.8.93-3.25-.31-3.85-.93-.9-2.12-.9-4.49.31-3.87.92-4.49S321.85,271.37,323.82,271.37Zm0,18.45c2,0,3.22.32,3.77,1s.83,2.14.83,4.49-.28,3.85-.85,4.47-1.83.93-3.8.93-3.25-.31-3.85-.93-.9-2.12-.9-4.49.31-3.87.92-4.49S321.85,289.82,323.82,289.82Z"/><path d="M164.67,430.52l1.35-9.86h6.4l1.55,7h5.55v-4.1l-9.85-8a10.91,10.91,0,0,1-3.25-4.16,13.11,13.11,0,0,1-1-5.29,15.84,15.84,0,0,1,.48-4.43,6.44,6.44,0,0,1,1.42-2.58,9.69,9.69,0,0,1,2-1.67,8.64,8.64,0,0,1,2.7-1,39.47,39.47,0,0,1,7.45-.55A35.22,35.22,0,0,1,190,397.77l-1.35,9.86h-5.8l-1.35-7h-5v4.11l9.85,8a10.82,10.82,0,0,1,3.25,4.16,13.63,13.63,0,0,1,1,5.48,12.78,12.78,0,0,1-.75,4.85,7.33,7.33,0,0,1-1.87,2.76,7.9,7.9,0,0,1-3,1.54,31.77,31.77,0,0,1-8.5.87A42.43,42.43,0,0,1,164.67,430.52Z"/><path d="M221.27,414.37v4.27q0,6.9-2,9.69a18.7,18.7,0,0,1-1.35,1.7,4.68,4.68,0,0,1-1.75,1.12c-.77.31-1.4.55-1.9.71a9.19,9.19,0,0,1-2.15.36,46.83,46.83,0,0,1-7.42.14,19.25,19.25,0,0,1-3.48-.5c-.47-.16-1-.4-1.72-.71a4.33,4.33,0,0,1-1.58-1.12,16.73,16.73,0,0,1-1.22-1.7,7.14,7.14,0,0,1-1-2.41,31,31,0,0,1-.8-7.28v-4.27q0-6.92,2-9.7a20.21,20.21,0,0,1,1.35-1.7,4.81,4.81,0,0,1,1.75-1.12c.77-.31,1.4-.55,1.9-.71a9.86,9.86,0,0,1,2.2-.36c1.4-.11,2.77-.16,4.1-.16s2.24,0,2.73,0,1.15.06,2,.13a8.5,8.5,0,0,1,2,.36c.47.16,1,.4,1.73.71a4.49,4.49,0,0,1,1.57,1.12,17.83,17.83,0,0,1,1.23,1.7,8.07,8.07,0,0,1,1,2.41A32.8,32.8,0,0,1,221.27,414.37Zm-9.5,13.91V404.73h-7.35v23.55Z"/><path d="M228.52,423.35V403.52h-2v-2.08H238v26h7.35v-26h9.5v28h2v2.08h-6.15l-2-4.16h-.65c0,1.94-.64,3.25-1.92,3.94a12.62,12.62,0,0,1-5.83,1c-3.43,0-5.73-.23-6.9-.71a6.68,6.68,0,0,1-3.5-2.57A10.76,10.76,0,0,1,228.52,423.35Z"/><path d="M292,431.56h-11.5v-26h-7.35v26h-11.5v-2.08h2v-26h-2v-2.08h6.65L270,405.6h.65a6.35,6.35,0,0,1,3.17-4,17.1,17.1,0,0,1,6.63-1,11.68,11.68,0,0,1,7,1.83c1.67,1.23,2.5,3.35,2.5,6.38v20.65h2Z"/><path d="M325.62,431.56h-6.15l-2-4.16h-.65q-1.45,3.18-3,4.08a9.56,9.56,0,0,1-4.72.9,21.55,21.55,0,0,1-5.4-.38,19.07,19.07,0,0,1-2-.85,4.67,4.67,0,0,1-1.53-1.15,13,13,0,0,1-1.19-1.72,8.88,8.88,0,0,1-1-2.41,29.09,29.09,0,0,1-.8-7.23v-3.45q0-6.9,2-9.7a18.39,18.39,0,0,1,1.35-1.69,4.69,4.69,0,0,1,1.75-1.13c.77-.31,1.4-.54,1.9-.71a10.48,10.48,0,0,1,2.2-.36c1.4-.1,2.71-.16,3.92-.16s2.46,0,3.73.11v-7.83h-2v-2.08h11.55v37.84h2Zm-18.9-26V427.4h7.35V405.55Z"/><path d="M342.62,431.56v-2.08h2.2V398.87h-2.2v-2.08h25.3v11.72h-5.85L360,400.07h-4.45V413h9.55v3h-9.55v12.27H360l2.05-8.44h5.85v11.72Z"/><path d="M372.17,407.25v-2.63h2V402c0-4.09.72-7,2.17-8.65s3.76-2.52,6.93-2.52a22.37,22.37,0,0,1,5.1.71l-.85,8.38h-7.6v3.28a1.61,1.61,0,0,0,.25,1,1.52,1.52,0,0,0,1.25.44h6.1v2.63h-3.85v22.23h3.5v2.08h-15v-2.08h2V407.25Z"/><path d="M390.42,407.25v-2.63h2V402c0-4.09.72-7,2.17-8.65s3.76-2.52,6.93-2.52a22.37,22.37,0,0,1,5.1.71l-.85,8.38h-7.6v3.28a1.61,1.61,0,0,0,.25,1,1.52,1.52,0,0,0,1.25.44h6.1v2.63h-3.85v22.23h3.5v2.08h-15v-2.08h2V407.25Z"/><path d="M418.92,428.28h6.25l1.3-6.08h5.35l1.15,8.54a41.82,41.82,0,0,1-11.25,1.64c-1.37,0-2.54,0-3.5-.13a13.86,13.86,0,0,1-3.25-.77,7.36,7.36,0,0,1-2.9-1.75,9,9,0,0,1-1.88-3.23,14.74,14.74,0,0,1-.77-5v-7.12c0-4.57.66-7.8,2-9.7a13.5,13.5,0,0,1,1.32-1.7,5.18,5.18,0,0,1,1.73-1.12c.73-.31,1.35-.55,1.85-.71a9.64,9.64,0,0,1,2.15-.36c1.4-.11,2.76-.16,4.1-.16s2.26,0,2.8,0,1.25.08,2.15.19a6.65,6.65,0,0,1,2,.49,11.37,11.37,0,0,1,1.6,1,3.86,3.86,0,0,1,1.35,1.59,11.37,11.37,0,0,1,.75,2.38,17.32,17.32,0,0,1,0,6.73,11.48,11.48,0,0,1-.75,2.39,3.84,3.84,0,0,1-1.35,1.58,11.37,11.37,0,0,1-1.6,1,6.65,6.65,0,0,1-2,.49,38,38,0,0,1-4.55.22h-4.05Zm0-23.55v9.86h6.85v-9.86Z"/><path d="M452.79,432.38c-3.62,0-5.79-.12-6.52-.38s-1.46-.54-2.18-.85a4.64,4.64,0,0,1-1.65-1.12,16.28,16.28,0,0,1-1.27-1.7,7.44,7.44,0,0,1-1.05-2.41,31.79,31.79,0,0,1-.8-7.28v-4.27a28,28,0,0,1,.57-6.25,11.39,11.39,0,0,1,1.28-3.45,17.43,17.43,0,0,1,1.27-1.7,4.78,4.78,0,0,1,1.65-1.12c.72-.31,1.31-.55,1.78-.71a8.6,8.6,0,0,1,2.05-.36c1.36-.11,2.83-.16,4.4-.16a33.33,33.33,0,0,1,10,1.64l-1.2,8.55h-5.75L454,404.18h-5.2v24.64H454l1.35-6.62h5.75l1.2,8.54A25.44,25.44,0,0,1,452.79,432.38Z"/><path d="M466.32,401.44h2.5l5.4-6.46h3.6v6.46h5.25v2.63h-5.25v24.75h2.85V423.4h2.4v4c0,1.94-.6,3.25-1.78,3.94a10.8,10.8,0,0,1-5.37,1c-.94,0-1.65,0-2.15-.05a7.3,7.3,0,0,1-1.95-.52,4.07,4.07,0,0,1-1.85-1.34q-1.65-2.31-1.65-7.12V404.07h-2Z"/><path d="M486.57,430.74l1.2-8.54h5.75l1.35,6.08h5.7v-3.95l-9.35-7.06a10.06,10.06,0,0,1-3.1-3.43,9.56,9.56,0,0,1-.95-4.49,10.66,10.66,0,0,1,.67-4.19,6.67,6.67,0,0,1,1.68-2.4,6.77,6.77,0,0,1,2.65-1.37,28,28,0,0,1,7.42-.77,32.84,32.84,0,0,1,9.93,1.64l-1.2,8.55h-5.25l-1.2-6.08h-5.2v3.94l9.35,7.06a10.27,10.27,0,0,1,3.1,3.43,9.71,9.71,0,0,1,.95,4.49,10.6,10.6,0,0,1-.68,4.19,6.92,6.92,0,0,1-1.67,2.41,7.12,7.12,0,0,1-2.65,1.37,29.76,29.76,0,0,1-7.75.76A38.3,38.3,0,0,1,486.57,430.74Z"/><path d="M520.62,402.81c2,0,3.22.32,3.77,1s.83,2.13.83,4.49-.29,3.84-.85,4.46-1.84.93-3.8.93-3.25-.31-3.85-.93-.9-2.11-.9-4.49.3-3.87.92-4.49S518.65,402.81,520.62,402.81Zm0,18.46c2,0,3.22.32,3.77,1s.83,2.14.83,4.5-.29,3.84-.85,4.46-1.84.93-3.8.93-3.25-.31-3.85-.93-.9-2.12-.9-4.49.3-3.87.92-4.49S518.65,421.27,520.62,421.27Z"/><path d="M196.52,528.23v2.08h-2.1l-5.7,32.7h-18.1l-4.6-32.7h-2.1v-2.08h14.5l2.6,31.49h4.45V528.23Z"/><path d="M226.12,545.81v4.27q0,6.9-2,9.69a18.7,18.7,0,0,1-1.35,1.7,4.68,4.68,0,0,1-1.75,1.12c-.77.31-1.4.55-1.9.72a9.85,9.85,0,0,1-2.15.35,45.65,45.65,0,0,1-7.42.14,20.67,20.67,0,0,1-3.48-.49c-.47-.17-1-.41-1.72-.72a4.33,4.33,0,0,1-1.58-1.12,16.73,16.73,0,0,1-1.22-1.7,7.14,7.14,0,0,1-1-2.41,30.92,30.92,0,0,1-.8-7.28v-4.27q0-6.9,2-9.7a18.39,18.39,0,0,1,1.35-1.69,4.69,4.69,0,0,1,1.75-1.13c.77-.31,1.4-.54,1.9-.71a10,10,0,0,1,2.2-.35c1.4-.11,2.77-.17,4.1-.17s2.24,0,2.73,0,1.15.06,2,.14a8.58,8.58,0,0,1,2,.35c.47.17,1,.4,1.73.71a4.39,4.39,0,0,1,1.57,1.13,16.37,16.37,0,0,1,1.23,1.69,8.07,8.07,0,0,1,1,2.41A32.86,32.86,0,0,1,226.12,545.81Zm-9.5,13.91V536.17h-7.35v23.55Z"/><path d="M231.62,523.08h11.5v37.84h2V563h-13.5v-2.09h2V525.16h-2Z"/><path d="M251.37,554.79V535h-2v-2.08h11.5v26h7.35v-26h9.5v28h2V563h-6.15l-2-4.17h-.65c0,1.94-.64,3.25-1.92,3.95a12.75,12.75,0,0,1-5.83,1q-5.15,0-6.9-.72a6.63,6.63,0,0,1-3.5-2.57A10.74,10.74,0,0,1,251.37,554.79Z"/><path d="M296,537.05v26h-11.5v-2.09h2V535h-2v-2.08h6.65l1.75,4.17h.65a6.54,6.54,0,0,1,3-4,12.66,12.66,0,0,1,5.52-1q5.44,0,7.4,2.79a5.15,5.15,0,0,1,2.83-2.24,15.52,15.52,0,0,1,4.62-.55q4.85,0,7.32,1.84t2.48,6.38v20.64h2V563h-11.5v-26h-5.85v26h-9.5v-26Z"/><path d="M343.42,559.72h6.25l1.3-6.08h5.35l1.15,8.54a41.74,41.74,0,0,1-11.25,1.65c-1.37,0-2.53-.05-3.5-.14a13.86,13.86,0,0,1-3.25-.77,7.36,7.36,0,0,1-2.9-1.75,9,9,0,0,1-1.87-3.23,14.48,14.48,0,0,1-.78-5v-7.12q0-6.85,2-9.7a12.63,12.63,0,0,1,1.33-1.69,5,5,0,0,1,1.72-1.13c.73-.31,1.35-.54,1.85-.71a9.85,9.85,0,0,1,2.15-.35c1.4-.11,2.77-.17,4.1-.17s2.27,0,2.8,0,1.25.08,2.15.19a6.65,6.65,0,0,1,2,.49,10.83,10.83,0,0,1,1.6,1,4,4,0,0,1,1.36,1.59,12.7,12.7,0,0,1,.75,2.38,17.91,17.91,0,0,1,0,6.74,12.94,12.94,0,0,1-.75,2.38,4,4,0,0,1-1.36,1.59,10.66,10.66,0,0,1-1.6,1,6.61,6.61,0,0,1-2,.5,40.55,40.55,0,0,1-4.55.21h-4.05Zm0-23.55V546h6.85v-9.86Z"/><path d="M368.62,534.25c2,0,3.22.32,3.77,1s.83,2.14.83,4.49-.28,3.84-.85,4.47-1.83.93-3.8.93-3.25-.31-3.85-.93-.9-2.12-.9-4.5.31-3.87.92-4.49S366.65,534.25,368.62,534.25Zm0,18.46c2,0,3.22.32,3.77,1s.83,2.13.83,4.49-.28,3.84-.85,4.46-1.83.93-3.8.93-3.25-.31-3.85-.93-.9-2.11-.9-4.49.31-3.87.92-4.49S366.65,552.71,368.62,552.71Z"/><g class="cls-2"><rect class="cls-3" x="663.5" y="521.78" width="589" height="49.29" rx="12" ry="12"/></g><g class="cls-2"><rect class="cls-3" x="665.5" y="392.09" width="197" height="49.29" rx="12" ry="12"/></g><g class="cls-2"><rect class="cls-3" x="665.5" y="261.09" width="197" height="49.29" rx="12" ry="12"/></g><path d="M685.86,203c.56,0,1,.07,1.22.11s.6,0,1.13.05a7.43,7.43,0,0,0,1,.11l1,.16.49.11a2,2,0,0,1,.44.05,2.26,2.26,0,0,0,.48.16l.49.22a6.36,6.36,0,0,1,2.1,1.55,11.64,11.64,0,0,1,1.56,2.14,1.37,1.37,0,0,0,.15.21,2,2,0,0,1,.1.27c.16.32.31.64.44,1l.39,1q.09.27.15.48a2.68,2.68,0,0,1,.14.43c.16.47.28.82.34,1.07a9.87,9.87,0,0,0,.25,1.07c.13.64.24,1.18.34,1.61s.16,1,.29,1.65a10,10,0,0,1,.1,1.18c0,.25.08.93.15,2,0,.47,0,.93,0,1.39a20.79,20.79,0,0,1-.2,2.78,10.84,10.84,0,0,1-1.22,4l-.49.75a6.06,6.06,0,0,1-.68.64,4.64,4.64,0,0,1-2.2,1,21.91,21.91,0,0,1-2.44.27,16,16,0,0,1-4.2-.65,24.26,24.26,0,0,1-4-1.65,22.25,22.25,0,0,1-2.59-1.88,14.58,14.58,0,0,1-2.35-2.24l-.53-.7a5.12,5.12,0,0,1-.44-.8,3.66,3.66,0,0,1-.3-.8,6.23,6.23,0,0,1-.24-.8,23.66,23.66,0,0,1-.44-4.5V216c0-1.64.11-3.26.24-4.87a16.16,16.16,0,0,1,.4-2.46,13.85,13.85,0,0,1,.78-2.3,7.35,7.35,0,0,1,.49-.85,6.26,6.26,0,0,1,.63-.81,2.61,2.61,0,0,1,.44-.37l.49-.32c.23-.11.79-.32,1.71-.64a10.76,10.76,0,0,1,3.32-.38Zm10.89,10.43c-.1-.46-.18-.82-.24-1.07s-.17-.55-.3-1a2.16,2.16,0,0,0-.14-.43,2.45,2.45,0,0,0-.15-.43,11.35,11.35,0,0,0-.44-1.12,9.81,9.81,0,0,0-.54-1.13,9,9,0,0,0-1.41-1.92,5.65,5.65,0,0,0-1.81-1.34,2.14,2.14,0,0,0-.39-.16,2.14,2.14,0,0,0-.39-.16,2,2,0,0,0-.44-.05l-.44-.11c-1-.14-2.08-.25-3.12-.32-.52,0-1.05,0-1.57,0s-1.09,0-1.61,0a10.6,10.6,0,0,0-1.8.27,5.38,5.38,0,0,0-1.66.58l-.39.22a1.17,1.17,0,0,0-.35.27,2.24,2.24,0,0,0-.48.64,2.65,2.65,0,0,0-.4.69,12,12,0,0,0-1,3.8q-.2,2-.24,4c0,.43,0,.85,0,1.28s0,1.14,0,1.71a18,18,0,0,0,.34,3c.06.21.13.45.19.69a5.78,5.78,0,0,0,.25.65,2.36,2.36,0,0,0,.39.69,4.31,4.31,0,0,1,.44.59,17.5,17.5,0,0,0,5.66,4.38,15.31,15.31,0,0,0,6.69,1.66,8.56,8.56,0,0,0,1-.05l1-.11a5,5,0,0,0,1.08-.32,2.71,2.71,0,0,0,1-.53,2.51,2.51,0,0,0,.54-.54,3.77,3.77,0,0,0,.44-.59,9.26,9.26,0,0,0,1.07-3.63,21.81,21.81,0,0,0,.15-2.52c0-.46,0-.91,0-1.33s-.06-1-.1-1.5-.06-1-.09-1.55-.14-.7-.2-1-.13-.69-.19-1-.07-.4-.1-.58A3.63,3.63,0,0,0,696.75,213.39Z"/><path d="M716.87,207.83a.21.21,0,0,1,.15,0l.1.16a.52.52,0,0,0,.1.11v.21a.15.15,0,0,1,0,.16.47.47,0,0,1-.05.16l-.1.11a.65.65,0,0,0-.15.11h-.34c-1.3-.39-2.64-.77-4-1.12a13.55,13.55,0,0,0-4.15-.43c-.2,0-.38.07-.54.11l-.54.1a19.15,19.15,0,0,1-.68.43l-.49.21-.54.22a14,14,0,0,1-1.66.43,17.39,17.39,0,0,1-1.75.21,4.38,4.38,0,0,1-.74.05h-.88a.56.56,0,0,0-.14-.1s-.07,0-.1-.11a248998064632.81,248998064632.81,0,0,0-.1-.32,281476073029.91,281476073029.91,0,0,0,.1-.32l.1-.11.14-.11h.15a4.72,4.72,0,0,0,.73,0h.69a13.88,13.88,0,0,0,1.61-.21,13,13,0,0,0,1.56-.43,2.67,2.67,0,0,1,.44-.16,3.61,3.61,0,0,0,.44-.22l.39-.21a1,1,0,0,1,.34-.16,2.63,2.63,0,0,1,.69-.22l.68-.1h.73a15.1,15.1,0,0,1,2.2.16c1,.18,1.94.39,2.88.64.45.11.91.23,1.37.38S716.42,207.69,716.87,207.83Zm-9.76,21.82a258957987188.87,258957987188.87,0,0,0-.1.32.4.4,0,0,1-.1.16.3.3,0,0,1-.14.06l-.15.05a.49.49,0,0,1-.2-.05.12.12,0,0,1-.09-.06.29.29,0,0,1-.15-.16.23.23,0,0,1,0-.16.23.23,0,0,1,0-.16v-.8l-.05-1.12c0-1.39-.06-2.77-.09-4.12s-.07-2.77-.1-4.12c0-1.11-.05-2.21-.05-3.32,0-.71,0-1.41.05-2.08,0-1.82,0-3.62.1-5.41.16-3,.27-4.93.34-5.72s.16-1.39.19-1.82a22,22,0,0,1,.69-3.47,8.41,8.41,0,0,1,1.56-3,4.41,4.41,0,0,1,.49-.48,3.06,3.06,0,0,1,.54-.38,1.15,1.15,0,0,1,.39-.21,3.42,3.42,0,0,1,.44-.16,3.51,3.51,0,0,1,.83-.11,2.88,2.88,0,0,1,.73.11,10.89,10.89,0,0,1,1.51.43,24.62,24.62,0,0,1,5.47,3.1c1.69,1.28,3.37,2.57,5,3.85a.19.19,0,0,1,.1.16.76.76,0,0,1,.09.16v.32a.76.76,0,0,0-.09.16l-.1.11a.17.17,0,0,1-.15,0,.17.17,0,0,1-.14.06.18.18,0,0,1-.15-.06.18.18,0,0,1-.15,0c-1.62-1.25-3.27-2.51-4.93-3.8a24.51,24.51,0,0,0-5.32-3,13,13,0,0,0-1.56-.43,2.41,2.41,0,0,0-1.57.33.87.87,0,0,0-.39.32l-.39.32a8.9,8.9,0,0,0-1.66,4,39.36,39.36,0,0,0-.49,4.38q-.24,3.92-.34,7.81c-.09,2.64-.13,5.26-.09,7.87q0,2.09.09,4.11c.07,1.39.12,2.77.15,4.12V229a1.19,1.19,0,0,1,.05.32Z"/><path d="M742.56,207.83a.21.21,0,0,1,.15,0l.1.16a.52.52,0,0,0,.1.11v.21a.15.15,0,0,1,0,.16.47.47,0,0,1,0,.16l-.1.11a.48.48,0,0,0-.15.11h-.34c-1.3-.39-2.64-.77-4-1.12a13.55,13.55,0,0,0-4.15-.43c-.2,0-.38.07-.54.11l-.54.1a19.15,19.15,0,0,1-.68.43l-.49.21-.54.22a14,14,0,0,1-1.66.43,17.39,17.39,0,0,1-1.75.21,4.38,4.38,0,0,1-.74.05h-.88a.56.56,0,0,0-.14-.1s-.07,0-.1-.11a.25.25,0,0,1,0-.16.25.25,0,0,1,0-.16,3236974839842.93,3236974839842.93,0,0,1,.1-.32l.1-.11.14-.11h.15a4.72,4.72,0,0,0,.73,0h.69a13.88,13.88,0,0,0,1.61-.21,13,13,0,0,0,1.56-.43,2.67,2.67,0,0,1,.44-.16,3.61,3.61,0,0,0,.44-.22l.39-.21a1,1,0,0,1,.34-.16,2.69,2.69,0,0,1,.68-.22l.69-.1h.73a15.1,15.1,0,0,1,2.2.16c1,.18,1.93.39,2.88.64.45.11.91.23,1.37.38S742.11,207.69,742.56,207.83Zm-9.76,21.82a.23.23,0,0,1,0,.16.23.23,0,0,1,0,.16.55.55,0,0,1-.1.16.3.3,0,0,1-.14.06.5.5,0,0,1-.15.05.49.49,0,0,1-.2-.05.12.12,0,0,1-.09-.06.29.29,0,0,1-.15-.16,248998064634.13,248998064634.13,0,0,0-.1-.32v-.8l0-1.12c0-1.39-.06-2.77-.09-4.12s-.07-2.77-.1-4.12c0-1.11,0-2.21,0-3.32,0-.71,0-1.41,0-2.08,0-1.82,0-3.62.1-5.41.16-3,.27-4.93.34-5.72s.16-1.39.19-1.82a22,22,0,0,1,.69-3.47,8.41,8.41,0,0,1,1.56-3,4.41,4.41,0,0,1,.49-.48,3.39,3.39,0,0,1,.53-.38,1.19,1.19,0,0,1,.4-.21,4,4,0,0,1,.43-.16,3.65,3.65,0,0,1,.83-.11,2.89,2.89,0,0,1,.74.11,10.89,10.89,0,0,1,1.51.43,24.62,24.62,0,0,1,5.47,3.1c1.69,1.28,3.37,2.57,5,3.85a.19.19,0,0,1,.1.16.76.76,0,0,1,.09.16v.32a.76.76,0,0,0-.09.16l-.1.11a.17.17,0,0,1-.15,0,.17.17,0,0,1-.14.06.18.18,0,0,1-.15-.06.18.18,0,0,1-.15,0c-1.63-1.25-3.27-2.51-4.93-3.8a24.51,24.51,0,0,0-5.32-3,13,13,0,0,0-1.56-.43,2.41,2.41,0,0,0-1.57.33.87.87,0,0,0-.39.32l-.39.32a8.9,8.9,0,0,0-1.66,4,39.36,39.36,0,0,0-.49,4.38q-.24,3.92-.34,7.81t-.1,7.87c0,1.39.07,2.76.1,4.11s.12,2.77.15,4.12V229a1.19,1.19,0,0,1,0,.32Z"/><path d="M680.86,342c.56,0,1,.07,1.22.11s.6,0,1.13.05a7.43,7.43,0,0,0,1,.11l1,.16.49.11a2,2,0,0,1,.44.05,2.26,2.26,0,0,0,.48.16l.49.22a6.36,6.36,0,0,1,2.1,1.55,11.64,11.64,0,0,1,1.56,2.14,1.37,1.37,0,0,0,.15.21,2,2,0,0,1,.1.27c.16.32.31.64.44,1l.39,1q.09.27.15.48a2.68,2.68,0,0,1,.14.43c.16.47.28.82.34,1.07a9.87,9.87,0,0,0,.25,1.07c.13.64.24,1.18.34,1.61s.16,1,.29,1.65a10,10,0,0,1,.1,1.18c0,.25.08.93.15,2,0,.47,0,.93,0,1.39a20.79,20.79,0,0,1-.2,2.78,10.84,10.84,0,0,1-1.22,4l-.49.75a6.06,6.06,0,0,1-.68.64,4.64,4.64,0,0,1-2.2,1,21.91,21.91,0,0,1-2.44.27,16,16,0,0,1-4.2-.65,24.26,24.26,0,0,1-4-1.65,22.25,22.25,0,0,1-2.59-1.88,14.58,14.58,0,0,1-2.35-2.24l-.53-.7a5.12,5.12,0,0,1-.44-.8,3.66,3.66,0,0,1-.3-.8,6.23,6.23,0,0,1-.24-.8,23.66,23.66,0,0,1-.44-4.5V355c0-1.64.11-3.26.24-4.87a16.16,16.16,0,0,1,.4-2.46,13.85,13.85,0,0,1,.78-2.3,7.35,7.35,0,0,1,.49-.85,6.26,6.26,0,0,1,.63-.81,2.61,2.61,0,0,1,.44-.37l.49-.32c.23-.11.79-.32,1.71-.64a10.76,10.76,0,0,1,3.32-.38Zm10.89,10.43c-.1-.46-.18-.82-.24-1.07s-.17-.55-.3-1a2.16,2.16,0,0,0-.14-.43,2.45,2.45,0,0,0-.15-.43,11.35,11.35,0,0,0-.44-1.12,9.81,9.81,0,0,0-.54-1.13,9,9,0,0,0-1.41-1.92,5.65,5.65,0,0,0-1.81-1.34,3217295881107.72,3217295881107.72,0,0,0-.78-.32,2,2,0,0,0-.44-.05l-.44-.11c-1-.14-2.08-.25-3.12-.32-.52,0-1.05-.05-1.57-.05s-1.09,0-1.61.05a10.6,10.6,0,0,0-1.8.27,5.38,5.38,0,0,0-1.66.58l-.39.22a1.17,1.17,0,0,0-.35.27,2.24,2.24,0,0,0-.48.64,2.65,2.65,0,0,0-.4.69,12,12,0,0,0-1,3.8q-.2,2-.24,4c0,.43,0,.85,0,1.28s0,1.14,0,1.71a18,18,0,0,0,.34,3c.06.21.13.45.19.69a5.78,5.78,0,0,0,.25.65,2.36,2.36,0,0,0,.39.69,4.31,4.31,0,0,1,.44.59,17.5,17.5,0,0,0,5.66,4.38,15.31,15.31,0,0,0,6.69,1.66,8.56,8.56,0,0,0,1-.05l1-.11a5,5,0,0,0,1.08-.32,2.71,2.71,0,0,0,1-.53,2.51,2.51,0,0,0,.54-.54,3.77,3.77,0,0,0,.44-.59,9.26,9.26,0,0,0,1.07-3.63,21.81,21.81,0,0,0,.15-2.52c0-.46,0-.91,0-1.33s-.06-1-.1-1.5-.06-1.05-.09-1.55-.14-.7-.2-1-.13-.69-.19-1-.07-.4-.1-.58A3.63,3.63,0,0,0,691.75,352.39Z"/><path d="M711.87,346.83a.21.21,0,0,1,.15.05l.1.16a.52.52,0,0,0,.1.11v.21a.15.15,0,0,1,0,.16.47.47,0,0,1-.05.16l-.1.11a.65.65,0,0,0-.15.11h-.34c-1.3-.39-2.64-.77-4-1.12a13.55,13.55,0,0,0-4.15-.43c-.2,0-.38.07-.54.11l-.54.1a19.15,19.15,0,0,1-.68.43l-.49.21-.54.22a14,14,0,0,1-1.66.43,17.39,17.39,0,0,1-1.75.21,4.38,4.38,0,0,1-.74.05h-.88a.56.56,0,0,0-.14-.1s-.07,0-.1-.11a323697483946.37,323697483946.37,0,0,0-.1-.32,223239644130.67,223239644130.67,0,0,0,.1-.32l.1-.11.14-.11h.15a4.72,4.72,0,0,0,.73-.05h.69a13.88,13.88,0,0,0,1.61-.21,13,13,0,0,0,1.56-.43,2.67,2.67,0,0,1,.44-.16,3.61,3.61,0,0,0,.44-.22l.39-.21a1,1,0,0,1,.34-.16,2.63,2.63,0,0,1,.69-.22l.68-.1h.73a15.1,15.1,0,0,1,2.2.16c1,.18,1.94.39,2.88.64.45.11.91.23,1.37.38S711.42,346.69,711.87,346.83Zm-9.76,21.82a258957987188.91,258957987188.91,0,0,0-.1.32.4.4,0,0,1-.1.16.3.3,0,0,1-.14.06l-.15.05a.49.49,0,0,1-.2-.05.12.12,0,0,1-.09-.06.29.29,0,0,1-.15-.16.23.23,0,0,1,0-.16.23.23,0,0,1,0-.16v-.8l-.05-1.12c0-1.39-.06-2.77-.09-4.12s-.07-2.77-.1-4.12c0-1.11-.05-2.21-.05-3.32,0-.71,0-1.41.05-2.08,0-1.82,0-3.62.1-5.41.16-3,.27-4.93.34-5.72s.16-1.39.19-1.82a22,22,0,0,1,.69-3.47,8.41,8.41,0,0,1,1.56-3.05,4.41,4.41,0,0,1,.49-.48,3.06,3.06,0,0,1,.54-.38,1.15,1.15,0,0,1,.39-.21,3.42,3.42,0,0,1,.44-.16,3.51,3.51,0,0,1,.83-.11,2.88,2.88,0,0,1,.73.11,10.89,10.89,0,0,1,1.51.43,24.62,24.62,0,0,1,5.47,3.1c1.69,1.28,3.37,2.57,5,3.85a.19.19,0,0,1,.1.16.76.76,0,0,1,.09.16v.32a.76.76,0,0,0-.09.16l-.1.11a.17.17,0,0,1-.15.05.17.17,0,0,1-.14.06.18.18,0,0,1-.15-.06.18.18,0,0,1-.15-.05c-1.62-1.25-3.27-2.51-4.93-3.8a24.51,24.51,0,0,0-5.32-3.05,13,13,0,0,0-1.56-.43,2.41,2.41,0,0,0-1.57.33.87.87,0,0,0-.39.32l-.39.32a8.9,8.9,0,0,0-1.66,4,39.36,39.36,0,0,0-.49,4.38q-.24,3.92-.34,7.81c-.09,2.64-.13,5.26-.09,7.87q0,2.08.09,4.11c.07,1.39.12,2.77.15,4.12V368a1.19,1.19,0,0,1,.05.32Z"/><path d="M737.56,346.83a.21.21,0,0,1,.15.05l.1.16a.52.52,0,0,0,.1.11v.21a.15.15,0,0,1,0,.16.47.47,0,0,1,0,.16l-.1.11a.48.48,0,0,0-.15.11h-.34c-1.3-.39-2.64-.77-4-1.12a13.55,13.55,0,0,0-4.15-.43c-.2,0-.38.07-.54.11l-.54.1a19.15,19.15,0,0,1-.68.43l-.49.21-.54.22a14,14,0,0,1-1.66.43,17.39,17.39,0,0,1-1.75.21,4.38,4.38,0,0,1-.74.05h-.88a.56.56,0,0,0-.14-.1s-.07,0-.1-.11a1618487419912.28,1618487419912.28,0,0,1-.1-.32,1849699908403.74,1849699908403.74,0,0,0,.1-.32l.1-.11.14-.11h.15a4.72,4.72,0,0,0,.73-.05h.69a13.88,13.88,0,0,0,1.61-.21,13,13,0,0,0,1.56-.43,2.67,2.67,0,0,1,.44-.16,3.61,3.61,0,0,0,.44-.22l.39-.21a1,1,0,0,1,.34-.16,2.69,2.69,0,0,1,.68-.22l.69-.1h.73a15.1,15.1,0,0,1,2.2.16c1,.18,1.93.39,2.88.64.45.11.91.23,1.37.38S737.11,346.69,737.56,346.83Zm-9.76,21.82a.23.23,0,0,1,0,.16.23.23,0,0,1,0,.16.55.55,0,0,1-.1.16.3.3,0,0,1-.14.06.5.5,0,0,1-.15.05.49.49,0,0,1-.2-.05.12.12,0,0,1-.09-.06.29.29,0,0,1-.15-.16,269747903289.91,269747903289.91,0,0,0-.1-.32v-.8l0-1.12c0-1.39-.06-2.77-.09-4.12s-.07-2.77-.1-4.12c0-1.11,0-2.21,0-3.32,0-.71,0-1.41,0-2.08,0-1.82,0-3.62.1-5.41.16-3,.27-4.93.34-5.72s.16-1.39.19-1.82a22,22,0,0,1,.69-3.47,8.41,8.41,0,0,1,1.56-3.05,4.41,4.41,0,0,1,.49-.48,3.39,3.39,0,0,1,.53-.38,1.19,1.19,0,0,1,.4-.21,4,4,0,0,1,.43-.16,3.65,3.65,0,0,1,.83-.11,2.89,2.89,0,0,1,.74.11,10.89,10.89,0,0,1,1.51.43,24.62,24.62,0,0,1,5.47,3.1c1.69,1.28,3.37,2.57,5,3.85a.19.19,0,0,1,.1.16.76.76,0,0,1,.09.16v.32a.76.76,0,0,0-.09.16l-.1.11a.17.17,0,0,1-.15.05.17.17,0,0,1-.14.06.18.18,0,0,1-.15-.06.18.18,0,0,1-.15-.05c-1.63-1.25-3.27-2.51-4.93-3.8a24.51,24.51,0,0,0-5.32-3.05,13,13,0,0,0-1.56-.43,2.41,2.41,0,0,0-1.57.33.87.87,0,0,0-.39.32l-.39.32a8.9,8.9,0,0,0-1.66,4,39.36,39.36,0,0,0-.49,4.38q-.24,3.92-.34,7.81t-.1,7.87c0,1.39.07,2.76.1,4.11s.12,2.77.15,4.12V368a1.19,1.19,0,0,1,0,.32Z"/><path d="M829.14,202.53l1.22.11c.23,0,.6,0,1.12.06a7.31,7.31,0,0,0,1,.1l1,.16.48.11a1.9,1.9,0,0,1,.44.05,2.54,2.54,0,0,0,.49.16l.49.22a6.36,6.36,0,0,1,2.1,1.55,11.64,11.64,0,0,1,1.56,2.14.69.69,0,0,0,.15.21c0,.07.06.16.1.27.16.32.3.64.44,1l.39,1a4.19,4.19,0,0,1,.14.49,1.77,1.77,0,0,1,.15.42c.16.47.28.82.34,1.07a7.59,7.59,0,0,0,.24,1.07c.13.65.25,1.18.35,1.61s.16,1,.29,1.66c.06.53.1.92.1,1.17s.08.93.14,2c0,.47,0,.93,0,1.4a20.84,20.84,0,0,1-.19,2.78,11,11,0,0,1-1.22,4c-.17.25-.33.5-.49.75a6.14,6.14,0,0,1-.69.64,4.6,4.6,0,0,1-2.19,1,21.91,21.91,0,0,1-2.44.27,16.45,16.45,0,0,1-4.2-.64,16.07,16.07,0,0,1-6.59-3.53,14.65,14.65,0,0,1-2.35-2.25l-.54-.7a5.52,5.52,0,0,1-.44-.8,3.46,3.46,0,0,1-.29-.8,5,5,0,0,1-.24-.8,22.85,22.85,0,0,1-.44-4.49v-.38c0-1.64.11-3.26.24-4.87a17.47,17.47,0,0,1,.39-2.46,16,16,0,0,1,.78-2.3c.17-.32.33-.6.49-.85a7.24,7.24,0,0,1,.64-.8,2,2,0,0,1,.44-.38l.48-.32c.23-.11.8-.32,1.71-.64a10.84,10.84,0,0,1,3.32-.38ZM840,213c-.1-.46-.18-.82-.25-1.07l-.29-1a1.84,1.84,0,0,0-.15-.43,2.68,2.68,0,0,0-.14-.43c-.13-.39-.28-.76-.44-1.12a9.66,9.66,0,0,0-.54-1.12,8.79,8.79,0,0,0-1.41-1.93,5.88,5.88,0,0,0-1.81-1.34,2.14,2.14,0,0,0-.39-.16,2.14,2.14,0,0,0-.39-.16,2,2,0,0,0-.44-.05l-.44-.11c-1-.14-2.09-.25-3.13-.32-.52,0-1-.05-1.56-.05s-1.09,0-1.61.05a11.83,11.83,0,0,0-1.81.27,5.49,5.49,0,0,0-1.66.59l-.39.21a1.27,1.27,0,0,0-.34.27,2.42,2.42,0,0,0-.49.64,3,3,0,0,0-.39.7,11.91,11.91,0,0,0-1,3.79c-.13,1.32-.22,2.64-.25,4,0,.43-.05.86-.05,1.28,0,.58,0,1.15.05,1.72a19.15,19.15,0,0,0,.34,3c.07.21.13.45.2.7a6.34,6.34,0,0,0,.24.64,2.93,2.93,0,0,0,.39.69,3.62,3.62,0,0,1,.44.59,17.68,17.68,0,0,0,5.67,4.39,15.45,15.45,0,0,0,6.69,1.66,8.35,8.35,0,0,0,1-.06l1-.11a4.31,4.31,0,0,0,1.07-.32,3.25,3.25,0,0,0,1.52-1.07,3.68,3.68,0,0,0,.44-.58,9.48,9.48,0,0,0,1.07-3.64,21.64,21.64,0,0,0,.15-2.51c0-.47,0-.91,0-1.34s-.07-1-.1-1.5-.06-1-.1-1.55-.13-.7-.19-1-.13-.69-.2-1-.06-.41-.1-.59A3.58,3.58,0,0,0,840,213Z"/><path d="M844.72,227v.75a4.86,4.86,0,0,0,0,.69v1.12a.47.47,0,0,1,0,.16.32.32,0,0,1-.05.16l-.09.11a.48.48,0,0,0-.15.11h-.29A.48.48,0,0,1,844,230a.45.45,0,0,1-.15-.11.38.38,0,0,0-.05-.16.22.22,0,0,1,0-.16V227a7,7,0,0,0,0-.85v-1.29c0-.57,0-1.14-.05-1.71v-1.77c0-.78,0-1.55,0-2.3s0-1.55-.05-2.3c0-1.14,0-2.28,0-3.42s0-2.23,0-3.37a3236974839880.13,3236974839880.13,0,0,0,.1-.32l.1-.11a.56.56,0,0,0,.14-.1h.35a.56.56,0,0,0,.14.1l.1.11a231212488528.31,231212488528.31,0,0,0,.1.32c0,1.14,0,2.27,0,3.37s0,2.27.05,3.37c0,.79,0,1.57,0,2.35v2.3c0,.58,0,1.15,0,1.72v1.76a5.13,5.13,0,0,1,.05.8V227Zm10-15.73c-.32,0-.63-.05-.93-.05s-.6,0-.92.05a16.91,16.91,0,0,0-1.91.32c-.65.15-1.28.31-1.9.48a16.11,16.11,0,0,0-1.95.81,8.29,8.29,0,0,0-1.86,1.12,1.4,1.4,0,0,0-.39.37,5.37,5.37,0,0,0-.49.49l-.1.1a.3.3,0,0,1-.14.06q-.11,0-.15,0h-.19l-.1-.11a.49.49,0,0,1-.1-.16.25.25,0,0,1,0-.16.18.18,0,0,1,0-.11v-.05a.25.25,0,0,0,0-.16.55.55,0,0,1,.1-.16l.54-.54c.09-.1.24-.25.44-.43a9.51,9.51,0,0,1,2-1.23,17.21,17.21,0,0,1,2.15-.9c.65-.18,1.31-.34,2-.49a13.31,13.31,0,0,1,2-.37h2c.36,0,.72.09,1.08.16s.71.16,1.07.27a11.34,11.34,0,0,1,2.39,1.12,11.1,11.1,0,0,1,2.05,1.77c.75.92,1.47,1.89,2.15,2.88a15.18,15.18,0,0,1,1.76,3.21c.1.32.19.63.29.91a5.47,5.47,0,0,1,.2,1,8,8,0,0,1,0,.81V223c0,.6,0,1.07,0,1.39s-.08.74-.15,1.39l-.24,1.87-.34,2.3a.19.19,0,0,0,0,.16.52.52,0,0,0-.1.11.48.48,0,0,1-.15.1.17.17,0,0,1-.14.06h-.15a.33.33,0,0,0-.15-.06.56.56,0,0,1-.14-.1.64.64,0,0,0-.1-.16v-.17a.15.15,0,0,1,0-.16l.34-2.19.24-1.87c0-.61.07-1.07.1-1.39s.07-.71.1-1.28v-.7a4.6,4.6,0,0,0,0-.64,6.45,6.45,0,0,0-.15-.86c-.09-.25-.19-.51-.29-.8a14.86,14.86,0,0,0-.93-2c-.39-.6-.79-1.19-1.22-1.76q-.39-.54-.78-1a11,11,0,0,0-.78-1,7.32,7.32,0,0,0-2.54-2,11.41,11.41,0,0,0-3-1h-.39Z"/><path d="M827.14,341.53l1.22.11c.23,0,.6,0,1.12.06a7.31,7.31,0,0,0,1,.1l1,.16.48.11a1.9,1.9,0,0,1,.44.05,2.54,2.54,0,0,0,.49.16l.49.22a6.36,6.36,0,0,1,2.1,1.55,11.64,11.64,0,0,1,1.56,2.14.69.69,0,0,0,.15.21c0,.07.06.16.1.27.16.32.3.64.44,1l.39,1a4.19,4.19,0,0,1,.14.49,1.77,1.77,0,0,1,.15.42c.16.47.28.82.34,1.07a7.59,7.59,0,0,0,.24,1.07c.13.65.25,1.18.35,1.61s.16,1,.29,1.66c.06.53.1.92.1,1.17s.08.93.14,2c0,.47,0,.93,0,1.4a20.84,20.84,0,0,1-.19,2.78,11,11,0,0,1-1.22,3.95c-.17.25-.33.5-.49.75a6.14,6.14,0,0,1-.69.64,4.6,4.6,0,0,1-2.19,1,21.91,21.91,0,0,1-2.44.27,16.45,16.45,0,0,1-4.2-.64,16.07,16.07,0,0,1-6.59-3.53,14.65,14.65,0,0,1-2.35-2.25l-.54-.7a5.52,5.52,0,0,1-.44-.8,3.46,3.46,0,0,1-.29-.8,5,5,0,0,1-.24-.8,22.85,22.85,0,0,1-.44-4.49v-.38c0-1.64.11-3.26.24-4.87a17.47,17.47,0,0,1,.39-2.46,16,16,0,0,1,.78-2.3c.17-.32.33-.6.49-.85a7.24,7.24,0,0,1,.64-.8,2,2,0,0,1,.44-.38l.48-.32c.23-.11.8-.32,1.71-.64a10.84,10.84,0,0,1,3.32-.38ZM838,352c-.1-.46-.18-.82-.25-1.07l-.29-1a1.84,1.84,0,0,0-.15-.43,2.68,2.68,0,0,0-.14-.43c-.13-.39-.28-.76-.44-1.12a9.66,9.66,0,0,0-.54-1.12,8.79,8.79,0,0,0-1.41-1.93,5.88,5.88,0,0,0-1.81-1.34,3217295880915.56,3217295880915.56,0,0,1-.78-.32,2,2,0,0,0-.44-.05l-.44-.11c-1-.14-2.09-.25-3.13-.32-.52,0-1,0-1.56,0s-1.09,0-1.61,0a11.83,11.83,0,0,0-1.81.27,5.49,5.49,0,0,0-1.66.59l-.39.21a1.27,1.27,0,0,0-.34.27,2.42,2.42,0,0,0-.49.64,3,3,0,0,0-.39.7,11.91,11.91,0,0,0-1,3.79c-.13,1.32-.22,2.64-.25,4,0,.43-.05.86-.05,1.28,0,.58,0,1.15.05,1.72a19.15,19.15,0,0,0,.34,3c.07.21.13.45.2.7a6.34,6.34,0,0,0,.24.64,2.93,2.93,0,0,0,.39.69,3.62,3.62,0,0,1,.44.59,17.68,17.68,0,0,0,5.67,4.39,15.45,15.45,0,0,0,6.69,1.66,8.35,8.35,0,0,0,1-.06l1-.11a4.31,4.31,0,0,0,1.07-.32,3.25,3.25,0,0,0,1.52-1.07,3.68,3.68,0,0,0,.44-.58,9.48,9.48,0,0,0,1.07-3.64,21.64,21.64,0,0,0,.15-2.51c0-.47,0-.91,0-1.34s-.07-1-.1-1.5-.06-1.05-.1-1.55-.13-.7-.19-1-.13-.69-.2-1-.06-.41-.1-.59A3.58,3.58,0,0,0,838,352Z"/><path d="M842.72,366v.75a4.86,4.86,0,0,0,0,.69v1.12a.47.47,0,0,1,0,.16.32.32,0,0,1-.05.16l-.09.11a.48.48,0,0,0-.15.11h-.29A.48.48,0,0,1,842,369a.45.45,0,0,1-.15-.11.38.38,0,0,0-.05-.16.22.22,0,0,1,0-.16V366a7,7,0,0,0,0-.85v-1.29c0-.57,0-1.14-.05-1.71v-1.77c0-.78,0-1.55,0-2.3s0-1.55-.05-2.3c0-1.14,0-2.28,0-3.42s0-2.23,0-3.37a1849699908389.57,1849699908389.57,0,0,0,.1-.32l.1-.11a.56.56,0,0,0,.14-.1h.35a.56.56,0,0,0,.14.1l.1.11a231212488590.05,231212488590.05,0,0,0,.1.32c0,1.14,0,2.27,0,3.37s0,2.27.05,3.37c0,.79,0,1.57,0,2.35v2.3c0,.58,0,1.15,0,1.72v1.76a5.13,5.13,0,0,1,.05.8V366Zm10-15.73c-.32,0-.63-.05-.93-.05s-.6,0-.92.05a16.91,16.91,0,0,0-1.91.32c-.65.15-1.28.31-1.9.48a16.11,16.11,0,0,0-1.95.81,8.29,8.29,0,0,0-1.86,1.12,1.4,1.4,0,0,0-.39.37,5.37,5.37,0,0,0-.49.49l-.1.1a.3.3,0,0,1-.14.06q-.11,0-.15,0h-.19l-.1-.11a.49.49,0,0,1-.1-.16.25.25,0,0,1,0-.16.18.18,0,0,1,0-.11v0a.25.25,0,0,0,0-.16.55.55,0,0,1,.1-.16l.54-.54c.09-.1.24-.25.44-.43a9.51,9.51,0,0,1,2-1.23,17.21,17.21,0,0,1,2.15-.9c.65-.18,1.31-.34,2-.49a13.31,13.31,0,0,1,2-.37h2c.36,0,.72.09,1.08.16s.71.16,1.07.27a11.34,11.34,0,0,1,2.39,1.12,11.1,11.1,0,0,1,2.05,1.77c.75.92,1.47,1.89,2.15,2.88a15.18,15.18,0,0,1,1.76,3.21c.1.32.19.63.29.91a5.47,5.47,0,0,1,.2,1,8,8,0,0,1,0,.81V362c0,.6,0,1.07,0,1.39s-.08.74-.15,1.39l-.24,1.87-.34,2.3a.19.19,0,0,0,0,.16.52.52,0,0,0-.1.11.48.48,0,0,1-.15.1.17.17,0,0,1-.14.06h-.15a.33.33,0,0,0-.15-.06.56.56,0,0,1-.14-.1.64.64,0,0,0-.1-.16v-.17a.15.15,0,0,1,0-.16l.34-2.19.24-1.87c0-.61.07-1.07.1-1.39s.07-.71.1-1.28v-.7a4.6,4.6,0,0,0,0-.64,6.45,6.45,0,0,0-.15-.86c-.09-.25-.19-.51-.29-.8a14.86,14.86,0,0,0-.93-2c-.39-.6-.79-1.19-1.22-1.76q-.39-.54-.78-1a11,11,0,0,0-.78-1,7.32,7.32,0,0,0-2.54-2,11.41,11.41,0,0,0-3-1h-.39Z"/><path d="M659.27,501.58h5.52c1.85,0,3.69.06,5.51.06h13.82a.49.49,0,0,1,.2.05.11.11,0,0,0,.1.05.34.34,0,0,1,.14.17.22.22,0,0,1,.05.16.23.23,0,0,1,0,.16,294270440017,294270440017,0,0,1-.1.32.56.56,0,0,1-.14.1.2.2,0,0,1-.15.06.21.21,0,0,1-.15.05h-5.91c-1.3,0-2.62,0-4-.05h-16v-4.66c0-1.53,0-3.06,0-4.6v-5.82c0-2,0-3.91,0-5.83v-8.51q0-4.23,0-8.5a.41.41,0,0,1,0-.16.23.23,0,0,1,0-.16l.1-.11a.65.65,0,0,0,.15-.11h.34a.48.48,0,0,0,.15.11l.09.11a.19.19,0,0,1,0,.16.47.47,0,0,1,0,.16v8.5c0,2.82.05,5.65.05,8.51v5.83c0,1.92,0,3.85,0,5.77v8.18Z"/><path d="M696.14,475.32l1.22.11c.23,0,.6,0,1.12.05a6.31,6.31,0,0,0,1,.11l1,.16.48.11a1.9,1.9,0,0,1,.44.05,2.54,2.54,0,0,0,.49.16l.49.22a6.36,6.36,0,0,1,2.1,1.55,11.64,11.64,0,0,1,1.56,2.14.69.69,0,0,0,.15.21c0,.07.06.16.1.27.16.32.3.64.44,1l.39,1a4.71,4.71,0,0,1,.14.48,2,2,0,0,1,.15.43c.16.47.28.82.34,1.07a7.59,7.59,0,0,0,.24,1.07c.13.64.25,1.18.35,1.61s.16,1,.29,1.65.1.93.1,1.18.08.93.14,2c0,.47,0,.93,0,1.39a20.88,20.88,0,0,1-.19,2.79,11,11,0,0,1-1.22,3.95c-.17.25-.33.5-.49.75a6.14,6.14,0,0,1-.69.64,4.6,4.6,0,0,1-2.19,1,21.91,21.91,0,0,1-2.44.27,16.45,16.45,0,0,1-4.2-.64,16.07,16.07,0,0,1-6.59-3.53,15.1,15.1,0,0,1-2.35-2.25l-.54-.7a6.11,6.11,0,0,1-.44-.8,3.46,3.46,0,0,1-.29-.8,5,5,0,0,1-.24-.8,22.88,22.88,0,0,1-.44-4.5v-.37c0-1.64.11-3.26.24-4.87a17.47,17.47,0,0,1,.39-2.46,16,16,0,0,1,.78-2.3c.17-.32.33-.6.49-.85a7.24,7.24,0,0,1,.64-.8,2,2,0,0,1,.44-.38l.48-.32c.23-.11.8-.32,1.71-.64a10.84,10.84,0,0,1,3.32-.38ZM707,485.75c-.1-.46-.18-.82-.25-1.07l-.29-1a1.84,1.84,0,0,0-.15-.43,2.39,2.39,0,0,0-.14-.43c-.13-.39-.28-.76-.44-1.12a10.67,10.67,0,0,0-.54-1.13,9,9,0,0,0-1.41-1.92A5.88,5.88,0,0,0,702,477.3a3217295881110.55,3217295881110.55,0,0,0-.78-.32,2,2,0,0,0-.44-.05l-.44-.11c-1-.14-2.09-.25-3.13-.32-.52,0-1-.05-1.56-.05s-1.09,0-1.61.05a11.83,11.83,0,0,0-1.81.27,5.49,5.49,0,0,0-1.66.59l-.39.21a1.27,1.27,0,0,0-.34.27,2.42,2.42,0,0,0-.49.64,3,3,0,0,0-.39.7,11.91,11.91,0,0,0-1,3.79c-.13,1.32-.22,2.64-.25,4,0,.43-.05.86-.05,1.28,0,.57,0,1.14.05,1.72a19.15,19.15,0,0,0,.34,3c.07.21.13.45.2.7a6.34,6.34,0,0,0,.24.64,2.93,2.93,0,0,0,.39.69,3.62,3.62,0,0,1,.44.59,17.82,17.82,0,0,0,5.67,4.39,15.3,15.3,0,0,0,6.69,1.65,8.4,8.4,0,0,0,1-.05l1-.11a4.31,4.31,0,0,0,1.07-.32,3.25,3.25,0,0,0,1.52-1.07,3.36,3.36,0,0,0,.44-.59,9.38,9.38,0,0,0,1.07-3.63,21.68,21.68,0,0,0,.15-2.52c0-.46,0-.91,0-1.33s-.07-1-.1-1.5-.06-1-.1-1.55-.13-.7-.19-1-.13-.69-.2-1-.06-.41-.1-.59A3.58,3.58,0,0,0,707,485.75Z"/><path d="M730.08,500.73c.46-1.93.9-3.83,1.32-5.72s.91-3.86,1.37-5.78c.35-1.5.71-3,1.07-4.44s.67-3,1-4.44c.26-1.1.52-2.23.78-3.37l.78-3.31a.25.25,0,0,0,.05-.16.4.4,0,0,1,.14-.11l.1-.11h.34a.43.43,0,0,1,.15,0,.52.52,0,0,0,.1.11.4.4,0,0,0,.1.16v.32c-.27,1.11-.53,2.23-.79,3.37l-.78,3.32c-.36,1.46-.71,2.94-1.07,4.44s-.67,2.94-1,4.44q-.78,3.42-1.61,6.84t-1.61,6.85a3.43,3.43,0,0,0-.44.05l-1.07-2.3c-.33-.78-.67-1.57-1-2.35s-.78-1.73-1.17-2.62-.83-1.78-1.22-2.68c-.49-1.07-1-2.14-1.42-3.2l-1.46-3.21c-.1.42-.21.87-.34,1.33l-.3,1.29c-.23.85-.45,1.73-.68,2.62s-.46,1.76-.68,2.62c-.36,1.43-.72,2.83-1.08,4.22s-.71,2.86-1.07,4.28H718c-.29-1.25-.6-2.49-.93-3.74s-.65-2.44-1-3.69q-.59-2.19-1.17-4.44l-1.18-4.44q-.83-3.26-1.66-6.47c-.55-2.18-1.12-4.33-1.71-6.47v-.22a.54.54,0,0,1,0-.16.16.16,0,0,1,.05-.1.63.63,0,0,1,.1-.17.37.37,0,0,1,.15,0H711l.1.11a.4.4,0,0,1,.14.11.22.22,0,0,1,.05.16q.82,3.25,1.71,6.47c.55,2.17,1.11,4.33,1.66,6.47q.59,2.25,1.17,4.44t1.17,4.44c.2.82.39,1.62.59,2.4s.44,1.63.63,2.41c.26-1,.51-1.94.74-2.94s.5-1.93.73-2.89.45-1.78.68-2.67.46-1.73.69-2.62.39-1.57.58-2.36.39-1.57.59-2.35a3.43,3.43,0,0,0,.44-.05q1,2.13,1.9,4.22t1.91,4.17l1.17,2.68c.39.85.78,1.73,1.17,2.62.13.28.26.59.39.91s.31.57.44.85.13.29.2.43Z"/><path d="M1153,499.6v.16a.4.4,0,0,1-.1.16.57.57,0,0,1-.14.11.23.23,0,0,1-.15.05h-.29a.73.73,0,0,0-.15-.11.94.94,0,0,0-.1-.1.24.24,0,0,0,0-.16v-.22c0-.53,0-1,0-1.44a10.41,10.41,0,0,0,0-1.07c.07-1.25.12-2,.15-2.3s0-1,0-2.19v-.91c0-.32,0-.7,0-1.13,0-2,0-3.9,0-5.82s-.15-3.93-.25-5.89c-.13-2.85-.22-5.69-.29-8.5s-.16-5.71-.19-8.56v-.16a.76.76,0,0,1,.09-.16l.1-.11a.48.48,0,0,1,.15-.1.3.3,0,0,0,.14-.06.18.18,0,0,1,.15.06.18.18,0,0,1,.15.05.91.91,0,0,1,.1.16l.09.11v.21c.07,2.82.13,5.65.2,8.5s.21,5.69.34,8.51c.1,2,.16,3.92.2,5.88s0,3.92,0,5.88c0,.68,0,1.36,0,2s0,1.35,0,2-.07,1.66-.1,2.51S1153,498.74,1153,499.6Zm23-20.43.15.05a.17.17,0,0,1,.14.06l.1.1a.44.44,0,0,0,.1.16v.38l-.1.11a.49.49,0,0,1-.1.16.2.2,0,0,1-.14.05.18.18,0,0,1-.15.05h-2.78c-.95,0-1.87,0-2.79.06h-3.71c-1.23,0-2.47,0-3.71,0-1.82,0-3.64,0-5.47.05H1152s-.08,0-.14,0a.17.17,0,0,1-.15-.05l-.1-.16a.76.76,0,0,1-.09-.16v-.32a.76.76,0,0,0,.09-.16l.1-.11a.21.21,0,0,1,.15-.05.17.17,0,0,1,.14-.06c1.83,0,3.63,0,5.42-.05s3.63,0,5.42-.05h3.76c1.24,0,2.48-.06,3.71-.06h2.5c.48,0,1,0,1.51-.05Zm.2,20.06a.34.34,0,0,0,.05.16v.16a.25.25,0,0,1-.05.16l-.1.16-.1.1a.29.29,0,0,1-.15.06h-.14a.18.18,0,0,1-.15-.06.15.15,0,0,1-.14-.1l-.1-.11a2,2,0,0,1-.1-.21.47.47,0,0,0,0-.16,3.87,3.87,0,0,1-.19-.91c-.07-.36-.12-.68-.15-1,0-.57-.07-1-.1-1.28s0-.75-.05-1.39v-6.69c0-2.21.08-4.42.15-6.63.1-3.31.23-6.63.39-9.94s.36-6.64.59-9.95a.24.24,0,0,1,0-.16.91.91,0,0,1,.1-.16l.1-.11a.17.17,0,0,1,.15-.05.12.12,0,0,1,.09-.06s0,0,0,.06h.15l.15.1.09.11a.32.32,0,0,1,0,.16.54.54,0,0,1,0,.16v.05q-.39,4.92-.63,9.9t-.39,9.89q-.06,3.38-.1,6.69t0,6.63c0,.61.05,1.05.05,1.34a12.1,12.1,0,0,0,.09,1.23c0,.28.07.57.1.85a7.05,7.05,0,0,0,.15.81l0,.05A.14.14,0,0,0,1176.1,499.23Z"/><path d="M1181.33,474.84a.54.54,0,0,1,0,.21.18.18,0,0,1,0,.11.15.15,0,0,1-.15.1l-.09.11h-.2l-.15-.05a.3.3,0,0,1-.14-.06.34.34,0,0,1-.1-.16.16.16,0,0,1-.05-.1v-.7a3,3,0,0,1,.05-.48v-.64a4.6,4.6,0,0,0,0-.64,6.57,6.57,0,0,1,0-.91,7.72,7.72,0,0,1,0-1,.22.22,0,0,1,0-.16.26.26,0,0,1,.05-.17.65.65,0,0,1,.15-.1.12.12,0,0,1,.1-.06.2.2,0,0,1,.14-.05h0a.43.43,0,0,1,.15.05.37.37,0,0,0,.15.11l.09.11a.19.19,0,0,1,0,.16v.16a7.72,7.72,0,0,1,0,1,7.23,7.23,0,0,1,0,.91v.64a4.73,4.73,0,0,0,0,.65v.42a.68.68,0,0,1-.05.27Zm.09,24.6a.45.45,0,0,0,0,.16.91.91,0,0,1-.1.16l-.1.11a.48.48,0,0,1-.15.1h-.14a.17.17,0,0,1-.15-.05.25.25,0,0,1-.15-.05.76.76,0,0,1-.09-.16l-.1-.11v-.21l0-1.45V484.36c0-1.36.08-2.73.14-4.12a.47.47,0,0,1,.05-.16l.1-.11a.16.16,0,0,1,.15-.11.2.2,0,0,1,.14-.05.19.19,0,0,1,.1-.05h0a.21.21,0,0,0,.15.05l.09.11a.16.16,0,0,1,.1.16.55.55,0,0,1,.1.16v.16c-.1,1.36-.15,2.69-.15,4s0,2.71,0,4.07,0,2.62,0,3.9v4a6.06,6.06,0,0,1,0,.85v2.25Z"/><path d="M1202.38,506.93a7.54,7.54,0,0,0,.93-1.13,6.43,6.43,0,0,0,.73-1.28,6.63,6.63,0,0,0,.49-1.18l.39-1.17c.26-.79.52-1.55.78-2.3s.52-1.52.78-2.3a2.34,2.34,0,0,0,.19-.7,1.14,1.14,0,0,1,.25-.59c.06-.1.16-.12.29,0a.82.82,0,0,0,.39.11.17.17,0,0,0-.14-.06.17.17,0,0,1-.15,0,.45.45,0,0,1-.15-.11.22.22,0,0,1-.05-.16.22.22,0,0,1,0-.16,2.87,2.87,0,0,1,.09-.32.65.65,0,0,1,.15-.1l.15-.16h0a.11.11,0,0,1,.1,0,3.71,3.71,0,0,0,.15.64,2.21,2.21,0,0,1,.1.59v.11a1.58,1.58,0,0,1-.15.69,4.16,4.16,0,0,0-.24.64c-.3.79-.56,1.55-.79,2.3s-.53,1.52-.83,2.3q-.19.65-.39,1.23A8.26,8.26,0,0,1,1205,505a10,10,0,0,1-.83,1.45c-.33.42-.67.83-1,1.23a11.57,11.57,0,0,1-6.79,3.15,33.62,33.62,0,0,1-4.2.27,30.72,30.72,0,0,1-3.22-.16,1.66,1.66,0,0,1-.44-.11c-.1,0-.36-.11-.78-.21a.74.74,0,0,1-.34-.11,1,1,0,0,1-.34-.11c-.33-.14-.65-.3-1-.48a4,4,0,0,1-.78-.75.85.85,0,0,1-.2-.32.73.73,0,0,1-.14-.32,1,1,0,0,1-.15-.32,1.32,1.32,0,0,0,0-.37v-.11a1.76,1.76,0,0,1,.15-.75,3.19,3.19,0,0,1,.29-.8l.29-.59a3.82,3.82,0,0,1,.35-.59,4.48,4.48,0,0,1,.88-.91,2.15,2.15,0,0,1,1.07-.48h.39a1.32,1.32,0,0,0,.39.06.21.21,0,0,0,.15.05.57.57,0,0,1,.09.16.52.52,0,0,1,.1.11.25.25,0,0,0,.05.16.54.54,0,0,1-.05.21.14.14,0,0,1,0,.11.76.76,0,0,1-.09.16l-.15.1h-.49a.21.21,0,0,0-.19,0,1.05,1.05,0,0,0-.74.27c-.19.22-.37.43-.53.64s-.2.31-.3.49l-.29.53a2.6,2.6,0,0,0-.24.59,1.05,1.05,0,0,0,0,.59V508s0,0,0,.1a1.74,1.74,0,0,0,.92,1,7.31,7.31,0,0,0,1.22.48c.2.07.38.12.54.16a1.33,1.33,0,0,0,.54.11,6.6,6.6,0,0,0,1.17.1,10.1,10.1,0,0,0,1.12.06,22.72,22.72,0,0,0,5.57-.38,11.16,11.16,0,0,0,5.13-2.3l.19-.21A.7.7,0,0,1,1202.38,506.93Zm6.79-18.94a9.82,9.82,0,0,1,.24,2.14,7.63,7.63,0,0,1-.15,1.5,16,16,0,0,1-.88,3.59,9.14,9.14,0,0,1-1.27,2.24,5.69,5.69,0,0,1-1.85,1.66,8.24,8.24,0,0,1-.88.37l-.93.32a1.69,1.69,0,0,1-.39.06l-.34.05a100.14,100.14,0,0,0-2,.11c-.49,0-1-.06-1.42-.06l-1.46-.1c-1-.07-1.89-.16-2.83-.27s-1.94-.23-2.88-.37a8.17,8.17,0,0,1-.93-.16c-.3,0-.61-.09-.93-.16l-.54-.17a3.72,3.72,0,0,1-.58-.16,2,2,0,0,1-1.47-1.33,7,7,0,0,1-.54-2,3.27,3.27,0,0,1,0-.54,2.47,2.47,0,0,1,0-.54v-.74c0-.65,0-1.29,0-1.93s.08-1.26.14-1.87a17.79,17.79,0,0,1,.3-2,7.25,7.25,0,0,1,.53-1.87,8.51,8.51,0,0,1,.44-.91l.59-.75a7.44,7.44,0,0,1,5.66-2.46h0a25.45,25.45,0,0,1,6.15.7c1.27.32,2.62.69,4.06,1.12a6.08,6.08,0,0,1,3.36,2.62,2.65,2.65,0,0,1,.4.69,6,6,0,0,1,.34.81,222939791007.42,222939791007.42,0,0,0,.1.42Zm-4.06,9.95a5.7,5.7,0,0,0,1.52-1.5,6.68,6.68,0,0,0,.44-.8l.39-.85a14.81,14.81,0,0,0,.83-3.21,10.81,10.81,0,0,0,.09-1.39,9.71,9.71,0,0,0-.19-1.93c-.07-.21-.13-.43-.2-.64a1.91,1.91,0,0,0-.29-.59,4.42,4.42,0,0,0-1.61-1.76,8.64,8.64,0,0,0-2.1-1c-.55-.17-1-.3-1.27-.37l-2-.54a9.94,9.94,0,0,0-1.32-.26,13.17,13.17,0,0,0-1.37-.22,18.81,18.81,0,0,0-2.39-.16,18.21,18.21,0,0,0-2,.11,6.08,6.08,0,0,0-3.91,1.93,6.62,6.62,0,0,0-.44.64,2.93,2.93,0,0,0-.39.69,7,7,0,0,0-.54,1.77c-.09.6-.16,1.21-.19,1.82s-.13,1.21-.2,1.81,0,1.22,0,1.82v.7a.76.76,0,0,0,0,.27v.26a2,2,0,0,0,0,.43,1.46,1.46,0,0,0,0,.38.25.25,0,0,0,.05.16v.16a4,4,0,0,0,.39,1.12,1.21,1.21,0,0,0,.78.75,3.35,3.35,0,0,1,.54.11,5.3,5.3,0,0,1,.54.16,6.64,6.64,0,0,1,.87.16c.33.07.64.12.93.16,1,.14,1.89.26,2.83.37s1.84.2,2.79.27c.49,0,1,.05,1.41.05s.93.06,1.42.06h.93a7.89,7.89,0,0,0,1-.06,1.63,1.63,0,0,1,.35-.05.55.55,0,0,1,.29-.06v-.05A5.81,5.81,0,0,0,1205.11,497.94Z"/><path d="M1230.85,485.69c.26.33.5.65.73,1a4.82,4.82,0,0,1,.54,1.12,4.16,4.16,0,0,1,.34,1.39c.07.5.13,1,.2,1.45s0,1,0,1.22,0,.68,0,1.18c0,.68,0,1.36-.09,2a14.09,14.09,0,0,1-.25,2,6,6,0,0,1-.24.91c-.1.25-.2.52-.29.8a1.09,1.09,0,0,1-.1.17l-.1.1a.29.29,0,0,1-.15.06h-.19a.37.37,0,0,1-.15-.06.19.19,0,0,1-.1-.05.57.57,0,0,0-.09-.16.21.21,0,0,1,0-.16.25.25,0,0,1,0-.16.54.54,0,0,0,0-.16l.19-.54c.07-.18.13-.37.2-.59a10.8,10.8,0,0,0,.29-2c.07-.71.1-1.41.1-2.08V492a9.69,9.69,0,0,0-.1-1.17c0-.47-.06-.9-.1-1.29a8.42,8.42,0,0,0-.29-1.28,4.71,4.71,0,0,0-.49-.91,7.22,7.22,0,0,0-.58-.86,10.6,10.6,0,0,0-3-2.14,18.89,18.89,0,0,0-3.52-1.12l-1.75-.32-1-.16a2.85,2.85,0,0,1-.49-.11,8.58,8.58,0,0,1-.93-.1,1.84,1.84,0,0,0-.53-.06,4.66,4.66,0,0,0-.54-.05,11,11,0,0,0-2.1.21,3.92,3.92,0,0,0-1.81,1.07l-.29.43a1.18,1.18,0,0,0-.24.43l-.15.32a3.23,3.23,0,0,0-.1.32,3.19,3.19,0,0,0-.14.59c0,.18-.07.35-.1.53v8.4c0,1.43-.05,2.87-.05,4.33v.8h-1V488.26c0-.67,0-1.35,0-2a2.28,2.28,0,0,1,.1-.7,3.93,3.93,0,0,1,.15-.64c.06-.21.11-.35.14-.43s.08-.24.15-.42l.24-.38.2-.37v3c0,.36-.05.73-.05,1.13V496a10.56,10.56,0,0,0,.1,1.49,2.89,2.89,0,0,1-.1,1.5c-.07.18-.2.22-.39.11a2.07,2.07,0,0,0-.59-.11c0-1.74-.05-3.49-.05-5.24V487.3a6.46,6.46,0,0,1,.1-1.07v-7.49q0-4.22,0-8.45v-8.45a1849699908344.86,1849699908344.86,0,0,0,.1-.32.48.48,0,0,1,.15-.11.14.14,0,0,1,.09-.05.37.37,0,0,1,.2-.05.26.26,0,0,1,.14.05.37.37,0,0,1,.15.05l.1.11a1618487419899.25,1618487419899.25,0,0,0,.1.32c0,2.82,0,5.63,0,8.45v8.45c0,.79,0,1.55,0,2.3v2.25a4,4,0,0,1,2.78-1.82,10.76,10.76,0,0,1,3.32-.11c1.89.29,3.81.66,5.76,1.13a12.12,12.12,0,0,1,5.23,2.83.9.9,0,0,1,.19.16A1.37,1.37,0,0,0,1230.85,485.69Z"/></svg>
