<svg id="Layer_1" data-name="Layer 1" xmlns="http://www.w3.org/2000/svg" width="120" height="200" viewBox="0 0 120 200"><defs><style>.cls-1{fill:#fff;}.cls-2{fill:#f9bd03;}</style></defs><title>tid</title><path class="cls-1" d="M60,99.92a13.85,13.85,0,0,1-12.1-7L8.3,24.71a14,14,0,0,1,12.1-21H99.6a14,14,0,0,1,12.1,21L72.1,93A13.85,13.85,0,0,1,60,99.92Z"/><path d="M99.6,5.7A12,12,0,0,1,110,23.7L70.37,92a12,12,0,0,1-20.74,0L10,23.7A12,12,0,0,1,20.4,5.7H99.6m0-4H20.4a15.81,15.81,0,0,0-13.85,8,15.82,15.82,0,0,0,0,16L46.17,94a16,16,0,0,0,27.66,0l39.6-68.25a15.82,15.82,0,0,0,0-16,15.81,15.81,0,0,0-13.85-8Z"/><path class="cls-1" d="M20.4,196.3a14,14,0,0,1-12.1-21l39.6-68.24a14,14,0,0,1,24.2,0l39.6,68.24a14,14,0,0,1-12.1,21Z"/><path d="M60,102.08a11.88,11.88,0,0,1,10.37,6L110,176.3a12,12,0,0,1-10.37,18H20.4A12,12,0,0,1,10,176.3l39.6-68.25a11.88,11.88,0,0,1,10.37-6m0-4a15.86,15.86,0,0,0-13.83,8L6.57,174.29a16,16,0,0,0,13.83,24H99.6a16,16,0,0,0,13.83-24L73.83,106a15.86,15.86,0,0,0-13.83-8Z"/><path class="cls-2" d="M50,95.22,29,59.08a12,12,0,0,1,10.37-18H81.34a12,12,0,0,1,10.36,18l-21,36.14A12,12,0,0,1,50,95.22Z"/><path class="cls-2" d="M19.05,194.08c8.24-.87,14.6-15,40-15s37,10,44,15"/></svg>
