<svg id="Layer_1" data-name="Layer 1" xmlns="http://www.w3.org/2000/svg" width="1920" height="1080" viewBox="0 0 1920 1080"><defs><style>.cls-1{fill:#742d1b;}.cls-2{fill:#c06543;}.cls-3{fill:#1a1a1a;}.cls-4{fill:#333;}.cls-5{fill:#4d4d4d;}.cls-6{fill:#fcee6a;}.cls-7{fill:#fcee52;}.cls-8{fill:#666;}.cls-9{fill:#99ada1;}.cls-10{fill:#c1272d;}.cls-11{fill:#ed1c24;}.cls-12,.cls-13{fill:#f3f2f1;}.cls-12{stroke:#000;stroke-width:3px;}.cls-12,.cls-14,.cls-15,.cls-16{stroke-miterlimit:10;}.cls-14,.cls-15,.cls-16{fill:#f3b803;stroke:#754c24;}.cls-14,.cls-15{stroke-width:2px;}.cls-15{stroke-linecap:round;}.cls-17{fill:#db1620;}.cls-18{fill:#29c7e2;}.cls-19{fill:#fff;}.cls-20{fill:#60cfa5;}.cls-21{fill:#fcf8d5;}</style></defs><title>titelside</title><rect class="cls-1" width="1920" height="1080"/><rect class="cls-2" x="114" y="108" width="1684" height="867" rx="12" ry="12"/><polyline class="cls-2" points="94 106 94 973 57 1022 20 1063 20 27"/><polyline class="cls-2" points="1824 106 1824 973 1861 1022 1898 1063 1898 27"/><polyline class="cls-2" points="20 18 1898 18 1861 52 1824 87 94 87"/><polyline class="cls-2" points="1873 1063 41 1063 77.49 1029 113.98 994 1820.02 994"/><rect class="cls-3" x="57" y="163" width="279" height="316" rx="12" ry="12"/><rect class="cls-4" x="41" y="139" width="279" height="316" rx="12" ry="12"/><path class="cls-3" d="M145,297c0,77.6,1.05,140-28.5,140S63,374.1,63,296.5,87,156,116.5,156,145,219.4,145,297Z"/><path class="cls-3" d="M133.17,353.82C153.41,362,158,390,153,411c-4.05,17-17,29-39,26-21.62-2.95-31-33-34.65-55.24C75.25,356.69,112.93,345.68,133.17,353.82Z"/><path class="cls-3" d="M140.17,239.81c20.24-8.14,24.83-36.17,19.83-57.17-4.05-17-17-29-39-26-21.62,2.94-31,33-34.65,55.24C82.25,237,119.93,248,140.17,239.81Z"/><rect class="cls-5" x="268" y="163" width="34" height="34" rx="12" ry="12"/><rect class="cls-5" x="224" y="163" width="34" height="34" rx="12" ry="12"/><rect class="cls-5" x="179" y="163" width="34" height="34" rx="12" ry="12"/><rect class="cls-5" x="179" y="208" width="34" height="34" rx="12" ry="12"/><rect class="cls-5" x="224" y="208" width="34" height="34" rx="12" ry="12"/><rect class="cls-5" x="268" y="208" width="34" height="34" rx="12" ry="12"/><rect class="cls-5" x="268" y="253" width="34" height="34" rx="12" ry="12"/><rect class="cls-5" x="224" y="253" width="34" height="34" rx="12" ry="12"/><rect class="cls-5" x="179" y="253" width="34" height="34" rx="12" ry="12"/><path class="cls-6" d="M314,437H204c-12-32.17-21.31-67.45-9-107H302C292.55,370,305.57,405.16,314,437Z"/><path class="cls-7" d="M299,351H192c-.91-4.12.76-12.13,3-21H302C299.81,339.36,298.8,346.38,299,351Z"/><path d="M204.5,365a.08.08,0,0,1,0,.07.07.07,0,0,1,0,.06l0,0-.07,0h-.15a.09.09,0,0,0-.06,0l0,0a.14.14,0,0,1,0-.07.08.08,0,0,1,0-.06v-7.71c0-1.07,0-2.14,0-3.2v-3.29l0-.06,0-.06.06,0h.13l.06,0a.05.05,0,0,1,0,.06l0,.06v.07c0,1.06,0,2.13,0,3.2v8.37c0,.24,0,.49,0,.74V365Zm1.17-6.46a15.68,15.68,0,0,0,1.73.89c.6.25,1.2.47,1.81.68l.62.17.6.16.41.1a2.35,2.35,0,0,1,.43.13,4.69,4.69,0,0,1,.45.18,3.82,3.82,0,0,1,.46.21,6.46,6.46,0,0,1,1.27,1,5.59,5.59,0,0,1,.94,1.26,3.93,3.93,0,0,1,.31.7c.1.23.18.47.27.72l0,0v0a.08.08,0,0,1,0,.06l0,.06,0,0s0,0-.07,0h-.13s-.05,0-.06,0l0,0,0-.06c-.08-.23-.17-.46-.26-.68a5.24,5.24,0,0,0-.29-.64,5.09,5.09,0,0,0-.87-1.17,5.17,5.17,0,0,0-1.17-.89l-.52-.25a4.72,4.72,0,0,0-.53-.18l-.28-.09s-.08,0-.32-.06l-.63-.16-.6-.19-1-.35-1-.39c-.44-.2-.86-.41-1.27-.64s-.8-.48-1.19-.74a.65.65,0,0,0,0-.11,1,1,0,0,1,0-.1l.84,0s.41,0,1.1-.08l.61,0,.85,0,1.3-.1,1.29-.1.92-.1a2.51,2.51,0,0,0,.9-.25l.21-.12.18-.14a2.8,2.8,0,0,0,.74-1,4.17,4.17,0,0,0,.35-1.21c0-.14,0-.28.05-.41l0-.42a1.27,1.27,0,0,0-.06-.45c-.05-.15-.1-.29-.16-.43a1.85,1.85,0,0,0-.63-.7,4.4,4.4,0,0,0-.8-.49l-.48-.19-.5-.14-.74-.15q-.36-.08-.75-.12c-.52-.07-1.05-.12-1.59-.16s-1.05,0-1.6,0l-1.2.05-1.29.12h-.06l-.07,0,0,0,0,0a.29.29,0,0,1,0-.09v-.06a.39.39,0,0,1,0-.06l0,0,.06,0,.07,0,1.31-.12c.28,0,.68-.05,1.21-.07h.41c.41,0,.82,0,1.22.05s1.07.07,1.62.14l.77.12.76.17.52.16c.18.06.36.12.52.19l.44.22c.14.09.28.17.41.27a2.28,2.28,0,0,1,.6.6,2.36,2.36,0,0,1,.38.76c0,.11.05.21.07.31s0,.22,0,.33a10.67,10.67,0,0,1-.24,1.54,3.35,3.35,0,0,1-.68,1.42l-.18.2-.2.19a3.11,3.11,0,0,1-.65.39,2.61,2.61,0,0,1-.75.22l-.52,0-.55.06-1.31.1-1.31.1-1.2.08Z"/><path d="M216.07,352.38l.3,6.44q.12,3.21.27,6.44l0,.06a.08.08,0,0,1,0,.06l0,0-.07.05h-.13s-.05,0-.06-.05-.06,0-.07,0l0-.06s0-.05,0-.06l-.28-6.44q-.13-3.22-.26-6.44l0-.78,0-.89v-.08l0,0a.15.15,0,0,1,0-.06s0,0,.06,0,0,0,.06,0,.05,0,.06,0a.08.08,0,0,1,.07,0,229051076343.88,229051076343.88,0,0,0,.08.12v.06l0,.89Zm8.67-1.54,0,0,.05.06a.08.08,0,0,1,0,.06l0,0v0a.25.25,0,0,0,0,.07l0,.06-.06,0-.06,0h-.07l-.06,0-.27-.08-.27,0-.44-.07a3,3,0,0,1-.43,0h-1.36l-1.35.06-2.32.07-2.33,0h-.06s-.05,0-.06,0l-.05,0a.15.15,0,0,1,0-.06v-.12l0-.06,0,0s0,0,.06,0h.06c.77,0,1.54,0,2.32,0l2.3-.08,1.37,0,.8,0,.56,0,.74,0a5,5,0,0,1,.75.15l0,0A.11.11,0,0,1,224.74,350.84Zm-.75,6.3.06,0,0,0s0,0,0,0l.05.06v.06a.06.06,0,0,1,0,.06.43.43,0,0,1,0,.07l0,0-.06,0H224l-.47-.05-.36,0-1-.08c-.06,0-.44,0-1.14-.06l-.59,0-.55,0-.31,0-.31,0-.65.07h-.63c-.37,0-.66,0-.89,0h-.92a.11.11,0,0,1-.07,0s-.05,0-.06,0l-.05,0,0-.06,0-.06a.28.28,0,0,1,0-.09l0,0,0-.06.06,0,.07,0H217c.21,0,.5,0,.86,0a5.93,5.93,0,0,0,.63,0l.63-.06.31,0,.34,0H221a4.1,4.1,0,0,0,.49,0l.51,0,1,.08C223.31,357.08,223.65,357.12,224,357.14Zm1.94,6.48.06,0,0,0s.05,0,.05.07a.16.16,0,0,1,0,.06v.06l0,.06,0,0-.06,0s0,0-.06,0h-.07l-.23,0h-.22l-.32,0-.35,0c-.54.05-1.08.12-1.62.2l-1.6.22c-.85.14-1.68.26-2.51.37l-2.52.34h-.08l-.07,0s0,0,0,0a.18.18,0,0,1-.05-.07s0,0,0-.06v-.06l0-.06,0-.06s0,0,.07,0,0,0,.06,0l2.51-.35,2.5-.36,1.61-.22c.54-.08,1.08-.15,1.62-.2a3.86,3.86,0,0,1,.58,0l.25,0,.33,0h.06Z"/><path d="M230.82,355c.38-.35.77-.68,1.17-1s.77-.68,1.16-1l.79-.71.81-.7.59-.54.6-.53.11.06c.17,1.13.35,2.26.53,3.39s.36,2.26.53,3.39c.12.74.23,1.49.34,2.23s.24,1.49.35,2.24c.1.56.19,1.12.27,1.67s.17,1.11.27,1.68a.18.18,0,0,1,0,.06.39.39,0,0,1,0,.06l0,0-.06,0h-.13a.14.14,0,0,1-.07,0s-.05,0-.05,0l-.05-.06a.09.09,0,0,1,0-.07c-.08-.55-.16-1.1-.25-1.65s-.18-1.12-.26-1.67c-.12-.75-.24-1.49-.35-2.24s-.24-1.49-.35-2.23c-.16-1-.31-2-.47-3s-.32-2-.47-3l-.35.31-.34.31-.8.71-.82.7-1.29,1.13c-.43.37-.87.75-1.3,1.14-.22-.22-.43-.43-.65-.62l-.66-.62-.87-.83-.86-.83-.66-.64-.63-.66v.79l.05,1c0,.81.06,1.62.12,2.41s.08,1.6.12,2.42c.07,1.19.13,2.39.19,3.6s.11,2.42.17,3.63a.11.11,0,0,1,0,.07s0,0,0,.06,0,0,0,0l-.07,0-.08,0-.07,0,0,0-.07,0a.09.09,0,0,1,0-.07v-.06c-.06-1.21-.12-2.41-.19-3.61s-.11-2.42-.17-3.63c-.05-.79-.09-1.6-.13-2.41l-.12-2.39c0-.45,0-.9,0-1.34l0-1.32.08,0,.1,0c.27.34.57.67.88,1s.64.61,1,.93l.87.82.86.83.28.25a2.89,2.89,0,0,0,.25.24l.23.23Z"/><path d="M238.25,352.39l.83,6.47q.39,3.22.8,6.48a.18.18,0,0,1,0,.06s0,.05,0,.06l0,0-.06,0h-.13l-.08,0-.07,0,0-.06a.06.06,0,0,1,0-.07l-.82-6.47q-.4-3.24-.79-6.47l-.1-.79-.11-.88v-.09l0,0a.15.15,0,0,1,0-.06l.06,0s0,0,.06,0a.07.07,0,0,1,.06,0l.06,0a.1.1,0,0,1,0,.06l.05.06v.07l.11.88Zm8.54-1.55,0,0a.31.31,0,0,1,.06.06l0,.07a.05.05,0,0,1,0,0v0s0,.05,0,.06l0,.06-.06,0s0,0-.06,0h-.06a.12.12,0,0,1-.07,0l-.28-.08-.27,0-.44-.06-.44,0q-.67,0-1.35,0l-1.35.06-2.32.06-2.32,0h-.06l-.07,0a.1.1,0,0,0,0,0,.43.43,0,0,1,0-.07v-.12a.16.16,0,0,1,0-.06l0,0a.09.09,0,0,1,.06,0h.06l2.32,0,2.28-.09,1.37,0,.8,0,.56,0,.75,0a5.37,5.37,0,0,1,.76.15l0,0Zm-.23,6.34.07,0,.05,0,0,0,.06.07v.06s0,0,0,.06a.09.09,0,0,1,0,.06l0,0-.06,0h-.09l-.47,0-.36,0-1-.09-1.14-.06-.59,0-.55,0-.31,0-.31,0-.65.06-.62,0c-.37,0-.66,0-.88,0h-.93l-.07,0-.06,0-.05,0a.13.13,0,0,1,0-.07.09.09,0,0,1,0-.06.22.22,0,0,1,0-.08l0,0,0-.06.06,0,.06,0h.93l.86,0,.62,0,.63-.06a1.67,1.67,0,0,1,.31,0l.33-.05h1.18l.48,0,.51,0,1,.08C245.88,357.12,246.22,357.15,246.56,357.18Zm2.48,6.51.06,0,.05,0a.12.12,0,0,1,.06.06l0,.07v.06s0,.05,0,.06l0,0-.06,0s0,0-.06,0H249l-.25,0h-.21l-.32,0-.34,0c-.54.05-1.08.12-1.61.2l-1.59.22c-.83.14-1.65.26-2.47.37s-1.67.24-2.49.34h-.09l-.06,0-.05,0a.1.1,0,0,1,0-.06.09.09,0,0,1,0-.06V365a.13.13,0,0,0,0-.06.09.09,0,0,0,0-.06l.06,0a.08.08,0,0,1,.06,0l2.49-.34,2.47-.37,1.58-.22c.54-.08,1.07-.15,1.61-.2a3.73,3.73,0,0,1,.57,0,1.14,1.14,0,0,1,.26,0,1.77,1.77,0,0,1,.32,0H249Z"/><path d="M253.22,355c.35-.34.71-.68,1.08-1s.71-.69,1.08-1l.73-.71c.24-.23.49-.47.75-.7l.55-.54.55-.54.12.06.81,3.41.81,3.41c.18.74.35,1.49.52,2.24l.54,2.24c.14.57.28,1.13.4,1.69s.27,1.11.41,1.68a.18.18,0,0,1,0,.06.13.13,0,0,1,0,.06l0,.05-.06,0h-.13l-.07,0a0,0,0,0,1-.05-.05l-.06-.06a.06.06,0,0,1,0-.06c-.13-.56-.26-1.11-.38-1.66s-.28-1.13-.41-1.69c-.17-.74-.35-1.49-.53-2.24l-.54-2.24c-.23-1-.47-2.05-.71-3.06s-.49-2-.72-3.05l-.33.31-.31.31-.75.71c-.24.23-.49.47-.75.7l-1.2,1.14-1.21,1.14c-.24-.22-.47-.43-.7-.62l-.71-.62-.94-.83-.93-.83-.71-.65-.68-.66.07.79.13,1c.09.82.19,1.63.31,2.43s.21,1.61.32,2.42c.17,1.21.33,2.42.49,3.63s.32,2.43.47,3.65a.18.18,0,0,1,0,.06.13.13,0,0,1,0,.06s0,0,0,0l-.06,0-.08,0a.09.09,0,0,0-.07,0l0,0s-.06,0-.07,0a.06.06,0,0,1,0-.06v-.06c-.16-1.22-.32-2.43-.49-3.63s-.31-2.43-.47-3.65l-.33-2.42c-.1-.8-.21-1.61-.31-2.41-.05-.45-.09-.9-.14-1.34s-.09-.89-.13-1.33l.07,0,.1,0c.3.34.63.67,1,1l1,.94.93.83.94.83.29.25.28.24.25.23Z"/><path d="M265.9,350.72l.38.16.4.19a4,4,0,0,1,1,.83,7,7,0,0,1,.73,1.07c.22.5.43,1,.63,1.52a8.77,8.77,0,0,1,.48,1.56c0,.12.05.25.07.37a1.36,1.36,0,0,1-.05.36.7.7,0,0,1-.1.16,1,1,0,0,1-.14.15,1.48,1.48,0,0,1-.53.31,3.12,3.12,0,0,1-.62.15l.11,0a3.8,3.8,0,0,1,1.08.5,3.16,3.16,0,0,1,.86.85,2.91,2.91,0,0,1,.23.42l.18.42c.23.48.45,1,.67,1.43s.43,1,.62,1.44a1.55,1.55,0,0,0,.08.23l0,.15,0,.08a2.23,2.23,0,0,0,0,.23v.21a1.41,1.41,0,0,0,0,.18,1.62,1.62,0,0,1,0,.19,1,1,0,0,1-.09.31,1.59,1.59,0,0,1-.15.29,1.62,1.62,0,0,1-.51.31,2.66,2.66,0,0,1-.58.21,5.1,5.1,0,0,1-.95.16l-1,.08h-.57c-.57,0-1.15,0-1.71-.05-.76,0-1.52,0-2.27-.09a1.89,1.89,0,0,0-.56,0s-.09-.06-.25-.27a.07.07,0,0,0,0,.06.15.15,0,0,1,0,.07l0,.06-.06,0-.06,0-.07,0-.07,0L263,365l-.05-.07s0,0,0-.06l.54-.2.64,0,2.24.11c.76,0,1.5,0,2.23,0,.43,0,.87-.05,1.3-.1a3.07,3.07,0,0,0,1.17-.33.45.45,0,0,0,.16-.09.54.54,0,0,0,.18-.12.39.39,0,0,0,.08-.14l.05-.15c0-.07.05-.15.07-.23l0-.25a1.11,1.11,0,0,0,0-.17.88.88,0,0,0,0-.16.54.54,0,0,0-.05-.21.82.82,0,0,0-.06-.19c-.18-.48-.37-1-.58-1.44s-.46-.94-.68-1.41a4,4,0,0,0-.49-.9,2.13,2.13,0,0,0-.77-.69,2.06,2.06,0,0,0-.34-.16l-.34-.11-.33,0-.32,0h-.42a3,3,0,0,0-.42,0h-1.92l-.78,0h.69l.68,0h-.25l-1.06,0h-.19l-.34,0-.54,0-.32,0h-.15a.5.5,0,0,0-.17,0,.75.75,0,0,1,0-.21.76.76,0,0,1,0-.21l.45,0,.71.06h.33a.83.83,0,0,1,.2,0h.44l.38,0,.33,0,1.3-.13c.44,0,.87-.09,1.28-.16a5.86,5.86,0,0,0,.63-.12,1.61,1.61,0,0,0,.52-.27.23.23,0,0,0,.07-.07l.06-.08,0,0,0,0v-.09a.19.19,0,0,0,0-.08,1.11,1.11,0,0,0,0-.17.67.67,0,0,0,0-.18c-.06-.27-.14-.54-.23-.82s-.17-.53-.28-.81-.18-.44-.26-.66-.18-.45-.28-.67a2.65,2.65,0,0,0-.16-.23l-.16-.27a5.19,5.19,0,0,0-.81-.87,3.25,3.25,0,0,0-1-.57,3.16,3.16,0,0,0-.71-.12l-.35,0-.33,0-2.16.06-2.16.12-.06,0a.11.11,0,0,1-.07,0l0,0a.1.1,0,0,1-.05-.06l0-.06v-.07a.07.07,0,0,1,0-.06.06.06,0,0,1,0-.06l.05,0,.06,0,2.16-.11,2.15-.08h.72l.32,0,.34.07.09,0Zm-2.4,14.53v.06a.06.06,0,0,1,0,.06l0,0a.09.09,0,0,1-.06,0h-.13a.08.08,0,0,1-.07,0l-.05-.06-.05,0,0-.08c-.13-.57-.26-1.14-.38-1.71s-.26-1.13-.37-1.7c-.18-.76-.34-1.53-.5-2.29s-.35-1.52-.52-2.29c-.23-1.1-.47-2.21-.71-3.32s-.49-2.22-.73-3.33l0-.06,0-.06a.16.16,0,0,1,0-.06s0,0,.06,0a.05.05,0,0,1,.05,0,.09.09,0,0,1,.07,0s.05,0,.06,0a.1.1,0,0,1,.05,0l.06.06v.06c.25,1.12.5,2.24.74,3.35s.5,2.22.74,3.32c.16.77.33,1.53.5,2.29s.34,1.53.5,2.29l.18.75.16.77c.07.31.14.63.23.95Z"/><path d="M270.5,352.41l1.6,6.52c.52,2.16,1,4.34,1.57,6.52t0,.06a.06.06,0,0,1,0,.06l0,0-.06,0h-.13l-.07,0-.08,0,0-.06s0-.05,0-.06l-1.59-6.52q-.79-3.27-1.56-6.53l-.2-.79-.21-.89,0-.09,0,0a.11.11,0,0,1,0-.06l.06,0,.06,0,.06,0,.07,0,.06.06.05.07,0,.06.22.89Zm8.35-1.57,0,0,.06.07a.15.15,0,0,1,0,.06l0,0v.08a.64.64,0,0,1,0,.07l-.05,0-.06,0h-.06l-.07,0-.29-.08-.28-.05-.45-.06-.44,0H276c-.45,0-.9,0-1.34.06l-2.31.06c-.77,0-1.54,0-2.32,0h-.06l-.08-.05-.05,0-.05-.06,0-.06v-.07a.14.14,0,0,1,0-.06l0,0,.05,0h.07l2.31,0,2.28-.09,1.37,0,.79,0,.56,0,.75,0a5.36,5.36,0,0,1,.78.15l0,0Zm.53,6.39.07,0,.05,0,.06,0,.05.07,0,0v0s0,.05,0,.06a.16.16,0,0,1,0,.06l0,.05-.06,0h-.08l-.47,0-.37,0-1-.08c-.06,0-.44,0-1.15-.07l-.6,0-.54,0-.31,0-.3,0-.64.06-.63,0c-.36,0-.65,0-.87,0h-.93l-.07,0-.06,0-.06,0a.15.15,0,0,1,0-.06s0-.05,0-.07a.11.11,0,0,1,0-.08.06.06,0,0,1,0,0l0-.06a.07.07,0,0,1,.06,0,.09.09,0,0,1,.06,0h.92l.86,0,.62,0,.61-.07.31,0,.33,0h1.18l.48,0,.52,0,1,.08C278.69,357.17,279,357.2,279.38,357.23Zm3.25,6.56a.08.08,0,0,1,.07,0l.05,0s.06,0,.06.06,0,0,0,.06V364s0,0,0,.06l0,0-.06,0s0,0-.06,0h-.06l-.24,0h-.22l-.32,0-.34,0c-.53.06-1.06.12-1.58.2l-1.56.23c-.81.14-1.62.26-2.43.37l-2.45.34h-.08a.11.11,0,0,1-.07,0l-.06,0-.05-.06a.16.16,0,0,1,0-.07v-.06a.18.18,0,0,0,0-.06.16.16,0,0,0,0-.06s0,0,.06,0,0,0,.06,0l2.44-.35,2.43-.37,1.55-.22c.53-.08,1.05-.15,1.58-.21.2,0,.39,0,.57,0l.26,0,.33,0h.06Z"/><path d="M284.71,365.21s0,.05,0,.06a.08.08,0,0,1,0,.07l0,0-.05,0h-.15l-.08,0-.05,0a.1.1,0,0,1,0-.07.07.07,0,0,1,0-.06l-.47-1.67-.48-1.69-.63-2.24-.64-2.25c-.32-1.09-.63-2.17-.93-3.26l-.93-3.28,0-.06,0-.06a.14.14,0,0,1,0-.07s.05,0,.06,0h.12l.07,0a.13.13,0,0,1,.06.07l.06.06v.06c.32,1.09.64,2.17,1,3.26l.93,3.28.63,2.25.64,2.24.21.75c.08.25.16.5.23.75l.27.94Zm-.68-6.57q1,.5,2,.9t2,.69l.66.17.65.17.44.1a2.92,2.92,0,0,1,.46.13l.51.19.51.21a8.88,8.88,0,0,1,1.55,1,8.66,8.66,0,0,1,1.3,1.27,8,8,0,0,1,.51.72c.16.23.32.48.47.73a.05.05,0,0,1,0,0v0a.08.08,0,0,1,0,.07.08.08,0,0,0,0,.06l0,0a.08.08,0,0,1-.06,0h-.13l-.08,0-.06,0,0-.07-.46-.69a7,7,0,0,0-.46-.65,8.5,8.5,0,0,0-1.21-1.19,7.75,7.75,0,0,0-1.42-.9l-.59-.26-.59-.19-.3-.08-.34-.06-.67-.17c-.22-.07-.44-.14-.65-.19-.38-.11-.75-.23-1.13-.36l-1.09-.4c-.5-.2-1-.41-1.46-.65s-.93-.49-1.4-.75a.34.34,0,0,0,0-.11s0-.07,0-.1l.83,0s.4,0,1.08-.08l.6-.05.83,0,1.28-.1,1.25-.1c.3,0,.6-.08.9-.1a1.93,1.93,0,0,0,.82-.25.84.84,0,0,0,.17-.13l.15-.14a2.12,2.12,0,0,0,.45-1.05,3.9,3.9,0,0,0,0-1.23c0-.14-.05-.28-.07-.42l-.09-.42a1.55,1.55,0,0,0-.19-.46c-.09-.15-.18-.3-.28-.44a2.83,2.83,0,0,0-.83-.71,5.69,5.69,0,0,0-.94-.5c-.19-.07-.36-.14-.53-.19a5.44,5.44,0,0,0-.54-.15l-.79-.15q-.37-.08-.78-.12c-.54-.07-1.09-.13-1.63-.17s-1.07,0-1.62,0l-1.18,0-1.26.13h-.06l-.07,0-.05,0a.1.1,0,0,1-.05,0,.35.35,0,0,1-.05-.08v0l0,0a.2.2,0,0,1,0-.07l0,0a.11.11,0,0,1,.05,0,.06.06,0,0,1,0,0l1.28-.13c.27,0,.67-.05,1.2-.06h.41c.41,0,.82,0,1.22,0,.55,0,1.1.08,1.67.15l.8.12.81.17.57.17c.19.06.39.12.57.19l.51.23.48.27a3.76,3.76,0,0,1,.77.61,3.29,3.29,0,0,1,.59.77,3.37,3.37,0,0,1,.17.32,2.19,2.19,0,0,1,.12.33,10.39,10.39,0,0,1,.21,1.57,2.7,2.7,0,0,1-.27,1.44,2.39,2.39,0,0,1-.13.21l-.15.19a1.85,1.85,0,0,1-.53.4,2.33,2.33,0,0,1-.69.23l-.51,0-.53.06-1.28.1-1.28.1-1.18.08Z"/><path d="M292.69,353.86l.06,0,.09,0,.05,0,.08,0s0,0,0,.07l0,.06.11.33a2.11,2.11,0,0,1,.09.36l-.43,0v0l-.1-.32-.09-.33a.06.06,0,0,1,0-.06s0,0,0-.07l0,0Zm.53.86v0l0,0v0a.08.08,0,0,1,0,.07s0,0,0,.06l0,0a.06.06,0,0,1-.05,0l-.06,0a.15.15,0,0,1-.09,0,.06.06,0,0,1,0,0,.16.16,0,0,1-.08-.06.21.21,0,0,1,0-.06l0-.07,0,0v-.08s0-.07,0-.07l.11,0A1.11,1.11,0,0,0,293.22,354.72Zm2.32,6.89v.06a.08.08,0,0,0,0,.06l0,0-.06,0h-.06s-.06,0-.07,0a.11.11,0,0,1-.08,0,.33.33,0,0,1-.06-.06.09.09,0,0,1,0-.06l0-.05v0a.39.39,0,0,0,0-.14.59.59,0,0,1,0-.13l-.06-.19a.8.8,0,0,0,0-.18l-.06-.28c0-.09,0-.19-.05-.27l0-.06a.08.08,0,0,1,0-.06l0-.05.06,0h.15a.1.1,0,0,0,.05,0,.31.31,0,0,1,.09.07l0,.06v.06a1,1,0,0,0,.07.28,1.68,1.68,0,0,0,.06.27c0,.05,0,.12,0,.19a1.49,1.49,0,0,0,0,.18l0,.05,0,.06a.11.11,0,0,0,0,.08Z"/><path d="M215.83,384.11c0,.22,0,.44-.05.66a8.89,8.89,0,0,1-.26,1.6,7.53,7.53,0,0,1-.62,1.5,4.58,4.58,0,0,1-.56.75,3,3,0,0,1-.75.61,3.16,3.16,0,0,1-.75.33l-.79.26a21.39,21.39,0,0,1-3.92.54c-1.36.06-2.7.08-4,.07q0-1.9,0-3.81c0-1.28-.07-2.55-.12-3.82,0-.75-.06-1.51-.07-2.26,0-.34,0-.68,0-1s0-.83,0-1.26.07-.82.11-1.23a4.2,4.2,0,0,1,.32-1.19,8.23,8.23,0,0,1,1.1-.07,7.83,7.83,0,0,1,1.6.17q1.35.3,2.64.63l1.07.34a10.55,10.55,0,0,1,1.07.39l.62.31c.19.12.4.23.59.36a6.64,6.64,0,0,1,.66.49,6.11,6.11,0,0,1,.56.58,5.68,5.68,0,0,1,1.19,2.09,9.1,9.1,0,0,1,.44,2.28v0C215.86,383.65,215.85,383.88,215.83,384.11ZM204.58,390c1.25,0,2.48-.07,3.7-.12a17,17,0,0,0,3.62-.48l.79-.26a3.36,3.36,0,0,0,1.34-.88,6,6,0,0,0,.44-.59,6.89,6.89,0,0,0,.58-1.44,8,8,0,0,0,.27-1.51c0-.22,0-.44,0-.66s0-.43,0-.64,0-.47-.07-.7-.07-.44-.12-.68a6.38,6.38,0,0,0-.47-1.44,5.16,5.16,0,0,0-.84-1.3l-.54-.54a7.54,7.54,0,0,0-.61-.47l-.55-.34-.6-.29c-.33-.14-.67-.26-1-.37l-1.05-.32c-.78-.21-1.59-.4-2.42-.59a8.3,8.3,0,0,0-1.71-.19c-.26,0-.51,0-.75,0,0,.11-.08.21-.11.32s0,.22,0,.33a4.17,4.17,0,0,0-.09.72c0,.23,0,.46-.07.7v2.25c0,.76,0,1.51.07,2.26s.06,1.76.1,2.65,0,1.77.05,2.65V390Z"/><path d="M221,380l.58.05c.1,0,.28,0,.52,0a3.74,3.74,0,0,0,.48,0l.46.07.23,0,.21,0,.23.07.24.08a3.51,3.51,0,0,1,1,.6,5.63,5.63,0,0,1,.79.83l.08.09a.46.46,0,0,1,.05.1,3.87,3.87,0,0,1,.24.37l.21.37c0,.07.06.13.08.19a.6.6,0,0,1,.08.16,3.19,3.19,0,0,1,.19.42c0,.09.08.23.15.41s.15.46.21.62.11.38.19.64a3.63,3.63,0,0,1,.08.45c0,.1.07.36.13.79,0,.18.05.36.07.53a7.81,7.81,0,0,1,0,1.08,3.51,3.51,0,0,1-.47,1.52c-.08.09-.15.19-.22.28a2,2,0,0,1-.31.25,2.37,2.37,0,0,1-1,.38c-.41,0-.8.08-1.18.09a9.12,9.12,0,0,1-2-.26,15.14,15.14,0,0,1-2-.65,14.25,14.25,0,0,1-1.28-.73,6.64,6.64,0,0,1-1.17-.88l-.27-.27a1.44,1.44,0,0,1-.22-.31,1.08,1.08,0,0,1-.16-.3,2.88,2.88,0,0,1-.13-.31,7.52,7.52,0,0,1-.28-1.73V385c0-.63,0-1.25,0-1.87a5.08,5.08,0,0,1,.14-.94,4.76,4.76,0,0,1,.33-.89,3,3,0,0,1,.21-.32,2.13,2.13,0,0,1,.29-.31.67.67,0,0,1,.19-.14l.23-.13.78-.24a6,6,0,0,1,1.55-.13Zm5.39,4.05c-.06-.18-.11-.32-.15-.41l-.16-.39a.7.7,0,0,0-.09-.17.4.4,0,0,0-.08-.16,3.09,3.09,0,0,0-.24-.44,3.18,3.18,0,0,0-.28-.43,3.65,3.65,0,0,0-.72-.75,3.1,3.1,0,0,0-.88-.52.6.6,0,0,0-.19-.06l-.18-.07-.21,0-.21,0c-.49-.06-1-.1-1.47-.13-.24,0-.49,0-.73,0l-.75,0a6.32,6.32,0,0,0-.84.09,2.86,2.86,0,0,0-.77.23l-.17.08a.62.62,0,0,0-.16.1,1,1,0,0,0-.22.24,1.34,1.34,0,0,0-.17.27,3.64,3.64,0,0,0-.41,1.46c0,.51-.06,1-.05,1.52a4,4,0,0,0,0,.49c0,.22,0,.44.05.66a5.9,5.9,0,0,0,.21,1.16c0,.08.07.17.11.26a2,2,0,0,0,.13.25,1.05,1.05,0,0,0,.2.27,2.39,2.39,0,0,1,.22.23,9,9,0,0,0,2.81,1.71,9.2,9.2,0,0,0,3.26.66h.5l.46,0a3.19,3.19,0,0,0,.51-.12,1.37,1.37,0,0,0,.46-.2,1.21,1.21,0,0,0,.24-.21,1.37,1.37,0,0,0,.2-.22,2.86,2.86,0,0,0,.41-1.4,7.85,7.85,0,0,0,0-1c0-.18,0-.35-.07-.51l-.09-.58-.09-.6q-.06-.21-.12-.39t-.12-.39c0-.09,0-.16-.07-.23A.9.9,0,0,0,226.36,384.06Z"/><path d="M228.9,389.48l0,.29a1.26,1.26,0,0,0,0,.27l0,.2,0,.23,0,.06a.21.21,0,0,1,0,.06s0,0,0,0l-.07,0h-.14l-.08,0-.07,0a.11.11,0,0,0,0-.06.09.09,0,0,1,0-.07v-.2l0-.21,0-.29,0-.26a1.44,1.44,0,0,0-.05-.33V389l0-.31c0-.22,0-.44-.07-.66l-.06-.68c0-.3-.05-.6-.09-.89s-.06-.59-.09-.88-.08-.88-.13-1.32-.08-.86-.13-1.3a.14.14,0,0,1,0-.06.11.11,0,0,1,0-.07s0,0,0,0a.09.09,0,0,0,.06,0h.17s0,0,.07,0l0,0a.16.16,0,0,1,0,.06.08.08,0,0,1,0,.06c0,.44.08.87.13,1.3s.08.87.13,1.3.06.6.1.91l.07.88c0,.22.06.44.08.66l.05.68a1.54,1.54,0,0,1,.05.31l0,.31v.19Zm4.21-6-.44,0-.44,0c-.3,0-.6.07-.88.12s-.6.11-.89.18a7.16,7.16,0,0,0-.89.3,4,4,0,0,0-.85.43.66.66,0,0,0-.17.14,1.39,1.39,0,0,0-.21.19l-.05,0-.07,0h-.16s0,0-.05-.05l0-.06a.16.16,0,0,1,0-.06.08.08,0,0,1,0,0v0a.06.06,0,0,0,0-.06l0-.06.24-.21.2-.16a4,4,0,0,1,.9-.47,7.73,7.73,0,0,1,1-.34q.45-.1.93-.18a5.63,5.63,0,0,1,.93-.14h.94l.51.07a4.36,4.36,0,0,1,.52.11,7,7,0,0,1,1.18.44,5.52,5.52,0,0,1,1,.69c.39.36.77.73,1.14,1.12a7.12,7.12,0,0,1,1,1.24l.17.36a1.4,1.4,0,0,1,.14.37,1.88,1.88,0,0,1,.06.31l0,.29c0,.23,0,.41,0,.54s0,.29,0,.53l0,.73-.07.88a.07.07,0,0,0,0,.06l-.05.05-.06,0-.07,0h-.07l-.07,0-.08,0,0-.06v-.06s0-.05,0-.06l.07-.85,0-.72c0-.24,0-.42,0-.54a4.39,4.39,0,0,0,0-.49l0-.27a.7.7,0,0,0-.05-.25,2.07,2.07,0,0,0-.1-.33l-.18-.31a5.55,5.55,0,0,0-.53-.77c-.21-.24-.43-.46-.65-.69l-.42-.39a3.83,3.83,0,0,0-.41-.38,4.13,4.13,0,0,0-1.28-.79,7,7,0,0,0-1.44-.38h-.19Z"/><path d="M239.23,383.53h-.07l-.08,0-.07,0,0-.06a.13.13,0,0,0,0-.07v-.06s0-.05,0-.06a.09.09,0,0,1,0-.06l0,0,.06,0,.66-.12.59-.08,1.19-.16c.4,0,.8-.06,1.21-.07l.65,0,.63.07.47.08.5.11.07,0,.06.06,0,.05a.11.11,0,0,1,0,.08.18.18,0,0,1,0,.06.14.14,0,0,1,0,.06l0,0s-.05,0-.06.05h-.14l-.5-.1a2.85,2.85,0,0,0-.42-.09l-.63-.06-.6,0a7.67,7.67,0,0,0-1.17.08c-.38,0-.75.08-1.13.13l-.3,0-.27,0a1.59,1.59,0,0,1-.34.06A1.61,1.61,0,0,1,239.23,383.53Zm5.73,6.76.14,0a.9.9,0,0,0,.24-.12,1.14,1.14,0,0,0,.19-.19.21.21,0,0,0,.06-.08.21.21,0,0,0,.06-.1.76.76,0,0,0,0-.33,2.38,2.38,0,0,0,0-.36s0,0,0-.06,0-.05,0-.06l0,0a.05.05,0,0,1,.06,0,.08.08,0,0,1,.07,0h.07l.07,0,.06,0,0,.06a.13.13,0,0,1,0,.07l0,.18v.06l0,.15a1.31,1.31,0,0,1-.06.41,2.32,2.32,0,0,1-.18.39,1.05,1.05,0,0,1-.3.25,1.64,1.64,0,0,1-.35.18l-.19,0-.2,0h-.21a2.35,2.35,0,0,1-.6-.07,6.94,6.94,0,0,1-.81-.25,1.25,1.25,0,0,1-.28-.15.78.78,0,0,1-.26-.17l-.26-.18-.21-.21a2.63,2.63,0,0,1-.68-1.31c0-.15-.06-.31-.08-.47a5.59,5.59,0,0,1,0-.91,9.74,9.74,0,0,1,.19-1.45c.09-.46.19-.94.28-1.42,0-.22.07-.41.09-.58s0-.35.05-.56a9.16,9.16,0,0,0,0-1.28,3.78,3.78,0,0,0-.3-1.28,1.92,1.92,0,0,0-.18-.35c-.08-.11-.15-.23-.23-.36a.09.09,0,0,1,0-.06v-.06s0-.05,0-.06a.06.06,0,0,1,0-.06l.07-.05.06,0,0,0h0l.07,0,.07,0a.1.1,0,0,1,0,.06c.1.14.18.27.26.39a2.74,2.74,0,0,1,.21.42,5,5,0,0,1,.34,1.36,12.52,12.52,0,0,1,0,1.37c0,.22,0,.41,0,.58s0,.38-.08.6c-.08.46-.18.93-.29,1.4a11.26,11.26,0,0,0-.19,1.42,1.63,1.63,0,0,0,0,.25.73.73,0,0,0,0,.25,4.38,4.38,0,0,0,.27,1.28,2.08,2.08,0,0,0,.93,1,1.84,1.84,0,0,0,.38.17l.39.15.41.08a2.73,2.73,0,0,0,.41,0s0,0,0,0h0Z"/><path d="M272.44,388.37s0,0,0-.06l0,0a.06.06,0,0,1,.06,0l.07,0h.14l.05.05a.09.09,0,0,1,.07.06l.06.06v.06a.2.2,0,0,0,0,.11s0,.08,0,.12,0,.11,0,.17a.84.84,0,0,0-.05.17.43.43,0,0,1-.05.1s0,.07,0,.12a.85.85,0,0,0-.07.15s0,.09-.08.16l-.23.33a2.66,2.66,0,0,1-.26.31,2.4,2.4,0,0,1-.21.23,2.08,2.08,0,0,1-.21.21,1.46,1.46,0,0,1-.28.14l-.3.1-.66.12-.67.06c-.61,0-1.21.05-1.81,0h-.19c-.66,0-1.33-.06-2-.12a14,14,0,0,1-1.73-.3,4.15,4.15,0,0,1-1.6-.72,4.1,4.1,0,0,1-1-1.09,7.88,7.88,0,0,1-.69-1.22c-.19-.5-.35-1-.49-1.48,0-.19-.09-.39-.13-.58a6.42,6.42,0,0,1-.09-.87l0-.42c0-.13,0-.27,0-.39a7.08,7.08,0,0,1,.2-1,4.26,4.26,0,0,1,.41-.95,6.23,6.23,0,0,1,.78-1.07,3.65,3.65,0,0,1,1.1-.78c.18-.08.37-.16.57-.23a2.25,2.25,0,0,1,.64-.1l.16,0a3.8,3.8,0,0,1,.46.05,5.59,5.59,0,0,1,.59.11,16.33,16.33,0,0,1,3,1l2.87,1.35.06,0,.06.06v.07a.08.08,0,0,1,0,.08.15.15,0,0,1,0,.06l0,0s0,0-.06,0h-.13s-.06,0-.08,0l-2.8-1.32a15.17,15.17,0,0,0-2.89-1l-.54-.11a3.25,3.25,0,0,0-.53,0,2.34,2.34,0,0,0-.55.1l-.51.18a3.14,3.14,0,0,0-1.36,1.22c-.31.48-.5.81-.59,1l0,.1a.38.38,0,0,0,0,.13,3.11,3.11,0,0,0-.22.91,8,8,0,0,0,0,1,8.66,8.66,0,0,0,.24,1.41,13.34,13.34,0,0,0,.45,1.4,12.35,12.35,0,0,0,.61,1.12,3.84,3.84,0,0,0,.93,1,2.58,2.58,0,0,0,.53.32c.19.08.37.15.56.21a4.78,4.78,0,0,0,1,.23l1,.16c.65.06,1.3.09,1.95.1l1.92,0,.64-.08a2.43,2.43,0,0,0,.6-.1,1.33,1.33,0,0,0,.28-.1.51.51,0,0,0,.25-.14,3.5,3.5,0,0,0,.39-.46,3.72,3.72,0,0,0,.34-.47l.09-.12a.85.85,0,0,1,.07-.15.13.13,0,0,0,0-.1.58.58,0,0,0,0-.09.28.28,0,0,0,0-.08.13.13,0,0,0,0-.08.81.81,0,0,0,0-.11.17.17,0,0,1,0-.1v-.06Z"/><path d="M275,380.51l1.65-.05h.25a9.19,9.19,0,0,1,1.45.13c.17,0,.35.08.53.13a2.45,2.45,0,0,1,.49.23l.26.21.24.26a7.82,7.82,0,0,1,.76,1.08c.23.38.44.75.63,1.13s.38.77.45.94a7.12,7.12,0,0,1,.3.65,8.31,8.31,0,0,1,.5,1.37l.05.21a2.78,2.78,0,0,1-.05,1.52,2.85,2.85,0,0,1-.17.35l-.23.31-.31.25a2.88,2.88,0,0,1-.34.23l-.57.24-.64.16-.83.16-.84.12a7.87,7.87,0,0,1-.84,0l-.21,0a5.26,5.26,0,0,1-.67-.07,4.21,4.21,0,0,1-.49-.09,2.84,2.84,0,0,1-.49-.17,2.31,2.31,0,0,1-.81-.65,8.51,8.51,0,0,1-.56-.81c0-.06-.08-.11-.1-.15l-.09-.17a2.12,2.12,0,0,1-.11-.21l-.1-.2a1.94,1.94,0,0,1-.13-.3,1.48,1.48,0,0,1-.15-.31c-.27-.67-.53-1.34-.78-2a6.45,6.45,0,0,1-.28-.92,7.19,7.19,0,0,1-.16-1.12c0-.15,0-.3,0-.46a2.47,2.47,0,0,1,.08-.43,2,2,0,0,1,.45-.85,1.88,1.88,0,0,1,.83-.56c.18,0,.37-.1.58-.14Zm.13.44a3.49,3.49,0,0,0-1,.2,1.6,1.6,0,0,0-.72.54,1.15,1.15,0,0,0-.14.2c0,.07-.05.15-.08.23a1.52,1.52,0,0,0-.1.46,4.07,4.07,0,0,0,0,.5,7.35,7.35,0,0,0,.17,1.1,7,7,0,0,0,.24.87c.24.66.5,1.3.77,1.94a1.55,1.55,0,0,0,.14.29c0,.1.07.2.11.29a.72.72,0,0,1,.11.19,2,2,0,0,1,.1.21.4.4,0,0,1,.1.15l.08.14a4.07,4.07,0,0,0,.33.48,2.05,2.05,0,0,0,.35.44,1.93,1.93,0,0,0,.21.17,1.2,1.2,0,0,0,.24.15l.39.15a2.63,2.63,0,0,0,.39.06,4.28,4.28,0,0,0,.6.05h.21l.77,0,.81-.11.81-.16.65-.19a2.11,2.11,0,0,0,.59-.26.91.91,0,0,0,.23-.15l.18-.18a2.19,2.19,0,0,0,.2-.25,1.85,1.85,0,0,0,.13-.29,2.41,2.41,0,0,0,.07-1.39l0-.11a7,7,0,0,0-.48-1.33,7.12,7.12,0,0,0-.3-.65l-.44-.92c-.18-.35-.38-.7-.59-1.06a6,6,0,0,0-.73-1.05l-.15-.17a.74.74,0,0,0-.2-.16l-.14-.09-.13-.06-.27-.07a2,2,0,0,0-.26-.06,8,8,0,0,0-1.47-.13h-.43Zm11.51,9.65.08,0,.07,0,.07.07s0,0,0,.06v.06s0,.05,0,.06l0,.07,0,0-.07,0h-.07l-.37-.07a1.59,1.59,0,0,1-.35-.08,3.64,3.64,0,0,1-1.12-.6,6.13,6.13,0,0,1-.9-.86c-.13-.16-.24-.32-.36-.48a3,3,0,0,1-.31-.48c-.11-.17-.19-.31-.26-.44l-.25-.46c-.21-.37-.42-.75-.62-1.13l-.59-1.12v0l0-.07,0,0a.06.06,0,0,1,0-.06l.06,0,.06,0,.08,0,.07,0,.09.06s0,0,0,.05l0,.08c.2.35.4.7.6,1.07s.38.72.59,1.08c.09.17.16.32.23.44l.25.44c.1.15.2.31.31.46a5.36,5.36,0,0,0,.32.44,7.88,7.88,0,0,0,.72.69,3.23,3.23,0,0,0,.89.51l.25.08.28.07h.07Z"/><path d="M291.49,390.72h.07l.08,0,.08.05.06,0a.22.22,0,0,0,.05.08v0l0,.05a.06.06,0,0,0,0,.06s0,0,0,0l0,0-.07,0h-.42a1.67,1.67,0,0,1-.42-.07,2.58,2.58,0,0,1-1.31-.88,7.7,7.7,0,0,1-.81-1.24,1.91,1.91,0,0,1-.13-.31,3,3,0,0,1-.14-.36,20.58,20.58,0,0,1-.71-2.23c-.17-.74-.34-1.48-.52-2.23L287,383c-.07-.25-.12-.48-.16-.69-.11-.39-.22-.77-.34-1.15s-.25-.83-.44-1.41c-.25-.8-.45-1.37-.6-1.72s-.38-.95-.71-1.77v0l0-.07a.18.18,0,0,1,0-.06l0,0,0,0,.06,0h.09l.07,0,.06,0,.05,0s0,.05,0,.07q.4.93.6,1.44c.14.32.27.69.42,1.1.05.14.1.3.15.46s.12.34.19.55l.44,1.42.32,1.17.19.68q.09.38.21.84c.18.75.36,1.5.55,2.23a17,17,0,0,0,.68,2.22,1.11,1.11,0,0,1,.07.16,1.22,1.22,0,0,1,.07.17l.12.27a1.76,1.76,0,0,1,.14.27,6.5,6.5,0,0,0,.59.84,1.88,1.88,0,0,0,.86.63l.23.07.22,0h.28Z"/><path d="M296.94,390.77H297a.11.11,0,0,1,.08,0l.08,0,.06,0a.2.2,0,0,0,0,.09v0l0,0,0,.06s0,0,0,0l0,0-.07,0h-.42a1.64,1.64,0,0,1-.42-.06,2.66,2.66,0,0,1-1.32-.89,7.25,7.25,0,0,1-.83-1.24,2.23,2.23,0,0,1-.14-.31q-.06-.12-.15-.36a20.08,20.08,0,0,1-.74-2.23c-.19-.74-.38-1.49-.56-2.24l-.25-.83q-.1-.37-.18-.69c-.11-.39-.23-.78-.35-1.15s-.26-.84-.46-1.42c-.27-.8-.48-1.37-.64-1.72l-.74-1.77v-.09s0,0,0-.06l0,0,0,0a.07.07,0,0,1,.06,0h.09a.12.12,0,0,1,.07,0l.06,0,.05,0,.05.06c.27.63.48,1.11.62,1.45s.28.69.44,1.11c.05.14.1.29.15.46l.21.54c.18.58.34,1.06.46,1.42l.34,1.17.21.69c0,.25.13.53.22.84.19.75.38,1.49.58,2.23a17.32,17.32,0,0,0,.72,2.22.56.56,0,0,1,.07.16.85.85,0,0,1,.08.17l.12.27a2.6,2.6,0,0,1,.15.28,7.39,7.39,0,0,0,.6.83,1.91,1.91,0,0,0,.87.64.86.86,0,0,0,.23.06l.23,0h.28Z"/><path d="M205.08,415.43v.06l-.05.06-.08,0a.06.06,0,0,1,0,0h-.18a.29.29,0,0,0-.08,0l0,0,0-.06v-.07a8.23,8.23,0,0,1,0-1.19l-.05-.94c-.06-.55-.12-1.09-.21-1.62s-.13-1.07-.2-1.61,0-.87,0-1.31v-.35c0-.33,0-.65,0-1,0-.6.07-1.06.1-1.38s.12-.8.22-1.47a.19.19,0,0,1,0-.08s0,0,0,0l.07,0s0,0,.08,0h.07s.06,0,.08,0a.08.08,0,0,1,.07,0l0,0a.07.07,0,0,1,0,.06v.06c-.08.67-.14,1.17-.19,1.48s-.09.77-.12,1.35,0,.87,0,1.3,0,.87,0,1.29.16,1.07.23,1.6.13,1.07.18,1.6a3.49,3.49,0,0,1,0,.44,3.22,3.22,0,0,1,0,.43v.65C205.08,415,205.08,415.21,205.08,415.43Zm3.47-10.49a1.52,1.52,0,0,0-.37,0,2.71,2.71,0,0,0-.4,0l-.69.12-.66.18c-.22.06-.44.14-.67.22a2,2,0,0,0-.59.32.17.17,0,0,0-.1.08l-.13.1-.05,0-.07,0-.07,0h-.08l-.07,0,0,0a.18.18,0,0,1-.05-.07v-.12a.1.1,0,0,1,.05-.06l.12-.14.15-.1a2.35,2.35,0,0,1,.67-.39l.76-.26.72-.17a5.26,5.26,0,0,1,.71-.12,3.42,3.42,0,0,1,.44,0h.1l.37,0a5.13,5.13,0,0,1,1.84.51,9.6,9.6,0,0,1,1.61,1,2.64,2.64,0,0,1,.43.46,3.4,3.4,0,0,1,.31.5,1.29,1.29,0,0,1,.13.18.6.6,0,0,1,.08.21.44.44,0,0,1,.08.15.39.39,0,0,1,0,.14,1.45,1.45,0,0,1,.06.41v.06c0,.13,0,.24,0,.35s0,.15,0,.23a1.86,1.86,0,0,0-.1.2.14.14,0,0,1,0,.06l-.05,0a.12.12,0,0,1-.07,0,.2.2,0,0,1-.1,0,.13.13,0,0,1-.08,0l-.08,0-.05,0a.14.14,0,0,1,0-.06v-.13a.37.37,0,0,0,.07-.16c0-.07,0-.13.05-.19a1.69,1.69,0,0,0,0-.32,1.26,1.26,0,0,0,0-.33l0-.13-.06-.12a.6.6,0,0,0-.08-.19,1.4,1.4,0,0,0-.1-.16c-.07-.13-.15-.25-.23-.37a3.44,3.44,0,0,0-.28-.36,1.83,1.83,0,0,0-.36-.29l-.48-.29a6.42,6.42,0,0,0-1.07-.57,5.45,5.45,0,0,0-1.2-.32.08.08,0,0,1-.07,0Z"/><path d="M223.66,404.69a.05.05,0,0,1,0-.06l.05,0s0,0,.07,0H224l.08,0,0,.06a.09.09,0,0,1,0,.06s0,0,0,0l0,0v.06c-.12.28-.2.48-.24.59a3,3,0,0,0-.19.53,9,9,0,0,0-.24,1.26c-.05.41-.08.83-.1,1.25s0,.71,0,1.05.05.71.09,1c0,.18.05.37.08.56a3.81,3.81,0,0,1-.18,2.38c-.08.14-.17.28-.26.41a1.61,1.61,0,0,1-.31.39,3.62,3.62,0,0,1-1.7.9,9,9,0,0,1-2.06.29h-.35a10,10,0,0,1-1.62-.14,3.09,3.09,0,0,1-1.69-.84l-.15-.19a.79.79,0,0,1-.14-.18,2.58,2.58,0,0,1-.22-.44c0-.15-.07-.3-.11-.45a3.42,3.42,0,0,1,0-.46v-.08a3.48,3.48,0,0,1,0-.55c0-.17.05-.33.08-.49l.14-.5.12-.65c0-.22.1-.44.16-.66.08-.59.14-1.18.19-1.78a9.76,9.76,0,0,0,0-1.79c-.05-.26-.1-.52-.15-.76s-.13-.5-.2-.75v-.08a.15.15,0,0,1,0-.06.1.1,0,0,1,0-.06s0,0,.07,0l.07,0h.08l.07,0,.08,0,0,.06,0,0c.07.28.14.55.2.81a4.34,4.34,0,0,1,.15.8,8.68,8.68,0,0,1,.07,1.83c0,.61-.11,1.21-.21,1.83,0,.22-.09.44-.15.68s-.08.43-.13.65a1.43,1.43,0,0,0-.08.37,1,1,0,0,0-.09.33,6.2,6.2,0,0,0-.06.62,4.38,4.38,0,0,0,0,.63l.12.39a1.35,1.35,0,0,0,.19.38,2.19,2.19,0,0,0,1.49.94,11.16,11.16,0,0,0,1.94.17,9.52,9.52,0,0,0,1.87-.25,3.33,3.33,0,0,0,1.53-.82,3.92,3.92,0,0,0,.27-.33c.07-.12.14-.24.2-.37a3.68,3.68,0,0,0,.23-.82,3,3,0,0,0,0-.84c0-.18,0-.36-.08-.54s0-.35-.05-.53a6.53,6.53,0,0,1-.09-1.07,9.57,9.57,0,0,1,0-1.07,5.78,5.78,0,0,1,0-.83,8,8,0,0,1,.1-.82,4.68,4.68,0,0,1,.16-.7c0-.22.11-.44.18-.67a3.12,3.12,0,0,1,.15-.39A2.39,2.39,0,0,1,223.66,404.69Z"/><path d="M228,406a1.12,1.12,0,0,0-.22.1l-.21.14a1.18,1.18,0,0,0-.23.27,2.43,2.43,0,0,0-.2.28,1.22,1.22,0,0,0-.07.17,1.89,1.89,0,0,1-.06.18,2,2,0,0,0-.08.54,2.56,2.56,0,0,0,.09.53,3.71,3.71,0,0,0,.29.95,2.38,2.38,0,0,0,.56.85,1.3,1.3,0,0,0,.22.19.91.91,0,0,0,.23.15,3.87,3.87,0,0,0,.55.25,2.28,2.28,0,0,0,.59.11l.45.05.48,0,.79.07.76.07.58.05.56.07a2.3,2.3,0,0,1,.94.38,8.62,8.62,0,0,1,.71.63,8.39,8.39,0,0,1,.61.79,4,4,0,0,1,.46.83,1.08,1.08,0,0,1,.07.27,1.5,1.5,0,0,1,.06.29,1.32,1.32,0,0,1-.21.72,1.65,1.65,0,0,1-.59.55,5.19,5.19,0,0,1-1.64.47c-.61.08-1.2.12-1.8.14h-.28q-.69,0-1.41-.06a8.79,8.79,0,0,1-1.68-.22l-.41-.11a2.74,2.74,0,0,1-.4-.15,3.6,3.6,0,0,1-.82-.44,2.67,2.67,0,0,1-.6-.61,1.73,1.73,0,0,1-.17-.33,2.41,2.41,0,0,1-.15-.33v-.06a.06.06,0,0,1,0-.06.15.15,0,0,1,0-.06l0,0a.08.08,0,0,0,.07,0h.11a.12.12,0,0,1,.07,0l.06,0s.05,0,.05,0l0,.06q.06.15.12.27a1.17,1.17,0,0,0,.15.27,2.11,2.11,0,0,0,.81.69,5.27,5.27,0,0,0,1.07.41,11.18,11.18,0,0,0,1.6.22l1.61,0h.51a3.28,3.28,0,0,0,.48,0,1.34,1.34,0,0,0,.35,0l.36,0a6.57,6.57,0,0,0,.77-.16,3.64,3.64,0,0,0,.72-.26l.12-.08L235,415a.9.9,0,0,0,.25-.31.74.74,0,0,0,.12-.37.57.57,0,0,0,0-.26.77.77,0,0,0-.07-.27,3.33,3.33,0,0,0-.4-.77c-.18-.24-.37-.47-.58-.71l-.08-.06-.06-.08a3.81,3.81,0,0,0-.51-.42,1.77,1.77,0,0,0-.63-.28l-.26,0a.9.9,0,0,0-.22,0l-.31-.05-.33,0-.74-.07-.8-.05-.49-.05-.48-.05a2.09,2.09,0,0,1-.71-.15,2.76,2.76,0,0,1-.68-.3,3.31,3.31,0,0,1-1.36-1.8l-.13-.46c0-.15-.05-.3-.08-.45a2.73,2.73,0,0,1,0-.7,3,3,0,0,1,.23-.66c.07-.12.15-.24.24-.37a1.7,1.7,0,0,1,.3-.3,1.11,1.11,0,0,1,.24-.16l.26-.15a5.84,5.84,0,0,1,1.28-.37,10.69,10.69,0,0,1,1.38-.11l.39,0a8.14,8.14,0,0,1,.87.05c.41,0,.84.09,1.27.16l.76.19a3.56,3.56,0,0,1,.75.3,1.2,1.2,0,0,1,.24.15l.24.18a3.31,3.31,0,0,1,.45.57,2.53,2.53,0,0,1,.26.64,2.16,2.16,0,0,1,0,.25,2.52,2.52,0,0,0,.05.31V408a.09.09,0,0,0,0,.06l-.05,0-.07,0-.08,0-.07,0-.08,0-.08-.05a.09.09,0,0,0,0-.06.07.07,0,0,0,0-.06l0-.29a1.72,1.72,0,0,0,0-.21,2.29,2.29,0,0,0-.59-1,.9.9,0,0,0-.19-.15l-.19-.12a2.69,2.69,0,0,0-.64-.26l-.68-.15a10.93,10.93,0,0,0-1.58-.18,13.43,13.43,0,0,0-1.55,0q-.42,0-.81.12a4.3,4.3,0,0,0-.8.22l0,0Z"/><path d="M239.15,406.09a.68.68,0,0,0-.21.1l-.21.14a1.13,1.13,0,0,0-.22.27c-.07.09-.13.19-.19.28a.58.58,0,0,0-.06.17c0,.07,0,.13,0,.18a2,2,0,0,0-.07.54,2.59,2.59,0,0,0,.11.54,4.09,4.09,0,0,0,.32.95,2.49,2.49,0,0,0,.6.85l.22.19.24.15a5.45,5.45,0,0,0,.55.25,2.93,2.93,0,0,0,.59.11l.46.05.48,0,.79.07.76.07.58.05.56.07a2.39,2.39,0,0,1,1,.38,8.93,8.93,0,0,1,.73.63,8.37,8.37,0,0,1,.63.79,3.55,3.55,0,0,1,.49.83.85.85,0,0,1,.09.27,1.67,1.67,0,0,1,.06.29,1.11,1.11,0,0,1-.18.72,1.61,1.61,0,0,1-.57.56,5,5,0,0,1-1.62.47c-.6.08-1.2.12-1.8.14h-.28q-.69,0-1.41-.06a8.79,8.79,0,0,1-1.68-.22l-.42-.11c-.14-.05-.27-.09-.4-.15a4.19,4.19,0,0,1-.84-.44,3,3,0,0,1-.62-.61,1.35,1.35,0,0,1-.18-.33,2.49,2.49,0,0,1-.16-.33v-.07a.07.07,0,0,1,0-.06.15.15,0,0,1,0-.06l.05,0,.07,0h.11l.07,0,.06,0s0,0,0,.05l0,.06a1.69,1.69,0,0,0,.13.27,1.17,1.17,0,0,0,.15.27,2.33,2.33,0,0,0,.83.69,5.67,5.67,0,0,0,1.09.4,10.07,10.07,0,0,0,1.61.23l1.61,0a4.77,4.77,0,0,1,.51,0,3.38,3.38,0,0,0,.48,0,1.45,1.45,0,0,0,.35,0l.35,0a6.17,6.17,0,0,0,.77-.16,4.3,4.3,0,0,0,.71-.26.33.33,0,0,0,.11-.08l.09-.08a1,1,0,0,0,.24-.31.75.75,0,0,0,.11-.37.77.77,0,0,0,0-.27.92.92,0,0,0-.08-.27,3.48,3.48,0,0,0-.43-.77c-.18-.23-.38-.47-.59-.71l-.09-.06-.06-.08a4.91,4.91,0,0,0-.53-.42,1.81,1.81,0,0,0-.64-.28l-.25,0a1,1,0,0,0-.23,0l-.31-.05-.33,0-.74-.07-.81-.05-.48-.05-.49,0a2.5,2.5,0,0,1-.72-.15,2.76,2.76,0,0,1-.68-.3,3,3,0,0,1-.89-.81,2.94,2.94,0,0,1-.53-1l-.15-.45c0-.15-.07-.31-.1-.46a2.35,2.35,0,0,1,0-.7,3,3,0,0,1,.2-.66c.07-.12.15-.24.24-.37a1,1,0,0,1,.29-.3,1.24,1.24,0,0,1,.23-.17l.25-.14a6.39,6.39,0,0,1,1.27-.38,12.64,12.64,0,0,1,1.37-.11h.4a8.46,8.46,0,0,1,.87.05,11.6,11.6,0,0,1,1.27.16c.26.05.51.12.77.19a3.17,3.17,0,0,1,.76.3,1.58,1.58,0,0,1,.24.15,1.08,1.08,0,0,1,.24.18,2.74,2.74,0,0,1,.47.57,2.3,2.3,0,0,1,.29.64c0,.11.05.19.06.25a3,3,0,0,0,.06.31v.06l0,.06-.05,0a.11.11,0,0,1-.07,0,.15.15,0,0,1-.15,0l-.08,0-.08,0a.06.06,0,0,0,0-.06.09.09,0,0,0,0-.07l0-.29a1.88,1.88,0,0,0-.05-.2,1.91,1.91,0,0,0-.25-.54,2.07,2.07,0,0,0-.38-.46.7.7,0,0,0-.19-.15l-.19-.12a2.76,2.76,0,0,0-.65-.26l-.69-.15a10.93,10.93,0,0,0-1.58-.18,11.51,11.51,0,0,0-1.55,0c-.28,0-.55.07-.8.12a4.3,4.3,0,0,0-.8.22l0,0A.06.06,0,0,0,239.15,406.09Z"/><path d="M248.62,406.56a.11.11,0,0,1,0,.08s0,0,0,0,0,0-.07,0l0,0h-.1l-.08,0-.08,0-.05-.06a.05.05,0,0,1,0,0v-.09l0-.18a.6.6,0,0,1,0-.19l0-.25a1,1,0,0,0,0-.24,2.38,2.38,0,0,1,0-.36,2.23,2.23,0,0,1,0-.37.06.06,0,0,1,0-.06s0-.05,0-.06a.14.14,0,0,1,.07,0,0,0,0,0,1,0,0,.08.08,0,0,1,.07,0h0l.08,0a.19.19,0,0,0,.08,0,.1.1,0,0,0,.05,0,.09.09,0,0,1,0,.07V405a2.31,2.31,0,0,1,0,.37c0,.11,0,.23,0,.35l0,.25a1,1,0,0,0,0,.25v.16a.2.2,0,0,1,0,.11Zm1.37,9.52,0,.06a.15.15,0,0,1,0,.06l-.05,0s0,0-.07,0h-.07s-.07,0-.08,0l-.08,0-.06-.06-.06,0v-.09l0-.56-.09-.62-.21-1.53-.2-1.51-.22-1.59c-.06-.53-.1-1.06-.14-1.59a.2.2,0,0,1,0-.07l0,0a.07.07,0,0,1,.07,0l.07,0,0,0h0a.11.11,0,0,0,.08,0l.05,0s.06,0,.06.06l.06.06v.06c0,.53.07,1.05.14,1.56s.12,1,.19,1.57.15,1,.24,1.51l.21,1.53c0,.11,0,.22,0,.33l0,.31,0,.29Z"/><path d="M253.39,405.8l1.8,0h.27a10.29,10.29,0,0,1,1.55.15,3.9,3.9,0,0,1,.57.13,1.69,1.69,0,0,1,.51.23l.26.21.24.25a7.94,7.94,0,0,1,.7,1.08c.21.38.4.75.57,1.13s.32.77.38.93a5.81,5.81,0,0,1,.26.65,6.5,6.5,0,0,1,.39,1.37l0,.2a2.5,2.5,0,0,1-.22,1.51,2,2,0,0,1-.21.35l-.28.31-.37.24a3.64,3.64,0,0,1-.39.23l-.65.24-.71.15-.91.16-.93.11a6.86,6.86,0,0,1-.91,0l-.22,0a4.62,4.62,0,0,1-.73-.07l-.52-.09a3.39,3.39,0,0,1-.51-.17,2.21,2.21,0,0,1-.8-.65,6.56,6.56,0,0,1-.53-.81l-.1-.15c0-.06-.05-.11-.07-.17a2,2,0,0,1-.11-.2,1.8,1.8,0,0,0-.08-.21c0-.1-.08-.2-.11-.29a1.66,1.66,0,0,1-.12-.31c-.24-.67-.45-1.34-.65-2a5.69,5.69,0,0,1-.2-.91,6.89,6.89,0,0,1-.06-1.11,3.87,3.87,0,0,0,.06-.46,2,2,0,0,1,.14-.43,2.06,2.06,0,0,1,.57-.84,2.4,2.4,0,0,1,1-.55l.64-.14Zm.09.44a4.31,4.31,0,0,0-1.06.2,1.89,1.89,0,0,0-1,.73,2.51,2.51,0,0,0-.11.23,1.62,1.62,0,0,0-.16.45,2.78,2.78,0,0,0-.08.49,6.82,6.82,0,0,0,.06,1.1,6.72,6.72,0,0,0,.18.87c.19.65.4,1.29.63,1.93a1.78,1.78,0,0,0,.12.29l.09.29a.69.69,0,0,1,.1.19,1.8,1.8,0,0,1,.08.21.45.45,0,0,1,.1.14c0,.06.05.1.07.15s.19.32.3.48a2.67,2.67,0,0,0,.34.43,1.2,1.2,0,0,0,.21.17,1,1,0,0,0,.25.15,2.37,2.37,0,0,0,.4.15l.42.07a4.78,4.78,0,0,0,.64,0h.23l.83,0,.9-.12.89-.15c.24,0,.49-.11.73-.18a3.33,3.33,0,0,0,.67-.26,1.48,1.48,0,0,0,.25-.14l.23-.19.23-.24a2.29,2.29,0,0,0,.18-.29,2.24,2.24,0,0,0,.22-1.38l0-.11a5.82,5.82,0,0,0-.38-1.33,6.41,6.41,0,0,0-.26-.64c-.06-.17-.19-.47-.38-.92s-.33-.7-.52-1.06a6,6,0,0,0-.68-1l-.15-.17a.74.74,0,0,0-.2-.16l-.14-.09-.13-.06-.28-.07a2.47,2.47,0,0,0-.29-.06,9,9,0,0,0-1.58-.14h-.47Zm11.46,9.65.08,0,.08,0,.06.07,0,.06v.06a.06.06,0,0,1,0,.06.15.15,0,0,1,0,.06l0,0-.08,0H265a2.57,2.57,0,0,1-.4-.06l-.37-.09a3.47,3.47,0,0,1-1.15-.59,6.63,6.63,0,0,1-.89-.86,5.85,5.85,0,0,0-.34-.48,4,4,0,0,1-.28-.48c-.1-.17-.17-.32-.23-.44l-.23-.46-.55-1.12c-.18-.38-.35-.75-.52-1.13v-.08l0,0a.15.15,0,0,1,0-.06l.07,0,.08,0,.07,0,.08,0a.22.22,0,0,1,.09.07l0,0,0,.08.53,1.06c.16.36.34.72.52,1.08.08.17.14.32.2.44l.23.44c.09.15.19.3.28.46s.19.28.31.44a9.17,9.17,0,0,0,.7.69,3,3,0,0,0,.91.5l.27.09.29.07h.08Z"/><polyline class="cls-8" points="366 727 366 973 99.15 973 89 963 79 952 79 706 336.62 706"/><rect class="cls-9" x="79" y="706" width="257.62" height="246"/><circle class="cls-10" cx="210.77" cy="856.77" r="53.23"/><circle class="cls-11" cx="196.23" cy="849.5" r="53.23"/><path d="M121,769.56h-3.61l-6.18-10v10h-3.43V755h4.48l5.3,8.33V755H121Z"/><path d="M137.52,764.3a5.17,5.17,0,0,1-1.64,4.13,8.82,8.82,0,0,1-9.66,0,5.2,5.2,0,0,1-1.64-4.12V755h3.77v9.08a3.41,3.41,0,0,0,.64,2.25,2.55,2.55,0,0,0,2.06.74,2.62,2.62,0,0,0,2-.71,3.29,3.29,0,0,0,.65-2.28V755h3.77Z"/><path d="M147.7,769.85a9,9,0,0,1-3-.48,6.42,6.42,0,0,1-2.36-1.43,6.35,6.35,0,0,1-1.53-2.36,9.15,9.15,0,0,1-.54-3.27,9,9,0,0,1,.52-3.14,6.64,6.64,0,0,1,1.5-2.41,6.44,6.44,0,0,1,2.35-1.49,8.66,8.66,0,0,1,3.06-.53,11.94,11.94,0,0,1,1.66.1,12.12,12.12,0,0,1,1.36.27,8.25,8.25,0,0,1,1.19.42l.93.42v3.53h-.43c-.18-.16-.41-.34-.69-.56a10.94,10.94,0,0,0-.94-.63,6.4,6.4,0,0,0-1.16-.52,4,4,0,0,0-1.34-.22,4.73,4.73,0,0,0-1.51.25,3.74,3.74,0,0,0-1.31.82,4.05,4.05,0,0,0-.94,1.48,6.31,6.31,0,0,0-.35,2.22,6,6,0,0,0,.38,2.28,4,4,0,0,0,1,1.44,3.65,3.65,0,0,0,1.33.77,4.91,4.91,0,0,0,1.45.22,4.51,4.51,0,0,0,1.35-.2,5.56,5.56,0,0,0,1.24-.55,8.06,8.06,0,0,0,.88-.61c.28-.21.5-.39.68-.55h.39v3.48l-1,.46a10.6,10.6,0,0,1-1,.37c-.48.13-.92.24-1.34.31A10.87,10.87,0,0,1,147.7,769.85Z"/><path d="M166.19,769.56H155.7V755h3.75v11.73h6.74Z"/><path d="M179.06,769.56H168.55V755h10.51v2.82h-6.78v2.51h6.3v2.81h-6.3v3.59h6.78Z"/><path d="M195.75,769.56h-3.88l-1-2.94h-5.38l-1,2.94h-3.78L186.06,755h4.32ZM190,764l-1.79-5.21L186.38,764Z"/><path d="M211.94,769.56h-4.58l-4-5.33h-1.73v5.33h-3.73V755h6.28a14.17,14.17,0,0,1,2.22.15,4.92,4.92,0,0,1,1.74.63,3.77,3.77,0,0,1,1.3,1.27A3.57,3.57,0,0,1,210,759a4.28,4.28,0,0,1-.75,2.62,5.65,5.65,0,0,1-2.13,1.69Zm-5.85-10.08a2,2,0,0,0-.22-.94,1.52,1.52,0,0,0-.78-.62,3.17,3.17,0,0,0-.88-.19c-.34,0-.74,0-1.19,0h-1.35v3.91h1.15a10.57,10.57,0,0,0,1.5-.08,2.28,2.28,0,0,0,1-.4,2.06,2.06,0,0,0,.57-.67A2.26,2.26,0,0,0,206.09,759.48Z"/><path d="M231.1,769.56H220.62V755h3.75v11.73h6.73Z"/><path d="M246.9,769.56H243l-1-2.94h-5.38l-1,2.94h-3.78L237.21,755h4.32Zm-5.79-5.6-1.79-5.21L237.53,764Z"/><path d="M261.82,764.3a5.17,5.17,0,0,1-1.64,4.13,8.82,8.82,0,0,1-9.66,0,5.2,5.2,0,0,1-1.64-4.12V755h3.77v9.08a3.36,3.36,0,0,0,.64,2.25,2.55,2.55,0,0,0,2.06.74,2.62,2.62,0,0,0,2-.71,3.29,3.29,0,0,0,.65-2.28V755h3.77Z"/><path d="M278.65,769.56H275l-6.17-10v10h-3.44V755h4.48l5.3,8.33V755h3.44Z"/><path d="M289,769.85a9,9,0,0,1-3-.48,6.5,6.5,0,0,1-2.36-1.43,6.6,6.6,0,0,1-1.53-2.36,10,10,0,0,1,0-6.41,6.78,6.78,0,0,1,1.5-2.41,6.52,6.52,0,0,1,2.35-1.49,8.7,8.7,0,0,1,3.06-.53,11.84,11.84,0,0,1,1.66.1,12.12,12.12,0,0,1,1.36.27,8.25,8.25,0,0,1,1.19.42l.93.42v3.53h-.43c-.18-.16-.41-.34-.69-.56a9.57,9.57,0,0,0-.94-.63,6.11,6.11,0,0,0-1.16-.52,3.92,3.92,0,0,0-1.34-.22,4.63,4.63,0,0,0-1.5.25,3.69,3.69,0,0,0-1.32.82,3.91,3.91,0,0,0-.93,1.48,7,7,0,0,0,0,4.5,4,4,0,0,0,1,1.44,3.61,3.61,0,0,0,1.32.77,4.91,4.91,0,0,0,1.45.22,4.42,4.42,0,0,0,1.35-.2,5.56,5.56,0,0,0,1.24-.55,8.2,8.2,0,0,0,.89-.61c.27-.21.49-.39.67-.55h.39v3.48l-1,.46a10.8,10.8,0,0,1-1.05.37,13.36,13.36,0,0,1-1.34.31A10.78,10.78,0,0,1,289,769.85Z"/><path d="M310.07,769.56h-3.75v-6.4h-5.54v6.4H297V755h3.75v5.33h5.54V755h3.75Z"/><path class="cls-6" d="M359.92,981,255.8,1016.44c-21.71-26.59-41.93-57-43-98.38l101.28-34.51C318,924.42,341.67,953.54,359.92,981Z"/><path class="cls-7" d="M318,904.39,216.7,938.91c-2.19-3.61-3.19-11.73-3.93-20.85l101.28-34.51C315,893.11,316.3,900.09,318,904.39Z"/><path d="M260.87,937c.1.25.2.5.29.76a13.92,13.92,0,0,1,.55,1.88,9.12,9.12,0,0,1,.14,1.87,4.65,4.65,0,0,1-.17,1,2.9,2.9,0,0,1-.44.9,2.42,2.42,0,0,1-.58.57c-.21.18-.43.35-.65.51a16.89,16.89,0,0,1-3.64,1.72c-1.33.44-2.66.85-4,1.22q-1-2.19-2-4.38c-.7-1.46-1.4-2.91-2.11-4.37-.42-.86-.84-1.73-1.24-2.6-.19-.39-.38-.78-.55-1.18s-.42-1-.62-1.46-.35-1-.52-1.46a5.45,5.45,0,0,1-.28-1.47,6.12,6.12,0,0,1,1.09-.38,7.43,7.43,0,0,1,1.72-.21c1,0,2,0,3,.05l1.26.11a9.61,9.61,0,0,1,1.28.18c.27.06.53.12.79.2l.78.25a8.19,8.19,0,0,1,.91.41,8.44,8.44,0,0,1,.86.51,9.05,9.05,0,0,1,2.24,2.08,14.74,14.74,0,0,1,1.59,2.49v0Zm-8.24,9.8,3.65-1.17a13.93,13.93,0,0,0,3.36-1.56c.23-.17.44-.34.66-.52a2.26,2.26,0,0,0,.55-.61,2.58,2.58,0,0,0,.33-.74,4.22,4.22,0,0,0,.14-.79,8.23,8.23,0,0,0-.15-1.78,12.65,12.65,0,0,0-.5-1.8c-.09-.25-.19-.51-.29-.76s-.2-.49-.28-.73l-.42-.78c-.14-.24-.29-.49-.46-.74a10.15,10.15,0,0,0-1.19-1.53,8.83,8.83,0,0,0-1.51-1.27c-.27-.17-.54-.33-.81-.47a6.53,6.53,0,0,0-.85-.39l-.73-.24c-.23-.07-.48-.13-.75-.19s-.82-.13-1.23-.16l-1.22-.1c-.91,0-1.83-.06-2.77-.05a7.5,7.5,0,0,0-1.85.22c-.26.06-.51.14-.75.21,0,.14,0,.28.05.41l.13.4a7.71,7.71,0,0,0,.27.86c.09.28.19.55.29.83l.65,1.45c.17.38.34.77.52,1.16.4.87.81,1.74,1.24,2.6s1,2,1.47,3,1,2,1.44,3l.54,1.17Z"/><path d="M264.1,931l.59-.09.54-.1a4.55,4.55,0,0,0,.5-.07l.5,0h.25l.21,0a1.24,1.24,0,0,0,.27,0l.27,0a4.53,4.53,0,0,1,1.32.43,8.64,8.64,0,0,1,1.19.73l.11.08a.5.5,0,0,1,.11.1l.41.36.39.36.18.19.16.16a5.66,5.66,0,0,1,.39.42,5.41,5.41,0,0,0,.35.42l.51.64c.13.18.29.4.5.67s.25.38.31.48l.51.84c.12.2.23.39.33.58a9.24,9.24,0,0,1,.52,1.2,4.17,4.17,0,0,1,.29,1.81c0,.12,0,.25-.07.37a1.67,1.67,0,0,1-.18.35,1.82,1.82,0,0,1-.82.7,11.68,11.68,0,0,1-1.11.41,9.22,9.22,0,0,1-2.15.25,14.87,14.87,0,0,1-2.28-.21,15.41,15.41,0,0,1-1.64-.48,8.77,8.77,0,0,1-1.6-.67l-.4-.23a2.63,2.63,0,0,1-.39-.29,2.27,2.27,0,0,1-.31-.31c-.09-.09-.19-.2-.28-.31a12.08,12.08,0,0,1-1.16-1.88l-.08-.16c-.33-.71-.63-1.43-.91-2.13a7.78,7.78,0,0,1-.33-1.11,6.83,6.83,0,0,1-.11-1.09c0-.16,0-.3.05-.43a3.45,3.45,0,0,1,.14-.42.72.72,0,0,1,.12-.21l.17-.2a7.39,7.39,0,0,1,.67-.47,4.83,4.83,0,0,1,1.48-.54Zm7.35,3.21c-.15-.18-.26-.33-.35-.42l-.35-.4a1.36,1.36,0,0,0-.17-.17,1.21,1.21,0,0,0-.16-.16,6.14,6.14,0,0,0-.45-.43,6.26,6.26,0,0,0-.49-.41,6,6,0,0,0-1.08-.66,3.74,3.74,0,0,0-1.13-.37.86.86,0,0,0-.22,0l-.22,0-.22,0h-.23c-.51.06-1,.13-1.53.22-.25,0-.5.09-.74.15s-.51.13-.75.21a4.84,4.84,0,0,0-.79.32,1.93,1.93,0,0,0-.66.45l-.14.13a.39.39,0,0,0-.1.16.75.75,0,0,0-.1.33,1.34,1.34,0,0,0,0,.35,4.91,4.91,0,0,0,.31,1.76c.22.59.46,1.16.72,1.74.07.19.16.37.25.56l.38.73a9.31,9.31,0,0,0,.8,1.24l.24.28.25.24a1.42,1.42,0,0,0,.34.25l.33.2a11.65,11.65,0,0,0,3.65,1.18,9.37,9.37,0,0,0,3.56-.13l.48-.14.44-.17a2.06,2.06,0,0,0,.44-.27.88.88,0,0,0,.35-.34.87.87,0,0,0,.14-.29,1.32,1.32,0,0,0,.08-.3,3.77,3.77,0,0,0-.29-1.66,10.5,10.5,0,0,0-.49-1.08c-.1-.19-.2-.38-.31-.55s-.25-.42-.38-.62l-.38-.65c-.11-.14-.21-.28-.32-.4s-.21-.28-.31-.41l-.17-.24Z"/><path d="M276.75,939.54l.17.31a2,2,0,0,0,.17.29l.12.22.13.25a.12.12,0,0,1,0,.07.15.15,0,0,1,0,.07.14.14,0,0,0,0,.06.13.13,0,0,0-.05.06l-.07,0-.07,0-.09,0-.1,0-.05-.06a.09.09,0,0,1-.06-.06l-.12-.22-.12-.23-.17-.31-.15-.29a2.69,2.69,0,0,0-.21-.35l-.11-.21-.18-.33c-.12-.24-.26-.48-.4-.71s-.26-.51-.39-.74-.35-.65-.53-1-.35-.65-.53-1c-.25-.48-.51-1-.77-1.44s-.5-.93-.76-1.41a.17.17,0,0,1,0-.08.1.1,0,0,1,0-.07l0-.06a.21.21,0,0,0,0-.06h.07l.09,0a.12.12,0,0,0,.09,0l.07,0,.06.06a.17.17,0,0,1,.06.06c.25.48.5,1,.76,1.42s.5.95.76,1.41l.54,1,.51,1c.14.24.28.47.4.71l.39.74a2.66,2.66,0,0,1,.21.33l.17.34.06.11Zm1.19-7.72-.45.08c-.13,0-.27.08-.42.13a7.43,7.43,0,0,0-.82.34q-.4.2-.78.42a6.44,6.44,0,0,0-.74.55,3.13,3.13,0,0,0-.62.69.52.52,0,0,0-.1.2,2,2,0,0,0-.13.26.08.08,0,0,1,0,0,.07.07,0,0,1-.06,0s0,0-.06,0l-.1,0-.07,0-.08-.06a.1.1,0,0,1-.05-.06.07.07,0,0,1-.05,0v0a.11.11,0,0,0,0-.07.15.15,0,0,1,0-.08c.06-.14.11-.23.13-.29a2.17,2.17,0,0,1,.11-.23,3.4,3.4,0,0,1,.67-.75,7.9,7.9,0,0,1,.81-.62,9.19,9.19,0,0,1,.83-.42,4.67,4.67,0,0,1,.85-.38l.45-.11.48-.11a3.29,3.29,0,0,1,.54-.05,5.19,5.19,0,0,1,.56,0,7.83,7.83,0,0,1,1.36.2,8.6,8.6,0,0,1,1.36.51c.55.3,1.11.62,1.65,1a9.78,9.78,0,0,1,1.55,1.13l.35.34a3.38,3.38,0,0,1,.31.37l.21.33.17.31c.12.25.22.44.29.57s.14.32.25.59l.32.8.37,1s0,0,0,.07a.08.08,0,0,1,0,0l0,.06a.07.07,0,0,1-.06,0h-.15l-.09,0-.09-.06,0-.06s0-.05,0-.07l-.34-.94-.32-.79-.27-.59c-.05-.12-.13-.3-.25-.53l-.16-.29A1.92,1.92,0,0,0,285,935l-.26-.33-.32-.3a8.94,8.94,0,0,0-.89-.71c-.32-.21-.64-.41-1-.6l-.59-.33a6.28,6.28,0,0,0-.58-.31,5.33,5.33,0,0,0-1.64-.57,7.37,7.37,0,0,0-1.61-.07l-.09,0Z"/><path d="M284.1,930.43h-.23l-.08,0-.06-.06,0-.05v0a.06.06,0,0,1,0-.07.19.19,0,0,1,0-.08s0,0,0-.05l.05,0,.58-.28.54-.23,1.1-.45c.37-.13.75-.25,1.14-.35l.66-.1a6.27,6.27,0,0,1,.64-.07c.22,0,.38,0,.5,0h.62l.08.06.07,0,.07.08a.64.64,0,0,1,0,.07s0,0,0,.07,0,0,0,.06,0,0,0,.06h-.07l-.07,0h-1c-.21,0-.42,0-.64.07l-.6.11a7.39,7.39,0,0,0-1.1.35l-1,.41L285,930l-.25.11a12.33,12.33,0,0,1-.6.29Zm8.79,6,.11-.07a.54.54,0,0,0,.18-.19,1.17,1.17,0,0,0,.09-.24.22.22,0,0,0,0-.11.24.24,0,0,0,0-.12,1,1,0,0,0-.11-.37c-.06-.12-.12-.24-.2-.37s0,0,0-.07a.11.11,0,0,1,0-.07.08.08,0,0,0,0,0,.06.06,0,0,1,.05-.06s0,0,.05,0h.15l.07,0,.08.06s.06,0,.06.06l.12.19,0,.07.08.15a1.21,1.21,0,0,1,.14.46,1.42,1.42,0,0,1,0,.46,1,1,0,0,1-.16.34,1.66,1.66,0,0,1-.26.28l-.15.08-.18.1-.21.05a3.08,3.08,0,0,1-.61.07c-.3,0-.6,0-.9-.08a1.89,1.89,0,0,1-.34-.09.93.93,0,0,1-.33-.12l-.34-.14-.31-.17a4,4,0,0,1-1.29-1.26c-.1-.15-.2-.32-.3-.49a9.85,9.85,0,0,1-.48-1,15.72,15.72,0,0,1-.5-1.62c-.13-.53-.26-1.07-.4-1.61l-.18-.65c-.07-.18-.15-.39-.22-.62a13.22,13.22,0,0,0-.63-1.39,5.84,5.84,0,0,0-.89-1.33,2.89,2.89,0,0,0-.35-.35l-.38-.33-.06-.06,0-.07s0,0,0-.07a.11.11,0,0,1,0-.07.13.13,0,0,1,.05-.06s0,0,.05,0l0,0h.1l.1,0,.08.06.43.37a5.22,5.22,0,0,1,.4.41,7.37,7.37,0,0,1,1,1.41c.24.49.46,1,.65,1.48l.24.64c.06.2.12.43.2.67.14.53.27,1.06.38,1.59a13.37,13.37,0,0,0,.49,1.6,2,2,0,0,0,.13.26,1.41,1.41,0,0,0,.12.27,6.57,6.57,0,0,0,.89,1.33,3,3,0,0,0,1.4.9,1.72,1.72,0,0,0,.44.09l.45.06h.44l.4-.07s0,0,0,0h0A.26.26,0,0,0,292.89,936.4Z"/><path d="M269.57,979.88a.08.08,0,0,1,0,.08.06.06,0,0,1,0,.07l0,.06-.05.07-.07,0-.08,0-.1,0-.1,0-.06-.06,0-.07c-.12-.19-.22-.37-.31-.53l-.21-.41-.63-1.17-.81-1.48c-.41-.68-.82-1.36-1.24-2s-.85-1.36-1.28-2-.63-1.12-.8-1.42-.39-.71-.7-1.34l-.07-.14c-.31-.64-.57-1.18-.77-1.61s-.39-.89-.59-1.38a9.11,9.11,0,0,1-.37-.87c-.13-.29-.27-.63-.44-1a.12.12,0,0,1,0-.08s0,0,0-.07l.05-.07.06-.07h.15s.05,0,.1,0l.07,0s0,0,.06.06l0,.07c.31.7.56,1.28.75,1.75s.41.91.63,1.37c.1.25.22.51.36.79s.26.59.43.92c.34.69.6,1.18.77,1.48s.42.74.8,1.36.83,1.36,1.25,2,.84,1.35,1.24,2c.14.24.28.48.4.72l.43.73.56,1.09C269.18,979.15,269.38,979.52,269.57,979.88Zm-2.85-16.19a2.62,2.62,0,0,0-.38.09,2.33,2.33,0,0,0-.36.08.69.69,0,0,0-.23.09l-.22.07a3.84,3.84,0,0,1-.4.14,2.48,2.48,0,0,1-.41.15l-.72.24c-.17.05-.41.12-.75.2s-.73.17-.94.2-.58.09-1,.18h-.08l-.08,0-.07,0L261,965l0,0v0a.06.06,0,0,1,0-.07.08.08,0,0,1,0-.09.14.14,0,0,1,0-.06l.06,0,0,0h0c.46-.09.8-.15,1-.17l.91-.22.74-.2.71-.21.38-.14a3.93,3.93,0,0,1,.41-.14l.21-.09.24-.07.39-.12a2.59,2.59,0,0,0,.4-.09,10.11,10.11,0,0,1,1.91-.12,13.33,13.33,0,0,1,2,.21,9.33,9.33,0,0,1,1,.4c.32.15.64.31,1,.5l.47.3.45.31.67.58c.21.2.42.4.61.62s.2.25.29.38.18.29.25.42a6.43,6.43,0,0,1,.69,2,10.26,10.26,0,0,1,.15,2.06,3.33,3.33,0,0,1-.21.63,2.26,2.26,0,0,1-.37.61l-.15.15a.83.83,0,0,1-.18.13,1.74,1.74,0,0,1-.3.2,2.14,2.14,0,0,1-.35.16l-.1,0-.27.08-.31.07-.65.2-.67.21-1.17.36-.42.13c-.51.11-1,.2-1.54.27s-1.05.13-1.59.18h-.39a2.47,2.47,0,0,1-.38,0l-.22,0-.22,0-.2-.05-.18-.07a2.05,2.05,0,0,1-.43-.26,2.81,2.81,0,0,1-.34-.35.91.91,0,0,1-.13-.19l-.1-.21,0-.07a.15.15,0,0,0,0-.08l0-.06a.13.13,0,0,1,.06-.05l.06,0a.21.21,0,0,1,.11,0l.08,0,.09,0a.17.17,0,0,0,.06.06l0,.07.08.16a.38.38,0,0,1,.09.13,1,1,0,0,0,.23.22.87.87,0,0,0,.26.18l.15.06a.38.38,0,0,1,.13,0l.16,0,.19,0h.69l.94-.08.89-.12.58-.1a4.62,4.62,0,0,0,.61-.11,6.59,6.59,0,0,0,.79-.24c.26-.1.52-.19.79-.27l.64-.2.68-.18.25-.08.39-.09.27-.14.24-.15a1.85,1.85,0,0,0,.39-.4,2,2,0,0,0,.25-.5,1.18,1.18,0,0,0,.07-.2.58.58,0,0,0,0-.19V970c0-.15,0-.37-.07-.65a8.51,8.51,0,0,0-.21-1.21,6.22,6.22,0,0,0-.48-1.18,3.13,3.13,0,0,0-.23-.37,2.78,2.78,0,0,0-.26-.34,6.21,6.21,0,0,0-.56-.59l-.62-.51a7.82,7.82,0,0,0-.93-.61,6.27,6.27,0,0,0-1-.51l-.34-.16a1.63,1.63,0,0,0-.37-.13l-.34,0-.33,0c-.46,0-.91-.08-1.37-.09s-.86,0-1.31.07l-.12,0Z"/><path d="M280.49,971.11l0,.06a.19.19,0,0,0,0,.08.15.15,0,0,1-.05.07l0,0-.07,0h0l-.08,0-.1,0-.07,0a.17.17,0,0,1-.06-.06l0-.07a13.65,13.65,0,0,1-.67-1.29l-.61-1c-.37-.57-.75-1.14-1.14-1.69l-1.13-1.69q-.44-.69-.81-1.41l-.2-.38c-.19-.36-.37-.71-.53-1.06-.32-.67-.55-1.18-.7-1.53s-.34-.92-.63-1.68a.19.19,0,0,1,0-.1v0l.05-.07a.09.09,0,0,1,.06,0l.05,0h.11a.12.12,0,0,1,.1,0l.07,0,.06.07,0,.06c.31.76.53,1.32.66,1.67s.36.87.66,1.52c.24.48.48.95.73,1.41l.8,1.4c.39.55.78,1.11,1.15,1.67s.75,1.12,1.11,1.68a4.73,4.73,0,0,1,.28.46c.1.16.2.31.28.46l.12.22.26.49C280.24,970.63,280.36,970.87,280.49,971.11Zm-2.71-12.42a1.17,1.17,0,0,0-.36.11,2.84,2.84,0,0,0-.38.13,5,5,0,0,0-.6.32l-.55.39-.52.44a1.82,1.82,0,0,0-.39.52.24.24,0,0,0-.05.12l-.06.15,0,.06s0,0-.06,0,0,0-.06,0l-.07,0-.1,0-.07,0-.08-.05,0-.07,0-.07a.19.19,0,0,1,0-.08,1.64,1.64,0,0,0,0-.19.78.78,0,0,1,.08-.16,1.88,1.88,0,0,1,.43-.61l.6-.51c.19-.12.39-.25.59-.4a4.65,4.65,0,0,1,.63-.33,1.86,1.86,0,0,1,.41-.17l.1,0a3,3,0,0,1,.37-.08,5.55,5.55,0,0,1,2.07,0,12.1,12.1,0,0,1,2.11.61,3.36,3.36,0,0,1,.67.37,7,7,0,0,1,.59.44l.23.17a1.8,1.8,0,0,1,.19.2l.16.13.11.15a3.52,3.52,0,0,1,.29.42l0,.07c.07.13.13.26.18.38s0,.16.09.26,0,.16,0,.24a.15.15,0,0,1,0,.08l0,.06-.06,0-.08,0h-.09l-.1,0-.07,0-.06,0,0-.07,0-.07a.63.63,0,0,0,0-.19l-.06-.22c0-.12-.11-.24-.17-.36a2.52,2.52,0,0,0-.24-.33.64.64,0,0,0-.1-.13l-.12-.12-.18-.18-.2-.14-.43-.34-.48-.3a2.24,2.24,0,0,0-.5-.21l-.63-.18a7.23,7.23,0,0,0-1.36-.31,5,5,0,0,0-1.34,0,.08.08,0,0,1-.08,0Z"/><path d="M299.08,962.11a.14.14,0,0,0,0-.07s0-.06,0-.08l.05-.06a.09.09,0,0,1,.06,0l.07,0h.09l.09,0,.09,0,.06.06,0,.06q.08.21.12.39a1.59,1.59,0,0,1,.07.38,2.3,2.3,0,0,1,0,.79,2.5,2.5,0,0,1-.28.7l-.19.26a1.88,1.88,0,0,1-.25.24,1.93,1.93,0,0,1-.3.27,2.33,2.33,0,0,1-.35.22,3.65,3.65,0,0,1-.44.26l-.47.26c-.71.34-1.43.67-2.16,1s-1.5.58-2.28.85l-.09,0-.36.08c-.15,0-.31,0-.48.06a3.83,3.83,0,0,1-1.11-.1,3.71,3.71,0,0,1-1-.46,3.64,3.64,0,0,1-.49-.36l-.47-.42-.4-.44c-.12-.15-.24-.31-.34-.46a9.34,9.34,0,0,1-.58-.82c-.16-.28-.33-.55-.5-.83-.27-.44-.53-.89-.79-1.35l-.29-.52a10.7,10.7,0,0,1-.81-1.93,1.49,1.49,0,0,1,.22-1.31,4.67,4.67,0,0,1,.9-1,.42.42,0,0,0,.13-.11l.15-.09a15.84,15.84,0,0,1,2.1-1.27,11.6,11.6,0,0,1,1.9-.7l.52-.14a5.92,5.92,0,0,1,1.34-.12,4,4,0,0,1,1.4.22,3,3,0,0,1,.35.13,1.91,1.91,0,0,1,.32.16c.23.14.37.21.41.23l.2.15.56.42.55.47.61.56a3.3,3.3,0,0,1,.49.64.93.93,0,0,1,.13.31.5.5,0,0,1,0,.32s-.05.1-.08.14l-.14.14a1.12,1.12,0,0,1-.2.18l-.24.17a27,27,0,0,1-4,2.08c-1.4.62-2.8,1.23-4.17,1.85l-.08,0h-.08l-.1,0-.06-.06a.09.09,0,0,1-.06-.06.05.05,0,0,1,0-.06.17.17,0,0,1,0-.08s0,0,0,0a.14.14,0,0,0,0-.06l.06,0,4.15-1.85a26.38,26.38,0,0,0,3.92-2.06l.23-.14a1.37,1.37,0,0,0,.17-.17l.08,0,0-.08h0v0a.42.42,0,0,0-.06-.14.35.35,0,0,0-.05-.13,4.47,4.47,0,0,0-.46-.55,6.36,6.36,0,0,0-.53-.5l-.53-.43-.54-.4a1.13,1.13,0,0,0-.16-.13,2.2,2.2,0,0,0-.34-.21,1.9,1.9,0,0,0-.38-.17,2.29,2.29,0,0,0-.37-.12,4,4,0,0,0-1.12-.12,6.16,6.16,0,0,0-1.09.12,9.74,9.74,0,0,0-2.33.82,14.23,14.23,0,0,0-2,1.2,7.93,7.93,0,0,0-.86.8,1.39,1.39,0,0,0-.45,1,2.31,2.31,0,0,0,.09.46c.07.15.12.29.17.43s.14.32.24.54.18.38.24.52c.23.44.41.77.53,1s.34.55.6,1,.55.85.81,1.27a8.08,8.08,0,0,0,1,1.19,8.78,8.78,0,0,0,.93.72,2.6,2.6,0,0,0,1.12.4l.47,0,.42-.05.1,0,.07,0a5.66,5.66,0,0,0,.8-.26l.93-.35c.6-.25,1.18-.49,1.74-.74s.94-.42,1.14-.53l.46-.23.42-.25.3-.21a1.64,1.64,0,0,0,.28-.23,2,2,0,0,0,.47-.64,1.7,1.7,0,0,0,.19-.78,1.94,1.94,0,0,0,0-.34c0-.11-.06-.23-.09-.35a.3.3,0,0,0,0-.11A.83.83,0,0,0,299.08,962.11Z"/><path d="M299,953.83a.75.75,0,0,0-.15.16l-.12.21a1,1,0,0,0-.07.34,2.19,2.19,0,0,0,0,.36.58.58,0,0,0,0,.19,1.12,1.12,0,0,0,0,.21,2.63,2.63,0,0,0,.22.59,4.45,4.45,0,0,0,.38.54,6.2,6.2,0,0,0,.8.92,3.87,3.87,0,0,0,1,.74l.31.14.3.09a5,5,0,0,0,.66.11,2.47,2.47,0,0,0,.61,0l.46-.08a4.8,4.8,0,0,1,.47-.1c.44-.09.7-.14.77-.14s.32-.07.76-.14l.57-.11.57-.08a2.58,2.58,0,0,1,1.09.15,10.2,10.2,0,0,1,1,.45c.35.22.69.43,1,.66a5.77,5.77,0,0,1,.89.73,1.6,1.6,0,0,1,.22.26,2.55,2.55,0,0,1,.21.28,1.45,1.45,0,0,1,.21.81,1.35,1.35,0,0,1-.24.72,3.82,3.82,0,0,1-1.27,1,15.76,15.76,0,0,1-1.6.65l-.27.08q-.65.18-1.35.33a7.83,7.83,0,0,1-1.7.24h-.45a3.14,3.14,0,0,1-.45,0,4.14,4.14,0,0,1-1-.23,3.83,3.83,0,0,1-.9-.46,2.86,2.86,0,0,1-.36-.3c-.11-.1-.22-.2-.32-.31l0,0v0s0,0,0-.07a.19.19,0,0,1,0-.08s0,0,0,0,.06,0,.06,0l.1,0h.08l.08,0s.06,0,.07,0l.07,0,.26.25a2.17,2.17,0,0,0,.29.24,3,3,0,0,0,1.15.49,5.22,5.22,0,0,0,1.24.12,10.51,10.51,0,0,0,1.63-.21l1.53-.41.46-.16a2.93,2.93,0,0,0,.44-.17,1.23,1.23,0,0,0,.31-.14l.31-.13a4.78,4.78,0,0,0,.63-.38,3,3,0,0,0,.53-.47.36.36,0,0,0,.06-.11,1.17,1.17,0,0,1,.05-.11.89.89,0,0,0,.06-.39.83.83,0,0,0-.1-.41,1,1,0,0,0-.17-.27,1.12,1.12,0,0,0-.22-.26,5.45,5.45,0,0,0-.8-.69c-.3-.19-.6-.38-.93-.57l-.11-.05-.1-.07c-.22-.1-.46-.2-.72-.29a2,2,0,0,0-.74-.12l-.25.05-.23,0-.31,0-.33.07-.73.12-.79.17-.48.09-.48.08a2.4,2.4,0,0,1-.76,0,3.26,3.26,0,0,1-.8-.13,4.26,4.26,0,0,1-1.27-.61,4.74,4.74,0,0,1-1-.91l-.38-.45-.33-.45a4,4,0,0,1-.39-.74,3.52,3.52,0,0,1-.15-.76l0-.45a1.07,1.07,0,0,1,.12-.41,1,1,0,0,1,.13-.23l.17-.22a4.61,4.61,0,0,1,1-.74,9,9,0,0,1,1.25-.48l.36-.12A6.44,6.44,0,0,1,302,952c.41-.07.84-.13,1.29-.17.27,0,.55,0,.83,0a4.14,4.14,0,0,1,.86.12,1.58,1.58,0,0,1,.31.09l.32.13a4.46,4.46,0,0,1,.74.47,4.76,4.76,0,0,1,.59.6,1.57,1.57,0,0,1,.18.25l.22.31,0,.06a.16.16,0,0,0,0,.07.14.14,0,0,0,0,.06l-.06,0-.06,0a.11.11,0,0,1-.08,0H307l-.09,0a.13.13,0,0,0-.07-.06l-.06-.05-.18-.3-.16-.2a3,3,0,0,0-.51-.5,2.83,2.83,0,0,0-.59-.38,1.19,1.19,0,0,0-.26-.11l-.24-.08a4.07,4.07,0,0,0-.75-.1l-.72,0a9.5,9.5,0,0,0-1.59.23,10.19,10.19,0,0,0-1.45.46,5,5,0,0,0-.7.34,3.29,3.29,0,0,0-.64.44.14.14,0,0,0,0,.06S299,953.81,299,953.83Z"/><path d="M309.69,951a.52.52,0,0,0-.14.16,1.51,1.51,0,0,0-.12.2,1,1,0,0,0-.06.33,2.16,2.16,0,0,0,0,.35.53.53,0,0,0,0,.18,1.12,1.12,0,0,0,0,.21,2.83,2.83,0,0,0,.23.57,6.55,6.55,0,0,0,.39.53,6.91,6.91,0,0,0,.83.9,3.88,3.88,0,0,0,1,.73l.31.14.3.08a3.82,3.82,0,0,0,.66.12,3.08,3.08,0,0,0,.61,0l.45-.08.47-.1c.44-.08.7-.13.77-.13l.75-.13.57-.1a4.76,4.76,0,0,1,.56-.07,2.42,2.42,0,0,1,1.09.14,9.28,9.28,0,0,1,1,.45c.36.21.7.42,1,.64a6.46,6.46,0,0,1,.9.72,1.69,1.69,0,0,1,.23.25,1.86,1.86,0,0,1,.21.28,1.38,1.38,0,0,1,.23.78,1.24,1.24,0,0,1-.22.71,3.73,3.73,0,0,1-1.24.91,16.24,16.24,0,0,1-1.58.63l-.27.07c-.43.12-.87.23-1.34.32a7.57,7.57,0,0,1-1.68.23h-.45a3.42,3.42,0,0,1-.46,0,4.68,4.68,0,0,1-1-.23,4.35,4.35,0,0,1-.92-.45,2.62,2.62,0,0,1-.35-.3,3.17,3.17,0,0,1-.34-.3l0,0,0,0a.06.06,0,0,1,0-.07.16.16,0,0,1,0-.07.14.14,0,0,0,0-.06s.06,0,.06,0l.1,0h.08l.08,0a.1.1,0,0,1,.07,0l.07.06.26.24a2.92,2.92,0,0,0,1.46.72,5.7,5.7,0,0,0,1.23.12,9.2,9.2,0,0,0,1.62-.2l1.52-.39a3.28,3.28,0,0,1,.46-.15,2.83,2.83,0,0,0,.42-.17,1.07,1.07,0,0,0,.31-.13l.3-.13a3.86,3.86,0,0,0,.63-.37,2.74,2.74,0,0,0,.51-.45.36.36,0,0,0,.06-.11.49.49,0,0,0,0-.11.8.8,0,0,0,.06-.37,1,1,0,0,0-.11-.41,1.2,1.2,0,0,0-.18-.26A1.07,1.07,0,0,0,321,957a5,5,0,0,0-.82-.67c-.29-.2-.61-.38-.94-.57l-.11,0-.1-.07c-.22-.1-.46-.2-.72-.29a2,2,0,0,0-.74-.12l-.25,0a1.29,1.29,0,0,0-.23,0l-.31,0-.32.06-.72.12-.79.16-.47.08-.48.08a2.4,2.4,0,0,1-.76,0,3.78,3.78,0,0,1-.8-.12,4.71,4.71,0,0,1-1.28-.61,4.78,4.78,0,0,1-1-.89l-.38-.43-.34-.45a3.7,3.7,0,0,1-.41-.72,3.39,3.39,0,0,1-.16-.74,3.31,3.31,0,0,1,0-.44,1.12,1.12,0,0,1,.1-.39,1,1,0,0,1,.13-.23l.17-.22a4.31,4.31,0,0,1,1-.71,8.63,8.63,0,0,1,1.23-.46l.36-.12a8.33,8.33,0,0,1,.84-.17c.41-.07.84-.12,1.29-.16h.82a3.56,3.56,0,0,1,.86.11l.3.1a1.2,1.2,0,0,1,.33.13,4.43,4.43,0,0,1,.74.46,3.75,3.75,0,0,1,.61.58l.19.24a3.06,3.06,0,0,0,.23.3l0,.07s0,0,0,.07,0,0,0,0l-.05,0-.06,0h-.17l-.1,0s0,0-.06-.05l-.06-.06-.19-.29-.16-.2a4,4,0,0,0-.52-.49,3.73,3.73,0,0,0-.6-.37,1.17,1.17,0,0,0-.26-.1l-.24-.08a2.87,2.87,0,0,0-.75-.1h-.72a10.75,10.75,0,0,0-1.58.22,8.77,8.77,0,0,0-1.43.44,4.38,4.38,0,0,0-.69.32,4.11,4.11,0,0,0-.63.43.14.14,0,0,1,0,.06Z"/><path class="cls-12" d="M557.63,393.75a25.15,25.15,0,0,1-13.45,3.73c-4.93,0-8.28,0-10-.11s-4.2-.24-7.32-.51a25.2,25.2,0,0,1-7.15-1.45c-1.64-.7-3.71-1.69-6.21-3a15.77,15.77,0,0,1-5.7-4.76c-1.3-1.87-2.78-4.25-4.42-7.15a34.25,34.25,0,0,1-3.66-10.15,146.37,146.37,0,0,1-2.89-30.25V316.88a140.58,140.58,0,0,1,3.06-30.25q2-8.49,8.85-17,3.23-4.15,12.93-7.88,5.45-2.07,18.89-2.07t18.8.52a68,68,0,0,1,11.4,2.17,24.28,24.28,0,0,1,9.78,5,35.86,35.86,0,0,1,7,8.9q6.28,10.58,6.29,33.57v3.94H557.2V274.41H533.38V378.62H557.2V341.54H545.29v-11.4h48.49v64.23H574.21l-4.93-15.75h-1.87Q563.66,390,557.63,393.75Zm91.28.62H604.84V386.5h7.49V270.68h-7.49v-7.87h59.89q17,0,21.27,1a81.23,81.23,0,0,1,8,2.39,17.05,17.05,0,0,1,5.86,3.31,50.53,50.53,0,0,1,4.51,4.87,19.75,19.75,0,0,1,3.58,6.84A63,63,0,0,1,711,301.76q0,18.86-6.47,27.35T686,339.88v4.77h7.65q5.79,0,8,2.59t2.89,9.84l2.9,29.42h9v7.87h-42V350.86H648.91Zm25.52-58.43V277.31H648.91v58.63Zm48.15-65.26v-7.87h76.9L815.14,386.5h7.14v7.87H711.35V386.5h7l14.81-115.82ZM749,275.24V351.9h20.76l-5.62-76.66Zm0,119.13h24l-2.38-31.08H749ZM927.6,360.81q0,12.63-4.94,21.34-2.89,5.39-12.93,9.53A38,38,0,0,1,896,394.16q-8.26.21-15.23.21H824V386.5h7.49V270.68H824v-7.87h55.13q22.29,0,28.92,2.69,10,4.15,12.93,9.53,4.93,8.7,4.94,21.34,0,25.49-24.5,31.29v1.65Q927.59,335.12,927.6,360.81Zm-59.55-86.4v48.48h23V274.41Zm23,107.53V334.29h-23v47.65ZM506.7,503.4V498H518V419.12H506.7v-5.36H636.64V444h-30l-10.53-21.74H573.21v33.31h49v7.77h-49v31.62h22.86l10.53-21.74h30V503.4Zm147.92-84.28v-5.36h96l14.12,34.87h4.88l17.72-34.87H856.2v5.36H844.9V498h11.3v5.37H785.84l28.5-81.17H803.81L763,503.4H729.6l-33.13-81.17H685.94l20.81,81.17H654.62V498h11.3V419.12Zm270.4,7.2q0,17.65-22.09,29.22l-13.1-1.13,3.86-16.51q-8.75,0-12.84-2.4t-4.11-10.17q0-7.75,4.88-10t20.16-2.26q15.27,0,19.26,2.26T925,426.32ZM574.81,587.92a21.33,21.33,0,0,1-3.71,12.72q-2.18,3.21-9.72,5.68a35.19,35.19,0,0,1-10.29,1.48c-4.14.08-8,.12-11.45.12H496.93v-4.69h5.63v-69h-5.63v-4.69h41.43q16.75,0,21.74,1.6,7.54,2.48,9.72,5.68a21.33,21.33,0,0,1,3.71,12.72q0,15.18-18.42,18.64v1Q574.81,572.61,574.81,587.92Zm-44.76-51.48v28.89h17.26V536.44Zm17.26,64.08v-28.4H530.05v28.4Zm110.1-66.3H652L635,589.9v13.33h10.74v4.69H589.13v-4.69h10.74V589.9l-17-55.68h-5.5v-4.69h34l10.48,41.36h7.29V529.53h28.26Zm107.92-4.69v25.68h-15l-3.19-17h-7.29l2.81,20.74v44.32h10.74v4.69h-49v-4.69h10.74V558.91L718,538.17h-7.29L707.54,556h-15V529.53Zm38.24,78.39H770.45v-4.69h5.63v-69h-5.63v-4.69h33.12v36.54h19.18V529.53h33.12v4.69h-5.63v69h5.63v4.69H822.75V572.86H803.57Zm60.61,0v-4.69h5.63v-69h-5.63v-4.69h64.7V556h-15l-5.24-19H897.3v29.13h24.42v6.79H897.3v27.66h11.38l5.24-19h15v26.42ZM569.73,819.34H498.87V808.49H507V648.94h-8.14V638.09H564q19.05,0,23.4,2t8.42,4.28a17.79,17.79,0,0,1,6.38,5.85,99.77,99.77,0,0,1,5,8.85,45.36,45.36,0,0,1,4,12.13q1.3,6.85,2.22,16.13t.93,20.69q0,11.41-.93,20.84t-2.31,16.41A47.14,47.14,0,0,1,607,757.54a98.52,98.52,0,0,1-5,8.85,17.82,17.82,0,0,1-6.39,5.85c-2.71,1.53-5,2.71-6.93,3.57a27.73,27.73,0,0,1-8.05,1.86,158.16,158.16,0,0,1-17.2.85H546.79v30h22.94ZM574.54,758v-99.9H546.79V758Zm94.16,45.1h27.75v-165H736v10.85h-8.15V752.55q0,19.69-2.12,32.11t-4.72,17.84q-2.59,5.43-4.72,9a17.51,17.51,0,0,1-6.1,6,59,59,0,0,1-6.57,3.57,27.42,27.42,0,0,1-7.58,1.71q-46.82,5.43-58.09-14.55-3.88-7.14-6.94-21.13t-3-34.53V648.94h-8.14V638.09H668.7Zm72.88,10.85,5-51.38h23.68L776,799.07h20.54v-21.4L760.08,736a57.69,57.69,0,0,1-12-21.69,92.81,92.81,0,0,1-3.89-27.54q0-15,1.76-23.12a38.92,38.92,0,0,1,5.27-13.42,40.77,40.77,0,0,1,7.59-8.71,26.85,26.85,0,0,1,10-5.13q10.17-2.85,27.56-2.86t39,9.71l-5,51.37H808.92l-5-36.53h-18.5v21.41l36.44,41.67a57.78,57.78,0,0,1,12,21.69,96.61,96.61,0,0,1,3.88,28.55q0,16-2.77,25.26t-6.94,14.41a27.42,27.42,0,0,1-11,8q-10.92,4.58-31.45,4.57T741.58,813.92Zm103.6,0,5-51.38h23.68l5.74,36.53h20.53v-21.4L863.68,736a57.71,57.71,0,0,1-12-21.69,92.81,92.81,0,0,1-3.88-27.54q0-15,1.76-23.12a38.92,38.92,0,0,1,5.27-13.42,41,41,0,0,1,7.58-8.71,26.85,26.85,0,0,1,10-5.13q10.17-2.85,27.57-2.86t39,9.71l-5,51.37H912.52l-5-36.53H889v21.41l36.45,41.67a57.9,57.9,0,0,1,12,21.69,96.59,96.59,0,0,1,3.89,28.55q0,16-2.78,25.26t-6.94,14.41a27.31,27.31,0,0,1-11,8q-10.92,4.58-31.45,4.57T845.18,813.92Z"/><path class="cls-13" d="M586.43,267l-94.54,7.38a6.18,6.18,0,0,1-6.63-5.67l-1-12.51a23.36,23.36,0,0,1,21.4-25L570,227c.48,0,35.62-12.25,37-7l0,28.38C607.56,255,593,266.53,586.43,267Z"/><path class="cls-13" d="M500,329l-4.75,3.38c-5.21.41-5.79-9.86-6.19-15.06L485,265.43a9.52,9.52,0,0,1,8.73-10.21h0A9.53,9.53,0,0,1,503.94,264c5.42,7,5,16,2,25.93l2,25.92C508.4,321,504.74,325.58,500,329Z"/><path class="cls-13" d="M562.4,238.33c-5,.4-10.49.7-16.23,1a1,1,0,0,1-1-.95,1,1,0,0,1,.92-1.05h0c19.5-.95,46.21-2.25,46.7-11.17a1,1,0,0,1,2,.11C594.33,234.09,581.26,236.86,562.4,238.33Z"/><path class="cls-13" d="M572.18,253.68c-11.74.91-27.27-.55-44.29-2.45a1,1,0,1,1,.23-2c26.65,3,51.32,5,60.31-2.5a9.55,9.55,0,0,0,3.53-7,1,1,0,0,1,1.06-.93,1,1,0,0,1,.93,1.07,11.6,11.6,0,0,1-4.24,8.42C585.91,251.46,579.86,253.08,572.18,253.68Z"/><path class="cls-13" d="M490.52,288.23a1.45,1.45,0,0,1-.35,0,1,1,0,0,1-.69-1.23l.26-.94c1.93-6.92,3.92-14.07,2-18.36a1,1,0,1,1,1.83-.8c2.16,4.94.08,12.44-1.94,19.7l-.27.94A1,1,0,0,1,490.52,288.23Z"/><path class="cls-13" d="M498,296.31a1,1,0,0,1-.3,0,1,1,0,0,1-.75-1.19l.28-1.26c2.14-9.39,4.34-19.1,2.52-24.91a1,1,0,0,1,1.9-.6c2,6.32-.27,16.3-2.47,25.95l-.28,1.26A1,1,0,0,1,498,296.31Z"/><rect class="cls-13" x="579.45" y="260.12" width="13" height="40" rx="6" ry="6" transform="translate(-20.02 46.45) rotate(-4.46)"/><path class="cls-14" d="M591,272l-99.37,2.72a6.25,6.25,0,0,1-6.49-6l-.52-12.66a23.59,23.59,0,0,1,22.52-24.47L572,226c.49,0,5.56-1.78,6-2,8-4,25.78-10.19,31-8l-.18,36.67C609.1,259.33,597.66,271.72,591,272Z"/><path class="cls-15" d="M507.78,274.06c.61,5.16-.47,10.82-2.51,16.78l1.09,26.24c.22,5.27-3.64,9.75-8.56,13l-4.92,3.24c-5.28.22-5.48-10.16-5.7-15.44L485,265.4"/><path class="cls-16" d="M565.13,240.89c-5.11.21-10.62.31-16.42.38a1,1,0,0,1-1-1,1,1,0,0,1,1-1h0c19.72-.24,46.72-.57,47.55-9.55a1,1,0,1,1,2,.18C597.52,237.78,584.22,240.1,565.13,240.89Z"/><path class="cls-16" d="M574.44,256.73c-11.89.5-27.51-1.55-44.62-4.09a1,1,0,0,1,.3-2c26.8,4,51.63,7,61-.3a9.6,9.6,0,0,0,3.82-7,1,1,0,0,1,1.11-.9,1,1,0,0,1,.9,1.11,11.73,11.73,0,0,1-4.59,8.34C588.38,255,582.2,256.41,574.44,256.73Z"/><path class="cls-16" d="M490.74,288.61a1.06,1.06,0,0,1-.35-.05,1,1,0,0,1-.66-1.27l.3-.94c2.2-6.91,4.47-14.06,2.74-18.46a1,1,0,0,1,1.88-.74c2,5.07-.39,12.57-2.69,19.81l-.3.94A1,1,0,0,1,490.74,288.61Z"/><path class="cls-16" d="M498,297a1,1,0,0,1-.3,0,1,1,0,0,1-.72-1.23l.34-1.26c2.5-9.4,5.08-19.12,3.45-25.05a1,1,0,1,1,1.95-.53c1.77,6.45-.88,16.44-3.45,26.1l-.33,1.26A1,1,0,0,1,498,297Z"/><path class="cls-15" d="M592,271l1.63,29.65a3.21,3.21,0,0,1-3.06,3.33l-6.74.28a3.21,3.21,0,0,1-3.32-3.06L580,270"/><circle class="cls-17" cx="196.5" cy="849.5" r="53.5"/><rect class="cls-5" x="1623.27" y="721.31" width="163.02" height="295.47" rx="12" ry="12" transform="translate(345.27 -477.52) rotate(17.71)"/><circle class="cls-4" cx="1731.86" cy="727.95" r="2.32"/><rect class="cls-18" x="1641.16" y="732.15" width="132.06" height="254.34" rx="12" ry="12" transform="translate(342.42 -478.72) rotate(17.71)"/><circle class="cls-4" cx="1663.15" cy="994.79" r="11.58"/><rect class="cls-4" x="1743.99" y="734.88" width="27.79" height="2.78" rx="1.27" ry="1.27" transform="translate(307.39 -499.98) rotate(17.71)"/><path class="cls-19" d="M1687.93,781.83l.39.12.67-2.12c.18-.57.34-1,.47-1.32a2.17,2.17,0,0,1,.52-.76,1.78,1.78,0,0,1,.79-.39,1.74,1.74,0,0,1,.93,0,1.84,1.84,0,0,1,1.06.89,1.55,1.55,0,0,1,.19,1,7,7,0,0,1-.34,1.4l-.77,2.41,1.3.41a1.75,1.75,0,0,1,1,.72,1.26,1.26,0,0,1,.1,1,1.07,1.07,0,0,1-.88.81,3.73,3.73,0,0,1-1.7-.23l-.66-.21-2.07,6.49a11,11,0,0,0-.35,1.29,1.35,1.35,0,0,0,.08.83,1.1,1.1,0,0,0,.73.54,5.23,5.23,0,0,0,.88.16,4.25,4.25,0,0,1,.86.15,1.15,1.15,0,0,1,.66.59,1.21,1.21,0,0,1,.07,1,1.48,1.48,0,0,1-1.35,1,6.54,6.54,0,0,1-2.82-.4,4.79,4.79,0,0,1-2.33-1.36,2.66,2.66,0,0,1-.62-1.89,10.77,10.77,0,0,1,.57-2.71l2.16-6.77-.46-.15a1.78,1.78,0,0,1-1-.73,1.25,1.25,0,0,1-.11-1,1.23,1.23,0,0,1,.71-.78A1.94,1.94,0,0,1,1687.93,781.83Z"/><path class="cls-19" d="M1698.83,787.39l-.22,8.62,4.44-6.66c.47-.7.8-1.17,1-1.41a2,2,0,0,1,.86-.61,1.87,1.87,0,0,1,1.34,0,2,2,0,0,1,1.12.77,2.45,2.45,0,0,1,.36,1c0,.34,0,.91,0,1.71l-.25,8,4.85-7.14a12.32,12.32,0,0,1,.77-1.11,1.66,1.66,0,0,1,.69-.52,1.49,1.49,0,0,1,1.06,0,1.63,1.63,0,0,1,1,.79,1.46,1.46,0,0,1,.14,1.18,5.94,5.94,0,0,1-.93,1.52l-5.58,7.53c-.48.63-.84,1.09-1.08,1.36a2.48,2.48,0,0,1-.92.65,2.31,2.31,0,0,1-2.48-.82,2.54,2.54,0,0,1-.36-1.2c0-.44,0-1,0-1.67l.18-7.52-4.15,6.26a8.67,8.67,0,0,1-1.53,1.89,1.8,1.8,0,0,1-1.82.23,2.2,2.2,0,0,1-.92-.55,2,2,0,0,1-.47-.86,5.5,5.5,0,0,1-.16-1.15c0-.42,0-.76,0-1l-.16-9.37a6.1,6.1,0,0,1,.1-1.77,1.46,1.46,0,0,1,.78-.88,1.58,1.58,0,0,1,1.26-.1,1.39,1.39,0,0,1,1,.88A8,8,0,0,1,1698.83,787.39Z"/><path class="cls-19" d="M1721.3,790.33a1.91,1.91,0,0,1-1.12-.85,1.72,1.72,0,0,1-.12-1.45A1.66,1.66,0,0,1,1721,787a1.89,1.89,0,0,1,1.4-.09,2,2,0,0,1,1.07.83,1.64,1.64,0,0,1,.12,1.45,1.71,1.71,0,0,1-.92,1.11A1.85,1.85,0,0,1,1721.3,790.33Zm.58,4.21-3.26,10.19a2.45,2.45,0,0,1-1,1.45,1.74,1.74,0,0,1-1.45.13,1.65,1.65,0,0,1-1.08-1,2.42,2.42,0,0,1,0-1.74l3.22-10.1a2.46,2.46,0,0,1,1-1.42,1.73,1.73,0,0,1,1.43-.13,1.78,1.78,0,0,1,1.11.94A2.14,2.14,0,0,1,1721.88,794.54Z"/><path class="cls-19" d="M1726.39,794.11l.39.13.67-2.12c.18-.57.34-1,.47-1.33a2.22,2.22,0,0,1,.52-.75,1.7,1.7,0,0,1,.79-.4,1.74,1.74,0,0,1,.93.05,1.88,1.88,0,0,1,1.06.89,1.58,1.58,0,0,1,.19,1,7.1,7.1,0,0,1-.34,1.41l-.77,2.4,1.3.42a1.75,1.75,0,0,1,1,.72,1.23,1.23,0,0,1,.1,1,1.07,1.07,0,0,1-.88.82,3.87,3.87,0,0,1-1.7-.23l-.66-.21-2.07,6.49a11,11,0,0,0-.35,1.29,1.32,1.32,0,0,0,.08.82,1.1,1.1,0,0,0,.73.54,4.38,4.38,0,0,0,.88.16,5.1,5.1,0,0,1,.86.15,1.18,1.18,0,0,1,.66.59,1.23,1.23,0,0,1,.07,1,1.49,1.49,0,0,1-1.35,1,6.57,6.57,0,0,1-2.82-.41,4.86,4.86,0,0,1-2.33-1.35,2.68,2.68,0,0,1-.62-1.9,10.86,10.86,0,0,1,.57-2.71l2.16-6.77-.46-.15a1.74,1.74,0,0,1-1-.73,1.24,1.24,0,0,1-.11-1,1.19,1.19,0,0,1,.71-.77A1.94,1.94,0,0,1,1726.39,794.11Z"/><path class="cls-19" d="M1735.89,797.15l.39.12.67-2.12c.19-.57.34-1,.48-1.32a1.83,1.83,0,0,1,.52-.75,1.62,1.62,0,0,1,.78-.4,1.78,1.78,0,0,1,.94.05,1.82,1.82,0,0,1,1,.89,1.56,1.56,0,0,1,.2,1,8,8,0,0,1-.35,1.4l-.76,2.41,1.29.41a1.75,1.75,0,0,1,1,.72,1.22,1.22,0,0,1,.1,1,1.06,1.06,0,0,1-.88.81,3.85,3.85,0,0,1-1.7-.22l-.66-.22-2.07,6.49a11,11,0,0,0-.35,1.29,1.42,1.42,0,0,0,.08.83,1.1,1.1,0,0,0,.73.54,5.23,5.23,0,0,0,.88.16,5.1,5.1,0,0,1,.86.15,1.15,1.15,0,0,1,.66.59,1.21,1.21,0,0,1,.07,1,1.48,1.48,0,0,1-1.35,1,6.54,6.54,0,0,1-2.82-.4,4.84,4.84,0,0,1-2.33-1.36,2.7,2.7,0,0,1-.62-1.89,10.77,10.77,0,0,1,.57-2.71l2.16-6.77-.46-.15a1.78,1.78,0,0,1-1-.73,1.28,1.28,0,0,1-.11-1.05,1.23,1.23,0,0,1,.71-.78A2,2,0,0,1,1735.89,797.15Z"/><path class="cls-19" d="M1752.58,811l-6.9-2.21a4.89,4.89,0,0,0-.19,2.28,3.37,3.37,0,0,0,.81,1.78,3.49,3.49,0,0,0,1.57,1,5.09,5.09,0,0,0,1.21.22,4.23,4.23,0,0,0,1.16-.14,8.65,8.65,0,0,0,1.12-.39l1.39-.64a1.18,1.18,0,0,1,.85,0,1.36,1.36,0,0,1,.78.58,1.11,1.11,0,0,1,.07,1,2.37,2.37,0,0,1-.73,1,4.55,4.55,0,0,1-1.53.87,6.59,6.59,0,0,1-2.21.37,8.62,8.62,0,0,1-2.75-.45,7.4,7.4,0,0,1-4.67-3.63,7.58,7.58,0,0,1-.2-5.86,9.18,9.18,0,0,1,1.39-2.76,6.7,6.7,0,0,1,2.09-1.86,6.23,6.23,0,0,1,2.66-.76,8.3,8.3,0,0,1,3.06.41,7.17,7.17,0,0,1,3.27,2,6.07,6.07,0,0,1,1.5,3,6.28,6.28,0,0,1-.17,3.06c-.28.88-.72,1.38-1.31,1.48A5,5,0,0,1,1752.58,811Zm-6.26-4.21,6.39,2a4.46,4.46,0,0,0-.11-3,3.07,3.07,0,0,0-1.94-1.61,2.94,2.94,0,0,0-2.45.22A4.77,4.77,0,0,0,1746.32,806.79Z"/><path class="cls-19" d="M1761.71,815.25l-.94,3a2.42,2.42,0,0,1-1,1.45,1.75,1.75,0,0,1-1.45.12,1.67,1.67,0,0,1-1.08-.94,2.37,2.37,0,0,1,0-1.76l3.13-9.82c.51-1.59,1.34-2.2,2.48-1.83a1.51,1.51,0,0,1,1.09,1,3.19,3.19,0,0,1-.1,1.78,6.65,6.65,0,0,1,1.83-1.23,2.83,2.83,0,0,1,1.95,0,4.76,4.76,0,0,1,2,1.25,1.72,1.72,0,0,1,.58,1.8,1.47,1.47,0,0,1-.79.93,1.46,1.46,0,0,1-1.09.11,4.59,4.59,0,0,1-.87-.54,5,5,0,0,0-1.23-.66,2,2,0,0,0-1.4,0,2.8,2.8,0,0,0-1.15,1,9.22,9.22,0,0,0-1,1.79C1762.37,813.3,1762.05,814.19,1761.71,815.25Z"/><rect class="cls-19" x="1669.82" y="849.74" width="77.8" height="13.89" rx="5.5" ry="5.5" transform="translate(341.7 -479.31) rotate(17.71)"/><rect class="cls-19" x="1661.65" y="875.33" width="77.8" height="13.89" rx="5.5" ry="5.5" transform="translate(349.1 -475.61) rotate(17.71)"/><rect class="cls-20" x="1638.58" y="731.83" width="136.24" height="255.18" rx="12" ry="12" transform="translate(351.09 -487.33) rotate(18.08)"/><rect class="cls-21" x="1661.95" y="843.99" width="93.64" height="18.2" rx="8.32" ry="8.32" transform="translate(349.22 -488.29) rotate(18.08)"/><rect class="cls-21" x="1650.79" y="878.16" width="93.64" height="18.2" rx="8.32" ry="8.32" transform="translate(359.28 -483.14) rotate(18.08)"/><path class="cls-21" d="M1688.23,800.45l.31.1.56-1.69a9.43,9.43,0,0,1,.38-1.05,1.69,1.69,0,0,1,.42-.6,1.35,1.35,0,0,1,1.37-.27,1.41,1.41,0,0,1,.84.72,1.28,1.28,0,0,1,.15.77,5.62,5.62,0,0,1-.28,1.12l-.62,1.92,1,.33a1.39,1.39,0,0,1,.81.58,1,1,0,0,1,.08.83.85.85,0,0,1-.71.65,3.11,3.11,0,0,1-1.35-.19l-.53-.17-1.69,5.17a10.05,10.05,0,0,0-.28,1,1,1,0,0,0,.06.65.89.89,0,0,0,.58.44,3.67,3.67,0,0,0,.7.13,3.54,3.54,0,0,1,.69.13.88.88,0,0,1,.52.47,1,1,0,0,1,0,.76,1.18,1.18,0,0,1-1.08.8,5.29,5.29,0,0,1-2.25-.33,3.87,3.87,0,0,1-1.85-1.1,2.15,2.15,0,0,1-.49-1.52,8.66,8.66,0,0,1,.47-2.16l1.76-5.39-.37-.12a1.46,1.46,0,0,1-.83-.59,1,1,0,0,1-.08-.84.93.93,0,0,1,.57-.62A1.56,1.56,0,0,1,1688.23,800.45Z"/><path class="cls-21" d="M1696.91,805l-.22,6.88,3.58-5.3c.38-.55.65-.92.81-1.12a1.57,1.57,0,0,1,1.76-.47,1.54,1.54,0,0,1,.88.63,1.73,1.73,0,0,1,.29.82c0,.27,0,.72,0,1.36l-.24,6.39,3.91-5.68c.27-.41.47-.71.62-.89a1.45,1.45,0,0,1,.55-.41,1.25,1.25,0,0,1,.85,0,1.3,1.3,0,0,1,.76.64,1.12,1.12,0,0,1,.1.94,4.5,4.5,0,0,1-.74,1.21l-4.5,6c-.39.51-.67.87-.87,1.09a1.89,1.89,0,0,1-.74.51,1.58,1.58,0,0,1-1.07,0,1.54,1.54,0,0,1-.9-.65,2.11,2.11,0,0,1-.29-1c0-.34,0-.79,0-1.33l.18-6-3.35,5a6.77,6.77,0,0,1-1.23,1.51,1.44,1.44,0,0,1-1.45.17,1.74,1.74,0,0,1-.73-.44,1.66,1.66,0,0,1-.38-.69,4.19,4.19,0,0,1-.12-.92c0-.34,0-.61,0-.81l-.08-7.48a4.93,4.93,0,0,1,.09-1.42,1.23,1.23,0,0,1,.63-.7,1.28,1.28,0,0,1,1-.07c.47.16.74.39.82.71A5.86,5.86,0,0,1,1696.91,805Z"/><path class="cls-21" d="M1714.84,807.41a1.48,1.48,0,0,1-.89-.69,1.3,1.3,0,0,1-.08-1.15,1.34,1.34,0,0,1,.74-.85,1.58,1.58,0,0,1,2,.61,1.52,1.52,0,0,1-.66,2A1.47,1.47,0,0,1,1714.84,807.41Zm.44,3.36-2.66,8.13a1.88,1.88,0,0,1-.81,1.14,1.4,1.4,0,0,1-1.17.1,1.31,1.31,0,0,1-.85-.77,1.9,1.9,0,0,1,0-1.39l2.63-8a1.86,1.86,0,0,1,.8-1.13,1.37,1.37,0,0,1,1.14-.1,1.45,1.45,0,0,1,.88.76A1.7,1.7,0,0,1,1715.28,810.77Z"/><path class="cls-21" d="M1718.88,810.46l.31.1.55-1.69c.15-.46.28-.81.39-1.06a1.58,1.58,0,0,1,.42-.6,1.35,1.35,0,0,1,.62-.31,1.37,1.37,0,0,1,.75.05,1.42,1.42,0,0,1,.84.71,1.31,1.31,0,0,1,.15.78,6.42,6.42,0,0,1-.28,1.12l-.63,1.91,1,.34a1.38,1.38,0,0,1,.82.58,1,1,0,0,1,.08.83.86.86,0,0,1-.71.65,3.09,3.09,0,0,1-1.35-.19l-.53-.18-1.69,5.17a8.43,8.43,0,0,0-.28,1,1,1,0,0,0,.06.66.89.89,0,0,0,.58.44,4.68,4.68,0,0,0,.7.13,3.4,3.4,0,0,1,.68.12.92.92,0,0,1,.53.48,1,1,0,0,1,0,.76,1.2,1.2,0,0,1-1.08.8,5.17,5.17,0,0,1-2.25-.34,3.79,3.79,0,0,1-1.85-1.09,2.15,2.15,0,0,1-.49-1.52,8.07,8.07,0,0,1,.47-2.16l1.76-5.39-.37-.13a1.34,1.34,0,0,1-.83-.59,1,1,0,0,1-.08-.83.93.93,0,0,1,.57-.62A1.56,1.56,0,0,1,1718.88,810.46Z"/><path class="cls-21" d="M1726.46,812.93l.3.1.56-1.69a10.25,10.25,0,0,1,.38-1.05,1.69,1.69,0,0,1,.42-.6,1.36,1.36,0,0,1,.62-.32,1.48,1.48,0,0,1,.75,0,1.44,1.44,0,0,1,.84.72,1.22,1.22,0,0,1,.15.77,5.62,5.62,0,0,1-.28,1.12l-.62,1.92,1,.33a1.45,1.45,0,0,1,.82.58,1,1,0,0,1,.07.83.85.85,0,0,1-.7.65,3.15,3.15,0,0,1-1.36-.19l-.53-.17-1.68,5.17a8.35,8.35,0,0,0-.29,1,1,1,0,0,0,.06.65.86.86,0,0,0,.58.44,3.83,3.83,0,0,0,.7.13,3.54,3.54,0,0,1,.69.13.88.88,0,0,1,.52.47,1,1,0,0,1,0,.76,1.17,1.17,0,0,1-1.08.8,5.29,5.29,0,0,1-2.25-.33,3.92,3.92,0,0,1-1.85-1.1,2.14,2.14,0,0,1-.49-1.51,8.48,8.48,0,0,1,.47-2.16l1.76-5.4-.37-.12a1.41,1.41,0,0,1-.83-.59,1,1,0,0,1-.08-.84,1,1,0,0,1,.57-.62A1.59,1.59,0,0,1,1726.46,812.93Z"/><path class="cls-21" d="M1739.71,824.07l-5.5-1.79a3.81,3.81,0,0,0-.16,1.81,2.69,2.69,0,0,0,1.89,2.25,3.28,3.28,0,0,0,1.89.08,8.67,8.67,0,0,0,.9-.31l1.11-.5a1,1,0,0,1,.67,0,1.11,1.11,0,0,1,.63.47.94.94,0,0,1,0,.76,2,2,0,0,1-.59.79,3.82,3.82,0,0,1-1.22.68,5.56,5.56,0,0,1-1.77.29,7,7,0,0,1-2.2-.38,5.92,5.92,0,0,1-3.71-2.92,6.06,6.06,0,0,1-.13-4.68,7.54,7.54,0,0,1,1.12-2.19,5.47,5.47,0,0,1,1.68-1.48,5.06,5.06,0,0,1,2.14-.6,6.87,6.87,0,0,1,2.44.35,5.85,5.85,0,0,1,2.6,1.62,4.92,4.92,0,0,1,1.18,2.37,5,5,0,0,1-.15,2.44c-.23.71-.58,1.1-1.06,1.18A4.09,4.09,0,0,1,1739.71,824.07Zm-5-3.39,5.1,1.67a3.62,3.62,0,0,0-.07-2.42,2.47,2.47,0,0,0-1.55-1.29,2.35,2.35,0,0,0-2,.16A3.81,3.81,0,0,0,1734.73,820.68Z"/><path class="cls-21" d="M1747,827.52l-.77,2.35a1.93,1.93,0,0,1-.82,1.15,1.42,1.42,0,0,1-1.16.09,1.36,1.36,0,0,1-.86-.76,1.94,1.94,0,0,1,0-1.4l2.55-7.83c.42-1.26,1.08-1.75,2-1.45a1.2,1.2,0,0,1,.87.77,2.55,2.55,0,0,1-.09,1.42,5.41,5.41,0,0,1,1.46-1,2.26,2.26,0,0,1,1.56,0,3.89,3.89,0,0,1,1.58,1,1.38,1.38,0,0,1,.45,1.44,1.17,1.17,0,0,1-.63.74,1.19,1.19,0,0,1-.88.08,3.75,3.75,0,0,1-.68-.43,3.45,3.45,0,0,0-1-.53,1.57,1.57,0,0,0-1.11,0,2.22,2.22,0,0,0-.92.76,7,7,0,0,0-.8,1.43A21.67,21.67,0,0,0,1747,827.52Z"/></svg>
