<svg id="Layer_1" data-name="Layer 1" xmlns="http://www.w3.org/2000/svg" width="380" height="675" viewBox="0 0 380 675"><defs><style>.cls-1{fill:#4d4d4d;}.cls-2{fill:#333;}.cls-3{fill:#29c7e2;}.cls-4{fill:#fff;}.cls-5{fill:#60cfa5;}.cls-6{fill:#fcf8d5;}</style></defs><title>twitterturkis</title><rect class="cls-1" x="6.33" y="4.6" width="367.33" height="665.79" rx="12" ry="12" transform="translate(-2.17 1.23) rotate(-0.37)"/><circle class="cls-2" cx="149.32" cy="16.34" r="5.22"/><rect class="cls-3" x="39.58" y="28.42" width="297.57" height="573.11" rx="12" ry="12" transform="translate(-2.03 1.22) rotate(-0.37)"/><circle class="cls-2" cx="188.79" cy="635.97" r="26.09"/><rect class="cls-2" x="179.58" y="12.81" width="62.61" height="6.26" rx="1.5" ry="1.5" transform="translate(-0.1 1.36) rotate(-0.37)"/><path class="cls-4" d="M92.91,162.47h.91l0-5c0-1.35,0-2.4.09-3.17a4.6,4.6,0,0,1,.58-2,3.69,3.69,0,0,1,1.4-1.4,4,4,0,0,1,2-.55,4.1,4.1,0,0,1,2.88,1.17,3.52,3.52,0,0,1,1.1,1.94,17.42,17.42,0,0,1,.25,3.25l0,5.69,3.06,0a3.89,3.89,0,0,1,2.71.82,2.77,2.77,0,0,1,.94,2.15,2.4,2.4,0,0,1-1.31,2.36,8.55,8.55,0,0,1-3.8.7h-1.56l.1,15.35a24.75,24.75,0,0,0,.15,3,3.13,3.13,0,0,0,.75,1.71,2.51,2.51,0,0,0,1.94.64,10.07,10.07,0,0,0,2-.27,11,11,0,0,1,2-.28,2.57,2.57,0,0,1,1.83.8,2.73,2.73,0,0,1,.82,2,3.34,3.34,0,0,1-2.18,3.1,14.64,14.64,0,0,1-6.32,1.11,11,11,0,0,1-5.94-1.27,6.14,6.14,0,0,1-2.67-3.62A24.79,24.79,0,0,1,94,184.5l-.1-16h-1.1a4,4,0,0,1-2.76-.84,2.82,2.82,0,0,1-1-2.16,2.69,2.69,0,0,1,1-2.16A4.35,4.35,0,0,1,92.91,162.47Z"/><path class="cls-4" d="M120.15,166.76l5.56,18.61L130.55,168c.52-1.81.91-3.06,1.16-3.72a4.78,4.78,0,0,1,1.42-1.9,4.25,4.25,0,0,1,2.89-.92,4.32,4.32,0,0,1,2.92.88,5.11,5.11,0,0,1,1.5,1.95c.29.7.69,1.91,1.21,3.64l5.07,17.3,5.38-18.68c.36-1.35.65-2.32.87-2.93a3.83,3.83,0,0,1,1.12-1.59,3.39,3.39,0,0,1,2.29-.71,3.67,3.67,0,0,1,2.6,1,3.27,3.27,0,0,1,1.12,2.44,12.86,12.86,0,0,1-.92,3.88l-6.69,20c-.58,1.7-1,2.92-1.36,3.68a5.54,5.54,0,0,1-1.52,2,5.18,5.18,0,0,1-5.88,0,5.77,5.77,0,0,1-1.62-2.31c-.35-.91-.73-2.1-1.15-3.57l-4.87-16.23-4.52,16.29a19.64,19.64,0,0,1-1.95,5.14,4.08,4.08,0,0,1-3.75,1.75,4.82,4.82,0,0,1-2.34-.52,4.52,4.52,0,0,1-1.62-1.52,11.43,11.43,0,0,1-1.14-2.35c-.34-.9-.59-1.62-.78-2.15L113.1,169a14.1,14.1,0,0,1-1-3.87,3.36,3.36,0,0,1,1.05-2.43,3.59,3.59,0,0,1,2.63-1.08,3.06,3.06,0,0,1,2.82,1.15A17.7,17.7,0,0,1,120.15,166.76Z"/><path class="cls-4" d="M170.33,157.35a4.39,4.39,0,0,1-3-1,4.15,4.15,0,0,1,0-6,4.29,4.29,0,0,1,2.95-1.16,4.34,4.34,0,0,1,2.88,1,3.71,3.71,0,0,1,1.27,3,3.82,3.82,0,0,1-1.2,3A4.24,4.24,0,0,1,170.33,157.35Zm4.18,8.6.16,24.12a5.39,5.39,0,0,1-1.17,3.8,4,4,0,0,1-3,1.3,3.75,3.75,0,0,1-3-1.3,5.54,5.54,0,0,1-1.17-3.75l-.15-23.88a5.34,5.34,0,0,1,1.12-3.73,3.87,3.87,0,0,1,3-1.28,4,4,0,0,1,3,1.24A4.86,4.86,0,0,1,174.51,166Z"/><path class="cls-4" d="M183.88,161.88h.92l0-5c0-1.34,0-2.4.08-3.16a4.61,4.61,0,0,1,.59-2,3.73,3.73,0,0,1,1.39-1.4,4.05,4.05,0,0,1,2-.55,4.11,4.11,0,0,1,2.88,1.18,3.55,3.55,0,0,1,1.1,1.93,17.5,17.5,0,0,1,.25,3.25l0,5.69,3.06,0a3.92,3.92,0,0,1,2.71.82,2.79,2.79,0,0,1,1,2.15,2.42,2.42,0,0,1-1.32,2.37,8.67,8.67,0,0,1-3.8.69h-1.56l.1,15.35a24.24,24.24,0,0,0,.16,3,3.12,3.12,0,0,0,.74,1.71,2.52,2.52,0,0,0,1.95.64,9.89,9.89,0,0,0,2-.27,10,10,0,0,1,2-.27,2.47,2.47,0,0,1,1.82.8,2.7,2.7,0,0,1,.83,2,3.36,3.36,0,0,1-2.18,3.11,15,15,0,0,1-6.33,1.11,11,11,0,0,1-5.94-1.28,6.05,6.05,0,0,1-2.66-3.62,24.71,24.71,0,0,1-.67-6.2l-.1-16h-1.1a4,4,0,0,1-2.76-.83,2.77,2.77,0,0,1-1-2.17,2.68,2.68,0,0,1,1-2.16A4.38,4.38,0,0,1,183.88,161.88Z"/><path class="cls-4" d="M206.36,161.74h.91l0-5c0-1.35,0-2.4.09-3.17a4.6,4.6,0,0,1,.58-2,3.69,3.69,0,0,1,1.4-1.4,3.85,3.85,0,0,1,2-.55,4.14,4.14,0,0,1,2.89,1.17,3.5,3.5,0,0,1,1.09,1.94,17.42,17.42,0,0,1,.25,3.25l0,5.69,3.06,0a3.89,3.89,0,0,1,2.71.82,2.81,2.81,0,0,1,1,2.15A2.43,2.43,0,0,1,221,167a8.52,8.52,0,0,1-3.8.7h-1.56l.1,15.35a27.14,27.14,0,0,0,.15,3,3.07,3.07,0,0,0,.75,1.7,2.52,2.52,0,0,0,2,.65,10.8,10.8,0,0,0,2-.27,11,11,0,0,1,2-.28,2.55,2.55,0,0,1,1.82.8,2.72,2.72,0,0,1,.82,2,3.34,3.34,0,0,1-2.18,3.1,15,15,0,0,1-6.32,1.11,11,11,0,0,1-5.94-1.27,6.13,6.13,0,0,1-2.67-3.63,24.25,24.25,0,0,1-.66-6.2l-.11-16h-1.1a3.92,3.92,0,0,1-2.75-.84,2.81,2.81,0,0,1-1-2.16,2.69,2.69,0,0,1,1-2.16A4.3,4.3,0,0,1,206.36,161.74Z"/><path class="cls-4" d="M251.79,179.73l-16.32.1a11,11,0,0,0,1.18,5,7.64,7.64,0,0,0,7.07,4.32,9.69,9.69,0,0,0,2.73-.37,8.67,8.67,0,0,0,2.4-1.11,19.84,19.84,0,0,0,2.13-1.62c.64-.58,1.49-1.35,2.52-2.34a2.69,2.69,0,0,1,1.83-.56,3,3,0,0,1,2.08.69,2.46,2.46,0,0,1,.81,2,5.33,5.33,0,0,1-.87,2.65,10.35,10.35,0,0,1-2.66,2.92,15,15,0,0,1-4.47,2.34,19.67,19.67,0,0,1-6.22,1q-8,0-12.53-4.51t-4.55-12.41a20.88,20.88,0,0,1,1.06-6.87,15.2,15.2,0,0,1,3.17-5.45,13.86,13.86,0,0,1,5.18-3.5,18.67,18.67,0,0,1,6.84-1.26,16.23,16.23,0,0,1,8.4,2,13.51,13.51,0,0,1,5.28,5.3,14.1,14.1,0,0,1,1.79,6.66c0,2.1-.58,3.46-1.78,4.09A11.32,11.32,0,0,1,251.79,179.73Zm-16.35-4.64,15.13-.1c-.22-2.85-1-5-2.35-6.39a7,7,0,0,0-5.29-2.09,6.7,6.7,0,0,0-5.1,2.19A10.67,10.67,0,0,0,235.44,175.09Z"/><path class="cls-4" d="M274.32,182.45l0,7a5.32,5.32,0,0,1-1.16,3.81,4,4,0,0,1-3,1.29,3.84,3.84,0,0,1-3-1.27,5.47,5.47,0,0,1-1.18-3.78l-.15-23.24c0-3.75,1.32-5.63,4-5.65a3.39,3.39,0,0,1,3,1.3,7.27,7.27,0,0,1,1,3.87,14.6,14.6,0,0,1,3-3.9,6.39,6.39,0,0,1,4.2-1.34,10.81,10.81,0,0,1,5.11,1.28c1.66.87,2.49,2,2.5,3.47a3.31,3.31,0,0,1-1,2.53,3.27,3.27,0,0,1-2.27,1,10.72,10.72,0,0,1-2.22-.55,10.47,10.47,0,0,0-3.1-.55,4.57,4.57,0,0,0-3,1,6.24,6.24,0,0,0-1.79,2.87,19.85,19.85,0,0,0-.86,4.52C274.37,177.82,274.3,180,274.32,182.45Z"/><rect class="cls-4" x="102.15" y="292.63" width="175.32" height="31.31" rx="5.5" ry="5.5" transform="translate(-1.98 1.23) rotate(-0.37)"/><rect class="cls-4" x="102.54" y="353.15" width="175.32" height="31.31" rx="5.5" ry="5.5" transform="translate(-2.37 1.23) rotate(-0.37)"/><rect class="cls-5" x="33.9" y="28.03" width="307" height="575" rx="12" ry="12"/><rect class="cls-6" x="81.9" y="280.03" width="211" height="41" rx="12" ry="12"/><rect class="cls-6" x="81.9" y="361.03" width="211" height="41" rx="12" ry="12"/><path class="cls-6" d="M106.59,202.14h.73v-4c0-1.07,0-1.91.08-2.52a3.81,3.81,0,0,1,.48-1.58,3.06,3.06,0,0,1,1.12-1.11,3.26,3.26,0,0,1,3.93.53,2.78,2.78,0,0,1,.87,1.55,14.26,14.26,0,0,1,.18,2.6v4.54h2.45a3.12,3.12,0,0,1,2.16.67,2.23,2.23,0,0,1,.74,1.72,1.92,1.92,0,0,1-1.06,1.88,6.86,6.86,0,0,1-3,.54H114V219.2a20.56,20.56,0,0,0,.11,2.41,2.5,2.5,0,0,0,.59,1.37,2,2,0,0,0,1.55.52,8.25,8.25,0,0,0,1.59-.21,7.93,7.93,0,0,1,1.56-.2,2,2,0,0,1,1.45.64,2.19,2.19,0,0,1,.65,1.6,2.68,2.68,0,0,1-1.76,2.47,11.88,11.88,0,0,1-5,.85,8.74,8.74,0,0,1-4.74-1.05,4.88,4.88,0,0,1-2.11-2.9,19.92,19.92,0,0,1-.5-5V207h-.88a3.17,3.17,0,0,1-2.2-.69,2.23,2.23,0,0,1-.75-1.73,2.15,2.15,0,0,1,.79-1.72A3.48,3.48,0,0,1,106.59,202.14Z"/><path class="cls-6" d="M128.32,205.7l4.35,14.9,4-13.85c.42-1.45.74-2.43.94-3a3.86,3.86,0,0,1,1.15-1.52,3.44,3.44,0,0,1,2.31-.72,3.47,3.47,0,0,1,2.33.72,4.14,4.14,0,0,1,1.18,1.56c.23.57.55,1.54.95,2.92l4,13.85,4.39-14.9c.3-1.07.53-1.85.71-2.33a3.16,3.16,0,0,1,.9-1.27,2.79,2.79,0,0,1,1.84-.55,2.94,2.94,0,0,1,2.07.83,2.61,2.61,0,0,1,.88,2,10.1,10.1,0,0,1-.76,3.1l-5.44,16c-.47,1.35-.84,2.33-1.1,2.93a4.29,4.29,0,0,1-1.23,1.61,3.43,3.43,0,0,1-2.31.71,3.47,3.47,0,0,1-2.38-.76,4.54,4.54,0,0,1-1.28-1.85c-.28-.73-.58-1.69-.9-2.86l-3.81-13-3.69,13a15.94,15.94,0,0,1-1.59,4.09,3.24,3.24,0,0,1-3,1.38,3.75,3.75,0,0,1-1.87-.43,3.55,3.55,0,0,1-1.28-1.22,8.9,8.9,0,0,1-.9-1.88c-.26-.72-.47-1.29-.61-1.72l-5.4-16a11.13,11.13,0,0,1-.8-3.1,2.65,2.65,0,0,1,.85-1.93,2.86,2.86,0,0,1,2.1-.86,2.47,2.47,0,0,1,2.25.94A14.16,14.16,0,0,1,128.32,205.7Z"/><path class="cls-6" d="M168.44,198.45a3.51,3.51,0,0,1-2.38-.85,3.32,3.32,0,0,1,0-4.75,3.42,3.42,0,0,1,2.36-.92,3.49,3.49,0,0,1,2.29.83,3,3,0,0,1,1,2.42,3,3,0,0,1-1,2.4A3.38,3.38,0,0,1,168.44,198.45Zm3.3,6.89V224.6a4.3,4.3,0,0,1-1,3,3.15,3.15,0,0,1-2.41,1A3,3,0,0,1,166,227.6a4.43,4.43,0,0,1-.92-3V205.53a4.29,4.29,0,0,1,.92-3,3.09,3.09,0,0,1,2.38-1,3.2,3.2,0,0,1,2.41,1A3.87,3.87,0,0,1,171.74,205.34Z"/><path class="cls-6" d="M179.24,202.14H180v-4c0-1.07,0-1.91.08-2.52a3.81,3.81,0,0,1,.48-1.58,3.14,3.14,0,0,1,1.12-1.11,3.26,3.26,0,0,1,3.93.53,2.78,2.78,0,0,1,.87,1.55,14.26,14.26,0,0,1,.18,2.6v4.54h2.45a3.12,3.12,0,0,1,2.16.67,2.23,2.23,0,0,1,.74,1.72,1.92,1.92,0,0,1-1.06,1.88,6.86,6.86,0,0,1-3,.54h-1.25V219.2a20.56,20.56,0,0,0,.11,2.41,2.5,2.5,0,0,0,.59,1.37,2,2,0,0,0,1.55.52,8.25,8.25,0,0,0,1.59-.21,7.85,7.85,0,0,1,1.56-.2,2,2,0,0,1,1.45.64,2.19,2.19,0,0,1,.65,1.6,2.68,2.68,0,0,1-1.76,2.47,11.88,11.88,0,0,1-5.05.85,8.74,8.74,0,0,1-4.74-1.05,4.88,4.88,0,0,1-2.11-2.9,19.45,19.45,0,0,1-.5-5V207h-.88a3.17,3.17,0,0,1-2.2-.69,2.23,2.23,0,0,1-.75-1.73,2.15,2.15,0,0,1,.79-1.72A3.48,3.48,0,0,1,179.24,202.14Z"/><path class="cls-6" d="M197.19,202.14h.73v-4c0-1.07,0-1.91.08-2.52a3.81,3.81,0,0,1,.48-1.58,3.06,3.06,0,0,1,1.12-1.11,3.26,3.26,0,0,1,3.93.53,2.78,2.78,0,0,1,.87,1.55,14.26,14.26,0,0,1,.18,2.6v4.54H207a3.13,3.13,0,0,1,2.17.67,2.23,2.23,0,0,1,.74,1.72,1.92,1.92,0,0,1-1.06,1.88,6.86,6.86,0,0,1-3,.54h-1.25V219.2a20.56,20.56,0,0,0,.11,2.41,2.5,2.5,0,0,0,.59,1.37,2,2,0,0,0,1.55.52,8.25,8.25,0,0,0,1.59-.21,7.85,7.85,0,0,1,1.56-.2,2,2,0,0,1,1.45.64,2.19,2.19,0,0,1,.65,1.6,2.68,2.68,0,0,1-1.76,2.47,11.88,11.88,0,0,1-5,.85,8.72,8.72,0,0,1-4.74-1.05,4.88,4.88,0,0,1-2.11-2.9,19.92,19.92,0,0,1-.5-5V207H197a3.17,3.17,0,0,1-2.2-.69,2.23,2.23,0,0,1-.75-1.73,2.15,2.15,0,0,1,.79-1.72A3.48,3.48,0,0,1,197.19,202.14Z"/><path class="cls-6" d="M233.37,216.74h-13a8.8,8.8,0,0,0,.91,4,6.29,6.29,0,0,0,2.37,2.61,6.2,6.2,0,0,0,3.26.88,7.78,7.78,0,0,0,2.18-.28,6.9,6.9,0,0,0,1.92-.88,14.1,14.1,0,0,0,1.71-1.28c.52-.45,1.2-1.07,2-1.85a2.14,2.14,0,0,1,1.46-.44,2.39,2.39,0,0,1,1.66.56,2,2,0,0,1,.64,1.58,4.38,4.38,0,0,1-.71,2.12,8.48,8.48,0,0,1-2.14,2.32,12.2,12.2,0,0,1-3.59,1.84,15.37,15.37,0,0,1-5,.73c-4.29,0-7.61-1.22-10-3.66s-3.57-5.75-3.57-9.94a16.75,16.75,0,0,1,.88-5.48,12,12,0,0,1,2.57-4.33,10.94,10.94,0,0,1,4.15-2.77,15,15,0,0,1,5.47-1,13,13,0,0,1,6.7,1.65,10.91,10.91,0,0,1,4.19,4.26,11.3,11.3,0,0,1,1.39,5.32c0,1.68-.48,2.77-1.44,3.26A9,9,0,0,1,233.37,216.74Zm-13-3.79h12.08a8.12,8.12,0,0,0-1.84-5.11,5.53,5.53,0,0,0-4.21-1.7,5.35,5.35,0,0,0-4.09,1.72A8.51,8.51,0,0,0,220.34,213Z"/><path class="cls-6" d="M251.35,219v5.57a4.33,4.33,0,0,1-.95,3,3.2,3.2,0,0,1-2.42,1,3.07,3.07,0,0,1-2.37-1,4.4,4.4,0,0,1-.93-3V206q0-4.48,3.25-4.49a2.69,2.69,0,0,1,2.39,1,5.8,5.8,0,0,1,.81,3.1,11.79,11.79,0,0,1,2.45-3.1,5.08,5.08,0,0,1,3.36-1,8.61,8.61,0,0,1,4.08,1,3.13,3.13,0,0,1,2,2.79,2.65,2.65,0,0,1-.84,2,2.61,2.61,0,0,1-1.82.79,8.53,8.53,0,0,1-1.77-.45,8.21,8.21,0,0,0-2.47-.45,3.66,3.66,0,0,0-2.4.77,4.88,4.88,0,0,0-1.44,2.28,16,16,0,0,0-.71,3.6C251.41,215.33,251.35,217,251.35,219Z"/></svg>
