<svg id="Layer_1" data-name="Layer 1" xmlns="http://www.w3.org/2000/svg" width="1450" height="765" viewBox="0 0 1450 765"><defs><style>.cls-1{opacity:0.87;}.cls-2{fill:#f5efcb;}.cls-3{fill:#db1620;}</style></defs><title>youlost</title><g class="cls-1"><rect class="cls-2" x="3.5" y="3.61" width="1443" height="757.78" rx="12" ry="12"/></g><path class="cls-3" d="M569.17,106h-3.44l-10.91,40.51v9.7h6.89v3.41H525.38v-3.41h6.89v-9.7L521.37,106h-3.53V102.6h21.81l6.73,30.09h4.67V102.6h18.12Z"/><path class="cls-3" d="M617.72,131.43v7q0,11.31-3.28,15.89a30.86,30.86,0,0,1-2.22,2.79,7.69,7.69,0,0,1-2.87,1.84c-1.26.51-2.29.9-3.11,1.17a15.94,15.94,0,0,1-3.53.58,74.86,74.86,0,0,1-12.18.23,31.87,31.87,0,0,1-5.7-.81c-.76-.27-1.71-.66-2.83-1.17a7.13,7.13,0,0,1-2.58-1.84,29.65,29.65,0,0,1-2-2.79,11.75,11.75,0,0,1-1.6-4,50.72,50.72,0,0,1-1.31-11.94v-7q0-11.33,3.28-15.9a30.56,30.56,0,0,1,2.22-2.78,7.69,7.69,0,0,1,2.87-1.84c1.25-.51,2.29-.9,3.11-1.17a16.66,16.66,0,0,1,3.61-.59q3.45-.27,6.72-.27c2.19,0,3.68,0,4.47.05s1.9.11,3.32.22a14.19,14.19,0,0,1,3.28.59c.77.27,1.71.66,2.83,1.17a7.26,7.26,0,0,1,2.59,1.84,27.77,27.77,0,0,1,2,2.78,13.46,13.46,0,0,1,1.69,4A53.85,53.85,0,0,1,617.72,131.43Zm-15.58,22.81V115.62H590.08v38.62Z"/><path class="cls-3" d="M629.6,146.16V113.65h-3.27v-3.42h18.85v42.58h12.06V110.23h15.58v46h3.28v3.41H666l-3.28-6.82h-1.06c0,3.17-1.06,5.33-3.16,6.46S653.22,161,649,161q-8.44,0-11.32-1.17c-2.79-1.08-4.7-2.48-5.74-4.22A17.56,17.56,0,0,1,629.6,146.16Z"/><path class="cls-3" d="M705.62,94.16h18.86v62.06h3.28v3.41H705.62v-3.41h3.28V97.57h-3.28Z"/><path class="cls-3" d="M779.58,131.43v7q0,11.31-3.28,15.89a32.86,32.86,0,0,1-2.21,2.79,7.86,7.86,0,0,1-2.87,1.84q-1.89.76-3.12,1.17a15.83,15.83,0,0,1-3.52.58,74.88,74.88,0,0,1-12.18.23,31.54,31.54,0,0,1-5.7-.81c-.77-.27-1.71-.66-2.83-1.17a7.13,7.13,0,0,1-2.58-1.84,29.65,29.65,0,0,1-2-2.79,11.75,11.75,0,0,1-1.6-4,50.2,50.2,0,0,1-1.31-11.94v-7q0-11.33,3.28-15.9a32.52,32.52,0,0,1,2.21-2.78,7.78,7.78,0,0,1,2.87-1.84q1.89-.76,3.12-1.17a16.66,16.66,0,0,1,3.61-.59q3.43-.27,6.72-.27c2.19,0,3.68,0,4.47.05s1.9.11,3.32.22a14.41,14.41,0,0,1,3.28.59c.76.27,1.71.66,2.83,1.17a7.13,7.13,0,0,1,2.58,1.84,29.35,29.35,0,0,1,2,2.78,13.19,13.19,0,0,1,1.68,4A53.85,53.85,0,0,1,779.58,131.43ZM764,154.24V115.62H752v38.62Z"/><path class="cls-3" d="M789,158.29l2-14h9.43l2.21,10H812v-6.46l-15.33-11.59a16.85,16.85,0,0,1-5.09-5.61,15.87,15.87,0,0,1-1.56-7.37,17.39,17.39,0,0,1,1.11-6.87,11,11,0,0,1,2.75-4,11.47,11.47,0,0,1,4.34-2.25,45.87,45.87,0,0,1,12.18-1.26,53.39,53.39,0,0,1,16.28,2.7l-2,14h-8.61l-2-10h-8.53v6.47l15.34,11.58a16.74,16.74,0,0,1,5.08,5.62,15.86,15.86,0,0,1,1.56,7.36,17.41,17.41,0,0,1-1.11,6.88,11.09,11.09,0,0,1-2.74,3.95,11.58,11.58,0,0,1-4.35,2.24Q815,161,806.64,161A63.38,63.38,0,0,1,789,158.29Z"/><path class="cls-3" d="M835.34,110.23h4.1l8.86-10.6h5.9v10.6h8.61v4.31H854.2v40.6h4.67v-8.89h3.94v6.56c0,3.17-1,5.33-2.91,6.46S855,161,851.08,161c-1.53,0-2.7,0-3.52-.09a11.67,11.67,0,0,1-3.2-.85,6.64,6.64,0,0,1-3-2.2q-2.72-3.78-2.71-11.68V114.54h-3.28Z"/><path class="cls-3" d="M869.62,102.6h18.77v24.25l-2.46,11.86H872.08l-2.46-11.86Zm9.51,43.47c3.61,0,5.9.44,6.89,1.3s1.47,2.94,1.47,6.2-.5,5.31-1.52,6.15S882.65,161,879,161s-5.95-.42-7-1.26-1.64-2.89-1.64-6.15.56-5.33,1.68-6.2S875.52,146.07,879.13,146.07Z"/><path class="cls-3" d="M899.13,102.6h18.78v24.25l-2.46,11.86H901.59l-2.46-11.86Zm9.52,43.47c3.6,0,5.9.44,6.89,1.3s1.47,2.94,1.47,6.2-.51,5.31-1.52,6.15-3.32,1.26-6.93,1.26-5.95-.42-7-1.26-1.64-2.89-1.64-6.15.56-5.33,1.68-6.2S905,146.07,908.65,146.07Z"/><path class="cls-3" d="M928.66,102.6h18.77v24.25L945,138.71H931.12l-2.46-11.86Zm9.51,43.47c3.61,0,5.9.44,6.89,1.3s1.47,2.94,1.47,6.2-.5,5.31-1.52,6.15-3.32,1.26-6.93,1.26-6-.42-7.05-1.26-1.64-2.89-1.64-6.15.56-5.33,1.68-6.2S934.56,146.07,938.17,146.07Z"/><path d="M500.17,257.06v5.77a6,6,0,0,1-.23,1.83,2.92,2.92,0,0,1-.83,1.24,7.61,7.61,0,0,1-1.55,1.07,24.56,24.56,0,0,1-5.25,2.15,21.19,21.19,0,0,1-5.5.68,17.89,17.89,0,0,1-6.31-1.07,13.31,13.31,0,0,1-4.86-3.09,13.78,13.78,0,0,1-3.09-4.93,18.31,18.31,0,0,1-1.08-6.46,18.78,18.78,0,0,1,1-6.41,13.15,13.15,0,0,1,3.08-5,13.4,13.4,0,0,1,4.94-3.1,18.88,18.88,0,0,1,6.6-1.08,16.41,16.41,0,0,1,5.38.81,11.89,11.89,0,0,1,3.79,2,9.12,9.12,0,0,1,2.19,2.6,5.22,5.22,0,0,1,.74,2.44,2.59,2.59,0,0,1-.85,2,2.86,2.86,0,0,1-2,.81,2.78,2.78,0,0,1-1.26-.3,3,3,0,0,1-1-.87,24.27,24.27,0,0,0-1.9-2.66,6.14,6.14,0,0,0-2.11-1.52,8,8,0,0,0-3.37-.61,9.39,9.39,0,0,0-3.77.72,7.72,7.72,0,0,0-2.84,2.12,9.48,9.48,0,0,0-1.81,3.39,15.15,15.15,0,0,0-.62,4.45q0,5.29,2.43,8.14a8.43,8.43,0,0,0,6.78,2.85,13.73,13.73,0,0,0,4-.55,20.34,20.34,0,0,0,3.77-1.58v-4.88h-4.72a5.18,5.18,0,0,1-2.57-.51,1.87,1.87,0,0,1-.88-1.75,2.16,2.16,0,0,1,.73-1.66,2.85,2.85,0,0,1,2-.65H496a8.92,8.92,0,0,1,2.16.22,2.44,2.44,0,0,1,1.42,1A4.09,4.09,0,0,1,500.17,257.06Z"/><path d="M521.42,259.79h-11a7.49,7.49,0,0,0,.77,3.36,5.15,5.15,0,0,0,4.73,2.94,6.66,6.66,0,0,0,1.84-.24,6,6,0,0,0,1.61-.74,12.1,12.1,0,0,0,1.43-1.07c.44-.39,1-.91,1.7-1.56a1.83,1.83,0,0,1,1.23-.37,2.06,2.06,0,0,1,1.4.47,1.7,1.7,0,0,1,.53,1.33,3.71,3.71,0,0,1-.59,1.78,7.34,7.34,0,0,1-1.8,1.95,10.23,10.23,0,0,1-3,1.54,13,13,0,0,1-4.18.62c-3.59,0-6.39-1-8.38-3.08a11.43,11.43,0,0,1-3-8.34,14,14,0,0,1,.74-4.61,10.19,10.19,0,0,1,2.15-3.64,9.44,9.44,0,0,1,3.49-2.33,12.5,12.5,0,0,1,4.59-.81,10.9,10.9,0,0,1,5.63,1.39,9,9,0,0,1,3.52,3.58,9.38,9.38,0,0,1,1.17,4.47c0,1.41-.4,2.32-1.21,2.74A7.64,7.64,0,0,1,521.42,259.79Zm-11-3.18h10.16a6.84,6.84,0,0,0-1.55-4.29,4.66,4.66,0,0,0-3.54-1.43,4.49,4.49,0,0,0-3.44,1.45A7.27,7.27,0,0,0,510.46,256.61Z"/><path d="M546.58,259.79h-11a7.49,7.49,0,0,0,.77,3.36,5.22,5.22,0,0,0,2,2.2,5.29,5.29,0,0,0,2.74.74,6.54,6.54,0,0,0,1.83-.24,5.84,5.84,0,0,0,1.61-.74A12.23,12.23,0,0,0,546,264c.44-.39,1-.91,1.7-1.56a1.83,1.83,0,0,1,1.23-.37,2.06,2.06,0,0,1,1.4.47,1.7,1.7,0,0,1,.53,1.33,3.71,3.71,0,0,1-.59,1.78,7.34,7.34,0,0,1-1.8,1.95,10.23,10.23,0,0,1-3,1.54,13,13,0,0,1-4.18.62c-3.59,0-6.39-1-8.38-3.08a11.43,11.43,0,0,1-3-8.34,14,14,0,0,1,.74-4.61,10.19,10.19,0,0,1,2.15-3.64,9.44,9.44,0,0,1,3.49-2.33,12.5,12.5,0,0,1,4.59-.81,10.9,10.9,0,0,1,5.63,1.39A9,9,0,0,1,550,252a9.38,9.38,0,0,1,1.17,4.47c0,1.41-.41,2.32-1.21,2.74A7.66,7.66,0,0,1,546.58,259.79Zm-11-3.18h10.15a6.78,6.78,0,0,0-1.54-4.29,4.66,4.66,0,0,0-3.54-1.43,4.47,4.47,0,0,0-3.44,1.45A7.21,7.21,0,0,0,535.63,256.61Z"/><path d="M570.79,253.45l-10.26,11.47h11a2.93,2.93,0,0,1,2,.62,2.11,2.11,0,0,1,.67,1.61,2,2,0,0,1-.66,1.54,3,3,0,0,1-2,.6H556.33a3.55,3.55,0,0,1-2.39-.7,2.41,2.41,0,0,1-.79-1.91,2.36,2.36,0,0,1,.56-1.44c.36-.49,1.13-1.38,2.29-2.68s2.35-2.6,3.36-3.71l2.79-3.11c.87-1,1.58-1.78,2.15-2.45s1-1.24,1.36-1.72h-8.33a8.52,8.52,0,0,1-2.6-.31c-.59-.21-.88-.75-.88-1.62a1.92,1.92,0,0,1,.67-1.54,2.81,2.81,0,0,1,1.89-.57h12.86a5.8,5.8,0,0,1,2.74.52,2,2,0,0,1,1,1.88,2.64,2.64,0,0,1-.18.93,3.85,3.85,0,0,1-.41.79c-.15.2-.36.45-.62.75Z"/><path d="M592.54,239.22h7.93a21,21,0,0,1,5.31.58,9.72,9.72,0,0,1,4,2.15q4.69,4,4.7,12.22a24.24,24.24,0,0,1-.47,4.94,14.58,14.58,0,0,1-1.46,4,12.17,12.17,0,0,1-2.52,3.21,10.41,10.41,0,0,1-2.65,1.75,12.24,12.24,0,0,1-3.08.92,23.18,23.18,0,0,1-3.72.27h-7.94a4.89,4.89,0,0,1-2.5-.51,2.31,2.31,0,0,1-1.1-1.41,9,9,0,0,1-.26-2.37V243a3.2,3.2,0,0,1,3.74-3.73Zm2.35,4.82v20.41h4.62c1,0,1.8,0,2.38-.09a7.12,7.12,0,0,0,1.78-.41,4.6,4.6,0,0,0,1.6-.92q3.06-2.58,3.06-8.9,0-4.45-1.35-6.66a5.94,5.94,0,0,0-3.31-2.82,16.1,16.1,0,0,0-4.76-.61Z"/><path d="M640.63,258.42a13.2,13.2,0,0,1-.78,4.61,10.21,10.21,0,0,1-2.25,3.63,10,10,0,0,1-3.53,2.33,12.49,12.49,0,0,1-4.61.81,12.1,12.1,0,0,1-4.58-.82,10.18,10.18,0,0,1-3.51-2.35,10,10,0,0,1-2.26-3.61,14.22,14.22,0,0,1,0-9.26,9.74,9.74,0,0,1,5.76-5.92,12.69,12.69,0,0,1,4.58-.8,12.36,12.36,0,0,1,4.61.82,10,10,0,0,1,3.55,2.33,10.23,10.23,0,0,1,2.24,3.61A13.18,13.18,0,0,1,640.63,258.42Zm-5.62,0a8.41,8.41,0,0,0-1.5-5.33,4.89,4.89,0,0,0-4-1.91,5,5,0,0,0-2.9.85,5.39,5.39,0,0,0-1.92,2.51,10.07,10.07,0,0,0-.68,3.88,10.2,10.2,0,0,0,.66,3.83,5.55,5.55,0,0,0,1.91,2.51,5.26,5.26,0,0,0,7-1A8.41,8.41,0,0,0,635,258.42Z"/><path d="M650.34,250.13v.68a9.75,9.75,0,0,1,3.23-2.86,8.58,8.58,0,0,1,4-.91,8,8,0,0,1,3.95,1,6.1,6.1,0,0,1,2.61,2.73,6.45,6.45,0,0,1,.72,2.21,23,23,0,0,1,.16,3v10.41a3.69,3.69,0,0,1-.77,2.55,2.77,2.77,0,0,1-4,0,3.7,3.7,0,0,1-.78-2.53v-9.33a9.23,9.23,0,0,0-.77-4.23,3.12,3.12,0,0,0-3.06-1.47,4.52,4.52,0,0,0-2.73.9,5.07,5.07,0,0,0-1.8,2.45,17.21,17.21,0,0,0-.41,4.67v7a3.68,3.68,0,0,1-.79,2.56,2.69,2.69,0,0,1-2,.85,2.53,2.53,0,0,1-2-.88,3.7,3.7,0,0,1-.78-2.53V250.21a3.52,3.52,0,0,1,.69-2.38,2.41,2.41,0,0,1,1.91-.79,2.58,2.58,0,0,1,1.33.34,2.52,2.52,0,0,1,1,1.05A3.65,3.65,0,0,1,650.34,250.13Z"/><path d="M685,266.64a17.4,17.4,0,0,1-3.93,2.37,10.88,10.88,0,0,1-4.25.79A8.17,8.17,0,0,1,673,269a6.31,6.31,0,0,1-2.51-2.31,6,6,0,0,1-.88-3.16,5.6,5.6,0,0,1,1.46-3.91,7.28,7.28,0,0,1,4-2.18l2.65-.55c1.41-.29,2.61-.55,3.62-.79s2.09-.53,3.27-.87a5.89,5.89,0,0,0-.89-3.25c-.53-.69-1.62-1-3.27-1a6.78,6.78,0,0,0-3.21.6,5.14,5.14,0,0,0-1.85,1.78,16.48,16.48,0,0,1-1.09,1.57,1.78,1.78,0,0,1-1.36.38,2.36,2.36,0,0,1-1.63-.61,2,2,0,0,1-.69-1.55,4.73,4.73,0,0,1,1-2.87,7.45,7.45,0,0,1,3.26-2.29,14.75,14.75,0,0,1,5.52-.91,15.6,15.6,0,0,1,5.8.88,5.39,5.39,0,0,1,3,2.75,11.94,11.94,0,0,1,.88,5c0,1.31,0,2.42,0,3.34s0,1.94,0,3.06a11.2,11.2,0,0,0,.52,3.29,10.16,10.16,0,0,1,.52,2.2,2.05,2.05,0,0,1-.81,1.57,2.72,2.72,0,0,1-1.83.71,2.48,2.48,0,0,1-1.71-.81A12,12,0,0,1,685,266.64Zm-.37-8.1a27.41,27.41,0,0,1-3.58.95c-1.56.34-2.65.59-3.25.74a4.48,4.48,0,0,0-1.72.93,2.33,2.33,0,0,0-.82,1.91,2.86,2.86,0,0,0,1,2.17,3.59,3.59,0,0,0,2.52.89,6.53,6.53,0,0,0,3.07-.73,4.8,4.8,0,0,0,2.06-1.88,8.49,8.49,0,0,0,.76-4.18Z"/><path d="M696,266.39V242.11a3.76,3.76,0,0,1,.75-2.54,2.54,2.54,0,0,1,2-.86,2.65,2.65,0,0,1,2.05.85,3.67,3.67,0,0,1,.78,2.55v24.28a3.68,3.68,0,0,1-.79,2.56,2.69,2.69,0,0,1-2,.85,2.52,2.52,0,0,1-2-.88A3.7,3.7,0,0,1,696,266.39Z"/><path d="M722.93,266.6v-.55a14.26,14.26,0,0,1-2.23,2.1,8.29,8.29,0,0,1-2.38,1.23,8.87,8.87,0,0,1-2.79.42,8.37,8.37,0,0,1-3.73-.85,8.72,8.72,0,0,1-3-2.43,11.23,11.23,0,0,1-1.9-3.71,15.92,15.92,0,0,1-.64-4.62q0-5.25,2.56-8.18a8.52,8.52,0,0,1,6.75-2.93,9,9,0,0,1,4.08.83,11.2,11.2,0,0,1,3.24,2.55V242.2a4.19,4.19,0,0,1,.69-2.61,2.31,2.31,0,0,1,2-.88,2.43,2.43,0,0,1,2,.81,3.61,3.61,0,0,1,.69,2.39V266.6a3.43,3.43,0,0,1-.74,2.4,2.49,2.49,0,0,1-1.91.8,2.45,2.45,0,0,1-1.89-.83A3.4,3.4,0,0,1,722.93,266.6Zm-11-8.22a9.56,9.56,0,0,0,.7,3.87,5.44,5.44,0,0,0,1.94,2.41,4.8,4.8,0,0,0,2.69.81,4.93,4.93,0,0,0,2.7-.77,5.25,5.25,0,0,0,1.94-2.36,9.4,9.4,0,0,0,.73-4,9.22,9.22,0,0,0-.73-3.85,5.75,5.75,0,0,0-2-2.46,4.65,4.65,0,0,0-2.71-.85,4.59,4.59,0,0,0-2.75.87,5.64,5.64,0,0,0-1.88,2.5A10.06,10.06,0,0,0,711.92,258.38Z"/><path d="M737.84,269.84a3.54,3.54,0,0,1-2.34-.83,2.89,2.89,0,0,1-1-2.33,2.83,2.83,0,0,1,1-2.17,3.28,3.28,0,0,1,2.28-.88,3.08,3.08,0,0,1,1.78.53,3.45,3.45,0,0,1,1.26,1.57,6.4,6.4,0,0,1,.45,2.55,8.71,8.71,0,0,1-.86,3.81,8.5,8.5,0,0,1-2.11,2.81,3.64,3.64,0,0,1-2.24,1,1.37,1.37,0,0,1-1-.42,1.39,1.39,0,0,1-.4-1,1.55,1.55,0,0,1,.84-1.36C737,272.29,737.84,271.18,737.84,269.84Z"/><path d="M763.67,261.72v4.67a3.59,3.59,0,0,1-.8,2.56,2.69,2.69,0,0,1-2,.85,2.59,2.59,0,0,1-2-.86,3.69,3.69,0,0,1-.78-2.55V250.81c0-2.52.91-3.77,2.73-3.77a2.27,2.27,0,0,1,2,.88,4.84,4.84,0,0,1,.68,2.6,9.66,9.66,0,0,1,2.06-2.6,4.23,4.23,0,0,1,2.82-.88,7.17,7.17,0,0,1,3.42.88,2.62,2.62,0,0,1,1.66,2.34,2.23,2.23,0,0,1-.7,1.69,2.2,2.2,0,0,1-1.53.66,6.6,6.6,0,0,1-1.49-.38,7,7,0,0,0-2.08-.38,3.05,3.05,0,0,0-2,.65,4.16,4.16,0,0,0-1.21,1.92,13.24,13.24,0,0,0-.59,3C763.73,258.61,763.67,260,763.67,261.72Z"/><path d="M791.3,259.79H780.35a7.36,7.36,0,0,0,.77,3.36,5.22,5.22,0,0,0,2,2.2,5.29,5.29,0,0,0,2.74.74,6.54,6.54,0,0,0,1.83-.24,5.84,5.84,0,0,0,1.61-.74,12.23,12.23,0,0,0,1.44-1.07c.44-.39,1-.91,1.7-1.56a1.83,1.83,0,0,1,1.23-.37,2,2,0,0,1,1.39.47,1.67,1.67,0,0,1,.54,1.33,3.64,3.64,0,0,1-.6,1.78,7.12,7.12,0,0,1-1.79,1.95,10.29,10.29,0,0,1-3,1.54,13,13,0,0,1-4.17.62q-5.38,0-8.39-3.08a11.47,11.47,0,0,1-3-8.34,14,14,0,0,1,.74-4.61,10.19,10.19,0,0,1,2.15-3.64A9.36,9.36,0,0,1,781,247.8a12.5,12.5,0,0,1,4.59-.81,10.93,10.93,0,0,1,5.63,1.39,9.09,9.09,0,0,1,3.52,3.58,9.38,9.38,0,0,1,1.17,4.47c0,1.41-.41,2.32-1.21,2.74A7.69,7.69,0,0,1,791.3,259.79Zm-10.95-3.18H790.5a6.73,6.73,0,0,0-1.55-4.29,4.62,4.62,0,0,0-3.53-1.43,4.47,4.47,0,0,0-3.44,1.45A7.14,7.14,0,0,0,780.35,256.61Z"/><path d="M819.46,258.83v7.44a3.8,3.8,0,0,1-.8,2.65,2.69,2.69,0,0,1-2.11.88,2.63,2.63,0,0,1-2.06-.88,3.85,3.85,0,0,1-.79-2.65v-8.92a30.16,30.16,0,0,0-.14-3.28,3.63,3.63,0,0,0-.78-1.92,2.51,2.51,0,0,0-2-.75c-1.83,0-3,.63-3.62,1.89a13.32,13.32,0,0,0-.87,5.41v7.57a3.93,3.93,0,0,1-.79,2.64,2.66,2.66,0,0,1-2.08.89,2.71,2.71,0,0,1-2.09-.89,3.83,3.83,0,0,1-.81-2.64v-16a3.51,3.51,0,0,1,.73-2.4,2.45,2.45,0,0,1,1.92-.82,2.62,2.62,0,0,1,1.92.76,2.9,2.9,0,0,1,.77,2.13v.53A9.71,9.71,0,0,1,809,247.9a8.21,8.21,0,0,1,3.7-.82,7.43,7.43,0,0,1,3.63.84,6.64,6.64,0,0,1,2.5,2.54,9.6,9.6,0,0,1,3-2.55,7.68,7.68,0,0,1,3.59-.83,8.21,8.21,0,0,1,4,.9,5.73,5.73,0,0,1,2.48,2.58,11.82,11.82,0,0,1,.72,4.78v10.93a3.85,3.85,0,0,1-.8,2.65,2.93,2.93,0,0,1-4.2,0,3.83,3.83,0,0,1-.81-2.64v-9.41a22.06,22.06,0,0,0-.15-2.89,3.3,3.3,0,0,0-.83-1.83,2.65,2.65,0,0,0-2-.74,3.72,3.72,0,0,0-2.1.66,4.48,4.48,0,0,0-1.55,1.76A14,14,0,0,0,819.46,258.83Z"/><path d="M853.84,259.79h-11a7.36,7.36,0,0,0,.77,3.36,5.15,5.15,0,0,0,4.72,2.94,6.61,6.61,0,0,0,1.84-.24,6,6,0,0,0,1.61-.74,12.23,12.23,0,0,0,1.44-1.07l1.7-1.56a1.81,1.81,0,0,1,1.23-.37,2,2,0,0,1,1.39.47,1.67,1.67,0,0,1,.54,1.33,3.64,3.64,0,0,1-.6,1.78,7.29,7.29,0,0,1-1.79,1.95,10.29,10.29,0,0,1-3,1.54,13,13,0,0,1-4.17.62c-3.6,0-6.39-1-8.39-3.08a11.47,11.47,0,0,1-3-8.34,13.76,13.76,0,0,1,.74-4.61,10.19,10.19,0,0,1,2.15-3.64,9.32,9.32,0,0,1,3.48-2.33,12.59,12.59,0,0,1,4.6-.81,10.93,10.93,0,0,1,5.63,1.39,9.09,9.09,0,0,1,3.52,3.58,9.49,9.49,0,0,1,1.16,4.47c0,1.41-.4,2.32-1.21,2.74A7.61,7.61,0,0,1,853.84,259.79Zm-11-3.18H853a6.79,6.79,0,0,0-1.55-4.29,4.63,4.63,0,0,0-3.54-1.43,4.45,4.45,0,0,0-3.43,1.45A7.14,7.14,0,0,0,842.89,256.61Z"/><path d="M882,258.83v7.44a3.8,3.8,0,0,1-.8,2.65,2.7,2.7,0,0,1-2.11.88,2.61,2.61,0,0,1-2.06-.88,3.85,3.85,0,0,1-.79-2.65v-8.92a30.16,30.16,0,0,0-.14-3.28,3.63,3.63,0,0,0-.78-1.92,2.51,2.51,0,0,0-2-.75c-1.84,0-3,.63-3.62,1.89a13.32,13.32,0,0,0-.87,5.41v7.57a3.93,3.93,0,0,1-.79,2.64,2.67,2.67,0,0,1-2.09.89,2.71,2.71,0,0,1-2.08-.89,3.83,3.83,0,0,1-.81-2.64v-16a3.46,3.46,0,0,1,.73-2.4,2.45,2.45,0,0,1,1.92-.82,2.63,2.63,0,0,1,1.92.76,2.89,2.89,0,0,1,.76,2.13v.53a9.74,9.74,0,0,1,3.12-2.56,8.19,8.19,0,0,1,3.69-.82,7.38,7.38,0,0,1,3.63.84,6.66,6.66,0,0,1,2.51,2.54,9.6,9.6,0,0,1,3-2.55,7.68,7.68,0,0,1,3.59-.83,8.21,8.21,0,0,1,4,.9,5.78,5.78,0,0,1,2.48,2.58,11.82,11.82,0,0,1,.72,4.78v10.93a3.85,3.85,0,0,1-.8,2.65,2.93,2.93,0,0,1-4.2,0,3.83,3.83,0,0,1-.81-2.64v-9.41a22.06,22.06,0,0,0-.15-2.89,3.3,3.3,0,0,0-.83-1.83,2.66,2.66,0,0,0-2.05-.74,3.72,3.72,0,0,0-2.1.66,4.48,4.48,0,0,0-1.55,1.76A14,14,0,0,0,882,258.83Z"/><path d="M905.92,241.91v8.55a12.88,12.88,0,0,1,3.22-2.51,8.59,8.59,0,0,1,4.06-.87,9,9,0,0,1,4.89,1.32,8.68,8.68,0,0,1,3.26,3.83,14.18,14.18,0,0,1,1.16,6,16,16,0,0,1-.65,4.67,11.11,11.11,0,0,1-1.87,3.68,8.5,8.5,0,0,1-3,2.41,8.81,8.81,0,0,1-3.86.85,9.09,9.09,0,0,1-2.43-.31,6.78,6.78,0,0,1-1.94-.81,8.62,8.62,0,0,1-1.36-1c-.38-.36-.88-.89-1.49-1.6v.55a3.36,3.36,0,0,1-.76,2.39,2.54,2.54,0,0,1-1.93.81,2.38,2.38,0,0,1-1.89-.81,3.5,3.5,0,0,1-.71-2.39V242.15a4.15,4.15,0,0,1,.68-2.57,2.31,2.31,0,0,1,1.92-.87,2.46,2.46,0,0,1,2,.83A3.55,3.55,0,0,1,905.92,241.91Zm.27,16.63a7.71,7.71,0,0,0,1.52,5.14,5,5,0,0,0,4,1.79,4.61,4.61,0,0,0,3.64-1.83,8,8,0,0,0,1.53-5.26,10.22,10.22,0,0,0-.64-3.82,5.53,5.53,0,0,0-1.8-2.47,4.45,4.45,0,0,0-2.73-.87,4.9,4.9,0,0,0-2.85.87,5.82,5.82,0,0,0-2,2.52A9.79,9.79,0,0,0,906.19,258.54Z"/><path d="M942.84,259.79h-11a7.36,7.36,0,0,0,.77,3.36,5.15,5.15,0,0,0,2,2.2,5.23,5.23,0,0,0,2.73.74,6.61,6.61,0,0,0,1.84-.24,6,6,0,0,0,1.61-.74,11.33,11.33,0,0,0,1.43-1.07q.66-.59,1.71-1.56a1.79,1.79,0,0,1,1.23-.37,2,2,0,0,1,1.39.47,1.66,1.66,0,0,1,.53,1.33,3.61,3.61,0,0,1-.59,1.78,7.46,7.46,0,0,1-1.79,1.95,10.42,10.42,0,0,1-3,1.54,13,13,0,0,1-4.17.62c-3.6,0-6.39-1-8.39-3.08a11.42,11.42,0,0,1-3-8.34,14,14,0,0,1,.73-4.61,10.21,10.21,0,0,1,2.16-3.64,9.32,9.32,0,0,1,3.48-2.33,12.55,12.55,0,0,1,4.6-.81,11,11,0,0,1,5.63,1.39,9.07,9.07,0,0,1,3.51,3.58,9.38,9.38,0,0,1,1.17,4.47c0,1.41-.4,2.32-1.21,2.74A7.61,7.61,0,0,1,942.84,259.79Zm-11-3.18H942a6.84,6.84,0,0,0-1.55-4.29,4.64,4.64,0,0,0-3.54-1.43,4.45,4.45,0,0,0-3.43,1.45A7.14,7.14,0,0,0,931.89,256.61Z"/><path d="M957.94,261.72v4.67a3.64,3.64,0,0,1-.8,2.56,2.7,2.7,0,0,1-2,.85,2.57,2.57,0,0,1-2-.86,3.69,3.69,0,0,1-.78-2.55V250.81c0-2.52.91-3.77,2.73-3.77a2.27,2.27,0,0,1,2,.88,4.84,4.84,0,0,1,.67,2.6,9.86,9.86,0,0,1,2.06-2.6,4.27,4.27,0,0,1,2.82-.88,7.21,7.21,0,0,1,3.43.88,2.62,2.62,0,0,1,1.66,2.34A2.24,2.24,0,0,1,967,252a2.2,2.2,0,0,1-1.53.66,6.57,6.57,0,0,1-1.48-.38,7,7,0,0,0-2.08-.38,3,3,0,0,0-2,.65,4.08,4.08,0,0,0-1.21,1.92,13.21,13.21,0,0,0-.6,3C958,258.61,957.94,260,957.94,261.72Z"/><path d="M971,250.09a2.82,2.82,0,0,1,.91-2.25,3.37,3.37,0,0,1,4.36,0,3,3,0,0,1-.09,4.36,3,3,0,0,1-2.13,1,2.89,2.89,0,0,1-2.15-.93A3,3,0,0,1,971,250.09Zm3.11,19.71A3.15,3.15,0,0,1,972,269a2.9,2.9,0,0,1-.92-2.3,3,3,0,0,1,.88-2.15,2.92,2.92,0,0,1,2.17-.9,3,3,0,0,1,2.21.89,2.92,2.92,0,0,1,.91,2.16,3,3,0,0,1-.91,2.29A3.12,3.12,0,0,1,974.14,269.8Z"/><path d="M540.4,316.88V298.21q-5.22,4-7,4a2.08,2.08,0,0,1-1.53-.68,2.23,2.23,0,0,1-.66-1.59,1.82,1.82,0,0,1,.65-1.54,14.51,14.51,0,0,1,2.32-1.27,17.23,17.23,0,0,0,4-2.46,16.76,16.76,0,0,0,2.63-2.89c.77-1.07,1.27-1.73,1.5-2a1.77,1.77,0,0,1,1.31-.37,2.11,2.11,0,0,1,1.75.84,3.72,3.72,0,0,1,.65,2.32v23.48c0,2.75-.93,4.12-2.81,4.12a2.59,2.59,0,0,1-2-.84A3.62,3.62,0,0,1,540.4,316.88Z"/><path d="M557.2,300.49a2.82,2.82,0,0,1,.91-2.25,3.19,3.19,0,0,1,2.2-.8,3.12,3.12,0,0,1,2.16.81,2.85,2.85,0,0,1,.9,2.24,2.89,2.89,0,0,1-1,2.11,3,3,0,0,1-2.13,1,2.89,2.89,0,0,1-2.15-.93A3,3,0,0,1,557.2,300.49Zm3.11,19.71a3.17,3.17,0,0,1-2.19-.82,2.9,2.9,0,0,1-.92-2.3,3,3,0,0,1,.88-2.15,2.92,2.92,0,0,1,2.17-.9,3,3,0,0,1,2.21.89,2.92,2.92,0,0,1,.91,2.16,3,3,0,0,1-.91,2.29A3.12,3.12,0,0,1,560.31,320.2Z"/><path d="M584.83,289.62h7.94a21.07,21.07,0,0,1,5.31.58,9.84,9.84,0,0,1,4,2.15q4.7,4,4.69,12.22a23.55,23.55,0,0,1-.47,4.94,14.46,14.46,0,0,1-1.45,4,12.42,12.42,0,0,1-2.53,3.21,10.19,10.19,0,0,1-2.64,1.75,12.44,12.44,0,0,1-3.09.92,23.18,23.18,0,0,1-3.72.27H585a4.92,4.92,0,0,1-2.5-.51,2.31,2.31,0,0,1-1.1-1.41,9.09,9.09,0,0,1-.25-2.37v-22a3.91,3.91,0,0,1,.88-2.85A4,4,0,0,1,584.83,289.62Zm2.36,4.82v20.41h4.61c1,0,1.81,0,2.38-.09a7.19,7.19,0,0,0,1.79-.41,4.79,4.79,0,0,0,1.6-.92q3-2.58,3-8.9,0-4.45-1.34-6.66a6,6,0,0,0-3.31-2.82,16.15,16.15,0,0,0-4.76-.61Z"/><path d="M632.93,308.82a13.2,13.2,0,0,1-.78,4.61,10.1,10.1,0,0,1-2.26,3.63,9.94,9.94,0,0,1-3.53,2.33,12.42,12.42,0,0,1-4.61.81,12,12,0,0,1-4.57-.82,10.12,10.12,0,0,1-3.52-2.35,10.28,10.28,0,0,1-2.26-3.61,14.22,14.22,0,0,1,0-9.26,10.16,10.16,0,0,1,2.24-3.61,9.74,9.74,0,0,1,3.53-2.3,13.33,13.33,0,0,1,9.18,0,9.93,9.93,0,0,1,3.55,2.33,10.25,10.25,0,0,1,2.25,3.61A13.41,13.41,0,0,1,632.93,308.82Zm-5.62,0a8.41,8.41,0,0,0-1.51-5.33,4.89,4.89,0,0,0-4-1.91,5,5,0,0,0-2.89.85,5.34,5.34,0,0,0-1.93,2.51,10.26,10.26,0,0,0-.68,3.88,10,10,0,0,0,.67,3.83,5.49,5.49,0,0,0,1.91,2.52,5.27,5.27,0,0,0,7-1.05A8.41,8.41,0,0,0,627.31,308.82Z"/><path d="M642.63,300.53v.68a9.85,9.85,0,0,1,3.23-2.86,8.58,8.58,0,0,1,4-.91,8.06,8.06,0,0,1,4,1,6.07,6.07,0,0,1,2.6,2.73,6.45,6.45,0,0,1,.72,2.21,23,23,0,0,1,.16,3V316.8a3.72,3.72,0,0,1-.76,2.54,2.77,2.77,0,0,1-4,0,3.69,3.69,0,0,1-.78-2.52v-9.34a9.36,9.36,0,0,0-.77-4.23,3.13,3.13,0,0,0-3.07-1.47,4.52,4.52,0,0,0-2.73.9,5.07,5.07,0,0,0-1.8,2.45,17.64,17.64,0,0,0-.41,4.67v7a3.62,3.62,0,0,1-.79,2.55,2.66,2.66,0,0,1-2,.85,2.53,2.53,0,0,1-2-.88,3.69,3.69,0,0,1-.78-2.52V300.61a3.47,3.47,0,0,1,.7-2.38,2.4,2.4,0,0,1,1.91-.79,2.42,2.42,0,0,1,2.28,1.39A3.68,3.68,0,0,1,642.63,300.53Z"/><path d="M666.92,295.32h-.31a2.87,2.87,0,0,1-2.08-.93,3,3,0,0,1-.94-2.2,2.92,2.92,0,0,1,.94-2.2,3.21,3.21,0,0,1,2.3-.88,3.17,3.17,0,0,1,1.77.54,3.54,3.54,0,0,1,1.27,1.58,6.36,6.36,0,0,1,.45,2.53,8.65,8.65,0,0,1-.86,3.81,8.38,8.38,0,0,1-2.1,2.81,3.69,3.69,0,0,1-2.25,1,1.37,1.37,0,0,1-1-.4,1.3,1.3,0,0,1-.4-1,1.41,1.41,0,0,1,.84-1.35,6.27,6.27,0,0,0,1.7-1.4A3.43,3.43,0,0,0,666.92,295.32Z"/><path d="M677.3,297.93h.61v-3.37c0-.9,0-1.61.08-2.12a3,3,0,0,1,.4-1.32,2.47,2.47,0,0,1,.94-.93,2.67,2.67,0,0,1,1.37-.36,2.74,2.74,0,0,1,1.93.8,2.36,2.36,0,0,1,.73,1.3,12.08,12.08,0,0,1,.15,2.18v3.82h2a2.66,2.66,0,0,1,1.82.56,1.89,1.89,0,0,1,.62,1.45,1.61,1.61,0,0,1-.89,1.58,5.77,5.77,0,0,1-2.55.45h-1v10.29a14.79,14.79,0,0,0,.1,2,2,2,0,0,0,.49,1.15,1.65,1.65,0,0,0,1.3.44,7.37,7.37,0,0,0,1.33-.17,6.73,6.73,0,0,1,1.31-.18,1.72,1.72,0,0,1,1.23.55,1.82,1.82,0,0,1,.54,1.34,2.25,2.25,0,0,1-1.48,2.07,9.93,9.93,0,0,1-4.24.72,7.32,7.32,0,0,1-4-.88,4.11,4.11,0,0,1-1.78-2.44,16.62,16.62,0,0,1-.42-4.17V302h-.73a2.63,2.63,0,0,1-1.85-.58,1.87,1.87,0,0,1-.64-1.45,1.84,1.84,0,0,1,.67-1.45A3,3,0,0,1,677.3,297.93Z"/><path d="M722.86,313.27a4.8,4.8,0,0,1-.63,2.23,7.61,7.61,0,0,1-1.91,2.27,9.8,9.8,0,0,1-3.23,1.73,13.61,13.61,0,0,1-4.38.66q-5.19,0-8.11-3a11.2,11.2,0,0,1-2.91-8.11,13.38,13.38,0,0,1,1.34-6.09,9.51,9.51,0,0,1,3.85-4.09,12,12,0,0,1,6-1.45,12.1,12.1,0,0,1,4,.64,10.46,10.46,0,0,1,3.08,1.64,7.89,7.89,0,0,1,1.92,2.14,4.21,4.21,0,0,1,.67,2.13,2.24,2.24,0,0,1-.75,1.7,2.58,2.58,0,0,1-1.81.7,1.83,1.83,0,0,1-1.16-.36,5.66,5.66,0,0,1-1-1.16,8.5,8.5,0,0,0-2.14-2.34,5.26,5.26,0,0,0-6.84,1.16,8.39,8.39,0,0,0-1.52,5.3,10.22,10.22,0,0,0,.39,2.9,6.66,6.66,0,0,0,1.13,2.26,4.85,4.85,0,0,0,1.78,1.41,5.33,5.33,0,0,0,2.3.49,5.17,5.17,0,0,0,2.88-.78,6.82,6.82,0,0,0,2.12-2.38,5.65,5.65,0,0,1,1.11-1.48,2.13,2.13,0,0,1,1.46-.53,2.16,2.16,0,0,1,1.7.78A2.5,2.5,0,0,1,722.86,313.27Z"/><path d="M742.1,317a17.85,17.85,0,0,1-3.93,2.37,10.88,10.88,0,0,1-4.25.79,8.05,8.05,0,0,1-3.79-.85,6.24,6.24,0,0,1-2.51-2.31,6,6,0,0,1-.88-3.16,5.64,5.64,0,0,1,1.45-3.91,7.31,7.31,0,0,1,4-2.18l2.65-.55c1.41-.29,2.61-.55,3.62-.79s2.09-.53,3.27-.87a5.89,5.89,0,0,0-.89-3.25c-.53-.69-1.62-1-3.27-1a6.72,6.72,0,0,0-3.21.6,5.14,5.14,0,0,0-1.85,1.78,18.65,18.65,0,0,1-1.09,1.57,1.78,1.78,0,0,1-1.36.38,2.36,2.36,0,0,1-1.63-.61,2,2,0,0,1-.69-1.55,4.73,4.73,0,0,1,1-2.87,7.45,7.45,0,0,1,3.26-2.29,14.71,14.71,0,0,1,5.52-.91,15.6,15.6,0,0,1,5.8.88,5.39,5.39,0,0,1,3,2.75,12.11,12.11,0,0,1,.87,5c0,1.31,0,2.43,0,3.34s0,1.94,0,3.06a11.23,11.23,0,0,0,.53,3.29,10.16,10.16,0,0,1,.52,2.2,2.05,2.05,0,0,1-.81,1.57,2.72,2.72,0,0,1-1.84.71,2.48,2.48,0,0,1-1.7-.81A12,12,0,0,1,742.1,317Zm-.37-8.1a27.86,27.86,0,0,1-3.58.95c-1.57.34-2.65.59-3.25.74a4.41,4.41,0,0,0-1.72.93,2.33,2.33,0,0,0-.82,1.91,2.86,2.86,0,0,0,1,2.17,3.57,3.57,0,0,0,2.52.89,6.53,6.53,0,0,0,3.07-.73,4.85,4.85,0,0,0,2.06-1.88,8.49,8.49,0,0,0,.76-4.18Z"/><path d="M753.12,316.8V292.51a3.78,3.78,0,0,1,.74-2.54,2.56,2.56,0,0,1,2-.86,2.62,2.62,0,0,1,2,.85,3.67,3.67,0,0,1,.78,2.55V316.8a3.62,3.62,0,0,1-.79,2.55,2.63,2.63,0,0,1-2,.85,2.53,2.53,0,0,1-2-.88A3.74,3.74,0,0,1,753.12,316.8Z"/><path d="M764.71,316.8V292.51a3.78,3.78,0,0,1,.75-2.54,2.54,2.54,0,0,1,2-.86,2.65,2.65,0,0,1,2,.85,3.67,3.67,0,0,1,.78,2.55V316.8a3.67,3.67,0,0,1-.79,2.55,2.66,2.66,0,0,1-2,.85,2.52,2.52,0,0,1-2-.88A3.69,3.69,0,0,1,764.71,316.8Z"/><path d="M795.58,306.83h-2.13v9.66a4,4,0,0,1-.84,2.81,2.86,2.86,0,0,1-2.2.9,2.81,2.81,0,0,1-2.25-.94,4.16,4.16,0,0,1-.8-2.77V293.35a3.91,3.91,0,0,1,.88-2.85,4,4,0,0,1,2.85-.88H801a29.1,29.1,0,0,1,3.5.18,8.84,8.84,0,0,1,2.63.7,7.63,7.63,0,0,1,2.5,1.71,7.46,7.46,0,0,1,1.65,2.57,8.49,8.49,0,0,1,.56,3.11,7.52,7.52,0,0,1-1.89,5.37,10.9,10.9,0,0,1-5.75,2.85,11,11,0,0,1,3.09,2.54,26.21,26.21,0,0,1,2.64,3.58,26.94,26.94,0,0,1,1.8,3.43,6.86,6.86,0,0,1,.65,2.1,2.17,2.17,0,0,1-.38,1.18,2.58,2.58,0,0,1-1,.92,3.17,3.17,0,0,1-1.51.34,3,3,0,0,1-1.73-.48,4.8,4.8,0,0,1-1.2-1.22c-.33-.49-.79-1.22-1.36-2.18l-2.44-4.06a22.7,22.7,0,0,0-2.35-3.4,5.82,5.82,0,0,0-2.1-1.6A7.18,7.18,0,0,0,795.58,306.83Zm3.49-12.63h-5.62v8.26h5.45a15.48,15.48,0,0,0,3.7-.38,4.28,4.28,0,0,0,2.28-1.29,3.7,3.7,0,0,0,.79-2.51,3.76,3.76,0,0,0-2.4-3.63A12.69,12.69,0,0,0,799.07,294.2Z"/><path d="M830.92,317v-.72a12.6,12.6,0,0,1-2.11,2.14,7.94,7.94,0,0,1-2.42,1.28,9.82,9.82,0,0,1-3,.42,7.72,7.72,0,0,1-3.64-.84,6.17,6.17,0,0,1-2.5-2.32,10.35,10.35,0,0,1-1-5.13V300.78a3.59,3.59,0,0,1,.76-2.51,2.55,2.55,0,0,1,2-.83,2.68,2.68,0,0,1,2,.84,3.55,3.55,0,0,1,.78,2.5v9a14.33,14.33,0,0,0,.32,3.27,4,4,0,0,0,1.18,2.07,3.38,3.38,0,0,0,2.31.75,4.73,4.73,0,0,0,2.67-.84,4.9,4.9,0,0,0,1.82-2.19,17.5,17.5,0,0,0,.47-5.21v-6.81a3.55,3.55,0,0,1,.78-2.5,2.65,2.65,0,0,1,2-.84,2.55,2.55,0,0,1,2,.83,3.59,3.59,0,0,1,.76,2.51V317a3.43,3.43,0,0,1-.73,2.4,2.42,2.42,0,0,1-1.87.8,2.46,2.46,0,0,1-1.9-.83A3.35,3.35,0,0,1,830.92,317Z"/><path d="M860,312.88a6.5,6.5,0,0,1-4.46,6.47,14.9,14.9,0,0,1-5.37.85,13.11,13.11,0,0,1-5.16-.92,7.55,7.55,0,0,1-3.18-2.31,4.61,4.61,0,0,1-1-2.78,2.16,2.16,0,0,1,.66-1.58,2.22,2.22,0,0,1,1.66-.65,1.9,1.9,0,0,1,1.35.43,4.33,4.33,0,0,1,.9,1.21,6.15,6.15,0,0,0,2.07,2.23,6.21,6.21,0,0,0,3.27.74,4.73,4.73,0,0,0,2.76-.75,2.12,2.12,0,0,0,1.07-1.71,2.31,2.31,0,0,0-1.12-2.15,13.38,13.38,0,0,0-3.68-1.3,31.29,31.29,0,0,1-4.7-1.5,7.79,7.79,0,0,1-2.91-2.09A4.78,4.78,0,0,1,841,303.9a5.56,5.56,0,0,1,1-3.18,6.84,6.84,0,0,1,3-2.39,11.23,11.23,0,0,1,4.72-.89,15.62,15.62,0,0,1,3.91.45,9.64,9.64,0,0,1,2.89,1.21,5.81,5.81,0,0,1,1.76,1.68,3.24,3.24,0,0,1,.61,1.8,2.08,2.08,0,0,1-.65,1.58,2.55,2.55,0,0,1-1.83.62,2.29,2.29,0,0,1-1.47-.49,10.34,10.34,0,0,1-1.38-1.48,5,5,0,0,0-1.5-1.31,4.67,4.67,0,0,0-2.34-.5,4.58,4.58,0,0,0-2.52.65,1.88,1.88,0,0,0-1,1.61,1.75,1.75,0,0,0,.73,1.45,6.47,6.47,0,0,0,2,.93c.84.24,2,.55,3.45.9a18.17,18.17,0,0,1,4.25,1.52,7,7,0,0,1,2.5,2.08A4.6,4.6,0,0,1,860,312.88Z"/><path d="M883,312.88a6.5,6.5,0,0,1-4.46,6.47,14.88,14.88,0,0,1-5.36.85,13.17,13.17,0,0,1-5.17-.92,7.55,7.55,0,0,1-3.18-2.31,4.68,4.68,0,0,1-1-2.78,2.16,2.16,0,0,1,.66-1.58,2.24,2.24,0,0,1,1.66-.65,2,2,0,0,1,1.36.43,4.75,4.75,0,0,1,.9,1.21,6.12,6.12,0,0,0,2.06,2.23,6.23,6.23,0,0,0,3.27.74,4.73,4.73,0,0,0,2.76-.75,2.09,2.09,0,0,0,1.07-1.71,2.32,2.32,0,0,0-1.11-2.15,13.51,13.51,0,0,0-3.68-1.3,31.46,31.46,0,0,1-4.71-1.5,7.67,7.67,0,0,1-2.9-2.09A4.73,4.73,0,0,1,864,303.9a5.58,5.58,0,0,1,1-3.18,6.81,6.81,0,0,1,3-2.39,11.25,11.25,0,0,1,4.73-.89,15.48,15.48,0,0,1,3.9.45,9.53,9.53,0,0,1,2.89,1.21,5.85,5.85,0,0,1,1.77,1.68,3.3,3.3,0,0,1,.6,1.8,2.07,2.07,0,0,1-.64,1.58,2.58,2.58,0,0,1-1.84.62,2.32,2.32,0,0,1-1.47-.49,10.34,10.34,0,0,1-1.38-1.48,4.8,4.8,0,0,0-1.5-1.31,4.66,4.66,0,0,0-2.33-.5,4.59,4.59,0,0,0-2.53.65,1.88,1.88,0,0,0-1,1.61,1.73,1.73,0,0,0,.74,1.45,6.26,6.26,0,0,0,2,.93c.83.24,2,.55,3.44.9a18.1,18.1,0,0,1,4.26,1.52,7.11,7.11,0,0,1,2.5,2.08A4.59,4.59,0,0,1,883,312.88Z"/><path d="M890.74,294.83a2.94,2.94,0,0,1-2-.72,2.79,2.79,0,0,1,0-4,2.87,2.87,0,0,1,2-.76,3,3,0,0,1,1.93.69,2.49,2.49,0,0,1,.84,2,2.58,2.58,0,0,1-.82,2A2.83,2.83,0,0,1,890.74,294.83Zm2.77,5.78V316.8a3.63,3.63,0,0,1-.8,2.54,2.67,2.67,0,0,1-2,.86,2.52,2.52,0,0,1-2-.88,3.69,3.69,0,0,1-.77-2.52v-16a3.55,3.55,0,0,1,.77-2.5,2.58,2.58,0,0,1,2-.84,2.69,2.69,0,0,1,2,.84A3.26,3.26,0,0,1,893.51,300.61Z"/><path d="M913.65,317a17.4,17.4,0,0,1-3.93,2.37,10.88,10.88,0,0,1-4.25.79,8.05,8.05,0,0,1-3.79-.85,6.31,6.31,0,0,1-2.51-2.31,6,6,0,0,1-.88-3.16,5.6,5.6,0,0,1,1.46-3.91,7.28,7.28,0,0,1,4-2.18l2.65-.55c1.41-.29,2.61-.55,3.62-.79s2.09-.53,3.27-.87a5.89,5.89,0,0,0-.89-3.25c-.53-.69-1.62-1-3.27-1a6.75,6.75,0,0,0-3.21.6,5.14,5.14,0,0,0-1.85,1.78,16.48,16.48,0,0,1-1.09,1.57,1.78,1.78,0,0,1-1.36.38A2.36,2.36,0,0,1,900,305a2,2,0,0,1-.69-1.55,4.73,4.73,0,0,1,1.05-2.87,7.45,7.45,0,0,1,3.26-2.29,14.75,14.75,0,0,1,5.52-.91,15.6,15.6,0,0,1,5.8.88,5.39,5.39,0,0,1,3,2.75,11.94,11.94,0,0,1,.88,5c0,1.31,0,2.43,0,3.34s0,1.94,0,3.06a11.2,11.2,0,0,0,.52,3.29,10.16,10.16,0,0,1,.52,2.2,2.05,2.05,0,0,1-.81,1.57,2.72,2.72,0,0,1-1.83.71,2.48,2.48,0,0,1-1.71-.81A12,12,0,0,1,913.65,317Zm-.37-8.1a27.41,27.41,0,0,1-3.58.95c-1.56.34-2.65.59-3.25.74a4.48,4.48,0,0,0-1.72.93,2.33,2.33,0,0,0-.82,1.91,2.86,2.86,0,0,0,1,2.17,3.59,3.59,0,0,0,2.52.89,6.53,6.53,0,0,0,3.07-.73,4.8,4.8,0,0,0,2.06-1.88,8.49,8.49,0,0,0,.76-4.18Z"/><path d="M324.12,365.25h10.71a3.9,3.9,0,0,1,2.44.65,2.15,2.15,0,0,1,.84,1.79,2.35,2.35,0,0,1-.67,1.7,2.69,2.69,0,0,1-2,.7H320.33a3.25,3.25,0,0,1-2.4-.86,2.67,2.67,0,0,1-.86-2,5,5,0,0,1,.55-2,6.83,6.83,0,0,1,1.21-1.92c1.82-1.89,3.46-3.5,4.92-4.85a33.73,33.73,0,0,1,3.14-2.66,18.22,18.22,0,0,0,2.8-2.39,9.64,9.64,0,0,0,1.7-2.46,5.84,5.84,0,0,0,.59-2.47,4.47,4.47,0,0,0-.63-2.35,4.39,4.39,0,0,0-1.7-1.61,5,5,0,0,0-2.35-.57,4.79,4.79,0,0,0-4.22,2.36,9.35,9.35,0,0,0-.69,1.68,6.75,6.75,0,0,1-1.09,2.11,2.15,2.15,0,0,1-1.77.74,2.26,2.26,0,0,1-1.7-.68,2.48,2.48,0,0,1-.68-1.84,7.56,7.56,0,0,1,.64-2.95,8.32,8.32,0,0,1,1.89-2.79,9.28,9.28,0,0,1,3.2-2,12.13,12.13,0,0,1,4.54-.77,13.26,13.26,0,0,1,5.36,1,8.17,8.17,0,0,1,2.52,1.81,8.33,8.33,0,0,1,1.69,2.65,8.42,8.42,0,0,1,.61,3.13,8.65,8.65,0,0,1-1.27,4.62,14.32,14.32,0,0,1-2.57,3.27q-1.31,1.17-4.4,3.7a32.2,32.2,0,0,0-4.23,3.91A11.38,11.38,0,0,0,324.12,365.25Z"/><path d="M346.52,370.6a3.15,3.15,0,0,1-2.19-.82,2.91,2.91,0,0,1-.93-2.3,3,3,0,0,1,.89-2.15,2.9,2.9,0,0,1,2.17-.9,3,3,0,0,1,2.2.89,2.9,2.9,0,0,1,.92,2.16,3,3,0,0,1-.92,2.29A3.08,3.08,0,0,1,346.52,370.6Z"/><path d="M371,340H379a21.1,21.1,0,0,1,5.32.58,9.84,9.84,0,0,1,4,2.15q4.69,4,4.69,12.22a24.24,24.24,0,0,1-.47,4.94,14.27,14.27,0,0,1-1.46,4,12.17,12.17,0,0,1-2.52,3.21,10.36,10.36,0,0,1-2.64,1.75,12.44,12.44,0,0,1-3.09.92,23.18,23.18,0,0,1-3.72.27h-7.94a4.89,4.89,0,0,1-2.5-.51,2.31,2.31,0,0,1-1.1-1.41,9.09,9.09,0,0,1-.25-2.37V343.75a3.91,3.91,0,0,1,.88-2.85A4,4,0,0,1,371,340Zm2.36,4.82v20.41H378c1,0,1.81,0,2.38-.09a7.12,7.12,0,0,0,1.78-.41,4.6,4.6,0,0,0,1.6-.92q3.06-2.58,3.06-8.9,0-4.46-1.34-6.66a6,6,0,0,0-3.32-2.82,16,16,0,0,0-4.75-.61Z"/><path d="M419.13,359.22a13.24,13.24,0,0,1-.78,4.61,10.21,10.21,0,0,1-2.25,3.63,10,10,0,0,1-3.53,2.33,12.46,12.46,0,0,1-4.61.81,12.1,12.1,0,0,1-4.58-.82,10.14,10.14,0,0,1-5.77-6,14.22,14.22,0,0,1,0-9.26,10.16,10.16,0,0,1,2.24-3.61,9.94,9.94,0,0,1,3.52-2.31,12.69,12.69,0,0,1,4.58-.8,12.36,12.36,0,0,1,4.61.82,10,10,0,0,1,3.55,2.33,10.4,10.4,0,0,1,2.25,3.61A13.41,13.41,0,0,1,419.13,359.22Zm-5.62,0a8.46,8.46,0,0,0-1.5-5.34A4.91,4.91,0,0,0,408,352a5,5,0,0,0-2.89.85,5.34,5.34,0,0,0-1.93,2.51,10.26,10.26,0,0,0-.68,3.88,10,10,0,0,0,.67,3.83,5.41,5.41,0,0,0,1.91,2.51,5.25,5.25,0,0,0,7-1A8.41,8.41,0,0,0,413.51,359.22Z"/><path d="M428.84,350.93v.68a9.75,9.75,0,0,1,3.23-2.86,8.58,8.58,0,0,1,4-.91,8.09,8.09,0,0,1,4,1,6.07,6.07,0,0,1,2.6,2.73,6.45,6.45,0,0,1,.72,2.21,23,23,0,0,1,.16,3v10.41a3.69,3.69,0,0,1-.77,2.55,2.57,2.57,0,0,1-2,.86,2.61,2.61,0,0,1-2-.88,3.7,3.7,0,0,1-.78-2.53v-9.33a9.38,9.38,0,0,0-.76-4.23,3.14,3.14,0,0,0-3.07-1.47,4.57,4.57,0,0,0-2.73.89,5.15,5.15,0,0,0-1.8,2.46,17.21,17.21,0,0,0-.41,4.67v7a3.68,3.68,0,0,1-.79,2.56,2.69,2.69,0,0,1-2,.85,2.56,2.56,0,0,1-2-.88,3.7,3.7,0,0,1-.78-2.53V351a3.47,3.47,0,0,1,.7-2.38,2.39,2.39,0,0,1,1.9-.79,2.62,2.62,0,0,1,1.34.34,2.56,2.56,0,0,1,1,1.05A3.65,3.65,0,0,1,428.84,350.93Z"/><path d="M453.12,345.72h-.3a2.87,2.87,0,0,1-2.08-.93,3,3,0,0,1-.94-2.2,2.88,2.88,0,0,1,.94-2.2,3.21,3.21,0,0,1,2.3-.88,3.17,3.17,0,0,1,1.77.54,3.6,3.6,0,0,1,1.27,1.58,6.36,6.36,0,0,1,.45,2.53,8.65,8.65,0,0,1-.86,3.81,8.52,8.52,0,0,1-2.1,2.81,3.69,3.69,0,0,1-2.25,1,1.37,1.37,0,0,1-1-.4,1.31,1.31,0,0,1-.41-1,1.42,1.42,0,0,1,.85-1.35,6.27,6.27,0,0,0,1.7-1.4A3.35,3.35,0,0,0,453.12,345.72Z"/><path d="M463.51,348.33h.61V345c0-.9,0-1.61.07-2.12a3.3,3.3,0,0,1,.4-1.32,2.57,2.57,0,0,1,1-.93,2.67,2.67,0,0,1,1.37-.36,2.75,2.75,0,0,1,1.93.8,2.42,2.42,0,0,1,.73,1.3,12.08,12.08,0,0,1,.15,2.18v3.82h2a2.68,2.68,0,0,1,1.82.56,1.89,1.89,0,0,1,.62,1.45,1.61,1.61,0,0,1-.89,1.58,5.79,5.79,0,0,1-2.55.45h-1v10.29a17,17,0,0,0,.09,2,2,2,0,0,0,.5,1.15,1.65,1.65,0,0,0,1.3.44,7.37,7.37,0,0,0,1.33-.17,6.73,6.73,0,0,1,1.31-.18,1.66,1.66,0,0,1,1.22.55,1.83,1.83,0,0,1,.55,1.34,2.26,2.26,0,0,1-1.48,2.07,10,10,0,0,1-4.25.72,7.37,7.37,0,0,1-4-.88,4.07,4.07,0,0,1-1.78-2.44,16.62,16.62,0,0,1-.42-4.17V352.37h-.74a2.62,2.62,0,0,1-1.84-.58,1.85,1.85,0,0,1-.64-1.45,1.81,1.81,0,0,1,.67-1.45A3,3,0,0,1,463.51,348.33Z"/><path d="M494.16,351v.68a11,11,0,0,1,3.28-2.86,8,8,0,0,1,3.85-.91,8.93,8.93,0,0,1,4.76,1.33,9.17,9.17,0,0,1,3.43,3.9,13.45,13.45,0,0,1,1.27,6.07,14.91,14.91,0,0,1-.73,4.74,10.55,10.55,0,0,1-2,3.63,8.77,8.77,0,0,1-6.73,3.05,7.74,7.74,0,0,1-4-1,11.4,11.4,0,0,1-3.1-2.83v8.41q0,3.69-2.69,3.69a2.14,2.14,0,0,1-2.09-.95,6,6,0,0,1-.52-2.78V351a3.52,3.52,0,0,1,.7-2.38,2.41,2.41,0,0,1,1.91-.79,2.56,2.56,0,0,1,1.94.8A3.33,3.33,0,0,1,494.16,351Zm11,8.14a9.7,9.7,0,0,0-.68-3.8,5.59,5.59,0,0,0-1.88-2.44,4.45,4.45,0,0,0-2.65-.85,5,5,0,0,0-3.91,1.82,8,8,0,0,0-1.59,5.38,7.8,7.8,0,0,0,1.58,5.2,5,5,0,0,0,3.92,1.85,4.48,4.48,0,0,0,2.58-.81,5.61,5.61,0,0,0,1.91-2.43A9.6,9.6,0,0,0,505.13,359.11Z"/><path d="M521,362.52v4.67a3.63,3.63,0,0,1-.79,2.56,2.71,2.71,0,0,1-2,.85,2.57,2.57,0,0,1-2-.86,3.69,3.69,0,0,1-.78-2.55V351.61c0-2.52.91-3.77,2.72-3.77a2.27,2.27,0,0,1,2,.88,4.81,4.81,0,0,1,.68,2.6,9.7,9.7,0,0,1,2.06-2.6,4.25,4.25,0,0,1,2.82-.88,7.21,7.21,0,0,1,3.43.88,2.63,2.63,0,0,1,1.66,2.33,2.25,2.25,0,0,1-.71,1.7,2.2,2.2,0,0,1-1.53.66,6.57,6.57,0,0,1-1.48-.38,7.09,7.09,0,0,0-2.09-.38,3.05,3.05,0,0,0-2,.65,4.16,4.16,0,0,0-1.21,1.92,13.81,13.81,0,0,0-.59,3C521.06,359.41,521,360.84,521,362.52Z"/><path d="M548.63,360.59h-11a7.49,7.49,0,0,0,.77,3.36,5.15,5.15,0,0,0,4.73,2.94,6.54,6.54,0,0,0,1.83-.24,5.84,5.84,0,0,0,1.61-.74,12.23,12.23,0,0,0,1.44-1.07c.44-.39,1-.91,1.7-1.56a1.83,1.83,0,0,1,1.23-.37,2.06,2.06,0,0,1,1.4.47,1.7,1.7,0,0,1,.53,1.33,3.71,3.71,0,0,1-.59,1.78,7.34,7.34,0,0,1-1.8,1.95,10.23,10.23,0,0,1-3,1.54,13,13,0,0,1-4.18.62c-3.59,0-6.39-1-8.38-3.08a11.43,11.43,0,0,1-3-8.34,14,14,0,0,1,.74-4.61,10.19,10.19,0,0,1,2.15-3.64,9.44,9.44,0,0,1,3.49-2.33,12.5,12.5,0,0,1,4.59-.81,10.9,10.9,0,0,1,5.63,1.39,9,9,0,0,1,3.52,3.58,9.38,9.38,0,0,1,1.17,4.47c0,1.41-.41,2.32-1.21,2.73A7.51,7.51,0,0,1,548.63,360.59Zm-11-3.18h10.15a6.78,6.78,0,0,0-1.54-4.29,4.66,4.66,0,0,0-3.54-1.43,4.47,4.47,0,0,0-3.44,1.45A7.21,7.21,0,0,0,537.68,357.41Z"/><path d="M576.2,363.28a6.82,6.82,0,0,1-1.13,4,6.9,6.9,0,0,1-3.33,2.5,15.1,15.1,0,0,1-5.36.85,13.2,13.2,0,0,1-5.17-.92,7.55,7.55,0,0,1-3.18-2.31,4.66,4.66,0,0,1-1-2.78,2.14,2.14,0,0,1,.65-1.58,2.25,2.25,0,0,1,1.66-.66,2,2,0,0,1,1.36.44,4.75,4.75,0,0,1,.9,1.21,6.12,6.12,0,0,0,2.06,2.23,6.23,6.23,0,0,0,3.27.74,4.73,4.73,0,0,0,2.76-.75,2.11,2.11,0,0,0,1.08-1.71,2.36,2.36,0,0,0-1.12-2.16,13.92,13.92,0,0,0-3.68-1.29,30.23,30.23,0,0,1-4.71-1.51,7.54,7.54,0,0,1-2.9-2.08,4.73,4.73,0,0,1-1.09-3.17,5.58,5.58,0,0,1,1-3.18,6.81,6.81,0,0,1,3-2.39,11.28,11.28,0,0,1,4.73-.89,15.48,15.48,0,0,1,3.9.45,9.7,9.7,0,0,1,2.9,1.21,5.81,5.81,0,0,1,1.76,1.68,3.28,3.28,0,0,1,.6,1.8,2.07,2.07,0,0,1-.64,1.58,2.56,2.56,0,0,1-1.84.62,2.23,2.23,0,0,1-1.46-.5,9.19,9.19,0,0,1-1.39-1.47,4.88,4.88,0,0,0-1.49-1.31,4.73,4.73,0,0,0-2.34-.5,4.62,4.62,0,0,0-2.53.65,1.88,1.88,0,0,0-1,1.61,1.76,1.76,0,0,0,.74,1.45,6.26,6.26,0,0,0,2,.93c.83.24,2,.55,3.44.9a18.1,18.1,0,0,1,4.26,1.52,7.11,7.11,0,0,1,2.5,2.08A4.59,4.59,0,0,1,576.2,363.28Z"/><path d="M599.18,363.28a6.49,6.49,0,0,1-4.47,6.47,15,15,0,0,1-5.36.85,13.2,13.2,0,0,1-5.17-.92,7.58,7.58,0,0,1-3.17-2.31,4.61,4.61,0,0,1-1-2.78,2.15,2.15,0,0,1,.66-1.58,2.23,2.23,0,0,1,1.66-.66,1.91,1.91,0,0,1,1.35.44,4.33,4.33,0,0,1,.9,1.21,5.41,5.41,0,0,0,5.34,3,4.68,4.68,0,0,0,2.75-.75,2.11,2.11,0,0,0,1.08-1.71,2.34,2.34,0,0,0-1.12-2.16,13.78,13.78,0,0,0-3.68-1.29,30.59,30.59,0,0,1-4.71-1.51,7.7,7.7,0,0,1-2.9-2.08,4.78,4.78,0,0,1-1.08-3.17,5.56,5.56,0,0,1,1-3.18,6.84,6.84,0,0,1,3-2.39,11.23,11.23,0,0,1,4.72-.89,15.62,15.62,0,0,1,3.91.45,9.64,9.64,0,0,1,2.89,1.21,5.81,5.81,0,0,1,1.76,1.68,3.21,3.21,0,0,1,.61,1.8,2.08,2.08,0,0,1-.65,1.58,2.55,2.55,0,0,1-1.83.62,2.24,2.24,0,0,1-1.47-.5,9.68,9.68,0,0,1-1.38-1.47,5,5,0,0,0-1.5-1.31,4.67,4.67,0,0,0-2.34-.5,4.58,4.58,0,0,0-2.52.65,1.89,1.89,0,0,0-1,1.61,1.76,1.76,0,0,0,.74,1.45,6.36,6.36,0,0,0,2,.93c.84.24,2,.55,3.45.9a18.17,18.17,0,0,1,4.25,1.52,7,7,0,0,1,2.5,2.08A4.6,4.6,0,0,1,599.18,363.28Z"/><path d="M615.14,348.33h.62V345c0-.9,0-1.61.07-2.12a3.15,3.15,0,0,1,.4-1.32,2.54,2.54,0,0,1,.94-.93,2.67,2.67,0,0,1,1.37-.36,2.72,2.72,0,0,1,1.93.8,2.3,2.3,0,0,1,.73,1.3,12.08,12.08,0,0,1,.15,2.18v3.82h2.06a2.65,2.65,0,0,1,1.81.56,1.86,1.86,0,0,1,.63,1.45,1.62,1.62,0,0,1-.9,1.58,5.77,5.77,0,0,1-2.55.45h-1v10.29a14.79,14.79,0,0,0,.1,2,2,2,0,0,0,.49,1.15,1.66,1.66,0,0,0,1.3.44,7.37,7.37,0,0,0,1.33-.17,6.72,6.72,0,0,1,1.32-.18,1.68,1.68,0,0,1,1.22.55,1.82,1.82,0,0,1,.54,1.34,2.25,2.25,0,0,1-1.48,2.07,9.93,9.93,0,0,1-4.24.72,7.41,7.41,0,0,1-4-.88,4.1,4.1,0,0,1-1.77-2.44,16.62,16.62,0,0,1-.42-4.17V352.37H615a2.65,2.65,0,0,1-1.85-.58,1.88,1.88,0,0,1-.63-1.45,1.83,1.83,0,0,1,.66-1.45A3,3,0,0,1,615.14,348.33Z"/><path d="M635.39,342.91v8.31a11.9,11.9,0,0,1,2.08-2,7.38,7.38,0,0,1,2.24-1.08,9.81,9.81,0,0,1,2.65-.35,7.77,7.77,0,0,1,3.78.9,6.43,6.43,0,0,1,2.6,2.62,6.63,6.63,0,0,1,.8,2.25,18.58,18.58,0,0,1,.2,2.86v10.72a3.69,3.69,0,0,1-.77,2.55,2.61,2.61,0,0,1-2,.86c-1.84,0-2.77-1.14-2.77-3.41v-9.45a8.57,8.57,0,0,0-.8-4.13,3.13,3.13,0,0,0-3-1.45,4.61,4.61,0,0,0-2.7.85,5.11,5.11,0,0,0-1.79,2.33,14.93,14.93,0,0,0-.45,4.45v7.4a3.79,3.79,0,0,1-.75,2.54,2.6,2.6,0,0,1-2.08.87q-2.77,0-2.77-3.41V342.91a3.82,3.82,0,0,1,.73-2.55,2.52,2.52,0,0,1,2-.85,2.62,2.62,0,0,1,2.08.86A3.76,3.76,0,0,1,635.39,342.91Z"/><path d="M671.12,360.59h-11a7.36,7.36,0,0,0,.76,3.36,5.34,5.34,0,0,0,2,2.2,5.29,5.29,0,0,0,2.74.74,6.66,6.66,0,0,0,1.84-.24,6,6,0,0,0,1.61-.74,12.1,12.1,0,0,0,1.43-1.07c.44-.39,1-.91,1.7-1.56a1.83,1.83,0,0,1,1.23-.37,2.06,2.06,0,0,1,1.4.47,1.7,1.7,0,0,1,.53,1.33,3.71,3.71,0,0,1-.59,1.78,7.34,7.34,0,0,1-1.8,1.95,10.23,10.23,0,0,1-3,1.54,13,13,0,0,1-4.17.62q-5.4,0-8.39-3.08a11.43,11.43,0,0,1-3-8.34,14,14,0,0,1,.74-4.61,10.19,10.19,0,0,1,2.15-3.64,9.44,9.44,0,0,1,3.49-2.33,12.51,12.51,0,0,1,4.6-.81,10.89,10.89,0,0,1,5.62,1.39,9,9,0,0,1,3.52,3.58,9.38,9.38,0,0,1,1.17,4.47c0,1.41-.4,2.32-1.21,2.73A7.49,7.49,0,0,1,671.12,360.59Zm-11-3.18h10.15a6.84,6.84,0,0,0-1.55-4.29,4.66,4.66,0,0,0-3.54-1.43,4.49,4.49,0,0,0-3.44,1.45A7.2,7.2,0,0,0,660.17,357.41Z"/><path d="M696.45,350.93v.68a9.85,9.85,0,0,1,3.23-2.86,8.61,8.61,0,0,1,4-.91,8.06,8.06,0,0,1,4,1,6.15,6.15,0,0,1,2.61,2.73,6.66,6.66,0,0,1,.71,2.21,22.76,22.76,0,0,1,.17,3v10.41a3.74,3.74,0,0,1-.77,2.55,2.57,2.57,0,0,1-2,.86,2.6,2.6,0,0,1-2-.88,3.7,3.7,0,0,1-.78-2.53v-9.33a9.36,9.36,0,0,0-.77-4.23c-.51-1-1.53-1.47-3.07-1.47a4.56,4.56,0,0,0-2.72.89,5.17,5.17,0,0,0-1.81,2.46,17.64,17.64,0,0,0-.41,4.67v7a3.63,3.63,0,0,1-.79,2.56,2.66,2.66,0,0,1-2,.85,2.57,2.57,0,0,1-2-.88,3.7,3.7,0,0,1-.78-2.53V351a3.52,3.52,0,0,1,.7-2.38,2.41,2.41,0,0,1,1.91-.79,2.61,2.61,0,0,1,1.33.34,2.5,2.5,0,0,1,1,1.05A3.65,3.65,0,0,1,696.45,350.93Z"/><path d="M730.93,367.44v-.72a12.6,12.6,0,0,1-2.11,2.14,7.94,7.94,0,0,1-2.42,1.28,9.82,9.82,0,0,1-3,.42,7.72,7.72,0,0,1-3.64-.84,6.17,6.17,0,0,1-2.5-2.32,10.35,10.35,0,0,1-1-5.13V351.18a3.59,3.59,0,0,1,.76-2.51,2.55,2.55,0,0,1,2-.83,2.68,2.68,0,0,1,2,.84,3.55,3.55,0,0,1,.78,2.5v9a14.33,14.33,0,0,0,.32,3.27,4,4,0,0,0,1.18,2.07,3.38,3.38,0,0,0,2.31.75,4.73,4.73,0,0,0,2.67-.84,4.9,4.9,0,0,0,1.82-2.19,17.5,17.5,0,0,0,.47-5.21v-6.81a3.55,3.55,0,0,1,.78-2.5,2.65,2.65,0,0,1,2-.84,2.55,2.55,0,0,1,2,.83,3.59,3.59,0,0,1,.76,2.51V367.4a3.43,3.43,0,0,1-.73,2.4,2.42,2.42,0,0,1-1.87.8,2.46,2.46,0,0,1-1.9-.83A3.36,3.36,0,0,1,730.93,367.44Z"/><path d="M762.05,363.67a4.8,4.8,0,0,1-.63,2.23,7.61,7.61,0,0,1-1.91,2.27,9.8,9.8,0,0,1-3.23,1.73,13.57,13.57,0,0,1-4.38.66q-5.19,0-8.11-3a11.2,11.2,0,0,1-2.91-8.11,13.35,13.35,0,0,1,1.34-6.09,9.51,9.51,0,0,1,3.85-4.09,12,12,0,0,1,6-1.45,12.1,12.1,0,0,1,4,.64,10.46,10.46,0,0,1,3.08,1.64,7.89,7.89,0,0,1,1.92,2.14,4.21,4.21,0,0,1,.67,2.13A2.24,2.24,0,0,1,761,356a2.58,2.58,0,0,1-1.81.7,1.83,1.83,0,0,1-1.16-.36,5.66,5.66,0,0,1-1-1.16,8.5,8.5,0,0,0-2.14-2.34A5.26,5.26,0,0,0,748,354a8.39,8.39,0,0,0-1.52,5.3,10.22,10.22,0,0,0,.39,2.9A6.66,6.66,0,0,0,748,364.5a4.85,4.85,0,0,0,1.78,1.41,5.48,5.48,0,0,0,2.3.48,5.25,5.25,0,0,0,2.88-.77,6.82,6.82,0,0,0,2.12-2.38,5.88,5.88,0,0,1,1.11-1.48,2.09,2.09,0,0,1,1.46-.53,2.16,2.16,0,0,1,1.7.78A2.5,2.5,0,0,1,762.05,363.67Z"/><path d="M766.09,367.19V342.91a3.76,3.76,0,0,1,.75-2.54,2.55,2.55,0,0,1,2-.86,2.63,2.63,0,0,1,2,.85,3.67,3.67,0,0,1,.78,2.55v24.28a3.63,3.63,0,0,1-.79,2.56,2.69,2.69,0,0,1-2,.85,2.55,2.55,0,0,1-2-.88A3.75,3.75,0,0,1,766.09,367.19Z"/><path d="M793.31,360.59H782.36a7.36,7.36,0,0,0,.77,3.36,5.15,5.15,0,0,0,4.73,2.94,6.54,6.54,0,0,0,1.83-.24,5.84,5.84,0,0,0,1.61-.74,12.23,12.23,0,0,0,1.44-1.07l1.7-1.56a1.83,1.83,0,0,1,1.23-.37,2,2,0,0,1,1.39.47,1.67,1.67,0,0,1,.54,1.33,3.64,3.64,0,0,1-.6,1.78,7.12,7.12,0,0,1-1.79,1.95,10.29,10.29,0,0,1-3,1.54,13,13,0,0,1-4.17.62c-3.6,0-6.39-1-8.39-3.08a11.47,11.47,0,0,1-3-8.34,13.76,13.76,0,0,1,.74-4.61,10.19,10.19,0,0,1,2.15-3.64A9.28,9.28,0,0,1,783,348.6a12.5,12.5,0,0,1,4.59-.81,10.93,10.93,0,0,1,5.63,1.39,9.09,9.09,0,0,1,3.52,3.58,9.37,9.37,0,0,1,1.16,4.47c0,1.41-.4,2.32-1.21,2.73A7.46,7.46,0,0,1,793.31,360.59Zm-10.95-3.18h10.15a6.79,6.79,0,0,0-1.55-4.29,4.63,4.63,0,0,0-3.54-1.43,4.45,4.45,0,0,0-3.43,1.45A7.14,7.14,0,0,0,782.36,357.41Z"/><path d="M817,367.44a17.57,17.57,0,0,1-3.92,2.37,11,11,0,0,1-4.26.79,8.1,8.1,0,0,1-3.78-.85,6.27,6.27,0,0,1-2.52-2.31,6,6,0,0,1-.88-3.16,5.65,5.65,0,0,1,1.46-3.91,7.28,7.28,0,0,1,4-2.18c.35-.08,1.23-.27,2.64-.55s2.62-.55,3.62-.79,2.1-.53,3.27-.87a5.81,5.81,0,0,0-.89-3.25c-.53-.69-1.62-1-3.27-1a6.78,6.78,0,0,0-3.21.6,5.11,5.11,0,0,0-1.84,1.78c-.52.79-.88,1.32-1.09,1.57A1.81,1.81,0,0,1,805,356a2.36,2.36,0,0,1-1.63-.61,2,2,0,0,1-.68-1.55,4.78,4.78,0,0,1,1-2.87A7.51,7.51,0,0,1,807,348.7a14.55,14.55,0,0,1,5.52-.91,15.57,15.57,0,0,1,5.8.88,5.41,5.41,0,0,1,3,2.75,12.11,12.11,0,0,1,.87,5c0,1.31,0,2.42,0,3.34s0,1.94,0,3.06a11.2,11.2,0,0,0,.52,3.29,10.16,10.16,0,0,1,.52,2.2,2.05,2.05,0,0,1-.81,1.57,2.72,2.72,0,0,1-1.83.71,2.46,2.46,0,0,1-1.7-.81A12,12,0,0,1,817,367.44Zm-.37-8.1a27.41,27.41,0,0,1-3.58,1c-1.56.34-2.64.59-3.25.74a4.48,4.48,0,0,0-1.72.93,2.33,2.33,0,0,0-.82,1.91,2.86,2.86,0,0,0,1,2.17,3.62,3.62,0,0,0,2.53.89,6.49,6.49,0,0,0,3.06-.73,4.8,4.8,0,0,0,2.06-1.88,8.49,8.49,0,0,0,.76-4.18Z"/><path d="M833.58,362.52v4.67a3.64,3.64,0,0,1-.8,2.56,2.7,2.7,0,0,1-2,.85,2.57,2.57,0,0,1-2-.86,3.69,3.69,0,0,1-.78-2.55V351.61c0-2.52.91-3.77,2.73-3.77a2.27,2.27,0,0,1,2,.88,4.82,4.82,0,0,1,.67,2.6,9.7,9.7,0,0,1,2.06-2.6,4.27,4.27,0,0,1,2.82-.88,7.21,7.21,0,0,1,3.43.88,2.61,2.61,0,0,1,1.66,2.33,2.25,2.25,0,0,1-.71,1.7,2.2,2.2,0,0,1-1.53.66,6.57,6.57,0,0,1-1.48-.38,7,7,0,0,0-2.08-.38,3.05,3.05,0,0,0-2,.65,4.08,4.08,0,0,0-1.21,1.92,13.21,13.21,0,0,0-.6,3C833.63,359.41,833.58,360.84,833.58,362.52Z"/><path d="M857.33,367.19V342.91a3.76,3.76,0,0,1,.75-2.54,2.56,2.56,0,0,1,2-.86,2.63,2.63,0,0,1,2,.85,3.67,3.67,0,0,1,.78,2.55v24.28a3.63,3.63,0,0,1-.79,2.56,2.66,2.66,0,0,1-2,.85,2.56,2.56,0,0,1-2-.88A3.75,3.75,0,0,1,857.33,367.19Z"/><path d="M883.08,367.44a17.85,17.85,0,0,1-3.93,2.37,10.93,10.93,0,0,1-4.26.79,8.16,8.16,0,0,1-3.78-.85,6.24,6.24,0,0,1-2.51-2.31,6,6,0,0,1-.88-3.16,5.64,5.64,0,0,1,1.45-3.91,7.31,7.31,0,0,1,4-2.18c.36-.08,1.24-.27,2.65-.55s2.61-.55,3.62-.79,2.09-.53,3.27-.87a5.89,5.89,0,0,0-.89-3.25c-.53-.69-1.62-1-3.28-1a6.71,6.71,0,0,0-3.2.6,5.14,5.14,0,0,0-1.85,1.78,18.65,18.65,0,0,1-1.09,1.57A1.78,1.78,0,0,1,871,356a2.36,2.36,0,0,1-1.63-.61,2,2,0,0,1-.69-1.55,4.73,4.73,0,0,1,1-2.87A7.39,7.39,0,0,1,873,348.7a14.46,14.46,0,0,1,5.51-.91,15.62,15.62,0,0,1,5.81.88,5.39,5.39,0,0,1,3,2.75,12.11,12.11,0,0,1,.87,5c0,1.31,0,2.42,0,3.34s0,1.94,0,3.06a11.23,11.23,0,0,0,.53,3.29,10.16,10.16,0,0,1,.52,2.2,2.05,2.05,0,0,1-.81,1.57,2.72,2.72,0,0,1-1.84.71,2.48,2.48,0,0,1-1.7-.81A12,12,0,0,1,883.08,367.44Zm-.37-8.1a27.86,27.86,0,0,1-3.58,1c-1.57.34-2.65.59-3.25.74a4.41,4.41,0,0,0-1.72.93,2.33,2.33,0,0,0-.82,1.91,2.86,2.86,0,0,0,1,2.17,3.57,3.57,0,0,0,2.52.89,6.53,6.53,0,0,0,3.07-.73,4.92,4.92,0,0,0,2.06-1.88,8.49,8.49,0,0,0,.76-4.18Z"/><path d="M908.63,367.44v-.72a12.6,12.6,0,0,1-2.11,2.14,7.82,7.82,0,0,1-2.42,1.28,9.77,9.77,0,0,1-3,.42,7.72,7.72,0,0,1-3.64-.84A6.08,6.08,0,0,1,895,367.4a10.23,10.23,0,0,1-1.05-5.13V351.18a3.59,3.59,0,0,1,.76-2.51,2.58,2.58,0,0,1,2-.83,2.66,2.66,0,0,1,2,.84,3.55,3.55,0,0,1,.78,2.5v9a13.73,13.73,0,0,0,.33,3.27,3.93,3.93,0,0,0,1.18,2.07,3.34,3.34,0,0,0,2.3.75,4.69,4.69,0,0,0,2.67-.84,4.9,4.9,0,0,0,1.82-2.19,17.39,17.39,0,0,0,.48-5.21v-6.81a3.55,3.55,0,0,1,.78-2.5,2.63,2.63,0,0,1,2-.84,2.58,2.58,0,0,1,2,.83,3.64,3.64,0,0,1,.75,2.51V367.4a3.48,3.48,0,0,1-.72,2.4,2.6,2.6,0,0,1-3.78,0A3.36,3.36,0,0,1,908.63,367.44Z"/><path d="M924.76,350.93v.68a9.75,9.75,0,0,1,3.23-2.86,8.58,8.58,0,0,1,4-.91,8.09,8.09,0,0,1,4,1,6.07,6.07,0,0,1,2.6,2.73,6.45,6.45,0,0,1,.72,2.21,23,23,0,0,1,.16,3v10.41a3.69,3.69,0,0,1-.77,2.55,2.57,2.57,0,0,1-2,.86,2.61,2.61,0,0,1-2-.88,3.7,3.7,0,0,1-.78-2.53v-9.33a9.38,9.38,0,0,0-.76-4.23,3.14,3.14,0,0,0-3.07-1.47,4.57,4.57,0,0,0-2.73.89,5.15,5.15,0,0,0-1.8,2.46,17.21,17.21,0,0,0-.41,4.67v7a3.68,3.68,0,0,1-.79,2.56,2.69,2.69,0,0,1-2,.85,2.56,2.56,0,0,1-2-.88,3.7,3.7,0,0,1-.78-2.53V351a3.47,3.47,0,0,1,.7-2.38,2.39,2.39,0,0,1,1.9-.79,2.62,2.62,0,0,1,1.34.34,2.56,2.56,0,0,1,.95,1.05A3.65,3.65,0,0,1,924.76,350.93Z"/><path d="M965.33,363.67a4.8,4.8,0,0,1-.63,2.23,7.46,7.46,0,0,1-1.91,2.27,9.85,9.85,0,0,1-3.22,1.73,13.68,13.68,0,0,1-4.39.66q-5.19,0-8.1-3a11.16,11.16,0,0,1-2.92-8.11,13.35,13.35,0,0,1,1.34-6.09,9.57,9.57,0,0,1,3.85-4.09,12,12,0,0,1,6-1.45,12.1,12.1,0,0,1,4,.64,10.34,10.34,0,0,1,3.08,1.64,8.11,8.11,0,0,1,1.93,2.14,4.29,4.29,0,0,1,.66,2.13,2.24,2.24,0,0,1-.75,1.7,2.58,2.58,0,0,1-1.81.7,1.83,1.83,0,0,1-1.16-.36,6,6,0,0,1-1-1.16,8.5,8.5,0,0,0-2.14-2.34A5.26,5.26,0,0,0,951.3,354a8.39,8.39,0,0,0-1.52,5.3,10.22,10.22,0,0,0,.39,2.9,6.66,6.66,0,0,0,1.13,2.26,4.85,4.85,0,0,0,1.78,1.41,5.48,5.48,0,0,0,2.3.48,5.25,5.25,0,0,0,2.88-.77,6.94,6.94,0,0,0,2.13-2.38,5.64,5.64,0,0,1,1.1-1.48,2.1,2.1,0,0,1,1.46-.53,2.16,2.16,0,0,1,1.7.78A2.5,2.5,0,0,1,965.33,363.67Z"/><path d="M974.85,342.91v8.31a11.9,11.9,0,0,1,2.08-2,7.55,7.55,0,0,1,2.25-1.08,9.74,9.74,0,0,1,2.64-.35,7.77,7.77,0,0,1,3.78.9,7,7,0,0,1,3.4,4.87,17.4,17.4,0,0,1,.2,2.86v10.72a3.69,3.69,0,0,1-.77,2.55,2.61,2.61,0,0,1-2,.86q-2.76,0-2.76-3.41v-9.45a8.69,8.69,0,0,0-.8-4.13,3.16,3.16,0,0,0-3-1.45,4.61,4.61,0,0,0-2.7.85,5.18,5.18,0,0,0-1.79,2.33,14.93,14.93,0,0,0-.45,4.45v7.4a3.79,3.79,0,0,1-.75,2.54,2.6,2.6,0,0,1-2.08.87q-2.78,0-2.77-3.41V342.91a3.82,3.82,0,0,1,.73-2.55,2.52,2.52,0,0,1,2-.85,2.62,2.62,0,0,1,2.08.86A3.76,3.76,0,0,1,974.85,342.91Z"/><path d="M1010.83,342.71v8.55a13.06,13.06,0,0,1,3.22-2.51,8.59,8.59,0,0,1,4.06-.87,9,9,0,0,1,4.89,1.32,8.68,8.68,0,0,1,3.26,3.83,14.18,14.18,0,0,1,1.16,6,15.69,15.69,0,0,1-.65,4.67,11.11,11.11,0,0,1-1.87,3.68,8.5,8.5,0,0,1-3,2.41,8.81,8.81,0,0,1-3.86.85,9.09,9.09,0,0,1-2.43-.31,6.78,6.78,0,0,1-1.94-.81,8.62,8.62,0,0,1-1.36-1c-.38-.36-.88-.89-1.49-1.6v.55a3.36,3.36,0,0,1-.76,2.39,2.54,2.54,0,0,1-1.93.81,2.38,2.38,0,0,1-1.89-.81,3.5,3.5,0,0,1-.71-2.39V343a4.15,4.15,0,0,1,.68-2.57,2.31,2.31,0,0,1,1.92-.87,2.46,2.46,0,0,1,2,.83A3.55,3.55,0,0,1,1010.83,342.71Zm.27,16.63a7.71,7.71,0,0,0,1.52,5.14,5,5,0,0,0,4,1.79,4.61,4.61,0,0,0,3.64-1.83,8,8,0,0,0,1.53-5.26,10.43,10.43,0,0,0-.63-3.82,5.62,5.62,0,0,0-1.81-2.47,4.45,4.45,0,0,0-2.73-.87,4.9,4.9,0,0,0-2.85.87,5.82,5.82,0,0,0-2,2.52A9.79,9.79,0,0,0,1011.1,359.34Z"/><path d="M1046.11,367.44v-.72a13,13,0,0,1-2.11,2.14,7.94,7.94,0,0,1-2.42,1.28,9.88,9.88,0,0,1-3,.42,7.75,7.75,0,0,1-3.64-.84,6.2,6.2,0,0,1-2.49-2.32,10.23,10.23,0,0,1-1-5.13V351.18a3.64,3.64,0,0,1,.76-2.51,2.58,2.58,0,0,1,2-.83,2.66,2.66,0,0,1,2,.84,3.55,3.55,0,0,1,.78,2.5v9a13.73,13.73,0,0,0,.33,3.27,3.93,3.93,0,0,0,1.18,2.07,3.38,3.38,0,0,0,2.31.75,4.68,4.68,0,0,0,2.66-.84,4.92,4.92,0,0,0,1.83-2.19,17.86,17.86,0,0,0,.47-5.21v-6.81a3.55,3.55,0,0,1,.78-2.5,2.63,2.63,0,0,1,2-.84,2.58,2.58,0,0,1,2,.83,3.64,3.64,0,0,1,.76,2.51V367.4a3.48,3.48,0,0,1-.73,2.4,2.59,2.59,0,0,1-3.77,0A3.36,3.36,0,0,1,1046.11,367.44Z"/><path d="M1057.45,348.33h.62V345c0-.9,0-1.61.07-2.12a3.15,3.15,0,0,1,.4-1.32,2.54,2.54,0,0,1,.94-.93,2.68,2.68,0,0,1,1.38-.36,2.75,2.75,0,0,1,1.93.8,2.34,2.34,0,0,1,.72,1.3,11.07,11.07,0,0,1,.16,2.18v3.82h2a2.63,2.63,0,0,1,1.81.56,1.86,1.86,0,0,1,.63,1.45,1.63,1.63,0,0,1-.89,1.58,5.84,5.84,0,0,1-2.56.45h-1v10.29a17,17,0,0,0,.09,2,2,2,0,0,0,.49,1.15,1.66,1.66,0,0,0,1.3.44,7.46,7.46,0,0,0,1.34-.17,6.64,6.64,0,0,1,1.31-.18,1.66,1.66,0,0,1,1.22.55,1.82,1.82,0,0,1,.54,1.34,2.25,2.25,0,0,1-1.47,2.07,10,10,0,0,1-4.25.72,7.43,7.43,0,0,1-4-.88,4.1,4.1,0,0,1-1.77-2.44,16.62,16.62,0,0,1-.42-4.17V352.37h-.74a2.65,2.65,0,0,1-1.85-.58,1.88,1.88,0,0,1-.63-1.45,1.81,1.81,0,0,1,.67-1.45A2.94,2.94,0,0,1,1057.45,348.33Z"/><path d="M1072.53,348.33h.62V345c0-.9,0-1.61.07-2.12a3.15,3.15,0,0,1,.4-1.32,2.54,2.54,0,0,1,.94-.93,2.68,2.68,0,0,1,1.38-.36,2.71,2.71,0,0,1,1.92.8,2.3,2.3,0,0,1,.73,1.3,11.91,11.91,0,0,1,.16,2.18v3.82h2a2.65,2.65,0,0,1,1.81.56,1.86,1.86,0,0,1,.63,1.45,1.62,1.62,0,0,1-.9,1.58,5.77,5.77,0,0,1-2.55.45h-1v10.29a17,17,0,0,0,.09,2,2,2,0,0,0,.49,1.15,1.66,1.66,0,0,0,1.3.44,7.37,7.37,0,0,0,1.33-.17,6.81,6.81,0,0,1,1.32-.18,1.68,1.68,0,0,1,1.22.55,1.82,1.82,0,0,1,.54,1.34,2.25,2.25,0,0,1-1.48,2.07,9.9,9.9,0,0,1-4.24.72,7.41,7.41,0,0,1-4-.88,4.1,4.1,0,0,1-1.77-2.44,16.62,16.62,0,0,1-.42-4.17V352.37h-.74a2.65,2.65,0,0,1-1.85-.58,1.88,1.88,0,0,1-.63-1.45,1.83,1.83,0,0,1,.66-1.45A3,3,0,0,1,1072.53,348.33Z"/><path d="M1108.26,359.22a13.24,13.24,0,0,1-.78,4.61,10.21,10.21,0,0,1-2.25,3.63,10,10,0,0,1-3.53,2.33,12.51,12.51,0,0,1-4.62.81,12,12,0,0,1-4.57-.82,10.22,10.22,0,0,1-3.52-2.35,10.11,10.11,0,0,1-2.25-3.61,13,13,0,0,1-.77-4.6,13.36,13.36,0,0,1,.78-4.66A10.14,10.14,0,0,1,1089,351a10,10,0,0,1,3.53-2.31,12.68,12.68,0,0,1,4.57-.8,12.38,12.38,0,0,1,4.62.82,10,10,0,0,1,3.55,2.33,10.23,10.23,0,0,1,2.24,3.61A13.41,13.41,0,0,1,1108.26,359.22Zm-5.62,0a8.4,8.4,0,0,0-1.51-5.34,4.88,4.88,0,0,0-4.05-1.9,5,5,0,0,0-2.89.85,5.47,5.47,0,0,0-1.93,2.51,11.51,11.51,0,0,0,0,7.71,5.48,5.48,0,0,0,1.91,2.51,5.25,5.25,0,0,0,7-1A8.35,8.35,0,0,0,1102.64,359.22Z"/><path d="M1118,350.93v.68a9.75,9.75,0,0,1,3.23-2.86,8.58,8.58,0,0,1,4-.91,8,8,0,0,1,4,1,6.1,6.1,0,0,1,2.61,2.73,6.45,6.45,0,0,1,.72,2.21,23,23,0,0,1,.16,3v10.41a3.69,3.69,0,0,1-.77,2.55,2.57,2.57,0,0,1-2,.86,2.61,2.61,0,0,1-2-.88,3.7,3.7,0,0,1-.78-2.53v-9.33a9.23,9.23,0,0,0-.77-4.23,3.12,3.12,0,0,0-3.06-1.47,4.57,4.57,0,0,0-2.73.89,5.15,5.15,0,0,0-1.8,2.46,17.21,17.21,0,0,0-.41,4.67v7a3.68,3.68,0,0,1-.79,2.56,2.69,2.69,0,0,1-2,.85,2.56,2.56,0,0,1-2-.88,3.7,3.7,0,0,1-.78-2.53V351a3.52,3.52,0,0,1,.69-2.38,2.41,2.41,0,0,1,1.91-.79,2.58,2.58,0,0,1,1.33.34,2.52,2.52,0,0,1,1,1.05A3.65,3.65,0,0,1,1118,350.93Z"/><path d="M333.78,402.34a5,5,0,0,0,3.25-1.11,4,4,0,0,0-2.65-7,5.33,5.33,0,0,0-2.07.34,3.37,3.37,0,0,0-1.28.93,7,7,0,0,0-.89,1.47c-.28.61-.54,1.17-.77,1.71a1.44,1.44,0,0,1-.74.67,2.79,2.79,0,0,1-1.23.25,2.13,2.13,0,0,1-1.51-.67,2.37,2.37,0,0,1-.68-1.77,4.71,4.71,0,0,1,.64-2.25,8.39,8.39,0,0,1,1.89-2.24,9.74,9.74,0,0,1,3.09-1.72,12.41,12.41,0,0,1,4.12-.64,11.53,11.53,0,0,1,3.63.54,8.57,8.57,0,0,1,2.85,1.57,6.71,6.71,0,0,1,1.82,2.38,6.79,6.79,0,0,1,.62,2.91,6.69,6.69,0,0,1-.89,3.52,11.92,11.92,0,0,1-2.56,2.86,11.07,11.07,0,0,1,2.7,2,7.4,7.4,0,0,1,2.21,5.35,9,9,0,0,1-.75,3.61,9.29,9.29,0,0,1-2.21,3.11,10.45,10.45,0,0,1-3.45,2.13,12.32,12.32,0,0,1-4.42.77,10.56,10.56,0,0,1-4.41-.88,10,10,0,0,1-3.21-2.21,9.94,9.94,0,0,1-1.91-2.74,5.9,5.9,0,0,1-.64-2.33,2.49,2.49,0,0,1,.77-1.92,2.65,2.65,0,0,1,1.91-.73,2,2,0,0,1,1.11.34,1.62,1.62,0,0,1,.7.81,13.8,13.8,0,0,0,2.28,4.23,4.33,4.33,0,0,0,3.44,1.39,5.14,5.14,0,0,0,2.45-.63,5,5,0,0,0,1.95-1.85,5.29,5.29,0,0,0,.77-2.85,5.2,5.2,0,0,0-1.32-3.77,4.85,4.85,0,0,0-3.65-1.36c-.27,0-.69,0-1.27.08s-.94.08-1.1.08a2.47,2.47,0,0,1-1.75-.56,2,2,0,0,1-.61-1.57,2,2,0,0,1,.74-1.59,3.4,3.4,0,0,1,2.19-.6Z"/><path d="M354.05,421a3.2,3.2,0,0,1-2.2-.82,3.11,3.11,0,0,1,2.14-5.35,3,3,0,0,1,2.2.89,2.89,2.89,0,0,1,.91,2.16,2.93,2.93,0,0,1-.91,2.29A3.09,3.09,0,0,1,354.05,421Z"/><path d="M394,417.08l-1.44-3.77H380.37l-1.44,3.85a13.83,13.83,0,0,1-1.43,3,2.28,2.28,0,0,1-1.95.79,2.85,2.85,0,0,1-2-.84,2.57,2.57,0,0,1-.88-1.91,4.47,4.47,0,0,1,.2-1.27c.14-.44.36-1.05.68-1.83l7.69-19.52.79-2a10.5,10.5,0,0,1,1-2,4,4,0,0,1,1.38-1.26,4.18,4.18,0,0,1,2.1-.48,4.26,4.26,0,0,1,2.12.48,4.14,4.14,0,0,1,1.38,1.24,9.46,9.46,0,0,1,.88,1.63c.24.58.54,1.36.91,2.33L399.6,415a9.72,9.72,0,0,1,.93,3.22,2.67,2.67,0,0,1-.87,1.92,2.9,2.9,0,0,1-2.11.87,2.79,2.79,0,0,1-1.23-.26,2.53,2.53,0,0,1-.86-.69,6.9,6.9,0,0,1-.75-1.36C394.45,418.08,394.22,417.55,394,417.08ZM382,408.74h9l-4.53-12.41Z"/><path d="M413.14,393.56l11.71,17.72V393.4a3.92,3.92,0,0,1,.75-2.62,2.54,2.54,0,0,1,2-.87,2.59,2.59,0,0,1,2.07.87,3.87,3.87,0,0,1,.76,2.62V417q0,4-3.28,4a4.2,4.2,0,0,1-1.47-.24,3.59,3.59,0,0,1-1.24-.75,7.33,7.33,0,0,1-1.06-1.2c-.33-.45-.66-.92-1-1.4L411,399.9v17.61a3.79,3.79,0,0,1-.8,2.61,2.84,2.84,0,0,1-4.12,0,3.85,3.85,0,0,1-.78-2.6V394.32a6.52,6.52,0,0,1,.33-2.32,3.35,3.35,0,0,1,1.29-1.51,3.5,3.5,0,0,1,1.95-.58,3.26,3.26,0,0,1,2.43,1,7.71,7.71,0,0,1,.9,1.17C412.5,392.54,412.82,393,413.14,393.56Z"/><path d="M441.1,390.42H449a21.07,21.07,0,0,1,5.31.58,9.72,9.72,0,0,1,4,2.15q4.69,4,4.7,12.22a23.52,23.52,0,0,1-.48,4.94,14.57,14.57,0,0,1-1.45,4,12.59,12.59,0,0,1-2.52,3.21A10.41,10.41,0,0,1,456,419.3a12.44,12.44,0,0,1-3.09.92,23.18,23.18,0,0,1-3.72.27h-7.94a4.92,4.92,0,0,1-2.5-.51,2.35,2.35,0,0,1-1.1-1.41,9.09,9.09,0,0,1-.25-2.37V394.15a3.91,3.91,0,0,1,.88-2.85A4,4,0,0,1,441.1,390.42Zm2.36,4.82v20.41h4.61c1,0,1.81,0,2.38-.09a7.19,7.19,0,0,0,1.79-.41,4.69,4.69,0,0,0,1.6-.92q3-2.58,3.05-8.9,0-4.45-1.34-6.66a6,6,0,0,0-3.31-2.82,16.15,16.15,0,0,0-4.76-.61Z"/><path d="M483.11,390.42h7.94a21.07,21.07,0,0,1,5.31.58,9.72,9.72,0,0,1,4,2.15q4.69,4,4.7,12.22a23.52,23.52,0,0,1-.48,4.94,14.57,14.57,0,0,1-1.45,4,12.42,12.42,0,0,1-2.53,3.21A10.19,10.19,0,0,1,498,419.3a12.44,12.44,0,0,1-3.09.92,23.18,23.18,0,0,1-3.72.27h-7.94a4.92,4.92,0,0,1-2.5-.51,2.35,2.35,0,0,1-1.1-1.41,9.09,9.09,0,0,1-.25-2.37V394.15a3.91,3.91,0,0,1,.88-2.85A4,4,0,0,1,483.11,390.42Zm2.36,4.82v20.41h4.61c1,0,1.81,0,2.38-.09a7.19,7.19,0,0,0,1.79-.41,4.69,4.69,0,0,0,1.6-.92q3-2.58,3-8.9,0-4.45-1.34-6.66a6,6,0,0,0-3.31-2.82,16.15,16.15,0,0,0-4.76-.61Z"/><path d="M523.87,389.91a16,16,0,0,1,8,1.9A12.26,12.26,0,0,1,537,397.2a18.36,18.36,0,0,1,1.72,8.21,20.05,20.05,0,0,1-.94,6.34,13.65,13.65,0,0,1-2.83,4.94,12.3,12.3,0,0,1-4.64,3.2,18.23,18.23,0,0,1-12.61,0,12.5,12.5,0,0,1-4.65-3.21,13.53,13.53,0,0,1-2.82-5,20,20,0,0,1-1-6.3,19.28,19.28,0,0,1,1-6.36,13.67,13.67,0,0,1,2.88-4.92,12.44,12.44,0,0,1,4.59-3.1A16.54,16.54,0,0,1,523.87,389.91Zm8.65,15.46a14.1,14.1,0,0,0-1.07-5.72,8,8,0,0,0-3-3.66,8.36,8.36,0,0,0-4.54-1.24,8.21,8.21,0,0,0-3.38.69,7.22,7.22,0,0,0-2.66,2,9.42,9.42,0,0,0-1.77,3.35,15.18,15.18,0,0,0-.64,4.58,15.58,15.58,0,0,0,.64,4.64,9.43,9.43,0,0,0,1.83,3.43,7.64,7.64,0,0,0,2.7,2,8.53,8.53,0,0,0,7.65-.49,8,8,0,0,0,3.12-3.61A14,14,0,0,0,532.52,405.37Z"/><path d="M552.05,393.56l11.71,17.72V393.4a3.92,3.92,0,0,1,.75-2.62,2.51,2.51,0,0,1,2-.87,2.62,2.62,0,0,1,2.07.87,3.92,3.92,0,0,1,.76,2.62V417c0,2.64-1.1,4-3.28,4a4.29,4.29,0,0,1-1.48-.24,3.46,3.46,0,0,1-1.23-.75,7.37,7.37,0,0,1-1.07-1.2c-.33-.45-.65-.92-1-1.4L549.89,399.9v17.61a3.74,3.74,0,0,1-.8,2.61,2.84,2.84,0,0,1-4.12,0,3.85,3.85,0,0,1-.78-2.6V394.32a6.52,6.52,0,0,1,.33-2.32,3.35,3.35,0,0,1,1.29-1.51,3.53,3.53,0,0,1,2-.58,3.35,3.35,0,0,1,1.41.27,3.17,3.17,0,0,1,1,.71,6.6,6.6,0,0,1,.9,1.17Z"/><path d="M595.75,395.45h-6.64v21.84a4,4,0,0,1-.84,2.8,2.85,2.85,0,0,1-2.17.91,2.88,2.88,0,0,1-2.21-.92,4,4,0,0,1-.85-2.79V395.45H576.4a3.35,3.35,0,0,1-2.32-.69,2.32,2.32,0,0,1-.76-1.82,2.29,2.29,0,0,1,.79-1.84,3.42,3.42,0,0,1,2.29-.68h19.35a3.37,3.37,0,0,1,2.35.7,2.52,2.52,0,0,1,0,3.64A3.44,3.44,0,0,1,595.75,395.45Z"/><path d="M640.86,408.26V414a6.09,6.09,0,0,1-.22,1.83,2.92,2.92,0,0,1-.83,1.24,7.9,7.9,0,0,1-1.55,1.07,24.56,24.56,0,0,1-5.25,2.15,21.25,21.25,0,0,1-5.5.68,18,18,0,0,1-6.32-1.07,13.31,13.31,0,0,1-4.86-3.09,13.76,13.76,0,0,1-3.08-4.93,18.31,18.31,0,0,1-1.08-6.46,18.78,18.78,0,0,1,1.05-6.41,13.13,13.13,0,0,1,3.07-5,13.45,13.45,0,0,1,5-3.1,18.88,18.88,0,0,1,6.6-1.08,16.39,16.39,0,0,1,5.37.81,11.84,11.84,0,0,1,3.8,2,9.12,9.12,0,0,1,2.19,2.6,5.34,5.34,0,0,1,.74,2.44,2.63,2.63,0,0,1-.85,2,2.86,2.86,0,0,1-2,.81,2.78,2.78,0,0,1-1.26-.3,2.86,2.86,0,0,1-1-.87,24.11,24.11,0,0,0-1.91-2.66,6.19,6.19,0,0,0-2.1-1.52,8,8,0,0,0-3.37-.61,9.44,9.44,0,0,0-3.78.72,7.88,7.88,0,0,0-2.84,2.12,9.62,9.62,0,0,0-1.8,3.39,14.81,14.81,0,0,0-.63,4.45q0,5.29,2.43,8.14a8.43,8.43,0,0,0,6.78,2.85,13.8,13.8,0,0,0,4-.55,20.26,20.26,0,0,0,3.76-1.58v-4.88h-4.71a5.2,5.2,0,0,1-2.58-.51,1.88,1.88,0,0,1-.87-1.75,2.13,2.13,0,0,1,.73-1.66,2.82,2.82,0,0,1,2-.65h6.91a8.83,8.83,0,0,1,2.15.22,2.43,2.43,0,0,1,1.43,1A4.09,4.09,0,0,1,640.86,408.26Z"/><path d="M655.06,407.63h-2.14v9.66a4,4,0,0,1-.84,2.81,3.15,3.15,0,0,1-4.45,0,4.22,4.22,0,0,1-.8-2.77V394.15a3.2,3.2,0,0,1,3.74-3.73h9.9a29.16,29.16,0,0,1,3.51.18,8.77,8.77,0,0,1,2.62.7,7.67,7.67,0,0,1,2.51,1.71,7.46,7.46,0,0,1,1.65,2.57,8.71,8.71,0,0,1,.56,3.11,7.48,7.48,0,0,1-1.9,5.37,10.86,10.86,0,0,1-5.75,2.85,11.16,11.16,0,0,1,3.1,2.54A26.14,26.14,0,0,1,669.4,413a27.13,27.13,0,0,1,1.81,3.43,6.74,6.74,0,0,1,.64,2.1,2.09,2.09,0,0,1-.38,1.18,2.56,2.56,0,0,1-1,.92,3.21,3.21,0,0,1-1.52.34,3,3,0,0,1-1.72-.48,4.5,4.5,0,0,1-1.2-1.22c-.34-.5-.79-1.22-1.37-2.18l-2.44-4.06a22,22,0,0,0-2.34-3.4,5.76,5.76,0,0,0-2.11-1.6A7.13,7.13,0,0,0,655.06,407.63ZM658.54,395h-5.62v8.26h5.46a15.44,15.44,0,0,0,3.69-.38,4.31,4.31,0,0,0,2.29-1.29,3.75,3.75,0,0,0,.79-2.51,3.8,3.8,0,0,0-2.4-3.63A12.72,12.72,0,0,0,658.54,395Z"/><path d="M696.53,417.08l-1.44-3.77H682.87l-1.43,3.85a13.29,13.29,0,0,1-1.44,3,2.27,2.27,0,0,1-2,.79,2.87,2.87,0,0,1-2-.84,2.57,2.57,0,0,1-.88-1.91,4.17,4.17,0,0,1,.21-1.27c.13-.44.36-1.05.67-1.83l7.69-19.52.79-2a10.48,10.48,0,0,1,1-2,3.87,3.87,0,0,1,1.37-1.26,4.88,4.88,0,0,1,4.22,0,4.14,4.14,0,0,1,1.38,1.24,8.82,8.82,0,0,1,.88,1.63c.24.58.54,1.36.91,2.33l7.86,19.4a9.88,9.88,0,0,1,.92,3.22,2.67,2.67,0,0,1-.87,1.92,2.86,2.86,0,0,1-2.1.87,2.72,2.72,0,0,1-1.23-.26,2.53,2.53,0,0,1-.86-.69,6,6,0,0,1-.75-1.36C697,418.08,696.72,417.55,696.53,417.08Zm-12.06-8.34h9l-4.53-12.41Z"/><path d="M720.55,420.49h-9.19a3.79,3.79,0,0,1-2.84-.9,4,4,0,0,1-.85-2.84v-22.6a4,4,0,0,1,.87-2.86,3.87,3.87,0,0,1,2.82-.87h9.74a22.57,22.57,0,0,1,3.74.27,8.17,8.17,0,0,1,2.83,1,7.41,7.41,0,0,1,1.88,1.61,6.89,6.89,0,0,1,1.25,2.16,7.08,7.08,0,0,1,.43,2.49q0,4.51-4.51,6.6,5.92,1.89,5.93,7.34a8.27,8.27,0,0,1-1.29,4.55,7.79,7.79,0,0,1-3.49,3,12.57,12.57,0,0,1-3.16.81A31.54,31.54,0,0,1,720.55,420.49ZM713.76,395v7.77h5.58a11.44,11.44,0,0,0,3.52-.43,3.38,3.38,0,0,0,1.89-1.64,3.65,3.65,0,0,0,.52-1.93,3,3,0,0,0-1.62-3,12.59,12.59,0,0,0-4.95-.74Zm6.34,12.14h-6.34v8.77h6.54q6.18,0,6.18-4.45a3.64,3.64,0,0,0-1.6-3.3A9,9,0,0,0,720.1,407.14Z"/><path d="M768.65,395.12H754.93v7.38h12.63a3,3,0,0,1,2.08.63,2.1,2.1,0,0,1,.69,1.65,2.21,2.21,0,0,1-.67,1.67,3,3,0,0,1-2.1.64H754.93v8.56h14.19a3.15,3.15,0,0,1,2.17.66,2.32,2.32,0,0,1,.72,1.78,2.24,2.24,0,0,1-.72,1.73,3.15,3.15,0,0,1-2.17.67H752.57a3.2,3.2,0,0,1-3.73-3.74v-22.6a5.05,5.05,0,0,1,.39-2.14,2.44,2.44,0,0,1,1.22-1.21,5.16,5.16,0,0,1,2.12-.38h16.08a3.12,3.12,0,0,1,2.16.65,2.15,2.15,0,0,1,.71,1.69,2.18,2.18,0,0,1-.71,1.71A3.12,3.12,0,0,1,768.65,395.12Z"/><path d="M787.21,416,782.4,396.8v20.75a3.82,3.82,0,0,1-.77,2.59,2.83,2.83,0,0,1-4,0,3.74,3.74,0,0,1-.78-2.6V393.76a3,3,0,0,1,1-2.65,4.92,4.92,0,0,1,2.77-.69h1.89a7.06,7.06,0,0,1,2.47.31,2.06,2.06,0,0,1,1.14,1.11,18.56,18.56,0,0,1,.84,2.6l4.37,16.47,4.36-16.47a18.56,18.56,0,0,1,.84-2.6,2.06,2.06,0,0,1,1.14-1.11,7.1,7.1,0,0,1,2.47-.31H802a4.9,4.9,0,0,1,2.77.69,3,3,0,0,1,1,2.65v23.79a3.81,3.81,0,0,1-.76,2.59A2.66,2.66,0,0,1,803,421a2.57,2.57,0,0,1-2-.86,3.77,3.77,0,0,1-.78-2.59V396.8L795.38,416c-.32,1.25-.57,2.16-.77,2.74a3.85,3.85,0,0,1-1.1,1.59,3.18,3.18,0,0,1-2.21.72,3.31,3.31,0,0,1-1.81-.46,3.41,3.41,0,0,1-1.15-1.18,6.61,6.61,0,0,1-.64-1.59C787.54,417.19,787.38,416.58,787.21,416Z"/><path d="M835.81,420.49h-9.19a3.78,3.78,0,0,1-2.84-.9,4,4,0,0,1-.85-2.84v-22.6a4,4,0,0,1,.87-2.86,3.87,3.87,0,0,1,2.82-.87h9.74a22.36,22.36,0,0,1,3.73.27,8,8,0,0,1,2.83,1,7.63,7.63,0,0,1,1.89,1.61,7.14,7.14,0,0,1,1.68,4.65q0,4.51-4.51,6.6,5.92,1.89,5.93,7.34a8.27,8.27,0,0,1-1.29,4.55,7.84,7.84,0,0,1-3.49,3,12.69,12.69,0,0,1-3.16.81A31.65,31.65,0,0,1,835.81,420.49ZM829,395v7.77h5.58a11.33,11.33,0,0,0,3.51-.43,3.4,3.4,0,0,0,1.9-1.64,3.74,3.74,0,0,0,.51-1.93,3,3,0,0,0-1.62-3A12.54,12.54,0,0,0,834,395Zm6.34,12.14H829v8.77h6.54c4.12,0,6.17-1.48,6.17-4.45a3.62,3.62,0,0,0-1.6-3.3A9,9,0,0,0,835.36,407.14Z"/><path d="M860.09,417.29v-9.54l-7.34-11.38a26,26,0,0,1-1.36-2.4,3.58,3.58,0,0,1-.4-1.5,2.38,2.38,0,0,1,.81-1.8,2.79,2.79,0,0,1,2-.76,2.4,2.4,0,0,1,1.89.71,19.92,19.92,0,0,1,1.94,2.82l5.62,9.12,5.68-9.12.86-1.42a9.4,9.4,0,0,1,.77-1.07,2.83,2.83,0,0,1,.94-.77,2.63,2.63,0,0,1,1.25-.27,2.66,2.66,0,0,1,1.92.75,2.34,2.34,0,0,1,.76,1.73A3.62,3.62,0,0,1,875,394a21.44,21.44,0,0,1-1.33,2.22l-7.53,11.54v9.54a4,4,0,0,1-.86,2.79,2.87,2.87,0,0,1-2.19.92,2.9,2.9,0,0,1-2.2-.91A4,4,0,0,1,860.09,417.29Z"/><path d="M910.08,395.45h-6.64v21.84a4,4,0,0,1-.84,2.8,3.08,3.08,0,0,1-4.38,0,4,4,0,0,1-.85-2.79V395.45h-6.65a3.37,3.37,0,0,1-2.32-.69,2.35,2.35,0,0,1-.75-1.82,2.32,2.32,0,0,1,.78-1.84,3.44,3.44,0,0,1,2.29-.68h19.36a3.39,3.39,0,0,1,2.35.7,2.34,2.34,0,0,1,.77,1.82,2.3,2.3,0,0,1-.78,1.82A3.44,3.44,0,0,1,910.08,395.45Z"/><path d="M923.15,393.6v8.61h13.14V393.6a4.06,4.06,0,0,1,.83-2.77,2.84,2.84,0,0,1,2.19-.92,2.9,2.9,0,0,1,2.23.91,4,4,0,0,1,.85,2.78v23.69a4,4,0,0,1-.87,2.79,2.9,2.9,0,0,1-2.21.92,2.76,2.76,0,0,1-2.19-.93,4.1,4.1,0,0,1-.83-2.78V407.18H923.15v10.11a4,4,0,0,1-.86,2.79,2.92,2.92,0,0,1-2.22.92,2.78,2.78,0,0,1-2.19-.93,4.1,4.1,0,0,1-.82-2.78V393.6a4.11,4.11,0,0,1,.81-2.77,2.79,2.79,0,0,1,2.2-.92,2.9,2.9,0,0,1,2.23.91A4,4,0,0,1,923.15,393.6Z"/><path d="M969,395.12H955.23v7.38h12.63a3,3,0,0,1,2.08.63,2.1,2.1,0,0,1,.69,1.65,2.22,2.22,0,0,1-.68,1.67,2.94,2.94,0,0,1-2.09.64H955.23v8.56h14.19a3.1,3.1,0,0,1,2.16.66,2.29,2.29,0,0,1,.73,1.78,2.22,2.22,0,0,1-.73,1.73,3.1,3.1,0,0,1-2.16.67H952.87a3.2,3.2,0,0,1-3.73-3.74v-22.6a5.05,5.05,0,0,1,.39-2.14,2.4,2.4,0,0,1,1.22-1.21,5.16,5.16,0,0,1,2.12-.38H969a3.12,3.12,0,0,1,2.16.65,2.18,2.18,0,0,1,.71,1.69,2.21,2.21,0,0,1-.71,1.71A3.12,3.12,0,0,1,969,395.12Z"/><path d="M999.74,408.78h-5.58v8.51a4,4,0,0,1-.86,2.77,3,3,0,0,1-4.39,0,4,4,0,0,1-.84-2.74V394.15a3.82,3.82,0,0,1,.92-2.87,4.25,4.25,0,0,1,2.94-.86h7.81a20.19,20.19,0,0,1,5.33.54,7.8,7.8,0,0,1,3.19,1.7,7.53,7.53,0,0,1,2,2.91,10.16,10.16,0,0,1,.7,3.88q0,4.59-2.83,7T999.74,408.78ZM998.26,395h-4.1v9.18h4.1a12.25,12.25,0,0,0,3.6-.45,4.21,4.21,0,0,0,2.21-1.47,4.46,4.46,0,0,0,.76-2.69,4.54,4.54,0,0,0-1.17-3.24Q1002.34,395,998.26,395Z"/><path d="M1016.34,408.06V393.6a4,4,0,0,1,.83-2.77,2.8,2.8,0,0,1,2.18-.92,2.91,2.91,0,0,1,2.25.92,4.06,4.06,0,0,1,.83,2.77v14.79a13.37,13.37,0,0,0,.56,4.21,4.9,4.9,0,0,0,2,2.63,7.38,7.38,0,0,0,4,.93q3.57,0,5-1.9t1.48-5.75V393.6a4.05,4.05,0,0,1,.82-2.78,2.81,2.81,0,0,1,2.2-.91,2.9,2.9,0,0,1,2.22.91,4,4,0,0,1,.85,2.78v14.46a21.68,21.68,0,0,1-.68,5.88,9.11,9.11,0,0,1-2.6,4.15,10,10,0,0,1-3.81,2.21,16.57,16.57,0,0,1-5.09.7,21,21,0,0,1-6-.75,9.49,9.49,0,0,1-4.08-2.32,9.38,9.38,0,0,1-2.32-4A20.49,20.49,0,0,1,1016.34,408.06Z"/><path d="M1071.26,411.46a8.85,8.85,0,0,1-1.4,4.9,9.35,9.35,0,0,1-4.12,3.41,15.37,15.37,0,0,1-6.41,1.23,14.48,14.48,0,0,1-7.35-1.68,9.89,9.89,0,0,1-3.33-3.23,7.39,7.39,0,0,1-1.28-3.93,2.66,2.66,0,0,1,2.73-2.69,2.33,2.33,0,0,1,1.63.62,5,5,0,0,1,1.14,1.82,11.62,11.62,0,0,0,1.24,2.4,4.9,4.9,0,0,0,1.87,1.59,6.92,6.92,0,0,0,3.18.63,7.17,7.17,0,0,0,4.4-1.26,3.79,3.79,0,0,0,1.69-3.15,3.31,3.31,0,0,0-.91-2.43,6,6,0,0,0-2.36-1.43c-1-.32-2.25-.67-3.86-1a28.56,28.56,0,0,1-5.43-1.78,8.76,8.76,0,0,1-3.46-2.76,7.18,7.18,0,0,1-1.29-4.36,7.41,7.41,0,0,1,1.36-4.41,8.45,8.45,0,0,1,3.91-3,16.06,16.06,0,0,1,6-1,14.86,14.86,0,0,1,4.79.69,9.82,9.82,0,0,1,3.35,1.82,7.67,7.67,0,0,1,1.95,2.39,5.52,5.52,0,0,1,.62,2.44,2.89,2.89,0,0,1-.77,2,2.45,2.45,0,0,1-1.92.87,2.19,2.19,0,0,1-1.59-.52,7.36,7.36,0,0,1-1.18-1.71,7.63,7.63,0,0,0-2-2.66,5.71,5.71,0,0,0-3.69-.95,6.38,6.38,0,0,0-3.8,1,3,3,0,0,0-1.45,2.49,2.51,2.51,0,0,0,.5,1.56,3.92,3.92,0,0,0,1.35,1.13,9.37,9.37,0,0,0,1.74.74q.88.27,2.91.78a43.94,43.94,0,0,1,4.61,1.31,14.11,14.11,0,0,1,3.5,1.74,7.16,7.16,0,0,1,2.26,2.6A8.29,8.29,0,0,1,1071.26,411.46Z"/><path d="M1099.48,411.46a8.77,8.77,0,0,1-1.4,4.9,9.38,9.38,0,0,1-4.11,3.41,15.45,15.45,0,0,1-6.42,1.23,14.42,14.42,0,0,1-7.34-1.68,9.8,9.8,0,0,1-3.33-3.23,7.32,7.32,0,0,1-1.29-3.93,2.66,2.66,0,0,1,2.73-2.69,2.32,2.32,0,0,1,1.63.62,5,5,0,0,1,1.14,1.82,11.62,11.62,0,0,0,1.24,2.4,4.86,4.86,0,0,0,1.88,1.59,6.84,6.84,0,0,0,3.17.63,7.15,7.15,0,0,0,4.4-1.26,3.8,3.8,0,0,0,1.7-3.15,3.32,3.32,0,0,0-.92-2.43,5.94,5.94,0,0,0-2.35-1.43c-1-.32-2.26-.67-3.87-1a28.56,28.56,0,0,1-5.43-1.78,8.76,8.76,0,0,1-3.46-2.76,7.17,7.17,0,0,1-1.28-4.36,7.48,7.48,0,0,1,1.35-4.41,8.48,8.48,0,0,1,3.92-3,16.06,16.06,0,0,1,6-1,14.9,14.9,0,0,1,4.79.69,10,10,0,0,1,3.35,1.82,7.67,7.67,0,0,1,2,2.39,5.5,5.5,0,0,1,.61,2.44,2.84,2.84,0,0,1-.77,2,2.44,2.44,0,0,1-1.91.87,2.19,2.19,0,0,1-1.59-.52,6.8,6.8,0,0,1-1.18-1.71,7.89,7.89,0,0,0-2-2.66,5.75,5.75,0,0,0-3.69-.95,6.41,6.41,0,0,0-3.81,1,3,3,0,0,0-1.44,2.49,2.5,2.5,0,0,0,.49,1.56,4.11,4.11,0,0,0,1.35,1.13,9.75,9.75,0,0,0,1.75.74q.87.27,2.91.78a43.72,43.72,0,0,1,4.6,1.31,14,14,0,0,1,3.51,1.74,7.23,7.23,0,0,1,2.25,2.6A8.29,8.29,0,0,1,1099.48,411.46Z"/><path d="M1111.57,417.29v-9.54l-7.34-11.38a24.35,24.35,0,0,1-1.37-2.4,3.74,3.74,0,0,1-.4-1.5,2.38,2.38,0,0,1,.81-1.8,2.8,2.8,0,0,1,2-.76,2.41,2.41,0,0,1,1.9.71,20.83,20.83,0,0,1,1.94,2.82l5.62,9.12,5.68-9.12.86-1.42A8.31,8.31,0,0,1,1122,391a2.9,2.9,0,0,1,.93-.77,2.9,2.9,0,0,1,3.17.48,2.35,2.35,0,0,1,.77,1.73,3.62,3.62,0,0,1-.39,1.6,23.43,23.43,0,0,1-1.33,2.22l-7.53,11.54v9.54a4,4,0,0,1-.86,2.79,2.91,2.91,0,0,1-2.2.92,2.87,2.87,0,0,1-2.19-.91A4,4,0,0,1,1111.57,417.29Z"/></svg>
