<svg id="Layer_1" data-name="Layer 1" xmlns="http://www.w3.org/2000/svg" width="1443" height="765" viewBox="0 0 1443 765"><defs><style>.cls-1{opacity:0.87;}.cls-2{fill:#f5efcb;}.cls-3{fill:#2e9cc6;}.cls-4{fill:#99ada1;}.cls-5{fill:#666;}.cls-6{fill:#db1620;}</style></defs><title>youwon</title><g class="cls-1"><rect class="cls-2" y="3.61" width="1443" height="757.78" rx="12" ry="12"/></g><path class="cls-3" d="M565.67,106h-3.44l-10.91,40.51v9.7h6.89v3.41H521.88v-3.41h6.89v-9.7L517.87,106h-3.53V102.6h21.81l6.73,30.09h4.67V102.6h18.12Z"/><path class="cls-3" d="M614.22,131.43v7q0,11.31-3.28,15.89a30.86,30.86,0,0,1-2.22,2.79,7.69,7.69,0,0,1-2.87,1.84c-1.26.51-2.29.9-3.11,1.17a15.94,15.94,0,0,1-3.53.58,74.86,74.86,0,0,1-12.18.23,31.87,31.87,0,0,1-5.7-.81c-.76-.27-1.71-.66-2.83-1.17a7.13,7.13,0,0,1-2.58-1.84,29.65,29.65,0,0,1-2-2.79,11.75,11.75,0,0,1-1.6-4A50.72,50.72,0,0,1,571,138.44v-7q0-11.31,3.28-15.9a30.56,30.56,0,0,1,2.22-2.78,7.69,7.69,0,0,1,2.87-1.84c1.25-.51,2.29-.9,3.11-1.17a16.66,16.66,0,0,1,3.61-.59c2.3-.18,4.54-.26,6.72-.26s3.68,0,4.47,0,1.9.11,3.32.22a14.19,14.19,0,0,1,3.28.59c.77.27,1.71.66,2.83,1.17a7.26,7.26,0,0,1,2.59,1.84,27.77,27.77,0,0,1,2,2.78,13.46,13.46,0,0,1,1.69,4A53.85,53.85,0,0,1,614.22,131.43Zm-15.58,22.81V115.62H586.58v38.62Z"/><path class="cls-3" d="M626.1,146.16V113.65h-3.27v-3.42h18.85v42.58h12.06V110.23h15.58v46h3.28v3.41H662.51l-3.28-6.82h-1.06c0,3.17-1.06,5.33-3.16,6.46s-5.29,1.71-9.55,1.71q-8.44,0-11.32-1.17c-2.79-1.08-4.7-2.48-5.74-4.22A17.56,17.56,0,0,1,626.1,146.16Z"/><path class="cls-3" d="M738.12,145.44H736l-2.54,14.19H709.25l-6-46h-3.2v-3.42h19.76l3.61,41.86h6.31V110.23H740.9l3.61,41.86h6.32V110.23h14.84l-9,49.4H738.12Z"/><path class="cls-3" d="M817.08,131.43v7q0,11.31-3.28,15.89a32.86,32.86,0,0,1-2.21,2.79,7.86,7.86,0,0,1-2.87,1.84q-1.89.76-3.12,1.17a15.83,15.83,0,0,1-3.52.58,74.88,74.88,0,0,1-12.18.23,31.54,31.54,0,0,1-5.7-.81c-.77-.27-1.71-.66-2.83-1.17a7.13,7.13,0,0,1-2.58-1.84,29.65,29.65,0,0,1-2-2.79,11.75,11.75,0,0,1-1.6-4,50.2,50.2,0,0,1-1.31-11.94v-7q0-11.31,3.28-15.9a32.52,32.52,0,0,1,2.21-2.78,7.78,7.78,0,0,1,2.87-1.84q1.89-.76,3.12-1.17a16.66,16.66,0,0,1,3.61-.59c2.29-.18,4.53-.26,6.72-.26s3.68,0,4.47,0,1.9.11,3.32.22a14.41,14.41,0,0,1,3.28.59c.76.27,1.71.66,2.83,1.17a7.13,7.13,0,0,1,2.58,1.84,29.35,29.35,0,0,1,2,2.78,13.19,13.19,0,0,1,1.68,4A53.85,53.85,0,0,1,817.08,131.43ZM801.5,154.24V115.62h-12v38.62Z"/><path class="cls-3" d="M875.87,159.63H857V117.06H845v42.57H826.1v-3.41h3.28V113.65H826.1v-3.42H837l2.87,6.83h1.06q1.72-5,5.21-6.6T857,108.89q7.38,0,11.48,3t4.1,10.47v33.86h3.28Z"/><path class="cls-3" d="M884.73,102.6h18.78v24.25l-2.46,11.86H887.19l-2.46-11.86Zm9.51,43.47c3.61,0,5.91.44,6.89,1.3s1.48,2.94,1.48,6.2-.51,5.32-1.52,6.15-3.32,1.26-6.93,1.26-6-.42-7-1.26-1.64-2.89-1.64-6.15.56-5.33,1.68-6.2S890.63,146.07,894.24,146.07Z"/><path d="M169.45,248.79a8.08,8.08,0,0,1-.71,3.11,11.19,11.19,0,0,1-2.22,3.28,11.51,11.51,0,0,1-3.88,2.61,13.91,13.91,0,0,1-5.5,1,19.23,19.23,0,0,1-4.32-.45,12,12,0,0,1-3.54-1.41,11.79,11.79,0,0,1-2.92-2.51,14.54,14.54,0,0,1-2-3.17,16.46,16.46,0,0,1-1.26-3.74,20.4,20.4,0,0,1-.42-4.22,18.92,18.92,0,0,1,1-6.51,13.88,13.88,0,0,1,3-4.91,13.16,13.16,0,0,1,4.61-3.1,14.74,14.74,0,0,1,5.64-1.07,14,14,0,0,1,6.5,1.46,11.82,11.82,0,0,1,4.37,3.59,7.13,7.13,0,0,1,1.52,4.05,2.65,2.65,0,0,1-.74,1.85,2.36,2.36,0,0,1-1.79.8,2.47,2.47,0,0,1-1.75-.55,7.79,7.79,0,0,1-1.3-1.91,9.1,9.1,0,0,0-2.8-3.34,6.83,6.83,0,0,0-4-1.11,7.21,7.21,0,0,0-6,2.85q-2.22,2.85-2.22,8.1a15.22,15.22,0,0,0,1,5.84,7.37,7.37,0,0,0,2.79,3.47,7.66,7.66,0,0,0,4.23,1.15,7.4,7.4,0,0,0,4.44-1.3,7.85,7.85,0,0,0,2.73-3.83,6.63,6.63,0,0,1,1-1.94,2.2,2.2,0,0,1,1.84-.74,2.6,2.6,0,0,1,1.87.75A2.54,2.54,0,0,1,169.45,248.79Z"/><path d="M195.7,247.42a13.2,13.2,0,0,1-.78,4.61,9.9,9.9,0,0,1-5.78,6,12.46,12.46,0,0,1-4.61.81A12.1,12.1,0,0,1,180,258a10.14,10.14,0,0,1-5.77-6,14.22,14.22,0,0,1,0-9.26,10.16,10.16,0,0,1,2.24-3.61,9.78,9.78,0,0,1,3.52-2.3,13.36,13.36,0,0,1,9.19,0,9.93,9.93,0,0,1,3.55,2.33,10.4,10.4,0,0,1,2.25,3.61A13.41,13.41,0,0,1,195.7,247.42Zm-5.62,0a8.41,8.41,0,0,0-1.5-5.33,4.89,4.89,0,0,0-4.05-1.91,5,5,0,0,0-2.89.85,5.34,5.34,0,0,0-1.93,2.51,10.26,10.26,0,0,0-.68,3.88,10,10,0,0,0,.67,3.83,5.41,5.41,0,0,0,1.91,2.51,5.25,5.25,0,0,0,7-1A8.41,8.41,0,0,0,190.08,247.42Z"/><path d="M205.41,239.13v.68a9.75,9.75,0,0,1,3.23-2.86,8.58,8.58,0,0,1,4-.91,8.09,8.09,0,0,1,4,1,6.07,6.07,0,0,1,2.6,2.73,6.45,6.45,0,0,1,.72,2.21,23,23,0,0,1,.16,3v10.41a3.69,3.69,0,0,1-.77,2.55,2.55,2.55,0,0,1-2,.86,2.58,2.58,0,0,1-2-.88,3.7,3.7,0,0,1-.77-2.53v-9.33a9.36,9.36,0,0,0-.77-4.23,3.14,3.14,0,0,0-3.07-1.47,4.52,4.52,0,0,0-2.73.9,5.07,5.07,0,0,0-1.8,2.45,17.21,17.21,0,0,0-.41,4.67v7A3.68,3.68,0,0,1,205,258a2.69,2.69,0,0,1-2,.85,2.53,2.53,0,0,1-2-.88,3.7,3.7,0,0,1-.78-2.53V239.21a3.47,3.47,0,0,1,.7-2.38,2.39,2.39,0,0,1,1.9-.79,2.42,2.42,0,0,1,2.29,1.39A3.65,3.65,0,0,1,205.41,239.13Z"/><path d="M246.49,240.14V256.4a17.3,17.3,0,0,1-.59,4.8,7.73,7.73,0,0,1-1.91,3.32,7.93,7.93,0,0,1-3.44,2,18.79,18.79,0,0,1-5.28.63,15.31,15.31,0,0,1-5.16-.81,8.85,8.85,0,0,1-3.51-2.09,3.8,3.8,0,0,1-1.23-2.63,2.15,2.15,0,0,1,.7-1.67,2.37,2.37,0,0,1,1.68-.65,2.73,2.73,0,0,1,2.15,1.09q.45.56.93,1.11a5.43,5.43,0,0,0,1.07,1,4.35,4.35,0,0,0,1.4.59,8.24,8.24,0,0,0,1.89.2,7.49,7.49,0,0,0,3.37-.61,3.43,3.43,0,0,0,1.69-1.69,6.69,6.69,0,0,0,.56-2.33c.06-.82.1-2.15.12-4a9.17,9.17,0,0,1-3,2.74,8.14,8.14,0,0,1-4,1,8.48,8.48,0,0,1-4.91-1.44,9.2,9.2,0,0,1-3.23-4,14.82,14.82,0,0,1-1.13-6,14.07,14.07,0,0,1,.69-4.55,9.41,9.41,0,0,1,2-3.42,8.41,8.41,0,0,1,2.93-2.11,9.24,9.24,0,0,1,3.65-.7A8.76,8.76,0,0,1,238,237a10.07,10.07,0,0,1,3.24,2.86v-.76a3.24,3.24,0,0,1,.72-2.25,2.34,2.34,0,0,1,1.84-.8,2.19,2.19,0,0,1,2.16,1.05A7,7,0,0,1,246.49,240.14Zm-16.22,7.09a7.7,7.7,0,0,0,1.49,5.15,4.81,4.81,0,0,0,3.84,1.74,5,5,0,0,0,2.64-.75,5.5,5.5,0,0,0,2-2.25,7.91,7.91,0,0,0,.78-3.66,8.43,8.43,0,0,0-1.51-5.33,4.8,4.8,0,0,0-4-1.91,4.69,4.69,0,0,0-3.85,1.82A8.22,8.22,0,0,0,230.27,247.23Z"/><path d="M257.37,250.72v4.67a3.64,3.64,0,0,1-.8,2.56,2.7,2.7,0,0,1-2,.85,2.57,2.57,0,0,1-2-.86,3.69,3.69,0,0,1-.78-2.55V239.81c0-2.52.91-3.77,2.72-3.77a2.27,2.27,0,0,1,2,.88,4.84,4.84,0,0,1,.68,2.6,9.86,9.86,0,0,1,2.06-2.6,4.27,4.27,0,0,1,2.82-.88,7.21,7.21,0,0,1,3.43.88,2.64,2.64,0,0,1,1.66,2.34,2.24,2.24,0,0,1-.71,1.69,2.2,2.2,0,0,1-1.53.66,6.57,6.57,0,0,1-1.48-.38,7,7,0,0,0-2.09-.38,3.05,3.05,0,0,0-2,.65,4.16,4.16,0,0,0-1.21,1.92,13.81,13.81,0,0,0-.59,3C257.42,247.61,257.37,249,257.37,250.72Z"/><path d="M283.52,255.64a17.85,17.85,0,0,1-3.93,2.37,10.89,10.89,0,0,1-4.26.79,8.16,8.16,0,0,1-3.78-.85,6.24,6.24,0,0,1-2.51-2.31,6,6,0,0,1-.88-3.16,5.64,5.64,0,0,1,1.45-3.91,7.31,7.31,0,0,1,4-2.18l2.65-.55c1.41-.29,2.61-.55,3.62-.79s2.09-.53,3.27-.87a5.89,5.89,0,0,0-.89-3.25c-.53-.69-1.62-1-3.27-1a6.72,6.72,0,0,0-3.21.6,5.14,5.14,0,0,0-1.85,1.78,18.65,18.65,0,0,1-1.09,1.57,1.78,1.78,0,0,1-1.36.38,2.36,2.36,0,0,1-1.63-.61,2,2,0,0,1-.69-1.55,4.73,4.73,0,0,1,1-2.87,7.45,7.45,0,0,1,3.26-2.29A14.71,14.71,0,0,1,279,236a15.6,15.6,0,0,1,5.8.88,5.39,5.39,0,0,1,3,2.75,12.11,12.11,0,0,1,.87,5c0,1.31,0,2.42,0,3.34s0,1.94,0,3.06a11.23,11.23,0,0,0,.53,3.29,10.16,10.16,0,0,1,.52,2.2,2.05,2.05,0,0,1-.81,1.57,2.72,2.72,0,0,1-1.84.71,2.48,2.48,0,0,1-1.7-.81A12,12,0,0,1,283.52,255.64Zm-.37-8.1a27.86,27.86,0,0,1-3.58,1c-1.57.34-2.65.59-3.25.74a4.41,4.41,0,0,0-1.72.93,2.33,2.33,0,0,0-.82,1.91,2.86,2.86,0,0,0,1,2.17,3.57,3.57,0,0,0,2.52.89,6.53,6.53,0,0,0,3.07-.73,4.85,4.85,0,0,0,2.06-1.88,8.49,8.49,0,0,0,.76-4.18Z"/><path d="M293.8,236.53h.61v-3.37c0-.9,0-1.61.07-2.12a3.3,3.3,0,0,1,.4-1.32,2.57,2.57,0,0,1,.95-.93,2.67,2.67,0,0,1,1.37-.36,2.75,2.75,0,0,1,1.93.8,2.42,2.42,0,0,1,.73,1.3,12.08,12.08,0,0,1,.15,2.18v3.82h2.05a2.68,2.68,0,0,1,1.82.56,1.89,1.89,0,0,1,.62,1.45,1.61,1.61,0,0,1-.89,1.58,5.79,5.79,0,0,1-2.55.45H300v10.29a17,17,0,0,0,.09,2,2,2,0,0,0,.5,1.15,1.65,1.65,0,0,0,1.3.44,7.37,7.37,0,0,0,1.33-.17,6.73,6.73,0,0,1,1.31-.18,1.66,1.66,0,0,1,1.22.55,1.83,1.83,0,0,1,.55,1.34,2.26,2.26,0,0,1-1.48,2.07,10,10,0,0,1-4.25.72,7.28,7.28,0,0,1-4-.88,4.07,4.07,0,0,1-1.78-2.44,16.62,16.62,0,0,1-.42-4.17V240.57h-.74a2.62,2.62,0,0,1-1.84-.58,1.84,1.84,0,0,1-.64-1.45,1.81,1.81,0,0,1,.67-1.45A3,3,0,0,1,293.8,236.53Z"/><path d="M326.59,251.48a6.89,6.89,0,0,1-1.12,4,7,7,0,0,1-3.34,2.5,15.07,15.07,0,0,1-5.36.85,13.2,13.2,0,0,1-5.17-.92,7.68,7.68,0,0,1-3.18-2.31,4.66,4.66,0,0,1-1-2.78,2.19,2.19,0,0,1,.65-1.58,2.27,2.27,0,0,1,1.67-.66,1.94,1.94,0,0,1,1.35.44,4.75,4.75,0,0,1,.9,1.21,5.38,5.38,0,0,0,5.33,3,4.73,4.73,0,0,0,2.76-.75,2.11,2.11,0,0,0,1.08-1.71,2.34,2.34,0,0,0-1.12-2.16,13.78,13.78,0,0,0-3.68-1.29,31.46,31.46,0,0,1-4.71-1.5,7.75,7.75,0,0,1-2.9-2.09,4.79,4.79,0,0,1-1.09-3.17,5.58,5.58,0,0,1,1-3.18,6.87,6.87,0,0,1,3-2.39,11.28,11.28,0,0,1,4.73-.89,15.62,15.62,0,0,1,3.91.45,9.64,9.64,0,0,1,2.89,1.21,5.81,5.81,0,0,1,1.76,1.68,3.32,3.32,0,0,1,.61,1.8,2.08,2.08,0,0,1-.65,1.58,2.55,2.55,0,0,1-1.83.62,2.29,2.29,0,0,1-1.47-.49,10.33,10.33,0,0,1-1.39-1.48,4.88,4.88,0,0,0-1.49-1.31,4.73,4.73,0,0,0-2.34-.5,4.58,4.58,0,0,0-2.52.65,1.89,1.89,0,0,0-1,1.61,1.76,1.76,0,0,0,.74,1.45,6.36,6.36,0,0,0,2,.93c.83.24,2,.55,3.45.9a18.17,18.17,0,0,1,4.25,1.52,7.11,7.11,0,0,1,2.5,2.08A4.59,4.59,0,0,1,326.59,251.48Z"/><path d="M354.31,246.58h-5.58v8.51a4,4,0,0,1-.86,2.77,3,3,0,0,1-4.39,0,4,4,0,0,1-.84-2.74V232a3.82,3.82,0,0,1,.92-2.87,4.25,4.25,0,0,1,2.94-.86h7.81a20.19,20.19,0,0,1,5.33.54,7.86,7.86,0,0,1,3.19,1.7,7.53,7.53,0,0,1,2,2.91,10.16,10.16,0,0,1,.7,3.88c0,3.06-.95,5.38-2.83,7S358,246.58,354.31,246.58Zm-1.48-13.78h-4.1V242h4.1a12.25,12.25,0,0,0,3.6-.45,4.17,4.17,0,0,0,2.21-1.48,4.41,4.41,0,0,0,.76-2.68,4.54,4.54,0,0,0-1.17-3.24Q356.91,232.8,352.83,232.8Z"/><path d="M384.09,227.71a16,16,0,0,1,8,1.9A12.26,12.26,0,0,1,397.2,235a18.49,18.49,0,0,1,1.72,8.21,20.34,20.34,0,0,1-.94,6.34,13.79,13.79,0,0,1-2.83,4.94,12.38,12.38,0,0,1-4.64,3.2,18.23,18.23,0,0,1-12.61,0,12.62,12.62,0,0,1-4.66-3.21,13.82,13.82,0,0,1-2.82-5,20.29,20.29,0,0,1-.95-6.3,19.55,19.55,0,0,1,1-6.36,13.84,13.84,0,0,1,2.89-4.92,12.27,12.27,0,0,1,4.59-3.1A16.45,16.45,0,0,1,384.09,227.71Zm8.66,15.46a14.1,14.1,0,0,0-1.07-5.72,8,8,0,0,0-3.05-3.66,8.34,8.34,0,0,0-4.54-1.24,8.19,8.19,0,0,0-3.37.69,7.34,7.34,0,0,0-2.67,2,9.57,9.57,0,0,0-1.76,3.35,15.17,15.17,0,0,0-.65,4.58,15.58,15.58,0,0,0,.65,4.64,9.57,9.57,0,0,0,1.82,3.43,7.67,7.67,0,0,0,2.71,2,8.53,8.53,0,0,0,7.65-.49,8.09,8.09,0,0,0,3.12-3.61A14,14,0,0,0,392.75,243.17Z"/><path d="M422.26,233.25h-6.64v21.84a4,4,0,0,1-.84,2.8,3.08,3.08,0,0,1-4.38,0,4,4,0,0,1-.85-2.79V233.25H402.9a3.37,3.37,0,0,1-2.32-.69,2.35,2.35,0,0,1-.75-1.82,2.29,2.29,0,0,1,.79-1.84,3.39,3.39,0,0,1,2.28-.68h19.36a3.39,3.39,0,0,1,2.35.7,2.34,2.34,0,0,1,.77,1.82,2.3,2.3,0,0,1-.78,1.82A3.44,3.44,0,0,1,422.26,233.25Z"/><path d="M429.24,245.86V231.4a4.06,4.06,0,0,1,.83-2.77,2.8,2.8,0,0,1,2.18-.92,2.88,2.88,0,0,1,2.25.92,4.06,4.06,0,0,1,.83,2.77v14.79a13.67,13.67,0,0,0,.56,4.21,5,5,0,0,0,2,2.63,7.38,7.38,0,0,0,4,.93q3.57,0,5-1.9t1.47-5.75V231.4a4.1,4.1,0,0,1,.82-2.78,2.81,2.81,0,0,1,2.2-.91,2.87,2.87,0,0,1,2.22.91,4,4,0,0,1,.86,2.78v14.46a21.26,21.26,0,0,1-.69,5.88,9,9,0,0,1-2.6,4.15,10,10,0,0,1-3.81,2.21,16.52,16.52,0,0,1-5.09.7,20.84,20.84,0,0,1-6-.75,9.59,9.59,0,0,1-4.09-2.32,9.27,9.27,0,0,1-2.31-4A20.46,20.46,0,0,1,429.24,245.86Z"/><path d="M484.16,249.26a8.77,8.77,0,0,1-1.4,4.9,9.38,9.38,0,0,1-4.11,3.41,15.45,15.45,0,0,1-6.42,1.23,14.42,14.42,0,0,1-7.34-1.68,9.92,9.92,0,0,1-3.34-3.23,7.39,7.39,0,0,1-1.28-3.93,2.66,2.66,0,0,1,2.73-2.69,2.32,2.32,0,0,1,1.63.62,5,5,0,0,1,1.14,1.82,11.62,11.62,0,0,0,1.24,2.4,4.86,4.86,0,0,0,1.88,1.59,6.84,6.84,0,0,0,3.17.63,7.15,7.15,0,0,0,4.4-1.26,3.8,3.8,0,0,0,1.7-3.15,3.32,3.32,0,0,0-.92-2.43,5.91,5.91,0,0,0-2.36-1.43c-1-.32-2.25-.67-3.86-1a28.56,28.56,0,0,1-5.43-1.78,8.76,8.76,0,0,1-3.46-2.76,7.17,7.17,0,0,1-1.28-4.36,7.48,7.48,0,0,1,1.35-4.41,8.48,8.48,0,0,1,3.92-3,15.86,15.86,0,0,1,6-1,14.9,14.9,0,0,1,4.79.69,10,10,0,0,1,3.35,1.82,7.67,7.67,0,0,1,1.95,2.39,5.5,5.5,0,0,1,.61,2.44,2.84,2.84,0,0,1-.77,2,2.44,2.44,0,0,1-1.91.87,2.19,2.19,0,0,1-1.59-.52,6.8,6.8,0,0,1-1.18-1.71,7.89,7.89,0,0,0-2-2.66,5.75,5.75,0,0,0-3.69-1,6.41,6.41,0,0,0-3.81,1,3,3,0,0,0-1.44,2.49,2.5,2.5,0,0,0,.49,1.56,4.11,4.11,0,0,0,1.35,1.13,9.75,9.75,0,0,0,1.75.74q.87.27,2.91.78a43.72,43.72,0,0,1,4.6,1.31,14.37,14.37,0,0,1,3.51,1.74,7.23,7.23,0,0,1,2.25,2.6A8.29,8.29,0,0,1,484.16,249.26Z"/><path d="M491,245.26l-.66-9.82c-.12-1.91-.18-3.29-.18-4.12a3.77,3.77,0,0,1,.89-2.66,3.08,3.08,0,0,1,2.35-.95,2.38,2.38,0,0,1,2.36,1.22,8.37,8.37,0,0,1,.59,3.52c0,.9-.05,1.81-.14,2.74l-.88,10.11a7.84,7.84,0,0,1-.62,2.77,1.6,1.6,0,0,1-1.56,1,1.55,1.55,0,0,1-1.54-.94A9.35,9.35,0,0,1,491,245.26Zm2.28,13.5a3.23,3.23,0,0,1-2.19-.81,2.85,2.85,0,0,1-.93-2.27,3,3,0,0,1,3.07-3.05,3,3,0,0,1,2.21.89,3.13,3.13,0,0,1,0,4.42A3.17,3.17,0,0,1,493.28,258.76Z"/><path d="M521.16,255.09v-9.54l-7.35-11.38a26,26,0,0,1-1.36-2.4,3.58,3.58,0,0,1-.4-1.5,2.38,2.38,0,0,1,.81-1.8,2.8,2.8,0,0,1,2-.76,2.42,2.42,0,0,1,1.9.71,21,21,0,0,1,1.93,2.82l5.62,9.12,5.68-9.12c.35-.56.63-1,.87-1.42a8.25,8.25,0,0,1,.76-1.07,2.93,2.93,0,0,1,.94-.77,2.9,2.9,0,0,1,3.17.48,2.35,2.35,0,0,1,.77,1.73,3.62,3.62,0,0,1-.39,1.6,21.92,21.92,0,0,1-1.34,2.22l-7.52,11.54v9.54a4,4,0,0,1-.87,2.79,3.08,3.08,0,0,1-4.38,0A4,4,0,0,1,521.16,255.09Z"/><path d="M558.83,247.42a13.2,13.2,0,0,1-.78,4.61,10.21,10.21,0,0,1-2.25,3.63,10,10,0,0,1-3.53,2.33,12.46,12.46,0,0,1-4.61.81,12.1,12.1,0,0,1-4.58-.82,10.18,10.18,0,0,1-3.51-2.35,10,10,0,0,1-2.26-3.61,14.22,14.22,0,0,1,0-9.26,10,10,0,0,1,2.24-3.61,9.78,9.78,0,0,1,3.52-2.3,13.36,13.36,0,0,1,9.19,0,10,10,0,0,1,3.55,2.33,10.23,10.23,0,0,1,2.24,3.61A13.18,13.18,0,0,1,558.83,247.42Zm-5.62,0a8.41,8.41,0,0,0-1.5-5.33,4.89,4.89,0,0,0-4.05-1.91,5,5,0,0,0-2.9.85,5.39,5.39,0,0,0-1.92,2.51,10.26,10.26,0,0,0-.68,3.88,10,10,0,0,0,.67,3.83,5.46,5.46,0,0,0,1.9,2.51,5.26,5.26,0,0,0,7-1A8.41,8.41,0,0,0,553.21,247.42Z"/><path d="M578,255.64v-.72a12.6,12.6,0,0,1-2.11,2.14,7.94,7.94,0,0,1-2.42,1.28,9.82,9.82,0,0,1-3,.42,7.72,7.72,0,0,1-3.64-.84,6.17,6.17,0,0,1-2.5-2.32,10.35,10.35,0,0,1-1-5.13V239.38a3.59,3.59,0,0,1,.76-2.51,2.55,2.55,0,0,1,2-.83,2.68,2.68,0,0,1,2.05.84,3.55,3.55,0,0,1,.78,2.5v9a14.33,14.33,0,0,0,.32,3.27,4,4,0,0,0,1.18,2.07,3.38,3.38,0,0,0,2.31.75,4.73,4.73,0,0,0,2.67-.84,4.9,4.9,0,0,0,1.82-2.19,17.5,17.5,0,0,0,.47-5.21v-6.81a3.55,3.55,0,0,1,.78-2.5,2.65,2.65,0,0,1,2-.84,2.55,2.55,0,0,1,2,.83,3.59,3.59,0,0,1,.76,2.51V255.6a3.43,3.43,0,0,1-.73,2.4,2.42,2.42,0,0,1-1.87.8,2.46,2.46,0,0,1-1.9-.83A3.35,3.35,0,0,1,578,255.64Z"/><path d="M603.23,239.52,606.88,252l3.32-11.63c.35-1.21.62-2,.79-2.49a3.24,3.24,0,0,1,1-1.27,2.9,2.9,0,0,1,1.94-.6,2.94,2.94,0,0,1,2,.6,3.42,3.42,0,0,1,1,1.31c.2.48.46,1.29.8,2.45L621,252l3.69-12.51c.24-.9.44-1.55.59-2a2.61,2.61,0,0,1,.76-1.06,2.28,2.28,0,0,1,1.54-.46,2.46,2.46,0,0,1,1.74.69,2.2,2.2,0,0,1,.74,1.64,8.37,8.37,0,0,1-.64,2.61l-4.57,13.41c-.4,1.13-.7,2-.92,2.46a3.62,3.62,0,0,1-1,1.35,2.89,2.89,0,0,1-1.94.6,2.93,2.93,0,0,1-2-.64,3.8,3.8,0,0,1-1.07-1.56c-.23-.61-.49-1.41-.76-2.39l-3.2-10.91-3.1,10.91a13.37,13.37,0,0,1-1.33,3.43,2.73,2.73,0,0,1-2.52,1.16,3.17,3.17,0,0,1-1.57-.36,3.09,3.09,0,0,1-1.08-1,8.61,8.61,0,0,1-.76-1.58c-.21-.61-.39-1.09-.51-1.45L598.49,241a9.61,9.61,0,0,1-.68-2.61,2.24,2.24,0,0,1,.72-1.62,2.39,2.39,0,0,1,1.76-.71,2,2,0,0,1,1.89.79A11.45,11.45,0,0,1,603.23,239.52Z"/><path d="M654.5,247.42a13.2,13.2,0,0,1-.78,4.61,10.21,10.21,0,0,1-2.25,3.63,10,10,0,0,1-3.53,2.33,12.51,12.51,0,0,1-4.62.81,12,12,0,0,1-4.57-.82,10.22,10.22,0,0,1-3.52-2.35A10.11,10.11,0,0,1,633,252a13,13,0,0,1-.77-4.6,13.36,13.36,0,0,1,.78-4.66,10.14,10.14,0,0,1,2.23-3.61,9.82,9.82,0,0,1,3.53-2.3,13.36,13.36,0,0,1,9.19,0,10,10,0,0,1,3.55,2.33,10.23,10.23,0,0,1,2.24,3.61A13.41,13.41,0,0,1,654.5,247.42Zm-5.62,0a8.41,8.41,0,0,0-1.5-5.33,4.89,4.89,0,0,0-4.06-1.91,5,5,0,0,0-2.89.85,5.47,5.47,0,0,0-1.93,2.51,11.51,11.51,0,0,0,0,7.71,5.48,5.48,0,0,0,1.91,2.51,5.27,5.27,0,0,0,7-1A8.41,8.41,0,0,0,648.88,247.42Z"/><path d="M664.21,239.13v.68a9.75,9.75,0,0,1,3.23-2.86,8.58,8.58,0,0,1,4-.91,8,8,0,0,1,3.95,1,6.1,6.1,0,0,1,2.61,2.73,6.45,6.45,0,0,1,.72,2.21,23,23,0,0,1,.16,3v10.41a3.74,3.74,0,0,1-.77,2.55,2.77,2.77,0,0,1-4,0,3.7,3.7,0,0,1-.78-2.53v-9.33a9.23,9.23,0,0,0-.77-4.23,3.12,3.12,0,0,0-3.06-1.47,4.52,4.52,0,0,0-2.73.9,5.16,5.16,0,0,0-1.81,2.45,17.64,17.64,0,0,0-.41,4.67v7a3.68,3.68,0,0,1-.78,2.56,2.7,2.7,0,0,1-2,.85,2.51,2.51,0,0,1-2-.88,3.7,3.7,0,0,1-.78-2.53V239.21a3.52,3.52,0,0,1,.69-2.38,2.41,2.41,0,0,1,1.91-.79,2.44,2.44,0,0,1,2.29,1.39A3.65,3.65,0,0,1,664.21,239.13Z"/><path d="M711,248.79h-11a7.49,7.49,0,0,0,.77,3.36,5.22,5.22,0,0,0,2,2.2,5.29,5.29,0,0,0,2.74.74,6.66,6.66,0,0,0,1.84-.24,6,6,0,0,0,1.61-.74,13,13,0,0,0,1.43-1.07c.44-.39,1-.91,1.7-1.56a1.83,1.83,0,0,1,1.23-.37,2.06,2.06,0,0,1,1.4.47,1.7,1.7,0,0,1,.53,1.33,3.71,3.71,0,0,1-.59,1.78,7.34,7.34,0,0,1-1.8,1.95,10.23,10.23,0,0,1-3,1.54,13,13,0,0,1-4.18.62c-3.59,0-6.39-1-8.38-3.08a11.43,11.43,0,0,1-3-8.34,14,14,0,0,1,.74-4.61,10.19,10.19,0,0,1,2.15-3.64,9.56,9.56,0,0,1,3.49-2.33,12.5,12.5,0,0,1,4.59-.81,10.9,10.9,0,0,1,5.63,1.39,9,9,0,0,1,3.52,3.58,9.38,9.38,0,0,1,1.17,4.47c0,1.41-.4,2.32-1.21,2.74A7.64,7.64,0,0,1,711,248.79Zm-11-3.18h10.16a6.84,6.84,0,0,0-1.55-4.29,4.66,4.66,0,0,0-3.54-1.43,4.47,4.47,0,0,0-3.44,1.45A7.27,7.27,0,0,0,700.08,245.61Z"/><path d="M725.66,239.13v.68a9.85,9.85,0,0,1,3.23-2.86,8.58,8.58,0,0,1,4-.91,8.06,8.06,0,0,1,4,1,6.07,6.07,0,0,1,2.6,2.73,6.45,6.45,0,0,1,.72,2.21,22.76,22.76,0,0,1,.17,3v10.41a3.74,3.74,0,0,1-.77,2.55,2.77,2.77,0,0,1-4,0,3.7,3.7,0,0,1-.78-2.53v-9.33a9.36,9.36,0,0,0-.77-4.23,3.13,3.13,0,0,0-3.07-1.47,4.51,4.51,0,0,0-2.72.9,5.09,5.09,0,0,0-1.81,2.45,17.64,17.64,0,0,0-.41,4.67v7a3.63,3.63,0,0,1-.79,2.56,2.69,2.69,0,0,1-2,.85,2.53,2.53,0,0,1-2-.88,3.7,3.7,0,0,1-.78-2.53V239.21a3.47,3.47,0,0,1,.7-2.38A2.4,2.4,0,0,1,723,236a2.61,2.61,0,0,1,1.33.34,2.56,2.56,0,0,1,.95,1.05A3.65,3.65,0,0,1,725.66,239.13Z"/><path d="M767.11,247.42a13.2,13.2,0,0,1-.78,4.61,10.21,10.21,0,0,1-2.25,3.63,10,10,0,0,1-3.53,2.33,12.46,12.46,0,0,1-4.61.81,12.1,12.1,0,0,1-4.58-.82,10.18,10.18,0,0,1-3.51-2.35,10,10,0,0,1-2.26-3.61,14.22,14.22,0,0,1,0-9.26,10.16,10.16,0,0,1,2.24-3.61,9.78,9.78,0,0,1,3.52-2.3,13.36,13.36,0,0,1,9.19,0,10,10,0,0,1,3.55,2.33,10.23,10.23,0,0,1,2.24,3.61A13.18,13.18,0,0,1,767.11,247.42Zm-5.62,0a8.41,8.41,0,0,0-1.5-5.33,4.89,4.89,0,0,0-4-1.91,5,5,0,0,0-2.9.85,5.39,5.39,0,0,0-1.92,2.51,10.26,10.26,0,0,0-.68,3.88,10,10,0,0,0,.67,3.83,5.46,5.46,0,0,0,1.9,2.51,5.26,5.26,0,0,0,7-1A8.41,8.41,0,0,0,761.49,247.42Z"/><path d="M786.27,255.64v-.72a12.6,12.6,0,0,1-2.11,2.14,7.82,7.82,0,0,1-2.42,1.28,9.77,9.77,0,0,1-3,.42,7.72,7.72,0,0,1-3.64-.84,6.17,6.17,0,0,1-2.5-2.32,10.35,10.35,0,0,1-1-5.13V239.38a3.59,3.59,0,0,1,.76-2.51,2.55,2.55,0,0,1,2-.83,2.68,2.68,0,0,1,2,.84,3.55,3.55,0,0,1,.78,2.5v9a13.73,13.73,0,0,0,.33,3.27,3.92,3.92,0,0,0,1.17,2.07,3.38,3.38,0,0,0,2.31.75,4.73,4.73,0,0,0,2.67-.84,4.9,4.9,0,0,0,1.82-2.19,17.5,17.5,0,0,0,.47-5.21v-6.81a3.55,3.55,0,0,1,.78-2.5,2.65,2.65,0,0,1,2-.84,2.55,2.55,0,0,1,2,.83,3.59,3.59,0,0,1,.76,2.51V255.6a3.43,3.43,0,0,1-.73,2.4,2.42,2.42,0,0,1-1.87.8A2.46,2.46,0,0,1,787,258,3.35,3.35,0,0,1,786.27,255.64Z"/><path d="M817.9,240.14V256.4a17.3,17.3,0,0,1-.59,4.8,7.73,7.73,0,0,1-1.91,3.32,7.93,7.93,0,0,1-3.44,2,18.79,18.79,0,0,1-5.28.63,15.37,15.37,0,0,1-5.17-.81,8.88,8.88,0,0,1-3.5-2.09,3.8,3.8,0,0,1-1.23-2.63,2.17,2.17,0,0,1,.69-1.67,2.42,2.42,0,0,1,1.69-.65,2.75,2.75,0,0,1,2.15,1.09q.45.56.93,1.11a5.43,5.43,0,0,0,1.07,1,4.35,4.35,0,0,0,1.4.59,8.24,8.24,0,0,0,1.89.2,7.51,7.51,0,0,0,3.37-.61,3.47,3.47,0,0,0,1.69-1.69,6.69,6.69,0,0,0,.56-2.33c0-.82.1-2.15.12-4a9.17,9.17,0,0,1-3,2.74,8.14,8.14,0,0,1-4,1,8.48,8.48,0,0,1-4.91-1.44,9.2,9.2,0,0,1-3.23-4,14.82,14.82,0,0,1-1.13-6,14.07,14.07,0,0,1,.69-4.55,9.41,9.41,0,0,1,2-3.42,8.41,8.41,0,0,1,2.93-2.11,9.24,9.24,0,0,1,3.65-.7,8.76,8.76,0,0,1,4.12.91,10.07,10.07,0,0,1,3.24,2.86v-.76a3.24,3.24,0,0,1,.72-2.25,2.34,2.34,0,0,1,1.84-.8,2.19,2.19,0,0,1,2.16,1.05A7,7,0,0,1,817.9,240.14Zm-16.22,7.09a7.7,7.7,0,0,0,1.49,5.15,4.81,4.81,0,0,0,3.84,1.74,5,5,0,0,0,2.64-.75,5.5,5.5,0,0,0,2-2.25,7.91,7.91,0,0,0,.78-3.66,8.43,8.43,0,0,0-1.51-5.33,4.8,4.8,0,0,0-4-1.91,4.69,4.69,0,0,0-3.85,1.82A8.22,8.22,0,0,0,801.68,247.23Z"/><path d="M829.25,231.11v8.31a11.9,11.9,0,0,1,2.08-1.95,7.38,7.38,0,0,1,2.24-1.08,9.81,9.81,0,0,1,2.65-.35,7.77,7.77,0,0,1,3.78.9,6.43,6.43,0,0,1,2.6,2.62,6.63,6.63,0,0,1,.8,2.25,18.58,18.58,0,0,1,.2,2.86v10.72a3.69,3.69,0,0,1-.77,2.55,2.61,2.61,0,0,1-2,.86c-1.84,0-2.77-1.14-2.77-3.41v-9.45a8.57,8.57,0,0,0-.8-4.13,3.15,3.15,0,0,0-3-1.45,4.61,4.61,0,0,0-2.7.85,5.11,5.11,0,0,0-1.79,2.33,15,15,0,0,0-.45,4.45v7.4a3.79,3.79,0,0,1-.75,2.54,2.61,2.61,0,0,1-2.08.87q-2.77,0-2.77-3.41V231.11a3.82,3.82,0,0,1,.73-2.55,2.52,2.52,0,0,1,2-.85,2.63,2.63,0,0,1,2.08.86A3.76,3.76,0,0,1,829.25,231.11Z"/><path d="M880.14,251.87a4.8,4.8,0,0,1-.63,2.23,7.61,7.61,0,0,1-1.91,2.27,9.8,9.8,0,0,1-3.23,1.73,13.63,13.63,0,0,1-4.39.66q-5.18,0-8.1-3a11.2,11.2,0,0,1-2.91-8.11,13.51,13.51,0,0,1,1.33-6.09,9.59,9.59,0,0,1,3.86-4.09,12,12,0,0,1,6-1.45,12.1,12.1,0,0,1,4,.64,10.28,10.28,0,0,1,3.07,1.64,7.94,7.94,0,0,1,1.93,2.14,4.21,4.21,0,0,1,.67,2.13,2.24,2.24,0,0,1-.75,1.7,2.58,2.58,0,0,1-1.81.7,1.81,1.81,0,0,1-1.16-.36,5.66,5.66,0,0,1-1-1.16,8.5,8.5,0,0,0-2.14-2.34,5.26,5.26,0,0,0-6.84,1.16,8.39,8.39,0,0,0-1.52,5.3,10.22,10.22,0,0,0,.39,2.9,6.66,6.66,0,0,0,1.13,2.26,4.85,4.85,0,0,0,1.78,1.41,5.48,5.48,0,0,0,2.3.49,5.17,5.17,0,0,0,2.88-.78,6.82,6.82,0,0,0,2.12-2.38A5.65,5.65,0,0,1,876.3,250a2.09,2.09,0,0,1,1.46-.53,2.16,2.16,0,0,1,1.7.78A2.5,2.5,0,0,1,880.14,251.87Z"/><path d="M890.78,250.72v4.67A3.59,3.59,0,0,1,890,258a2.69,2.69,0,0,1-2,.85,2.59,2.59,0,0,1-2-.86,3.74,3.74,0,0,1-.77-2.55V239.81c0-2.52.9-3.77,2.72-3.77a2.27,2.27,0,0,1,2,.88,4.84,4.84,0,0,1,.68,2.6,9.86,9.86,0,0,1,2.06-2.6,4.23,4.23,0,0,1,2.82-.88,7.21,7.21,0,0,1,3.43.88,2.64,2.64,0,0,1,1.66,2.34,2.24,2.24,0,0,1-.71,1.69,2.2,2.2,0,0,1-1.53.66,6.74,6.74,0,0,1-1.49-.38,7,7,0,0,0-2.08-.38,3.05,3.05,0,0,0-2,.65,4.16,4.16,0,0,0-1.21,1.92,13.81,13.81,0,0,0-.59,3C890.84,247.61,890.78,249,890.78,250.72Z"/><path d="M918.41,248.79H907.46a7.49,7.49,0,0,0,.77,3.36,5.22,5.22,0,0,0,2,2.2,5.29,5.29,0,0,0,2.74.74,6.54,6.54,0,0,0,1.83-.24,5.84,5.84,0,0,0,1.61-.74,12.23,12.23,0,0,0,1.44-1.07c.44-.39,1-.91,1.7-1.56a1.83,1.83,0,0,1,1.23-.37,2.06,2.06,0,0,1,1.4.47,1.7,1.7,0,0,1,.53,1.33,3.64,3.64,0,0,1-.6,1.78,7.12,7.12,0,0,1-1.79,1.95,10.17,10.17,0,0,1-3,1.54,12.93,12.93,0,0,1-4.17.62q-5.39,0-8.39-3.08a11.47,11.47,0,0,1-3-8.34,14,14,0,0,1,.74-4.61,10.19,10.19,0,0,1,2.15-3.64,9.56,9.56,0,0,1,3.49-2.33,12.5,12.5,0,0,1,4.59-.81,10.9,10.9,0,0,1,5.63,1.39,9,9,0,0,1,3.52,3.58,9.38,9.38,0,0,1,1.17,4.47c0,1.41-.41,2.32-1.21,2.74A7.66,7.66,0,0,1,918.41,248.79Zm-10.95-3.18h10.15a6.73,6.73,0,0,0-1.55-4.29,4.62,4.62,0,0,0-3.53-1.43,4.47,4.47,0,0,0-3.44,1.45A7.21,7.21,0,0,0,907.46,245.61Z"/><path d="M943.29,255.6v-.55a14.23,14.23,0,0,1-2.22,2.1,8.42,8.42,0,0,1-2.38,1.23,9,9,0,0,1-2.8.42,8.33,8.33,0,0,1-3.72-.85,8.72,8.72,0,0,1-3-2.43,11,11,0,0,1-1.9-3.71,15.92,15.92,0,0,1-.65-4.62q0-5.25,2.57-8.18a8.48,8.48,0,0,1,6.74-2.93,8.93,8.93,0,0,1,4.08.83,11.2,11.2,0,0,1,3.24,2.55V231.2a4.19,4.19,0,0,1,.69-2.61,2.33,2.33,0,0,1,2-.88,2.43,2.43,0,0,1,2,.81,3.61,3.61,0,0,1,.68,2.39V255.6a3.43,3.43,0,0,1-.73,2.4,2.51,2.51,0,0,1-1.91.8A2.46,2.46,0,0,1,944,258,3.4,3.4,0,0,1,943.29,255.6Zm-11-8.22a9.55,9.55,0,0,0,.71,3.87,5.38,5.38,0,0,0,1.94,2.41,4.77,4.77,0,0,0,2.68.81,4.89,4.89,0,0,0,2.7-.77,5.36,5.36,0,0,0,2-2.35,9.64,9.64,0,0,0,.73-4,9.38,9.38,0,0,0-.73-3.85,5.83,5.83,0,0,0-2-2.46,4.69,4.69,0,0,0-2.72-.85,4.61,4.61,0,0,0-2.75.87,5.63,5.63,0,0,0-1.87,2.5A9.86,9.86,0,0,0,932.28,247.38Z"/><path d="M957.24,233.43a2.92,2.92,0,0,1-2-.72,2.52,2.52,0,0,1-.84-2,2.57,2.57,0,0,1,.85-2,2.87,2.87,0,0,1,2-.76,3,3,0,0,1,1.93.69,2.49,2.49,0,0,1,.84,2,2.54,2.54,0,0,1-.82,2A2.8,2.8,0,0,1,957.24,233.43Zm2.77,5.78v16.18a3.6,3.6,0,0,1-.8,2.55,2.66,2.66,0,0,1-2,.86,2.53,2.53,0,0,1-2-.88,3.75,3.75,0,0,1-.77-2.53v-16a3.6,3.6,0,0,1,.77-2.5,2.6,2.6,0,0,1,2-.84,2.68,2.68,0,0,1,2,.84A3.22,3.22,0,0,1,960,239.21Z"/><path d="M971.17,230.91v8.55a13.25,13.25,0,0,1,3.22-2.51,8.61,8.61,0,0,1,4.06-.87,9,9,0,0,1,4.89,1.32,8.7,8.7,0,0,1,3.27,3.83,14.18,14.18,0,0,1,1.15,6,16,16,0,0,1-.64,4.67,11.13,11.13,0,0,1-1.88,3.68,8.47,8.47,0,0,1-3,2.41,8.85,8.85,0,0,1-3.87.85,9.09,9.09,0,0,1-2.43-.31,6.91,6.91,0,0,1-1.94-.81,9.11,9.11,0,0,1-1.36-1c-.38-.36-.87-.89-1.49-1.6v.55a3.41,3.41,0,0,1-.75,2.39,2.54,2.54,0,0,1-1.93.81,2.39,2.39,0,0,1-1.9-.81,3.55,3.55,0,0,1-.71-2.39V231.15a4.08,4.08,0,0,1,.69-2.57,2.31,2.31,0,0,1,1.92-.87,2.47,2.47,0,0,1,2,.83A3.6,3.6,0,0,1,971.17,230.91Zm.27,16.63a7.71,7.71,0,0,0,1.53,5.14,5,5,0,0,0,4,1.79,4.61,4.61,0,0,0,3.64-1.83,8,8,0,0,0,1.53-5.26,10.42,10.42,0,0,0-.64-3.82,5.6,5.6,0,0,0-1.8-2.47,4.45,4.45,0,0,0-2.73-.87,4.85,4.85,0,0,0-2.85.87,5.75,5.75,0,0,0-2,2.52A9.78,9.78,0,0,0,971.44,247.54Z"/><path d="M995.3,233.43a2.94,2.94,0,0,1-2-.72,2.79,2.79,0,0,1,0-4,2.84,2.84,0,0,1,2-.76,2.94,2.94,0,0,1,1.92.69,2.49,2.49,0,0,1,.84,2,2.54,2.54,0,0,1-.82,2A2.79,2.79,0,0,1,995.3,233.43Zm2.76,5.78v16.18a3.6,3.6,0,0,1-.8,2.55,2.66,2.66,0,0,1-2,.86,2.53,2.53,0,0,1-2-.88,3.75,3.75,0,0,1-.76-2.53v-16a3.6,3.6,0,0,1,.76-2.5,2.6,2.6,0,0,1,2-.84,2.68,2.68,0,0,1,2,.84A3.22,3.22,0,0,1,998.06,239.21Z"/><path d="M1004.06,255.39V231.11a3.76,3.76,0,0,1,.75-2.54,2.54,2.54,0,0,1,2-.86,2.65,2.65,0,0,1,2,.85,3.67,3.67,0,0,1,.78,2.55v24.28a3.68,3.68,0,0,1-.79,2.56,2.69,2.69,0,0,1-2,.85,2.52,2.52,0,0,1-2-.88A3.7,3.7,0,0,1,1004.06,255.39Z"/><path d="M1018.48,233.43a2.94,2.94,0,0,1-2-.72,2.79,2.79,0,0,1,0-4,2.87,2.87,0,0,1,2-.76,3,3,0,0,1,1.93.69,2.49,2.49,0,0,1,.84,2,2.54,2.54,0,0,1-.82,2A2.83,2.83,0,0,1,1018.48,233.43Zm2.77,5.78v16.18a3.64,3.64,0,0,1-.8,2.55,2.66,2.66,0,0,1-2,.86,2.52,2.52,0,0,1-2-.88,3.75,3.75,0,0,1-.77-2.53v-16a3.6,3.6,0,0,1,.77-2.5,2.58,2.58,0,0,1,2-.84,2.68,2.68,0,0,1,2,.84A3.26,3.26,0,0,1,1021.25,239.21Z"/><path d="M1027.55,236.53h.62v-3.37c0-.9,0-1.61.07-2.12a3,3,0,0,1,.4-1.32,2.54,2.54,0,0,1,.94-.93,2.67,2.67,0,0,1,1.37-.36,2.72,2.72,0,0,1,1.93.8,2.36,2.36,0,0,1,.73,1.3,12.08,12.08,0,0,1,.15,2.18v3.82h2a2.66,2.66,0,0,1,1.82.56,1.86,1.86,0,0,1,.62,1.45,1.61,1.61,0,0,1-.89,1.58,5.77,5.77,0,0,1-2.55.45h-1v10.29a14.79,14.79,0,0,0,.1,2,2,2,0,0,0,.49,1.15,1.65,1.65,0,0,0,1.3.44,7.37,7.37,0,0,0,1.33-.17,6.72,6.72,0,0,1,1.32-.18,1.68,1.68,0,0,1,1.22.55,1.82,1.82,0,0,1,.54,1.34,2.25,2.25,0,0,1-1.48,2.07,9.93,9.93,0,0,1-4.24.72,7.32,7.32,0,0,1-4-.88,4.15,4.15,0,0,1-1.78-2.44,16.68,16.68,0,0,1-.41-4.17V240.57h-.74a2.63,2.63,0,0,1-1.85-.58,1.86,1.86,0,0,1-.63-1.45,1.83,1.83,0,0,1,.66-1.45A3,3,0,0,1,1027.55,236.53Z"/><path d="M1047.49,259.5l.51-1.25-6.89-17.35a6.67,6.67,0,0,1-.64-2.18,2.59,2.59,0,0,1,.37-1.33,2.85,2.85,0,0,1,1-1,2.72,2.72,0,0,1,1.34-.36,2.21,2.21,0,0,1,1.83.76,7.1,7.1,0,0,1,1.08,2.21l4.74,13.78,4.49-12.82a22.37,22.37,0,0,1,1-2.44,2.84,2.84,0,0,1,.91-1.19,2.59,2.59,0,0,1,1.36-.3,2.44,2.44,0,0,1,2.44,2.46c0,.26-.14.63-.26,1.1s-.28,1-.45,1.46L1053,260.17a22,22,0,0,1-1.84,4,6.12,6.12,0,0,1-2.39,2.21,8.84,8.84,0,0,1-4,.76,9.66,9.66,0,0,1-3.69-.53,1.94,1.94,0,0,1-1.23-1.95,1.88,1.88,0,0,1,.58-1.48,2.53,2.53,0,0,1,1.74-.53,2.93,2.93,0,0,1,.88.13,4.22,4.22,0,0,0,.92.12,3.37,3.37,0,0,0,1.52-.29,2.6,2.6,0,0,0,1-1A14.41,14.41,0,0,0,1047.49,259.5Z"/><path d="M1081.17,239.17v.68a11.08,11.08,0,0,1,3.28-2.86,8,8,0,0,1,3.86-.91,8.93,8.93,0,0,1,4.76,1.33,9.17,9.17,0,0,1,3.43,3.9,13.59,13.59,0,0,1,1.26,6.07,14.64,14.64,0,0,1-.73,4.74,10.54,10.54,0,0,1-2,3.63,8.77,8.77,0,0,1-6.73,3.05,7.83,7.83,0,0,1-4-1,11.76,11.76,0,0,1-3.11-2.83v8.4q0,3.69-2.68,3.69a2.16,2.16,0,0,1-2.1-1,6,6,0,0,1-.51-2.78V239.21a3.47,3.47,0,0,1,.7-2.38,2.4,2.4,0,0,1,1.91-.79,2.51,2.51,0,0,1,1.93.81A3.29,3.29,0,0,1,1081.17,239.17Zm11,8.14a9.71,9.71,0,0,0-.67-3.8,5.59,5.59,0,0,0-1.88-2.44,4.46,4.46,0,0,0-2.66-.85A5,5,0,0,0,1083,242a8,8,0,0,0-1.59,5.38,7.75,7.75,0,0,0,1.58,5.2,5,5,0,0,0,3.91,1.85,4.51,4.51,0,0,0,2.59-.81,5.61,5.61,0,0,0,1.91-2.43A9.77,9.77,0,0,0,1092.14,247.31Z"/><path d="M1123.42,247.42a13.2,13.2,0,0,1-.78,4.61,10.21,10.21,0,0,1-2.25,3.63,10,10,0,0,1-3.53,2.33,12.46,12.46,0,0,1-4.61.81,12.1,12.1,0,0,1-4.58-.82,10.18,10.18,0,0,1-3.51-2.35,10,10,0,0,1-2.26-3.61,14.22,14.22,0,0,1,0-9.26,10,10,0,0,1,2.24-3.61,9.78,9.78,0,0,1,3.52-2.3,13.36,13.36,0,0,1,9.19,0,10,10,0,0,1,3.55,2.33,10.23,10.23,0,0,1,2.24,3.61A13.18,13.18,0,0,1,1123.42,247.42Zm-5.62,0a8.41,8.41,0,0,0-1.5-5.33,4.89,4.89,0,0,0-4-1.91,5,5,0,0,0-2.9.85,5.39,5.39,0,0,0-1.92,2.51,10.26,10.26,0,0,0-.68,3.88,10,10,0,0,0,.67,3.83,5.46,5.46,0,0,0,1.9,2.51,5.26,5.26,0,0,0,7-1A8.41,8.41,0,0,0,1117.8,247.42Z"/><path d="M1130.87,233.43a3,3,0,0,1-2-.72,2.79,2.79,0,0,1,0-4,2.87,2.87,0,0,1,2-.76,3,3,0,0,1,1.93.69,2.49,2.49,0,0,1,.84,2,2.54,2.54,0,0,1-.82,2A2.83,2.83,0,0,1,1130.87,233.43Zm2.77,5.78v16.18a3.64,3.64,0,0,1-.8,2.55,2.66,2.66,0,0,1-2,.86,2.52,2.52,0,0,1-2-.88,3.75,3.75,0,0,1-.77-2.53v-16a3.6,3.6,0,0,1,.77-2.5,2.58,2.58,0,0,1,2-.84,2.68,2.68,0,0,1,2,.84A3.26,3.26,0,0,1,1133.64,239.21Z"/><path d="M1144.72,239.13v.68A9.75,9.75,0,0,1,1148,237a8.58,8.58,0,0,1,4-.91,8.06,8.06,0,0,1,4,1,6.07,6.07,0,0,1,2.6,2.73,6.45,6.45,0,0,1,.72,2.21,23,23,0,0,1,.16,3v10.41a3.69,3.69,0,0,1-.77,2.55,2.54,2.54,0,0,1-2,.86,2.59,2.59,0,0,1-2-.88,3.75,3.75,0,0,1-.77-2.53v-9.33a9.36,9.36,0,0,0-.77-4.23,3.14,3.14,0,0,0-3.07-1.47,4.52,4.52,0,0,0-2.73.9,5.07,5.07,0,0,0-1.8,2.45,17.64,17.64,0,0,0-.41,4.67v7a3.68,3.68,0,0,1-.79,2.56,2.69,2.69,0,0,1-2,.85,2.53,2.53,0,0,1-2-.88,3.7,3.7,0,0,1-.78-2.53V239.21a3.47,3.47,0,0,1,.7-2.38,2.39,2.39,0,0,1,1.9-.79,2.42,2.42,0,0,1,2.29,1.39A3.65,3.65,0,0,1,1144.72,239.13Z"/><path d="M1165.52,236.53h.61v-3.37c0-.9,0-1.61.08-2.12a3,3,0,0,1,.4-1.32,2.54,2.54,0,0,1,.94-.93,2.67,2.67,0,0,1,1.37-.36,2.74,2.74,0,0,1,1.93.8,2.36,2.36,0,0,1,.73,1.3,12.08,12.08,0,0,1,.15,2.18v3.82h2a2.66,2.66,0,0,1,1.82.56,1.86,1.86,0,0,1,.62,1.45,1.61,1.61,0,0,1-.89,1.58,5.77,5.77,0,0,1-2.55.45h-1v10.29a14.79,14.79,0,0,0,.1,2,2,2,0,0,0,.49,1.15,1.65,1.65,0,0,0,1.3.44,7.37,7.37,0,0,0,1.33-.17,6.72,6.72,0,0,1,1.32-.18,1.68,1.68,0,0,1,1.22.55A1.82,1.82,0,0,1,1178,256a2.25,2.25,0,0,1-1.48,2.07,9.93,9.93,0,0,1-4.24.72,7.32,7.32,0,0,1-4-.88,4.11,4.11,0,0,1-1.78-2.44,16.62,16.62,0,0,1-.42-4.17V240.57h-.73a2.63,2.63,0,0,1-1.85-.58,1.86,1.86,0,0,1-.63-1.45,1.83,1.83,0,0,1,.66-1.45A3,3,0,0,1,1165.52,236.53Z"/><path d="M1198.32,251.48a6.5,6.5,0,0,1-4.46,6.47,15.12,15.12,0,0,1-5.37.85,13.11,13.11,0,0,1-5.16-.92,7.55,7.55,0,0,1-3.18-2.31,4.61,4.61,0,0,1-1-2.78,2.16,2.16,0,0,1,.66-1.58,2.23,2.23,0,0,1,1.66-.66,1.91,1.91,0,0,1,1.35.44,4.33,4.33,0,0,1,.9,1.21,5.41,5.41,0,0,0,5.34,3,4.73,4.73,0,0,0,2.76-.75,2.12,2.12,0,0,0,1.07-1.71,2.34,2.34,0,0,0-1.12-2.16,13.78,13.78,0,0,0-3.68-1.29,31.29,31.29,0,0,1-4.7-1.5,7.79,7.79,0,0,1-2.91-2.09,4.78,4.78,0,0,1-1.08-3.17,5.56,5.56,0,0,1,1-3.18,6.84,6.84,0,0,1,3-2.39,11.23,11.23,0,0,1,4.72-.89,15.62,15.62,0,0,1,3.91.45,9.64,9.64,0,0,1,2.89,1.21,5.81,5.81,0,0,1,1.76,1.68,3.24,3.24,0,0,1,.61,1.8,2.08,2.08,0,0,1-.65,1.58,2.55,2.55,0,0,1-1.83.62,2.29,2.29,0,0,1-1.47-.49,10.34,10.34,0,0,1-1.38-1.48,5,5,0,0,0-1.5-1.31,4.67,4.67,0,0,0-2.34-.5,4.58,4.58,0,0,0-2.52.65,1.88,1.88,0,0,0-1,1.61,1.75,1.75,0,0,0,.73,1.45,6.47,6.47,0,0,0,2,.93c.84.24,2,.55,3.45.9a18.17,18.17,0,0,1,4.25,1.52,7,7,0,0,1,2.5,2.08A4.6,4.6,0,0,1,1198.32,251.48Z"/><path d="M1228.12,255.64a17.57,17.57,0,0,1-3.92,2.37,11,11,0,0,1-4.26.79,8.13,8.13,0,0,1-3.78-.85,6.18,6.18,0,0,1-2.51-2.31,6,6,0,0,1-.89-3.16,5.65,5.65,0,0,1,1.46-3.91,7.28,7.28,0,0,1,4-2.18l2.64-.55c1.41-.29,2.62-.55,3.62-.79s2.1-.53,3.27-.87a5.73,5.73,0,0,0-.89-3.25c-.52-.69-1.61-1-3.27-1a6.78,6.78,0,0,0-3.21.6,5.11,5.11,0,0,0-1.84,1.78c-.52.79-.88,1.32-1.09,1.57a1.79,1.79,0,0,1-1.36.38,2.34,2.34,0,0,1-1.63-.61,2,2,0,0,1-.69-1.55,4.78,4.78,0,0,1,1-2.87,7.49,7.49,0,0,1,3.27-2.29,14.66,14.66,0,0,1,5.51-.91,15.66,15.66,0,0,1,5.81.88,5.42,5.42,0,0,1,3,2.75,12.11,12.11,0,0,1,.87,5c0,1.31,0,2.42,0,3.34s0,1.94,0,3.06a11.2,11.2,0,0,0,.52,3.29,10.43,10.43,0,0,1,.53,2.2,2.05,2.05,0,0,1-.81,1.57,2.74,2.74,0,0,1-1.84.71,2.48,2.48,0,0,1-1.7-.81A12,12,0,0,1,1228.12,255.64Zm-.37-8.1a27.63,27.63,0,0,1-3.57,1c-1.57.34-2.65.59-3.25.74a4.44,4.44,0,0,0-1.73.93,2.36,2.36,0,0,0-.82,1.91,2.84,2.84,0,0,0,1,2.17,3.57,3.57,0,0,0,2.52.89,6.53,6.53,0,0,0,3.07-.73,4.85,4.85,0,0,0,2.06-1.88,8.62,8.62,0,0,0,.75-4.18Z"/><path d="M1244.23,239.13v.68a9.75,9.75,0,0,1,3.23-2.86,8.58,8.58,0,0,1,4-.91,8.11,8.11,0,0,1,4,1,6.07,6.07,0,0,1,2.6,2.73,6.45,6.45,0,0,1,.72,2.21,23,23,0,0,1,.16,3v10.41a3.69,3.69,0,0,1-.77,2.55,2.77,2.77,0,0,1-4,0,3.7,3.7,0,0,1-.78-2.53v-9.33a9.23,9.23,0,0,0-.77-4.23,3.12,3.12,0,0,0-3.06-1.47,4.52,4.52,0,0,0-2.73.9,5.07,5.07,0,0,0-1.8,2.45,17.21,17.21,0,0,0-.41,4.67v7a3.68,3.68,0,0,1-.79,2.56,2.69,2.69,0,0,1-2,.85,2.53,2.53,0,0,1-2-.88,3.7,3.7,0,0,1-.78-2.53V239.21a3.52,3.52,0,0,1,.69-2.38,2.42,2.42,0,0,1,1.91-.79,2.42,2.42,0,0,1,2.29,1.39A3.65,3.65,0,0,1,1244.23,239.13Z"/><path d="M1280.06,255.6v-.55a13.83,13.83,0,0,1-2.23,2.1,8.36,8.36,0,0,1-2.37,1.23,9,9,0,0,1-2.8.42,8.4,8.4,0,0,1-3.73-.85,8.72,8.72,0,0,1-3-2.43,11.13,11.13,0,0,1-1.9-3.71,15.92,15.92,0,0,1-.64-4.62q0-5.25,2.56-8.18a8.52,8.52,0,0,1,6.75-2.93,9,9,0,0,1,4.08.83,11.2,11.2,0,0,1,3.24,2.55V231.2a4.19,4.19,0,0,1,.69-2.61,2.32,2.32,0,0,1,2-.88,2.41,2.41,0,0,1,2,.81,3.61,3.61,0,0,1,.69,2.39V255.6a3.43,3.43,0,0,1-.74,2.4,2.48,2.48,0,0,1-1.9.8,2.46,2.46,0,0,1-1.9-.83A3.4,3.4,0,0,1,1280.06,255.6Zm-11-8.22a9.56,9.56,0,0,0,.7,3.87,5.44,5.44,0,0,0,1.94,2.41,4.8,4.8,0,0,0,2.69.81,4.93,4.93,0,0,0,2.7-.77,5.27,5.27,0,0,0,1.94-2.35,9.48,9.48,0,0,0,.73-4,9.22,9.22,0,0,0-.73-3.85,5.75,5.75,0,0,0-2-2.46,4.65,4.65,0,0,0-2.71-.85,4.59,4.59,0,0,0-2.75.87,5.64,5.64,0,0,0-1.88,2.5A10.06,10.06,0,0,0,1269.05,247.38Z"/><path d="M162.07,298.23v7.44a3.85,3.85,0,0,1-.8,2.65,2.73,2.73,0,0,1-2.12.88,2.64,2.64,0,0,1-2.06-.88,3.9,3.9,0,0,1-.79-2.65v-8.92a27.79,27.79,0,0,0-.14-3.28,3.63,3.63,0,0,0-.78-1.92,2.48,2.48,0,0,0-2-.75c-1.83,0-3,.63-3.62,1.89a13.32,13.32,0,0,0-.87,5.41v7.57a3.87,3.87,0,0,1-.79,2.64,2.66,2.66,0,0,1-2.08.89,2.69,2.69,0,0,1-2.08-.89,3.83,3.83,0,0,1-.81-2.64v-16a3.51,3.51,0,0,1,.72-2.4,2.45,2.45,0,0,1,1.92-.82,2.6,2.6,0,0,1,1.92.76,2.91,2.91,0,0,1,.77,2.13v.53a9.64,9.64,0,0,1,3.12-2.56,8.13,8.13,0,0,1,3.69-.82,7.38,7.38,0,0,1,3.63.84,6.64,6.64,0,0,1,2.5,2.54,9.6,9.6,0,0,1,3-2.55,7.68,7.68,0,0,1,3.59-.83,8.21,8.21,0,0,1,4,.9,5.68,5.68,0,0,1,2.48,2.58,11.82,11.82,0,0,1,.72,4.78v10.93a3.85,3.85,0,0,1-.8,2.65,2.92,2.92,0,0,1-4.19,0,3.83,3.83,0,0,1-.81-2.64v-9.41a20.2,20.2,0,0,0-.16-2.89,3.3,3.3,0,0,0-.83-1.83,2.65,2.65,0,0,0-2-.74,3.72,3.72,0,0,0-2.1.66,4.56,4.56,0,0,0-1.55,1.76A14.12,14.12,0,0,0,162.07,298.23Z"/><path d="M195,306a17.85,17.85,0,0,1-3.93,2.37,10.93,10.93,0,0,1-4.26.79,8,8,0,0,1-3.78-.85,6.24,6.24,0,0,1-2.51-2.31,6,6,0,0,1-.88-3.16,5.64,5.64,0,0,1,1.45-3.91,7.31,7.31,0,0,1,4-2.18l2.65-.55c1.4-.29,2.61-.55,3.62-.79s2.09-.53,3.27-.87a5.89,5.89,0,0,0-.89-3.25c-.53-.69-1.62-1-3.28-1a6.78,6.78,0,0,0-3.21.6,5.19,5.19,0,0,0-1.84,1.78,18.65,18.65,0,0,1-1.09,1.57,1.79,1.79,0,0,1-1.36.38,2.34,2.34,0,0,1-1.63-.61,2,2,0,0,1-.69-1.54,4.74,4.74,0,0,1,1-2.88,7.39,7.39,0,0,1,3.26-2.29,14.66,14.66,0,0,1,5.51-.91,15.66,15.66,0,0,1,5.81.88,5.39,5.39,0,0,1,3,2.75,12.11,12.11,0,0,1,.87,5c0,1.31,0,2.43,0,3.34s0,1.94,0,3.06a11.54,11.54,0,0,0,.52,3.29,10.57,10.57,0,0,1,.53,2.2,2.05,2.05,0,0,1-.81,1.57,2.72,2.72,0,0,1-1.84.71,2.48,2.48,0,0,1-1.7-.81A11.59,11.59,0,0,1,195,306Zm-.37-8.1a27.86,27.86,0,0,1-3.58.95c-1.57.34-2.65.59-3.25.74a4.51,4.51,0,0,0-1.73.93,2.36,2.36,0,0,0-.82,1.91,2.87,2.87,0,0,0,1,2.17,3.57,3.57,0,0,0,2.52.89,6.53,6.53,0,0,0,3.07-.73,4.85,4.85,0,0,0,2.06-1.88,8.6,8.6,0,0,0,.76-4.18Z"/><path d="M211.07,289.53v.68a9.75,9.75,0,0,1,3.23-2.86,8.58,8.58,0,0,1,4-.91,8.09,8.09,0,0,1,4,1,6.07,6.07,0,0,1,2.6,2.73,6.45,6.45,0,0,1,.72,2.21,23.09,23.09,0,0,1,.16,3V305.8a3.68,3.68,0,0,1-.77,2.54,2.55,2.55,0,0,1-2,.86,2.58,2.58,0,0,1-2-.88,3.74,3.74,0,0,1-.77-2.52v-9.34a9.36,9.36,0,0,0-.77-4.23,3.14,3.14,0,0,0-3.07-1.47,4.52,4.52,0,0,0-2.73.9,5.07,5.07,0,0,0-1.8,2.45,17.21,17.21,0,0,0-.41,4.67v7a3.67,3.67,0,0,1-.79,2.55,2.66,2.66,0,0,1-2,.85,2.53,2.53,0,0,1-2-.88,3.69,3.69,0,0,1-.78-2.52V289.61a3.47,3.47,0,0,1,.7-2.38,2.39,2.39,0,0,1,1.9-.79,2.42,2.42,0,0,1,2.29,1.39A3.68,3.68,0,0,1,211.07,289.53Z"/><path d="M245.71,306a17.57,17.57,0,0,1-3.92,2.37,11,11,0,0,1-4.26.79,8,8,0,0,1-3.78-.85,6.27,6.27,0,0,1-2.52-2.31,6,6,0,0,1-.88-3.16,5.65,5.65,0,0,1,1.46-3.91,7.28,7.28,0,0,1,4-2.18l2.64-.55c1.41-.29,2.62-.55,3.62-.79s2.1-.53,3.27-.87a5.81,5.81,0,0,0-.89-3.25c-.53-.69-1.62-1-3.27-1a6.78,6.78,0,0,0-3.21.6,5.22,5.22,0,0,0-1.85,1.78c-.51.79-.87,1.32-1.08,1.57a1.81,1.81,0,0,1-1.37.38A2.36,2.36,0,0,1,232,294a2,2,0,0,1-.68-1.54,4.79,4.79,0,0,1,1-2.88,7.51,7.51,0,0,1,3.26-2.29,14.75,14.75,0,0,1,5.52-.91,15.57,15.57,0,0,1,5.8.88,5.41,5.41,0,0,1,3,2.75,12.11,12.11,0,0,1,.87,5c0,1.31,0,2.43,0,3.34s0,1.94,0,3.06a11.2,11.2,0,0,0,.52,3.29,10.29,10.29,0,0,1,.52,2.2,2.05,2.05,0,0,1-.81,1.57,2.72,2.72,0,0,1-1.83.71,2.46,2.46,0,0,1-1.7-.81A12,12,0,0,1,245.71,306Zm-.37-8.1a27.41,27.41,0,0,1-3.58.95c-1.56.34-2.64.59-3.25.74a4.48,4.48,0,0,0-1.72.93,2.33,2.33,0,0,0-.82,1.91,2.86,2.86,0,0,0,1,2.17,3.62,3.62,0,0,0,2.53.89,6.49,6.49,0,0,0,3.06-.73,4.74,4.74,0,0,0,2.06-1.88,8.49,8.49,0,0,0,.76-4.18Z"/><path d="M276.77,290.54V306.8a16.9,16.9,0,0,1-.6,4.8,7.63,7.63,0,0,1-1.91,3.32,7.89,7.89,0,0,1-3.43,1.95,18.85,18.85,0,0,1-5.28.64,15.37,15.37,0,0,1-5.17-.82,8.85,8.85,0,0,1-3.51-2.09,3.8,3.8,0,0,1-1.23-2.63,2.18,2.18,0,0,1,.7-1.67,2.39,2.39,0,0,1,1.68-.65,2.73,2.73,0,0,1,2.15,1.09l.94,1.11a5.38,5.38,0,0,0,1.06,1,4.11,4.11,0,0,0,1.41.59,8.18,8.18,0,0,0,1.89.2,7.51,7.51,0,0,0,3.37-.61,3.41,3.41,0,0,0,1.68-1.69,6.69,6.69,0,0,0,.56-2.33c.06-.82.1-2.15.13-4a9.2,9.2,0,0,1-3,2.74,8.12,8.12,0,0,1-4,.95,8.48,8.48,0,0,1-4.91-1.44,9.2,9.2,0,0,1-3.23-4,14.82,14.82,0,0,1-1.13-6,14.07,14.07,0,0,1,.69-4.55,9.56,9.56,0,0,1,2-3.42,8.59,8.59,0,0,1,2.93-2.11,9.28,9.28,0,0,1,3.65-.7,8.8,8.8,0,0,1,4.13.91,10.07,10.07,0,0,1,3.24,2.86v-.76a3.23,3.23,0,0,1,.71-2.25,2.36,2.36,0,0,1,1.85-.8,2.17,2.17,0,0,1,2.15,1.05A6.88,6.88,0,0,1,276.77,290.54Zm-16.23,7.09a7.76,7.76,0,0,0,1.49,5.15,4.82,4.82,0,0,0,3.85,1.74,5,5,0,0,0,2.63-.75,5.43,5.43,0,0,0,2-2.25,7.91,7.91,0,0,0,.78-3.66,8.37,8.37,0,0,0-1.51-5.33,4.8,4.8,0,0,0-4-1.91,4.67,4.67,0,0,0-3.84,1.82A8.22,8.22,0,0,0,260.54,297.63Z"/><path d="M297.22,299.19h-11a7.49,7.49,0,0,0,.76,3.36,5.15,5.15,0,0,0,4.73,2.94,6.66,6.66,0,0,0,1.84-.24,5.68,5.68,0,0,0,1.61-.74,11.33,11.33,0,0,0,1.43-1.07c.44-.39,1-.91,1.7-1.56a1.84,1.84,0,0,1,1.24-.37A2.05,2.05,0,0,1,301,302a1.68,1.68,0,0,1,.53,1.33,3.71,3.71,0,0,1-.59,1.78,7.34,7.34,0,0,1-1.8,2,10.23,10.23,0,0,1-3,1.54,13,13,0,0,1-4.17.62q-5.4,0-8.39-3.08a11.43,11.43,0,0,1-3-8.34,14,14,0,0,1,.74-4.61,10.07,10.07,0,0,1,2.16-3.64,9.44,9.44,0,0,1,3.48-2.33,12.72,12.72,0,0,1,4.6-.81,11,11,0,0,1,5.63,1.39,9.07,9.07,0,0,1,3.51,3.58,9.38,9.38,0,0,1,1.17,4.47c0,1.41-.4,2.32-1.21,2.74A7.64,7.64,0,0,1,297.22,299.19Zm-11-3.18h10.15a6.84,6.84,0,0,0-1.55-4.29,4.66,4.66,0,0,0-3.54-1.43,4.45,4.45,0,0,0-3.43,1.45A7.14,7.14,0,0,0,286.27,296Z"/><path d="M322.1,306v-.55a14.26,14.26,0,0,1-2.23,2.1,8.29,8.29,0,0,1-2.38,1.23,8.89,8.89,0,0,1-2.8.42,8.2,8.2,0,0,1-3.72-.85,8.72,8.72,0,0,1-3-2.43,11,11,0,0,1-1.9-3.71,15.92,15.92,0,0,1-.64-4.62q0-5.25,2.56-8.18a8.52,8.52,0,0,1,6.75-2.93,9,9,0,0,1,4.08.83,11.47,11.47,0,0,1,3.24,2.55V281.6a4.26,4.26,0,0,1,.68-2.61,2.34,2.34,0,0,1,2-.88,2.43,2.43,0,0,1,2,.81,3.61,3.61,0,0,1,.69,2.39V306a3.43,3.43,0,0,1-.74,2.4,2.49,2.49,0,0,1-1.91.8,2.43,2.43,0,0,1-1.89-.83A3.4,3.4,0,0,1,322.1,306Zm-11-8.22a9.55,9.55,0,0,0,.71,3.87,5.38,5.38,0,0,0,1.94,2.41,4.8,4.8,0,0,0,2.69.81,4.88,4.88,0,0,0,2.69-.77,5.23,5.23,0,0,0,1.95-2.35,9.48,9.48,0,0,0,.73-4,9.25,9.25,0,0,0-.73-3.85,5.75,5.75,0,0,0-2-2.46,4.65,4.65,0,0,0-2.71-.85,4.57,4.57,0,0,0-2.75.87,5.64,5.64,0,0,0-1.88,2.5A10.06,10.06,0,0,0,311.08,297.78Z"/><path d="M344.24,286.93h.61v-3.37c0-.9,0-1.61.07-2.12a3.15,3.15,0,0,1,.4-1.32,2.57,2.57,0,0,1,.95-.93,2.64,2.64,0,0,1,1.37-.36,2.75,2.75,0,0,1,1.93.8,2.42,2.42,0,0,1,.73,1.3,12.08,12.08,0,0,1,.15,2.18v3.82h2.05a2.68,2.68,0,0,1,1.82.56,1.89,1.89,0,0,1,.62,1.45,1.63,1.63,0,0,1-.89,1.58,5.82,5.82,0,0,1-2.55.45h-1.05v10.29a17,17,0,0,0,.09,2,2.06,2.06,0,0,0,.49,1.15,1.67,1.67,0,0,0,1.31.44,7.48,7.48,0,0,0,1.33-.17,6.73,6.73,0,0,1,1.31-.18,1.7,1.7,0,0,1,1.22.55,1.83,1.83,0,0,1,.55,1.34,2.26,2.26,0,0,1-1.48,2.07,10,10,0,0,1-4.25.72,7.34,7.34,0,0,1-4-.88,4.1,4.1,0,0,1-1.77-2.44,16.62,16.62,0,0,1-.42-4.17V291h-.74a2.62,2.62,0,0,1-1.84-.58,1.84,1.84,0,0,1-.64-1.45,1.81,1.81,0,0,1,.67-1.45A3,3,0,0,1,344.24,286.93Z"/><path d="M380,297.82a13.2,13.2,0,0,1-.77,4.61,10.24,10.24,0,0,1-2.26,3.63,9.94,9.94,0,0,1-3.53,2.33,12.42,12.42,0,0,1-4.61.81,12.1,12.1,0,0,1-4.58-.82,10.14,10.14,0,0,1-5.77-6,14.22,14.22,0,0,1,0-9.26,10.16,10.16,0,0,1,2.24-3.61,9.78,9.78,0,0,1,3.52-2.3,12.52,12.52,0,0,1,4.58-.81,12.36,12.36,0,0,1,4.61.82,9.93,9.93,0,0,1,3.55,2.33,10.4,10.4,0,0,1,2.25,3.61A13.41,13.41,0,0,1,380,297.82Zm-5.61,0a8.41,8.41,0,0,0-1.51-5.33,4.89,4.89,0,0,0-4-1.91,5,5,0,0,0-2.89.85,5.34,5.34,0,0,0-1.93,2.51,10.26,10.26,0,0,0-.68,3.88,10,10,0,0,0,.67,3.83,5.49,5.49,0,0,0,1.91,2.52,5.27,5.27,0,0,0,7-1.05A8.41,8.41,0,0,0,374.35,297.82Z"/><path d="M413.32,301.88a6.5,6.5,0,0,1-4.46,6.47,14.88,14.88,0,0,1-5.36.85,13.17,13.17,0,0,1-5.17-.92,7.55,7.55,0,0,1-3.18-2.31,4.68,4.68,0,0,1-1-2.78,2.16,2.16,0,0,1,.66-1.58,2.24,2.24,0,0,1,1.66-.65,2,2,0,0,1,1.36.43,4.75,4.75,0,0,1,.9,1.21,6.12,6.12,0,0,0,2.06,2.23,6.23,6.23,0,0,0,3.27.74,4.73,4.73,0,0,0,2.76-.75,2.11,2.11,0,0,0,1.08-1.71,2.33,2.33,0,0,0-1.12-2.15,13.51,13.51,0,0,0-3.68-1.3,31.46,31.46,0,0,1-4.71-1.5,7.67,7.67,0,0,1-2.9-2.09,4.73,4.73,0,0,1-1.09-3.17,5.6,5.6,0,0,1,1-3.18,6.81,6.81,0,0,1,3-2.39,11.25,11.25,0,0,1,4.73-.89,15.48,15.48,0,0,1,3.9.45,9.7,9.7,0,0,1,2.9,1.21,5.93,5.93,0,0,1,1.76,1.68,3.3,3.3,0,0,1,.6,1.8,2.07,2.07,0,0,1-.64,1.58,2.58,2.58,0,0,1-1.84.62,2.28,2.28,0,0,1-1.46-.49,9.33,9.33,0,0,1-1.39-1.48,4.8,4.8,0,0,0-1.5-1.31,4.66,4.66,0,0,0-2.33-.5,4.59,4.59,0,0,0-2.53.65,1.88,1.88,0,0,0-1,1.61,1.76,1.76,0,0,0,.74,1.45,6.26,6.26,0,0,0,2,.93c.83.25,2,.55,3.44.9a18.56,18.56,0,0,1,4.26,1.52,7.11,7.11,0,0,1,2.5,2.08A4.59,4.59,0,0,1,413.32,301.88Z"/><path d="M432.42,306a17.85,17.85,0,0,1-3.93,2.37,10.88,10.88,0,0,1-4.25.79,8.05,8.05,0,0,1-3.79-.85,6.24,6.24,0,0,1-2.51-2.31,6,6,0,0,1-.88-3.16,5.64,5.64,0,0,1,1.45-3.91,7.31,7.31,0,0,1,4-2.18l2.65-.55c1.41-.29,2.61-.55,3.62-.79s2.09-.53,3.27-.87a5.89,5.89,0,0,0-.89-3.25c-.53-.69-1.62-1-3.27-1a6.72,6.72,0,0,0-3.21.6,5.14,5.14,0,0,0-1.85,1.78,16.48,16.48,0,0,1-1.09,1.57,1.78,1.78,0,0,1-1.36.38,2.36,2.36,0,0,1-1.63-.61,2,2,0,0,1-.69-1.54,4.74,4.74,0,0,1,1.05-2.88,7.45,7.45,0,0,1,3.26-2.29,14.71,14.71,0,0,1,5.52-.91,15.6,15.6,0,0,1,5.8.88,5.39,5.39,0,0,1,3,2.75,12.11,12.11,0,0,1,.87,5c0,1.31,0,2.43,0,3.34s0,1.94,0,3.06a11.23,11.23,0,0,0,.53,3.29,10.29,10.29,0,0,1,.52,2.2,2.05,2.05,0,0,1-.81,1.57,2.72,2.72,0,0,1-1.84.71,2.48,2.48,0,0,1-1.7-.81A12,12,0,0,1,432.42,306Zm-.37-8.1a27.41,27.41,0,0,1-3.58.95c-1.57.34-2.65.59-3.25.74a4.41,4.41,0,0,0-1.72.93,2.33,2.33,0,0,0-.82,1.91,2.86,2.86,0,0,0,1,2.17,3.57,3.57,0,0,0,2.52.89,6.53,6.53,0,0,0,3.07-.73,4.8,4.8,0,0,0,2.06-1.88,8.49,8.49,0,0,0,.76-4.18Z"/><path d="M446.35,289.92l4.53,12.72,4.88-13.27a7.85,7.85,0,0,1,1.13-2.27,2.07,2.07,0,0,1,1.68-.66,2.53,2.53,0,0,1,1.81.71,2.25,2.25,0,0,1,.75,1.66,3.34,3.34,0,0,1-.13.87,8.27,8.27,0,0,1-.31.92c-.11.29-.25.61-.4,1l-5.37,13.33c-.15.39-.35.87-.58,1.46a7.86,7.86,0,0,1-.8,1.51,3.05,3.05,0,0,1-2.66,1.32,3.08,3.08,0,0,1-1.9-.54,3.69,3.69,0,0,1-1-1.19c-.23-.43-.61-1.29-1.14-2.56l-5.33-13.18-.38-1a9,9,0,0,1-.33-1,3.53,3.53,0,0,1-.13-.88,2.13,2.13,0,0,1,.34-1.14,2.79,2.79,0,0,1,1-.93,2.67,2.67,0,0,1,1.33-.35,2.11,2.11,0,0,1,1.92.8A12.74,12.74,0,0,1,446.35,289.92Z"/><path d="M480.44,299.19H469.49a7.49,7.49,0,0,0,.76,3.36,5.17,5.17,0,0,0,4.73,2.94,6.66,6.66,0,0,0,1.84-.24,5.68,5.68,0,0,0,1.61-.74,11.33,11.33,0,0,0,1.43-1.07q.66-.58,1.71-1.56a1.79,1.79,0,0,1,1.23-.37,2.05,2.05,0,0,1,1.39.47,1.68,1.68,0,0,1,.53,1.33,3.61,3.61,0,0,1-.59,1.78,7.34,7.34,0,0,1-1.8,2,10.23,10.23,0,0,1-3,1.54,13,13,0,0,1-4.17.62q-5.4,0-8.39-3.08a11.43,11.43,0,0,1-3-8.34,14,14,0,0,1,.74-4.61,10.21,10.21,0,0,1,2.16-3.64,9.44,9.44,0,0,1,3.48-2.33,12.72,12.72,0,0,1,4.6-.81,11,11,0,0,1,5.63,1.39,9.07,9.07,0,0,1,3.51,3.58,9.38,9.38,0,0,1,1.17,4.47c0,1.41-.4,2.32-1.21,2.74A7.61,7.61,0,0,1,480.44,299.19ZM469.49,296h10.15a6.84,6.84,0,0,0-1.55-4.29,4.66,4.66,0,0,0-3.54-1.43,4.45,4.45,0,0,0-3.43,1.45A7.14,7.14,0,0,0,469.49,296Z"/><path d="M514.84,306a17.4,17.4,0,0,1-3.93,2.37,10.88,10.88,0,0,1-4.25.79,8.05,8.05,0,0,1-3.79-.85,6.31,6.31,0,0,1-2.51-2.31,6,6,0,0,1-.88-3.16,5.64,5.64,0,0,1,1.45-3.91,7.35,7.35,0,0,1,4-2.18l2.65-.55c1.41-.29,2.61-.55,3.62-.79s2.09-.53,3.27-.87a5.89,5.89,0,0,0-.89-3.25c-.53-.69-1.62-1-3.27-1a6.72,6.72,0,0,0-3.21.6,5.14,5.14,0,0,0-1.85,1.78,16.48,16.48,0,0,1-1.09,1.57,1.78,1.78,0,0,1-1.36.38,2.36,2.36,0,0,1-1.63-.61,2,2,0,0,1-.69-1.54,4.74,4.74,0,0,1,1-2.88,7.45,7.45,0,0,1,3.26-2.29,14.75,14.75,0,0,1,5.52-.91,15.6,15.6,0,0,1,5.8.88,5.39,5.39,0,0,1,3,2.75,12.1,12.1,0,0,1,.88,5c0,1.31,0,2.43,0,3.34s0,1.94,0,3.06a11.23,11.23,0,0,0,.53,3.29,10.29,10.29,0,0,1,.52,2.2,2.05,2.05,0,0,1-.81,1.57,2.72,2.72,0,0,1-1.83.71,2.48,2.48,0,0,1-1.71-.81A12,12,0,0,1,514.84,306Zm-.37-8.1a27.41,27.41,0,0,1-3.58.95c-1.56.34-2.65.59-3.25.74a4.41,4.41,0,0,0-1.72.93,2.33,2.33,0,0,0-.82,1.91,2.86,2.86,0,0,0,1,2.17,3.57,3.57,0,0,0,2.52.89,6.53,6.53,0,0,0,3.07-.73,4.8,4.8,0,0,0,2.06-1.88,8.49,8.49,0,0,0,.76-4.18Z"/><path d="M536.57,305.8V281.51a3.78,3.78,0,0,1,.75-2.54,2.53,2.53,0,0,1,2-.86,2.66,2.66,0,0,1,2.06.85,3.67,3.67,0,0,1,.78,2.55V305.8a3.67,3.67,0,0,1-.79,2.55,2.66,2.66,0,0,1-2,.85,2.53,2.53,0,0,1-2-.88A3.74,3.74,0,0,1,536.57,305.8Z"/><path d="M551,283.83a2.94,2.94,0,0,1-2-.72,2.5,2.5,0,0,1-.83-2,2.53,2.53,0,0,1,.85-2,2.87,2.87,0,0,1,2-.76,3,3,0,0,1,1.93.69,2.49,2.49,0,0,1,.84,2,2.58,2.58,0,0,1-.82,2A2.83,2.83,0,0,1,551,283.83Zm2.77,5.78V305.8a3.63,3.63,0,0,1-.8,2.54,2.67,2.67,0,0,1-2,.86,2.52,2.52,0,0,1-2-.88,3.74,3.74,0,0,1-.77-2.52v-16a3.6,3.6,0,0,1,.77-2.5,2.58,2.58,0,0,1,2-.84,2.69,2.69,0,0,1,2,.84A3.26,3.26,0,0,1,553.76,289.61Z"/><path d="M560.06,286.93h.61v-3.37c0-.9,0-1.61.08-2.12a3.15,3.15,0,0,1,.39-1.32,2.57,2.57,0,0,1,1-.93,2.67,2.67,0,0,1,1.37-.36,2.74,2.74,0,0,1,1.93.8,2.42,2.42,0,0,1,.73,1.3,12.08,12.08,0,0,1,.15,2.18v3.82h2.05a2.66,2.66,0,0,1,1.82.56,1.89,1.89,0,0,1,.62,1.45,1.61,1.61,0,0,1-.89,1.58,5.79,5.79,0,0,1-2.55.45h-1.05v10.29a17,17,0,0,0,.09,2,2,2,0,0,0,.5,1.15,1.65,1.65,0,0,0,1.3.44,7.37,7.37,0,0,0,1.33-.17,6.73,6.73,0,0,1,1.31-.18,1.7,1.7,0,0,1,1.22.55,1.8,1.8,0,0,1,.55,1.34,2.25,2.25,0,0,1-1.48,2.07,9.93,9.93,0,0,1-4.24.72,7.32,7.32,0,0,1-4-.88,4.07,4.07,0,0,1-1.78-2.44,16.62,16.62,0,0,1-.42-4.17V291h-.74a2.62,2.62,0,0,1-1.84-.58,1.87,1.87,0,0,1-.64-1.45,1.81,1.81,0,0,1,.67-1.45A3,3,0,0,1,560.06,286.93Z"/><path d="M575.14,286.93h.61v-3.37c0-.9,0-1.61.07-2.12a3.15,3.15,0,0,1,.4-1.32,2.57,2.57,0,0,1,.95-.93,2.64,2.64,0,0,1,1.37-.36,2.75,2.75,0,0,1,1.93.8,2.42,2.42,0,0,1,.73,1.3,12.08,12.08,0,0,1,.15,2.18v3.82h2a2.68,2.68,0,0,1,1.82.56,1.89,1.89,0,0,1,.62,1.45,1.63,1.63,0,0,1-.89,1.58,5.82,5.82,0,0,1-2.55.45h-1v10.29a17,17,0,0,0,.09,2,2.06,2.06,0,0,0,.49,1.15,1.67,1.67,0,0,0,1.31.44,7.48,7.48,0,0,0,1.33-.17,6.73,6.73,0,0,1,1.31-.18,1.7,1.7,0,0,1,1.22.55,1.83,1.83,0,0,1,.55,1.34,2.26,2.26,0,0,1-1.48,2.07,10,10,0,0,1-4.25.72,7.28,7.28,0,0,1-4-.88,4.07,4.07,0,0,1-1.78-2.44,16.62,16.62,0,0,1-.42-4.17V291H575a2.62,2.62,0,0,1-1.84-.58,1.84,1.84,0,0,1-.64-1.45,1.81,1.81,0,0,1,.67-1.45A3,3,0,0,1,575.14,286.93Z"/><path d="M589.91,305.8V281.51a3.78,3.78,0,0,1,.75-2.54,2.53,2.53,0,0,1,2-.86,2.66,2.66,0,0,1,2.06.85,3.67,3.67,0,0,1,.77,2.55V305.8a3.67,3.67,0,0,1-.78,2.55,2.66,2.66,0,0,1-2.05.85,2.53,2.53,0,0,1-2-.88A3.74,3.74,0,0,1,589.91,305.8Z"/><path d="M617.12,299.19h-11a7.49,7.49,0,0,0,.77,3.36,5.22,5.22,0,0,0,2,2.2,5.29,5.29,0,0,0,2.74.74,6.54,6.54,0,0,0,1.83-.24,5.62,5.62,0,0,0,1.62-.74,13,13,0,0,0,1.43-1.07c.44-.39,1-.91,1.7-1.56a1.83,1.83,0,0,1,1.23-.37,2.06,2.06,0,0,1,1.4.47,1.71,1.71,0,0,1,.53,1.33,3.71,3.71,0,0,1-.59,1.78,7.34,7.34,0,0,1-1.8,2,10.23,10.23,0,0,1-3,1.54,13,13,0,0,1-4.18.62c-3.59,0-6.39-1-8.38-3.08a11.43,11.43,0,0,1-3-8.34,14,14,0,0,1,.74-4.61,10.19,10.19,0,0,1,2.15-3.64,9.56,9.56,0,0,1,3.49-2.33,12.71,12.71,0,0,1,4.59-.81,10.9,10.9,0,0,1,5.63,1.39,9,9,0,0,1,3.52,3.58,9.38,9.38,0,0,1,1.17,4.47c0,1.41-.4,2.32-1.21,2.74A7.66,7.66,0,0,1,617.12,299.19Zm-11-3.18h10.16a6.84,6.84,0,0,0-1.55-4.29,4.66,4.66,0,0,0-3.54-1.43,4.47,4.47,0,0,0-3.44,1.45A7.27,7.27,0,0,0,606.17,296Z"/><path d="M658.33,297.82a13.2,13.2,0,0,1-.77,4.61,10.24,10.24,0,0,1-2.26,3.63,9.94,9.94,0,0,1-3.53,2.33,12.42,12.42,0,0,1-4.61.81,12.1,12.1,0,0,1-4.58-.82,10.14,10.14,0,0,1-5.77-6,14.22,14.22,0,0,1,0-9.26,10.16,10.16,0,0,1,2.24-3.61,9.78,9.78,0,0,1,3.52-2.3,12.52,12.52,0,0,1,4.58-.81,12.36,12.36,0,0,1,4.61.82,9.93,9.93,0,0,1,3.55,2.33,10.4,10.4,0,0,1,2.25,3.61A13.41,13.41,0,0,1,658.33,297.82Zm-5.61,0a8.41,8.41,0,0,0-1.51-5.33,4.89,4.89,0,0,0-4.05-1.91,5,5,0,0,0-2.89.85,5.34,5.34,0,0,0-1.93,2.51,10.26,10.26,0,0,0-.68,3.88,10,10,0,0,0,.67,3.83,5.49,5.49,0,0,0,1.91,2.52,5.27,5.27,0,0,0,7-1.05A8.41,8.41,0,0,0,652.72,297.82Z"/><path d="M662.5,286.93h1.34v-1.68a10.91,10.91,0,0,1,.66-4.18,4.25,4.25,0,0,1,2.26-2.25,11,11,0,0,1,4.36-.71c3.26,0,4.9.8,4.9,2.4a1.86,1.86,0,0,1-.52,1.33,1.59,1.59,0,0,1-1.21.56,9.49,9.49,0,0,1-1.12-.13,9.52,9.52,0,0,0-1.36-.12c-1,0-1.66.3-1.94.89a6,6,0,0,0-.44,2.56v1.33h1.38c2.13,0,3.2.64,3.2,1.93,0,.91-.29,1.49-.85,1.74a6,6,0,0,1-2.35.37h-1.38V305.8a3.64,3.64,0,0,1-.79,2.53,2.61,2.61,0,0,1-2,.87,2.57,2.57,0,0,1-2-.87,3.68,3.68,0,0,1-.78-2.53V291H662.3a2.91,2.91,0,0,1-1.93-.57,1.81,1.81,0,0,1-.68-1.46C659.69,287.6,660.63,286.93,662.5,286.93Z"/><path d="M697.72,309.9l.52-1.25-6.89-17.35a6.42,6.42,0,0,1-.64-2.18,2.5,2.5,0,0,1,.37-1.33,2.9,2.9,0,0,1,1-1,2.76,2.76,0,0,1,1.35-.36,2.18,2.18,0,0,1,1.82.76,7.09,7.09,0,0,1,1.09,2.21l4.74,13.78,4.49-12.82a22.65,22.65,0,0,1,1-2.44,2.92,2.92,0,0,1,.92-1.19,2.56,2.56,0,0,1,1.36-.3,2.46,2.46,0,0,1,1.22.33,2.34,2.34,0,0,1,.9.92,2.46,2.46,0,0,1,.32,1.21c0,.26-.14.63-.27,1.1a14.31,14.31,0,0,1-.45,1.46l-7.3,19.11a22.42,22.42,0,0,1-1.84,4,6.19,6.19,0,0,1-2.39,2.21,8.86,8.86,0,0,1-4,.77,9.63,9.63,0,0,1-3.69-.54,1.94,1.94,0,0,1-1.23-2,1.88,1.88,0,0,1,.58-1.48,2.52,2.52,0,0,1,1.73-.53,2.89,2.89,0,0,1,.88.13,4.38,4.38,0,0,0,.93.12,3.29,3.29,0,0,0,1.51-.29,2.62,2.62,0,0,0,1-1A15.72,15.72,0,0,0,697.72,309.9Z"/><path d="M735.94,297.82a13.2,13.2,0,0,1-.78,4.61,10.24,10.24,0,0,1-2.26,3.63,9.94,9.94,0,0,1-3.53,2.33,12.42,12.42,0,0,1-4.61.81,12,12,0,0,1-4.57-.82,10.12,10.12,0,0,1-5.78-6,14.22,14.22,0,0,1,0-9.26,10.16,10.16,0,0,1,2.24-3.61,9.74,9.74,0,0,1,3.53-2.3,13.33,13.33,0,0,1,9.18,0,9.93,9.93,0,0,1,3.55,2.33,10.25,10.25,0,0,1,2.25,3.61A13.41,13.41,0,0,1,735.94,297.82Zm-5.62,0a8.41,8.41,0,0,0-1.51-5.33,4.89,4.89,0,0,0-4-1.91,5,5,0,0,0-2.89.85,5.34,5.34,0,0,0-1.93,2.51,10.26,10.26,0,0,0-.68,3.88,10,10,0,0,0,.67,3.83,5.49,5.49,0,0,0,1.91,2.52,5.27,5.27,0,0,0,7-1.05A8.41,8.41,0,0,0,730.32,297.82Z"/><path d="M755.09,306v-.72a12.6,12.6,0,0,1-2.11,2.14,7.82,7.82,0,0,1-2.42,1.28,9.77,9.77,0,0,1-3,.42,7.72,7.72,0,0,1-3.64-.84,6.08,6.08,0,0,1-2.49-2.32,10.23,10.23,0,0,1-1.05-5.13V289.78a3.59,3.59,0,0,1,.76-2.51,2.58,2.58,0,0,1,2-.83,2.66,2.66,0,0,1,2.05.84,3.55,3.55,0,0,1,.78,2.5v9a13.73,13.73,0,0,0,.33,3.27,3.93,3.93,0,0,0,1.18,2.07,3.34,3.34,0,0,0,2.3.75,4.69,4.69,0,0,0,2.67-.84,4.9,4.9,0,0,0,1.82-2.19,17.39,17.39,0,0,0,.48-5.21v-6.81a3.55,3.55,0,0,1,.78-2.5,2.63,2.63,0,0,1,2-.84,2.58,2.58,0,0,1,2,.83,3.64,3.64,0,0,1,.75,2.51V306a3.48,3.48,0,0,1-.72,2.4,2.6,2.6,0,0,1-3.78,0A3.35,3.35,0,0,1,755.09,306Z"/><path d="M771.69,301.12v4.68a3.63,3.63,0,0,1-.8,2.55,2.65,2.65,0,0,1-2,.85,2.57,2.57,0,0,1-2-.86,3.68,3.68,0,0,1-.78-2.54V290.21c0-2.52.91-3.77,2.73-3.77a2.27,2.27,0,0,1,2,.88,4.93,4.93,0,0,1,.68,2.6,9.66,9.66,0,0,1,2.06-2.6,4.23,4.23,0,0,1,2.82-.88,7.2,7.2,0,0,1,3.42.88,2.62,2.62,0,0,1,1.66,2.34,2.34,2.34,0,0,1-2.23,2.35,6.6,6.6,0,0,1-1.49-.38,7,7,0,0,0-2.08-.37,3,3,0,0,0-2,.64,4.16,4.16,0,0,0-1.21,1.92,13.32,13.32,0,0,0-.6,3C771.75,298,771.69,299.44,771.69,301.12Z"/><path d="M800.62,289.57v.68a11,11,0,0,1,3.28-2.86,8,8,0,0,1,3.85-.91,8.91,8.91,0,0,1,4.76,1.33,9.19,9.19,0,0,1,3.44,3.9,13.62,13.62,0,0,1,1.26,6.07,14.91,14.91,0,0,1-.73,4.74,10.55,10.55,0,0,1-2,3.63,8.77,8.77,0,0,1-6.73,3.05,7.83,7.83,0,0,1-4-1,11.73,11.73,0,0,1-3.1-2.83v8.4c0,2.46-.9,3.7-2.69,3.7a2.15,2.15,0,0,1-2.09-1,6,6,0,0,1-.51-2.78V289.61a3.52,3.52,0,0,1,.69-2.38,2.41,2.41,0,0,1,1.91-.79,2.53,2.53,0,0,1,1.94.81A3.29,3.29,0,0,1,800.62,289.57Zm11,8.15a9.72,9.72,0,0,0-.68-3.81,5.64,5.64,0,0,0-1.87-2.44,4.5,4.5,0,0,0-2.66-.85,5,5,0,0,0-3.91,1.82,8,8,0,0,0-1.59,5.38,7.8,7.8,0,0,0,1.58,5.2,5,5,0,0,0,3.92,1.85,4.48,4.48,0,0,0,2.58-.81,5.53,5.53,0,0,0,1.91-2.43A9.58,9.58,0,0,0,811.59,297.72Z"/><path d="M836.06,306a17.4,17.4,0,0,1-3.93,2.37,10.88,10.88,0,0,1-4.25.79,8.05,8.05,0,0,1-3.79-.85,6.24,6.24,0,0,1-2.51-2.31,6,6,0,0,1-.88-3.16,5.64,5.64,0,0,1,1.45-3.91,7.31,7.31,0,0,1,4-2.18l2.65-.55c1.41-.29,2.61-.55,3.62-.79s2.09-.53,3.27-.87a5.89,5.89,0,0,0-.89-3.25c-.53-.69-1.62-1-3.27-1a6.72,6.72,0,0,0-3.21.6,5.14,5.14,0,0,0-1.85,1.78,16.48,16.48,0,0,1-1.09,1.57,1.78,1.78,0,0,1-1.36.38,2.36,2.36,0,0,1-1.63-.61,2,2,0,0,1-.69-1.54,4.74,4.74,0,0,1,1-2.88A7.45,7.45,0,0,1,826,287.3a14.75,14.75,0,0,1,5.52-.91,15.6,15.6,0,0,1,5.8.88,5.39,5.39,0,0,1,3,2.75,12.1,12.1,0,0,1,.88,5c0,1.31,0,2.43,0,3.34s0,1.94,0,3.06a11.23,11.23,0,0,0,.53,3.29,10.29,10.29,0,0,1,.52,2.2,2.05,2.05,0,0,1-.81,1.57,2.72,2.72,0,0,1-1.84.71,2.48,2.48,0,0,1-1.7-.81A12,12,0,0,1,836.06,306Zm-.37-8.1a27.41,27.41,0,0,1-3.58.95c-1.57.34-2.65.59-3.25.74a4.41,4.41,0,0,0-1.72.93,2.33,2.33,0,0,0-.82,1.91,2.86,2.86,0,0,0,1,2.17,3.57,3.57,0,0,0,2.52.89,6.53,6.53,0,0,0,3.07-.73,4.8,4.8,0,0,0,2.06-1.88,8.49,8.49,0,0,0,.76-4.18Z"/><path d="M851.69,289.57v.68a11.08,11.08,0,0,1,3.28-2.86,8,8,0,0,1,3.86-.91,8.87,8.87,0,0,1,4.75,1.33,9.19,9.19,0,0,1,3.44,3.9,13.62,13.62,0,0,1,1.26,6.07,14.64,14.64,0,0,1-.73,4.74,10.39,10.39,0,0,1-2,3.63,8.72,8.72,0,0,1-3,2.26,8.84,8.84,0,0,1-3.72.79,7.81,7.81,0,0,1-4-1,11.61,11.61,0,0,1-3.11-2.83v8.4c0,2.46-.9,3.7-2.69,3.7a2.15,2.15,0,0,1-2.09-1,6,6,0,0,1-.51-2.78V289.61a3.47,3.47,0,0,1,.7-2.38,2.39,2.39,0,0,1,1.9-.79,2.51,2.51,0,0,1,1.94.81A3.29,3.29,0,0,1,851.69,289.57Zm11,8.15a9.73,9.73,0,0,0-.67-3.81,5.66,5.66,0,0,0-1.88-2.44,4.48,4.48,0,0,0-2.66-.85,5,5,0,0,0-3.9,1.82,8,8,0,0,0-1.59,5.38,7.75,7.75,0,0,0,1.58,5.2,4.94,4.94,0,0,0,3.91,1.85,4.53,4.53,0,0,0,2.59-.81,5.52,5.52,0,0,0,1.9-2.43A9.58,9.58,0,0,0,862.66,297.72Z"/><path d="M888.61,299.19h-11a7.36,7.36,0,0,0,.77,3.36,5.15,5.15,0,0,0,4.72,2.94,6.61,6.61,0,0,0,1.84-.24,5.68,5.68,0,0,0,1.61-.74,12.23,12.23,0,0,0,1.44-1.07l1.7-1.56a1.79,1.79,0,0,1,1.23-.37,2,2,0,0,1,1.39.47,1.68,1.68,0,0,1,.54,1.33,3.64,3.64,0,0,1-.6,1.78,7.29,7.29,0,0,1-1.79,2,10.29,10.29,0,0,1-3,1.54,13,13,0,0,1-4.17.62c-3.6,0-6.39-1-8.39-3.08a11.42,11.42,0,0,1-3-8.34,14,14,0,0,1,.73-4.61,10.21,10.21,0,0,1,2.16-3.64,9.44,9.44,0,0,1,3.48-2.33,12.8,12.8,0,0,1,4.6-.81,10.93,10.93,0,0,1,5.63,1.39,9,9,0,0,1,3.51,3.58,9.38,9.38,0,0,1,1.17,4.47c0,1.41-.4,2.32-1.21,2.74A7.61,7.61,0,0,1,888.61,299.19Zm-11-3.18h10.15a6.79,6.79,0,0,0-1.55-4.29,4.63,4.63,0,0,0-3.54-1.43,4.45,4.45,0,0,0-3.43,1.45A7.14,7.14,0,0,0,877.66,296Z"/><path d="M903.71,301.12v4.68a3.63,3.63,0,0,1-.8,2.55,2.65,2.65,0,0,1-2,.85,2.57,2.57,0,0,1-2-.86,3.68,3.68,0,0,1-.78-2.54V290.21c0-2.52.91-3.77,2.73-3.77a2.27,2.27,0,0,1,2,.88,4.84,4.84,0,0,1,.67,2.6,9.86,9.86,0,0,1,2.06-2.6,4.27,4.27,0,0,1,2.82-.88,7.21,7.21,0,0,1,3.43.88,2.62,2.62,0,0,1,1.66,2.34,2.24,2.24,0,0,1-.71,1.69,2.2,2.2,0,0,1-1.53.66,6.57,6.57,0,0,1-1.48-.38,7,7,0,0,0-2.08-.37,3,3,0,0,0-2,.64,4.08,4.08,0,0,0-1.21,1.92,13.32,13.32,0,0,0-.6,3C903.76,298,903.71,299.44,903.71,301.12Z"/><path d="M923.56,300.24h-6.48a3.25,3.25,0,0,1-2.24-.69,2.28,2.28,0,0,1-.77-1.77,2.33,2.33,0,0,1,.75-1.8,3.23,3.23,0,0,1,2.26-.68h6.48a3.24,3.24,0,0,1,2.27.68,2.51,2.51,0,0,1,0,3.57A3.24,3.24,0,0,1,923.56,300.24Z"/><path d="M930.71,286.93h.61v-3.37c0-.9,0-1.61.07-2.12a3.3,3.3,0,0,1,.4-1.32,2.57,2.57,0,0,1,1-.93,2.67,2.67,0,0,1,1.37-.36,2.75,2.75,0,0,1,1.93.8,2.42,2.42,0,0,1,.73,1.3,12.08,12.08,0,0,1,.15,2.18v3.82H939a2.68,2.68,0,0,1,1.82.56,1.89,1.89,0,0,1,.62,1.45,1.61,1.61,0,0,1-.89,1.58A5.79,5.79,0,0,1,938,291h-1.05v10.29a17,17,0,0,0,.09,2,2,2,0,0,0,.5,1.15,1.65,1.65,0,0,0,1.3.44,7.37,7.37,0,0,0,1.33-.17,6.73,6.73,0,0,1,1.31-.18,1.7,1.7,0,0,1,1.22.55,1.8,1.8,0,0,1,.55,1.34,2.26,2.26,0,0,1-1.48,2.07,9.93,9.93,0,0,1-4.24.72,7.32,7.32,0,0,1-4-.88,4.07,4.07,0,0,1-1.78-2.44,16.62,16.62,0,0,1-.42-4.17V291h-.74a2.62,2.62,0,0,1-1.84-.58,1.84,1.84,0,0,1-.64-1.45,1.81,1.81,0,0,1,.67-1.45A3,3,0,0,1,930.71,286.93Z"/><path d="M951,281.51v8.31a11.93,11.93,0,0,1,2.09-1.95,7.38,7.38,0,0,1,2.24-1.08,9.76,9.76,0,0,1,2.65-.35,7.77,7.77,0,0,1,3.78.9A6.41,6.41,0,0,1,964.3,290a6.23,6.23,0,0,1,.8,2.25,17.32,17.32,0,0,1,.21,2.86V305.8a3.73,3.73,0,0,1-.77,2.54,2.61,2.61,0,0,1-2,.86c-1.85,0-2.77-1.14-2.77-3.4v-9.46a8.69,8.69,0,0,0-.8-4.13,3.15,3.15,0,0,0-3-1.45,4.61,4.61,0,0,0-2.7.85,5.2,5.2,0,0,0-1.8,2.33,15,15,0,0,0-.45,4.45v7.41a3.84,3.84,0,0,1-.74,2.53,2.62,2.62,0,0,1-2.09.87c-1.84,0-2.77-1.14-2.77-3.4V281.51a3.88,3.88,0,0,1,.73-2.55,2.54,2.54,0,0,1,2-.85,2.64,2.64,0,0,1,2.09.86A3.83,3.83,0,0,1,951,281.51Z"/><path d="M973.89,283.83a2.94,2.94,0,0,1-2-.72,2.5,2.5,0,0,1-.83-2,2.53,2.53,0,0,1,.85-2,2.84,2.84,0,0,1,2-.76,2.94,2.94,0,0,1,1.92.69,2.49,2.49,0,0,1,.84,2,2.54,2.54,0,0,1-.82,2A2.79,2.79,0,0,1,973.89,283.83Zm2.76,5.78V305.8a3.59,3.59,0,0,1-.8,2.54,2.66,2.66,0,0,1-2,.86,2.53,2.53,0,0,1-2-.88,3.74,3.74,0,0,1-.76-2.52v-16a3.6,3.6,0,0,1,.76-2.5,2.6,2.6,0,0,1,2-.84,2.68,2.68,0,0,1,2,.84A3.22,3.22,0,0,1,976.65,289.61Z"/><path d="M987.73,289.53v.68a9.85,9.85,0,0,1,3.23-2.86,8.61,8.61,0,0,1,4-.91,8.06,8.06,0,0,1,4,1,6.15,6.15,0,0,1,2.61,2.73,6.66,6.66,0,0,1,.71,2.21,22.86,22.86,0,0,1,.17,3V305.8a3.73,3.73,0,0,1-.77,2.54,2.77,2.77,0,0,1-4,0,3.69,3.69,0,0,1-.78-2.52v-9.34a9.36,9.36,0,0,0-.77-4.23c-.51-1-1.53-1.47-3.07-1.47a4.51,4.51,0,0,0-2.72.9,5.16,5.16,0,0,0-1.81,2.45,17.64,17.64,0,0,0-.41,4.67v7a3.62,3.62,0,0,1-.79,2.55,2.63,2.63,0,0,1-2,.85,2.54,2.54,0,0,1-2-.88,3.69,3.69,0,0,1-.78-2.52V289.61a3.52,3.52,0,0,1,.7-2.38,2.41,2.41,0,0,1,1.91-.79,2.61,2.61,0,0,1,1.33.34,2.65,2.65,0,0,1,1,1.05A3.82,3.82,0,0,1,987.73,289.53Z"/><path d="M1024.49,301.12v4.68a3.58,3.58,0,0,1-.8,2.55,2.65,2.65,0,0,1-2,.85,2.59,2.59,0,0,1-2-.86,3.68,3.68,0,0,1-.78-2.54V290.21c0-2.52.91-3.77,2.73-3.77a2.27,2.27,0,0,1,2,.88,4.84,4.84,0,0,1,.68,2.6,9.86,9.86,0,0,1,2.06-2.6,4.23,4.23,0,0,1,2.82-.88,7.14,7.14,0,0,1,3.42.88,2.63,2.63,0,0,1,1.67,2.34,2.24,2.24,0,0,1-.71,1.69,2.2,2.2,0,0,1-1.53.66,6.6,6.6,0,0,1-1.49-.38,6.93,6.93,0,0,0-2.08-.37,3,3,0,0,0-2,.64,4.16,4.16,0,0,0-1.21,1.92,13.35,13.35,0,0,0-.59,3C1024.55,298,1024.49,299.44,1024.49,301.12Z"/><path d="M1052.12,299.19h-10.95a7.36,7.36,0,0,0,.77,3.36,5.22,5.22,0,0,0,2,2.2,5.29,5.29,0,0,0,2.74.74,6.54,6.54,0,0,0,1.83-.24,5.56,5.56,0,0,0,1.61-.74,12.23,12.23,0,0,0,1.44-1.07c.44-.39,1-.91,1.7-1.56a1.83,1.83,0,0,1,1.23-.37,2.08,2.08,0,0,1,1.4.47,1.71,1.71,0,0,1,.53,1.33,3.64,3.64,0,0,1-.6,1.78,7.12,7.12,0,0,1-1.79,2,10.29,10.29,0,0,1-3,1.54,13,13,0,0,1-4.17.62q-5.38,0-8.39-3.08a11.47,11.47,0,0,1-3-8.34,14,14,0,0,1,.74-4.61,10.19,10.19,0,0,1,2.15-3.64,9.48,9.48,0,0,1,3.49-2.33,12.71,12.71,0,0,1,4.59-.81,10.93,10.93,0,0,1,5.63,1.39,9,9,0,0,1,3.52,3.58,9.38,9.38,0,0,1,1.17,4.47c0,1.41-.41,2.32-1.21,2.74A7.69,7.69,0,0,1,1052.12,299.19ZM1041.17,296h10.15a6.73,6.73,0,0,0-1.55-4.29,4.62,4.62,0,0,0-3.53-1.43,4.47,4.47,0,0,0-3.44,1.45A7.21,7.21,0,0,0,1041.17,296Z"/><path d="M1066.28,289.57v.68a11,11,0,0,1,3.28-2.86,8,8,0,0,1,3.85-.91,8.91,8.91,0,0,1,4.76,1.33,9.19,9.19,0,0,1,3.44,3.9,13.62,13.62,0,0,1,1.26,6.07,14.91,14.91,0,0,1-.73,4.74,10.55,10.55,0,0,1-2,3.63,8.73,8.73,0,0,1-6.73,3.05,7.83,7.83,0,0,1-4-1,11.73,11.73,0,0,1-3.1-2.83v8.4c0,2.46-.9,3.7-2.69,3.7a2.15,2.15,0,0,1-2.09-1,6,6,0,0,1-.51-2.78V289.61a3.52,3.52,0,0,1,.69-2.38,2.41,2.41,0,0,1,1.91-.79,2.53,2.53,0,0,1,1.94.81A3.29,3.29,0,0,1,1066.28,289.57Zm11,8.15a9.72,9.72,0,0,0-.68-3.81,5.57,5.57,0,0,0-1.87-2.44,4.48,4.48,0,0,0-2.66-.85,5,5,0,0,0-3.91,1.82,8,8,0,0,0-1.59,5.38,7.8,7.8,0,0,0,1.58,5.2,5,5,0,0,0,3.92,1.85,4.48,4.48,0,0,0,2.58-.81,5.53,5.53,0,0,0,1.91-2.43A9.58,9.58,0,0,0,1077.25,297.72Z"/><path d="M1102.11,306v-.72a12.6,12.6,0,0,1-2.11,2.14,7.94,7.94,0,0,1-2.42,1.28,9.88,9.88,0,0,1-3,.42,7.78,7.78,0,0,1-3.64-.84,6.2,6.2,0,0,1-2.49-2.32,10.24,10.24,0,0,1-1-5.13V289.78a3.64,3.64,0,0,1,.75-2.51,2.58,2.58,0,0,1,2-.83,2.65,2.65,0,0,1,2,.84,3.55,3.55,0,0,1,.78,2.5v9a13.73,13.73,0,0,0,.33,3.27,3.93,3.93,0,0,0,1.18,2.07,3.38,3.38,0,0,0,2.31.75,4.68,4.68,0,0,0,2.66-.84,4.86,4.86,0,0,0,1.83-2.19,17.86,17.86,0,0,0,.47-5.21v-6.81a3.55,3.55,0,0,1,.78-2.5,2.65,2.65,0,0,1,2-.84,2.58,2.58,0,0,1,2,.83,3.59,3.59,0,0,1,.76,2.51V306a3.43,3.43,0,0,1-.73,2.4,2.59,2.59,0,0,1-3.77,0A3.35,3.35,0,0,1,1102.11,306Z"/><path d="M1113.46,286.93h.61v-3.37c0-.9,0-1.61.07-2.12a3.15,3.15,0,0,1,.4-1.32,2.57,2.57,0,0,1,1-.93,2.64,2.64,0,0,1,1.37-.36,2.75,2.75,0,0,1,1.93.8,2.42,2.42,0,0,1,.73,1.3,12.08,12.08,0,0,1,.15,2.18v3.82h2a2.68,2.68,0,0,1,1.82.56,1.89,1.89,0,0,1,.62,1.45,1.63,1.63,0,0,1-.89,1.58,5.84,5.84,0,0,1-2.56.45h-1v10.29a17,17,0,0,0,.09,2,2.06,2.06,0,0,0,.49,1.15,1.67,1.67,0,0,0,1.31.44,7.48,7.48,0,0,0,1.33-.17,6.73,6.73,0,0,1,1.31-.18,1.7,1.7,0,0,1,1.22.55,1.82,1.82,0,0,1,.54,1.34,2.25,2.25,0,0,1-1.47,2.07,10,10,0,0,1-4.25.72,7.34,7.34,0,0,1-4-.88,4.1,4.1,0,0,1-1.77-2.44,16.62,16.62,0,0,1-.42-4.17V291h-.74a2.62,2.62,0,0,1-1.84-.58,1.84,1.84,0,0,1-.64-1.45,1.81,1.81,0,0,1,.67-1.45A3,3,0,0,1,1113.46,286.93Z"/><path d="M1142.38,306a17.85,17.85,0,0,1-3.93,2.37,10.93,10.93,0,0,1-4.26.79,8,8,0,0,1-3.78-.85,6.24,6.24,0,0,1-2.51-2.31,6,6,0,0,1-.88-3.16,5.64,5.64,0,0,1,1.45-3.91,7.31,7.31,0,0,1,4-2.18l2.65-.55c1.4-.29,2.61-.55,3.62-.79s2.09-.53,3.27-.87a5.89,5.89,0,0,0-.89-3.25c-.53-.69-1.62-1-3.28-1a6.78,6.78,0,0,0-3.21.6,5.19,5.19,0,0,0-1.84,1.78,18.65,18.65,0,0,1-1.09,1.57,1.78,1.78,0,0,1-1.36.38,2.36,2.36,0,0,1-1.63-.61,2,2,0,0,1-.69-1.54,4.74,4.74,0,0,1,1-2.88,7.39,7.39,0,0,1,3.26-2.29,14.66,14.66,0,0,1,5.51-.91,15.66,15.66,0,0,1,5.81.88,5.39,5.39,0,0,1,3,2.75,12.11,12.11,0,0,1,.87,5c0,1.31,0,2.43,0,3.34s0,1.94,0,3.06a11.54,11.54,0,0,0,.52,3.29,10.57,10.57,0,0,1,.53,2.2,2.05,2.05,0,0,1-.81,1.57,2.72,2.72,0,0,1-1.84.71,2.48,2.48,0,0,1-1.7-.81A11.59,11.59,0,0,1,1142.38,306Zm-.37-8.1a27.86,27.86,0,0,1-3.58.95c-1.57.34-2.65.59-3.25.74a4.41,4.41,0,0,0-1.72.93,2.34,2.34,0,0,0-.83,1.91,2.87,2.87,0,0,0,1,2.17,3.57,3.57,0,0,0,2.52.89,6.53,6.53,0,0,0,3.07-.73,4.85,4.85,0,0,0,2.06-1.88,8.6,8.6,0,0,0,.76-4.18Z"/><path d="M1152.66,286.93h.61v-3.37c0-.9,0-1.61.07-2.12a3.15,3.15,0,0,1,.4-1.32,2.57,2.57,0,0,1,1-.93,2.64,2.64,0,0,1,1.37-.36,2.75,2.75,0,0,1,1.93.8,2.42,2.42,0,0,1,.73,1.3,12.08,12.08,0,0,1,.15,2.18v3.82h2.05a2.68,2.68,0,0,1,1.82.56,1.89,1.89,0,0,1,.62,1.45,1.63,1.63,0,0,1-.89,1.58,5.82,5.82,0,0,1-2.55.45h-1.05v10.29a17,17,0,0,0,.09,2,2.06,2.06,0,0,0,.49,1.15,1.67,1.67,0,0,0,1.31.44,7.48,7.48,0,0,0,1.33-.17,6.73,6.73,0,0,1,1.31-.18,1.7,1.7,0,0,1,1.22.55,1.83,1.83,0,0,1,.55,1.34,2.26,2.26,0,0,1-1.48,2.07,10,10,0,0,1-4.25.72,7.34,7.34,0,0,1-4-.88,4.1,4.1,0,0,1-1.77-2.44,16.62,16.62,0,0,1-.42-4.17V291h-.74a2.62,2.62,0,0,1-1.84-.58,1.84,1.84,0,0,1-.64-1.45,1.81,1.81,0,0,1,.67-1.45A3,3,0,0,1,1152.66,286.93Z"/><path d="M1170.26,283.83a2.94,2.94,0,0,1-2-.72,2.5,2.5,0,0,1-.83-2,2.53,2.53,0,0,1,.85-2,2.84,2.84,0,0,1,2-.76,2.94,2.94,0,0,1,1.92.69,2.49,2.49,0,0,1,.84,2,2.54,2.54,0,0,1-.82,2A2.79,2.79,0,0,1,1170.26,283.83Zm2.76,5.78V305.8a3.59,3.59,0,0,1-.8,2.54,2.66,2.66,0,0,1-2,.86,2.53,2.53,0,0,1-2-.88,3.74,3.74,0,0,1-.76-2.52v-16a3.6,3.6,0,0,1,.76-2.5,2.6,2.6,0,0,1,2-.84,2.68,2.68,0,0,1,2,.84A3.22,3.22,0,0,1,1173,289.61Z"/><path d="M1200,297.82a13.2,13.2,0,0,1-.78,4.61,10.1,10.1,0,0,1-2.26,3.63,9.94,9.94,0,0,1-3.53,2.33,12.42,12.42,0,0,1-4.61.81,12,12,0,0,1-4.57-.82,10.12,10.12,0,0,1-3.52-2.35,10.28,10.28,0,0,1-2.26-3.61,14.22,14.22,0,0,1,0-9.26,10.16,10.16,0,0,1,2.24-3.61,9.82,9.82,0,0,1,3.53-2.3,13.33,13.33,0,0,1,9.18,0,9.93,9.93,0,0,1,3.55,2.33,10.25,10.25,0,0,1,2.25,3.61A13.41,13.41,0,0,1,1200,297.82Zm-5.62,0a8.41,8.41,0,0,0-1.51-5.33,4.87,4.87,0,0,0-4-1.91,5,5,0,0,0-2.89.85,5.34,5.34,0,0,0-1.93,2.51,11.35,11.35,0,0,0,0,7.71,5.49,5.49,0,0,0,1.91,2.52,4.94,4.94,0,0,0,2.92.87,4.88,4.88,0,0,0,4-1.92A8.41,8.41,0,0,0,1194.36,297.82Z"/><path d="M1209.68,289.53v.68a9.85,9.85,0,0,1,3.23-2.86,8.58,8.58,0,0,1,4-.91,8.06,8.06,0,0,1,4,1,6.07,6.07,0,0,1,2.6,2.73,6.45,6.45,0,0,1,.72,2.21,22.86,22.86,0,0,1,.17,3V305.8a3.73,3.73,0,0,1-.77,2.54,2.77,2.77,0,0,1-4,0,3.69,3.69,0,0,1-.78-2.52v-9.34a9.36,9.36,0,0,0-.77-4.23,3.13,3.13,0,0,0-3.07-1.47,4.49,4.49,0,0,0-2.72.9,5,5,0,0,0-1.81,2.45,17.64,17.64,0,0,0-.41,4.67v7a3.62,3.62,0,0,1-.79,2.55,2.66,2.66,0,0,1-2,.85,2.53,2.53,0,0,1-2-.88,3.69,3.69,0,0,1-.78-2.52V289.61a3.47,3.47,0,0,1,.7-2.38,2.4,2.4,0,0,1,1.91-.79,2.61,2.61,0,0,1,1.33.34,2.56,2.56,0,0,1,1,1.05A3.68,3.68,0,0,1,1209.68,289.53Z"/><path d="M1233.89,309.2a3.2,3.2,0,0,1-2.2-.82,3.11,3.11,0,0,1,2.13-5.35,3,3,0,0,1,2.21.89,2.89,2.89,0,0,1,.91,2.16,2.93,2.93,0,0,1-.91,2.29A3.09,3.09,0,0,1,1233.89,309.2Z"/><path d="M150,332.2v10.54l11.95-12.47a11.83,11.83,0,0,1,1.47-1.33,2.69,2.69,0,0,1,1.61-.43,3,3,0,0,1,2.12.77,2.48,2.48,0,0,1,.81,1.87,3.75,3.75,0,0,1-1.37,2.65l-7.41,7L167.69,353a15.17,15.17,0,0,1,1.35,2.22,4.37,4.37,0,0,1,.45,1.86,2.29,2.29,0,0,1-.79,1.74,3,3,0,0,1-2.14.74,3.54,3.54,0,0,1-2.07-.55,4.59,4.59,0,0,1-1.36-1.44c-.37-.6-.69-1.15-1-1.64L155,344.89l-5,4.78v6.22a4,4,0,0,1-.86,2.8,3,3,0,0,1-2.22.91,3,3,0,0,1-1.5-.41,2.86,2.86,0,0,1-1.1-1.11,3.43,3.43,0,0,1-.35-1.33c0-.51-.06-1.24-.06-2.2V332.2a4.11,4.11,0,0,1,.81-2.77,2.79,2.79,0,0,1,2.2-.92,2.9,2.9,0,0,1,2.23.91A4,4,0,0,1,150,332.2Z"/><path d="M188.77,349.59h-11a7.36,7.36,0,0,0,.77,3.36,5.22,5.22,0,0,0,2,2.2,5.29,5.29,0,0,0,2.74.74,6.54,6.54,0,0,0,1.83-.24,5.84,5.84,0,0,0,1.61-.74,12.23,12.23,0,0,0,1.44-1.07c.44-.39,1-.91,1.7-1.56a1.83,1.83,0,0,1,1.23-.37,2.06,2.06,0,0,1,1.4.47,1.7,1.7,0,0,1,.53,1.33,3.64,3.64,0,0,1-.6,1.78,7.12,7.12,0,0,1-1.79,1.95,10.17,10.17,0,0,1-3,1.54,12.93,12.93,0,0,1-4.17.62q-5.39,0-8.39-3.08a11.47,11.47,0,0,1-3-8.34,14,14,0,0,1,.74-4.61,10.19,10.19,0,0,1,2.15-3.64,9.36,9.36,0,0,1,3.49-2.33,12.5,12.5,0,0,1,4.59-.81,10.93,10.93,0,0,1,5.63,1.39,9,9,0,0,1,3.52,3.58,9.38,9.38,0,0,1,1.17,4.47c0,1.41-.41,2.32-1.21,2.74A7.66,7.66,0,0,1,188.77,349.59Zm-11-3.18H188a6.73,6.73,0,0,0-1.55-4.29,4.62,4.62,0,0,0-3.53-1.43,4.47,4.47,0,0,0-3.44,1.45A7.21,7.21,0,0,0,177.82,346.41Z"/><path d="M213.94,349.59H203a7.36,7.36,0,0,0,.77,3.36,5.15,5.15,0,0,0,4.73,2.94,6.54,6.54,0,0,0,1.83-.24,5.84,5.84,0,0,0,1.61-.74,12.23,12.23,0,0,0,1.44-1.07l1.7-1.56a1.83,1.83,0,0,1,1.23-.37,2,2,0,0,1,1.39.47,1.67,1.67,0,0,1,.54,1.33,3.64,3.64,0,0,1-.6,1.78,7.12,7.12,0,0,1-1.79,1.95,10.29,10.29,0,0,1-3,1.54,13,13,0,0,1-4.17.62c-3.6,0-6.39-1-8.39-3.08a11.47,11.47,0,0,1-3-8.34,13.76,13.76,0,0,1,.74-4.61,10.19,10.19,0,0,1,2.15-3.64,9.28,9.28,0,0,1,3.49-2.33,12.5,12.5,0,0,1,4.59-.81,10.93,10.93,0,0,1,5.63,1.39,9.09,9.09,0,0,1,3.52,3.58,9.37,9.37,0,0,1,1.16,4.47c0,1.41-.4,2.32-1.21,2.74A7.61,7.61,0,0,1,213.94,349.59ZM203,346.41h10.15a6.79,6.79,0,0,0-1.55-4.29,4.63,4.63,0,0,0-3.54-1.43,4.45,4.45,0,0,0-3.43,1.45A7.14,7.14,0,0,0,203,346.41Z"/><path d="M228.1,340v.68a11,11,0,0,1,3.28-2.86,8,8,0,0,1,3.85-.91,8.91,8.91,0,0,1,4.76,1.33,9.17,9.17,0,0,1,3.43,3.9,13.45,13.45,0,0,1,1.27,6.07,14.91,14.91,0,0,1-.73,4.74,10.55,10.55,0,0,1-2,3.63,8.77,8.77,0,0,1-6.73,3.05,7.83,7.83,0,0,1-4-1,11.61,11.61,0,0,1-3.1-2.84v8.41q0,3.69-2.69,3.69a2.14,2.14,0,0,1-2.09-.95,6,6,0,0,1-.52-2.78V340a3.52,3.52,0,0,1,.7-2.38,2.41,2.41,0,0,1,1.91-.79,2.56,2.56,0,0,1,1.94.8A3.33,3.33,0,0,1,228.1,340Zm11,8.14a9.7,9.7,0,0,0-.68-3.8,5.59,5.59,0,0,0-1.88-2.44,4.45,4.45,0,0,0-2.65-.85,5,5,0,0,0-3.91,1.82,8,8,0,0,0-1.59,5.38,7.8,7.8,0,0,0,1.58,5.2,5,5,0,0,0,3.92,1.85,4.48,4.48,0,0,0,2.58-.81,5.53,5.53,0,0,0,1.91-2.43A9.6,9.6,0,0,0,239.07,348.11Z"/><path d="M278.72,348.63v7.44a3.85,3.85,0,0,1-.8,2.65,2.74,2.74,0,0,1-2.11.88,2.65,2.65,0,0,1-2.06-.88,3.85,3.85,0,0,1-.79-2.65v-8.92a27.38,27.38,0,0,0-.15-3.28A3.48,3.48,0,0,0,272,342a2.48,2.48,0,0,0-2-.75c-1.83,0-3,.63-3.62,1.89a13.32,13.32,0,0,0-.87,5.41v7.57a3.87,3.87,0,0,1-.79,2.64,2.65,2.65,0,0,1-2.08.89,2.69,2.69,0,0,1-2.08-.89,3.83,3.83,0,0,1-.81-2.64v-16a3.45,3.45,0,0,1,.73-2.39,2.42,2.42,0,0,1,1.92-.82,2.59,2.59,0,0,1,1.91.76,2.9,2.9,0,0,1,.77,2.13v.53a9.64,9.64,0,0,1,3.12-2.56,8.19,8.19,0,0,1,3.69-.82,7.38,7.38,0,0,1,3.63.84,6.57,6.57,0,0,1,2.5,2.54,9.73,9.73,0,0,1,3-2.55,7.66,7.66,0,0,1,3.59-.83,8.14,8.14,0,0,1,3.95.9,5.75,5.75,0,0,1,2.49,2.58,12,12,0,0,1,.71,4.78v10.93a3.8,3.8,0,0,1-.8,2.65,2.72,2.72,0,0,1-2.11.88,2.69,2.69,0,0,1-2.08-.89,3.83,3.83,0,0,1-.81-2.64v-9.41a22.06,22.06,0,0,0-.15-2.89,3.37,3.37,0,0,0-.83-1.83,2.69,2.69,0,0,0-2.06-.74,3.75,3.75,0,0,0-2.1.66,4.56,4.56,0,0,0-1.55,1.76A14.08,14.08,0,0,0,278.72,348.63Z"/><path d="M311.62,356.44a17.62,17.62,0,0,1-3.93,2.37,10.88,10.88,0,0,1-4.25.79,8.17,8.17,0,0,1-3.79-.85,6.24,6.24,0,0,1-2.51-2.31,6,6,0,0,1-.88-3.16,5.64,5.64,0,0,1,1.45-3.91,7.31,7.31,0,0,1,4-2.18l2.65-.55c1.41-.29,2.61-.55,3.62-.79s2.09-.53,3.27-.87a5.89,5.89,0,0,0-.89-3.25c-.53-.69-1.62-1-3.27-1a6.72,6.72,0,0,0-3.21.6,5.14,5.14,0,0,0-1.85,1.78,16.48,16.48,0,0,1-1.09,1.57,1.78,1.78,0,0,1-1.36.38,2.36,2.36,0,0,1-1.63-.61,2,2,0,0,1-.69-1.55,4.73,4.73,0,0,1,1.05-2.87,7.45,7.45,0,0,1,3.26-2.29,14.71,14.71,0,0,1,5.52-.91,15.6,15.6,0,0,1,5.8.88,5.39,5.39,0,0,1,3,2.75,12.1,12.1,0,0,1,.88,5c0,1.31,0,2.42,0,3.34s0,1.94,0,3.06a11.23,11.23,0,0,0,.53,3.29,10.16,10.16,0,0,1,.52,2.2,2.05,2.05,0,0,1-.81,1.57,2.72,2.72,0,0,1-1.84.71,2.48,2.48,0,0,1-1.7-.81A12,12,0,0,1,311.62,356.44Zm-.37-8.1a27.41,27.41,0,0,1-3.58,1c-1.57.34-2.65.59-3.25.74a4.41,4.41,0,0,0-1.72.93,2.33,2.33,0,0,0-.82,1.91,2.86,2.86,0,0,0,1,2.17,3.57,3.57,0,0,0,2.52.89,6.53,6.53,0,0,0,3.07-.73,4.8,4.8,0,0,0,2.06-1.88,8.49,8.49,0,0,0,.76-4.18Z"/><path d="M336.58,357l-4.94-8.13-3,2.88v4.45a3.4,3.4,0,0,1-.85,2.49,2.67,2.67,0,0,1-2,.87,2.56,2.56,0,0,1-2-.86,3.84,3.84,0,0,1-.73-2.55V332.32a4.75,4.75,0,0,1,.71-2.84,2.4,2.4,0,0,1,2.05-1,2.54,2.54,0,0,1,2,.88,3.89,3.89,0,0,1,.76,2.61v13.57l6.3-6.6a15.51,15.51,0,0,1,1.78-1.68,2.47,2.47,0,0,1,1.5-.45,2.42,2.42,0,0,1,1.74.66,2.2,2.2,0,0,1,.7,1.67c0,.82-.76,1.92-2.28,3.28l-3,2.73,5.74,9c.43.67.73,1.18.92,1.52a2.18,2.18,0,0,1,.27,1,2.9,2.9,0,0,1-.73,2.1,2.51,2.51,0,0,1-1.91.77,2.17,2.17,0,0,1-1.58-.55A13.46,13.46,0,0,1,336.58,357Z"/><path d="M348.71,334.23a2.94,2.94,0,0,1-2-.72,2.79,2.79,0,0,1,0-4,2.84,2.84,0,0,1,2-.76,2.94,2.94,0,0,1,1.92.69,2.49,2.49,0,0,1,.84,2,2.54,2.54,0,0,1-.82,2A2.79,2.79,0,0,1,348.71,334.23Zm2.76,5.78v16.18a3.6,3.6,0,0,1-.8,2.55,2.66,2.66,0,0,1-2,.86,2.56,2.56,0,0,1-2-.88,3.75,3.75,0,0,1-.76-2.53v-16a3.6,3.6,0,0,1,.76-2.5,2.6,2.6,0,0,1,2-.84,2.68,2.68,0,0,1,2,.84A3.22,3.22,0,0,1,351.47,340Z"/><path d="M362.55,339.93v.68a10,10,0,0,1,3.23-2.86,8.61,8.61,0,0,1,4-.91,8.06,8.06,0,0,1,4,1,6.15,6.15,0,0,1,2.61,2.73,6.44,6.44,0,0,1,.71,2.21,22.76,22.76,0,0,1,.17,3v10.41a3.74,3.74,0,0,1-.77,2.55,2.57,2.57,0,0,1-2,.86,2.61,2.61,0,0,1-2-.88,3.7,3.7,0,0,1-.78-2.53v-9.33a9.36,9.36,0,0,0-.77-4.23c-.51-1-1.53-1.47-3.07-1.47a4.56,4.56,0,0,0-2.72.89,5.23,5.23,0,0,0-1.81,2.46,17.64,17.64,0,0,0-.41,4.67v7a3.63,3.63,0,0,1-.79,2.56,2.66,2.66,0,0,1-2,.85,2.57,2.57,0,0,1-2-.88,3.7,3.7,0,0,1-.78-2.53V340a3.52,3.52,0,0,1,.7-2.38,2.41,2.41,0,0,1,1.91-.79,2.61,2.61,0,0,1,1.33.34,2.52,2.52,0,0,1,1,1.05A3.79,3.79,0,0,1,362.55,339.93Z"/><path d="M403.64,340.94V357.2a16.9,16.9,0,0,1-.6,4.8,7.63,7.63,0,0,1-1.91,3.32,7.89,7.89,0,0,1-3.43,1.95,18.89,18.89,0,0,1-5.28.63,15.37,15.37,0,0,1-5.17-.81,8.85,8.85,0,0,1-3.51-2.09,3.8,3.8,0,0,1-1.23-2.63,2.18,2.18,0,0,1,.7-1.67,2.39,2.39,0,0,1,1.68-.65,2.73,2.73,0,0,1,2.15,1.09l.94,1.11a5.38,5.38,0,0,0,1.06,1,4.31,4.31,0,0,0,1.41.59,8.18,8.18,0,0,0,1.89.2,7.51,7.51,0,0,0,3.37-.61,3.41,3.41,0,0,0,1.68-1.69,6.93,6.93,0,0,0,.57-2.33q.07-1.23.12-4a9.13,9.13,0,0,1-3,2.75,8.12,8.12,0,0,1-4,.95,8.48,8.48,0,0,1-4.91-1.44,9.2,9.2,0,0,1-3.23-4,14.82,14.82,0,0,1-1.13-6,14.07,14.07,0,0,1,.69-4.55,9.56,9.56,0,0,1,2-3.42,8.46,8.46,0,0,1,2.93-2.11,9.28,9.28,0,0,1,3.65-.7,8.8,8.8,0,0,1,4.13.91,10.07,10.07,0,0,1,3.24,2.86v-.76a3.23,3.23,0,0,1,.71-2.25,2.36,2.36,0,0,1,1.85-.8,2.17,2.17,0,0,1,2.15,1.05A6.88,6.88,0,0,1,403.64,340.94ZM387.41,348a7.76,7.76,0,0,0,1.49,5.15,4.82,4.82,0,0,0,3.85,1.74,5,5,0,0,0,2.63-.75,5.43,5.43,0,0,0,2-2.25,7.91,7.91,0,0,0,.78-3.66,8.35,8.35,0,0,0-1.51-5.33,4.77,4.77,0,0,0-4-1.91,4.68,4.68,0,0,0-3.85,1.82A8.22,8.22,0,0,0,387.41,348Z"/><path d="M439.84,355.68l-1.43-3.77H426.18l-1.43,3.85a13.29,13.29,0,0,1-1.44,3.05,2.26,2.26,0,0,1-1.95.79,2.87,2.87,0,0,1-2-.84,2.61,2.61,0,0,1-.88-1.91,4.17,4.17,0,0,1,.21-1.27c.13-.44.36-1.05.67-1.83L427,334.23c.22-.56.49-1.23.79-2a10.48,10.48,0,0,1,1-2,4,4,0,0,1,1.37-1.26,4.23,4.23,0,0,1,2.1-.48,4.3,4.3,0,0,1,2.13.48,4.2,4.2,0,0,1,1.37,1.24,8.82,8.82,0,0,1,.88,1.63c.24.58.55,1.36.92,2.33l7.85,19.4a9.63,9.63,0,0,1,.92,3.22,2.67,2.67,0,0,1-.87,1.92,2.86,2.86,0,0,1-2.1.87,2.72,2.72,0,0,1-1.23-.26,2.44,2.44,0,0,1-.86-.7,5.68,5.68,0,0,1-.75-1.35C440.26,356.68,440,356.15,439.84,355.68Zm-12.06-8.34h9l-4.54-12.41Z"/><path d="M469.25,348.63v7.44a3.85,3.85,0,0,1-.79,2.65,2.76,2.76,0,0,1-2.12.88,2.68,2.68,0,0,1-2.06-.88,3.85,3.85,0,0,1-.79-2.65v-8.92a30.16,30.16,0,0,0-.14-3.28,3.63,3.63,0,0,0-.78-1.92,2.48,2.48,0,0,0-2-.75c-1.83,0-3,.63-3.62,1.89a13.32,13.32,0,0,0-.87,5.41v7.57a3.93,3.93,0,0,1-.79,2.64,2.66,2.66,0,0,1-2.08.89,2.69,2.69,0,0,1-2.08-.89,3.83,3.83,0,0,1-.81-2.64v-16a3.5,3.5,0,0,1,.72-2.39,2.45,2.45,0,0,1,1.92-.82,2.6,2.6,0,0,1,1.92.76,2.9,2.9,0,0,1,.77,2.13v.53a9.71,9.71,0,0,1,3.11-2.56,8.21,8.21,0,0,1,3.7-.82,7.43,7.43,0,0,1,3.63.84,6.64,6.64,0,0,1,2.5,2.54,9.6,9.6,0,0,1,3-2.55,7.68,7.68,0,0,1,3.59-.83,8.21,8.21,0,0,1,4,.9,5.73,5.73,0,0,1,2.48,2.58,11.82,11.82,0,0,1,.72,4.78v10.93a3.85,3.85,0,0,1-.8,2.65,2.74,2.74,0,0,1-2.11.88,2.69,2.69,0,0,1-2.08-.89,3.83,3.83,0,0,1-.81-2.64v-9.41a21.79,21.79,0,0,0-.16-2.89,3.3,3.3,0,0,0-.83-1.83,2.65,2.65,0,0,0-2.05-.74,3.72,3.72,0,0,0-2.1.66,4.48,4.48,0,0,0-1.55,1.76A14,14,0,0,0,469.25,348.63Z"/><path d="M503.63,349.59H492.68a7.36,7.36,0,0,0,.77,3.36,5.22,5.22,0,0,0,2,2.2,5.29,5.29,0,0,0,2.74.74,6.54,6.54,0,0,0,1.83-.24,5.84,5.84,0,0,0,1.61-.74,12.23,12.23,0,0,0,1.44-1.07c.44-.39,1-.91,1.7-1.56a1.83,1.83,0,0,1,1.23-.37,2,2,0,0,1,1.39.47,1.67,1.67,0,0,1,.54,1.33,3.64,3.64,0,0,1-.6,1.78,7.12,7.12,0,0,1-1.79,1.95,10.29,10.29,0,0,1-3,1.54,13,13,0,0,1-4.17.62q-5.38,0-8.39-3.08a11.47,11.47,0,0,1-3-8.34,14,14,0,0,1,.74-4.61,10.19,10.19,0,0,1,2.15-3.64,9.36,9.36,0,0,1,3.49-2.33,12.5,12.5,0,0,1,4.59-.81,10.93,10.93,0,0,1,5.63,1.39,9.09,9.09,0,0,1,3.52,3.58,9.38,9.38,0,0,1,1.17,4.47c0,1.41-.41,2.32-1.21,2.74A7.69,7.69,0,0,1,503.63,349.59Zm-10.95-3.18h10.15a6.73,6.73,0,0,0-1.55-4.29,4.62,4.62,0,0,0-3.53-1.43,4.47,4.47,0,0,0-3.44,1.45A7.21,7.21,0,0,0,492.68,346.41Z"/><path d="M518.73,351.52v4.67a3.64,3.64,0,0,1-.8,2.56,2.69,2.69,0,0,1-2,.85,2.57,2.57,0,0,1-2-.86,3.69,3.69,0,0,1-.78-2.55V340.61c0-2.52.91-3.77,2.73-3.77a2.27,2.27,0,0,1,2,.88,4.9,4.9,0,0,1,.68,2.6,9.51,9.51,0,0,1,2.06-2.6,4.23,4.23,0,0,1,2.82-.88,7.2,7.2,0,0,1,3.42.88,2.61,2.61,0,0,1,1.66,2.33,2.34,2.34,0,0,1-2.23,2.36,6.6,6.6,0,0,1-1.49-.38,7,7,0,0,0-2.08-.38,3.05,3.05,0,0,0-2,.65,4.16,4.16,0,0,0-1.21,1.92,13.21,13.21,0,0,0-.6,3C518.79,348.41,518.73,349.84,518.73,351.52Z"/><path d="M534.61,334.23a2.94,2.94,0,0,1-2-.72,2.79,2.79,0,0,1,0-4,2.87,2.87,0,0,1,2-.76,3,3,0,0,1,1.93.69,2.49,2.49,0,0,1,.84,2,2.58,2.58,0,0,1-.82,2A2.83,2.83,0,0,1,534.61,334.23Zm2.77,5.78v16.18a3.64,3.64,0,0,1-.8,2.55,2.67,2.67,0,0,1-2,.86,2.55,2.55,0,0,1-2-.88,3.75,3.75,0,0,1-.77-2.53v-16a3.6,3.6,0,0,1,.77-2.5,2.58,2.58,0,0,1,2-.84,2.69,2.69,0,0,1,2,.84A3.26,3.26,0,0,1,537.38,340Z"/><path d="M563.45,352.67a4.8,4.8,0,0,1-.63,2.23,7.61,7.61,0,0,1-1.91,2.27,9.8,9.8,0,0,1-3.23,1.73,13.57,13.57,0,0,1-4.38.66q-5.19,0-8.1-3a11.16,11.16,0,0,1-2.92-8.11,13.38,13.38,0,0,1,1.34-6.09,9.51,9.51,0,0,1,3.85-4.09,12,12,0,0,1,6-1.45,12.1,12.1,0,0,1,4,.64,10.46,10.46,0,0,1,3.08,1.64,7.89,7.89,0,0,1,1.92,2.14,4.21,4.21,0,0,1,.67,2.13,2.24,2.24,0,0,1-.75,1.7,2.58,2.58,0,0,1-1.81.7,1.83,1.83,0,0,1-1.16-.36,6,6,0,0,1-1-1.16,8.5,8.5,0,0,0-2.14-2.34,5.26,5.26,0,0,0-6.84,1.16,8.39,8.39,0,0,0-1.52,5.3,10.22,10.22,0,0,0,.39,2.9,6.66,6.66,0,0,0,1.13,2.26,4.85,4.85,0,0,0,1.78,1.41,5.48,5.48,0,0,0,2.3.48,5.16,5.16,0,0,0,2.88-.77,6.82,6.82,0,0,0,2.12-2.38,5.88,5.88,0,0,1,1.11-1.48,2.09,2.09,0,0,1,1.46-.53,2.16,2.16,0,0,1,1.7.78A2.5,2.5,0,0,1,563.45,352.67Z"/><path d="M582.69,356.44a17.62,17.62,0,0,1-3.93,2.37,10.88,10.88,0,0,1-4.25.79,8.17,8.17,0,0,1-3.79-.85,6.24,6.24,0,0,1-2.51-2.31,6,6,0,0,1-.88-3.16,5.64,5.64,0,0,1,1.45-3.91,7.31,7.31,0,0,1,4-2.18l2.65-.55c1.41-.29,2.61-.55,3.62-.79s2.09-.53,3.27-.87a5.89,5.89,0,0,0-.89-3.25c-.53-.69-1.62-1-3.27-1a6.72,6.72,0,0,0-3.21.6,5.14,5.14,0,0,0-1.85,1.78,16.48,16.48,0,0,1-1.09,1.57,1.78,1.78,0,0,1-1.36.38,2.36,2.36,0,0,1-1.63-.61,2,2,0,0,1-.69-1.55,4.73,4.73,0,0,1,1-2.87,7.45,7.45,0,0,1,3.26-2.29,14.75,14.75,0,0,1,5.52-.91,15.6,15.6,0,0,1,5.8.88,5.39,5.39,0,0,1,3,2.75,12.1,12.1,0,0,1,.88,5c0,1.31,0,2.42,0,3.34s0,1.94,0,3.06a11.23,11.23,0,0,0,.53,3.29,10.16,10.16,0,0,1,.52,2.2,2.05,2.05,0,0,1-.81,1.57,2.72,2.72,0,0,1-1.84.71,2.48,2.48,0,0,1-1.7-.81A12,12,0,0,1,582.69,356.44Zm-.37-8.1a27.41,27.41,0,0,1-3.58,1c-1.57.34-2.65.59-3.25.74a4.41,4.41,0,0,0-1.72.93,2.33,2.33,0,0,0-.82,1.91,2.86,2.86,0,0,0,1,2.17,3.57,3.57,0,0,0,2.52.89,6.53,6.53,0,0,0,3.07-.73,4.8,4.8,0,0,0,2.06-1.88,8.49,8.49,0,0,0,.76-4.18Z"/><path d="M625,340.94V357.2a16.9,16.9,0,0,1-.6,4.8,7.63,7.63,0,0,1-1.91,3.32,7.89,7.89,0,0,1-3.43,1.95,18.89,18.89,0,0,1-5.28.63,15.37,15.37,0,0,1-5.17-.81,8.85,8.85,0,0,1-3.51-2.09,3.8,3.8,0,0,1-1.23-2.63,2.18,2.18,0,0,1,.7-1.67,2.39,2.39,0,0,1,1.68-.65,2.76,2.76,0,0,1,2.16,1.09q.45.56.93,1.11a5.17,5.17,0,0,0,1.07,1,4.16,4.16,0,0,0,1.4.59,8.24,8.24,0,0,0,1.89.2,7.51,7.51,0,0,0,3.37-.61,3.41,3.41,0,0,0,1.68-1.69,6.93,6.93,0,0,0,.57-2.33q.07-1.23.12-4a9.13,9.13,0,0,1-3,2.75,8.12,8.12,0,0,1-4,.95,8.48,8.48,0,0,1-4.91-1.44,9.2,9.2,0,0,1-3.23-4,14.82,14.82,0,0,1-1.12-6,14.08,14.08,0,0,1,.68-4.55,9.56,9.56,0,0,1,2-3.42,8.46,8.46,0,0,1,2.93-2.11,9.28,9.28,0,0,1,3.65-.7,8.8,8.8,0,0,1,4.13.91,10.07,10.07,0,0,1,3.24,2.86v-.76a3.28,3.28,0,0,1,.71-2.25,2.36,2.36,0,0,1,1.85-.8,2.17,2.17,0,0,1,2.15,1.05A6.88,6.88,0,0,1,625,340.94ZM608.78,348a7.76,7.76,0,0,0,1.49,5.15,4.82,4.82,0,0,0,3.85,1.74,5,5,0,0,0,2.63-.75,5.43,5.43,0,0,0,2-2.25,7.91,7.91,0,0,0,.78-3.66,8.35,8.35,0,0,0-1.51-5.33,4.77,4.77,0,0,0-4-1.91,4.68,4.68,0,0,0-3.85,1.82A8.22,8.22,0,0,0,608.78,348Z"/><path d="M635.88,351.52v4.67a3.64,3.64,0,0,1-.8,2.56,2.69,2.69,0,0,1-2,.85,2.57,2.57,0,0,1-2-.86,3.69,3.69,0,0,1-.78-2.55V340.61c0-2.52.91-3.77,2.73-3.77a2.27,2.27,0,0,1,2,.88,4.9,4.9,0,0,1,.68,2.6,9.51,9.51,0,0,1,2.06-2.6,4.23,4.23,0,0,1,2.82-.88,7.2,7.2,0,0,1,3.42.88,2.61,2.61,0,0,1,1.66,2.33,2.34,2.34,0,0,1-2.23,2.36,6.6,6.6,0,0,1-1.49-.38,7,7,0,0,0-2.08-.38,3.05,3.05,0,0,0-2,.65,4.16,4.16,0,0,0-1.21,1.92,13.21,13.21,0,0,0-.6,3C635.93,348.41,635.88,349.84,635.88,351.52Z"/><path d="M663.51,349.59h-11a7.36,7.36,0,0,0,.77,3.36,5.15,5.15,0,0,0,4.72,2.94,6.61,6.61,0,0,0,1.84-.24,6,6,0,0,0,1.61-.74,11.33,11.33,0,0,0,1.43-1.07q.66-.58,1.71-1.56a1.79,1.79,0,0,1,1.23-.37,2,2,0,0,1,1.39.47,1.66,1.66,0,0,1,.53,1.33,3.61,3.61,0,0,1-.59,1.78,7.29,7.29,0,0,1-1.79,1.95,10.29,10.29,0,0,1-3,1.54,13,13,0,0,1-4.17.62c-3.6,0-6.39-1-8.39-3.08a11.42,11.42,0,0,1-3-8.34,14,14,0,0,1,.73-4.61,10.21,10.21,0,0,1,2.16-3.64,9.32,9.32,0,0,1,3.48-2.33,12.55,12.55,0,0,1,4.6-.81,10.93,10.93,0,0,1,5.63,1.39,9.07,9.07,0,0,1,3.51,3.58,9.38,9.38,0,0,1,1.17,4.47c0,1.41-.4,2.32-1.21,2.74A7.61,7.61,0,0,1,663.51,349.59Zm-11-3.18h10.15a6.79,6.79,0,0,0-1.55-4.29,4.64,4.64,0,0,0-3.54-1.43,4.45,4.45,0,0,0-3.43,1.45A7.14,7.14,0,0,0,652.56,346.41Z"/><path d="M687.2,356.44a17.4,17.4,0,0,1-3.93,2.37,10.88,10.88,0,0,1-4.25.79,8.17,8.17,0,0,1-3.79-.85,6.31,6.31,0,0,1-2.51-2.31,6,6,0,0,1-.88-3.16,5.65,5.65,0,0,1,1.46-3.91,7.28,7.28,0,0,1,4-2.18l2.65-.55c1.41-.29,2.61-.55,3.62-.79s2.1-.53,3.27-.87a5.89,5.89,0,0,0-.89-3.25c-.53-.69-1.62-1-3.27-1a6.78,6.78,0,0,0-3.21.6,5.14,5.14,0,0,0-1.85,1.78c-.51.79-.87,1.32-1.08,1.57a1.82,1.82,0,0,1-1.37.38,2.36,2.36,0,0,1-1.63-.61,2,2,0,0,1-.69-1.55,4.73,4.73,0,0,1,1-2.87,7.45,7.45,0,0,1,3.26-2.29,14.75,14.75,0,0,1,5.52-.91,15.6,15.6,0,0,1,5.8.88,5.44,5.44,0,0,1,3,2.75,12.11,12.11,0,0,1,.87,5c0,1.31,0,2.42,0,3.34s0,1.94,0,3.06a11.2,11.2,0,0,0,.52,3.29,10.16,10.16,0,0,1,.52,2.2,2.05,2.05,0,0,1-.81,1.57,2.72,2.72,0,0,1-1.83.71,2.48,2.48,0,0,1-1.71-.81A12,12,0,0,1,687.2,356.44Zm-.37-8.1a27.41,27.41,0,0,1-3.58,1c-1.56.34-2.65.59-3.25.74a4.48,4.48,0,0,0-1.72.93,2.33,2.33,0,0,0-.82,1.91,2.86,2.86,0,0,0,1,2.17,3.62,3.62,0,0,0,2.53.89,6.52,6.52,0,0,0,3.06-.73,4.8,4.8,0,0,0,2.06-1.88,8.49,8.49,0,0,0,.76-4.18Z"/><path d="M697.48,337.33h.61V334c0-.9,0-1.61.08-2.12a3,3,0,0,1,.4-1.32,2.54,2.54,0,0,1,.94-.93,2.67,2.67,0,0,1,1.37-.36,2.74,2.74,0,0,1,1.93.8,2.36,2.36,0,0,1,.73,1.3,12.08,12.08,0,0,1,.15,2.18v3.82h2a2.66,2.66,0,0,1,1.82.56,1.86,1.86,0,0,1,.62,1.45,1.61,1.61,0,0,1-.89,1.58,5.77,5.77,0,0,1-2.55.45h-1v10.29a14.79,14.79,0,0,0,.1,2,2,2,0,0,0,.49,1.15,1.65,1.65,0,0,0,1.3.44,7.37,7.37,0,0,0,1.33-.17,6.72,6.72,0,0,1,1.32-.18,1.68,1.68,0,0,1,1.22.55,1.82,1.82,0,0,1,.54,1.34,2.25,2.25,0,0,1-1.48,2.07,9.93,9.93,0,0,1-4.24.72,7.41,7.41,0,0,1-4-.88,4.11,4.11,0,0,1-1.78-2.44,16.62,16.62,0,0,1-.42-4.17V341.37h-.73a2.63,2.63,0,0,1-1.85-.58,1.86,1.86,0,0,1-.63-1.45,1.83,1.83,0,0,1,.66-1.45A3,3,0,0,1,697.48,337.33Z"/><path d="M737.11,356.44a17.4,17.4,0,0,1-3.93,2.37,10.88,10.88,0,0,1-4.25.79,8.17,8.17,0,0,1-3.79-.85,6.31,6.31,0,0,1-2.51-2.31,6,6,0,0,1-.88-3.16,5.65,5.65,0,0,1,1.46-3.91,7.28,7.28,0,0,1,4-2.18l2.64-.55c1.41-.29,2.61-.55,3.62-.79s2.1-.53,3.27-.87a5.81,5.81,0,0,0-.89-3.25c-.53-.69-1.62-1-3.27-1a6.78,6.78,0,0,0-3.21.6,5.22,5.22,0,0,0-1.85,1.78c-.51.79-.87,1.32-1.08,1.57a1.82,1.82,0,0,1-1.37.38,2.36,2.36,0,0,1-1.63-.61,2,2,0,0,1-.69-1.55,4.73,4.73,0,0,1,1-2.87,7.45,7.45,0,0,1,3.26-2.29,14.75,14.75,0,0,1,5.52-.91,15.6,15.6,0,0,1,5.8.88,5.44,5.44,0,0,1,3,2.75,12.11,12.11,0,0,1,.87,5c0,1.31,0,2.42,0,3.34s0,1.94,0,3.06a11.2,11.2,0,0,0,.52,3.29,10.16,10.16,0,0,1,.52,2.2,2.05,2.05,0,0,1-.81,1.57,2.72,2.72,0,0,1-1.83.71,2.5,2.5,0,0,1-1.71-.81A12,12,0,0,1,737.11,356.44Zm-.37-8.1a27.41,27.41,0,0,1-3.58,1c-1.56.34-2.65.59-3.25.74a4.48,4.48,0,0,0-1.72.93,2.33,2.33,0,0,0-.82,1.91,2.86,2.86,0,0,0,1,2.17,3.62,3.62,0,0,0,2.53.89,6.52,6.52,0,0,0,3.06-.73,4.8,4.8,0,0,0,2.06-1.88,8.49,8.49,0,0,0,.76-4.18Z"/><path d="M768.16,340.94V357.2a16.93,16.93,0,0,1-.59,4.8,7.63,7.63,0,0,1-1.91,3.32,7.89,7.89,0,0,1-3.43,1.95,18.89,18.89,0,0,1-5.28.63,15.37,15.37,0,0,1-5.17-.81,8.85,8.85,0,0,1-3.51-2.09,3.8,3.8,0,0,1-1.23-2.63,2.15,2.15,0,0,1,.7-1.67,2.37,2.37,0,0,1,1.68-.65,2.73,2.73,0,0,1,2.15,1.09c.3.37.61.74.94,1.11a5.38,5.38,0,0,0,1.06,1,4.31,4.31,0,0,0,1.41.59,8.09,8.09,0,0,0,1.88.2,7.56,7.56,0,0,0,3.38-.61,3.41,3.41,0,0,0,1.68-1.69,6.69,6.69,0,0,0,.56-2.33c.06-.82.1-2.15.13-4a9.13,9.13,0,0,1-3,2.75,8.12,8.12,0,0,1-4,.95,8.48,8.48,0,0,1-4.91-1.44,9.2,9.2,0,0,1-3.23-4,14.82,14.82,0,0,1-1.13-6,14.07,14.07,0,0,1,.69-4.55,9.56,9.56,0,0,1,2-3.42,8.37,8.37,0,0,1,2.93-2.11,9.28,9.28,0,0,1,3.65-.7,8.73,8.73,0,0,1,4.12.91,9.87,9.87,0,0,1,3.24,2.86v-.76a3.24,3.24,0,0,1,.72-2.25,2.36,2.36,0,0,1,1.85-.8,2.17,2.17,0,0,1,2.15,1.05A6.9,6.9,0,0,1,768.16,340.94ZM751.94,348a7.76,7.76,0,0,0,1.49,5.15,4.81,4.81,0,0,0,3.84,1.74,5,5,0,0,0,2.64-.75,5.43,5.43,0,0,0,2-2.25,7.91,7.91,0,0,0,.78-3.66,8.35,8.35,0,0,0-1.51-5.33,4.79,4.79,0,0,0-4-1.91,4.66,4.66,0,0,0-3.84,1.82A8.16,8.16,0,0,0,751.94,348Z"/><path d="M787.14,356.44a17.4,17.4,0,0,1-3.93,2.37,10.88,10.88,0,0,1-4.25.79,8.17,8.17,0,0,1-3.79-.85,6.24,6.24,0,0,1-2.51-2.31,6,6,0,0,1-.88-3.16,5.64,5.64,0,0,1,1.45-3.91,7.35,7.35,0,0,1,4-2.18l2.65-.55c1.41-.29,2.61-.55,3.62-.79s2.09-.53,3.27-.87a5.89,5.89,0,0,0-.89-3.25c-.53-.69-1.62-1-3.27-1a6.72,6.72,0,0,0-3.21.6,5.14,5.14,0,0,0-1.85,1.78,16.48,16.48,0,0,1-1.09,1.57,1.78,1.78,0,0,1-1.36.38,2.36,2.36,0,0,1-1.63-.61,2,2,0,0,1-.69-1.55,4.73,4.73,0,0,1,1.05-2.87,7.45,7.45,0,0,1,3.26-2.29,14.75,14.75,0,0,1,5.52-.91,15.6,15.6,0,0,1,5.8.88,5.39,5.39,0,0,1,3,2.75,12.1,12.1,0,0,1,.88,5c0,1.31,0,2.42,0,3.34s0,1.94,0,3.06a11.23,11.23,0,0,0,.53,3.29,10.16,10.16,0,0,1,.52,2.2,2.05,2.05,0,0,1-.81,1.57,2.72,2.72,0,0,1-1.84.71,2.48,2.48,0,0,1-1.7-.81A12,12,0,0,1,787.14,356.44Zm-.37-8.1a27.41,27.41,0,0,1-3.58,1c-1.57.34-2.65.59-3.25.74a4.41,4.41,0,0,0-1.72.93,2.33,2.33,0,0,0-.82,1.91,2.86,2.86,0,0,0,1,2.17,3.57,3.57,0,0,0,2.52.89,6.53,6.53,0,0,0,3.07-.73,4.8,4.8,0,0,0,2.06-1.88,8.49,8.49,0,0,0,.76-4.18Z"/><path d="M801,334.23a2.94,2.94,0,0,1-2-.72,2.79,2.79,0,0,1,0-4,2.84,2.84,0,0,1,2-.76,2.94,2.94,0,0,1,1.92.69,2.49,2.49,0,0,1,.84,2,2.54,2.54,0,0,1-.82,2A2.79,2.79,0,0,1,801,334.23Zm2.76,5.78v16.18a3.64,3.64,0,0,1-.79,2.55,2.68,2.68,0,0,1-2,.86,2.56,2.56,0,0,1-2-.88,3.75,3.75,0,0,1-.76-2.53v-16a3.6,3.6,0,0,1,.76-2.5,2.6,2.6,0,0,1,2-.84,2.7,2.7,0,0,1,2,.84A3.26,3.26,0,0,1,803.75,340Z"/><path d="M814.83,339.93v.68a10,10,0,0,1,3.23-2.86,8.61,8.61,0,0,1,4-.91,8.06,8.06,0,0,1,4,1,6.15,6.15,0,0,1,2.61,2.73,6.44,6.44,0,0,1,.71,2.21,22.76,22.76,0,0,1,.17,3v10.41a3.74,3.74,0,0,1-.77,2.55,2.57,2.57,0,0,1-2,.86,2.61,2.61,0,0,1-2-.88,3.7,3.7,0,0,1-.78-2.53v-9.33a9.36,9.36,0,0,0-.77-4.23c-.51-1-1.53-1.47-3.07-1.47a4.56,4.56,0,0,0-2.72.89,5.23,5.23,0,0,0-1.81,2.46,17.64,17.64,0,0,0-.41,4.67v7a3.63,3.63,0,0,1-.79,2.56,2.66,2.66,0,0,1-2,.85,2.57,2.57,0,0,1-2-.88,3.7,3.7,0,0,1-.78-2.53V340a3.52,3.52,0,0,1,.7-2.38,2.41,2.41,0,0,1,1.91-.79,2.61,2.61,0,0,1,1.33.34,2.52,2.52,0,0,1,1,1.05A3.79,3.79,0,0,1,814.83,339.93Z"/><path d="M849.75,359.6a3.2,3.2,0,0,1-2.2-.82,3.11,3.11,0,0,1,2.14-5.35,3,3,0,0,1,2.2.89,2.89,2.89,0,0,1,.91,2.16,2.93,2.93,0,0,1-.91,2.29A3.09,3.09,0,0,1,849.75,359.6Z"/><path d="M863.1,359.6a3.17,3.17,0,0,1-2.19-.82,2.9,2.9,0,0,1-.92-2.3,3,3,0,0,1,.88-2.15,2.92,2.92,0,0,1,2.17-.9,3,3,0,0,1,2.21.89,2.92,2.92,0,0,1,.91,2.16,3,3,0,0,1-.91,2.29A3.12,3.12,0,0,1,863.1,359.6Z"/><path d="M876.46,359.6a3.2,3.2,0,0,1-2.2-.82,2.93,2.93,0,0,1-.92-2.3,3,3,0,0,1,.88-2.15,2.94,2.94,0,0,1,2.18-.9,3,3,0,0,1,2.2.89,2.89,2.89,0,0,1,.91,2.16,2.93,2.93,0,0,1-.91,2.29A3.09,3.09,0,0,1,876.46,359.6Z"/><path class="cls-4" d="M367.22,209.24a4.32,4.32,0,0,1-3.08-1.5c-11.63-3.11-45.21-32.25-63.65-61.62C284.67,120.92,280.1,97.49,288,81.85c4.9-9.73,14.14-15.41,26.74-16.4.92-.08,1.87-.11,2.8-.11,15.44,0,30.14,9.69,40.83,26.77,7.64-21.24,21-33.77,36.23-33.77,6.46,0,13,2.2,19.35,6.54,15.7,10.7,27.13,38.28,7.65,80.82-16.57,36.2-42.34,63.4-54.3,63.54Z"/><path class="cls-5" d="M394.56,60.34c5.91,0,12.08,2,18.22,6.2,17.4,11.84,24.28,40.51,7,78.33-15.94,34.81-41.36,62.24-52.5,62.37h0a2.88,2.88,0,0,1-2-1.3c-10-1.9-44-30.65-63-60.89-26.08-41.55-19-75.11,12.67-77.61.88-.07,1.77-.1,2.65-.1,14.7,0,30.2,9.57,41.34,29.56,7.24-23.48,20.65-36.56,35.72-36.56m0-4c-15.22,0-28.57,11.59-36.7,31.42C347,72.14,332.62,63.34,317.5,63.34c-1,0-2,0-3,.11-13.14,1-23.22,7.26-28.36,17.5-8.19,16.28-3.59,40.42,12.61,66.23,18.71,29.8,51.62,58.33,64.31,62.34a6,6,0,0,0,4.12,1.72h.06c14.18-.16,40.39-30.4,56.1-64.71,8.4-18.35,11.81-36,9.86-51.08C431.43,81.44,425,70,415,63.23c-6.71-4.57-13.6-6.89-20.47-6.89Z"/><path class="cls-6" d="M366.09,194.54A4.32,4.32,0,0,1,363,193c-11.63-3.11-45.21-32.25-63.65-61.62-15.82-25.2-20.39-48.63-12.53-64.27,4.89-9.74,14.14-15.41,26.73-16.4.93-.08,1.88-.11,2.81-.11,15.44,0,30.13,9.69,40.83,26.77,7.64-21.24,21-33.77,36.23-33.77,6.46,0,13,2.2,19.35,6.54,15.7,10.7,27.13,38.28,7.65,80.82-16.57,36.2-42.34,63.4-54.3,63.54Z"/><path d="M393.43,45.64c5.91,0,12.08,2,18.22,6.2,17.39,11.84,24.28,40.51,7,78.33-15.94,34.81-41.36,62.24-52.5,62.37h0a2.88,2.88,0,0,1-2-1.3c-10-1.9-44.05-30.65-63-60.89-26.08-41.55-19-75.11,12.67-77.61.88-.07,1.77-.1,2.65-.1,14.7,0,30.2,9.57,41.34,29.56,7.24-23.48,20.65-36.56,35.72-36.56m0-4c-15.22,0-28.57,11.59-36.7,31.42-10.86-15.62-25.24-24.42-40.36-24.42-1,0-2,0-3,.11-13.14,1-23.22,7.26-28.36,17.5-8.19,16.28-3.59,40.42,12.61,66.23,18.71,29.8,51.62,58.33,64.31,62.33a6,6,0,0,0,4.12,1.73h.06c14.18-.16,40.39-30.4,56.1-64.71,8.4-18.35,11.81-36,9.86-51.08-1.81-14-8.28-25.46-18.21-32.22-6.71-4.57-13.6-6.89-20.47-6.89Z"/><path class="cls-4" d="M1072.22,202.24a4.32,4.32,0,0,1-3.08-1.5c-11.63-3.11-45.21-32.25-63.65-61.62C989.67,113.92,985.1,90.49,993,74.85c4.9-9.73,14.14-15.41,26.74-16.4.92-.08,1.87-.11,2.8-.11,15.44,0,30.14,9.69,40.83,26.77,7.64-21.24,21-33.77,36.23-33.77,6.46,0,13,2.2,19.35,6.54,15.7,10.7,27.13,38.28,7.65,80.82-16.57,36.2-42.34,63.4-54.3,63.54Z"/><path class="cls-5" d="M1099.56,53.34c5.91,0,12.08,2,18.22,6.2,17.4,11.84,24.28,40.51,7,78.33-15.94,34.81-41.36,62.24-52.5,62.37h0a2.88,2.88,0,0,1-2-1.3c-10-1.9-44-30.65-63-60.89-26.08-41.55-19-75.11,12.67-77.61.88-.07,1.77-.1,2.65-.1,14.7,0,30.2,9.57,41.34,29.56,7.24-23.48,20.65-36.56,35.72-36.56m0-4c-15.22,0-28.57,11.59-36.7,31.42-10.86-15.62-25.24-24.42-40.36-24.42-1,0-2,0-3,.11-13.14,1-23.22,7.26-28.36,17.5-8.19,16.28-3.59,40.42,12.61,66.23,18.71,29.8,51.62,58.33,64.31,62.34a6,6,0,0,0,4.12,1.72h.06c14.18-.16,40.39-30.4,56.1-64.71,8.4-18.35,11.81-36,9.86-51.08-1.81-14-8.28-25.46-18.21-32.22-6.71-4.57-13.6-6.89-20.47-6.89Z"/><path class="cls-6" d="M1071.09,187.54A4.32,4.32,0,0,1,1068,186c-11.63-3.11-45.21-32.25-63.65-61.62C988.54,99.22,984,75.79,991.83,60.15c4.89-9.74,14.14-15.41,26.73-16.4.93-.08,1.88-.11,2.81-.11,15.44,0,30.13,9.69,40.83,26.77,7.64-21.24,21-33.77,36.23-33.77,6.46,0,13,2.2,19.35,6.54,15.7,10.7,27.13,38.28,7.65,80.82-16.57,36.2-42.34,63.4-54.3,63.54Z"/><path d="M1098.43,38.64c5.91,0,12.08,2,18.22,6.2,17.39,11.84,24.28,40.51,7,78.33-15.94,34.81-41.36,62.24-52.5,62.37h0a2.88,2.88,0,0,1-2-1.3c-10-1.9-44-30.65-63-60.89-26.08-41.55-19-75.11,12.67-77.61.88-.07,1.77-.1,2.65-.1,14.7,0,30.2,9.57,41.34,29.56,7.24-23.48,20.65-36.56,35.72-36.56m0-4c-15.22,0-28.57,11.59-36.7,31.42-10.86-15.62-25.24-24.42-40.36-24.42-1,0-2,0-3,.11-13.14,1-23.22,7.26-28.36,17.5-8.19,16.28-3.59,40.42,12.61,66.23,18.71,29.8,51.62,58.33,64.31,62.33a6,6,0,0,0,4.12,1.73h.06c14.18-.16,40.39-30.4,56.1-64.71,8.4-18.35,11.81-36,9.86-51.08-1.81-14-8.28-25.46-18.21-32.22-6.71-4.57-13.6-6.89-20.47-6.89Z"/></svg>
